<svg xmlns="http://www.w3.org/2000/svg" width="1040" height="480" fill="none"><path fill="#fff" d="M0 0h1040v480H0z"/><path fill="#FF7B00" d="M327.975 139.676c-21.806-48.911-87.223-51.315-117.752-37.122-26.167 15.284-43.614 37.122-33.801 93.893 9.813 56.772 63.238 64.414 103.58 62.23 40.341-2.183 75.231-57.863 47.973-119.001Z"/><path fill="#000" d="m251.294 258.2-4.041-73.6h13.553l5.35 74.39c-5.803-.107-9.058-.296-14.862-.79Zm20.95-98.193-4.774-2.058s3.349-13.926 8.024-21.626c4.518-7.443 14.861-16.622 14.861-16.622l4.473 2.925c-15.105 10.077-19.901 19.446-22.584 37.381Zm27.153-5.657-1.848-4.859s12.326-7.295 21.108-9.303c8.488-1.941 22.278-.911 22.278-.911l1.016 5.247c-17.751-3.822-27.815-.739-42.554 9.826Zm-8.281 31.551 1.71-4.909s14.13 2.34 22.146 6.45c7.748 3.973 17.645 13.631 17.645 13.631l-2.596 4.671c-11.135-14.343-20.824-18.455-38.905-19.843Z"/><path fill="#000" d="m253.567 174.189 2.884 4.325s-10.392 9.857-18.505 13.77c-7.843 3.783-21.516 5.85-21.516 5.85l-2.159-4.889c18.156-.228 27.281-5.474 39.296-19.056Z"/><path fill="#000" d="m269.239 177.305-1.153 5.069s-14.303-.754-22.726-3.946c-8.143-3.086-19.053-11.582-19.053-11.582l2.06-4.931c12.663 13.014 22.749 16.022 40.872 15.39Z"/><path fill="#000" d="m249.603 164.854 5.072 1.14s-.719 14.305-3.89 22.736c-3.066 8.15-11.536 19.081-11.536 19.081l-4.936-2.048c12.984-12.694 15.967-22.787 15.29-40.909Z"/><path fill="#000" d="m252.135 175.703.002 5.198s-14.113 2.444-23.035 1.203c-8.625-1.2-21.15-7.059-21.15-7.059l.913-5.265c15.238 9.875 25.74 10.566 43.27 5.923Z"/><path fill="#000" d="m260.966 178.774-4.373 2.811s-9.681-10.556-13.457-18.734c-3.65-7.906-5.486-21.612-5.486-21.612l4.924-2.076c-.078 18.158 5.014 27.369 18.392 39.611Z"/><path fill="#000" d="M272.281 169.025c-4.893-10.975-19.572-11.515-26.422-8.33-5.872 3.43-9.787 8.33-7.585 21.069 2.202 12.739 14.19 14.454 23.243 13.964 9.052-.49 16.881-12.984 10.764-26.703Zm30.326-49.299c.763-4.738-4.025-8.127-7.011-8.56-2.713-.137-5.092.645-7.141 5.385-2.048 4.739 1.584 7.932 4.717 9.747 3.132 1.815 8.48-.65 9.435-6.572Zm46.841 28.359c3.932-2.752 3.029-8.548 1.26-10.992-1.79-2.042-4.009-3.205-8.836-1.375-4.828 1.831-4.59 6.661-3.711 10.173.879 3.512 6.372 5.634 11.287 2.194Zm-15.976 65.209c4.78.421 7.817-4.598 8.035-7.607-.058-2.715-1.009-5.033-5.883-6.736-4.874-1.703-7.799 2.149-9.384 5.404-1.586 3.255 1.256 8.412 7.232 8.939Zm-127.304-21.851c-3.22 3.558-1.049 9.008 1.22 10.997 2.2 1.591 4.622 2.231 8.92-.628 4.299-2.86 2.992-7.516 1.352-10.744-1.639-3.229-7.467-4.073-11.492.375Zm17.93-36.648c-4.798.114-7.257 5.44-7.138 8.454.36 2.692 1.563 4.889 6.596 6.039 5.033 1.151 7.511-3.003 8.724-6.414 1.214-3.411-2.185-8.22-8.182-8.079Zm3.107 55.255c.125 4.797 5.457 7.243 8.471 7.117 2.691-.366 4.885-1.575 6.023-6.611s-3.021-7.503-6.436-8.708c-3.414-1.205-8.214 2.205-8.058 8.202Zm-24.086-46.263c-4.653 1.177-5.867 6.916-5.081 9.829.949 2.545 2.61 4.42 7.773 4.423 5.163.003 6.656-4.598 7.081-8.193.425-3.596-3.957-7.529-9.773-6.059Zm41.394-32.696c-3.504-3.279-8.989-1.2-11.016 1.034-1.629 2.174-2.309 4.584.478 8.931 2.786 4.346 7.464 3.117 10.719 1.532 3.256-1.585 4.198-7.397-.181-11.497Zm-85.26 142.338c10.037 0 16.991 1.673 20.861 5.018 3.871 3.28 5.806 8.495 5.806 15.646 0 7.085-1.411 12.431-4.231 16.039 4.132 3.411 6.199 9.151 6.199 17.22 0 15.482-8.889 23.222-26.667 23.222-2.099 0-8.954-.524-20.565-1.574v-73.997c6.822-1.049 13.021-1.574 18.597-1.574Zm11.808 62.681c1.312-1.444 1.968-4.396 1.968-8.856 0-4.461-.492-7.151-1.476-8.069-.984-.919-3.542-1.378-7.675-1.378-4.067 0-6.658.066-7.773.197-1.05.131-1.575.525-1.575 1.181v17.613c0 .722.427 1.148 1.279 1.28.919.131 3.379.196 7.38.196 4.002 0 6.626-.721 7.872-2.164Zm-14.76-30.504c5.708 0 9.578-.689 11.612-2.067 2.099-1.377 3.148-4.428 3.148-9.151 0-2.69-.59-4.887-1.771-6.593-1.115-1.771-2.329-2.657-3.641-2.657-5.576 0-8.954.361-10.135 1.083-.393.262-.721.656-.984 1.181v16.629c0 .787.131 1.247.394 1.378.459.131.918.197 1.377.197Zm39.416 41.032v-71.635c6.692-1.049 12.497-1.574 17.417-1.574 9.119 0 15.416 1.705 18.893 5.117 3.477 3.411 5.215 9.052 5.215 16.924 0 11.021-3.083 18.368-9.249 22.042l12.398 28.044c.722 1.64 1.082 2.722 1.082 3.247 0 .459-.065.755-.196.886-.263.59-1.378.885-3.346.885-6.363 0-10.102-1.246-11.218-3.739l-11.217-25.977c-1.64.131-4.1.196-7.38.196v25.388c0 1.836-.197 2.984-.591 3.444-.328.459-1.443.688-3.345.688-5.642 0-8.463-1.312-8.463-3.936Zm13.973-39.064c5.248 0 8.791-.722 10.627-2.165 1.837-1.509 2.756-4.855 2.756-10.037 0-3.149-.525-5.642-1.575-7.478-.984-1.837-2.099-2.756-3.345-2.756-4.658 0-7.512.099-8.561.296-.984.196-1.476.852-1.476 1.968v18.696c0 .852.164 1.312.492 1.377.328.066.689.099 1.082.099Zm71.166-3.346c2.624 0 3.936 1.181 3.936 3.542 0 3.215-.197 5.412-.591 6.593-.393 1.181-1.41 1.771-3.05 1.771h-19.286v20.96h22.73c1.574.065 2.657.393 3.247.984.591.524.886 1.344.886 2.46 0 3.214-.295 5.444-.886 6.691-.59 1.181-1.771 1.771-3.542 1.771h-34.637l-1.574-1.574v-72.423h34.932c2.82.066 4.231 1.115 4.231 3.149-.066 1.771-.164 3.182-.295 4.231-.132.984-.558 1.968-1.28 2.952-.656.984-1.64 1.476-2.952 1.476h-21.943l1.083 17.417h18.991Zm47.566 0c2.624 0 3.936 1.181 3.936 3.542 0 3.215-.197 5.412-.59 6.593-.394 1.181-1.411 1.771-3.051 1.771h-19.286v20.96h22.73c1.575.065 2.657.393 3.248.984.59.524.885 1.344.885 2.46 0 3.214-.295 5.444-.885 6.691-.591 1.181-1.772 1.771-3.543 1.771h-34.637l-1.574-1.574v-72.423h34.932c2.821.066 4.231 1.115 4.231 3.149-.065 1.771-.164 3.182-.295 4.231-.131.984-.558 1.968-1.279 2.952-.656.984-1.64 1.476-2.952 1.476h-21.943l1.082 17.417h18.991ZM383.073 349h-38.376l-1.574-1.574v-10.431l27.946-50.184h-25.191c-1.705-.065-2.821-.459-3.345-1.181-.525-.918-.788-2.427-.788-4.526 0-2.165.23-3.706.689-4.625.459-.984 1.443-1.476 2.952-1.476h39.557l1.574 1.575v8.659l-27.256 51.857h23.32c2.165.065 3.608.36 4.33.885.787.459 1.181 1.214 1.181 2.263-.131 5.839-1.804 8.758-5.019 8.758Z"/><path fill="#FF7B00" d="M832.908 139.676c-21.806-48.911-87.223-51.315-117.752-37.122-26.167 15.284-43.614 37.122-33.801 93.893 9.812 56.772 63.238 64.414 103.579 62.23 40.342-2.183 75.232-57.863 47.974-119.001Z"/><path fill="#000" d="m756.227 258.2-4.041-73.6h13.553l5.35 74.39c-5.803-.107-9.058-.296-14.862-.79Zm20.95-98.193-4.774-2.058s3.349-13.926 8.023-21.626c4.519-7.443 14.862-16.622 14.862-16.622l4.472 2.925c-15.104 10.077-19.901 19.446-22.583 37.381Zm27.153-5.657-1.848-4.859s12.326-7.295 21.107-9.303c8.489-1.941 22.279-.911 22.279-.911l1.016 5.247c-17.751-3.822-27.815-.739-42.554 9.826Zm-8.281 31.551 1.71-4.909s14.13 2.34 22.146 6.45c7.748 3.973 17.645 13.631 17.645 13.631l-2.596 4.671c-11.135-14.343-20.824-18.455-38.905-19.843Z"/><path fill="#000" d="m758.5 174.189 2.884 4.325s-10.392 9.857-18.505 13.77c-7.843 3.783-21.516 5.85-21.516 5.85l-2.159-4.889c18.156-.228 27.281-5.474 39.296-19.056Z"/><path fill="#000" d="m774.172 177.305-1.153 5.069s-14.303-.754-22.726-3.946c-8.143-3.086-19.053-11.582-19.053-11.582l2.06-4.931c12.662 13.014 22.748 16.022 40.872 15.39Z"/><path fill="#000" d="m754.536 164.854 5.072 1.14s-.719 14.305-3.891 22.736c-3.065 8.15-11.535 19.081-11.535 19.081l-4.936-2.048c12.983-12.694 15.967-22.787 15.29-40.909Z"/><path fill="#000" d="m757.068 175.703.002 5.198s-14.113 2.444-23.035 1.203c-8.625-1.2-21.15-7.059-21.15-7.059l.913-5.265c15.237 9.875 25.74 10.566 43.27 5.923Z"/><path fill="#000" d="m765.899 178.774-4.373 2.811s-9.681-10.556-13.457-18.734c-3.65-7.906-5.487-21.612-5.487-21.612l4.925-2.076c-.078 18.158 5.014 27.369 18.392 39.611Z"/><path fill="#000" d="M777.214 169.025c-4.893-10.975-19.572-11.515-26.422-8.33-5.872 3.43-9.787 8.33-7.585 21.069 2.202 12.739 14.19 14.454 23.243 13.964 9.052-.49 16.881-12.984 10.764-26.703Zm30.325-49.299c.764-4.738-4.025-8.127-7.01-8.56-2.713-.137-5.092.645-7.141 5.385-2.048 4.739 1.584 7.932 4.717 9.747 3.132 1.815 8.48-.65 9.434-6.572Zm46.842 28.359c3.932-2.752 3.029-8.548 1.26-10.992-1.79-2.042-4.009-3.205-8.836-1.375-4.828 1.831-4.59 6.661-3.711 10.173.879 3.512 6.372 5.634 11.287 2.194Zm-15.976 65.209c4.78.421 7.817-4.598 8.034-7.607-.057-2.715-1.008-5.033-5.882-6.736-4.874-1.703-7.799 2.149-9.384 5.404-1.586 3.255 1.256 8.412 7.232 8.939Zm-127.304-21.851c-3.22 3.558-1.049 9.008 1.219 10.997 2.201 1.591 4.622 2.231 8.921-.628 4.299-2.86 2.992-7.516 1.352-10.744-1.639-3.229-7.467-4.073-11.492.375Zm17.93-36.648c-4.798.114-7.257 5.44-7.138 8.454.36 2.692 1.562 4.889 6.596 6.039 5.033 1.151 7.511-3.003 8.724-6.414 1.214-3.411-2.185-8.22-8.182-8.079Zm3.107 55.255c.125 4.797 5.457 7.243 8.471 7.117 2.691-.366 4.885-1.575 6.023-6.611s-3.022-7.503-6.436-8.708-8.214 2.205-8.058 8.202Zm-24.086-46.263c-4.653 1.177-5.867 6.916-5.081 9.829.949 2.545 2.61 4.42 7.773 4.423 5.163.003 6.656-4.598 7.081-8.193.425-3.596-3.957-7.529-9.773-6.059Zm41.394-32.696c-3.504-3.279-8.99-1.2-11.016 1.034-1.629 2.174-2.309 4.584.477 8.931 2.787 4.346 7.465 3.117 10.72 1.532 3.255-1.585 4.198-7.397-.181-11.497Zm-76.393 142.338c10.037 0 16.991 1.673 20.861 5.018 3.871 3.28 5.806 8.495 5.806 15.646 0 7.085-1.411 12.431-4.231 16.039 4.132 3.411 6.199 9.151 6.199 17.22 0 15.482-8.889 23.222-26.667 23.222-2.099 0-8.954-.524-20.565-1.574v-73.997c6.822-1.049 13.021-1.574 18.597-1.574Zm11.808 62.681c1.312-1.444 1.968-4.396 1.968-8.856 0-4.461-.492-7.151-1.476-8.069-.984-.919-3.542-1.378-7.675-1.378-4.067 0-6.658.066-7.773.197-1.05.131-1.575.525-1.575 1.181v17.613c0 .722.427 1.148 1.279 1.28.919.131 3.379.196 7.38.196 4.002 0 6.626-.721 7.872-2.164Zm-14.76-30.504c5.708 0 9.578-.689 11.612-2.067 2.099-1.377 3.148-4.428 3.148-9.151 0-2.69-.59-4.887-1.771-6.593-1.115-1.771-2.329-2.657-3.641-2.657-5.576 0-8.954.361-10.135 1.083-.393.262-.721.656-.984 1.181v16.629c0 .787.131 1.247.394 1.378.459.131.918.197 1.377.197Zm39.416 41.032v-71.635c6.692-1.049 12.497-1.574 17.417-1.574 9.119 0 15.416 1.705 18.893 5.117 3.477 3.411 5.215 9.052 5.215 16.924 0 11.021-3.083 18.368-9.249 22.042l12.398 28.044c.722 1.64 1.082 2.722 1.082 3.247 0 .459-.065.755-.196.886-.263.59-1.378.885-3.346.885-6.363 0-10.102-1.246-11.218-3.739l-11.217-25.977c-1.64.131-4.1.196-7.38.196v25.388c0 1.836-.197 2.984-.591 3.444-.328.459-1.443.688-3.345.688-5.642 0-8.463-1.312-8.463-3.936Zm13.973-39.064c5.248 0 8.791-.722 10.627-2.165 1.837-1.509 2.756-4.855 2.756-10.037 0-3.149-.525-5.642-1.575-7.478-.984-1.837-2.099-2.756-3.345-2.756-4.658 0-7.512.099-8.561.296-.984.196-1.476.852-1.476 1.968v18.696c0 .852.164 1.312.492 1.377.328.066.689.099 1.082.099Zm71.166-3.346c2.624 0 3.936 1.181 3.936 3.542 0 3.215-.197 5.412-.591 6.593-.393 1.181-1.41 1.771-3.05 1.771h-19.286v20.96h22.73c1.574.065 2.657.393 3.247.984.591.524.886 1.344.886 2.46 0 3.214-.295 5.444-.886 6.691-.59 1.181-1.771 1.771-3.542 1.771h-34.637l-1.574-1.574v-72.423h34.932c2.82.066 4.231 1.115 4.231 3.149-.066 1.771-.164 3.182-.295 4.231-.132.984-.558 1.968-1.28 2.952-.656.984-1.64 1.476-2.952 1.476h-21.943l1.083 17.417h18.991Zm47.566 0c2.624 0 3.936 1.181 3.936 3.542 0 3.215-.197 5.412-.59 6.593-.394 1.181-1.411 1.771-3.051 1.771h-19.286v20.96h22.73c1.575.065 2.657.393 3.248.984.59.524.885 1.344.885 2.46 0 3.214-.295 5.444-.885 6.691-.591 1.181-1.772 1.771-3.543 1.771h-34.637l-1.574-1.574v-72.423h34.932c2.821.066 4.231 1.115 4.231 3.149-.065 1.771-.164 3.182-.295 4.231-.131.984-.558 1.968-1.279 2.952-.656.984-1.64 1.476-2.952 1.476h-21.943l1.082 17.417h18.991ZM896.873 349h-38.376l-1.574-1.574v-10.431l27.946-50.184h-25.191c-1.705-.065-2.821-.459-3.345-1.181-.525-.918-.788-2.427-.788-4.526 0-2.165.23-3.706.689-4.625.459-.984 1.443-1.476 2.952-1.476h39.557l1.574 1.575v8.659l-27.256 51.857h23.32c2.165.065 3.608.36 4.33.885.787.459 1.181 1.214 1.181 2.263-.131 5.839-1.804 8.758-5.019 8.758Zm-239.155 28.6-4.742-13.536h1.651l4.167 12.192h-.672l4.243-12.192h1.267l4.186 12.192h-.596l4.186-12.192h1.574L668.24 377.6h-1.402l-4.07-11.712h.422l-4.108 11.712h-1.364Zm17.272 0v-13.536h1.556v6.278h-.25c.269-.742.704-1.299 1.306-1.67.614-.384 1.318-.576 2.112-.576.742 0 1.356.134 1.843.403.499.269.87.679 1.113 1.229.244.538.365 1.222.365 2.054v5.818h-1.555v-5.722c0-.576-.077-1.049-.23-1.42a1.53 1.53 0 0 0-.692-.826c-.307-.179-.71-.269-1.209-.269-.563 0-1.056.122-1.479.365a2.5 2.5 0 0 0-.979 1.018c-.23.435-.345.947-.345 1.536v5.318h-1.556Zm15.118.173c-.986 0-1.837-.192-2.554-.576a4.232 4.232 0 0 1-1.651-1.671c-.384-.716-.576-1.574-.576-2.572 0-.973.192-1.818.576-2.535a4.334 4.334 0 0 1 1.574-1.709c.679-.409 1.46-.614 2.343-.614.845 0 1.568.186 2.169.557a3.608 3.608 0 0 1 1.383 1.574c.333.679.499 1.491.499 2.439v.595h-7.354v-1.018h6.317l-.307.25c0-1.024-.23-1.818-.691-2.381-.448-.576-1.107-.864-1.978-.864-.653 0-1.209.154-1.67.461-.448.294-.787.71-1.018 1.248-.23.525-.345 1.139-.345 1.843v.115c0 .781.121 1.44.364 1.978.256.537.634.947 1.133 1.229.499.268 1.095.403 1.786.403.55 0 1.081-.083 1.593-.25a4.474 4.474 0 0 0 1.479-.864l.537 1.095c-.422.384-.96.691-1.612.921a5.948 5.948 0 0 1-1.997.346Zm6.014-.173v-9.331h1.517v2.208h-.192c.217-.755.595-1.325 1.132-1.709.538-.397 1.248-.627 2.132-.691l.556-.058.116 1.344-.98.115c-.87.077-1.542.359-2.016.845-.46.474-.691 1.127-.691 1.959v5.318h-1.574Zm10.973.173c-.985 0-1.837-.192-2.553-.576a4.235 4.235 0 0 1-1.652-1.671c-.384-.716-.576-1.574-.576-2.572 0-.973.192-1.818.576-2.535a4.33 4.33 0 0 1 1.575-1.709c.678-.409 1.459-.614 2.342-.614.845 0 1.568.186 2.17.557a3.612 3.612 0 0 1 1.382 1.574c.333.679.499 1.491.499 2.439v.595h-7.353v-1.018h6.317l-.308.25c0-1.024-.23-1.818-.691-2.381-.448-.576-1.107-.864-1.977-.864-.653 0-1.21.154-1.671.461-.448.294-.787.71-1.017 1.248-.231.525-.346 1.139-.346 1.843v.115c0 .781.122 1.44.365 1.978a2.71 2.71 0 0 0 1.133 1.229c.499.268 1.094.403 1.785.403.551 0 1.082-.083 1.594-.25a4.47 4.47 0 0 0 1.478-.864l.538 1.095c-.423.384-.96.691-1.613.921a5.944 5.944 0 0 1-1.997.346Zm17.013 0c-1.332 0-2.471-.282-3.418-.845-.947-.563-1.677-1.363-2.189-2.4-.499-1.037-.749-2.272-.749-3.706 0-1.433.25-2.662.749-3.686.512-1.037 1.242-1.837 2.189-2.4.947-.563 2.086-.845 3.418-.845.934 0 1.798.147 2.592.442.793.294 1.459.723 1.996 1.286l-.614 1.287c-.589-.551-1.203-.948-1.843-1.191-.627-.256-1.325-.384-2.093-.384-1.523 0-2.688.48-3.494 1.44-.807.96-1.21 2.311-1.21 4.051 0 1.741.403 3.098 1.21 4.071.806.96 1.971 1.44 3.494 1.44.768 0 1.466-.122 2.093-.365.64-.256 1.254-.659 1.843-1.21l.614 1.287c-.537.55-1.203.979-1.996 1.286a7.386 7.386 0 0 1-2.592.442Zm10.055 0c-.909 0-1.696-.199-2.362-.595a4.083 4.083 0 0 1-1.555-1.671c-.359-.729-.538-1.587-.538-2.573 0-.985.179-1.836.538-2.553a4.055 4.055 0 0 1 1.555-1.69c.666-.397 1.453-.595 2.362-.595.908 0 1.696.198 2.361.595.666.397 1.178.96 1.536 1.69.371.717.557 1.568.557 2.553 0 .986-.186 1.844-.557 2.573a3.956 3.956 0 0 1-1.536 1.671c-.665.396-1.453.595-2.361.595Zm0-1.248c.883 0 1.58-.307 2.092-.922.525-.627.788-1.523.788-2.688 0-1.152-.263-2.035-.788-2.649-.512-.615-1.209-.922-2.092-.922-.871 0-1.568.307-2.093.922-.525.614-.787 1.497-.787 2.649 0 1.165.262 2.061.787 2.688.525.615 1.222.922 2.093.922Zm6.79 1.075v-9.331h1.517v2.073h-.211c.268-.742.704-1.299 1.305-1.67.615-.384 1.319-.576 2.112-.576.743 0 1.357.134 1.843.403.5.256.871.659 1.114 1.21.243.55.365 1.241.365 2.073v5.818h-1.555v-5.722c0-.576-.077-1.049-.231-1.42a1.529 1.529 0 0 0-.691-.826c-.307-.179-.71-.269-1.21-.269-.563 0-1.056.122-1.478.365a2.494 2.494 0 0 0-.979 1.018c-.231.435-.346.947-.346 1.536v5.318h-1.555Zm10.912 0v-9.331h1.517v2.073h-.211c.269-.742.704-1.299 1.306-1.67.614-.384 1.318-.576 2.112-.576.742 0 1.356.134 1.843.403.499.256.87.659 1.113 1.21.244.55.365 1.241.365 2.073v5.818h-1.555v-5.722c0-.576-.077-1.049-.23-1.42a1.53 1.53 0 0 0-.692-.826c-.307-.179-.71-.269-1.209-.269-.563 0-1.056.122-1.479.365a2.5 2.5 0 0 0-.979 1.018c-.23.435-.345.947-.345 1.536v5.318h-1.556Zm15.118.173c-.986 0-1.837-.192-2.554-.576a4.232 4.232 0 0 1-1.651-1.671c-.384-.716-.576-1.574-.576-2.572 0-.973.192-1.818.576-2.535a4.334 4.334 0 0 1 1.574-1.709c.679-.409 1.46-.614 2.343-.614.845 0 1.568.186 2.169.557a3.608 3.608 0 0 1 1.383 1.574c.333.679.499 1.491.499 2.439v.595h-7.354v-1.018h6.317l-.307.25c0-1.024-.23-1.818-.691-2.381-.448-.576-1.107-.864-1.978-.864-.653 0-1.209.154-1.67.461-.448.294-.787.71-1.018 1.248-.23.525-.345 1.139-.345 1.843v.115c0 .781.121 1.44.364 1.978.256.537.634.947 1.133 1.229.499.268 1.095.403 1.786.403.55 0 1.081-.083 1.593-.25a4.474 4.474 0 0 0 1.479-.864l.537 1.095c-.422.384-.96.691-1.612.921a5.948 5.948 0 0 1-1.997.346Zm9.969 0c-.934 0-1.741-.205-2.419-.615a4.148 4.148 0 0 1-1.575-1.708c-.358-.743-.537-1.6-.537-2.573 0-.986.179-1.837.537-2.554a3.924 3.924 0 0 1 1.575-1.651c.678-.384 1.485-.576 2.419-.576.576 0 1.146.102 1.709.307.563.205 1.03.493 1.401.864l-.537 1.133a3.53 3.53 0 0 0-1.229-.787 3.479 3.479 0 0 0-1.248-.25c-.973 0-1.722.307-2.246.922-.525.601-.788 1.472-.788 2.611 0 1.114.263 1.997.788 2.65.524.64 1.273.96 2.246.96a3.5 3.5 0 0 0 1.248-.25 3.408 3.408 0 0 0 1.229-.806l.537 1.132c-.371.372-.844.666-1.42.884a4.94 4.94 0 0 1-1.69.307Zm8.676 0c-1.101 0-1.926-.295-2.477-.883-.55-.589-.825-1.428-.825-2.516v-4.896h-1.824v-1.209h1.824v-2.861h1.555v2.861h2.957v1.209h-2.957v4.743c0 .729.154 1.286.461 1.67.307.371.806.557 1.497.557.205 0 .41-.026.615-.077.205-.051.39-.102.557-.153l.268 1.19c-.166.09-.409.173-.729.25a3.99 3.99 0 0 1-.922.115Zm2.777-11.827v-1.748h1.92v1.748h-1.92Zm.192 11.654v-9.331h1.555v9.331h-1.555Zm8.341.173c-.909 0-1.696-.199-2.362-.595a4.083 4.083 0 0 1-1.555-1.671c-.359-.729-.538-1.587-.538-2.573 0-.985.179-1.836.538-2.553a4.055 4.055 0 0 1 1.555-1.69c.666-.397 1.453-.595 2.362-.595.908 0 1.696.198 2.361.595.666.397 1.178.96 1.536 1.69.371.717.557 1.568.557 2.553 0 .986-.186 1.844-.557 2.573a3.956 3.956 0 0 1-1.536 1.671c-.665.396-1.453.595-2.361.595Zm0-1.248c.883 0 1.58-.307 2.092-.922.525-.627.788-1.523.788-2.688 0-1.152-.263-2.035-.788-2.649-.512-.615-1.209-.922-2.092-.922-.871 0-1.568.307-2.093.922-.525.614-.787 1.497-.787 2.649 0 1.165.262 2.061.787 2.688.525.615 1.222.922 2.093.922Zm6.79 1.075v-9.331h1.517v2.073h-.211c.268-.742.704-1.299 1.305-1.67.615-.384 1.319-.576 2.112-.576.743 0 1.357.134 1.843.403.5.256.871.659 1.114 1.21.243.55.365 1.241.365 2.073v5.818h-1.555v-5.722c0-.576-.077-1.049-.231-1.42a1.529 1.529 0 0 0-.691-.826c-.307-.179-.71-.269-1.21-.269-.563 0-1.056.122-1.478.365a2.494 2.494 0 0 0-.979 1.018c-.231.435-.346.947-.346 1.536v5.318h-1.555Zm14.061.173a6.5 6.5 0 0 1-1.421-.154 6.548 6.548 0 0 1-1.267-.384 4.279 4.279 0 0 1-.998-.633l.499-1.095c.307.243.64.448.998.615a5.563 5.563 0 0 0 2.228.46c.729 0 1.28-.134 1.651-.403a1.28 1.28 0 0 0 .557-1.094c0-.359-.122-.64-.365-.845-.243-.218-.627-.384-1.152-.499l-1.747-.384c-.807-.167-1.408-.455-1.805-.864-.384-.41-.576-.941-.576-1.594 0-.576.147-1.069.441-1.478.308-.423.736-.749 1.287-.979.55-.231 1.19-.346 1.92-.346.435 0 .851.045 1.248.134.397.09.768.224 1.113.404.359.166.666.377.922.633l-.518 1.095a3.398 3.398 0 0 0-.826-.576 3.783 3.783 0 0 0-.96-.365 3.597 3.597 0 0 0-.979-.135c-.717 0-1.261.141-1.632.423a1.33 1.33 0 0 0-.557 1.113c0 .359.115.653.346.884.23.23.588.396 1.075.499l1.747.365c.832.179 1.453.467 1.862.864.423.384.634.908.634 1.574 0 .563-.154 1.056-.461 1.478-.307.41-.742.73-1.305.96-.551.218-1.204.327-1.959.327Zm11.238-.173v-13.536h5.414c1.382 0 2.458.307 3.226.922.768.614 1.152 1.484 1.152 2.611 0 .845-.25 1.549-.749 2.112-.487.563-1.152.934-1.997 1.113v-.268c.64.076 1.19.262 1.651.556.461.282.813.66 1.056 1.133.243.461.365 1.005.365 1.632 0 .807-.179 1.491-.538 2.055-.345.55-.851.966-1.516 1.248-.666.281-1.472.422-2.42.422h-5.644Zm1.536-1.267h3.955c.409 0 .774-.032 1.094-.096.333-.064.621-.16.864-.288.243-.141.448-.307.615-.499.166-.192.288-.423.364-.692.09-.268.135-.569.135-.902 0-.346-.045-.646-.135-.902a1.785 1.785 0 0 0-.364-.692 1.976 1.976 0 0 0-.615-.499 3.108 3.108 0 0 0-.864-.288 5.615 5.615 0 0 0-1.094-.096h-3.955v4.954Zm0-6.221h3.648c.998 0 1.753-.205 2.265-.614.525-.41.787-.999.787-1.767 0-.793-.262-1.389-.787-1.785-.512-.41-1.267-.615-2.265-.615h-3.648v4.781Zm14.088 7.661c-.947 0-1.664-.282-2.15-.845-.474-.563-.711-1.37-.711-2.419v-10.445h1.556v10.33c0 .448.057.825.172 1.132.128.308.314.538.557.692.243.153.544.23.903.23.153 0 .3-.006.441-.019a3.59 3.59 0 0 0 .423-.096l-.039 1.305c-.205.039-.403.071-.595.096a3.875 3.875 0 0 1-.557.039Zm6.605 0c-.908 0-1.696-.199-2.361-.595a4.083 4.083 0 0 1-1.555-1.671c-.359-.729-.538-1.587-.538-2.573 0-.985.179-1.836.538-2.553a4.055 4.055 0 0 1 1.555-1.69c.665-.397 1.453-.595 2.361-.595.909 0 1.696.198 2.362.595.666.397 1.178.96 1.536 1.69.371.717.557 1.568.557 2.553 0 .986-.186 1.844-.557 2.573a3.956 3.956 0 0 1-1.536 1.671c-.666.396-1.453.595-2.362.595Zm0-1.248c.884 0 1.581-.307 2.093-.922.525-.627.787-1.523.787-2.688 0-1.152-.262-2.035-.787-2.649-.512-.615-1.209-.922-2.093-.922-.87 0-1.568.307-2.092.922-.525.614-.788 1.497-.788 2.649 0 1.165.263 2.061.788 2.688.524.615 1.222.922 2.092.922Zm9.94 1.248c-.487 0-.96-.051-1.421-.154a6.527 6.527 0 0 1-1.267-.384 4.307 4.307 0 0 1-.999-.633l.499-1.095c.308.243.64.448.999.615a5.563 5.563 0 0 0 2.227.46c.73 0 1.28-.134 1.651-.403a1.28 1.28 0 0 0 .557-1.094c0-.359-.122-.64-.365-.845-.243-.218-.627-.384-1.152-.499l-1.747-.384c-.806-.167-1.408-.455-1.805-.864-.384-.41-.576-.941-.576-1.594 0-.576.147-1.069.442-1.478.307-.423.736-.749 1.286-.979.551-.231 1.191-.346 1.92-.346.435 0 .851.045 1.248.134.397.09.768.224 1.114.404.358.166.665.377.921.633l-.518 1.095a3.36 3.36 0 0 0-.826-.576 3.783 3.783 0 0 0-.96-.365 3.597 3.597 0 0 0-.979-.135c-.717 0-1.261.141-1.632.423a1.33 1.33 0 0 0-.557 1.113c0 .359.116.653.346.884.23.23.589.396 1.075.499l1.747.365c.832.179 1.453.467 1.863.864.422.384.633.908.633 1.574 0 .563-.153 1.056-.46 1.478-.308.41-.743.73-1.306.96-.55.218-1.203.327-1.958.327Zm9.243 0a6.5 6.5 0 0 1-1.421-.154 6.548 6.548 0 0 1-1.267-.384 4.279 4.279 0 0 1-.998-.633l.499-1.095c.307.243.64.448.998.615a5.563 5.563 0 0 0 2.228.46c.729 0 1.28-.134 1.651-.403a1.28 1.28 0 0 0 .557-1.094c0-.359-.122-.64-.365-.845-.243-.218-.627-.384-1.152-.499l-1.747-.384c-.807-.167-1.408-.455-1.805-.864-.384-.41-.576-.941-.576-1.594 0-.576.147-1.069.441-1.478.308-.423.736-.749 1.287-.979.55-.231 1.19-.346 1.92-.346.435 0 .851.045 1.248.134.397.09.768.224 1.113.404.359.166.666.377.922.633l-.518 1.095a3.398 3.398 0 0 0-.826-.576 3.783 3.783 0 0 0-.96-.365 3.597 3.597 0 0 0-.979-.135c-.717 0-1.261.141-1.632.423a1.33 1.33 0 0 0-.557 1.113c0 .359.115.653.346.884.23.23.588.396 1.075.499l1.747.365c.832.179 1.453.467 1.862.864.423.384.634.908.634 1.574 0 .563-.154 1.056-.461 1.478-.307.41-.742.73-1.305.96-.551.218-1.204.327-1.959.327Zm9.974 0c-.909 0-1.696-.199-2.362-.595a4.083 4.083 0 0 1-1.555-1.671c-.359-.729-.538-1.587-.538-2.573 0-.985.179-1.836.538-2.553a4.055 4.055 0 0 1 1.555-1.69c.666-.397 1.453-.595 2.362-.595.908 0 1.696.198 2.361.595.666.397 1.178.96 1.536 1.69.371.717.557 1.568.557 2.553 0 .986-.186 1.844-.557 2.573a3.956 3.956 0 0 1-1.536 1.671c-.665.396-1.453.595-2.361.595Zm0-1.248c.883 0 1.58-.307 2.092-.922.525-.627.788-1.523.788-2.688 0-1.152-.263-2.035-.788-2.649-.512-.615-1.209-.922-2.092-.922-.871 0-1.568.307-2.093.922-.525.614-.787 1.497-.787 2.649 0 1.165.262 2.061.787 2.688.525.615 1.222.922 2.093.922Zm6.828 1.075v-9.331h1.517v2.073h-.211c.154-.473.378-.876.672-1.209a2.866 2.866 0 0 1 1.075-.768 3.51 3.51 0 0 1 1.383-.269c.793 0 1.433.192 1.92.576.499.371.832.954.998 1.747h-.288c.23-.717.64-1.28 1.229-1.689.601-.423 1.299-.634 2.093-.634.704 0 1.28.134 1.728.403.46.269.806.679 1.036 1.229.231.538.346 1.222.346 2.054v5.818h-1.555v-5.741c0-.857-.147-1.485-.442-1.881-.294-.41-.793-.615-1.497-.615-.5 0-.941.122-1.325.365a2.394 2.394 0 0 0-.864 1.037c-.192.435-.288.953-.288 1.555v5.28h-1.555v-5.741c0-.857-.154-1.485-.461-1.881-.295-.41-.787-.615-1.479-.615-.512 0-.953.122-1.324.365a2.38 2.38 0 0 0-.864 1.037c-.192.435-.288.953-.288 1.555v5.28h-1.556Z"/></svg>