<svg xmlns="http://www.w3.org/2000/svg" width="510" height="458" fill="none"><rect width="508.644" height="455.626" x=".469" y="1.066" fill="#0C0D0E" rx="18.285"/><rect width="508.644" height="455.626" x=".469" y="1.066" stroke="#767F87" stroke-width=".938" rx="18.285"/><path fill="#fff" d="M276.146 32.597v-3.538c0-.483-.116-.847-.35-1.093-.233-.25-.539-.375-.918-.375-.471 0-.838.187-1.1.562-.263.371-.394.921-.394 1.65h-.569c0-.608.056-1.127.169-1.556.117-.433.281-.788.494-1.063.216-.274.473-.474.768-.6.296-.129.625-.193.988-.193.487 0 .898.11 1.231.331.337.22.592.531.762.931.175.4.263.869.263 1.406v3.538h-1.344Zm-8.287 0V26.56h1.169l.144 1.08c.196-.412.46-.722.793-.93a2.107 2.107 0 0 1 1.157-.32c.491 0 .904.111 1.237.332.337.22.592.531.762.931.175.4.263.869.263 1.406v3.538h-1.337v-3.538c0-.483-.117-.847-.35-1.093-.23-.25-.536-.375-.919-.375-.313 0-.588.085-.825.256-.238.17-.423.425-.556.762-.134.338-.2.752-.2 1.244v2.744h-1.338Zm15.634 0-.168-1.431v-2.47c0-.457-.094-.793-.282-1.005-.187-.213-.493-.319-.918-.319a1.78 1.78 0 0 0-.644.106.94.94 0 0 0-.431.319.848.848 0 0 0-.15.512h-1.469c0-.454.109-.82.325-1.1.221-.283.531-.489.931-.618.404-.134.884-.2 1.438-.2.504 0 .946.083 1.325.25.383.162.681.417.893.762.213.346.319.792.319 1.338v3.856h-1.169Zm-1.999.168c-.513 0-.94-.09-1.282-.268a1.877 1.877 0 0 1-.762-.706 1.834 1.834 0 0 1-.256-.944c0-.388.1-.71.3-.969.204-.258.487-.45.85-.575a3.852 3.852 0 0 1 1.281-.194c.325 0 .635.027.931.082.3.05.598.12.894.212v.794a4.562 4.562 0 0 0-.782-.194 4.868 4.868 0 0 0-.787-.069c-.362 0-.665.071-.906.213-.238.137-.356.37-.356.7 0 .246.095.456.287.631.192.175.496.262.913.262.308 0 .574-.068.799-.206.225-.141.398-.316.519-.525.125-.208.188-.414.188-.618h.318c0 .425-.083.818-.25 1.18a2.07 2.07 0 0 1-.725.87c-.316.216-.708.324-1.174.324Zm4.42-.168 2.332-3.013-2.332-3.05h1.638l1.55 2.038 1.475-2.037h1.631l-2.325 3.05 2.325 3.012h-1.631l-1.569-2.038-1.456 2.038h-1.638Zm9.8-4.832a.469.469 0 0 0 0 .663l2.984 2.984a.469.469 0 0 0 .663-.663l-2.652-2.652 2.652-2.652a.469.469 0 0 0-.663-.663l-2.984 2.983Zm1.25.8a.468.468 0 0 0 0-.937v.938Zm1.835-.937a.469.469 0 1 0 0 .938v-.938Zm1.836.938a.469.469 0 0 0 0-.938v.938Zm1.835-.938a.469.469 0 1 0 0 .938v-.938Zm1.835.938a.469.469 0 1 0 0-.938v.938Zm1.836-.938a.469.469 0 1 0 0 .938v-.938Zm1.835.938a.469.469 0 1 0 0-.938v.938Zm1.836-.938a.469.469 0 1 0 0 .938v-.938Zm1.835.938a.469.469 0 1 0 0-.938v.938Zm1.836-.938a.469.469 0 1 0 0 .938v-.938Zm1.835.938a.469.469 0 1 0 0-.938v.938Zm1.836-.938a.469.469 0 1 0 0 .938v-.938Zm1.835.938a.469.469 0 1 0 0-.938v.938Zm1.835-.938a.469.469 0 0 0 0 .938v-.938Zm1.836.938a.469.469 0 1 0 0-.938v.938Zm1.835-.938a.468.468 0 0 0 0 .938v-.938Zm1.836.938a.469.469 0 1 0 0-.938v.938Zm1.835-.938a.469.469 0 0 0 0 .938v-.938Zm1.836.938a.469.469 0 1 0 0-.938v.938Zm1.835-.938a.469.469 0 0 0 0 .938v-.938Zm1.836.938a.468.468 0 0 0 0-.938v.938Zm1.835-.938a.469.469 0 0 0 0 .938v-.938Zm1.836.938a.469.469 0 0 0 0-.938v.938Zm1.835-.938a.469.469 0 0 0 0 .938v-.938Zm1.835.938a.469.469 0 1 0 0-.938v.938Zm1.836-.938a.469.469 0 0 0 0 .938v-.938Zm1.835.938a.469.469 0 1 0 0-.938v.938Zm1.836-.938a.469.469 0 0 0 0 .938v-.938Zm-50.475.469v.468h.918v-.938h-.918v.47Zm2.753 0v.468h1.836v-.938h-1.836v.47Zm3.671 0v.468h1.835v-.938h-1.835v.47Zm3.671 0v.468h1.835v-.938h-1.835v.47Zm3.671 0v.468h1.835v-.938h-1.835v.47Zm3.671 0v.468h1.835v-.938h-1.835v.47Zm3.671 0v.468h1.835v-.938h-1.835v.47Zm3.67 0v.468h1.836v-.938h-1.836v.47Zm3.671 0v.468h1.836v-.938h-1.836v.47Zm3.671 0v.468h1.836v-.938h-1.836v.47Zm3.671 0v.468h1.836v-.938h-1.836v.47Zm3.671 0v.468h1.836v-.938h-1.836v.47Zm3.671 0v.468h1.835v-.938h-1.835v.47Zm3.671 0v.468h1.835v-.938h-1.835v.47Zm3.671 0v.468h.918v-.938h-.918v.47Zm8.408 4.668c-.65 0-1.223-.152-1.719-.456-.496-.308-.883-.77-1.162-1.387-.275-.621-.413-1.4-.413-2.338 0-.945.138-1.726.413-2.343.279-.617.666-1.077 1.162-1.381.496-.305 1.069-.456 1.719-.456.645 0 1.214.151 1.706.456.496.304.881.764 1.156 1.38.279.618.419 1.399.419 2.344 0 .938-.14 1.717-.419 2.338-.275.616-.66 1.079-1.156 1.387-.492.304-1.061.456-1.706.456Zm0-1.224c.608 0 1.077-.255 1.406-.763.329-.512.493-1.244.493-2.194 0-.954-.164-1.687-.493-2.2-.329-.512-.798-.768-1.406-.768-.609 0-1.079.256-1.413.769-.329.512-.494 1.245-.494 2.2 0 .95.165 1.68.494 2.193.334.508.804.763 1.413.763Zm-98.565 122.424c-7.994 0-14.163-2.896-18.506-8.687-4.281-5.854-6.421-14.289-6.421-25.305 0-7.617 1.007-14.101 3.021-19.451 2.078-5.351 5.036-9.411 8.876-12.18 3.84-2.834 8.404-4.25 13.691-4.25 5.792 0 10.576 1.668 14.353 5.005 3.776 3.336 6.074 7.931 6.892 13.785h-8.309c-.566-3.903-2.014-6.861-4.343-8.876-2.266-2.077-5.162-3.115-8.687-3.115-5.603 0-9.852 2.392-12.747 7.176-2.833 4.784-4.249 11.96-4.249 21.528v6.137l-2.172-.849c.567-2.959 1.826-5.54 3.777-7.743 1.951-2.203 4.375-3.903 7.271-5.099 2.895-1.259 6.011-1.888 9.347-1.888 4.281 0 7.995.944 11.142 2.832 3.211 1.826 5.697 4.407 7.46 7.743 1.825 3.273 2.738 7.113 2.738 11.52 0 4.343-.976 8.151-2.927 11.425-1.952 3.273-4.658 5.822-8.121 7.648-3.462 1.762-7.49 2.644-12.086 2.644Zm.284-6.799c4.28 0 7.742-1.353 10.386-4.06 2.644-2.707 3.966-6.358 3.966-10.953 0-4.784-1.291-8.529-3.871-11.236-2.518-2.77-6.075-4.155-10.67-4.155-4.407 0-8.089 1.291-11.048 3.872-2.895 2.58-4.343 6.137-4.343 10.669 0 3.148.661 5.917 1.983 8.31 1.385 2.392 3.242 4.249 5.571 5.57 2.392 1.322 5.067 1.983 8.026 1.983Zm54.163 6.799c-6.735 0-12.117-1.794-16.146-5.382-4.028-3.651-6.483-8.372-7.365-14.164h8.309c.819 4.092 2.55 7.239 5.194 9.443 2.706 2.203 5.98 3.304 9.82 3.304 4.028 0 7.427-1.259 10.197-3.777 2.833-2.518 4.249-6.515 4.249-11.991 0-5.477-1.416-9.568-4.249-12.275-2.77-2.77-6.295-4.155-10.575-4.155-3.085 0-5.76.63-8.026 1.889s-3.777 2.738-4.532 4.438h-6.988l3.116-36.259h35.881v6.799h-31.254l2.644-2.833-2.172 27.383-1.794-.661c1.133-1.889 2.959-3.525 5.477-4.91 2.518-1.385 5.602-2.078 9.253-2.078 4.218 0 7.932.913 11.142 2.739 3.273 1.825 5.823 4.437 7.648 7.837 1.889 3.336 2.833 7.365 2.833 12.086s-.944 8.781-2.833 12.18c-1.825 3.337-4.438 5.917-7.837 7.743-3.336 1.762-7.333 2.644-11.992 2.644Zm-3.264 15.049v-6.234h1.504v1.467h.036v4.767h-1.54Zm4.193 0v-4.022c0-.366-.094-.635-.281-.806-.18-.18-.436-.269-.771-.269a1.567 1.567 0 0 0-1.393.794 1.808 1.808 0 0 0-.208.88l-.159-1.43a2.61 2.61 0 0 1 .917-1.088c.399-.277.864-.415 1.393-.415.636 0 1.137.183 1.504.55.367.358.55.823.55 1.393v4.413h-1.552Zm4.192 0v-4.022c0-.366-.09-.635-.269-.806-.179-.18-.436-.269-.77-.269a1.64 1.64 0 0 0-.819.207 1.48 1.48 0 0 0-.574.587 1.797 1.797 0 0 0-.208.88l-.269-1.43c.204-.456.513-.819.929-1.088.416-.277.896-.415 1.442-.415.652 0 1.161.187 1.528.562.375.367.562.856.562 1.467v4.327h-1.552Zm6.679.122c-.595 0-1.08-.139-1.455-.416-.366-.285-.595-.676-.684-1.173l.122-.012v3.984h-1.54v-8.739h1.503v1.406l-.122-.025c.114-.464.375-.831.782-1.1.408-.269.905-.403 1.492-.403.554 0 1.035.134 1.442.403.416.261.737.632.966 1.112.228.481.342 1.047.342 1.699 0 .66-.118 1.235-.355 1.724a2.7 2.7 0 0 1-.99 1.137c-.423.268-.925.403-1.503.403Zm-.391-1.271c.497 0 .892-.171 1.185-.514.294-.35.44-.839.44-1.466 0-.628-.15-1.113-.452-1.455-.293-.342-.688-.513-1.186-.513-.488 0-.884.175-1.185.525-.302.343-.452.827-.452 1.455 0 .627.15 1.112.452 1.454.301.343.701.514 1.198.514Zm4.426 1.149v-8.801h1.54v8.801h-1.54Zm4.375 0v-3.936c0-.383-.097-.672-.293-.868-.196-.196-.481-.293-.856-.293a1.76 1.76 0 0 0-.88.22c-.252.146-.452.35-.599.611a1.905 1.905 0 0 0-.207.904l-.159-1.491c.212-.456.521-.819.929-1.088.407-.277.896-.415 1.466-.415.677 0 1.202.191 1.577.574.383.383.575.892.575 1.528v4.254h-1.553Z"/><path stroke="#2A2A2A" stroke-width="2.833" d="M306.728 185.036h-95.253l-23.309-25.022m96.491-106.678h62.307l11.959 12.846"/><path stroke="#8A8A8A" stroke-width="2.833" d="M311.63 53.336h35.334l11.949 12.839M257.032 185.037h-45.557"/><path fill="#fff" d="M327.824 46.66c-.302 0-.569-.055-.799-.164a1.411 1.411 0 0 1-.554-.491 1.75 1.75 0 0 1-.258-.774h.541c.046.314.161.556.346.724.185.168.428.251.73.251.286 0 .51-.075.674-.226.164-.151.245-.357.245-.617 0-.273-.079-.493-.239-.661-.159-.172-.373-.258-.642-.258h-.566v-.44h.547c.244 0 .437-.07.579-.209a.754.754 0 0 0 .221-.566c0-.248-.078-.439-.233-.573-.151-.134-.357-.201-.617-.201a.988.988 0 0 0-.655.226c-.18.147-.287.36-.321.636h-.548c.026-.269.105-.5.24-.692.134-.198.312-.35.535-.46a1.73 1.73 0 0 1 .761-.163c.273 0 .515.048.724.144.21.097.374.235.491.416.118.176.177.384.177.623a1.1 1.1 0 0 1-.145.566 1.029 1.029 0 0 1-.397.384 1.13 1.13 0 0 1-.566.139l-.038-.132c.256 0 .476.054.661.163.189.105.334.25.434.435.105.184.158.398.158.642 0 .252-.063.474-.189.667a1.28 1.28 0 0 1-.523.453c-.222.105-.48.158-.774.158Zm3.589 0c-.449 0-.807-.12-1.076-.36a1.544 1.544 0 0 1-.491-.943h.554c.055.272.17.482.346.63.181.146.399.22.655.22a.975.975 0 0 0 .68-.252c.189-.168.283-.435.283-.8 0-.365-.094-.638-.283-.818a.956.956 0 0 0-.705-.277c-.206 0-.384.042-.535.126a.67.67 0 0 0-.303.296h-.465l.207-2.418h2.392v.454h-2.083l.176-.19-.145 1.826-.119-.044a.932.932 0 0 1 .365-.327c.168-.092.373-.139.617-.139.281 0 .528.061.742.183.219.122.389.296.51.522.126.223.189.491.189.806 0 .315-.063.586-.189.812a1.257 1.257 0 0 1-.522.516 1.693 1.693 0 0 1-.8.177Zm3.873 0c-.357 0-.669-.099-.938-.296a2.017 2.017 0 0 1-.623-.831 3.183 3.183 0 0 1-.22-1.221c0-.458.073-.858.22-1.203.147-.348.355-.619.623-.812.269-.197.581-.295.938-.295s.667.098.932.295c.268.193.476.464.623.812.151.344.227.745.227 1.203 0 .461-.076.868-.227 1.22-.147.353-.355.63-.623.832a1.517 1.517 0 0 1-.932.296Zm0-.454a.988.988 0 0 0 .655-.226 1.47 1.47 0 0 0 .415-.655 3.18 3.18 0 0 0 .145-1.02c0-.39-.048-.724-.145-1-.092-.277-.228-.487-.409-.63a1.013 1.013 0 0 0-.661-.22c-.26 0-.48.073-.661.22-.18.147-.319.359-.415.636a3.104 3.104 0 0 0-.139.994c0 .395.049.735.145 1.02.097.285.235.504.415.655a.988.988 0 0 0 .655.226Zm3.86.39v-3.21h.472v.756h.032v2.455h-.504Zm2.166 0V44.47c0-.243-.055-.422-.164-.535-.109-.113-.267-.17-.472-.17a1.007 1.007 0 0 0-.894.522 1.191 1.191 0 0 0-.132.573l-.082-.761a1.29 1.29 0 0 1 .491-.567 1.3 1.3 0 0 1 .711-.208c.311 0 .563.093.756.277.193.18.289.426.289.737v2.26h-.503Zm2.165 0V44.47c0-.243-.054-.422-.164-.535-.109-.113-.266-.17-.472-.17a1 1 0 0 0-.894.522 1.191 1.191 0 0 0-.132.573l-.126-.761c.109-.24.277-.428.504-.567.227-.138.47-.208.73-.208.311 0 .565.093.762.277.197.18.296.426.296.737v2.26h-.504Zm1.472 0v-3.21h.504v3.21h-.504Zm-.038-3.94v-.592h.58v.592h-.58ZM211.727 197.051v-.441a25.32 25.32 0 0 0 1.133-.982c.306-.281.549-.531.73-.749.185-.218.315-.417.39-.598.08-.185.12-.365.12-.541 0-.26-.078-.464-.233-.611-.155-.147-.369-.22-.642-.22-.281 0-.508.08-.68.239-.172.159-.277.388-.315.686h-.541c.042-.411.199-.743.472-.994.277-.256.644-.384 1.102-.384.423 0 .761.113 1.013.339.252.227.378.538.378.932 0 .214-.042.428-.126.642-.08.214-.214.439-.403.674a7.1 7.1 0 0 1-.736.78 19.8 19.8 0 0 1-1.127.957l-.12-.182h2.587v.453h-3.002Zm3.57 0v-.649h.649v.649h-.649Zm2.689.063c-.303 0-.569-.055-.8-.164a1.416 1.416 0 0 1-.554-.491 1.774 1.774 0 0 1-.258-.774h.541c.047.315.162.556.347.724.184.168.428.252.73.252.285 0 .51-.076.673-.227.164-.151.246-.357.246-.617 0-.273-.08-.493-.239-.661-.16-.172-.374-.258-.642-.258h-.567v-.441h.548c.243 0 .436-.069.579-.207a.755.755 0 0 0 .22-.567c0-.248-.078-.438-.233-.573-.151-.134-.356-.201-.617-.201a.983.983 0 0 0-.654.226c-.181.147-.288.359-.321.636h-.548c.025-.268.105-.499.239-.692a1.36 1.36 0 0 1 .535-.46c.227-.109.481-.163.762-.163.273 0 .514.048.724.144a1.1 1.1 0 0 1 .667 1.039c0 .214-.048.403-.145.567a1.03 1.03 0 0 1-.396.384 1.14 1.14 0 0 1-.567.138l-.038-.132c.256 0 .477.054.661.163.189.105.334.25.435.435.105.184.157.398.157.642 0 .252-.063.474-.189.667-.126.193-.3.344-.522.453a1.798 1.798 0 0 1-.774.158Zm3.515-.063v-3.211h.472v.756h.031v2.455h-.503Zm2.165 0v-2.128c0-.243-.055-.422-.164-.535-.109-.113-.266-.17-.472-.17a.995.995 0 0 0-.522.139c-.155.092-.279.22-.372.384a1.187 1.187 0 0 0-.132.572l-.082-.761c.109-.239.273-.428.491-.567a1.31 1.31 0 0 1 .712-.208c.31 0 .562.093.755.277.193.181.29.426.29.737v2.26h-.504Zm2.165 0v-2.128c0-.243-.054-.422-.163-.535-.109-.113-.267-.17-.472-.17a.998.998 0 0 0-.894.523 1.187 1.187 0 0 0-.132.572l-.126-.761c.109-.239.277-.428.503-.567.227-.138.47-.208.731-.208.31 0 .564.093.761.277.197.181.296.426.296.737v2.26h-.504Zm1.473 0v-3.211h.503v3.211h-.503Zm-.038-3.941v-.591h.579v.591h-.579Zm1.19 4.318 1.593-5.098h.441l-1.593 5.098h-.441Zm2.917-.377v-4.658h.504v4.658h-.504Zm2.096 0-1.706-1.668 1.643-1.543h.693l-1.845 1.687.032-.295 1.876 1.819h-.693Zm2.161 0-1.341-4.532h.528l1.203 4.186h-.095l1.178-4.186h.629l1.183 4.186h-.094l1.196-4.186h.497l-1.34 4.532h-.63l-1.177-4.06h.075l-1.183 4.06h-.629Zm5.702 0v-4.532h.503v4.532h-.503Zm2.297 0v-2.103c0-.243-.06-.426-.182-.547-.122-.122-.302-.183-.541-.183-.21 0-.397.046-.561.139a1 1 0 0 0-.377.384 1.176 1.176 0 0 0-.133.572l-.081-.761c.109-.239.274-.428.497-.567.226-.138.482-.208.768-.208.336 0 .604.097.806.29.205.189.308.439.308.749v2.235h-.504Zm-29.891 18.169c-.65 0-1.223-.153-1.718-.457-.496-.308-.884-.77-1.163-1.387-.275-.621-.412-1.4-.412-2.337 0-.946.137-1.727.412-2.344.279-.617.667-1.077 1.163-1.381.495-.304 1.068-.456 1.718-.456.646 0 1.215.152 1.706.456.496.304.881.764 1.156 1.381.28.617.419 1.398.419 2.344 0 .937-.139 1.716-.419 2.337-.275.617-.66 1.079-1.156 1.387-.491.304-1.06.457-1.706.457Zm0-1.225c.608 0 1.077-.255 1.406-.763.329-.512.494-1.244.494-2.193 0-.955-.165-1.688-.494-2.2-.329-.513-.798-.769-1.406-.769-.608 0-1.079.256-1.412.769-.329.512-.494 1.245-.494 2.2 0 .949.165 1.681.494 2.193.333.508.804.763 1.412.763Zm59.203-3.113a.469.469 0 0 0 0-.663l-2.984-2.983a.469.469 0 0 0-.663.663l2.652 2.652-2.652 2.652a.469.469 0 0 0 .663.663l2.984-2.984Zm-50.807.138a.469.469 0 0 0 0-.938v.938Zm1.836-.938a.469.469 0 0 0 0 .938v-.938Zm1.835.938a.469.469 0 0 0 0-.938v.938Zm1.836-.938a.469.469 0 0 0 0 .938v-.938Zm1.835.938a.469.469 0 0 0 0-.938v.938Zm1.836-.938a.469.469 0 0 0 0 .938v-.938Zm1.835.938a.469.469 0 0 0 0-.938v.938Zm1.835-.938a.469.469 0 0 0 0 .938v-.938Zm1.836.938a.469.469 0 0 0 0-.938v.938Zm1.835-.938a.468.468 0 0 0 0 .938v-.938Zm1.836.938a.469.469 0 0 0 0-.938v.938Zm1.835-.938a.469.469 0 0 0 0 .938v-.938Zm1.836.938a.469.469 0 0 0 0-.938v.938Zm1.835-.938a.469.469 0 0 0 0 .938v-.938Zm1.836.938a.468.468 0 0 0 0-.938v.938Zm1.835-.938a.469.469 0 0 0 0 .938v-.938Zm1.836.938a.469.469 0 0 0 0-.938v.938Zm1.835-.938a.469.469 0 0 0 0 .938v-.938Zm1.835.938a.469.469 0 0 0 0-.938v.938Zm1.836-.938a.469.469 0 0 0 0 .938v-.938Zm1.835.938a.469.469 0 0 0 0-.938v.938Zm1.836-.938a.469.469 0 0 0 0 .938v-.938Zm1.835.938a.469.469 0 0 0 0-.938v.938Zm1.836-.938a.469.469 0 0 0 0 .938v-.938Zm1.835.938a.469.469 0 0 0 0-.938v.938Zm1.836-.938a.469.469 0 0 0 0 .938v-.938Zm1.835.938a.469.469 0 0 0 0-.938v.938Zm1.836-.938a.469.469 0 0 0 0 .938v-.938Zm-50.475.469v.469h.917v-.938h-.917v.469Zm2.753 0v.469h1.835v-.938h-1.835v.469Zm3.671 0v.469h1.835v-.938h-1.835v.469Zm3.671 0v.469h1.835v-.938h-1.835v.469Zm3.67 0v.469h1.836v-.938h-1.836v.469Zm3.671 0v.469h1.836v-.938h-1.836v.469Zm3.671 0v.469h1.836v-.938h-1.836v.469Zm3.671 0v.469h1.836v-.938h-1.836v.469Zm3.671 0v.469h1.836v-.938h-1.836v.469Zm3.671 0v.469h1.835v-.938h-1.835v.469Zm3.671 0v.469h1.835v-.938h-1.835v.469Zm3.671 0v.469h1.835v-.938h-1.835v.469Zm3.671 0v.469h1.835v-.938h-1.835v.469Zm3.671 0v.469h1.835v-.938h-1.835v.469Zm3.671 0v.469h.917v-.938h-.917v.469Zm13.986 4.5v-3.537c0-.484-.117-.848-.35-1.094-.233-.25-.539-.375-.919-.375-.47 0-.837.187-1.1.562-.262.371-.393.921-.393 1.65h-.569c0-.608.056-1.127.169-1.556.116-.433.281-.787.494-1.062.216-.275.472-.475.768-.6.296-.129.625-.194.988-.194.487 0 .897.11 1.231.331.337.221.591.531.762.931.175.4.263.869.263 1.407v3.537h-1.344Zm-8.287 0v-6.037h1.169l.144 1.081c.195-.413.46-.723.793-.931a2.102 2.102 0 0 1 1.156-.319c.492 0 .905.11 1.238.331.337.221.591.531.762.931.175.4.263.869.263 1.407v3.537h-1.338v-3.537c0-.484-.116-.848-.35-1.094-.229-.25-.535-.375-.918-.375-.313 0-.588.085-.825.256-.238.171-.423.425-.556.763-.134.337-.2.752-.2 1.243v2.744h-1.338Zm15.634 0-.168-1.431v-2.469c0-.458-.094-.794-.282-1.006-.187-.213-.493-.319-.918-.319a1.8 1.8 0 0 0-.644.106.94.94 0 0 0-.431.319.85.85 0 0 0-.15.513h-1.469c0-.455.108-.821.325-1.1.221-.284.531-.49.931-.619.404-.133.883-.2 1.438-.2.504 0 .945.083 1.324.25.384.162.682.417.894.762.213.346.319.792.319 1.338v3.856h-1.169Zm-2 .169c-.512 0-.939-.09-1.281-.269a1.88 1.88 0 0 1-.762-.706 1.837 1.837 0 0 1-.256-.944c0-.388.1-.71.3-.969.204-.258.487-.45.849-.575.367-.129.794-.193 1.282-.193.325 0 .635.027.931.081.3.05.598.121.893.212v.794a4.573 4.573 0 0 0-.781-.194 4.847 4.847 0 0 0-.787-.069c-.363 0-.665.071-.906.213-.238.137-.357.371-.357.7 0 .246.096.456.288.631.192.175.496.263.912.263.309 0 .575-.069.8-.207.225-.141.398-.316.519-.525.125-.208.188-.414.188-.618h.318c0 .425-.083.818-.25 1.181a2.074 2.074 0 0 1-.725.869c-.316.216-.708.325-1.175.325Zm4.421-.169 2.331-3.013-2.331-3.049h1.638l1.55 2.037 1.474-2.037h1.632l-2.325 3.049 2.325 3.013h-1.632l-1.568-2.038-1.456 2.038h-1.638ZM94.286 390.714c-7.995 0-14.163-2.896-18.507-8.687-4.28-5.854-6.42-14.289-6.42-25.305 0-7.617 1.007-14.101 3.02-19.451 2.078-5.351 5.037-9.411 8.876-12.181 3.84-2.833 8.404-4.249 13.692-4.249 5.791 0 10.575 1.668 14.352 5.005 3.777 3.336 6.075 7.931 6.893 13.785h-8.309c-.567-3.903-2.015-6.861-4.344-8.876-2.266-2.077-5.162-3.115-8.687-3.115-5.602 0-9.851 2.392-12.747 7.176-2.832 4.784-4.249 11.96-4.249 21.528v6.137l-2.171-.849c.566-2.959 1.825-5.54 3.776-7.743 1.952-2.203 4.375-3.903 7.271-5.099 2.896-1.259 6.012-1.888 9.348-1.888 4.28 0 7.994.944 11.142 2.832 3.21 1.826 5.697 4.407 7.459 7.743 1.826 3.273 2.738 7.113 2.738 11.52 0 4.343-.975 8.151-2.927 11.425-1.951 3.273-4.658 5.822-8.12 7.648-3.462 1.762-7.49 2.644-12.086 2.644Zm.283-6.799c4.28 0 7.743-1.353 10.387-4.06 2.643-2.707 3.965-6.358 3.965-10.953 0-4.784-1.29-8.529-3.871-11.236-2.518-2.77-6.075-4.155-10.67-4.155-4.406 0-8.089 1.291-11.047 3.872-2.896 2.581-4.344 6.137-4.344 10.669 0 3.148.661 5.918 1.983 8.31 1.385 2.392 3.242 4.249 5.571 5.57 2.392 1.322 5.067 1.983 8.026 1.983Zm54.164 6.799c-6.736 0-12.118-1.794-16.146-5.382-4.029-3.651-6.484-8.372-7.365-14.164h8.309c.818 4.092 2.549 7.239 5.193 9.443 2.707 2.203 5.98 3.304 9.82 3.304 4.029 0 7.428-1.259 10.198-3.777 2.832-2.517 4.249-6.515 4.249-11.991 0-5.477-1.417-9.568-4.249-12.275-2.77-2.77-6.295-4.155-10.576-4.155-3.084 0-5.759.63-8.026 1.889-2.266 1.259-3.776 2.738-4.532 4.438h-6.987l3.116-36.259h35.88v6.799h-31.253l2.643-2.833-2.171 27.383-1.794-.661c1.133-1.889 2.958-3.525 5.476-4.91 2.518-1.385 5.603-2.078 9.254-2.078 4.217 0 7.931.913 11.141 2.739 3.274 1.825 5.823 4.438 7.649 7.837 1.888 3.336 2.832 7.365 2.832 12.086s-.944 8.781-2.832 12.18c-1.826 3.337-4.438 5.917-7.837 7.743-3.337 1.762-7.334 2.644-11.992 2.644Zm-.09 17.288v-6.234h1.504v1.467h.036v4.767h-1.54Zm4.193 0v-4.021c0-.367-.094-.636-.281-.807-.18-.179-.436-.269-.77-.269-.294 0-.563.069-.807.208-.245.138-.44.334-.587.586a1.81 1.81 0 0 0-.208.881l-.158-1.431c.211-.456.517-.819.916-1.087.4-.277.864-.416 1.394-.416.635 0 1.136.183 1.503.55.367.359.55.823.55 1.393v4.413h-1.552Zm4.192 0v-4.021c0-.367-.089-.636-.269-.807-.179-.179-.436-.269-.77-.269a1.63 1.63 0 0 0-.819.208 1.472 1.472 0 0 0-.574.586 1.798 1.798 0 0 0-.208.881l-.269-1.431c.204-.456.514-.819.929-1.087a2.542 2.542 0 0 1 1.442-.416c.652 0 1.162.187 1.528.562.375.367.563.856.563 1.467v4.327h-1.553Zm6.679.122c-.595 0-1.08-.138-1.455-.415-.366-.286-.594-.677-.684-1.174l.122-.012v3.985h-1.54v-8.74h1.504v1.406l-.123-.025a1.79 1.79 0 0 1 .783-1.1c.407-.269.904-.403 1.491-.403.554 0 1.035.134 1.442.403.416.261.738.632.966 1.113.228.48.342 1.047.342 1.699 0 .66-.118 1.234-.355 1.723a2.7 2.7 0 0 1-.99 1.137c-.423.269-.924.403-1.503.403Zm-.391-1.271c.497 0 .892-.171 1.185-.513.294-.351.441-.84.441-1.467 0-.628-.151-1.112-.453-1.455-.293-.342-.688-.513-1.185-.513-.489 0-.884.175-1.186.526-.301.342-.452.827-.452 1.454 0 .628.151 1.112.452 1.455.302.342.701.513 1.198.513Zm4.426 1.149v-8.801h1.54v8.801h-1.54Zm4.376 0v-3.936c0-.383-.098-.672-.294-.868-.195-.195-.481-.293-.855-.293-.326 0-.62.073-.88.22-.253.147-.453.35-.599.611a1.894 1.894 0 0 0-.208.905l-.159-1.492c.212-.456.521-.819.929-1.087.407-.277.896-.416 1.467-.416.676 0 1.202.191 1.576.574.383.383.575.893.575 1.528v4.254h-1.552Z"/><path stroke="#2A2A2A" stroke-width="2.833" d="M44.31 316.987v95.254l25.02 23.309m127.638-81.836v-62.105l-16.314-15.197"/><path stroke="#8A8A8A" stroke-width="2.833" d="M196.968 340.331v-48.72l-16.314-15.198M44.31 366.685v45.557"/><path fill="#fff" d="M198.832 281.475c-.303 0-.569-.054-.8-.164a1.423 1.423 0 0 1-.554-.491 1.774 1.774 0 0 1-.258-.774h.541c.047.315.162.556.347.724.184.168.428.252.73.252.285 0 .51-.076.673-.227.164-.151.246-.356.246-.617 0-.272-.08-.493-.239-.661-.16-.172-.374-.258-.642-.258h-.567v-.44h.548c.243 0 .436-.07.579-.208a.755.755 0 0 0 .22-.567c0-.247-.077-.438-.233-.572-.151-.135-.356-.202-.617-.202a.984.984 0 0 0-.654.227c-.181.147-.288.359-.321.636h-.548a1.365 1.365 0 0 1 .774-1.152c.227-.11.481-.164.762-.164.273 0 .514.048.724.145a1.1 1.1 0 0 1 .667 1.038c0 .214-.048.403-.145.567a1.015 1.015 0 0 1-.396.384 1.14 1.14 0 0 1-.567.138l-.037-.132c.255 0 .476.055.66.164.189.105.334.249.435.434.105.185.157.399.157.642 0 .252-.063.474-.189.667-.126.194-.3.345-.522.454a1.798 1.798 0 0 1-.774.157Zm3.589 0c-.449 0-.808-.12-1.076-.359a1.538 1.538 0 0 1-.491-.944h.554c.054.273.17.483.346.63.18.146.398.22.654.22a.972.972 0 0 0 .68-.252c.189-.168.284-.434.284-.799 0-.366-.095-.638-.284-.819a.955.955 0 0 0-.705-.277c-.205 0-.384.042-.535.126-.151.084-.252.183-.302.296h-.466l.208-2.417h2.392v.453h-2.084l.177-.189-.145 1.826-.12-.044a.952.952 0 0 1 .365-.328 1.27 1.27 0 0 1 .617-.138c.281 0 .529.061.743.182.218.122.388.296.51.523.126.222.189.491.189.806 0 .314-.063.585-.189.812a1.269 1.269 0 0 1-.523.516 1.692 1.692 0 0 1-.799.176Zm3.873 0c-.357 0-.67-.099-.938-.296a2.003 2.003 0 0 1-.623-.831 3.176 3.176 0 0 1-.221-1.221c0-.457.074-.858.221-1.202.146-.349.354-.619.623-.812.268-.197.581-.296.938-.296.356 0 .667.099.931.296.269.193.477.463.624.812.151.344.226.745.226 1.202 0 .462-.075.869-.226 1.221a1.94 1.94 0 0 1-.624.831 1.515 1.515 0 0 1-.931.296Zm0-.453a.984.984 0 0 0 .654-.227c.181-.155.319-.373.416-.654.096-.286.145-.626.145-1.02 0-.39-.049-.724-.145-1.001-.092-.277-.229-.487-.409-.63a1.02 1.02 0 0 0-.661-.22c-.26 0-.481.074-.661.22-.181.147-.319.359-.416.636a3.14 3.14 0 0 0-.138.995c0 .394.048.734.145 1.02.096.285.235.503.415.654a.989.989 0 0 0 .655.227Zm3.86.39v-3.21h.472v.755h.031v2.455h-.503Zm2.165 0v-2.128c0-.243-.054-.421-.163-.535-.11-.113-.267-.17-.473-.17a1.004 1.004 0 0 0-.893.523 1.183 1.183 0 0 0-.133.573l-.081-.762c.109-.239.272-.428.491-.566.218-.139.455-.208.711-.208.31 0 .562.092.755.277.193.18.29.426.29.736v2.26h-.504Zm2.166 0v-2.128c0-.243-.055-.421-.164-.535-.109-.113-.267-.17-.472-.17a1.01 1.01 0 0 0-.894.523 1.194 1.194 0 0 0-.132.573l-.126-.762c.109-.239.277-.428.503-.566.227-.139.47-.208.731-.208.31 0 .564.092.761.277.198.18.296.426.296.736v2.26h-.503Zm1.472 0v-3.21h.503v3.21h-.503Zm-.038-3.94v-.592h.579v.592h-.579ZM20.252 437.16v-.44c.453-.374.83-.701 1.133-.982.306-.282.55-.531.73-.75.185-.218.315-.417.39-.598.08-.184.12-.365.12-.541 0-.26-.078-.464-.233-.611-.155-.146-.37-.22-.642-.22-.281 0-.508.08-.68.239-.172.16-.277.389-.315.686h-.541c.042-.411.2-.742.472-.994.277-.256.644-.384 1.102-.384.424 0 .761.113 1.013.34.252.226.378.537.378.931 0 .215-.042.429-.126.643-.08.214-.214.438-.403.673-.184.235-.43.495-.736.781-.303.281-.678.6-1.127.956l-.12-.182h2.587v.453h-3.002Zm3.57 0v-.648h.649v.648h-.648Zm2.689.063c-.302 0-.569-.054-.8-.164a1.416 1.416 0 0 1-.554-.491 1.761 1.761 0 0 1-.258-.774h.541c.047.315.162.556.347.724.184.168.428.252.73.252.285 0 .51-.076.674-.227.163-.151.245-.356.245-.617 0-.272-.08-.493-.24-.661-.159-.172-.373-.258-.641-.258h-.567v-.44h.548c.243 0 .436-.07.579-.208a.755.755 0 0 0 .22-.567c0-.247-.077-.438-.233-.572-.15-.135-.356-.202-.617-.202a.987.987 0 0 0-.654.227c-.18.147-.288.359-.321.636h-.548c.025-.269.105-.5.24-.693.134-.197.312-.35.534-.459.227-.11.48-.164.762-.164.273 0 .514.048.724.145a1.096 1.096 0 0 1 .667 1.038c0 .214-.048.403-.145.567a1.021 1.021 0 0 1-.396.384 1.137 1.137 0 0 1-.567.138l-.037-.132c.256 0 .476.055.66.164.19.105.334.25.435.434.105.185.157.399.157.642 0 .252-.063.474-.189.668-.125.193-.3.344-.522.453-.223.105-.48.157-.774.157Zm3.515-.063v-3.21h.472v.755h.031v2.455h-.503Zm2.165 0v-2.127c0-.244-.054-.422-.163-.536-.11-.113-.267-.17-.473-.17a1.006 1.006 0 0 0-.893.523 1.193 1.193 0 0 0-.133.573l-.081-.762c.109-.239.272-.428.49-.566.219-.139.456-.208.712-.208.31 0 .562.092.755.277.193.18.29.426.29.736v2.26h-.504Zm2.166 0v-2.127c0-.244-.055-.422-.164-.536-.11-.113-.267-.17-.472-.17a1.006 1.006 0 0 0-.894.523 1.192 1.192 0 0 0-.132.573l-.126-.762c.109-.239.277-.428.503-.566.227-.139.47-.208.73-.208.311 0 .565.092.762.277.198.18.296.426.296.736v2.26h-.503Zm1.472 0v-3.21h.503v3.21h-.503Zm-.038-3.94v-.592h.58v.592h-.58Zm1.19 4.318 1.593-5.099h.44l-1.592 5.099h-.44Zm2.917-.378v-4.658h.504v4.658h-.504Zm2.096 0-1.705-1.668 1.643-1.542h.692l-1.844 1.687.031-.296 1.876 1.819h-.692Zm2.16 0-1.34-4.532h.529l1.202 4.186h-.095l1.178-4.186h.63l1.183 4.186h-.095l1.196-4.186h.497l-1.34 4.532h-.63l-1.177-4.06h.076l-1.184 4.06h-.63Zm5.703 0v-4.532h.504v4.532h-.504Zm2.298 0v-2.102c0-.244-.061-.426-.183-.548-.122-.122-.302-.183-.541-.183-.21 0-.397.047-.56.139a.996.996 0 0 0-.378.384 1.193 1.193 0 0 0-.133.573l-.081-.762c.109-.239.275-.428.497-.566a1.44 1.44 0 0 1 .768-.208c.336 0 .604.096.806.289.205.189.308.439.308.749v2.235h-.503Zm346.827-45.733c-7.994 0-14.163-2.896-18.506-8.687-4.281-5.854-6.421-14.289-6.421-25.305 0-7.617 1.007-14.101 3.021-19.451 2.078-5.351 5.036-9.411 8.876-12.181 3.84-2.833 8.404-4.249 13.691-4.249 5.792 0 10.576 1.668 14.353 5.004 3.776 3.337 6.074 7.932 6.892 13.786h-8.309c-.566-3.903-2.014-6.861-4.343-8.876-2.266-2.077-5.162-3.116-8.687-3.116-5.602 0-9.851 2.392-12.747 7.177-2.833 4.784-4.249 11.96-4.249 21.528v6.137l-2.172-.849c.567-2.959 1.826-5.54 3.777-7.743 1.951-2.203 4.375-3.903 7.271-5.099 2.895-1.259 6.011-1.888 9.347-1.888 4.281 0 7.995.944 11.142 2.832 3.211 1.826 5.697 4.407 7.46 7.743 1.825 3.273 2.738 7.113 2.738 11.519 0 4.344-.976 8.152-2.927 11.426-1.952 3.273-4.658 5.822-8.121 7.648-3.462 1.762-7.49 2.644-12.086 2.644Zm.284-6.799c4.28 0 7.742-1.353 10.386-4.06 2.644-2.707 3.966-6.358 3.966-10.953 0-4.784-1.291-8.529-3.871-11.236-2.518-2.77-6.075-4.155-10.67-4.155-4.407 0-8.089 1.291-11.048 3.872-2.895 2.58-4.343 6.137-4.343 10.669 0 3.148.661 5.917 1.983 8.309 1.385 2.392 3.242 4.249 5.571 5.571 2.392 1.322 5.067 1.983 8.026 1.983Zm54.163 6.799c-6.735 0-12.117-1.794-16.146-5.382-4.028-3.651-6.483-8.373-7.365-14.164h8.309c.819 4.092 2.55 7.239 5.194 9.442 2.706 2.204 5.98 3.305 9.82 3.305 4.028 0 7.428-1.259 10.197-3.777 2.833-2.518 4.249-6.515 4.249-11.991 0-5.477-1.416-9.568-4.249-12.275-2.769-2.77-6.295-4.155-10.575-4.155-3.085 0-5.76.63-8.026 1.889s-3.777 2.738-4.532 4.437h-6.988l3.116-36.258h35.881v6.799H441.06l2.644-2.833-2.172 27.383-1.794-.661c1.133-1.889 2.959-3.526 5.477-4.91 2.518-1.385 5.602-2.078 9.253-2.078 4.218 0 7.932.913 11.142 2.739 3.273 1.825 5.823 4.437 7.648 7.837 1.889 3.336 2.833 7.365 2.833 12.086s-.944 8.781-2.833 12.18c-1.825 3.336-4.438 5.917-7.837 7.743-3.336 1.762-7.333 2.644-11.992 2.644Zm-3.264 15.05v-6.234h1.503v1.467h.037v4.767h-1.54Zm4.192 0v-4.022c0-.366-.093-.635-.281-.807-.179-.179-.436-.268-.77-.268a1.61 1.61 0 0 0-.806.207 1.56 1.56 0 0 0-.587.587 1.797 1.797 0 0 0-.208.88l-.159-1.43a2.61 2.61 0 0 1 .917-1.088c.399-.277.864-.415 1.393-.415.636 0 1.137.183 1.504.55.366.358.55.823.55 1.393v4.413h-1.553Zm4.193 0v-4.022c0-.366-.09-.635-.269-.807-.179-.179-.436-.268-.77-.268a1.64 1.64 0 0 0-.819.207 1.474 1.474 0 0 0-.574.587 1.797 1.797 0 0 0-.208.88l-.269-1.43c.204-.456.513-.819.929-1.088.415-.277.896-.415 1.442-.415.652 0 1.161.187 1.528.562.375.367.562.855.562 1.467v4.327h-1.552Zm6.679.122c-.595 0-1.08-.139-1.455-.416-.367-.285-.595-.676-.684-1.173l.122-.012v3.984h-1.54v-8.739h1.503v1.405l-.122-.024c.114-.464.375-.831.782-1.1.408-.269.905-.403 1.491-.403.555 0 1.035.134 1.443.403.415.261.737.631.965 1.112.229.481.343 1.047.343 1.699 0 .66-.119 1.235-.355 1.724a2.69 2.69 0 0 1-.99 1.136c-.424.269-.925.404-1.503.404Zm-.391-1.271c.497 0 .892-.172 1.185-.514.294-.35.44-.839.44-1.467 0-.627-.151-1.112-.452-1.454-.293-.342-.689-.513-1.186-.513-.489 0-.884.175-1.185.525-.302.342-.453.827-.453 1.455 0 .627.151 1.112.453 1.454.301.342.7.514 1.198.514Zm4.425 1.149v-8.801h1.541v8.801h-1.541Zm4.376 0v-3.936c0-.383-.098-.673-.293-.868-.196-.196-.481-.293-.856-.293a1.76 1.76 0 0 0-.88.22c-.252.146-.452.35-.599.611-.138.26-.207.562-.207.904l-.159-1.491c.211-.456.521-.819.929-1.088.407-.277.896-.415 1.466-.415.677 0 1.202.191 1.577.574.383.383.575.892.575 1.528v4.254h-1.553Z"/><path stroke="#2A2A2A" stroke-width="2.833" d="M449.346 422.499h-95.253l-23.309-25.022m96.491-106.679h62.307"/><path stroke="#8A8A8A" stroke-width="2.833" d="M454.248 290.798h35.334M399.65 422.5h-45.557"/><path fill="#fff" d="M470.442 284.123c-.302 0-.569-.055-.799-.164a1.409 1.409 0 0 1-.554-.491 1.749 1.749 0 0 1-.258-.774h.541c.046.314.161.556.346.723.185.168.428.252.73.252.286 0 .51-.075.674-.226.164-.151.245-.357.245-.617 0-.273-.079-.493-.239-.661-.159-.172-.373-.258-.642-.258h-.566v-.441h.547c.244 0 .437-.069.579-.208a.752.752 0 0 0 .221-.566c0-.248-.078-.439-.233-.573-.151-.134-.357-.201-.617-.201a.988.988 0 0 0-.655.226c-.18.147-.287.359-.321.636h-.548a1.42 1.42 0 0 1 .24-.692c.134-.198.312-.351.535-.46a1.73 1.73 0 0 1 .761-.164c.273 0 .514.049.724.145.21.097.374.235.491.416.118.176.177.384.177.623 0 .214-.049.403-.145.566a1.025 1.025 0 0 1-.397.384 1.123 1.123 0 0 1-.566.139l-.038-.132c.256 0 .476.054.661.163.189.105.333.25.434.435.105.184.158.398.158.642 0 .251-.063.474-.189.667a1.28 1.28 0 0 1-.523.453c-.222.105-.48.158-.774.158Zm3.589 0c-.449 0-.807-.12-1.076-.359a1.545 1.545 0 0 1-.491-.945h.554c.055.273.17.483.346.63.181.147.399.22.655.22a.975.975 0 0 0 .68-.252c.189-.167.283-.434.283-.799 0-.365-.094-.638-.283-.818a.955.955 0 0 0-.705-.277c-.206 0-.384.042-.535.126-.151.084-.252.182-.303.296h-.465l.207-2.418h2.392v.454h-2.083l.176-.189-.145 1.825-.119-.044a.928.928 0 0 1 .365-.327c.168-.093.373-.139.617-.139.281 0 .528.061.742.183.219.122.389.296.51.522.126.223.189.491.189.806 0 .315-.063.585-.189.812a1.254 1.254 0 0 1-.522.516 1.687 1.687 0 0 1-.8.177Zm3.873 0c-.357 0-.669-.099-.938-.296a2.024 2.024 0 0 1-.623-.831 3.184 3.184 0 0 1-.22-1.221c0-.458.073-.859.22-1.203.147-.348.355-.619.623-.812.269-.197.581-.296.938-.296s.667.099.932.296c.268.193.476.464.623.812.151.344.227.745.227 1.203 0 .461-.076.868-.227 1.221a1.958 1.958 0 0 1-.623.831 1.518 1.518 0 0 1-.932.296Zm0-.454a.988.988 0 0 0 .655-.226c.18-.156.319-.374.415-.655.097-.285.145-.625.145-1.02 0-.39-.048-.724-.145-1.001-.092-.277-.228-.486-.409-.629a1.012 1.012 0 0 0-.661-.22c-.26 0-.48.073-.661.22-.18.147-.319.359-.415.636-.093.272-.139.604-.139.994 0 .395.048.735.145 1.02.097.285.235.504.415.655a.988.988 0 0 0 .655.226Zm3.86.391v-3.211h.472v.756h.032v2.455h-.504Zm2.166 0v-2.128c0-.243-.055-.422-.164-.535-.109-.113-.267-.17-.472-.17a1.01 1.01 0 0 0-.523.138 1.03 1.03 0 0 0-.371.384 1.194 1.194 0 0 0-.132.573l-.082-.761c.109-.24.273-.429.491-.567.218-.138.455-.208.711-.208.311 0 .563.093.756.277.193.181.289.426.289.737v2.26h-.503Zm2.165 0v-2.128c0-.243-.055-.422-.164-.535-.109-.113-.266-.17-.472-.17a1.003 1.003 0 0 0-.894.522 1.194 1.194 0 0 0-.132.573l-.126-.761a1.26 1.26 0 0 1 .504-.567c.227-.138.47-.208.73-.208.311 0 .565.093.762.277.197.181.296.426.296.737v2.26h-.504Zm1.472 0v-3.211h.504v3.211h-.504Zm-.038-3.941v-.592h.58v.592h-.58ZM354.345 434.513v-.441a25.32 25.32 0 0 0 1.133-.982 7.82 7.82 0 0 0 .73-.749c.185-.218.315-.418.39-.598.08-.185.12-.365.12-.541 0-.261-.078-.464-.233-.611-.155-.147-.369-.22-.642-.22-.281 0-.508.079-.68.239-.172.159-.277.388-.315.686h-.541c.042-.411.199-.743.472-.995.277-.256.644-.384 1.102-.384.424 0 .761.114 1.013.34.252.227.378.538.378.932 0 .214-.042.428-.126.642-.08.214-.214.439-.403.674a7.1 7.1 0 0 1-.736.78 19.8 19.8 0 0 1-1.127.957l-.12-.183h2.587v.454h-3.002Zm3.57 0v-.649h.649v.649h-.649Zm2.689.063c-.303 0-.569-.055-.8-.164a1.423 1.423 0 0 1-.554-.491 1.774 1.774 0 0 1-.258-.774h.541c.047.314.162.556.347.724.184.167.428.251.73.251.285 0 .51-.075.673-.226.164-.151.246-.357.246-.617 0-.273-.08-.493-.239-.661-.16-.172-.374-.258-.642-.258h-.567v-.441h.548c.243 0 .436-.069.579-.208a.75.75 0 0 0 .22-.566c0-.248-.077-.439-.233-.573-.151-.134-.356-.201-.617-.201a.983.983 0 0 0-.654.226c-.181.147-.288.359-.321.636h-.548c.025-.268.105-.499.239-.692a1.36 1.36 0 0 1 .535-.46c.227-.109.481-.164.762-.164.273 0 .514.049.724.145a1.1 1.1 0 0 1 .667 1.039c0 .214-.048.403-.145.566a1.015 1.015 0 0 1-.396.384 1.13 1.13 0 0 1-.567.139l-.038-.132c.256 0 .477.054.661.163.189.105.334.25.435.435.105.184.157.398.157.642 0 .252-.063.474-.189.667-.126.193-.3.344-.522.453a1.798 1.798 0 0 1-.774.158Zm3.515-.063v-3.211h.472v.756h.031v2.455h-.503Zm2.165 0v-2.128c0-.243-.054-.422-.164-.535-.109-.113-.266-.17-.472-.17a.995.995 0 0 0-.522.139c-.155.092-.279.22-.372.383a1.194 1.194 0 0 0-.132.573l-.082-.761c.11-.24.273-.428.491-.567a1.31 1.31 0 0 1 .712-.208c.31 0 .562.093.755.277.193.181.29.426.29.737v2.26h-.504Zm2.166 0v-2.128c0-.243-.055-.422-.164-.535-.109-.113-.267-.17-.472-.17a1 1 0 0 0-.894.522 1.194 1.194 0 0 0-.132.573l-.126-.761c.109-.24.277-.428.503-.567.227-.138.47-.208.731-.208.31 0 .564.093.761.277.198.181.296.426.296.737v2.26h-.503Zm1.472 0v-3.211h.503v3.211h-.503Zm-.038-3.941v-.592h.579v.592h-.579Zm1.19 4.318 1.593-5.098h.441l-1.593 5.098h-.441Zm2.917-.377v-4.658h.504v4.658h-.504Zm2.096 0-1.705-1.668 1.642-1.543h.693l-1.844 1.687.031-.296 1.876 1.82h-.693Zm2.161 0-1.341-4.533h.529l1.202 4.186h-.095l1.178-4.186h.629l1.184 4.186h-.095l1.196-4.186h.497l-1.34 4.533h-.63l-1.177-4.06h.076l-1.184 4.06h-.629Zm5.702 0v-4.533h.503v4.533h-.503Zm2.297 0v-2.103c0-.243-.06-.426-.182-.547-.122-.122-.302-.183-.541-.183-.21 0-.397.046-.561.139-.159.092-.285.22-.377.383a1.194 1.194 0 0 0-.133.573l-.081-.761c.109-.24.275-.428.497-.567a1.45 1.45 0 0 1 .768-.208c.336 0 .604.097.806.29.205.189.308.438.308.749v2.235h-.504Z"/></svg>