<svg xmlns="http://www.w3.org/2000/svg" width="1040" height="440" fill="none"><path fill="#fff" d="M5.104 15.704c-.885 0-1.648-.222-2.288-.664-.64-.448-1.133-1.067-1.48-1.856-.347-.795-.52-1.715-.52-2.76 0-1.115.187-2.054.56-2.816.379-.763.89-1.339 1.536-1.728.65-.395 1.381-.592 2.192-.592 1.072 0 1.933.269 2.584.808.656.533 1.107 1.229 1.352 2.088l-1.344.272c-.208-.624-.541-1.12-1-1.488a2.428 2.428 0 0 0-1.592-.56c-.528 0-1.016.152-1.464.456-.443.298-.8.746-1.072 1.344-.272.597-.408 1.336-.408 2.216 0 .8.107 1.512.32 2.136.219.624.544 1.114.976 1.472.437.357.987.536 1.648.536.795 0 1.424-.214 1.888-.64.47-.427.704-.987.704-1.68h1.36c0 .72-.165 1.338-.496 1.856-.33.512-.795.906-1.392 1.184-.592.277-1.28.416-2.064.416Zm6.324-.192V4.6h1.248v10.912h-1.248Zm9.685-7.664h1.248v7.664h-1.248V7.848Zm-5.424 0h1.248v4.768c0 .64.154 1.125.464 1.456.314.33.762.496 1.344.496.48 0 .896-.128 1.248-.384.357-.256.632-.608.824-1.056.197-.454.296-.97.296-1.552h.464c0 .858-.126 1.592-.376 2.2-.245.608-.595 1.074-1.048 1.4-.448.32-.976.48-1.584.48-.576 0-1.08-.107-1.512-.32a2.294 2.294 0 0 1-1.008-.968c-.24-.438-.36-.99-.36-1.656V7.848Zm12.663 7.856c-.741 0-1.36-.104-1.856-.312-.496-.214-.872-.504-1.128-.872a2.353 2.353 0 0 1-.408-1.28h1.2c.027.485.222.85.584 1.096.368.24.867.36 1.496.36.331 0 .635-.054.912-.16a1.67 1.67 0 0 0 .664-.44.928.928 0 0 0 .248-.632c0-.299-.109-.534-.328-.704-.218-.17-.568-.32-1.048-.448l-1.488-.48c-.645-.203-1.141-.48-1.488-.832a1.788 1.788 0 0 1-.512-1.28c0-.619.272-1.115.816-1.488.544-.374 1.259-.56 2.144-.56.939 0 1.667.192 2.184.576.518.384.787.864.808 1.44H29.92a1.002 1.002 0 0 0-.512-.76c-.293-.176-.709-.264-1.248-.264-.517 0-.922.117-1.216.352-.288.23-.432.485-.432.768 0 .528.454.917 1.36 1.168l1.52.512c.656.197 1.158.456 1.504.776.352.32.528.728.528 1.224 0 .384-.125.746-.376 1.088-.25.341-.605.618-1.064.832-.458.213-1.002.32-1.632.32Zm8.007 0c-.416 0-.79-.08-1.12-.24-.331-.16-.592-.4-.784-.72-.192-.32-.288-.72-.288-1.2V5.736h1.232v7.776c0 .79.368 1.184 1.104 1.184.218 0 .429-.024.632-.072.208-.048.44-.12.696-.216l.176.896a6.191 6.191 0 0 1-.816.288 3.07 3.07 0 0 1-.832.112Zm-3.424-6.976v-.864h4.88v.864h-4.88Zm9.743 6.976a3.213 3.213 0 0 1-1.776-.504 3.604 3.604 0 0 1-1.232-1.416c-.298-.603-.448-1.296-.448-2.08 0-.838.15-1.558.448-2.16.299-.603.707-1.064 1.224-1.384.523-.326 1.118-.488 1.784-.488.582 0 1.078.117 1.488.352.41.234.742.552.992.952.25.4.424.853.52 1.36.102.501.13 1.021.088 1.56H40.23v-.768h4.712l-.368.24a4.322 4.322 0 0 0-.056-.944 2.698 2.698 0 0 0-.28-.864 1.648 1.648 0 0 0-.584-.64c-.25-.16-.57-.24-.96-.24-.49 0-.901.125-1.232.376-.33.25-.578.581-.744.992a3.46 3.46 0 0 0-.248 1.32v.512c0 .533.08 1.01.24 1.432.166.421.41.754.736 1 .326.245.736.368 1.232.368s.904-.12 1.224-.36c.32-.24.515-.595.584-1.064h1.296a2.84 2.84 0 0 1-.544 1.312 2.81 2.81 0 0 1-1.08.84 3.56 3.56 0 0 1-1.48.296Zm5.563-.192V7.848h1.248v7.664h-1.248Zm.864-3.456c0-.97.093-1.776.28-2.416.187-.646.459-1.126.816-1.44.363-.32.803-.48 1.32-.48.17 0 .325.013.464.04.144.021.288.056.432.104l-.08 1.232a3.842 3.842 0 0 0-.488-.12 2.301 2.301 0 0 0-.472-.056c-.453 0-.819.13-1.096.392-.277.256-.48.618-.608 1.088-.123.47-.184 1.021-.184 1.656h-.384Z"/><g clip-path="url(#a)"><path fill="#0C0D0E" d="M0 27.512h437.249v181.766H0z"/><path fill="#474D52" d="M-.379 197.532h438.007v11.68H-.379zm0-170.508h438.007v12.459H-.379zm111.95 16.244h214.366V194.45H111.571z"/></g><path stroke="#fff" stroke-width=".672" d="M.336 27.848h436.576v181.094H.336z"/><path fill="#fff" d="M2.213 220.88h.84v8.398h-1.04v-7.171c-.213.146-.438.26-.673.34a2.576 2.576 0 0 1-.7.126v-1.013c.28-.04.55-.113.813-.22.267-.106.52-.26.76-.46Zm3.04 8.398v-1.239c0-.485.078-.889.233-1.213a2.21 2.21 0 0 1 .667-.807 4.51 4.51 0 0 1 1.02-.553l1.652-.653c.427-.174.747-.396.96-.667.214-.271.32-.608.32-1.013 0-.426-.149-.775-.446-1.046-.294-.271-.705-.407-1.233-.407-.525 0-.956.114-1.293.34-.334.222-.525.558-.574 1.007H5.4c.032-.485.174-.896.427-1.233a2.374 2.374 0 0 1 1.047-.767c.44-.178.953-.267 1.54-.267.537 0 1.019.105 1.446.314.426.209.762.497 1.006.866.249.365.373.784.373 1.26 0 .431-.08.806-.24 1.126a2.39 2.39 0 0 1-.686.827 4.313 4.313 0 0 1-1.047.593l-1.693.68c-.426.164-.746.362-.96.593-.213.231-.32.531-.32.9v.4h4.866v.959H5.253Zm10.825.16c-.657 0-1.233-.16-1.726-.48-.489-.32-.87-.802-1.146-1.446-.271-.644-.407-1.451-.407-2.419 0-.969.136-1.773.407-2.413.275-.644.657-1.124 1.146-1.44.493-.32 1.069-.48 1.726-.48.654 0 1.227.16 1.72.48.493.316.875.796 1.146 1.44.276.64.414 1.444.414 2.413 0 .968-.138 1.775-.414 2.419-.27.644-.653 1.126-1.146 1.446-.493.32-1.066.48-1.72.48Zm0-.959c.72 0 1.267-.294 1.64-.88.373-.591.56-1.427.56-2.506 0-1.08-.187-1.913-.56-2.5-.373-.591-.92-.886-1.64-.886-.71 0-1.255.295-1.633.886-.377.587-.566 1.42-.566 2.5 0 1.079.189 1.915.566 2.506.378.586.922.88 1.633.88Zm7.915.959c-.657 0-1.233-.16-1.726-.48-.489-.32-.871-.802-1.147-1.446-.27-.644-.406-1.451-.406-2.419 0-.969.135-1.773.406-2.413.276-.644.658-1.124 1.147-1.44.493-.32 1.069-.48 1.726-.48.653 0 1.226.16 1.72.48.493.316.875.796 1.146 1.44.275.64.413 1.444.413 2.413 0 .968-.137 1.775-.413 2.419-.271.644-.653 1.126-1.146 1.446-.494.32-1.067.48-1.72.48Zm0-.959c.72 0 1.266-.294 1.64-.88.373-.591.56-1.427.56-2.506 0-1.08-.187-1.913-.56-2.5-.374-.591-.92-.886-1.64-.886-.71 0-1.255.295-1.633.886-.377.587-.566 1.42-.566 2.5 0 1.079.189 1.915.566 2.506.378.586.922.88 1.633.88Zm8.195.959c-.467 0-.873-.106-1.22-.32a2.08 2.08 0 0 1-.793-.933c-.187-.413-.28-.915-.28-1.506h.44c0 .395.082.729.246 1 .165.271.378.477.64.62.267.137.549.206.847.206.32 0 .626-.091.92-.273.293-.187.533-.46.72-.82.186-.36.28-.804.28-1.333 0-.506-.087-.94-.26-1.3a1.961 1.961 0 0 0-.687-.826 1.703 1.703 0 0 0-.96-.287 1.75 1.75 0 0 0-.853.22 1.673 1.673 0 0 0-.647.647c-.164.28-.246.626-.246 1.04h-.44c0-.618.102-1.136.306-1.553.205-.422.483-.74.834-.953a2.22 2.22 0 0 1 1.18-.32c.497 0 .961.133 1.392.4.431.266.78.648 1.047 1.146.266.498.4 1.093.4 1.786 0 .702-.136 1.304-.407 1.806-.267.502-.618.887-1.053 1.153-.436.267-.904.4-1.406.4Zm-2.893 2.973v-9.504h.866l.174 1.493v8.011h-1.04Zm6.798-3.133 2.413-3.186-2.413-3.199h1.266l1.826 2.413 1.76-2.413h1.266l-2.426 3.199 2.413 3.186h-1.266l-1.827-2.426-1.746 2.426h-1.266Zm9.984 0 2.413-3.186-2.413-3.199h1.267l1.826 2.413 1.76-2.413h1.266l-2.426 3.199 2.412 3.186h-1.266l-1.826-2.426-1.746 2.426h-1.267Zm13.397.16c-.528 0-1.01-.095-1.446-.286a2.472 2.472 0 0 1-1.046-.84c-.263-.373-.396-.829-.4-1.366h1.04c0 .506.177.888.533 1.146.36.258.8.387 1.32.387.6 0 1.07-.183 1.412-.547.347-.369.52-.822.52-1.36 0-1.075-.693-1.613-2.08-1.613h-2.239l.36-4.052h4.639v.947h-3.8l.214-.36-.28 2.919-.133-.12c.213-.049.455-.082.727-.1.27-.022.513-.033.726-.033.906 0 1.624.202 2.153.606.528.404.793 1.007.793 1.806 0 .542-.122 1.031-.367 1.467a2.67 2.67 0 0 1-1.046 1.026c-.449.249-.982.373-1.6.373Zm7.724 0c-.657 0-1.233-.16-1.726-.48-.489-.32-.87-.802-1.146-1.446-.271-.644-.407-1.451-.407-2.419 0-.969.136-1.773.407-2.413.275-.644.657-1.124 1.146-1.44.493-.32 1.069-.48 1.726-.48.654 0 1.227.16 1.72.48.493.316.875.796 1.146 1.44.276.64.414 1.444.414 2.413 0 .968-.138 1.775-.414 2.419-.27.644-.653 1.126-1.146 1.446-.493.32-1.066.48-1.72.48Zm0-.959c.72 0 1.267-.294 1.64-.88.373-.591.56-1.427.56-2.506 0-1.08-.187-1.913-.56-2.5-.373-.591-.92-.886-1.64-.886-.71 0-1.255.295-1.632.886-.378.587-.567 1.42-.567 2.5 0 1.079.189 1.915.567 2.506.377.586.921.88 1.632.88Zm7.915.959c-.657 0-1.233-.16-1.726-.48-.489-.32-.871-.802-1.147-1.446-.27-.644-.406-1.451-.406-2.419 0-.969.135-1.773.406-2.413.276-.644.658-1.124 1.147-1.44.493-.32 1.069-.48 1.726-.48.653 0 1.227.16 1.72.48.493.316.875.796 1.146 1.44.275.64.413 1.444.413 2.413 0 .968-.138 1.775-.413 2.419-.271.644-.653 1.126-1.146 1.446-.493.32-1.067.48-1.72.48Zm0-.959c.72 0 1.266-.294 1.64-.88.373-.591.56-1.427.56-2.506 0-1.08-.187-1.913-.56-2.5-.374-.591-.92-.886-1.64-.886-.71 0-1.255.295-1.633.886-.377.587-.566 1.42-.566 2.5 0 1.079.189 1.915.566 2.506.378.586.922.88 1.633.88Zm8.195.959c-.467 0-.873-.106-1.22-.32a2.08 2.08 0 0 1-.793-.933c-.187-.413-.28-.915-.28-1.506h.44c0 .395.082.729.246 1 .165.271.378.477.64.62.267.137.549.206.847.206.32 0 .626-.091.92-.273.293-.187.533-.46.72-.82.186-.36.28-.804.28-1.333 0-.506-.087-.94-.26-1.3a1.96 1.96 0 0 0-.687-.826 1.703 1.703 0 0 0-.96-.287 1.75 1.75 0 0 0-.853.22 1.673 1.673 0 0 0-.647.647c-.164.28-.246.626-.246 1.04h-.44c0-.618.102-1.136.306-1.553.205-.422.483-.74.834-.953a2.22 2.22 0 0 1 1.18-.32c.497 0 .961.133 1.392.4.431.266.78.648 1.047 1.146.266.498.4 1.093.4 1.786 0 .702-.136 1.304-.407 1.806-.266.502-.617.887-1.053 1.153a2.64 2.64 0 0 1-1.406.4Zm-2.893 2.973v-9.504h.867l.173 1.493v8.011h-1.04Zm6.798-3.133 2.413-3.186-2.413-3.199h1.266l1.826 2.413 1.76-2.413h1.266l-2.426 3.199 2.413 3.186h-1.266l-1.827-2.426-1.746 2.426h-1.266Zm-83.254 16.16a4.24 4.24 0 0 1-1.213-.173 3.54 3.54 0 0 1-1.046-.52 2.53 2.53 0 0 1-.727-.853 2.484 2.484 0 0 1-.267-1.173h1.067c.009.382.111.704.306.966.196.263.456.46.78.594.33.133.696.2 1.1.2.622 0 1.104-.152 1.446-.454a1.45 1.45 0 0 0 .514-1.133 1.39 1.39 0 0 0-.214-.766c-.142-.222-.369-.396-.68-.52-.306-.129-.71-.193-1.213-.193h-.946v-.827h.64c.649 0 1.16-.129 1.533-.386.373-.258.56-.614.56-1.067 0-.4-.151-.737-.454-1.013-.302-.275-.733-.413-1.293-.413-.43 0-.815.089-1.153.266-.337.174-.566.494-.686.96H.946c.072-.52.24-.94.507-1.259.267-.32.604-.551 1.013-.694a4.02 4.02 0 0 1 1.36-.22c.555 0 1.05.098 1.486.294a2.5 2.5 0 0 1 1.026.806c.254.342.38.736.38 1.18 0 .44-.126.817-.38 1.133-.248.311-.61.551-1.086.72.529.151.96.4 1.293.746.338.347.507.791.507 1.333 0 .48-.127.907-.38 1.28-.25.369-.605.66-1.067.873-.462.209-1.01.313-1.646.313Zm6.13-8.558h.84v8.398h-1.04v-7.171c-.214.146-.438.26-.674.34a2.576 2.576 0 0 1-.7.126v-1.013c.28-.04.551-.113.814-.22.266-.106.52-.26.76-.46Zm2.973 8.398 4.012-7.384h-4.479v-.987h5.706v.96l-3.853 7.411h-1.386Zm5.875-.62c0-.208.073-.388.22-.539a.74.74 0 0 1 .553-.227c.222 0 .411.076.567.227a.726.726 0 0 1 .233.539.686.686 0 0 1-.233.527.81.81 0 0 1-.567.213.763.763 0 0 1-.553-.213.719.719 0 0 1-.22-.527Zm5.741.78c-.528 0-1.01-.095-1.446-.286a2.474 2.474 0 0 1-1.046-.84c-.263-.373-.396-.829-.4-1.366h1.04c0 .506.177.888.533 1.146.36.258.8.387 1.32.387.6 0 1.07-.183 1.412-.547.347-.369.52-.822.52-1.36 0-1.075-.693-1.613-2.08-1.613h-2.239l.36-4.052h4.639v.947h-3.8l.214-.36-.28 2.919-.133-.12c.213-.049.455-.082.726-.1.271-.022.514-.033.727-.033.906 0 1.624.202 2.153.606.529.404.793 1.007.793 1.806 0 .542-.122 1.031-.367 1.467a2.67 2.67 0 0 1-1.046 1.026c-.449.249-.982.373-1.6.373Zm14.07-.16v-3.745c0-.609-.147-1.071-.44-1.387-.29-.32-.68-.48-1.173-.48-.578 0-1.02.225-1.327.674-.306.444-.46 1.059-.46 1.846h-.48c0-.573.056-1.076.167-1.507.116-.431.282-.788.5-1.073a2.06 2.06 0 0 1 .793-.646 2.525 2.525 0 0 1 1.06-.213c.502 0 .93.113 1.286.34.36.222.636.542.827.959.19.418.286.913.286 1.487v3.745h-1.04Zm-8.958 0v-6.371h.893l.12 1.279c.2-.462.48-.817.84-1.066.364-.249.8-.373 1.306-.373.502 0 .93.113 1.286.34.36.222.636.542.827.959.19.418.286.913.286 1.487v3.745h-1.026v-3.745c0-.609-.147-1.071-.44-1.387-.289-.32-.684-.48-1.186-.48-.382 0-.713.105-.993.314-.28.208-.496.508-.647.899-.151.387-.227.849-.227 1.387v3.012h-1.04Zm21.428 0v-3.745c0-.609-.146-1.071-.44-1.387-.288-.32-.68-.48-1.173-.48-.577 0-1.02.225-1.326.674-.307.444-.46 1.059-.46 1.846h-.48c0-.573.056-1.076.167-1.507.115-.431.282-.788.5-1.073a2.06 2.06 0 0 1 .793-.646 2.525 2.525 0 0 1 1.06-.213c.502 0 .93.113 1.286.34.36.222.635.542.826.959.192.418.287.913.287 1.487v3.745h-1.04Zm-8.957 0v-6.371h.893l.12 1.279c.2-.462.48-.817.84-1.066.364-.249.8-.373 1.306-.373.502 0 .93.113 1.286.34.36.222.636.542.827.959.19.418.286.913.286 1.487v3.745h-1.026v-3.745c0-.609-.147-1.071-.44-1.387-.289-.32-.684-.48-1.187-.48-.382 0-.713.105-.993.314-.28.208-.495.508-.646.899-.151.387-.227.849-.227 1.387v3.012h-1.04Zm14.634 0 2.413-3.186-2.413-3.199h1.266l1.826 2.413 1.76-2.413h1.266l-2.426 3.199L63 245.278h-1.266l-1.827-2.426-1.746 2.426h-1.266Zm11.85-8.398h.84v8.398h-1.04v-7.171a2.76 2.76 0 0 1-.672.34 2.576 2.576 0 0 1-.7.126v-1.013c.28-.04.55-.113.813-.22.266-.106.52-.26.76-.46Zm6.147 8.558a4.24 4.24 0 0 1-1.213-.173 3.54 3.54 0 0 1-1.047-.52 2.53 2.53 0 0 1-.726-.853 2.483 2.483 0 0 1-.267-1.173h1.067c.009.382.11.704.306.966.196.263.456.46.78.594.329.133.695.2 1.1.2.622 0 1.104-.152 1.446-.454a1.45 1.45 0 0 0 .513-1.133c0-.289-.07-.544-.213-.766-.142-.222-.369-.396-.68-.52-.306-.129-.71-.193-1.213-.193H73.8v-.827h.64c.648 0 1.16-.129 1.533-.386.373-.258.56-.614.56-1.067 0-.4-.152-.737-.454-1.013-.302-.275-.733-.413-1.293-.413-.43 0-.815.089-1.153.266-.338.174-.566.494-.686.96H71.88c.071-.52.24-.94.507-1.259.266-.32.604-.551 1.013-.694a4.02 4.02 0 0 1 1.36-.22c.555 0 1.05.098 1.486.294a2.5 2.5 0 0 1 1.026.806c.254.342.38.736.38 1.18 0 .44-.126.817-.38 1.133-.249.311-.61.551-1.086.72.529.151.96.4 1.293.746.338.347.506.791.506 1.333 0 .48-.126.907-.38 1.28-.248.369-.604.66-1.066.873-.462.209-1.01.313-1.646.313Zm4.77-.16v-1.239c0-.485.077-.889.233-1.213.16-.325.382-.594.666-.807a4.509 4.509 0 0 1 1.02-.553l1.653-.653c.427-.174.747-.396.96-.667.213-.271.32-.608.32-1.013 0-.426-.15-.775-.447-1.046-.293-.271-.704-.407-1.233-.407-.524 0-.955.114-1.293.34-.333.222-.524.558-.573 1.007h-1.16c.031-.485.173-.896.427-1.233a2.373 2.373 0 0 1 1.046-.767c.44-.178.953-.267 1.54-.267.537 0 1.02.105 1.446.314.427.209.762.497 1.007.866.248.365.373.784.373 1.26 0 .431-.08.806-.24 1.126-.16.32-.389.596-.687.827a4.314 4.314 0 0 1-1.046.593l-1.693.68c-.427.164-.746.362-.96.593-.213.231-.32.531-.32.9v.4h4.866v.959h-5.905Zm7.266-.62c0-.208.073-.388.22-.539a.74.74 0 0 1 .553-.227c.222 0 .41.076.566.227a.726.726 0 0 1 .234.539.686.686 0 0 1-.234.527.81.81 0 0 1-.566.213.763.763 0 0 1-.553-.213.72.72 0 0 1-.22-.527Zm5.941.78a4.24 4.24 0 0 1-1.213-.173 3.542 3.542 0 0 1-1.046-.52 2.53 2.53 0 0 1-.727-.853 2.484 2.484 0 0 1-.266-1.173h1.066c.009.382.111.704.306.966.196.263.456.46.78.594.33.133.696.2 1.1.2.622 0 1.104-.152 1.446-.454a1.45 1.45 0 0 0 .514-1.133 1.39 1.39 0 0 0-.214-.766c-.142-.222-.368-.396-.68-.52-.306-.129-.71-.193-1.213-.193h-.946v-.827h.64c.649 0 1.16-.129 1.533-.386.373-.258.56-.614.56-1.067 0-.4-.151-.737-.454-1.013-.302-.275-.733-.413-1.293-.413-.43 0-.815.089-1.153.266-.337.174-.566.494-.686.96h-1.067c.072-.52.24-.94.507-1.259.267-.32.604-.551 1.013-.694a4.02 4.02 0 0 1 1.36-.22c.555 0 1.05.098 1.486.294a2.5 2.5 0 0 1 1.027.806c.253.342.38.736.38 1.18 0 .44-.127.817-.38 1.133-.25.311-.611.551-1.087.72.529.151.96.4 1.293.746.338.347.507.791.507 1.333 0 .48-.127.907-.38 1.28-.25.369-.605.66-1.067.873-.462.209-1.01.313-1.646.313Zm14.221-.16v-3.745c0-.609-.147-1.071-.44-1.387-.289-.32-.68-.48-1.173-.48-.578 0-1.02.225-1.326.674-.307.444-.46 1.059-.46 1.846h-.48c0-.573.055-1.076.166-1.507.116-.431.283-.788.5-1.073a2.06 2.06 0 0 1 .793-.646 2.527 2.527 0 0 1 1.06-.213c.502 0 .931.113 1.286.34.36.222.636.542.827.959.191.418.287.913.287 1.487v3.745h-1.04Zm-8.958 0v-6.371h.893l.12 1.279c.2-.462.48-.817.84-1.066.364-.249.8-.373 1.306-.373.502 0 .931.113 1.287.34.359.222.635.542.826.959.191.418.287.913.287 1.487v3.745h-1.027v-3.745c0-.609-.146-1.071-.44-1.387-.288-.32-.684-.48-1.186-.48-.382 0-.713.105-.993.314-.28.208-.496.508-.647.899-.15.387-.226.849-.226 1.387v3.012h-1.04Zm21.429 0v-3.745c0-.609-.147-1.071-.44-1.387-.289-.32-.68-.48-1.173-.48-.578 0-1.02.225-1.327.674-.306.444-.46 1.059-.46 1.846h-.479c0-.573.055-1.076.166-1.507.116-.431.282-.788.5-1.073a2.06 2.06 0 0 1 .793-.646 2.527 2.527 0 0 1 1.06-.213c.502 0 .931.113 1.286.34.36.222.636.542.827.959.191.418.286.913.286 1.487v3.745h-1.039Zm-8.958 0v-6.371h.893l.12 1.279c.2-.462.48-.817.84-1.066.364-.249.8-.373 1.306-.373.502 0 .931.113 1.286.34.36.222.636.542.827.959.191.418.286.913.286 1.487v3.745h-1.026v-3.745c0-.609-.147-1.071-.44-1.387-.289-.32-.684-.48-1.186-.48-.382 0-.713.105-.993.314-.28.208-.496.508-.647.899-.151.387-.226.849-.226 1.387v3.012h-1.04Zm241.885-15.84c-.467 0-.873-.106-1.22-.32a2.078 2.078 0 0 1-.793-.933c-.187-.413-.28-.915-.28-1.506h.44c0 .395.082.729.246 1 .165.271.378.477.64.62.267.137.549.206.847.206.32 0 .626-.091.919-.273.294-.187.534-.46.72-.82.187-.36.28-.804.28-1.333 0-.506-.086-.94-.26-1.3a1.96 1.96 0 0 0-.686-.826 1.705 1.705 0 0 0-.96-.287c-.302 0-.587.074-.853.22a1.676 1.676 0 0 0-.647.647c-.164.28-.246.626-.246 1.04h-.44c0-.618.102-1.136.306-1.553.205-.422.483-.74.834-.953a2.22 2.22 0 0 1 1.179-.32c.498 0 .962.133 1.393.4.431.266.78.648 1.047 1.146.266.498.4 1.093.4 1.786 0 .702-.136 1.304-.407 1.806-.267.502-.618.887-1.053 1.153a2.64 2.64 0 0 1-1.406.4Zm-2.893 2.973v-9.504h.866l.174 1.493v8.011h-1.04Zm7.798-3.133v-6.385h1.039v6.385h-1.039Zm.719-2.879c0-.809.078-1.48.234-2.013.155-.537.382-.937.68-1.199a1.6 1.6 0 0 1 1.099-.4c.142 0 .271.011.387.033.12.018.24.047.36.087l-.067 1.026a3.232 3.232 0 0 0-.407-.1 1.916 1.916 0 0 0-.393-.047c-.377 0-.682.109-.913.327-.231.213-.4.515-.506.906a5.459 5.459 0 0 0-.154 1.38h-.32Zm4.684-4.999c-.214 0-.383-.06-.507-.18a.658.658 0 0 1-.187-.486c0-.196.063-.351.187-.467.124-.115.293-.173.507-.173.213 0 .382.058.506.173a.605.605 0 0 1 .187.467c0 .2-.062.362-.187.486-.124.12-.293.18-.506.18Zm-.52 7.878v-6.385h1.039v6.385h-1.039Zm12.861 0v-3.745c0-.609-.146-1.071-.44-1.387-.289-.32-.68-.48-1.173-.48-.577 0-1.019.225-1.326.674-.307.444-.46 1.059-.46 1.846h-.48c0-.573.056-1.076.167-1.507.115-.431.282-.788.5-1.073.217-.288.482-.504.793-.646a2.524 2.524 0 0 1 1.06-.213c.502 0 .93.113 1.286.34.36.222.635.542.826.959.191.418.287.913.287 1.487v3.745h-1.04Zm-8.958 0v-6.371h.894l.12 1.279c.199-.462.479-.817.839-1.066.365-.249.8-.373 1.307-.373.502 0 .931.113 1.286.34.36.222.635.542.826.959.192.418.287.913.287 1.487v3.745h-1.026v-3.745c0-.609-.147-1.071-.44-1.387-.289-.32-.685-.48-1.187-.48-.382 0-.713.105-.993.314-.28.208-.495.508-.646.899-.151.387-.227.849-.227 1.387v3.012h-1.04Zm16.417 0-.133-1.399v-2.733c0-.573-.123-.984-.367-1.233-.244-.253-.611-.38-1.1-.38-.275 0-.526.04-.753.12-.222.08-.4.204-.533.373-.129.165-.193.378-.193.64h-1.16c0-.462.113-.833.34-1.113.227-.284.538-.489.933-.613.4-.129.855-.193 1.366-.193.489 0 .922.082 1.3.246.378.165.673.427.886.787.214.355.32.819.32 1.393v4.105h-.906Zm-2.173.16c-.524 0-.957-.093-1.3-.28a1.89 1.89 0 0 1-.766-.726 1.876 1.876 0 0 1-.253-.94c0-.431.106-.782.32-1.053a1.85 1.85 0 0 1 .886-.593 3.84 3.84 0 0 1 1.26-.193c.333 0 .666.033 1 .1.337.066.666.157.986.273v.653a4.747 4.747 0 0 0-.906-.253 4.984 4.984 0 0 0-.92-.094c-.427 0-.787.089-1.08.267-.293.173-.44.471-.44.893 0 .311.111.578.333.8.227.222.587.333 1.08.333.347 0 .658-.08.933-.24.28-.164.5-.369.66-.613a1.31 1.31 0 0 0 .247-.733h.253c0 .426-.093.822-.28 1.186a2.203 2.203 0 0 1-.786.88c-.343.222-.751.333-1.227.333Zm5.569-.16v-6.385h1.04v6.385h-1.04Zm.72-2.879c0-.809.078-1.48.233-2.013.156-.537.382-.937.68-1.199.302-.267.669-.4 1.1-.4.142 0 .271.011.386.033.12.018.24.047.36.087l-.066 1.026a3.276 3.276 0 0 0-.407-.1 1.932 1.932 0 0 0-.393-.047c-.378 0-.682.109-.913.327-.231.213-.4.515-.507.906a5.508 5.508 0 0 0-.153 1.38h-.32Zm3.044-3.492h1.159l2.08 5.465h-.24l1.613-5.465h1.066l-2.399 7.651c-.2.64-.467 1.133-.8 1.48-.333.346-.76.52-1.28.52-.28 0-.546-.04-.799-.12a4.18 4.18 0 0 1-.774-.347v-.96c.236.187.462.32.68.4.222.08.453.12.693.12a.93.93 0 0 0 .667-.253c.182-.169.333-.387.453-.653.12-.263.222-.538.307-.827l.186-.64-2.612-6.371Zm10.425 6.371v-9.091h1.04v9.091h-1.04Zm7.682 0-.133-1.399v-2.733c0-.573-.122-.984-.367-1.233-.244-.253-.611-.38-1.1-.38-.275 0-.526.04-.753.12-.222.08-.4.204-.533.373-.129.165-.193.378-.193.64h-1.16c0-.462.113-.833.34-1.113.227-.284.538-.489.933-.613.4-.129.855-.193 1.366-.193.489 0 .922.082 1.3.246.378.165.673.427.887.787.213.355.32.819.32 1.393v4.105h-.907Zm-2.173.16c-.524 0-.957-.093-1.299-.28a1.886 1.886 0 0 1-.767-.726 1.876 1.876 0 0 1-.253-.94c0-.431.107-.782.32-1.053.218-.271.513-.469.886-.593a3.84 3.84 0 0 1 1.26-.193c.333 0 .666.033 1 .1.337.066.666.157.986.273v.653a4.747 4.747 0 0 0-.906-.253 4.984 4.984 0 0 0-.92-.094c-.427 0-.787.089-1.08.267-.293.173-.44.471-.44.893 0 .311.111.578.334.8.226.222.586.333 1.079.333.347 0 .658-.08.933-.24.28-.164.5-.369.66-.613.165-.244.247-.489.247-.733h.253c0 .426-.093.822-.28 1.186a2.203 2.203 0 0 1-.786.88c-.342.222-.751.333-1.227.333Zm4.516-6.531h1.16l2.079 5.465h-.24l1.613-5.465h1.067l-2.4 7.651c-.2.64-.466 1.133-.799 1.48-.334.346-.76.52-1.28.52-.28 0-.547-.04-.8-.12a4.173 4.173 0 0 1-.773-.347v-.96c.236.187.462.32.68.4.222.08.453.12.693.12a.926.926 0 0 0 .666-.253c.183-.169.334-.387.454-.653.12-.263.222-.538.306-.827l.187-.64-2.613-6.371Zm9.569 6.531c-.573 0-1.084-.126-1.533-.38a2.662 2.662 0 0 1-1.053-1.126c-.258-.498-.387-1.111-.387-1.84 0-.733.129-1.346.387-1.839a2.662 2.662 0 0 1 1.053-1.126c.449-.254.96-.38 1.533-.38.569 0 1.075.126 1.519.38.449.253.8.628 1.053 1.126.258.493.387 1.106.387 1.839 0 .729-.129 1.342-.387 1.84a2.609 2.609 0 0 1-1.053 1.126c-.444.254-.95.38-1.519.38Zm-.027-.906c.413 0 .764-.098 1.053-.293.289-.2.507-.483.653-.847.151-.364.227-.797.227-1.3 0-.759-.158-1.357-.473-1.792-.316-.44-.784-.66-1.407-.66-.417 0-.77.1-1.059.3-.285.195-.502.477-.653.846-.147.364-.22.8-.22 1.306 0 .751.157 1.347.473 1.787.32.435.789.653 1.406.653Zm9.343-5.639h1.04v6.385h-1.04v-6.385Zm-4.519 0h1.04v3.973c0 .533.129.937.386 1.213.262.275.636.413 1.12.413.4 0 .746-.107 1.04-.32.297-.213.526-.507.686-.88.165-.378.247-.809.247-1.293h.386c0 .716-.104 1.326-.313 1.833-.204.507-.495.895-.873 1.166-.373.267-.813.4-1.32.4-.48 0-.899-.089-1.259-.266a1.914 1.914 0 0 1-.84-.807c-.2-.364-.3-.824-.3-1.379v-4.053Zm10.217 6.545c-.347 0-.658-.066-.933-.2a1.513 1.513 0 0 1-.653-.6c-.16-.266-.24-.599-.24-.999v-6.505h1.026v6.478c0 .658.307.986.92.986.182 0 .358-.02.526-.059.174-.04.367-.1.58-.18l.147.746a5.111 5.111 0 0 1-.68.24 2.564 2.564 0 0 1-.693.093Zm-2.853-5.812v-.719h4.066v.719h-4.066Zm26.929-208.114V5.464h1.248v10.048h-1.248Zm7.972.192c-.885 0-1.648-.222-2.288-.664-.64-.448-1.133-1.067-1.48-1.856-.347-.795-.52-1.715-.52-2.76 0-1.115.187-2.054.56-2.816.379-.763.891-1.339 1.536-1.728.651-.395 1.381-.592 2.192-.592 1.072 0 1.933.269 2.584.808.656.533 1.107 1.229 1.352 2.088l-1.344.272c-.208-.624-.541-1.12-1-1.488a2.428 2.428 0 0 0-1.592-.56c-.528 0-1.016.152-1.464.456-.443.298-.8.746-1.072 1.344-.272.597-.408 1.336-.408 2.216 0 .8.107 1.512.32 2.136.219.624.544 1.114.976 1.472.437.357.987.536 1.648.536.795 0 1.424-.214 1.888-.64.469-.427.704-.987.704-1.68h1.36c0 .72-.165 1.338-.496 1.856-.331.512-.795.906-1.392 1.184-.592.277-1.28.416-2.064.416Zm9.541 0c-.672 0-1.288-.12-1.848-.36a3.218 3.218 0 0 1-1.352-1.08c-.342-.475-.518-1.062-.528-1.76h1.216c0 .47.114.856.344 1.16.229.298.533.522.912.672.378.144.792.216 1.24.216.485 0 .906-.078 1.264-.232.357-.155.632-.358.824-.608.197-.256.296-.536.296-.84 0-.427-.131-.77-.392-1.032-.262-.267-.648-.483-1.16-.648l-1.776-.624c-.832-.299-1.462-.64-1.888-1.024-.427-.384-.64-.923-.64-1.616 0-.779.298-1.414.896-1.904.602-.49 1.456-.736 2.56-.736 1.024 0 1.824.237 2.4.712.576.47.906 1.101.992 1.896h-1.232c-.08-.464-.299-.824-.656-1.08-.352-.262-.854-.392-1.504-.392-.662 0-1.176.146-1.544.44-.368.293-.552.664-.552 1.112 0 .368.114.661.344.88.234.213.6.405 1.096.576l2.08.72c.72.24 1.288.576 1.704 1.008.421.432.632.992.632 1.68 0 .533-.144 1.016-.432 1.448-.283.432-.702.776-1.256 1.032-.555.256-1.235.384-2.04.384Z"/><g clip-path="url(#b)"><path fill="#0C0D0E" d="M457.249 27.512h582v372.256h-582z"/><path fill="#474D52" d="M457.339 27.024h581.911v25.908H457.339zm0 34.189h581.911v298.315H457.339zm0 306.68h581.911v31.968H457.339z"/></g><path stroke="#fff" stroke-width=".672" d="M457.585 27.848h581.328v371.584H457.585z"/><path fill="#fff" d="M459.461 411.37h.84v8.398h-1.039v-7.172c-.214.147-.438.26-.674.34a2.575 2.575 0 0 1-.699.127v-1.013c.279-.04.551-.114.813-.22.266-.107.52-.26.759-.46Zm6.2 8.558c-.671 0-1.257-.185-1.76-.554-.497-.368-.884-.868-1.159-1.499-.276-.636-.414-1.351-.414-2.146 0-.938.14-1.74.42-2.406.28-.671.68-1.185 1.2-1.54.52-.356 1.14-.533 1.86-.533.497 0 .935.095 1.313.286.382.187.686.449.913.787.231.337.369.731.413 1.179h-1.133c-.067-.399-.218-.717-.453-.953-.236-.235-.578-.353-1.027-.353-.764 0-1.364.331-1.799.993-.436.658-.653 1.558-.653 2.7 0 .164.004.355.013.573.009.213.027.413.053.6.04-.591.176-1.056.407-1.393a1.94 1.94 0 0 1 .88-.727 2.94 2.94 0 0 1 1.113-.213c.506 0 .959.111 1.359.333.405.222.722.531.953.927.236.391.354.842.354 1.353 0 .515-.12.968-.36 1.359-.24.387-.576.689-1.007.907-.426.213-.922.32-1.486.32Zm0-.96c.507 0 .926-.149 1.26-.447.333-.297.5-.7.5-1.206 0-.52-.167-.927-.5-1.22-.334-.298-.753-.446-1.26-.446-.333 0-.631.073-.893.22a1.639 1.639 0 0 0-.627.593 1.611 1.611 0 0 0-.226.853c0 .506.166.909.5 1.206.333.298.748.447 1.246.447Zm7.575.96c-.658 0-1.233-.16-1.726-.48-.489-.32-.871-.802-1.147-1.447-.271-.644-.406-1.45-.406-2.419 0-.969.135-1.773.406-2.413.276-.644.658-1.124 1.147-1.439.493-.32 1.068-.48 1.726-.48.653 0 1.226.16 1.72.48.493.315.875.795 1.146 1.439.275.64.413 1.444.413 2.413 0 .969-.138 1.775-.413 2.419-.271.645-.653 1.127-1.146 1.447-.494.32-1.067.48-1.72.48Zm0-.96c.72 0 1.266-.293 1.64-.88.373-.591.559-1.426.559-2.506 0-1.08-.186-1.913-.559-2.499-.374-.591-.92-.887-1.64-.887-.711 0-1.255.296-1.633.887-.378.586-.566 1.419-.566 2.499s.188 1.915.566 2.506c.378.587.922.88 1.633.88Zm7.915.96c-.658 0-1.233-.16-1.727-.48-.488-.32-.87-.802-1.146-1.447-.271-.644-.407-1.45-.407-2.419 0-.969.136-1.773.407-2.413.276-.644.658-1.124 1.146-1.439.494-.32 1.069-.48 1.727-.48.653 0 1.226.16 1.719.48.493.315.876.795 1.147 1.439.275.64.413 1.444.413 2.413 0 .969-.138 1.775-.413 2.419-.271.645-.654 1.127-1.147 1.447-.493.32-1.066.48-1.719.48Zm0-.96c.719 0 1.266-.293 1.639-.88.373-.591.56-1.426.56-2.506 0-1.08-.187-1.913-.56-2.499-.373-.591-.92-.887-1.639-.887-.711 0-1.256.296-1.633.887-.378.586-.567 1.419-.567 2.499s.189 1.915.567 2.506c.377.587.922.88 1.633.88Zm8.194.96c-.466 0-.873-.107-1.219-.32a2.09 2.09 0 0 1-.794-.933c-.186-.414-.279-.916-.279-1.507h.439c0 .396.083.729.247 1 .164.271.378.478.64.62.266.138.549.206.846.206.32 0 .627-.091.92-.273.293-.186.533-.46.72-.82.187-.36.28-.804.28-1.333 0-.506-.087-.939-.26-1.299a1.959 1.959 0 0 0-.687-.827 1.698 1.698 0 0 0-.959-.286c-.303 0-.587.073-.853.22a1.666 1.666 0 0 0-.647.646c-.164.28-.247.627-.247 1.04h-.439c0-.618.102-1.135.306-1.553.204-.422.482-.74.833-.953a2.23 2.23 0 0 1 1.18-.32c.498 0 .962.133 1.393.4.431.266.78.649 1.046 1.146.267.498.4 1.093.4 1.786 0 .702-.135 1.304-.406 1.807-.267.502-.618.886-1.053 1.153-.436.266-.905.4-1.407.4Zm-2.892 2.972v-9.504h.866l.173 1.493v8.011h-1.039Zm6.797-3.132 2.413-3.186-2.413-3.199h1.267l1.826 2.412 1.76-2.412h1.266l-2.426 3.199 2.413 3.186h-1.267l-1.826-2.426-1.746 2.426h-1.267Zm9.985 0 2.413-3.186-2.413-3.199h1.266l1.826 2.412 1.76-2.412h1.266l-2.426 3.199 2.413 3.186h-1.266l-1.826-2.426-1.747 2.426h-1.266Zm11.851-8.398h.839v8.398h-1.039v-7.172c-.214.147-.438.26-.674.34a2.575 2.575 0 0 1-.699.127v-1.013c.28-.04.551-.114.813-.22.266-.107.52-.26.76-.46Zm6.146 8.558c-.658 0-1.233-.16-1.726-.48-.489-.32-.871-.802-1.147-1.447-.271-.644-.406-1.45-.406-2.419 0-.969.135-1.773.406-2.413.276-.644.658-1.124 1.147-1.439.493-.32 1.068-.48 1.726-.48.653 0 1.226.16 1.719.48.494.315.876.795 1.147 1.439.275.64.413 1.444.413 2.413 0 .969-.138 1.775-.413 2.419-.271.645-.653 1.127-1.147 1.447-.493.32-1.066.48-1.719.48Zm0-.96c.72 0 1.266-.293 1.639-.88.374-.591.56-1.426.56-2.506 0-1.08-.186-1.913-.56-2.499-.373-.591-.919-.887-1.639-.887-.711 0-1.255.296-1.633.887-.378.586-.567 1.419-.567 2.499s.189 1.915.567 2.506c.378.587.922.88 1.633.88Zm4.809.8v-1.24c0-.484.077-.889.233-1.213.16-.325.382-.593.666-.807a4.557 4.557 0 0 1 1.02-.553l1.653-.653c.427-.173.747-.395.96-.666.213-.272.32-.609.32-1.014 0-.426-.149-.775-.447-1.046-.293-.271-.704-.407-1.233-.407-.524 0-.955.114-1.293.34-.333.223-.524.558-.573 1.007h-1.16c.031-.485.174-.896.427-1.233a2.375 2.375 0 0 1 1.046-.767c.44-.177.953-.266 1.54-.266.537 0 1.02.104 1.446.313.427.209.762.498 1.007.866.248.365.373.785.373 1.26 0 .431-.08.807-.24 1.126-.16.32-.389.596-.687.827a4.278 4.278 0 0 1-1.046.593l-1.693.68c-.427.164-.746.362-.96.593-.213.231-.32.531-.32.9v.4h4.866v.96h-5.905Zm11.598-8.492h.973v5.572h1.453v.88h-1.453v2.04h-1.026v-2.04h-4.333v-.8l4.386-5.652Zm-.013 1.64-3.133 4.012h3.133v-4.012Zm6.966 7.012c-.467 0-.873-.107-1.22-.32a2.094 2.094 0 0 1-.793-.933c-.187-.414-.28-.916-.28-1.507h.44c0 .396.082.729.247 1 .164.271.377.478.639.62.267.138.549.206.847.206.32 0 .626-.091.92-.273.293-.186.533-.46.719-.82.187-.36.28-.804.28-1.333 0-.506-.086-.939-.26-1.299a1.95 1.95 0 0 0-.686-.827 1.704 1.704 0 0 0-.96-.286 1.74 1.74 0 0 0-.853.22 1.67 1.67 0 0 0-.646.646c-.165.28-.247.627-.247 1.04h-.44c0-.618.102-1.135.307-1.553.204-.422.482-.74.833-.953a2.23 2.23 0 0 1 1.18-.32c.497 0 .962.133 1.393.4.431.266.779.649 1.046 1.146.267.498.4 1.093.4 1.786 0 .702-.136 1.304-.407 1.807-.266.502-.617.886-1.053 1.153a2.65 2.65 0 0 1-1.406.4Zm-2.893 2.972v-9.504h.867l.173 1.493v8.011h-1.04Zm6.798-3.132 2.413-3.186-2.413-3.199h1.266l1.827 2.412 1.759-2.412h1.267l-2.427 3.199 2.413 3.186h-1.266l-1.826-2.426-1.747 2.426h-1.266Zm-86.516 7.508h.973v5.572h1.453v.88h-1.453v2.04h-1.026v-2.04h-4.333v-.8l4.386-5.652Zm-.013 1.64-3.133 4.012h3.133v-4.012Zm3.58 6.852v-1.24c0-.484.078-.889.233-1.213.16-.325.382-.593.667-.807a4.527 4.527 0 0 1 1.019-.553l1.653-.653c.427-.173.747-.395.96-.666.213-.272.32-.609.32-1.014 0-.426-.149-.775-.447-1.046-.293-.271-.704-.407-1.233-.407-.524 0-.955.114-1.293.34-.333.223-.524.558-.573 1.007h-1.159c.031-.485.173-.896.426-1.233a2.387 2.387 0 0 1 1.046-.767c.44-.177.954-.266 1.54-.266.538 0 1.02.104 1.446.313.427.209.762.498 1.007.866.249.365.373.785.373 1.26 0 .431-.08.807-.24 1.126-.16.32-.389.596-.686.827a4.285 4.285 0 0 1-1.047.593l-1.693.68c-.426.164-.746.362-.959.593-.214.231-.32.531-.32.9v.4h4.865v.96h-5.905Zm10.825.16c-.417 0-.822-.058-1.213-.174a3.544 3.544 0 0 1-1.046-.52 2.53 2.53 0 0 1-.727-.853 2.487 2.487 0 0 1-.266-1.173h1.066c.009.382.111.704.307.967a1.8 1.8 0 0 0 .779.593c.329.133.696.2 1.1.2.622 0 1.104-.151 1.447-.453a1.45 1.45 0 0 0 .513-1.133c0-.289-.071-.545-.214-.767-.142-.222-.368-.395-.679-.52-.307-.129-.711-.193-1.213-.193h-.947v-.827h.64c.649 0 1.16-.128 1.533-.386s.56-.613.56-1.067a1.32 1.32 0 0 0-.453-1.013c-.303-.275-.734-.413-1.293-.413-.431 0-.816.089-1.153.267-.338.173-.567.493-.687.959h-1.066c.071-.519.24-.939.506-1.259.267-.32.604-.551 1.013-.693.409-.147.862-.22 1.36-.22.555 0 1.051.097 1.486.293a2.5 2.5 0 0 1 1.027.806c.253.343.38.736.38 1.18 0 .44-.127.818-.38 1.133-.249.311-.611.551-1.087.72.529.151.96.4 1.293.746.338.347.507.791.507 1.333 0 .48-.127.907-.38 1.28-.249.369-.604.66-1.067.873-.462.209-1.01.314-1.646.314Zm4.317-.78c0-.209.073-.389.22-.54a.738.738 0 0 1 .553-.227c.222 0 .411.076.566.227a.726.726 0 0 1 .234.54.683.683 0 0 1-.234.526.809.809 0 0 1-.566.214.763.763 0 0 1-.553-.214.715.715 0 0 1-.22-.526Zm5.941.78a4.24 4.24 0 0 1-1.213-.174 3.532 3.532 0 0 1-1.046-.52 2.53 2.53 0 0 1-.727-.853c-.178-.337-.266-.728-.266-1.173h1.066c.009.382.111.704.307.967a1.8 1.8 0 0 0 .779.593c.329.133.696.2 1.1.2.622 0 1.104-.151 1.446-.453.343-.303.514-.68.514-1.133 0-.289-.072-.545-.214-.767-.142-.222-.369-.395-.68-.52-.306-.129-.71-.193-1.213-.193h-.946v-.827h.64c.649 0 1.16-.128 1.533-.386s.56-.613.56-1.067c0-.399-.151-.737-.454-1.013-.302-.275-.733-.413-1.293-.413-.431 0-.815.089-1.153.267-.337.173-.566.493-.686.959h-1.067c.072-.519.24-.939.507-1.259.267-.32.604-.551 1.013-.693.409-.147.862-.22 1.36-.22.555 0 1.051.097 1.486.293a2.49 2.49 0 0 1 1.026.806c.254.343.38.736.38 1.18 0 .44-.126.818-.38 1.133-.248.311-.61.551-1.086.72.529.151.96.4 1.293.746.338.347.507.791.507 1.333 0 .48-.127.907-.38 1.28-.249.369-.605.66-1.067.873-.462.209-1.011.314-1.646.314Zm14.221-.16v-3.746c0-.609-.147-1.071-.44-1.386-.289-.32-.68-.48-1.173-.48-.578 0-1.02.224-1.326.673-.307.444-.46 1.06-.46 1.846h-.48c0-.573.055-1.075.166-1.506.116-.431.283-.789.5-1.073.218-.289.482-.505.793-.647a2.527 2.527 0 0 1 1.06-.213c.502 0 .931.113 1.286.34.36.222.636.542.827.96.191.417.287.913.287 1.486v3.746h-1.04Zm-8.958 0v-6.372h.893l.12 1.28c.2-.463.48-.818.84-1.067.364-.249.8-.373 1.306-.373.502 0 .931.113 1.287.34.359.222.635.542.826.96.191.417.287.913.287 1.486v3.746h-1.027v-3.746c0-.609-.146-1.071-.44-1.386-.288-.32-.684-.48-1.186-.48-.382 0-.713.104-.993.313-.28.209-.496.509-.647.9-.151.386-.226.848-.226 1.386v3.013h-1.04Zm21.429 0v-3.746c0-.609-.147-1.071-.44-1.386-.289-.32-.68-.48-1.173-.48-.578 0-1.02.224-1.327.673-.306.444-.46 1.06-.46 1.846h-.479c0-.573.055-1.075.166-1.506.116-.431.282-.789.5-1.073.218-.289.482-.505.793-.647a2.524 2.524 0 0 1 1.06-.213c.502 0 .931.113 1.286.34.36.222.636.542.827.96.191.417.286.913.286 1.486v3.746h-1.039Zm-8.958 0v-6.372h.893l.12 1.28c.2-.463.48-.818.84-1.067.364-.249.8-.373 1.306-.373.502 0 .931.113 1.286.34.36.222.636.542.827.96.191.417.286.913.286 1.486v3.746h-1.026v-3.746c0-.609-.147-1.071-.44-1.386-.289-.32-.684-.48-1.186-.48-.382 0-.713.104-.993.313-.28.209-.496.509-.647.9-.151.386-.226.848-.226 1.386v3.013h-1.04Zm14.634 0 2.413-3.186-2.413-3.199h1.267l1.826 2.412 1.759-2.412h1.267l-2.426 3.199 2.412 3.186h-1.266l-1.826-2.426-1.746 2.426h-1.267Zm10.491 0v-1.24c0-.484.078-.889.234-1.213.159-.325.382-.593.666-.807a4.557 4.557 0 0 1 1.02-.553l1.653-.653c.426-.173.746-.395.959-.666.214-.272.32-.609.32-1.014 0-.426-.148-.775-.446-1.046-.293-.271-.704-.407-1.233-.407-.525 0-.956.114-1.293.34-.333.223-.525.558-.573 1.007h-1.16c.031-.485.173-.896.426-1.233a2.384 2.384 0 0 1 1.047-.767c.44-.177.953-.266 1.539-.266.538 0 1.02.104 1.447.313.426.209.762.498 1.006.866.249.365.373.785.373 1.26 0 .431-.08.807-.24 1.126a2.38 2.38 0 0 1-.686.827 4.278 4.278 0 0 1-1.046.593l-1.693.68c-.427.164-.747.362-.96.593-.213.231-.32.531-.32.9v.4h4.865v.96h-5.905Zm7.653 0 4.012-7.385h-4.479v-.987h5.706v.96l-3.853 7.412h-1.386Zm9.434.16c-.658 0-1.233-.16-1.726-.48-.489-.32-.871-.802-1.147-1.447-.271-.644-.406-1.45-.406-2.419 0-.969.135-1.773.406-2.413.276-.644.658-1.124 1.147-1.439.493-.32 1.068-.48 1.726-.48.653 0 1.226.16 1.72.48.493.315.875.795 1.146 1.439.275.64.413 1.444.413 2.413 0 .969-.138 1.775-.413 2.419-.271.645-.653 1.127-1.146 1.447-.494.32-1.067.48-1.72.48Zm0-.96c.72 0 1.266-.293 1.64-.88.373-.591.559-1.426.559-2.506 0-1.08-.186-1.913-.559-2.499-.374-.591-.92-.887-1.64-.887-.711 0-1.255.296-1.633.887-.378.586-.566 1.419-.566 2.499s.188 1.915.566 2.506c.378.587.922.88 1.633.88Zm4.356.18c0-.209.073-.389.22-.54a.738.738 0 0 1 .553-.227c.222 0 .411.076.566.227a.726.726 0 0 1 .234.54.683.683 0 0 1-.234.526.809.809 0 0 1-.566.214.763.763 0 0 1-.553-.214.715.715 0 0 1-.22-.526Zm5.768.78a3.125 3.125 0 0 1-1.473-.34 2.628 2.628 0 0 1-1.013-.933 2.565 2.565 0 0 1-.367-1.367h1.08c.013.511.173.92.48 1.227.311.302.733.453 1.266.453.524 0 .949-.151 1.273-.453.329-.303.569-.729.72-1.28.155-.556.233-1.209.233-1.96a6.115 6.115 0 0 0-.067-.986c-.057.48-.195.88-.413 1.2a2.07 2.07 0 0 1-.84.713 2.713 2.713 0 0 1-1.146.233c-.498 0-.946-.111-1.346-.333a2.598 2.598 0 0 1-.947-.927 2.63 2.63 0 0 1-.346-1.353c0-.519.117-.973.353-1.359a2.37 2.37 0 0 1 1-.893c.426-.214.922-.32 1.486-.32a2.997 2.997 0 0 1 2.386 1.139c.298.365.529.802.693 1.313.169.511.253 1.085.253 1.72 0 .92-.117 1.717-.353 2.393-.231.675-.589 1.197-1.073 1.566-.48.364-1.093.547-1.839.547Zm-.067-4.413c.329 0 .626-.073.893-.22.267-.146.478-.344.633-.593a1.55 1.55 0 0 0 .234-.84c0-.515-.172-.922-.514-1.219-.337-.298-.753-.447-1.246-.447-.507 0-.926.149-1.26.447-.333.297-.5.704-.5 1.219 0 .511.167.916.5 1.213.334.294.753.44 1.26.44Zm14.317 4.253v-3.746c0-.609-.146-1.071-.439-1.386-.289-.32-.68-.48-1.174-.48-.577 0-1.019.224-1.326.673-.306.444-.46 1.06-.46 1.846h-.48c0-.573.056-1.075.167-1.506.116-.431.282-.789.5-1.073.218-.289.482-.505.793-.647a2.524 2.524 0 0 1 1.06-.213c.502 0 .931.113 1.286.34.36.222.636.542.827.96.191.417.286.913.286 1.486v3.746h-1.04Zm-8.957 0v-6.372h.893l.12 1.28c.2-.463.48-.818.84-1.067.364-.249.799-.373 1.306-.373.502 0 .931.113 1.286.34.36.222.636.542.827.96.191.417.286.913.286 1.486v3.746h-1.026v-3.746c0-.609-.147-1.071-.44-1.386-.289-.32-.684-.48-1.186-.48a1.61 1.61 0 0 0-.993.313c-.28.209-.496.509-.647.9-.151.386-.227.848-.227 1.386v3.013h-1.039Zm21.428 0v-3.746c0-.609-.146-1.071-.44-1.386-.288-.32-.679-.48-1.173-.48-.577 0-1.019.224-1.326.673-.307.444-.46 1.06-.46 1.846h-.48c0-.573.056-1.075.167-1.506.115-.431.282-.789.5-1.073.217-.289.482-.505.793-.647a2.524 2.524 0 0 1 1.06-.213c.502 0 .93.113 1.286.34.36.222.635.542.826.96.191.417.287.913.287 1.486v3.746h-1.04Zm-8.957 0v-6.372h.893l.12 1.28c.2-.463.479-.818.839-1.067.365-.249.8-.373 1.307-.373.502 0 .931.113 1.286.34.36.222.635.542.827.96.191.417.286.913.286 1.486v3.746h-1.026v-3.746c0-.609-.147-1.071-.44-1.386-.289-.32-.684-.48-1.187-.48-.382 0-.713.104-.993.313-.28.209-.495.509-.646.9-.151.386-.227.848-.227 1.386v3.013h-1.039Zm380.023-15.84c-.467 0-.873-.107-1.22-.32a2.094 2.094 0 0 1-.793-.933c-.187-.414-.28-.916-.28-1.507h.44c0 .396.082.729.246 1 .165.271.378.478.64.62.267.138.549.206.847.206.32 0 .626-.091.92-.273.293-.186.533-.46.719-.82.187-.36.28-.804.28-1.333 0-.506-.086-.939-.26-1.299a1.957 1.957 0 0 0-.686-.827 1.704 1.704 0 0 0-.96-.286 1.74 1.74 0 0 0-.853.22 1.673 1.673 0 0 0-.647.646c-.164.28-.246.627-.246 1.04h-.44c0-.618.102-1.135.307-1.553.204-.422.482-.74.833-.953.351-.213.744-.32 1.179-.32.498 0 .962.133 1.393.4.431.266.78.649 1.047 1.146.266.498.4 1.093.4 1.786 0 .702-.136 1.304-.407 1.807a2.92 2.92 0 0 1-1.053 1.153 2.65 2.65 0 0 1-1.406.4Zm-2.893 2.972v-9.504h.867l.173 1.493v8.011h-1.04Zm7.798-3.132v-6.385h1.039v6.385h-1.039Zm.719-2.88c0-.808.078-1.479.234-2.013.155-.537.382-.937.68-1.199a1.6 1.6 0 0 1 1.099-.4c.142 0 .271.011.387.033.12.018.24.047.36.087l-.067 1.026a3.259 3.259 0 0 0-.406-.1 1.926 1.926 0 0 0-.394-.046c-.377 0-.682.108-.913.326-.231.213-.4.516-.506.907a5.456 5.456 0 0 0-.154 1.379h-.32Zm4.684-4.998c-.214 0-.382-.06-.507-.18a.661.661 0 0 1-.186-.487.61.61 0 0 1 .186-.467c.125-.115.293-.173.507-.173.213 0 .382.058.506.173a.607.607 0 0 1 .187.467c0 .2-.062.362-.187.487-.124.12-.293.18-.506.18Zm-.52 7.878v-6.385h1.04v6.385h-1.04Zm12.861 0v-3.746c0-.609-.146-1.071-.44-1.386-.288-.32-.679-.48-1.173-.48-.577 0-1.019.224-1.326.673-.307.444-.46 1.06-.46 1.846h-.48c0-.573.056-1.075.167-1.506.115-.431.282-.789.5-1.073.217-.289.482-.505.793-.647a2.524 2.524 0 0 1 1.06-.213c.502 0 .93.113 1.286.34.36.222.635.542.826.96.191.417.287.913.287 1.486v3.746h-1.04Zm-8.957 0v-6.372h.893l.12 1.28c.2-.463.479-.818.839-1.067.365-.249.8-.373 1.307-.373.502 0 .931.113 1.286.34.36.222.635.542.827.96.191.417.286.913.286 1.486v3.746h-1.026v-3.746c0-.609-.147-1.071-.44-1.386-.289-.32-.684-.48-1.187-.48-.382 0-.713.104-.993.313-.28.209-.495.509-.646.9-.151.386-.227.848-.227 1.386v3.013h-1.039Zm16.416 0-.133-1.4v-2.733c0-.573-.122-.984-.367-1.233-.244-.253-.611-.38-1.1-.38-.275 0-.526.04-.753.12-.222.08-.4.205-.533.374-.129.164-.193.377-.193.639h-1.16c0-.462.113-.833.34-1.113.227-.284.538-.488.933-.613.4-.129.855-.193 1.366-.193.489 0 .922.082 1.3.246.378.165.673.427.887.787.213.355.319.82.319 1.393v4.106h-.906Zm-2.173.16c-.524 0-.957-.094-1.299-.28a1.894 1.894 0 0 1-.767-.727 1.876 1.876 0 0 1-.253-.94c0-.431.106-.782.32-1.053.217-.271.513-.468.886-.593a3.84 3.84 0 0 1 1.26-.193c.333 0 .666.033 1 .1.337.066.666.158.986.273v.653a4.821 4.821 0 0 0-.906-.253 5.065 5.065 0 0 0-.92-.093c-.427 0-.787.089-1.08.266-.293.174-.44.471-.44.893 0 .311.111.578.333.8.227.222.587.333 1.08.333.347 0 .658-.08.933-.24.28-.164.5-.368.66-.613a1.3 1.3 0 0 0 .247-.733h.253c0 .427-.093.822-.28 1.187a2.207 2.207 0 0 1-.786.879c-.343.222-.751.334-1.227.334Zm5.569-.16v-6.385h1.04v6.385h-1.04Zm.72-2.88c0-.808.078-1.479.233-2.013.156-.537.382-.937.68-1.199.302-.267.669-.4 1.1-.4.142 0 .271.011.386.033.12.018.24.047.36.087l-.066 1.026a3.276 3.276 0 0 0-.407-.1 1.917 1.917 0 0 0-.393-.046c-.378 0-.682.108-.913.326-.231.213-.4.516-.507.907a5.506 5.506 0 0 0-.153 1.379h-.32Zm3.044-3.492h1.159l2.08 5.465h-.24l1.613-5.465h1.066l-2.399 7.651c-.2.64-.467 1.133-.8 1.48-.333.346-.76.52-1.28.52-.28 0-.546-.04-.799-.12a4.18 4.18 0 0 1-.774-.347v-.96c.236.187.463.32.68.4.222.08.454.12.693.12a.93.93 0 0 0 .667-.253c.182-.169.333-.387.453-.653.12-.262.222-.538.307-.827l.186-.639-2.612-6.372Zm10.424 6.372v-9.091h1.04v9.091h-1.04Zm7.68 0-.13-1.4v-2.733c0-.573-.12-.984-.37-1.233-.24-.253-.61-.38-1.1-.38-.27 0-.52.04-.75.12-.22.08-.4.205-.53.374a1 1 0 0 0-.2.639h-1.16c0-.462.12-.833.34-1.113.23-.284.54-.488.94-.613.4-.129.85-.193 1.36-.193.49 0 .93.082 1.3.246.38.165.68.427.89.787.21.355.32.82.32 1.393v4.106h-.91Zm-2.17.16c-.52 0-.96-.094-1.3-.28-.34-.187-.6-.429-.77-.727a1.97 1.97 0 0 1-.25-.94c0-.431.11-.782.32-1.053.22-.271.51-.468.89-.593.37-.129.79-.193 1.26-.193.33 0 .66.033 1 .1.33.066.66.158.98.273v.653a4.755 4.755 0 0 0-.9-.253 5.117 5.117 0 0 0-.92-.093c-.43 0-.79.089-1.08.266-.3.174-.44.471-.44.893 0 .311.11.578.33.8.23.222.59.333 1.08.333.35 0 .66-.08.93-.24.28-.164.5-.368.66-.613.17-.244.25-.488.25-.733h.25c0 .427-.09.822-.28 1.187-.18.364-.44.657-.78.879-.35.222-.75.334-1.23.334Zm4.52-6.532h1.16l2.08 5.465h-.24l1.61-5.465h1.06l-2.39 7.651c-.2.64-.47 1.133-.8 1.48-.34.346-.76.52-1.28.52-.28 0-.55-.04-.8-.12-.25-.08-.51-.196-.78-.347v-.96c.24.187.47.32.68.4.23.08.46.12.7.12.26 0 .48-.084.66-.253.18-.169.34-.387.46-.653.12-.262.22-.538.3-.827l.19-.639-2.61-6.372Zm9.56 6.532c-.57 0-1.08-.127-1.53-.38-.44-.254-.79-.629-1.05-1.127-.26-.497-.39-1.111-.39-1.839 0-.733.13-1.347.39-1.84.26-.497.61-.873 1.05-1.126.45-.253.96-.38 1.53-.38.57 0 1.08.127 1.52.38.45.253.8.629 1.06 1.126.26.493.38 1.107.38 1.84 0 .728-.12 1.342-.38 1.839-.26.498-.61.873-1.06 1.127-.44.253-.95.38-1.52.38Zm-.02-.907c.41 0 .76-.098 1.05-.293.29-.2.51-.482.65-.847.16-.364.23-.797.23-1.299 0-.76-.16-1.358-.47-1.793-.32-.44-.79-.66-1.41-.66-.42 0-.77.1-1.06.3-.28.195-.5.478-.65.846-.15.365-.22.8-.22 1.307 0 .751.16 1.346.47 1.786.32.435.79.653 1.41.653Zm9.34-5.638h1.04v6.385h-1.04v-6.385Zm-4.52 0h1.04v3.972c0 .533.13.937.39 1.213.26.275.63.413 1.12.413.4 0 .74-.107 1.04-.32.3-.213.52-.506.68-.88.17-.377.25-.808.25-1.293h.39c0 .716-.11 1.327-.32 1.833-.2.507-.49.896-.87 1.167-.37.266-.81.4-1.32.4-.48 0-.9-.089-1.26-.267a1.914 1.914 0 0 1-.84-.807c-.2-.364-.3-.824-.3-1.379v-4.052Zm10.22 6.545c-.35 0-.66-.067-.93-.2a1.52 1.52 0 0 1-.66-.6c-.16-.267-.24-.6-.24-1v-6.505h1.03v6.478c0 .658.31.987.92.987.18 0 .36-.02.53-.06.17-.04.36-.1.58-.18l.14.746c-.22.098-.45.178-.68.24-.22.062-.45.094-.69.094Zm-2.85-5.812v-.72h4.06v.72h-4.06Z"/><defs><clipPath id="a"><path fill="#fff" d="M0 27.512h437.249v181.766H0z"/></clipPath><clipPath id="b"><path fill="#fff" d="M457.249 27.512h582v372.256h-582z"/></clipPath></defs></svg>