<svg xmlns="http://www.w3.org/2000/svg" width="561" height="206" fill="none"><path fill="#000" d="M193.405 55.843C166.147-5.297 84.375-8.302 46.215 9.44 13.505 28.546-8.303 55.843 3.963 126.807c12.266 70.965 79.048 80.517 129.475 77.788 50.427-2.73 94.039-72.329 59.967-148.752Z"/><path fill="#FF7B00" d="m98.033 204.158-5.05-92h16.941l6.687 92.988c-7.253-.134-11.322-.369-18.578-.988Zm25.71-122.901-5.967-2.572s4.185-17.407 10.028-27.032c5.649-9.305 18.577-20.778 18.577-20.778l5.591 3.656c-18.881 12.597-24.876 24.308-28.229 46.726Zm33.939-7.071-2.31-6.074s15.408-9.119 26.384-11.629c10.611-2.426 27.848-1.139 27.848-1.139l1.27 6.559c-22.189-4.777-34.768-.924-53.192 12.283Z"/><path fill="#000" d="M195.167 59.945c-.714-1.98-1.123-2.926-2.067-4.808 0 0 2.734-.421 8.7-.3 5.967.121 7.806.507 7.806.507l1.269 6.558c-8.25-1.68-11.193-1.957-15.708-1.957Z"/><path fill="#FF7B00" d="m147.328 113.624 2.138-6.136s17.663 2.926 27.682 8.064c9.686 4.966 22.057 17.037 22.057 17.037l-3.245 5.839c-13.919-17.928-26.03-23.068-48.632-24.804Zm-46.935-14.64 3.604 5.406s-12.989 12.322-23.131 17.213c-9.804 4.729-26.895 7.312-26.895 7.312l-2.699-6.111c22.696-.284 34.101-6.842 49.121-23.82Z"/><path fill="#FF7B00" d="m119.984 102.88-1.441 6.336s-17.878-.942-28.408-4.933C79.957 100.426 66.32 89.806 66.32 89.806l2.576-6.164C84.723 99.91 97.33 103.67 119.984 102.88Z"/><path fill="#FF7B00" d="m95.44 87.316 6.339 1.425s-.898 17.881-4.863 28.42c-3.832 10.187-14.419 23.852-14.419 23.852l-6.17-2.561c16.23-15.867 19.958-28.484 19.113-51.136Z"/><path fill="#FF7B00" d="m98.604 100.876.003 6.498s-17.641 3.055-28.794 1.504c-10.78-1.499-26.438-8.823-26.438-8.823l1.142-6.582c19.047 12.344 32.175 13.208 54.087 7.403Z"/><path fill="#FF7B00" d="m109.644 104.716-5.467 3.513s-12.1-13.194-16.821-23.417c-4.563-9.882-6.859-27.014-6.859-27.014l6.156-2.596c-.097 22.697 6.268 34.211 22.991 49.514Z"/><path fill="#FF7B00" d="M123.787 92.529c-6.116-13.719-24.465-14.393-33.028-10.412-7.34 4.287-12.233 10.412-9.48 26.336 2.752 15.923 17.737 18.067 29.052 17.455 11.316-.613 21.102-16.23 13.456-33.379Zm37.905-61.623c.954-5.923-5.031-10.159-8.764-10.7-3.39-.171-6.365.806-8.925 6.73-2.561 5.925 1.979 9.916 5.895 12.185 3.916 2.269 10.601-.812 11.794-8.215Z"/><path fill="#000" d="M220.246 66.355c4.914-3.44 3.786-10.685 1.575-13.74-2.238-2.553-5.011-4.007-11.046-1.719-6.034 2.288-5.737 8.326-4.638 12.717 1.099 4.39 7.965 7.041 14.109 2.742Z"/><path fill="#FF7B00" d="M200.276 147.866c5.975.527 9.771-5.748 10.043-9.509-.072-3.394-1.261-6.291-7.353-8.42-6.093-2.129-9.749 2.686-11.731 6.755-1.982 4.068 1.571 10.515 9.041 11.174Z"/><path fill="#000" d="M199.28 147.745c7.354.919 10.765-5.626 11.037-9.387 0-2.955-.862-5.548-6.514-8.109 0 0-.847 4.149-2.14 9.036-1.157 4.375-2.383 8.46-2.383 8.46Z"/><path fill="#FF7B00" d="M41.144 120.551c-4.026 4.448-1.312 11.26 1.524 13.746 2.75 1.99 5.778 2.79 11.151-.785 5.374-3.574 3.74-9.394 1.69-13.43-2.05-4.035-9.334-5.09-14.365.469Zm22.414-45.808c-5.997.141-9.07 6.799-8.922 10.567.45 3.365 1.953 6.111 8.244 7.549 6.292 1.438 9.39-3.754 10.906-8.018 1.517-4.264-2.731-10.275-10.228-10.098Zm3.884 69.067c.156 5.997 6.82 9.054 10.589 8.897 3.364-.458 6.106-1.968 7.529-8.263 1.422-6.295-3.777-9.38-8.045-10.886-4.268-1.507-10.268 2.756-10.073 10.252Zm-30.11-57.827c-5.816 1.47-7.333 8.644-6.351 12.285 1.186 3.181 3.262 5.525 9.716 5.529 6.454.003 8.32-5.747 8.851-10.242.532-4.494-4.946-9.41-12.216-7.572Zm51.747-40.871c-4.38-4.1-11.237-1.5-13.77 1.293-2.036 2.716-2.887 5.73.597 11.163 3.483 5.433 9.33 3.896 13.4 1.915 4.069-1.98 5.247-9.246-.227-14.37Z"/><path fill="#000" d="M277.445 42.354c12.24 0 20.72 2.04 25.44 6.12 4.72 4 7.08 10.36 7.08 19.08 0 8.64-1.72 15.16-5.16 19.56 5.04 4.16 7.56 11.16 7.56 21 0 18.88-10.84 28.32-32.52 28.32-2.56 0-10.92-.64-25.08-1.92v-90.24c8.32-1.28 15.88-1.92 22.68-1.92Zm14.4 76.44c1.6-1.76 2.4-5.36 2.4-10.8s-.6-8.72-1.8-9.84c-1.2-1.12-4.32-1.68-9.36-1.68-4.96 0-8.12.08-9.48.24-1.28.16-1.92.64-1.92 1.44v21.48c0 .88.52 1.4 1.56 1.56 1.12.16 4.12.24 9 .24s8.08-.88 9.6-2.64Zm-18-37.2c6.96 0 11.68-.84 14.16-2.52 2.56-1.68 3.84-5.4 3.84-11.16 0-3.28-.72-5.96-2.16-8.04-1.36-2.16-2.84-3.24-4.44-3.24-6.8 0-10.92.44-12.36 1.32-.48.32-.88.8-1.2 1.44v20.28c0 .96.16 1.52.48 1.68.56.16 1.12.24 1.68.24Zm48.069 50.04v-87.36c8.16-1.28 15.24-1.92 21.24-1.92 11.12 0 18.8 2.08 23.04 6.24 4.24 4.16 6.36 11.04 6.36 20.64 0 13.44-3.76 22.4-11.28 26.88l15.12 34.2c.88 2 1.32 3.32 1.32 3.96 0 .56-.08.92-.24 1.08-.32.72-1.68 1.08-4.08 1.08-7.76 0-12.32-1.52-13.68-4.56l-13.68-31.68c-2 .16-5 .24-9 .24v30.96c0 2.24-.24 3.64-.72 4.2-.4.56-1.76.84-4.08.84-6.88 0-10.32-1.6-10.32-4.8Zm17.04-47.64c6.4 0 10.72-.88 12.96-2.64 2.24-1.84 3.36-5.92 3.36-12.24 0-3.84-.64-6.88-1.92-9.12-1.2-2.24-2.56-3.36-4.08-3.36-5.68 0-9.16.12-10.44.36-1.2.24-1.8 1.04-1.8 2.4v22.8c0 1.04.2 1.6.6 1.68.4.08.84.12 1.32.12Zm86.787-4.08c3.2 0 4.8 1.44 4.8 4.32 0 3.92-.24 6.6-.72 8.04-.48 1.44-1.72 2.16-3.72 2.16h-23.52v25.56h27.72c1.92.08 3.24.48 3.96 1.2.72.64 1.08 1.64 1.08 3 0 3.92-.36 6.64-1.08 8.16-.72 1.44-2.16 2.16-4.32 2.16h-42.24l-1.92-1.92v-88.32h42.6c3.44.08 5.16 1.36 5.16 3.84-.08 2.16-.2 3.88-.36 5.16-.16 1.2-.68 2.4-1.56 3.6-.8 1.2-2 1.8-3.6 1.8h-26.76l1.32 21.24h23.16Zm58.008 0c3.2 0 4.8 1.44 4.8 4.32 0 3.92-.24 6.6-.72 8.04-.48 1.44-1.72 2.16-3.72 2.16h-23.52v25.56h27.72c1.92.08 3.24.48 3.96 1.2.72.64 1.08 1.64 1.08 3 0 3.92-.36 6.64-1.08 8.16-.72 1.44-2.16 2.16-4.32 2.16h-42.24l-1.92-1.92v-88.32h42.6c3.44.08 5.16 1.36 5.16 3.84-.08 2.16-.2 3.88-.36 5.16-.16 1.2-.68 2.4-1.56 3.6-.8 1.2-2 1.8-3.6 1.8h-26.76l1.32 21.24h23.16Zm66.647 54.6h-46.8l-1.92-1.92v-12.72l34.08-61.2h-30.72c-2.08-.08-3.44-.56-4.08-1.44-.64-1.12-.96-2.96-.96-5.52 0-2.64.28-4.52.84-5.64.56-1.2 1.76-1.8 3.6-1.8h48.24l1.92 1.92v10.56l-33.24 63.24h28.44c2.64.08 4.4.44 5.28 1.08.96.56 1.44 1.48 1.44 2.76-.16 7.12-2.2 10.68-6.12 10.68Zm-280.271 20.864-4.272 17.136h-2.184l-3.048-11.232c-.096-.336-.192-.68-.288-1.032-.08-.352-.16-.688-.24-1.008-.08-.32-.144-.592-.192-.816-.048-.24-.08-.416-.096-.528-.016.112-.048.288-.096.528-.048.224-.104.496-.168.816-.064.32-.144.664-.24 1.032-.08.352-.168.712-.264 1.08l-2.976 11.16h-2.208l-4.248-17.136h2.232l2.472 10.464.24 1.104c.08.352.144.704.192 1.056.064.336.12.664.168.984.064.32.112.632.144.936.048-.32.096-.648.144-.984.064-.336.128-.68.192-1.032l.24-1.104c.096-.368.192-.728.288-1.08l2.784-10.344h2.208l2.904 10.416c.096.368.184.744.264 1.128.096.368.176.728.24 1.08.08.352.144.696.192 1.032.064.32.12.616.168.888.048-.4.112-.816.192-1.248.08-.448.168-.912.264-1.392.112-.48.224-.968.336-1.464l2.448-10.44h2.208Zm4.248 4.248c0 .304-.016.616-.048.936-.016.32-.04.608-.072.864h.144c.256-.448.576-.816.96-1.104.4-.288.832-.504 1.296-.648.48-.16.976-.24 1.488-.24.976 0 1.792.168 2.448.504.656.32 1.152.824 1.488 1.512.336.688.504 1.584.504 2.688v8.376h-2.088v-8.232c0-1.04-.216-1.816-.648-2.328-.432-.512-1.096-.768-1.992-.768-.88 0-1.576.184-2.088.552-.512.352-.872.88-1.08 1.584-.208.688-.312 1.536-.312 2.544v6.648h-2.088v-18.24h2.088v5.352Zm16.631-.216c1.04 0 1.936.24 2.688.72.752.48 1.328 1.16 1.728 2.04.416.864.624 1.88.624 3.048v1.272h-8.256c.032 1.456.376 2.568 1.032 3.336.656.752 1.576 1.128 2.76 1.128.768 0 1.448-.072 2.04-.216.608-.16 1.232-.384 1.872-.672v1.848a8.68 8.68 0 0 1-1.848.624c-.592.144-1.312.216-2.16.216-1.152 0-2.168-.248-3.048-.744-.88-.496-1.568-1.232-2.064-2.208-.496-.992-.744-2.2-.744-3.624 0-1.408.224-2.616.672-3.624.448-1.008 1.072-1.784 1.872-2.328.816-.544 1.76-.816 2.832-.816Zm0 1.728c-.928 0-1.664.328-2.208.984-.544.64-.864 1.536-.96 2.688h6.048c0-.736-.104-1.376-.312-1.92-.208-.544-.528-.968-.96-1.272-.416-.32-.952-.48-1.608-.48Zm13.806-1.728c.224 0 .464.016.72.048.256.016.48.048.672.096l-.24 1.944a5.905 5.905 0 0 0-.648-.12 4.583 4.583 0 0 0-.648-.048c-.464 0-.904.104-1.32.312a3.692 3.692 0 0 0-1.128.888c-.32.368-.576.816-.768 1.344a5.17 5.17 0 0 0-.288 1.776v6.864h-2.088V159.65h1.704l.24 2.352h.096c.256-.48.56-.912.912-1.296.368-.4.784-.712 1.248-.936.464-.24.976-.36 1.536-.36Zm7.897 0c1.04 0 1.936.24 2.688.72.752.48 1.328 1.16 1.728 2.04.416.864.624 1.88.624 3.048v1.272h-8.256c.032 1.456.376 2.568 1.032 3.336.656.752 1.576 1.128 2.76 1.128.768 0 1.448-.072 2.04-.216.608-.16 1.232-.384 1.872-.672v1.848a8.68 8.68 0 0 1-1.848.624c-.592.144-1.312.216-2.16.216-1.152 0-2.168-.248-3.048-.744-.88-.496-1.568-1.232-2.064-2.208-.496-.992-.744-2.2-.744-3.624 0-1.408.224-2.616.672-3.624.448-1.008 1.072-1.784 1.872-2.328.816-.544 1.76-.816 2.832-.816Zm0 1.728c-.928 0-1.664.328-2.208.984-.544.64-.864 1.536-.96 2.688h6.048c0-.736-.104-1.376-.312-1.92-.208-.544-.528-.968-.96-1.272-.416-.32-.952-.48-1.608-.48Zm21.105-4.104c-.848 0-1.608.16-2.28.48a4.595 4.595 0 0 0-1.728 1.368c-.464.592-.824 1.32-1.08 2.184-.24.848-.36 1.808-.36 2.88 0 1.408.2 2.632.6 3.672.4 1.04 1 1.84 1.8 2.4.816.56 1.824.84 3.024.84.704 0 1.368-.064 1.992-.192a19.34 19.34 0 0 0 1.896-.48v1.872a9.587 9.587 0 0 1-1.872.528c-.64.112-1.408.168-2.304.168-1.648 0-3.024-.36-4.128-1.08-1.088-.72-1.904-1.744-2.448-3.072s-.816-2.888-.816-4.68c0-1.296.168-2.48.504-3.552.336-1.072.832-2 1.488-2.784a6.464 6.464 0 0 1 2.424-1.8c.96-.432 2.064-.648 3.312-.648.816 0 1.608.088 2.376.264a8.929 8.929 0 0 1 2.088.744l-.84 1.824a11.892 11.892 0 0 0-1.68-.648 6.502 6.502 0 0 0-1.968-.288Zm17.658 9.024c0 1.072-.136 2.024-.408 2.856-.256.816-.632 1.512-1.128 2.088a4.915 4.915 0 0 1-1.8 1.32c-.704.288-1.488.432-2.352.432-.8 0-1.544-.144-2.232-.432a5.26 5.26 0 0 1-1.776-1.32c-.496-.576-.88-1.272-1.152-2.088-.272-.832-.408-1.784-.408-2.856 0-1.424.224-2.624.672-3.6.464-.992 1.12-1.744 1.968-2.256.848-.528 1.848-.792 3-.792 1.104 0 2.072.264 2.904.792.848.512 1.512 1.264 1.992 2.256.48.976.72 2.176.72 3.6Zm-9.096 0c0 1.008.12 1.888.36 2.64.24.736.616 1.304 1.128 1.704.512.4 1.168.6 1.968.6s1.456-.2 1.968-.6c.512-.4.888-.968 1.128-1.704.256-.752.384-1.632.384-2.64 0-1.024-.128-1.896-.384-2.616-.24-.72-.616-1.272-1.128-1.656-.512-.4-1.176-.6-1.992-.6-1.2 0-2.072.432-2.616 1.296-.544.864-.816 2.056-.816 3.576Zm18.104-6.648c1.44 0 2.528.376 3.264 1.128.752.736 1.128 1.936 1.128 3.6v8.376h-2.088v-8.232c0-1.04-.216-1.816-.648-2.328-.432-.512-1.096-.768-1.992-.768-1.312 0-2.224.4-2.736 1.2-.496.8-.744 1.952-.744 3.456v6.672h-2.088V159.65h1.68l.312 1.752h.12c.256-.448.584-.816.984-1.104.4-.304.84-.528 1.32-.672a5.15 5.15 0 0 1 1.488-.216Zm14.015 0c1.44 0 2.528.376 3.264 1.128.752.736 1.128 1.936 1.128 3.6v8.376h-2.088v-8.232c0-1.04-.216-1.816-.648-2.328-.432-.512-1.096-.768-1.992-.768-1.312 0-2.224.4-2.736 1.2-.496.8-.744 1.952-.744 3.456v6.672h-2.088V159.65h1.68l.312 1.752h.12c.256-.448.584-.816.984-1.104.4-.304.84-.528 1.32-.672a5.15 5.15 0 0 1 1.488-.216Zm12.816 0c1.04 0 1.936.24 2.688.72.752.48 1.328 1.16 1.728 2.04.416.864.624 1.88.624 3.048v1.272h-8.256c.032 1.456.376 2.568 1.032 3.336.656.752 1.576 1.128 2.76 1.128.768 0 1.448-.072 2.04-.216.608-.16 1.232-.384 1.872-.672v1.848a8.68 8.68 0 0 1-1.848.624c-.592.144-1.312.216-2.16.216-1.152 0-2.168-.248-3.048-.744-.88-.496-1.568-1.232-2.064-2.208-.496-.992-.744-2.2-.744-3.624 0-1.408.224-2.616.672-3.624.448-1.008 1.072-1.784 1.872-2.328.816-.544 1.76-.816 2.832-.816Zm0 1.728c-.928 0-1.664.328-2.208.984-.544.64-.864 1.536-.96 2.688h6.048c0-.736-.104-1.376-.312-1.92-.208-.544-.528-.968-.96-1.272-.416-.32-.952-.48-1.608-.48Zm12.941 11.616c-1.088 0-2.048-.232-2.88-.696-.832-.464-1.488-1.184-1.968-2.16-.464-.976-.696-2.224-.696-3.744 0-1.584.248-2.872.744-3.864s1.168-1.72 2.016-2.184c.864-.464 1.84-.696 2.928-.696.624 0 1.224.072 1.8.216.592.128 1.072.288 1.44.48l-.648 1.752c-.368-.144-.8-.28-1.296-.408a5.233 5.233 0 0 0-1.344-.192c-.784 0-1.432.184-1.944.552-.512.368-.896.912-1.152 1.632-.256.72-.384 1.616-.384 2.688 0 1.024.128 1.896.384 2.616.256.72.632 1.264 1.128 1.632.512.368 1.136.552 1.872.552.656 0 1.24-.072 1.752-.216a8.67 8.67 0 0 0 1.416-.528v1.872a5.36 5.36 0 0 1-1.368.504c-.496.128-1.096.192-1.8.192Zm10.179-1.728c.304 0 .616-.024.936-.072a8.31 8.31 0 0 0 .792-.192v1.608c-.224.112-.544.2-.96.264-.4.08-.784.12-1.152.12a4.62 4.62 0 0 1-1.776-.336c-.544-.24-.984-.648-1.32-1.224-.32-.576-.48-1.384-.48-2.424v-7.488h-1.704v-1.008l1.752-.84.792-2.736h1.248v2.952h3.504v1.632h-3.504v7.44c0 .784.176 1.368.528 1.752.352.368.8.552 1.344.552Zm6.233-11.376v12.864h-2.088V159.65h2.088Zm-1.032-4.824c.32 0 .6.112.84.336.24.208.36.544.36 1.008 0 .448-.12.784-.36 1.008-.24.224-.52.336-.84.336-.336 0-.624-.112-.864-.336-.24-.224-.36-.56-.36-1.008 0-.464.12-.8.36-1.008.24-.224.528-.336.864-.336Zm15.411 11.232c0 1.072-.136 2.024-.408 2.856-.256.816-.632 1.512-1.128 2.088a4.915 4.915 0 0 1-1.8 1.32c-.704.288-1.488.432-2.352.432-.8 0-1.544-.144-2.232-.432a5.26 5.26 0 0 1-1.776-1.32c-.496-.576-.88-1.272-1.152-2.088-.272-.832-.408-1.784-.408-2.856 0-1.424.224-2.624.672-3.6.464-.992 1.12-1.744 1.968-2.256.848-.528 1.848-.792 3-.792 1.104 0 2.072.264 2.904.792.848.512 1.512 1.264 1.992 2.256.48.976.72 2.176.72 3.6Zm-9.096 0c0 1.008.12 1.888.36 2.64.24.736.616 1.304 1.128 1.704.512.4 1.168.6 1.968.6s1.456-.2 1.968-.6c.512-.4.888-.968 1.128-1.704.256-.752.384-1.632.384-2.64 0-1.024-.128-1.896-.384-2.616-.24-.72-.616-1.272-1.128-1.656-.512-.4-1.176-.6-1.992-.6-1.2 0-2.072.432-2.616 1.296-.544.864-.816 2.056-.816 3.576Zm18.103-6.648c1.44 0 2.528.376 3.264 1.128.752.736 1.128 1.936 1.128 3.6v8.376h-2.088v-8.232c0-1.04-.216-1.816-.648-2.328-.432-.512-1.096-.768-1.992-.768-1.312 0-2.224.4-2.736 1.2-.496.8-.744 1.952-.744 3.456v6.672h-2.088V159.65h1.68l.312 1.752h.12c.256-.448.584-.816.984-1.104.4-.304.84-.528 1.32-.672a5.15 5.15 0 0 1 1.488-.216Zm16.056 9.552c0 .832-.2 1.528-.6 2.088-.384.56-.936.984-1.656 1.272-.72.288-1.584.432-2.592.432-.848 0-1.584-.072-2.208-.216a6.342 6.342 0 0 1-1.608-.6v-1.92c.496.256 1.088.496 1.776.72a7.179 7.179 0 0 0 2.088.312c.976 0 1.68-.168 2.112-.504.448-.352.672-.816.672-1.392 0-.32-.088-.608-.264-.864-.16-.256-.456-.512-.888-.768-.416-.256-1.024-.544-1.824-.864-.768-.32-1.432-.64-1.992-.96-.544-.32-.968-.704-1.272-1.152-.288-.448-.432-1.024-.432-1.728 0-1.088.416-1.928 1.248-2.52.848-.592 1.952-.888 3.312-.888.736 0 1.424.08 2.064.24a8.76 8.76 0 0 1 1.824.624l-.696 1.68a7.597 7.597 0 0 0-1.056-.408 6.86 6.86 0 0 0-1.128-.288 5.295 5.295 0 0 0-1.128-.12c-.784 0-1.384.144-1.8.432-.416.272-.624.648-.624 1.128 0 .352.096.656.288.912.192.256.504.504.936.744a24.02 24.02 0 0 0 1.824.792c.768.304 1.424.616 1.968.936.544.32.952.712 1.224 1.176.288.448.432 1.016.432 1.704Zm13.687-13.584c1.344 0 2.472.136 3.384.408.912.272 1.6.72 2.064 1.344.464.624.696 1.456.696 2.496 0 .672-.12 1.272-.36 1.8-.224.512-.56.944-1.008 1.296-.448.336-1 .568-1.656.696v.12c.672.112 1.272.32 1.8.624a3.2 3.2 0 0 1 1.272 1.296c.32.56.48 1.288.48 2.184 0 1.04-.232 1.928-.696 2.664-.448.72-1.088 1.272-1.92 1.656-.832.368-1.832.552-3 .552h-5.688v-17.136h4.632Zm.408 7.296c1.344 0 2.264-.232 2.76-.696.512-.48.768-1.184.768-2.112 0-.944-.312-1.616-.936-2.016-.608-.416-1.576-.624-2.904-.624h-2.592v5.448h2.904Zm-2.904 1.8v6.216h3.168c1.392 0 2.36-.296 2.904-.888.56-.592.84-1.368.84-2.328 0-.608-.128-1.136-.384-1.584-.24-.448-.64-.792-1.2-1.032-.56-.256-1.328-.384-2.304-.384h-3.024Zm14.382 8.04h-2.088v-18.24h2.088v18.24Zm14.379-6.456c0 1.072-.136 2.024-.408 2.856-.256.816-.632 1.512-1.128 2.088a4.915 4.915 0 0 1-1.8 1.32c-.704.288-1.488.432-2.352.432-.8 0-1.544-.144-2.232-.432a5.26 5.26 0 0 1-1.776-1.32c-.496-.576-.88-1.272-1.152-2.088-.272-.832-.408-1.784-.408-2.856 0-1.424.224-2.624.672-3.6.464-.992 1.12-1.744 1.968-2.256.848-.528 1.848-.792 3-.792 1.104 0 2.072.264 2.904.792.848.512 1.512 1.264 1.992 2.256.48.976.72 2.176.72 3.6Zm-9.096 0c0 1.008.12 1.888.36 2.64.24.736.616 1.304 1.128 1.704.512.4 1.168.6 1.968.6s1.456-.2 1.968-.6c.512-.4.888-.968 1.128-1.704.256-.752.384-1.632.384-2.64 0-1.024-.128-1.896-.384-2.616-.24-.72-.616-1.272-1.128-1.656-.512-.4-1.176-.6-1.992-.6-1.2 0-2.072.432-2.616 1.296-.544.864-.816 2.056-.816 3.576Zm20.144 2.904c0 .832-.2 1.528-.6 2.088-.384.56-.936.984-1.656 1.272-.72.288-1.584.432-2.592.432-.848 0-1.584-.072-2.208-.216a6.342 6.342 0 0 1-1.608-.6v-1.92c.496.256 1.088.496 1.776.72a7.179 7.179 0 0 0 2.088.312c.976 0 1.68-.168 2.112-.504.448-.352.672-.816.672-1.392 0-.32-.088-.608-.264-.864-.16-.256-.456-.512-.888-.768-.416-.256-1.024-.544-1.824-.864-.768-.32-1.432-.64-1.992-.96-.544-.32-.968-.704-1.272-1.152-.288-.448-.432-1.024-.432-1.728 0-1.088.416-1.928 1.248-2.52.848-.592 1.952-.888 3.312-.888.736 0 1.424.08 2.064.24a8.76 8.76 0 0 1 1.824.624l-.696 1.68a7.597 7.597 0 0 0-1.056-.408 6.86 6.86 0 0 0-1.128-.288 5.295 5.295 0 0 0-1.128-.12c-.784 0-1.384.144-1.8.432-.416.272-.624.648-.624 1.128 0 .352.096.656.288.912.192.256.504.504.936.744a24.02 24.02 0 0 0 1.824.792c.768.304 1.424.616 1.968.936.544.32.952.712 1.224 1.176.288.448.432 1.016.432 1.704Zm10.851 0c0 .832-.2 1.528-.6 2.088-.384.56-.936.984-1.656 1.272-.72.288-1.584.432-2.592.432-.848 0-1.584-.072-2.208-.216a6.342 6.342 0 0 1-1.608-.6v-1.92c.496.256 1.088.496 1.776.72a7.179 7.179 0 0 0 2.088.312c.976 0 1.68-.168 2.112-.504.448-.352.672-.816.672-1.392 0-.32-.088-.608-.264-.864-.16-.256-.456-.512-.888-.768-.416-.256-1.024-.544-1.824-.864-.768-.32-1.432-.64-1.992-.96-.544-.32-.968-.704-1.272-1.152-.288-.448-.432-1.024-.432-1.728 0-1.088.416-1.928 1.248-2.52.848-.592 1.952-.888 3.312-.888.736 0 1.424.08 2.064.24a8.76 8.76 0 0 1 1.824.624l-.696 1.68a7.597 7.597 0 0 0-1.056-.408 6.86 6.86 0 0 0-1.128-.288 5.295 5.295 0 0 0-1.128-.12c-.784 0-1.384.144-1.8.432-.416.272-.624.648-.624 1.128 0 .352.096.656.288.912.192.256.504.504.936.744a24.02 24.02 0 0 0 1.824.792c.768.304 1.424.616 1.968.936.544.32.952.712 1.224 1.176.288.448.432 1.016.432 1.704Zm13.492-2.904c0 1.072-.136 2.024-.408 2.856-.256.816-.632 1.512-1.128 2.088a4.915 4.915 0 0 1-1.8 1.32c-.704.288-1.488.432-2.352.432-.8 0-1.544-.144-2.232-.432a5.26 5.26 0 0 1-1.776-1.32c-.496-.576-.88-1.272-1.152-2.088-.272-.832-.408-1.784-.408-2.856 0-1.424.224-2.624.672-3.6.464-.992 1.12-1.744 1.968-2.256.848-.528 1.848-.792 3-.792 1.104 0 2.072.264 2.904.792.848.512 1.512 1.264 1.992 2.256.48.976.72 2.176.72 3.6Zm-9.096 0c0 1.008.12 1.888.36 2.64.24.736.616 1.304 1.128 1.704.512.4 1.168.6 1.968.6s1.456-.2 1.968-.6c.512-.4.888-.968 1.128-1.704.256-.752.384-1.632.384-2.64 0-1.024-.128-1.896-.384-2.616-.24-.72-.616-1.272-1.128-1.656-.512-.4-1.176-.6-1.992-.6-1.2 0-2.072.432-2.616 1.296-.544.864-.816 2.056-.816 3.576Zm25.567-6.648c1.376 0 2.4.376 3.072 1.128.672.736 1.008 1.936 1.008 3.6v8.376h-2.064v-8.28c0-1.008-.2-1.768-.6-2.28-.384-.512-.992-.768-1.824-.768-1.152 0-1.976.36-2.472 1.08-.48.72-.72 1.768-.72 3.144v7.104h-2.088v-8.28c0-.672-.088-1.232-.264-1.68-.176-.464-.44-.808-.792-1.032-.352-.224-.808-.336-1.368-.336-.8 0-1.432.184-1.896.552-.464.352-.792.872-.984 1.56-.192.688-.288 1.536-.288 2.544v6.672h-2.088V159.65h1.68l.312 1.752h.12a3.73 3.73 0 0 1 .936-1.104 3.67 3.67 0 0 1 1.224-.672 4.52 4.52 0 0 1 1.392-.216c.928 0 1.704.176 2.328.528.624.352 1.08.896 1.368 1.632h.144c.4-.736.944-1.28 1.632-1.632a4.926 4.926 0 0 1 2.232-.528Z"/></svg>