<svg xmlns="http://www.w3.org/2000/svg" width="1040" height="343" fill="none"><path fill="#fff" d="M0 0h1040v343H0z"/><path fill="#FF7B00" d="M219.648 104.862c-19.944-44.736-79.777-46.934-107.7-33.953-23.933 13.98-39.89 33.953-30.916 85.878 8.975 51.925 57.84 58.915 94.738 56.918 36.898-1.997 68.809-52.924 43.878-108.843Z"/><path fill="#000" d="M91.622 250v-14.1h6.16c1.48 0 2.627.327 3.44.98.813.64 1.22 1.533 1.22 2.68 0 .853-.247 1.573-.74 2.16-.493.587-1.167.98-2.02 1.18v-.3c.653.093 1.213.293 1.68.6.467.307.82.7 1.06 1.18.253.48.38 1.04.38 1.68 0 .827-.193 1.54-.58 2.14-.373.587-.92 1.033-1.64 1.34-.72.307-1.58.46-2.58.46h-6.38Zm2.46-1.94h3.6c.36 0 .68-.027.96-.08.293-.053.54-.133.74-.24.213-.12.387-.267.52-.44.147-.173.253-.373.32-.6.067-.227.1-.48.1-.76a2.76 2.76 0 0 0-.1-.78 1.447 1.447 0 0 0-.32-.58 1.483 1.483 0 0 0-.52-.42 2.19 2.19 0 0 0-.74-.26c-.28-.053-.6-.08-.96-.08h-3.6v4.24Zm0-6.18h3.26c.88 0 1.533-.167 1.96-.5.44-.347.66-.853.66-1.52s-.22-1.167-.66-1.5c-.427-.347-1.08-.52-1.96-.52h-3.26v4.04Zm11.07 8.12v-9.78h2.44v2.36h-.2c.186-.8.553-1.407 1.1-1.82.546-.427 1.273-.673 2.18-.74l.76-.06.16 2.12-1.44.14c-.814.08-1.427.333-1.84.76-.414.413-.62 1-.62 1.76V250h-2.54Zm12.495.2c-1.106 0-2.06-.207-2.86-.62-.8-.413-1.42-1-1.86-1.76-.426-.76-.64-1.66-.64-2.7 0-1.013.207-1.9.62-2.66a4.658 4.658 0 0 1 1.74-1.78c.747-.44 1.594-.66 2.54-.66.934 0 1.734.2 2.4.6.667.4 1.18.967 1.54 1.7.374.733.56 1.607.56 2.62v.74h-7.38v-1.44h5.62l-.32.3c0-.907-.2-1.6-.6-2.08-.4-.493-.973-.74-1.72-.74-.56 0-1.04.133-1.44.4-.386.253-.686.62-.9 1.1-.2.467-.3 1.027-.3 1.68v.14c0 .733.114 1.34.34 1.82.227.48.567.84 1.02 1.08.454.24 1.014.36 1.68.36.547 0 1.094-.08 1.64-.24a4.643 4.643 0 0 0 1.5-.8l.7 1.68c-.466.387-1.053.693-1.76.92a6.892 6.892 0 0 1-2.12.34Zm10.84 0c-1.106 0-2.06-.207-2.86-.62-.8-.413-1.42-1-1.86-1.76-.426-.76-.64-1.66-.64-2.7 0-1.013.207-1.9.62-2.66a4.658 4.658 0 0 1 1.74-1.78c.747-.44 1.594-.66 2.54-.66.934 0 1.734.2 2.4.6.667.4 1.18.967 1.54 1.7.374.733.56 1.607.56 2.62v.74h-7.38v-1.44h5.62l-.32.3c0-.907-.2-1.6-.6-2.08-.4-.493-.973-.74-1.72-.74-.56 0-1.04.133-1.44.4-.386.253-.686.62-.9 1.1-.2.467-.3 1.027-.3 1.68v.14c0 .733.114 1.34.34 1.82.227.48.567.84 1.02 1.08.454.24 1.014.36 1.68.36.547 0 1.094-.08 1.64-.24a4.643 4.643 0 0 0 1.5-.8l.7 1.68c-.466.387-1.053.693-1.76.92a6.892 6.892 0 0 1-2.12.34Zm5.563-.2v-1.62l5.52-6.88v.6h-5.52v-1.88h7.76v1.62l-5.58 6.94v-.66h5.8V250h-7.98Zm21.744.2c-1.027 0-1.96-.167-2.8-.5a6.167 6.167 0 0 1-2.14-1.48c-.587-.64-1.04-1.407-1.36-2.3-.32-.893-.48-1.887-.48-2.98 0-1.107.16-2.1.48-2.98.32-.893.773-1.653 1.36-2.28a5.935 5.935 0 0 1 2.14-1.46c.84-.347 1.773-.52 2.8-.52 1.026 0 1.953.173 2.78.52a5.83 5.83 0 0 1 2.14 1.44c.6.627 1.06 1.387 1.38 2.28.32.88.48 1.873.48 2.98s-.16 2.107-.48 3c-.32.893-.78 1.66-1.38 2.3a5.934 5.934 0 0 1-2.14 1.48c-.827.333-1.754.5-2.78.5Zm0-2.2c.866 0 1.6-.2 2.2-.6.613-.4 1.08-.98 1.4-1.74.333-.76.5-1.667.5-2.72 0-1.067-.16-1.973-.48-2.72-.32-.76-.787-1.333-1.4-1.72-.614-.4-1.354-.6-2.22-.6-.854 0-1.587.2-2.2.6-.614.387-1.087.96-1.42 1.72-.32.747-.48 1.653-.48 2.72 0 1.053.16 1.96.48 2.72.333.76.806 1.34 1.42 1.74.613.4 1.346.6 2.2.6Zm9.143 2v-9.78h2.44v2.36h-.2c.186-.8.553-1.407 1.1-1.82.546-.427 1.273-.673 2.18-.74l.76-.06.16 2.12-1.44.14c-.814.08-1.427.333-1.84.76-.414.413-.62 1-.62 1.76V250h-2.54Zm10.954.2c-.707 0-1.34-.133-1.9-.4a3.439 3.439 0 0 1-1.3-1.12 2.81 2.81 0 0 1-.46-1.58c0-.72.187-1.287.56-1.7.373-.427.98-.733 1.82-.92.84-.187 1.967-.28 3.38-.28h1v1.44h-.98c-.627 0-1.153.027-1.58.08-.427.04-.773.113-1.04.22-.253.093-.44.227-.56.4-.107.173-.16.387-.16.64 0 .44.153.8.46 1.08.307.28.733.42 1.28.42.44 0 .827-.1 1.16-.3.347-.213.62-.5.82-.86.2-.36.3-.773.3-1.24v-2.3c0-.667-.147-1.147-.44-1.44-.293-.293-.787-.44-1.48-.44-.547 0-1.107.087-1.68.26a7.272 7.272 0 0 0-1.74.76l-.72-1.7c.347-.24.753-.447 1.22-.62.48-.187.98-.327 1.5-.42a7.639 7.639 0 0 1 1.5-.16c.96 0 1.747.147 2.36.44.627.293 1.093.74 1.4 1.34.307.587.46 1.347.46 2.28V250h-2.34v-2.08h.16a2.77 2.77 0 0 1-.56 1.22 2.723 2.723 0 0 1-1.02.78c-.413.187-.887.28-1.42.28Zm7.718-.2v-9.78h2.44v1.96h-.22c.293-.707.746-1.24 1.36-1.6.626-.373 1.333-.56 2.12-.56.786 0 1.433.147 1.94.44.506.293.886.74 1.14 1.34.253.587.38 1.333.38 2.24V250h-2.5v-5.84c0-.507-.067-.92-.2-1.24a1.277 1.277 0 0 0-.58-.7c-.254-.16-.58-.24-.98-.24-.48 0-.9.107-1.26.32-.36.2-.64.493-.84.88-.2.373-.3.813-.3 1.32v5.5h-2.5Zm16.259 3.8c-.907 0-1.76-.107-2.56-.32a6.167 6.167 0 0 1-2.08-.94l.72-1.74c.373.24.766.44 1.18.6.413.173.833.3 1.26.38.426.08.853.12 1.28.12.893 0 1.56-.22 2-.66.453-.427.68-1.067.68-1.92v-1.8h.18c-.2.68-.62 1.227-1.26 1.64-.627.4-1.34.6-2.14.6-.88 0-1.647-.2-2.3-.6a4.144 4.144 0 0 1-1.52-1.72c-.36-.733-.54-1.587-.54-2.56 0-.973.18-1.82.54-2.54.36-.733.866-1.3 1.52-1.7.653-.413 1.42-.62 2.3-.62.826 0 1.546.207 2.16.62.626.4 1.033.933 1.22 1.6h-.16v-2.02h2.44v8.8c0 1.053-.187 1.933-.56 2.64a3.52 3.52 0 0 1-1.66 1.6c-.734.36-1.634.54-2.7.54Zm-.06-5.94c.773 0 1.386-.267 1.84-.8.453-.533.68-1.26.68-2.18 0-.92-.227-1.64-.68-2.16-.454-.533-1.067-.8-1.84-.8-.774 0-1.387.267-1.84.8-.454.52-.68 1.24-.68 2.16 0 .92.226 1.647.68 2.18.453.533 1.066.8 1.84.8Zm12.39 2.34c-1.107 0-2.06-.207-2.86-.62-.8-.413-1.42-1-1.86-1.76-.427-.76-.64-1.66-.64-2.7 0-1.013.207-1.9.62-2.66a4.658 4.658 0 0 1 1.74-1.78c.747-.44 1.593-.66 2.54-.66.933 0 1.733.2 2.4.6.667.4 1.18.967 1.54 1.7.373.733.56 1.607.56 2.62v.74h-7.38v-1.44h5.62l-.32.3c0-.907-.2-1.6-.6-2.08-.4-.493-.973-.74-1.72-.74-.56 0-1.04.133-1.44.4-.387.253-.687.62-.9 1.1-.2.467-.3 1.027-.3 1.68v.14c0 .733.113 1.34.34 1.82.227.48.567.84 1.02 1.08.453.24 1.013.36 1.68.36.547 0 1.093-.08 1.64-.24a4.643 4.643 0 0 0 1.5-.8l.7 1.68c-.467.387-1.053.693-1.76.92a6.897 6.897 0 0 1-2.12.34ZM119.494 273l.576-2.912h-1.424v-.944h1.6l.72-3.696h-2v-.944h2.16l.56-2.784h1.008l-.544 2.784h2.544l.544-2.784h1.024l-.544 2.784h1.408v.944h-1.6l-.72 3.696h2v.944h-2.16L124.07 273h-1.024l.56-2.912h-2.528l-.56 2.912h-1.024Zm1.76-3.856h2.528l.736-3.696h-2.544l-.72 3.696ZM133.181 273v-11.28h6.976v1.104h-5.664v3.936h5.344v1.104h-5.344V273h-1.312Zm8.766 0v-11.28h6.976v1.104h-5.664v3.936h5.344v1.104h-5.344V273h-1.312Zm9.165 0 5.536-10.72v.576h-6.256v-1.136h7.456v.992L152.568 273h-1.456Zm9.194 0v-11.28h4.512c1.152 0 2.048.256 2.688.768.64.512.96 1.237.96 2.176 0 .704-.208 1.291-.624 1.76-.405.469-.96.779-1.664.928v-.224c.533.064.992.219 1.376.464.384.235.677.549.88.944.203.384.304.837.304 1.36 0 .672-.149 1.243-.448 1.712-.288.459-.709.805-1.264 1.04s-1.227.352-2.016.352h-4.704Zm1.28-1.056h3.296c.341 0 .645-.027.912-.08a2.58 2.58 0 0 0 .72-.24 1.98 1.98 0 0 0 .512-.416c.139-.16.24-.352.304-.576.075-.224.112-.475.112-.752 0-.288-.037-.539-.112-.752a1.487 1.487 0 0 0-.304-.576 1.628 1.628 0 0 0-.512-.416 2.58 2.58 0 0 0-.72-.24 4.71 4.71 0 0 0-.912-.08h-3.296v4.128Zm0-5.184h3.04c.832 0 1.461-.171 1.888-.512.437-.341.656-.832.656-1.472 0-.661-.219-1.157-.656-1.488-.427-.341-1.056-.512-1.888-.512h-3.04v3.984Zm12.941 6.384c-.854 0-1.579-.219-2.176-.656-.587-.448-1.03-1.104-1.328-1.968-.299-.864-.448-1.92-.448-3.168 0-1.259.149-2.315.448-3.168.298-.864.741-1.515 1.328-1.952.597-.437 1.322-.656 2.176-.656.864 0 1.589.219 2.176.656.586.437 1.029 1.083 1.328 1.936.298.853.448 1.909.448 3.168 0 1.259-.15 2.32-.448 3.184-.299.864-.742 1.52-1.328 1.968-.587.437-1.312.656-2.176.656Zm0-1.136c.896 0 1.557-.379 1.984-1.136.437-.757.656-1.936.656-3.536s-.214-2.768-.64-3.504c-.427-.747-1.094-1.12-2-1.12-.886 0-1.547.373-1.984 1.12-.438.747-.656 1.915-.656 3.504 0 1.6.213 2.779.64 3.536.437.757 1.104 1.136 2 1.136Zm9.593 1.136c-.853 0-1.578-.219-2.176-.656-.586-.448-1.029-1.104-1.328-1.968-.298-.864-.448-1.92-.448-3.168 0-1.259.15-2.315.448-3.168.299-.864.742-1.515 1.328-1.952.598-.437 1.323-.656 2.176-.656.864 0 1.59.219 2.176.656.587.437 1.03 1.083 1.328 1.936.299.853.448 1.909.448 3.168 0 1.259-.149 2.32-.448 3.184-.298.864-.741 1.52-1.328 1.968-.586.437-1.312.656-2.176.656Zm0-1.136c.896 0 1.558-.379 1.984-1.136.438-.757.656-1.936.656-3.536s-.213-2.768-.64-3.504c-.426-.747-1.093-1.12-2-1.12-.885 0-1.546.373-1.984 1.12-.437.747-.656 1.915-.656 3.504 0 1.6.214 2.779.64 3.536.438.757 1.104 1.136 2 1.136Z"/><path fill="#fff" stroke="#000" stroke-width="2" d="M463.982 104.862c-19.945-44.736-79.778-46.934-107.7-33.953-23.934 13.98-39.891 33.953-30.916 85.878 8.975 51.925 57.84 58.915 94.737 56.918 36.898-1.997 68.81-52.924 43.879-108.843Z"/><path fill="#000" d="M379.628 250v-14.1h2.14l5.32 9.82h-.64l5.3-9.82h2.1V250h-2.32v-10.3h.44l-4.48 8.16h-1.5l-4.52-8.18h.48V250h-2.32Zm16.923-11.88v-2.44h2.8v2.44h-2.8Zm.16 11.88v-9.78h2.5V250h-2.5Zm8.498.2c-1.16 0-2.02-.313-2.58-.94-.547-.64-.82-1.573-.82-2.8V235.9h2.5v10.44c0 .387.053.72.16 1 .12.267.293.467.52.6.227.133.507.2.84.2.147 0 .293-.007.44-.02.147-.013.287-.04.42-.08l-.04 1.98a6.93 6.93 0 0 1-.72.12c-.227.04-.467.06-.72.06Zm2.987-.2v-14.1h2.5v8.48h.04l3.94-4.16h3.02l-4.92 5.2v-1.04l5.2 5.62h-3.06l-4.18-4.36h-.04V250h-2.5Zm-42.103 23 .576-2.912h-1.424v-.944h1.6l.72-3.696h-2v-.944h2.16l.56-2.784h1.008l-.544 2.784h2.544l.544-2.784h1.024l-.544 2.784h1.408v.944h-1.6l-.72 3.696h2v.944h-2.16l-.576 2.912h-1.024l.56-2.912h-2.528l-.56 2.912h-1.024Zm1.76-3.856h2.528l.736-3.696h-2.544l-.72 3.696ZM379.78 273v-11.28h6.976v1.104h-5.664v3.936h5.344v1.104h-5.344V273h-1.312Zm8.766 0v-11.28h6.976v1.104h-5.664v3.936h5.344v1.104h-5.344V273h-1.312Zm8.765 0v-11.28h6.976v1.104h-5.664v3.936h5.344v1.104h-5.344V273h-1.312Zm8.766 0v-11.28h6.976v1.104h-5.664v3.936h5.344v1.104h-5.344V273h-1.312Zm8.766 0v-11.28h6.976v1.104h-5.664v3.936h5.344v1.104h-5.344V273h-1.312Zm8.765 0v-11.28h6.976v1.104h-5.664v3.936h5.344v1.104h-5.344V273h-1.312Z"/><path fill="#B3B6BA" d="M708.315 104.862c-19.945-44.736-79.777-46.934-107.7-33.953-23.934 13.98-39.891 33.953-30.916 85.878 8.975 51.925 57.84 58.915 94.738 56.918 36.898-1.997 68.809-52.924 43.878-108.843Z"/><path fill="#000" d="M612.297 250.2c-.733 0-1.44-.067-2.12-.2a8.897 8.897 0 0 1-1.86-.54 7.121 7.121 0 0 1-1.5-.86l.78-2.02c.44.307.9.573 1.38.8.494.213 1.014.38 1.56.5.56.107 1.147.16 1.76.16 1.054 0 1.82-.173 2.3-.52.48-.36.72-.82.72-1.38a1.34 1.34 0 0 0-.22-.78c-.146-.227-.386-.42-.72-.58-.333-.16-.773-.293-1.32-.4l-2.2-.46c-1.266-.267-2.213-.713-2.84-1.34-.613-.64-.92-1.48-.92-2.52 0-.88.234-1.647.7-2.3.467-.653 1.114-1.16 1.94-1.52.827-.36 1.78-.54 2.86-.54.64 0 1.254.067 1.84.2.6.12 1.147.307 1.64.56.507.24.947.533 1.32.88l-.78 1.92a5.741 5.741 0 0 0-1.84-1.04 6.45 6.45 0 0 0-2.2-.36c-.613 0-1.14.087-1.58.26-.44.173-.78.42-1.02.74-.226.307-.34.673-.34 1.1 0 .48.16.867.48 1.16.32.28.867.5 1.64.66l2.18.46c1.32.28 2.3.72 2.94 1.32.654.6.98 1.4.98 2.4 0 .84-.226 1.58-.68 2.22-.453.64-1.1 1.14-1.94 1.5-.826.347-1.806.52-2.94.52Zm12.337 0c-1.106 0-2.06-.207-2.86-.62-.8-.413-1.42-1-1.86-1.76-.426-.76-.64-1.66-.64-2.7 0-1.013.207-1.9.62-2.66a4.658 4.658 0 0 1 1.74-1.78c.747-.44 1.594-.66 2.54-.66.934 0 1.734.2 2.4.6.667.4 1.18.967 1.54 1.7.374.733.56 1.607.56 2.62v.74h-7.38v-1.44h5.62l-.32.3c0-.907-.2-1.6-.6-2.08-.4-.493-.973-.74-1.72-.74-.56 0-1.04.133-1.44.4-.386.253-.686.62-.9 1.1-.2.467-.3 1.027-.3 1.68v.14c0 .733.114 1.34.34 1.82.227.48.567.84 1.02 1.08.454.24 1.014.36 1.68.36.547 0 1.094-.08 1.64-.24a4.643 4.643 0 0 0 1.5-.8l.7 1.68c-.466.387-1.053.693-1.76.92a6.892 6.892 0 0 1-2.12.34Zm9.6 0c-.546 0-1.08-.047-1.6-.14a8.227 8.227 0 0 1-1.4-.38 4.563 4.563 0 0 1-1.12-.64l.64-1.64c.334.213.694.4 1.08.56a6.416 6.416 0 0 0 2.42.48c.64 0 1.114-.107 1.42-.32.32-.227.48-.52.48-.88 0-.307-.106-.54-.32-.7-.2-.173-.506-.3-.92-.38l-2-.38c-.826-.16-1.46-.46-1.9-.9-.426-.453-.64-1.033-.64-1.74 0-.64.174-1.193.52-1.66.36-.467.854-.827 1.48-1.08.627-.253 1.347-.38 2.16-.38.467 0 .92.047 1.36.14.44.08.854.207 1.24.38.4.16.747.373 1.04.64l-.68 1.64a3.62 3.62 0 0 0-.88-.54c-.333-.16-.68-.28-1.04-.36a3.92 3.92 0 0 0-1.02-.14c-.653 0-1.14.113-1.46.34-.306.227-.46.527-.46.9 0 .28.094.513.28.7.187.187.474.313.86.38l2 .38c.867.16 1.52.453 1.96.88.454.427.68 1 .68 1.72 0 .653-.173 1.213-.52 1.68-.346.467-.833.827-1.46 1.08-.626.24-1.36.36-2.2.36Zm9.406 0c-.707 0-1.34-.133-1.9-.4a3.439 3.439 0 0 1-1.3-1.12 2.81 2.81 0 0 1-.46-1.58c0-.72.187-1.287.56-1.7.373-.427.98-.733 1.82-.92.84-.187 1.967-.28 3.38-.28h1v1.44h-.98c-.627 0-1.153.027-1.58.08-.427.04-.773.113-1.04.22-.253.093-.44.227-.56.4-.107.173-.16.387-.16.64 0 .44.153.8.46 1.08.307.28.733.42 1.28.42.44 0 .827-.1 1.16-.3.347-.213.62-.5.82-.86.2-.36.3-.773.3-1.24v-2.3c0-.667-.147-1.147-.44-1.44-.293-.293-.787-.44-1.48-.44-.547 0-1.107.087-1.68.26a7.272 7.272 0 0 0-1.74.76l-.72-1.7c.347-.24.753-.447 1.22-.62.48-.187.98-.327 1.5-.42a7.639 7.639 0 0 1 1.5-.16c.96 0 1.747.147 2.36.44.627.293 1.093.74 1.4 1.34.307.587.46 1.347.46 2.28V250h-2.34v-2.08h.16a2.77 2.77 0 0 1-.56 1.22 2.723 2.723 0 0 1-1.02.78c-.413.187-.887.28-1.42.28Zm7.757-.2v-9.78h2.44v1.96h-.22a3.44 3.44 0 0 1 .72-1.16c.307-.32.674-.567 1.1-.74.427-.173.9-.26 1.42-.26.787 0 1.434.187 1.94.56.507.373.86.947 1.06 1.72h-.28a3.332 3.332 0 0 1 1.32-1.66c.614-.413 1.32-.62 2.12-.62.747 0 1.36.147 1.84.44.494.293.86.74 1.1 1.34.24.587.36 1.333.36 2.24V250h-2.5v-5.86c0-.747-.126-1.293-.38-1.64-.24-.347-.653-.52-1.24-.52-.426 0-.8.107-1.12.32-.32.2-.566.493-.74.88-.16.387-.24.853-.24 1.4V250h-2.5v-5.86c0-.747-.126-1.293-.38-1.64-.24-.347-.646-.52-1.22-.52-.44 0-.82.107-1.14.32-.306.2-.546.493-.72.88-.16.387-.24.853-.24 1.4V250h-2.5Zm22.319.2c-1.106 0-2.06-.207-2.86-.62-.8-.413-1.42-1-1.86-1.76-.426-.76-.64-1.66-.64-2.7 0-1.013.207-1.9.62-2.66a4.658 4.658 0 0 1 1.74-1.78c.747-.44 1.594-.66 2.54-.66.934 0 1.734.2 2.4.6.667.4 1.18.967 1.54 1.7.374.733.56 1.607.56 2.62v.74h-7.38v-1.44h5.62l-.32.3c0-.907-.2-1.6-.6-2.08-.4-.493-.973-.74-1.72-.74-.56 0-1.04.133-1.44.4-.386.253-.686.62-.9 1.1-.2.467-.3 1.027-.3 1.68v.14c0 .733.114 1.34.34 1.82.227.48.567.84 1.02 1.08.454.24 1.014.36 1.68.36.547 0 1.094-.08 1.64-.24a4.643 4.643 0 0 0 1.5-.8l.7 1.68c-.466.387-1.053.693-1.76.92a6.892 6.892 0 0 1-2.12.34ZM605.145 273l.576-2.912h-1.424v-.944h1.6l.72-3.696h-2v-.944h2.16l.56-2.784h1.008l-.544 2.784h2.544l.544-2.784h1.024l-.544 2.784h1.408v.944h-1.6l-.72 3.696h2v.944h-2.16l-.576 2.912h-1.024l.56-2.912h-2.528l-.56 2.912h-1.024Zm1.76-3.856h2.528l.736-3.696h-2.544l-.72 3.696ZM618.832 273v-11.28h4.512c1.152 0 2.048.256 2.688.768.64.512.96 1.237.96 2.176 0 .704-.208 1.291-.624 1.76-.405.469-.96.779-1.664.928v-.224c.534.064.992.219 1.376.464.384.235.678.549.88.944.203.384.304.837.304 1.36 0 .672-.149 1.243-.448 1.712-.288.459-.709.805-1.264 1.04-.554.235-1.226.352-2.016.352h-4.704Zm1.28-1.056h3.296c.342 0 .646-.027.912-.08.278-.053.518-.133.72-.24.203-.117.374-.256.512-.416.139-.16.24-.352.304-.576.075-.224.112-.475.112-.752 0-.288-.037-.539-.112-.752a1.487 1.487 0 0 0-.304-.576 1.617 1.617 0 0 0-.512-.416 2.558 2.558 0 0 0-.72-.24 4.696 4.696 0 0 0-.912-.08h-3.296v4.128Zm0-5.184h3.04c.832 0 1.462-.171 1.888-.512.438-.341.656-.832.656-1.472 0-.661-.218-1.157-.656-1.488-.426-.341-1.056-.512-1.888-.512h-3.04v3.984Zm12.813 6.384c-.502 0-.987-.053-1.456-.16a6.414 6.414 0 0 1-1.296-.448 4.532 4.532 0 0 1-1.072-.736l.48-1.04c.522.427 1.05.736 1.584.928a5.062 5.062 0 0 0 1.728.288c.544 0 1.002-.08 1.376-.24a1.8 1.8 0 0 0 .848-.704c.192-.32.288-.709.288-1.168 0-.661-.219-1.163-.656-1.504-.438-.341-1.072-.512-1.904-.512h-1.664v-1.136h1.552c.49 0 .906-.085 1.248-.256.352-.171.624-.411.816-.72.192-.32.288-.704.288-1.152 0-.597-.192-1.051-.576-1.36-.384-.32-.939-.48-1.664-.48-.598 0-1.147.107-1.648.32-.502.203-.976.523-1.424.96l-.48-1.024c.426-.448.96-.795 1.6-1.04a5.499 5.499 0 0 1 2.032-.384c.725 0 1.344.117 1.856.352.522.224.922.555 1.2.992.277.427.416.944.416 1.552 0 .693-.192 1.291-.576 1.792-.384.491-.907.827-1.568 1.008v-.176c.522.085.965.256 1.328.512.373.256.656.587.848.992.192.395.288.848.288 1.36 0 .651-.155 1.216-.464 1.696-.299.469-.731.837-1.296 1.104-.566.256-1.243.384-2.032.384Zm6.313-.144v-11.28h4.512c1.152 0 2.048.256 2.688.768.64.512.96 1.237.96 2.176 0 .704-.208 1.291-.624 1.76-.405.469-.96.779-1.664.928v-.224c.534.064.992.219 1.376.464.384.235.678.549.88.944.203.384.304.837.304 1.36 0 .672-.149 1.243-.448 1.712-.288.459-.709.805-1.264 1.04-.554.235-1.226.352-2.016.352h-4.704Zm1.28-1.056h3.296c.342 0 .646-.027.912-.08.278-.053.518-.133.72-.24.203-.117.374-.256.512-.416.139-.16.24-.352.304-.576.075-.224.112-.475.112-.752 0-.288-.037-.539-.112-.752a1.487 1.487 0 0 0-.304-.576 1.617 1.617 0 0 0-.512-.416 2.558 2.558 0 0 0-.72-.24 4.696 4.696 0 0 0-.912-.08h-3.296v4.128Zm0-5.184h3.04c.832 0 1.462-.171 1.888-.512.438-.341.656-.832.656-1.472 0-.661-.218-1.157-.656-1.488-.426-.341-1.056-.512-1.888-.512h-3.04v3.984Zm13.341 6.384c-.896 0-1.659-.213-2.288-.64-.619-.437-1.088-1.067-1.408-1.888-.32-.821-.48-1.813-.48-2.976 0-1.301.176-2.4.528-3.296.363-.907.885-1.595 1.568-2.064.693-.469 1.515-.704 2.464-.704.384 0 .773.059 1.168.176.395.107.763.261 1.104.464.352.203.651.443.896.72l-.48 1.024a3.746 3.746 0 0 0-1.296-.912 3.482 3.482 0 0 0-1.424-.304c-.523 0-.987.096-1.392.288a2.756 2.756 0 0 0-1.024.88c-.277.384-.485.869-.624 1.456-.139.576-.208 1.248-.208 2.016v1.488h-.144c.064-.608.24-1.131.528-1.568a2.988 2.988 0 0 1 1.136-1.024 3.355 3.355 0 0 1 1.552-.352c.661 0 1.248.149 1.76.448.512.299.912.72 1.2 1.264.288.533.432 1.147.432 1.84 0 .704-.149 1.333-.448 1.888-.299.555-.72.992-1.264 1.312-.544.309-1.163.464-1.856.464Zm-.096-1.12c.469 0 .885-.101 1.248-.304.363-.213.645-.507.848-.88.203-.384.304-.821.304-1.312 0-.491-.101-.923-.304-1.296a2.243 2.243 0 0 0-.848-.88c-.352-.213-.768-.32-1.248-.32a2.42 2.42 0 0 0-1.248.32 2.243 2.243 0 0 0-.848.88c-.203.373-.304.805-.304 1.296s.101.928.304 1.312c.203.373.485.667.848.88.363.203.779.304 1.248.304Zm5.882.976v-11.28h4.512c1.152 0 2.048.256 2.688.768.64.512.96 1.237.96 2.176 0 .704-.208 1.291-.624 1.76-.406.469-.96.779-1.664.928v-.224c.533.064.992.219 1.376.464.384.235.677.549.88.944.202.384.304.837.304 1.36 0 .672-.15 1.243-.448 1.712-.288.459-.71.805-1.264 1.04-.555.235-1.227.352-2.016.352h-4.704Zm1.28-1.056h3.296c.341 0 .645-.027.912-.08a2.58 2.58 0 0 0 .72-.24c.202-.117.373-.256.512-.416a1.5 1.5 0 0 0 .304-.576 2.39 2.39 0 0 0 .112-.752c0-.288-.038-.539-.112-.752a1.5 1.5 0 0 0-.304-.576 1.64 1.64 0 0 0-.512-.416 2.58 2.58 0 0 0-.72-.24 4.71 4.71 0 0 0-.912-.08h-3.296v4.128Zm0-5.184h3.04c.832 0 1.461-.171 1.888-.512.437-.341.656-.832.656-1.472 0-.661-.219-1.157-.656-1.488-.427-.341-1.056-.512-1.888-.512h-3.04v3.984Zm8.319 6.24 4.976-11.28h1.12l4.976 11.28h-1.36l-1.392-3.216.64.336h-6.88l.656-.336-1.376 3.216h-1.36Zm5.52-9.744-2.576 6.064-.384-.304h5.92l-.352.304-2.576-6.064h-.032Zm277.884-158.394c-19.944-44.736-79.777-46.934-107.7-33.953-23.933 13.98-39.891 33.953-30.916 85.878 8.976 51.925 57.84 58.915 94.738 56.918 36.898-1.997 68.809-52.924 43.878-108.843ZM836.575 250v-14.1h6.16c1.48 0 2.627.327 3.44.98.813.64 1.22 1.533 1.22 2.68 0 .853-.247 1.573-.74 2.16-.493.587-1.167.98-2.02 1.18v-.3c.653.093 1.213.293 1.68.6.467.307.82.7 1.06 1.18.253.48.38 1.04.38 1.68 0 .827-.193 1.54-.58 2.14-.373.587-.92 1.033-1.64 1.34-.72.307-1.58.46-2.58.46h-6.38Zm2.46-1.94h3.6c.36 0 .68-.027.96-.08.293-.053.54-.133.74-.24.213-.12.387-.267.52-.44.147-.173.253-.373.32-.6.067-.227.1-.48.1-.76a2.76 2.76 0 0 0-.1-.78 1.447 1.447 0 0 0-.32-.58 1.484 1.484 0 0 0-.52-.42 2.19 2.19 0 0 0-.74-.26c-.28-.053-.6-.08-.96-.08h-3.6v4.24Zm0-6.18h3.26c.88 0 1.533-.167 1.96-.5.44-.347.66-.853.66-1.52s-.22-1.167-.66-1.5c-.427-.347-1.08-.52-1.96-.52h-3.26v4.04Zm14.47 8.32c-1.16 0-2.02-.313-2.58-.94-.547-.64-.82-1.573-.82-2.8V235.9h2.5v10.44c0 .387.053.72.16 1 .12.267.293.467.52.6.226.133.506.2.84.2a5 5 0 0 0 .44-.02c.146-.013.286-.04.42-.08l-.04 1.98a6.93 6.93 0 0 1-.72.12c-.227.04-.467.06-.72.06Zm6.206 0c-.706 0-1.34-.133-1.9-.4a3.447 3.447 0 0 1-1.3-1.12 2.818 2.818 0 0 1-.46-1.58c0-.72.187-1.287.56-1.7.374-.427.98-.733 1.82-.92.84-.187 1.967-.28 3.38-.28h1v1.44h-.98c-.626 0-1.153.027-1.58.08-.426.04-.773.113-1.04.22-.253.093-.44.227-.56.4-.106.173-.16.387-.16.64 0 .44.154.8.46 1.08.307.28.734.42 1.28.42.44 0 .827-.1 1.16-.3.347-.213.62-.5.82-.86.2-.36.3-.773.3-1.24v-2.3c0-.667-.146-1.147-.44-1.44-.293-.293-.786-.44-1.48-.44-.546 0-1.106.087-1.68.26a7.272 7.272 0 0 0-1.74.76l-.72-1.7c.347-.24.754-.447 1.22-.62.48-.187.98-.327 1.5-.42a7.655 7.655 0 0 1 1.5-.16c.96 0 1.747.147 2.36.44.627.293 1.094.74 1.4 1.34.307.587.46 1.347.46 2.28V250h-2.34v-2.08h.16a2.77 2.77 0 0 1-.56 1.22 2.707 2.707 0 0 1-1.02.78c-.413.187-.886.28-1.42.28Zm12.238 0c-1.027 0-1.92-.207-2.68-.62a4.403 4.403 0 0 1-1.76-1.8c-.413-.773-.62-1.68-.62-2.72 0-1.04.207-1.933.62-2.68.413-.76 1-1.34 1.76-1.74.76-.413 1.653-.62 2.68-.62.627 0 1.247.1 1.86.3.613.2 1.12.48 1.52.84l-.74 1.74a3.641 3.641 0 0 0-1.18-.7c-.427-.16-.84-.24-1.24-.24-.867 0-1.54.273-2.02.82-.467.533-.7 1.3-.7 2.3 0 .987.233 1.767.7 2.34.48.56 1.153.84 2.02.84.387 0 .8-.08 1.24-.24.44-.16.833-.4 1.18-.72l.74 1.76c-.4.347-.913.627-1.54.84-.613.2-1.227.3-1.84.3Zm4.914-.2v-14.1h2.5v8.48h.04l3.94-4.16h3.02l-4.921 5.2v-1.04l5.201 5.62h-3.06l-4.18-4.36h-.04V250h-2.5Zm21.213.2c-.734 0-1.44-.067-2.12-.2a8.862 8.862 0 0 1-1.86-.54 7.121 7.121 0 0 1-1.5-.86l.78-2.02c.44.307.9.573 1.38.8.493.213 1.013.38 1.56.5.56.107 1.146.16 1.76.16 1.053 0 1.82-.173 2.3-.52.48-.36.72-.82.72-1.38 0-.307-.074-.567-.22-.78-.147-.227-.387-.42-.72-.58-.334-.16-.774-.293-1.32-.4l-2.2-.46c-1.267-.267-2.214-.713-2.84-1.34-.614-.64-.92-1.48-.92-2.52 0-.88.233-1.647.7-2.3.466-.653 1.113-1.16 1.94-1.52.826-.36 1.78-.54 2.86-.54.64 0 1.253.067 1.84.2.6.12 1.146.307 1.64.56.506.24.946.533 1.32.88l-.78 1.92a5.752 5.752 0 0 0-1.84-1.04c-.667-.24-1.4-.36-2.2-.36-.614 0-1.14.087-1.58.26-.44.173-.78.42-1.02.74-.227.307-.34.673-.34 1.1 0 .48.16.867.48 1.16.32.28.866.5 1.64.66l2.18.46c1.32.28 2.3.72 2.94 1.32.653.6.98 1.4.98 2.4 0 .84-.227 1.58-.68 2.22-.454.64-1.1 1.14-1.94 1.5-.827.347-1.807.52-2.94.52Zm12.337 0c-1.107 0-2.06-.207-2.86-.62-.8-.413-1.42-1-1.86-1.76-.427-.76-.64-1.66-.64-2.7 0-1.013.207-1.9.62-2.66a4.658 4.658 0 0 1 1.74-1.78c.747-.44 1.593-.66 2.54-.66.933 0 1.733.2 2.4.6.667.4 1.18.967 1.54 1.7.373.733.56 1.607.56 2.62v.74h-7.38v-1.44h5.62l-.32.3c0-.907-.2-1.6-.6-2.08-.4-.493-.973-.74-1.72-.74-.56 0-1.04.133-1.44.4-.387.253-.687.62-.9 1.1-.2.467-.3 1.027-.3 1.68v.14c0 .733.113 1.34.34 1.82.227.48.567.84 1.02 1.08.453.24 1.013.36 1.68.36.547 0 1.093-.08 1.64-.24a4.643 4.643 0 0 0 1.5-.8l.7 1.68c-.467.387-1.053.693-1.76.92a6.897 6.897 0 0 1-2.12.34Zm10.84 0c-1.107 0-2.06-.207-2.86-.62-.8-.413-1.42-1-1.86-1.76-.427-.76-.64-1.66-.64-2.7 0-1.013.206-1.9.62-2.66a4.644 4.644 0 0 1 1.74-1.78c.746-.44 1.593-.66 2.54-.66.933 0 1.733.2 2.4.6.666.4 1.18.967 1.54 1.7.373.733.56 1.607.56 2.62v.74h-7.38v-1.44h5.62l-.32.3c0-.907-.2-1.6-.6-2.08-.4-.493-.974-.74-1.72-.74-.56 0-1.04.133-1.44.4-.387.253-.687.62-.9 1.1-.2.467-.3 1.027-.3 1.68v.14c0 .733.113 1.34.34 1.82.226.48.566.84 1.02 1.08.453.24 1.013.36 1.68.36.546 0 1.093-.08 1.64-.24a4.664 4.664 0 0 0 1.5-.8l.7 1.68c-.467.387-1.054.693-1.76.92a6.902 6.902 0 0 1-2.12.34Zm9.78 0c-.854 0-1.607-.207-2.26-.62-.64-.413-1.14-1-1.5-1.76-.36-.773-.54-1.68-.54-2.72 0-1.053.18-1.953.54-2.7.36-.76.86-1.347 1.5-1.76.653-.413 1.406-.62 2.26-.62.813 0 1.52.2 2.12.6.613.4 1.026.927 1.24 1.58h-.22v-6.3h2.5V250h-2.44v-2.08h.18a2.93 2.93 0 0 1-1.22 1.66c-.614.413-1.334.62-2.16.62Zm.7-1.9c.746 0 1.346-.267 1.8-.8.453-.547.68-1.347.68-2.4 0-1.067-.227-1.86-.68-2.38-.454-.533-1.054-.8-1.8-.8-.747 0-1.347.267-1.8.8-.454.52-.68 1.313-.68 2.38 0 1.053.226 1.853.68 2.4.453.533 1.053.8 1.8.8ZM852.275 273l.576-2.912h-1.424v-.944h1.6l.72-3.696h-2v-.944h2.16l.56-2.784h1.008l-.544 2.784h2.544l.544-2.784h1.024l-.544 2.784h1.408v.944h-1.6l-.72 3.696h2v.944h-2.16l-.576 2.912h-1.024l.56-2.912h-2.528l-.56 2.912h-1.024Zm1.76-3.856h2.528l.736-3.696h-2.544l-.72 3.696Zm15.335 4c-.853 0-1.578-.219-2.176-.656-.586-.448-1.029-1.104-1.328-1.968-.298-.864-.448-1.92-.448-3.168 0-1.259.15-2.315.448-3.168.299-.864.742-1.515 1.328-1.952.598-.437 1.323-.656 2.176-.656.864 0 1.59.219 2.176.656.587.437 1.03 1.083 1.328 1.936.299.853.448 1.909.448 3.168 0 1.259-.149 2.32-.448 3.184-.298.864-.741 1.52-1.328 1.968-.586.437-1.312.656-2.176.656Zm0-1.136c.896 0 1.558-.379 1.984-1.136.438-.757.656-1.936.656-3.536s-.213-2.768-.64-3.504c-.426-.747-1.093-1.12-2-1.12-.885 0-1.546.373-1.984 1.12-.437.747-.656 1.915-.656 3.504 0 1.6.214 2.779.64 3.536.438.757 1.104 1.136 2 1.136Zm9.594 1.136c-.853 0-1.579-.219-2.176-.656-.587-.448-1.029-1.104-1.328-1.968-.299-.864-.448-1.92-.448-3.168 0-1.259.149-2.315.448-3.168.299-.864.741-1.515 1.328-1.952.597-.437 1.323-.656 2.176-.656.864 0 1.589.219 2.176.656.587.437 1.029 1.083 1.328 1.936.299.853.448 1.909.448 3.168 0 1.259-.149 2.32-.448 3.184-.299.864-.741 1.52-1.328 1.968-.587.437-1.312.656-2.176.656Zm0-1.136c.896 0 1.557-.379 1.984-1.136.437-.757.656-1.936.656-3.536s-.213-2.768-.64-3.504c-.427-.747-1.093-1.12-2-1.12-.885 0-1.547.373-1.984 1.12-.437.747-.656 1.915-.656 3.504 0 1.6.213 2.779.64 3.536.437.757 1.104 1.136 2 1.136Zm9.594 1.136c-.854 0-1.579-.219-2.176-.656-.587-.448-1.03-1.104-1.328-1.968-.299-.864-.448-1.92-.448-3.168 0-1.259.149-2.315.448-3.168.298-.864.741-1.515 1.328-1.952.597-.437 1.322-.656 2.176-.656.864 0 1.589.219 2.176.656.586.437 1.029 1.083 1.328 1.936.298.853.448 1.909.448 3.168 0 1.259-.15 2.32-.448 3.184-.299.864-.742 1.52-1.328 1.968-.587.437-1.312.656-2.176.656Zm0-1.136c.896 0 1.557-.379 1.984-1.136.437-.757.656-1.936.656-3.536s-.214-2.768-.64-3.504c-.427-.747-1.094-1.12-2-1.12-.886 0-1.547.373-1.984 1.12-.438.747-.656 1.915-.656 3.504 0 1.6.213 2.779.64 3.536.437.757 1.104 1.136 2 1.136Zm9.594 1.136c-.854 0-1.579-.219-2.176-.656-.587-.448-1.03-1.104-1.328-1.968-.299-.864-.448-1.92-.448-3.168 0-1.259.149-2.315.448-3.168.298-.864.741-1.515 1.328-1.952.597-.437 1.322-.656 2.176-.656.864 0 1.589.219 2.176.656.586.437 1.029 1.083 1.328 1.936.298.853.448 1.909.448 3.168 0 1.259-.15 2.32-.448 3.184-.299.864-.742 1.52-1.328 1.968-.587.437-1.312.656-2.176.656Zm0-1.136c.896 0 1.557-.379 1.984-1.136.437-.757.656-1.936.656-3.536s-.214-2.768-.64-3.504c-.427-.747-1.094-1.12-2-1.12-.886 0-1.547.373-1.984 1.12-.438.747-.656 1.915-.656 3.504 0 1.6.213 2.779.64 3.536.437.757 1.104 1.136 2 1.136Zm9.593 1.136c-.853 0-1.578-.219-2.176-.656-.586-.448-1.029-1.104-1.328-1.968-.298-.864-.448-1.92-.448-3.168 0-1.259.15-2.315.448-3.168.299-.864.742-1.515 1.328-1.952.598-.437 1.323-.656 2.176-.656.864 0 1.59.219 2.176.656.587.437 1.03 1.083 1.328 1.936.299.853.448 1.909.448 3.168 0 1.259-.149 2.32-.448 3.184-.298.864-.741 1.52-1.328 1.968-.586.437-1.312.656-2.176.656Zm0-1.136c.896 0 1.558-.379 1.984-1.136.438-.757.656-1.936.656-3.536s-.213-2.768-.64-3.504c-.426-.747-1.093-1.12-2-1.12-.885 0-1.546.373-1.984 1.12-.437.747-.656 1.915-.656 3.504 0 1.6.214 2.779.64 3.536.438.757 1.104 1.136 2 1.136Zm9.594 1.136c-.853 0-1.579-.219-2.176-.656-.587-.448-1.029-1.104-1.328-1.968-.299-.864-.448-1.92-.448-3.168 0-1.259.149-2.315.448-3.168.299-.864.741-1.515 1.328-1.952.597-.437 1.323-.656 2.176-.656.864 0 1.589.219 2.176.656.587.437 1.029 1.083 1.328 1.936.299.853.448 1.909.448 3.168 0 1.259-.149 2.32-.448 3.184-.299.864-.741 1.52-1.328 1.968-.587.437-1.312.656-2.176.656Zm0-1.136c.896 0 1.557-.379 1.984-1.136.437-.757.656-1.936.656-3.536s-.213-2.768-.64-3.504c-.427-.747-1.093-1.12-2-1.12-.885 0-1.547.373-1.984 1.12-.437.747-.656 1.915-.656 3.504 0 1.6.213 2.779.64 3.536.437.757 1.104 1.136 2 1.136Z"/></svg>