<svg xmlns="http://www.w3.org/2000/svg" width="510" height="359" fill="none"><rect width="508.993" height="357.371" x=".504" y=".721" fill="#0C0D0E" rx="19.644"/><rect width="508.993" height="357.371" x=".504" y=".721" stroke="#767F87" stroke-width="1.007" rx="19.644"/><g clip-path="url(#a)"><circle cx="73.673" cy="73.89" r="55.041" fill="#171414"/><path stroke="#E0E0E0" stroke-linecap="round" stroke-width=".993" d="M44.94 111.219a45.276 45.276 0 0 0 28.717 10.216 45.273 45.273 0 0 0 28.716-10.216"/><g clip-path="url(#b)"><path fill="#fff" d="M68.085 112.82h-3.468a.5.5 0 0 0-.495.496v1.981a.496.496 0 0 0 .495.496h3.468a.496.496 0 0 0 .495-.496v-1.981a.496.496 0 0 0-.495-.496Zm.165 2.477a.165.165 0 0 1-.165.165h-3.468a.164.164 0 0 1-.165-.165v-1.981a.165.165 0 0 1 .165-.165h3.468a.165.165 0 0 1 .165.165v1.981Zm-1.32-1.651v1.321a.165.165 0 1 1-.331 0v-1.321a.165.165 0 1 1 .33 0Zm-.827 0v1.321a.166.166 0 0 1-.281.117.166.166 0 0 1-.049-.117v-1.321a.166.166 0 0 1 .282-.117.165.165 0 0 1 .048.117Zm-.825 0v1.321a.165.165 0 1 1-.33 0v-1.321a.166.166 0 0 1 .282-.117.165.165 0 0 1 .048.117Zm3.963 0v1.321a.165.165 0 1 1-.33 0v-1.321a.165.165 0 1 1 .33 0Z"/></g><path fill="#fff" d="M71.925 115.844c-.187 0-.355-.035-.505-.103a.892.892 0 0 1-.361-.304.988.988 0 0 1-.16-.486h.495c.022.167.078.292.167.376a.496.496 0 0 0 .353.125.455.455 0 0 0 .32-.11c.083-.073.125-.179.125-.315a.456.456 0 0 0-.122-.331c-.078-.084-.203-.125-.372-.125h-.278v-.384h.266c.15 0 .26-.036.33-.107a.38.38 0 0 0 .111-.281.376.376 0 0 0-.099-.273c-.063-.069-.16-.103-.292-.103a.48.48 0 0 0-.316.11.47.47 0 0 0-.156.319h-.501a.964.964 0 0 1 .156-.437.854.854 0 0 1 .342-.281 1.12 1.12 0 0 1 .49-.102c.182 0 .34.03.475.091a.7.7 0 0 1 .311.251.64.64 0 0 1 .115.383.644.644 0 0 1-.316.567.566.566 0 0 1-.289.079l-.011-.079c.142 0 .263.033.365.098.101.064.178.15.231.259a.798.798 0 0 1 .084.368c0 .16-.042.301-.125.422a.802.802 0 0 1-.338.278c-.145.063-.31.095-.495.095Zm2.186 0c-.276 0-.502-.073-.677-.217a.932.932 0 0 1-.322-.597h.501a.493.493 0 0 0 .167.312.49.49 0 0 0 .32.11.427.427 0 0 0 .326-.133c.086-.088.13-.225.13-.41 0-.18-.042-.316-.126-.407a.412.412 0 0 0-.327-.14.499.499 0 0 0-.24.057.373.373 0 0 0-.159.159h-.448l.133-1.508h1.531v.391h-1.33l.243-.068-.076.938-.151-.026a.69.69 0 0 1 .235-.225.727.727 0 0 1 .365-.083c.175 0 .327.038.456.114a.793.793 0 0 1 .308.319.97.97 0 0 1 .114.486.97.97 0 0 1-.122.502.808.808 0 0 1-.338.315 1.112 1.112 0 0 1-.513.111Zm2.379 0c-.223 0-.42-.06-.593-.179a1.237 1.237 0 0 1-.407-.502 1.787 1.787 0 0 1-.144-.737c0-.276.048-.518.144-.726.097-.21.231-.373.403-.49.175-.119.374-.178.597-.178.225 0 .424.059.597.178.172.117.306.28.402.49.1.208.149.45.149.726 0 .279-.05.525-.149.737a1.21 1.21 0 0 1-.403.502 1.024 1.024 0 0 1-.596.179Zm0-.415c.14 0 .255-.044.346-.133a.817.817 0 0 0 .205-.361c.048-.152.072-.323.072-.513s-.023-.358-.068-.505a.75.75 0 0 0-.21-.346.494.494 0 0 0-.345-.125.493.493 0 0 0-.346.129.767.767 0 0 0-.205.346 1.69 1.69 0 0 0-.068.501c0 .193.022.365.068.517a.798.798 0 0 0 .209.361.488.488 0 0 0 .342.129Zm2.277.377v-1.938h.467v.456h.011v1.482h-.478Zm1.303 0v-1.251c0-.114-.03-.197-.087-.25-.056-.056-.136-.084-.24-.084a.5.5 0 0 0-.433.247.563.563 0 0 0-.065.274l-.049-.445a.805.805 0 0 1 .285-.338.742.742 0 0 1 .433-.129c.198 0 .354.057.468.171a.578.578 0 0 1 .17.433v1.372h-.482Zm1.304 0v-1.251c0-.114-.028-.197-.084-.25-.056-.056-.136-.084-.24-.084a.508.508 0 0 0-.254.065.46.46 0 0 0-.179.182.563.563 0 0 0-.064.274l-.084-.445a.79.79 0 0 1 .737-.467c.203 0 .361.058.475.174a.609.609 0 0 1 .175.456v1.346h-.482Zm.955 0v-1.938h.479v1.938h-.479Zm-.023-2.258v-.528h.521v.528h-.52ZM67.463 89.587V86.45h.46v.738h.031v2.398h-.491Zm2.115 0v-2.078c0-.238-.054-.412-.16-.523-.107-.11-.26-.166-.461-.166a.98.98 0 0 0-.873.51c-.087.16-.13.347-.13.56l-.08-.744a1.26 1.26 0 0 1 .48-.553c.213-.136.445-.203.695-.203.303 0 .55.09.738.27.188.177.282.416.282.72v2.207h-.491Zm2.115 0v-2.078c0-.238-.054-.412-.16-.523-.107-.11-.26-.166-.461-.166a.979.979 0 0 0-.873.51c-.087.16-.13.347-.13.56l-.123-.744c.107-.234.271-.418.492-.553.222-.136.46-.203.714-.203.303 0 .55.09.744.27.192.177.289.416.289.72v2.207h-.492Zm2.987.055a1.25 1.25 0 0 1-.744-.215 1.08 1.08 0 0 1-.412-.609l.099-.012v2.041h-.492v-4.396h.46v.732l-.067-.019c.078-.241.226-.43.443-.565.217-.14.47-.21.756-.21a1.287 1.287 0 0 1 1.211.77c.115.241.172.524.172.848 0 .328-.059.615-.178.86a1.359 1.359 0 0 1-.498.572 1.37 1.37 0 0 1-.75.203Zm-.074-.43c.312 0 .556-.107.732-.32.176-.217.264-.512.264-.885 0-.37-.088-.658-.264-.867-.176-.213-.42-.32-.732-.32-.311 0-.557.109-.737.326-.18.213-.271.506-.271.88 0 .364.09.653.27.866.18.213.427.32.738.32Zm2.253.375V85.16h.492v4.427h-.492Zm2.245 0v-2.054c0-.237-.06-.416-.179-.535-.119-.119-.295-.178-.528-.178a1.1 1.1 0 0 0-.548.135.982.982 0 0 0-.369.375c-.086.16-.129.347-.129.56l-.08-.744c.107-.234.269-.418.486-.553a1.41 1.41 0 0 1 .75-.203c.328 0 .59.094.787.282.201.185.302.429.302.732v2.183h-.492Zm-13.689-7.365c-2.779 0-4.932-.9-6.458-2.7-1.507-1.82-2.26-4.384-2.26-7.692 0-2.328.361-4.334 1.085-6.017.744-1.703 1.791-3.014 3.142-3.934 1.35-.92 2.935-1.38 4.755-1.38 2.055 0 3.728.548 5.02 1.644 1.311 1.076 2.114 2.574 2.407 4.492h-4.491c-.098-.862-.421-1.517-.969-1.967-.528-.47-1.194-.705-1.996-.705-1.429 0-2.495.617-3.2 1.85-.705 1.233-1.057 3.14-1.057 5.724v1.908l-.91-.264c.216-.94.597-1.752 1.145-2.437a5.483 5.483 0 0 1 2.055-1.585c.842-.372 1.78-.558 2.818-.558 1.37 0 2.574.284 3.61.852A5.8 5.8 0 0 1 72.52 71.8c.587.998.88 2.172.88 3.523 0 1.39-.332 2.603-.997 3.64-.646 1.037-1.566 1.84-2.76 2.407-1.194.568-2.603.851-4.227.851Zm-.323-3.464c.998 0 1.83-.283 2.495-.851.685-.587 1.028-1.438 1.028-2.554 0-1.115-.353-1.947-1.057-2.495-.685-.568-1.527-.851-2.525-.851-1.017 0-1.878.283-2.583.85-.705.549-1.057 1.361-1.057 2.437 0 .725.167 1.35.5 1.88.352.508.802.9 1.35 1.173a4.197 4.197 0 0 0 1.849.411Zm17.644 3.464c-2.172 0-3.953-.557-5.343-1.673-1.39-1.116-2.25-2.681-2.583-4.697h4.492c.156.9.547 1.615 1.174 2.143.626.509 1.34.763 2.143.763.92 0 1.653-.313 2.201-.94.568-.645.852-1.614.852-2.905 0-1.233-.265-2.172-.793-2.818-.528-.666-1.253-.998-2.172-.998-.529 0-1.028.127-1.497.381-.47.235-.861.626-1.175 1.174h-4.11l1.087-11.86h12.153v3.465H78.597l2.407-.323-.528 6.605-1.468-.206c.509-.802 1.125-1.409 1.85-1.82.743-.43 1.682-.646 2.817-.646 1.35 0 2.535.294 3.552.881a6.138 6.138 0 0 1 2.378 2.466c.568 1.057.852 2.31.852 3.758 0 1.526-.323 2.827-.97 3.904-.645 1.076-1.545 1.908-2.7 2.495-1.155.568-2.505.851-4.051.851Z"/><path stroke="#BFBFBF" stroke-linecap="round" stroke-width=".662" d="m103.874 113.084 1.114 1.336m-30.964 9.133v1.708M43.756 113.05l-1.186 1.322"/><path stroke="#404040" stroke-dasharray="1.01 1.01" stroke-width="2.025" d="M50.377 29.548a50.088 50.088 0 0 1 56.751 81.618"/><path stroke="#E0E0E0" stroke-dasharray="1.01 1.01" stroke-width="2.025" d="M39.774 110.763a50.085 50.085 0 0 1-7.13-65.603A50.09 50.09 0 0 1 50.52 29.473"/></g><g clip-path="url(#c)"><circle cx="190.807" cy="129.295" r="55.041" fill="#171414"/><path stroke="#E0E0E0" stroke-linecap="round" stroke-width=".993" d="M162.074 166.624a45.277 45.277 0 0 0 28.717 10.216 45.277 45.277 0 0 0 28.717-10.216"/><g clip-path="url(#d)"><path fill="#fff" d="M185.22 168.229h-3.468a.495.495 0 0 0-.495.495v1.981a.496.496 0 0 0 .495.496h3.468a.495.495 0 0 0 .495-.496v-1.981a.495.495 0 0 0-.495-.495Zm.165 2.476a.166.166 0 0 1-.049.117.165.165 0 0 1-.116.049h-3.468a.166.166 0 0 1-.165-.166v-1.981a.165.165 0 0 1 .165-.165h3.468a.164.164 0 0 1 .165.165v1.981Zm-1.321-1.651v1.321a.166.166 0 0 1-.282.117.165.165 0 0 1-.048-.117v-1.321a.165.165 0 1 1 .33 0Zm-.826 0v1.321a.165.165 0 1 1-.33 0v-1.321a.165.165 0 1 1 .33 0Zm-.825 0v1.321a.166.166 0 0 1-.331 0v-1.321a.166.166 0 0 1 .331 0Zm3.963 0v1.321a.166.166 0 0 1-.331 0v-1.321a.166.166 0 0 1 .331 0Z"/></g><path fill="#fff" d="M189.06 171.252a1.19 1.19 0 0 1-.505-.103.88.88 0 0 1-.361-.304.978.978 0 0 1-.16-.486h.494a.619.619 0 0 0 .167.376.494.494 0 0 0 .354.125.455.455 0 0 0 .319-.11c.083-.073.125-.178.125-.315a.456.456 0 0 0-.121-.331c-.079-.083-.203-.125-.373-.125h-.277v-.384h.266c.149 0 .26-.035.33-.106a.382.382 0 0 0 .111-.282.375.375 0 0 0-.099-.273c-.063-.069-.161-.103-.293-.103a.482.482 0 0 0-.315.11.473.473 0 0 0-.156.32h-.502a.971.971 0 0 1 .156-.437.845.845 0 0 1 .342-.282c.142-.068.306-.102.49-.102.183 0 .341.03.475.091a.694.694 0 0 1 .312.251.642.642 0 0 1 .114.384.642.642 0 0 1-.315.566.57.57 0 0 1-.289.08l-.012-.08c.142 0 .264.033.365.099a.61.61 0 0 1 .232.258.796.796 0 0 1 .084.369c0 .159-.042.3-.126.421a.796.796 0 0 1-.338.278 1.223 1.223 0 0 1-.494.095Zm2.185 0c-.276 0-.501-.072-.676-.217a.933.933 0 0 1-.323-.596h.502a.488.488 0 0 0 .167.311c.091.074.197.11.319.11a.429.429 0 0 0 .327-.133c.086-.088.129-.225.129-.41 0-.18-.042-.315-.125-.407a.412.412 0 0 0-.327-.14.5.5 0 0 0-.24.057.375.375 0 0 0-.159.159h-.449l.133-1.508h1.532v.391h-1.33l.243-.068-.076.938-.152-.026a.675.675 0 0 1 .236-.224.717.717 0 0 1 .365-.084c.174 0 .326.038.456.114a.793.793 0 0 1 .307.319.977.977 0 0 1 .114.487c0 .195-.04.362-.121.501a.818.818 0 0 1-.338.316 1.13 1.13 0 0 1-.514.11Zm2.38 0c-.223 0-.421-.06-.593-.179a1.23 1.23 0 0 1-.407-.501 1.796 1.796 0 0 1-.144-.738c0-.276.048-.518.144-.725.096-.211.231-.374.403-.491.175-.119.374-.178.597-.178.225 0 .424.059.596.178.172.117.307.28.403.491.099.207.148.449.148.725 0 .279-.049.525-.148.738-.096.212-.231.38-.403.501a1.023 1.023 0 0 1-.596.179Zm0-.414a.477.477 0 0 0 .345-.133.82.82 0 0 0 .206-.361 1.7 1.7 0 0 0 .072-.513c0-.19-.023-.359-.069-.506a.743.743 0 0 0-.209-.346.493.493 0 0 0-.345-.125.491.491 0 0 0-.346.129.763.763 0 0 0-.205.346 1.678 1.678 0 0 0-.069.502c0 .192.023.364.069.516a.79.79 0 0 0 .209.361c.093.087.207.13.342.13Zm2.276.376v-1.938h.468v.456h.011v1.482h-.479Zm1.304 0v-1.25c0-.114-.029-.198-.088-.251-.055-.056-.135-.084-.239-.084a.502.502 0 0 0-.251.065.482.482 0 0 0-.182.182.563.563 0 0 0-.065.274l-.049-.445a.812.812 0 0 1 .285-.338.74.74 0 0 1 .433-.129c.197 0 .353.057.467.171a.578.578 0 0 1 .171.433v1.372h-.482Zm1.303 0v-1.25c0-.114-.028-.198-.084-.251-.055-.056-.135-.084-.239-.084a.509.509 0 0 0-.255.065.458.458 0 0 0-.178.182.563.563 0 0 0-.065.274l-.083-.445a.794.794 0 0 1 .737-.467c.203 0 .361.058.475.175a.611.611 0 0 1 .175.456v1.345h-.483Zm.956 0v-1.938h.479v1.938h-.479Zm-.023-2.257v-.529h.521v.529h-.521Zm-14.844-23.965v-3.136h.461v.738h.031v2.398h-.492Zm2.115 0v-2.078c0-.238-.053-.412-.16-.523-.106-.11-.26-.166-.461-.166a.973.973 0 0 0-.873.511c-.086.16-.129.346-.129.559l-.08-.744a1.26 1.26 0 0 1 .48-.553c.213-.135.444-.203.694-.203.304 0 .55.09.738.271.189.176.283.416.283.719v2.207h-.492Zm2.115 0v-2.078c0-.238-.053-.412-.16-.523-.106-.11-.26-.166-.461-.166a.973.973 0 0 0-.873.511c-.086.16-.129.346-.129.559l-.123-.744c.107-.233.271-.418.492-.553.221-.135.459-.203.713-.203.304 0 .552.09.744.271.193.176.289.416.289.719v2.207h-.492Zm2.988.056c-.295 0-.543-.072-.744-.216a1.077 1.077 0 0 1-.412-.608l.098-.013v2.042h-.492v-4.397h.461v.732l-.067-.018c.078-.242.225-.431.442-.566.218-.139.47-.209.757-.209a1.289 1.289 0 0 1 1.211.769c.115.241.172.524.172.848 0 .328-.059.615-.178.861a1.366 1.366 0 0 1-.498.572 1.371 1.371 0 0 1-.75.203Zm-.074-.431c.311 0 .555-.106.732-.32.176-.217.264-.512.264-.885 0-.369-.088-.658-.264-.867-.177-.213-.421-.32-.732-.32-.312 0-.558.109-.738.326-.18.213-.27.506-.27.879 0 .365.09.654.27.867.18.214.426.32.738.32Zm2.253.375v-4.427h.492v4.427h-.492Zm2.244 0v-2.053c0-.238-.059-.416-.178-.535-.119-.119-.295-.179-.529-.179-.205 0-.387.045-.547.136a.978.978 0 0 0-.369.375c-.086.16-.129.346-.129.559l-.08-.744c.107-.233.268-.418.486-.553a1.41 1.41 0 0 1 .75-.203c.328 0 .59.094.787.283.201.184.301.428.301.731v2.183h-.492Zm-13.688-7.364c-2.779 0-4.932-.901-6.459-2.701-1.507-1.82-2.26-4.384-2.26-7.691 0-2.329.362-4.335 1.086-6.018.744-1.703 1.791-3.014 3.141-3.934 1.351-.92 2.936-1.379 4.756-1.379 2.055 0 3.728.547 5.02 1.643 1.311 1.077 2.113 2.574 2.407 4.492h-4.492c-.098-.861-.42-1.517-.968-1.967-.529-.47-1.194-.705-1.997-.705-1.428 0-2.495.617-3.199 1.85-.705 1.233-1.057 3.141-1.057 5.724v1.908l-.91-.264c.215-.939.597-1.751 1.145-2.436a5.487 5.487 0 0 1 2.055-1.586c.841-.371 1.78-.557 2.818-.557 1.37 0 2.573.283 3.61.851a5.804 5.804 0 0 1 2.408 2.348c.587.998.88 2.173.88 3.523 0 1.389-.332 2.603-.998 3.64-.646 1.037-1.565 1.84-2.759 2.407-1.194.568-2.603.852-4.227.852Zm-.323-3.464c.998 0 1.829-.284 2.495-.852.685-.587 1.027-1.438 1.027-2.554 0-1.115-.352-1.947-1.057-2.495-.684-.567-1.526-.851-2.524-.851-1.018 0-1.879.284-2.583.851-.705.548-1.057 1.36-1.057 2.437 0 .724.166 1.35.499 1.878.352.509.802.901 1.35 1.175a4.2 4.2 0 0 0 1.85.411Zm17.644 3.464c-2.173 0-3.954-.558-5.343-1.674-1.39-1.115-2.251-2.681-2.583-4.697h4.491c.157.901.548 1.615 1.174 2.143a3.307 3.307 0 0 0 2.143.764c.92 0 1.654-.314 2.202-.94.567-.646.851-1.614.851-2.906 0-1.233-.264-2.172-.792-2.818-.529-.665-1.253-.998-2.173-.998-.528 0-1.027.127-1.497.381-.47.235-.861.627-1.174 1.175h-4.11l1.086-11.86h12.153v3.464h-10.567l2.407-.323-.529 6.605-1.467-.205c.508-.803 1.125-1.409 1.849-1.82.744-.431 1.683-.646 2.818-.646 1.35 0 2.534.293 3.552.88a6.139 6.139 0 0 1 2.378 2.466c.567 1.057.851 2.31.851 3.758 0 1.526-.323 2.828-.969 3.904-.645 1.076-1.546 1.908-2.7 2.495-1.155.568-2.505.852-4.051.852Z"/><path stroke="#BFBFBF" stroke-linecap="round" stroke-width=".662" d="m221.009 168.489 1.114 1.336m-30.964 9.134v1.708m-30.269-12.212-1.185 1.322"/><path stroke="#404040" stroke-dasharray="1.01 1.01" stroke-width="2.025" d="M167.512 84.954a50.088 50.088 0 0 1 56.751 81.617"/><path stroke="#E0E0E0" stroke-dasharray="1.01 1.01" stroke-width="2.025" d="M156.909 166.168a50.088 50.088 0 0 1 10.747-81.29"/><path stroke="#fff" stroke-dasharray="1.01 20.25" stroke-width="4.049" d="M157.744 165.56a49.08 49.08 0 0 1 5.447-76.833 49.077 49.077 0 0 1 60.399 77.088"/></g><g clip-path="url(#e)"><circle cx="313.428" cy="183.694" r="55.041" fill="#171414"/><path stroke="#E0E0E0" stroke-linecap="round" stroke-width=".993" d="M284.695 221.022a45.27 45.27 0 0 0 28.717 10.217 45.267 45.267 0 0 0 28.716-10.217"/><g clip-path="url(#f)"><path fill="#fff" d="M307.84 222.626h-3.467a.496.496 0 0 0-.496.495v1.982a.495.495 0 0 0 .496.495h3.467a.492.492 0 0 0 .495-.495v-1.982a.495.495 0 0 0-.495-.495Zm.165 2.477a.165.165 0 0 1-.165.165h-3.467a.165.165 0 0 1-.166-.165v-1.982c0-.043.018-.085.049-.116a.166.166 0 0 1 .117-.049h3.467a.166.166 0 0 1 .165.165v1.982Zm-1.321-1.651v1.321a.164.164 0 0 1-.165.165.166.166 0 0 1-.165-.165v-1.321a.165.165 0 1 1 .33 0Zm-.825 0v1.321a.165.165 0 0 1-.049.116.165.165 0 0 1-.116.049.166.166 0 0 1-.117-.049.165.165 0 0 1-.049-.116v-1.321c0-.044.018-.086.049-.117a.166.166 0 0 1 .117-.049c.043 0 .085.018.116.049a.166.166 0 0 1 .049.117Zm-.826 0v1.321a.164.164 0 0 1-.165.165.166.166 0 0 1-.165-.165v-1.321a.165.165 0 1 1 .33 0Zm3.963 0v1.321a.164.164 0 0 1-.165.165.166.166 0 0 1-.165-.165v-1.321a.165.165 0 1 1 .33 0Z"/></g><path fill="#fff" d="M311.681 225.649a1.21 1.21 0 0 1-.506-.102.901.901 0 0 1-.361-.304.995.995 0 0 1-.159-.487h.494c.022.168.078.293.167.377a.494.494 0 0 0 .353.125.458.458 0 0 0 .319-.11c.084-.074.126-.179.126-.316a.454.454 0 0 0-.122-.33c-.078-.084-.203-.126-.372-.126h-.278v-.383h.266c.15 0 .26-.036.331-.107a.381.381 0 0 0 .11-.281.38.38 0 0 0-.099-.274c-.063-.068-.161-.102-.292-.102a.477.477 0 0 0-.316.11.466.466 0 0 0-.155.319h-.502a.952.952 0 0 1 .156-.437.843.843 0 0 1 .342-.281c.142-.069.305-.103.49-.103.182 0 .341.031.475.091a.712.712 0 0 1 .312.251.646.646 0 0 1 .114.384.642.642 0 0 1-.316.566.555.555 0 0 1-.289.08l-.011-.08c.142 0 .263.033.365.099.101.063.178.15.232.259a.8.8 0 0 1 .083.368c0 .16-.042.3-.125.422a.801.801 0 0 1-.338.277c-.145.064-.31.095-.494.095Zm2.185 0c-.276 0-.502-.072-.676-.216a.934.934 0 0 1-.323-.597h.501a.503.503 0 0 0 .167.312.5.5 0 0 0 .32.11.425.425 0 0 0 .326-.133c.087-.089.13-.226.13-.41 0-.18-.042-.316-.126-.407a.41.41 0 0 0-.327-.141.5.5 0 0 0-.239.057.38.38 0 0 0-.16.16h-.448l.133-1.509h1.531v.392h-1.33l.244-.069-.076.939-.152-.027a.69.69 0 0 1 .235-.224.717.717 0 0 1 .365-.084c.175 0 .327.038.456.114a.804.804 0 0 1 .308.32.97.97 0 0 1 .114.486.985.985 0 0 1-.122.502.81.81 0 0 1-.338.315 1.11 1.11 0 0 1-.513.11Zm2.379 0c-.223 0-.421-.059-.593-.178a1.231 1.231 0 0 1-.406-.502 1.776 1.776 0 0 1-.145-.737c0-.276.048-.518.145-.726.096-.21.23-.374.402-.49.175-.119.374-.179.597-.179.226 0 .424.06.597.179.172.116.306.28.402.49.099.208.149.45.149.726 0 .279-.05.524-.149.737-.096.213-.23.38-.402.502a1.025 1.025 0 0 1-.597.178Zm0-.414a.475.475 0 0 0 .346-.133.828.828 0 0 0 .205-.361 1.7 1.7 0 0 0 .072-.513c0-.19-.023-.358-.068-.505a.746.746 0 0 0-.209-.346.491.491 0 0 0-.346-.126.494.494 0 0 0-.346.13.768.768 0 0 0-.205.345 1.684 1.684 0 0 0-.068.502c0 .193.022.365.068.517a.805.805 0 0 0 .209.361.488.488 0 0 0 .342.129Zm2.277.376v-1.938h.467v.456h.012v1.482h-.479Zm1.303 0v-1.25c0-.114-.029-.197-.087-.251-.056-.055-.136-.083-.24-.083a.498.498 0 0 0-.433.247.556.556 0 0 0-.064.273l-.05-.444a.815.815 0 0 1 .285-.339.742.742 0 0 1 .433-.129c.198 0 .354.057.468.171a.58.58 0 0 1 .171.434v1.371h-.483Zm1.304 0v-1.25c0-.114-.028-.197-.084-.251a.328.328 0 0 0-.239-.083.508.508 0 0 0-.255.064.457.457 0 0 0-.179.183.556.556 0 0 0-.064.273l-.084-.444a.79.79 0 0 1 .737-.468c.203 0 .361.059.475.175a.607.607 0 0 1 .175.456v1.345h-.482Zm.955 0v-1.938h.479v1.938h-.479Zm-.023-2.257v-.528h.521v.528h-.521Zm-14.843-23.963v-3.136h.461v.738h.03v2.398h-.491Zm2.115 0v-2.079c0-.237-.054-.412-.16-.522-.107-.111-.261-.166-.461-.166a.983.983 0 0 0-.873.51c-.087.16-.13.346-.13.56l-.079-.744a1.26 1.26 0 0 1 .479-.554c.213-.135.445-.203.695-.203.303 0 .549.091.738.271.188.176.283.416.283.719v2.208h-.492Zm2.115 0v-2.079c0-.237-.054-.412-.16-.522-.107-.111-.26-.166-.461-.166a.983.983 0 0 0-.873.51c-.086.16-.129.346-.129.56l-.123-.744c.106-.234.27-.418.491-.554.222-.135.46-.203.714-.203.303 0 .551.091.744.271.192.176.289.416.289.719v2.208h-.492Zm2.987.055a1.25 1.25 0 0 1-.744-.215 1.083 1.083 0 0 1-.412-.609l.099-.012v2.041h-.492v-4.396h.461v.732l-.068-.019c.078-.242.226-.43.443-.566.217-.139.469-.209.756-.209a1.29 1.29 0 0 1 1.211.769c.115.242.173.525.173.848 0 .328-.06.615-.179.861a1.36 1.36 0 0 1-.498.572 1.371 1.371 0 0 1-.75.203Zm-.074-.43c.312 0 .556-.107.732-.32.176-.217.264-.513.264-.886 0-.368-.088-.657-.264-.866-.176-.214-.42-.32-.732-.32-.311 0-.557.108-.737.326-.181.213-.271.506-.271.879 0 .365.09.654.271.867.18.213.426.32.737.32Zm2.253.375v-4.427h.492v4.427h-.492Zm2.245 0v-2.054c0-.238-.06-.416-.179-.535-.119-.119-.295-.178-.528-.178a1.1 1.1 0 0 0-.548.135.992.992 0 0 0-.369.375c-.086.16-.129.346-.129.56l-.08-.744c.107-.234.269-.418.486-.554.221-.135.472-.203.75-.203.328 0 .59.095.787.283.201.185.302.429.302.732v2.183h-.492Zm-13.689-7.365c-2.779 0-4.932-.9-6.458-2.701-1.507-1.82-2.261-4.383-2.261-7.691 0-2.329.362-4.335 1.087-6.018.743-1.702 1.79-3.014 3.141-3.933 1.35-.92 2.935-1.38 4.755-1.38 2.055 0 3.728.548 5.02 1.644 1.311 1.076 2.114 2.573 2.407 4.491h-4.491c-.098-.861-.421-1.516-.969-1.967-.528-.469-1.194-.704-1.996-.704-1.429 0-2.495.616-3.2 1.849-.704 1.233-1.057 3.141-1.057 5.725v1.908l-.91-.265c.216-.939.597-1.751 1.145-2.436a5.485 5.485 0 0 1 2.055-1.585c.841-.372 1.781-.558 2.818-.558 1.37 0 2.574.284 3.611.851a5.803 5.803 0 0 1 2.407 2.349c.587.998.881 2.172.881 3.522 0 1.39-.333 2.603-.998 3.641-.646 1.037-1.566 1.839-2.76 2.407-1.194.567-2.603.851-4.227.851Zm-.323-3.464c.998 0 1.83-.284 2.495-.851.685-.587 1.028-1.439 1.028-2.554 0-1.116-.353-1.947-1.057-2.495-.685-.568-1.527-.852-2.525-.852-1.017 0-1.878.284-2.583.852-.704.548-1.057 1.36-1.057 2.436 0 .724.167 1.35.499 1.879.353.509.803.9 1.351 1.174a4.195 4.195 0 0 0 1.849.411Zm17.644 3.464c-2.172 0-3.953-.558-5.343-1.673-1.389-1.116-2.25-2.681-2.583-4.697h4.491c.157.9.548 1.614 1.175 2.143.626.509 1.34.763 2.143.763.919 0 1.653-.313 2.201-.939.568-.646.852-1.615.852-2.907 0-1.232-.265-2.172-.793-2.818-.528-.665-1.253-.998-2.172-.998-.529 0-1.028.127-1.497.382-.47.235-.862.626-1.175 1.174h-4.109l1.086-11.86h12.153v3.464h-10.568l2.407-.322-.528 6.605-1.468-.206c.509-.802 1.125-1.409 1.849-1.82.744-.431 1.683-.646 2.818-.646 1.351 0 2.535.294 3.552.881a6.132 6.132 0 0 1 2.378 2.466c.568 1.056.852 2.309.852 3.757 0 1.527-.323 2.828-.969 3.904-.646 1.077-1.546 1.909-2.701 2.496-1.155.567-2.505.851-4.051.851Z"/><path stroke="#BFBFBF" stroke-linecap="round" stroke-width=".662" d="m343.629 222.887 1.114 1.337m-30.964 9.133v1.708m-30.268-12.211-1.186 1.322"/><path stroke="#404040" stroke-dasharray="1.01 1.01" stroke-width="2.025" d="M290.132 139.352a50.088 50.088 0 0 1 56.751 81.618"/><path stroke="#E0E0E0" stroke-dasharray="1.01 1.01" stroke-width="2.025" d="M279.529 220.567a50.098 50.098 0 0 1-15.757-43.439 50.088 50.088 0 0 1 26.504-37.851"/><path stroke="#E0E0E0" stroke-linecap="round" stroke-width="1.012" d="M276.578 223.779a54.451 54.451 0 0 1 11.683-88.366"/><path stroke="#fff" stroke-dasharray="1.01 20.25" stroke-width="4.049" d="M280.364 219.959a49.08 49.08 0 0 1 5.447-76.834 49.071 49.071 0 0 1 73.48 23.105 49.072 49.072 0 0 1-13.081 53.984"/></g><g clip-path="url(#g)"><circle cx="436.327" cy="239.099" r="55.041" fill="#171414"/><path stroke="#E0E0E0" stroke-linecap="round" stroke-width=".993" d="M407.594 276.428a45.277 45.277 0 0 0 28.717 10.216 45.277 45.277 0 0 0 28.717-10.216"/><g clip-path="url(#h)"><path fill="#fff" d="M430.74 278.032h-3.468a.495.495 0 0 0-.495.496v1.981a.495.495 0 0 0 .495.495h3.468a.495.495 0 0 0 .495-.495v-1.981a.496.496 0 0 0-.495-.496Zm.165 2.477a.166.166 0 0 1-.165.165h-3.468a.165.165 0 0 1-.165-.165v-1.981a.165.165 0 0 1 .165-.166h3.468c.043 0 .085.018.116.049a.166.166 0 0 1 .049.117v1.981Zm-1.321-1.651v1.321a.166.166 0 0 1-.331 0v-1.321a.166.166 0 0 1 .331 0Zm-.826 0v1.321a.165.165 0 1 1-.33 0v-1.321a.165.165 0 1 1 .33 0Zm-.826 0v1.321a.165.165 0 1 1-.33 0v-1.321a.166.166 0 0 1 .282-.117.165.165 0 0 1 .048.117Zm3.963 0v1.321a.165.165 0 1 1-.33 0v-1.321a.166.166 0 0 1 .282-.117.165.165 0 0 1 .048.117Z"/></g><path fill="#fff" d="M434.58 281.056c-.187 0-.356-.035-.505-.103a.887.887 0 0 1-.361-.304.978.978 0 0 1-.16-.486h.494a.619.619 0 0 0 .167.376.498.498 0 0 0 .354.125.46.46 0 0 0 .319-.11c.083-.073.125-.179.125-.315a.456.456 0 0 0-.121-.331c-.079-.084-.203-.125-.373-.125h-.277v-.384h.266c.149 0 .26-.036.33-.107a.378.378 0 0 0 .111-.281.375.375 0 0 0-.099-.273c-.063-.069-.161-.103-.293-.103a.48.48 0 0 0-.315.11.47.47 0 0 0-.156.319h-.502a.98.98 0 0 1 .156-.437.851.851 0 0 1 .342-.281 1.12 1.12 0 0 1 .49-.102c.183 0 .341.03.475.091a.694.694 0 0 1 .312.251.64.64 0 0 1 .114.383.645.645 0 0 1-.315.567.57.57 0 0 1-.289.079l-.012-.079c.142 0 .264.032.365.098.102.064.179.15.232.259a.794.794 0 0 1 .084.368c0 .16-.042.301-.126.422a.803.803 0 0 1-.338.278 1.223 1.223 0 0 1-.494.095Zm2.185 0c-.276 0-.501-.073-.676-.217a.933.933 0 0 1-.323-.597h.502a.488.488 0 0 0 .167.312c.091.073.197.11.319.11a.429.429 0 0 0 .327-.133c.086-.088.129-.225.129-.41 0-.18-.042-.316-.125-.407a.409.409 0 0 0-.327-.14.5.5 0 0 0-.24.057.375.375 0 0 0-.159.159h-.449l.133-1.508h1.532v.391h-1.33l.243-.068-.076.938-.152-.026a.687.687 0 0 1 .236-.225.726.726 0 0 1 .364-.083c.175 0 .327.038.456.114a.789.789 0 0 1 .308.319.97.97 0 0 1 .114.486c0 .195-.04.363-.121.502a.806.806 0 0 1-.339.315 1.11 1.11 0 0 1-.513.111Zm2.38 0c-.223 0-.421-.06-.593-.179a1.233 1.233 0 0 1-.407-.502 1.792 1.792 0 0 1-.144-.737c0-.276.048-.518.144-.726a1.16 1.16 0 0 1 .403-.49c.175-.119.374-.178.597-.178.225 0 .424.059.596.178.172.117.307.28.403.49.099.208.148.45.148.726 0 .279-.049.525-.148.737a1.21 1.21 0 0 1-.403.502 1.023 1.023 0 0 1-.596.179Zm0-.415a.473.473 0 0 0 .345-.133.814.814 0 0 0 .206-.361 1.7 1.7 0 0 0 .072-.513c0-.19-.023-.358-.069-.505a.743.743 0 0 0-.209-.346.493.493 0 0 0-.345-.125.491.491 0 0 0-.346.129.764.764 0 0 0-.206.346 1.71 1.71 0 0 0-.068.501c0 .193.023.365.068.517a.808.808 0 0 0 .209.361.49.49 0 0 0 .343.129Zm2.276.377v-1.938h.468v.456h.011v1.482h-.479Zm1.304 0v-1.251c0-.114-.03-.197-.088-.25-.056-.056-.135-.084-.239-.084a.492.492 0 0 0-.433.247.56.56 0 0 0-.065.274l-.049-.445a.792.792 0 0 1 .285-.338.74.74 0 0 1 .433-.129c.197 0 .353.057.467.171a.577.577 0 0 1 .171.433v1.372h-.482Zm1.303 0v-1.251c0-.114-.028-.197-.084-.25-.055-.056-.135-.084-.239-.084a.499.499 0 0 0-.255.065.452.452 0 0 0-.178.182.56.56 0 0 0-.065.274l-.083-.445a.794.794 0 0 1 .737-.467c.203 0 .361.058.475.174a.611.611 0 0 1 .175.456v1.346h-.483Zm.956 0v-1.938h.479v1.938h-.479Zm-.023-2.258v-.528h.521v.528h-.521Zm-14.844-23.964v-3.136h.461v.738h.031v2.398h-.492Zm2.115 0v-2.078c0-.238-.053-.412-.16-.523-.106-.111-.26-.166-.461-.166a.982.982 0 0 0-.873.51c-.086.16-.129.347-.129.56l-.08-.744a1.26 1.26 0 0 1 .48-.553c.213-.136.444-.203.694-.203.304 0 .55.09.738.27.189.176.283.416.283.72v2.207h-.492Zm2.115 0v-2.078c0-.238-.053-.412-.16-.523-.106-.111-.26-.166-.461-.166a.982.982 0 0 0-.873.51c-.086.16-.129.347-.129.56l-.123-.744c.107-.234.271-.418.492-.553.221-.136.459-.203.713-.203.304 0 .552.09.744.27.193.176.289.416.289.72v2.207h-.492Zm2.988.055c-.295 0-.543-.071-.744-.215a1.077 1.077 0 0 1-.412-.609l.098-.012v2.041h-.492v-4.396h.461v.732l-.067-.019c.078-.241.225-.43.443-.565.217-.14.469-.209.756-.209.279 0 .52.067.725.203.209.135.371.323.486.565.115.242.172.525.172.849 0 .328-.059.615-.178.861a1.363 1.363 0 0 1-.498.571 1.363 1.363 0 0 1-.75.203Zm-.074-.43c.311 0 .555-.107.732-.32.176-.217.264-.512.264-.885 0-.369-.088-.658-.264-.867-.177-.213-.421-.32-.732-.32-.312 0-.557.109-.738.326-.18.213-.27.506-.27.879 0 .365.09.654.27.867.181.213.426.32.738.32Zm2.253.375v-4.427h.492v4.427h-.492Zm2.244 0v-2.054c0-.237-.059-.416-.178-.535-.119-.118-.295-.178-.529-.178-.205 0-.387.045-.547.135a.992.992 0 0 0-.369.375c-.086.16-.129.347-.129.56l-.08-.744c.107-.234.268-.418.486-.553.221-.136.471-.203.75-.203.328 0 .59.094.787.283.201.184.301.428.301.731v2.183h-.492Zm-13.688-7.365c-2.779 0-4.932-.9-6.459-2.7-1.506-1.82-2.26-4.384-2.26-7.692 0-2.328.362-4.334 1.086-6.017.744-1.703 1.791-3.014 3.141-3.934 1.351-.92 2.936-1.38 4.756-1.38 2.055 0 3.728.548 5.02 1.644 1.311 1.076 2.113 2.574 2.407 4.492h-4.492c-.097-.862-.42-1.517-.968-1.967-.529-.47-1.194-.705-1.997-.705-1.428 0-2.495.617-3.199 1.85-.705 1.232-1.057 3.141-1.057 5.724v1.908l-.91-.264c.215-.94.597-1.752 1.145-2.437a5.485 5.485 0 0 1 2.055-1.585c.841-.372 1.781-.558 2.818-.558 1.37 0 2.573.284 3.611.852a5.801 5.801 0 0 1 2.407 2.348c.587.998.88 2.172.88 3.523 0 1.389-.332 2.603-.998 3.64-.646 1.037-1.565 1.839-2.759 2.407-1.194.567-2.603.851-4.227.851Zm-.323-3.464c.998 0 1.83-.283 2.495-.851.685-.587 1.027-1.438 1.027-2.554 0-1.115-.352-1.947-1.056-2.495-.685-.568-1.527-.851-2.525-.851-1.018 0-1.879.283-2.583.851-.705.548-1.057 1.36-1.057 2.436 0 .724.166 1.351.499 1.879.352.509.802.9 1.35 1.174a4.2 4.2 0 0 0 1.85.411Zm17.644 3.464c-2.173 0-3.953-.558-5.343-1.673-1.389-1.116-2.251-2.681-2.583-4.697h4.491c.157.9.548 1.615 1.174 2.143a3.306 3.306 0 0 0 2.143.763c.92 0 1.654-.313 2.202-.939.568-.646.851-1.615.851-2.906 0-1.233-.264-2.173-.792-2.818-.529-.666-1.253-.998-2.173-.998-.528 0-1.027.127-1.497.381-.469.235-.861.626-1.174 1.174h-4.11l1.086-11.859h12.154v3.464h-10.568l2.407-.323-.529 6.605-1.467-.206c.508-.802 1.125-1.409 1.849-1.82.744-.43 1.683-.646 2.818-.646 1.35 0 2.534.294 3.552.881a6.139 6.139 0 0 1 2.378 2.466c.567 1.057.851 2.309.851 3.757 0 1.527-.323 2.828-.969 3.905-.645 1.076-1.546 1.908-2.7 2.495-1.155.567-2.505.851-4.051.851Z"/><path stroke="#BFBFBF" stroke-linecap="round" stroke-width=".662" d="m466.529 278.293 1.114 1.336m-30.964 9.133v1.708m-30.269-12.211-1.185 1.322"/><path stroke="#BFBFBF" stroke-dasharray="1.01 1.01" stroke-width="2.025" d="M413.032 194.758a50.087 50.087 0 0 1 73.047 50.133 50.085 50.085 0 0 1-16.296 31.485"/><path fill="url(#i)" d="M410.926 190.37a54.958 54.958 0 0 0-26.259 67.471 54.952 54.952 0 0 0 14.468 21.717l24.783-26.958a18.342 18.342 0 0 1-5.768-15.902 18.332 18.332 0 0 1 9.702-13.856l-16.926-32.472Z"/><path stroke="#2A2A2A" stroke-dasharray="1.01 1.01" stroke-width="2.025" d="M402.429 275.973a50.084 50.084 0 0 1 10.747-81.29"/><path stroke="#BFBFBF" stroke-dasharray="1.01 20.25" stroke-width="4.049" d="M403.264 275.365a49.072 49.072 0 0 1 33.253-85.341 49.072 49.072 0 0 1 45.674 31.612 49.08 49.08 0 0 1-13.082 53.984"/><path fill="#2A2A2A" d="m384.782 251.952-.35-1.474 7.901-1.743.305 1.251-7.856 1.966Zm16.333 26.916-1.121-1.019 5.536-5.9.959.86-5.374 6.059Zm-14.55-58.337.544-1.414 7.505 3.024-.455 1.205-7.594-2.815Zm19.247-24.927 1.253-.852 4.442 6.763-1.06.731-4.635-6.642Zm-.675 73.659c-.384 0-.725-.103-1.022-.308a2.135 2.135 0 0 1-.701-.865 3.083 3.083 0 0 1-.249-1.271c0-.476.083-.893.249-1.251.166-.363.398-.645.695-.846a1.784 1.784 0 0 1 1.028-.308c.389 0 .732.103 1.029.308.297.201.528.483.694.846.171.358.256.775.256 1.251 0 .48-.085.904-.256 1.271a2.081 2.081 0 0 1-.694.865c-.297.205-.64.308-1.029.308Zm0-.714a.822.822 0 0 0 .597-.23 1.41 1.41 0 0 0 .353-.622c.083-.262.125-.557.125-.885 0-.327-.039-.618-.118-.871a1.297 1.297 0 0 0-.36-.596.85.85 0 0 0-.597-.216.85.85 0 0 0-.596.222 1.322 1.322 0 0 0-.354.597 2.93 2.93 0 0 0-.118.864c0 .332.04.629.118.891.079.263.199.47.361.623a.84.84 0 0 0 .589.223Zm-10.369-18.555v-.675a34.41 34.41 0 0 0 1.114-.95c.301-.271.542-.509.721-.714.179-.205.306-.393.38-.563.078-.175.118-.345.118-.511 0-.219-.061-.389-.184-.511-.122-.123-.292-.184-.511-.184a.783.783 0 0 0-.557.203c-.144.131-.231.317-.262.557h-.865c.048-.441.225-.79.531-1.048.306-.258.703-.387 1.193-.387.484 0 .864.127 1.14.38.279.249.419.597.419 1.042 0 .223-.039.439-.118.649a2.37 2.37 0 0 1-.38.648c-.175.223-.411.47-.708.741-.292.266-.659.57-1.1.91l-.203-.262h2.594v.675h-3.322Zm5.684.066c-.384 0-.725-.103-1.022-.308a2.135 2.135 0 0 1-.701-.865 3.083 3.083 0 0 1-.249-1.271c0-.476.083-.893.249-1.252.166-.362.398-.644.695-.845a1.784 1.784 0 0 1 1.028-.308c.389 0 .732.103 1.029.308.297.201.529.483.695.845.17.359.255.776.255 1.252 0 .48-.085.904-.255 1.271a2.084 2.084 0 0 1-.695.865c-.297.205-.64.308-1.029.308Zm0-.714a.822.822 0 0 0 .597-.23 1.41 1.41 0 0 0 .353-.622c.083-.262.125-.557.125-.885 0-.327-.039-.618-.118-.871a1.297 1.297 0 0 0-.36-.596.851.851 0 0 0-.597-.217.853.853 0 0 0-.596.223 1.324 1.324 0 0 0-.354.596 2.944 2.944 0 0 0-.117.865c0 .332.039.629.117.891.079.262.199.47.361.623a.84.84 0 0 0 .589.223Zm-.74-22.781v-1.244l.039-.131v-2.693l.328.144-1.94 2.601-.373-.308h3.328v.675h-3.695v-.649l2.339-3.112h.845v4.717h-.871Zm3.755.066c-.384 0-.725-.103-1.022-.308a2.135 2.135 0 0 1-.701-.865 3.083 3.083 0 0 1-.249-1.271c0-.476.083-.893.249-1.251.166-.363.398-.645.695-.845a1.777 1.777 0 0 1 1.028-.308c.389 0 .732.102 1.029.308.297.2.529.482.694.845.171.358.256.775.256 1.251 0 .481-.085.904-.256 1.271a2.074 2.074 0 0 1-.694.865c-.297.205-.64.308-1.029.308Zm0-.714a.822.822 0 0 0 .597-.23c.157-.152.275-.36.353-.622.083-.262.125-.557.125-.884 0-.328-.039-.618-.118-.872a1.297 1.297 0 0 0-.36-.596.85.85 0 0 0-.597-.216.846.846 0 0 0-.596.223 1.318 1.318 0 0 0-.354.596 2.933 2.933 0 0 0-.118.865c0 .332.04.629.118.891.079.262.199.469.361.622a.836.836 0 0 0 .589.223Zm7.301-16.184c-.599 0-1.062-.201-1.389-.603-.324-.406-.485-.983-.485-1.73 0-.524.076-.974.229-1.35.157-.375.38-.664.668-.864a1.775 1.775 0 0 1 1.029-.302c.441 0 .801.12 1.081.361.28.235.452.565.518.989h-.865c-.026-.219-.107-.385-.243-.498a.716.716 0 0 0-.498-.177.846.846 0 0 0-.773.439c-.17.293-.255.743-.255 1.35v.426l-.184-.059a1.23 1.23 0 0 1 .734-.898c.192-.083.404-.125.636-.125.301 0 .565.064.792.19.228.127.404.304.531.531.131.223.197.487.197.793 0 .306-.072.574-.217.806a1.462 1.462 0 0 1-.602.531c-.258.126-.559.19-.904.19Zm-.046-.675a.878.878 0 0 0 .616-.223c.161-.149.242-.358.242-.629 0-.275-.081-.485-.242-.629-.162-.149-.372-.223-.629-.223a.974.974 0 0 0-.642.216c-.171.14-.256.343-.256.61a.88.88 0 0 0 .124.471.842.842 0 0 0 .328.302c.14.07.293.105.459.105Zm4.207.675c-.385 0-.725-.103-1.022-.308a2.127 2.127 0 0 1-.701-.865 3.087 3.087 0 0 1-.249-1.271c0-.476.083-.894.249-1.252.166-.362.397-.644.694-.845a1.785 1.785 0 0 1 1.029-.308c.388 0 .731.103 1.028.308.297.201.529.483.695.845.17.358.255.776.255 1.252 0 .48-.085.904-.255 1.271a2.084 2.084 0 0 1-.695.865c-.297.205-.64.308-1.028.308Zm0-.715a.82.82 0 0 0 .596-.229c.157-.153.275-.36.354-.622.083-.262.124-.557.124-.885 0-.327-.039-.618-.118-.871a1.275 1.275 0 0 0-.36-.596.845.845 0 0 0-.596-.217.85.85 0 0 0-.596.223 1.306 1.306 0 0 0-.354.596 2.91 2.91 0 0 0-.118.865c0 .332.039.629.118.891.078.262.198.47.36.623a.842.842 0 0 0 .59.222Z"/><path fill="#BFBFBF" d="M435.256 203.205c-.349 0-.655-.059-.917-.177a1.498 1.498 0 0 1-.616-.485 1.238 1.238 0 0 1-.216-.72c0-.236.052-.448.157-.636.105-.188.247-.334.426-.439.183-.109.393-.164.629-.164l.072.138c-.236 0-.441-.044-.616-.131a.96.96 0 0 1-.4-.38 1.167 1.167 0 0 1-.137-.57c0-.258.065-.483.196-.675.136-.192.324-.341.564-.445.244-.11.528-.164.852-.164.327 0 .611.054.851.164.241.104.426.253.557.445.136.192.203.415.203.668 0 .219-.046.411-.137.577a.96.96 0 0 1-.4.38 1.382 1.382 0 0 1-.622.131l.078-.138c.236 0 .444.055.623.164.183.105.327.251.432.439.105.188.157.4.157.636 0 .271-.072.511-.216.72-.144.21-.347.374-.609.492-.258.113-.561.17-.911.17Zm-.006-.675c.262 0 .465-.067.609-.203.148-.14.223-.33.223-.57 0-.24-.077-.428-.23-.563-.148-.136-.349-.203-.602-.203-.258 0-.461.067-.61.203-.148.135-.222.323-.222.563 0 .245.074.435.222.57.149.136.352.203.61.203Zm0-2.162a.743.743 0 0 0 .517-.177.64.64 0 0 0 .197-.491c0-.21-.068-.374-.203-.491a.745.745 0 0 0-.518-.177.72.72 0 0 0-.511.183.62.62 0 0 0-.197.485.64.64 0 0 0 .197.491.759.759 0 0 0 .518.177Zm4.19 2.837a1.75 1.75 0 0 1-1.022-.308 2.12 2.12 0 0 1-.701-.865 3.083 3.083 0 0 1-.249-1.271c0-.476.083-.893.249-1.251a1.99 1.99 0 0 1 .694-.845 1.782 1.782 0 0 1 1.029-.308c.389 0 .732.102 1.029.308.297.201.528.482.694.845.171.358.256.775.256 1.251 0 .481-.085.904-.256 1.271a2.075 2.075 0 0 1-.694.865 1.76 1.76 0 0 1-1.029.308Zm0-.714a.82.82 0 0 0 .596-.229c.158-.153.275-.361.354-.623.083-.262.125-.557.125-.884 0-.328-.04-.618-.118-.872a1.29 1.29 0 0 0-.361-.596.848.848 0 0 0-.596-.216.845.845 0 0 0-.596.223 1.324 1.324 0 0 0-.354.596 2.905 2.905 0 0 0-.118.865c0 .332.039.629.118.891.079.262.199.469.36.622a.84.84 0 0 0 .59.223Zm14.634 7.176v-3.964l.124.079a1.177 1.177 0 0 1-.288.373 2.164 2.164 0 0 1-1.022.472v-.819a1.84 1.84 0 0 0 .531-.17c.179-.088.34-.19.484-.308.145-.123.247-.249.308-.38h.695v4.717h-.832Zm3.451.066c-.385 0-.725-.103-1.022-.308a2.127 2.127 0 0 1-.701-.865 3.087 3.087 0 0 1-.249-1.271c0-.476.083-.894.249-1.252.166-.362.397-.644.694-.845a1.785 1.785 0 0 1 1.029-.308c.388 0 .731.103 1.028.308.297.201.529.483.695.845.17.358.255.776.255 1.252 0 .48-.085.904-.255 1.271a2.084 2.084 0 0 1-.695.865c-.297.205-.64.308-1.028.308Zm0-.715a.82.82 0 0 0 .596-.229c.157-.153.275-.36.354-.622.083-.262.124-.557.124-.885 0-.327-.039-.618-.118-.871a1.275 1.275 0 0 0-.36-.596.845.845 0 0 0-.596-.217.85.85 0 0 0-.596.223 1.306 1.306 0 0 0-.354.596 2.91 2.91 0 0 0-.118.865c0 .332.039.629.118.891.078.262.198.47.36.623a.842.842 0 0 0 .59.222Zm4.511.715c-.385 0-.726-.103-1.023-.308a2.135 2.135 0 0 1-.701-.865 3.087 3.087 0 0 1-.249-1.271c0-.476.083-.894.249-1.252.166-.362.398-.644.695-.845a1.785 1.785 0 0 1 1.029-.308c.388 0 .731.103 1.028.308.297.201.529.483.695.845.17.358.255.776.255 1.252 0 .48-.085.904-.255 1.271a2.084 2.084 0 0 1-.695.865c-.297.205-.64.308-1.028.308Zm0-.715a.82.82 0 0 0 .596-.229c.157-.153.275-.36.354-.622.083-.262.124-.557.124-.885 0-.327-.039-.618-.118-.871a1.292 1.292 0 0 0-.36-.596.846.846 0 0 0-.596-.217.853.853 0 0 0-.597.223 1.324 1.324 0 0 0-.354.596 2.944 2.944 0 0 0-.117.865c0 .332.039.629.117.891.079.262.199.47.361.623a.84.84 0 0 0 .59.222Zm4.289 17.547v-3.963l.125.078a1.18 1.18 0 0 1-.288.374 2.029 2.029 0 0 1-.459.294 2.183 2.183 0 0 1-.564.177v-.819a1.83 1.83 0 0 0 .531-.17c.179-.087.341-.19.485-.308.144-.122.247-.249.308-.38h.694v4.717h-.832Zm1.44 0v-.674c.445-.367.817-.684 1.114-.95.301-.271.541-.509.72-.715.179-.205.306-.393.38-.563.079-.175.118-.345.118-.511 0-.218-.061-.389-.183-.511-.123-.122-.293-.184-.511-.184a.779.779 0 0 0-.557.204c-.144.131-.232.316-.262.556h-.865c.048-.441.225-.79.531-1.048.305-.258.703-.386 1.192-.386.485 0 .865.126 1.14.38.28.249.419.596.419 1.041 0 .223-.039.439-.118.649a2.39 2.39 0 0 1-.38.649 6.3 6.3 0 0 1-.707.74c-.293.266-.66.57-1.101.911l-.203-.262h2.595v.674h-3.322Zm5.684.066c-.384 0-.725-.103-1.022-.308a2.127 2.127 0 0 1-.701-.865 3.083 3.083 0 0 1-.249-1.271c0-.476.083-.893.249-1.251.166-.363.397-.645.694-.845a1.782 1.782 0 0 1 1.029-.308c.389 0 .732.102 1.029.308.297.2.528.482.694.845.17.358.256.775.256 1.251 0 .481-.086.904-.256 1.271a2.081 2.081 0 0 1-.694.865c-.297.205-.64.308-1.029.308Zm0-.714a.82.82 0 0 0 .596-.23c.157-.152.275-.36.354-.622.083-.262.124-.557.124-.884 0-.328-.039-.618-.118-.872a1.28 1.28 0 0 0-.36-.596.848.848 0 0 0-.596-.216.845.845 0 0 0-.596.223 1.31 1.31 0 0 0-.354.596 2.9 2.9 0 0 0-.118.865c0 .332.039.629.118.891.079.262.199.469.36.622a.839.839 0 0 0 .59.223Zm-5.204 24.077v-3.964l.125.079a1.177 1.177 0 0 1-.288.373 1.998 1.998 0 0 1-.459.295 2.188 2.188 0 0 1-.563.177v-.819c.174-.026.351-.083.53-.17.179-.088.341-.19.485-.308.144-.122.247-.249.308-.38h.695v4.717h-.833Zm3.353.066c-.598 0-1.061-.201-1.389-.603-.323-.406-.485-.983-.485-1.73 0-.524.077-.974.23-1.349.157-.376.38-.664.668-.865a1.772 1.772 0 0 1 1.029-.302c.441 0 .801.12 1.081.361.279.236.452.565.517.989h-.865c-.026-.218-.107-.384-.242-.498a.716.716 0 0 0-.498-.177.845.845 0 0 0-.773.439c-.17.293-.256.743-.256 1.35v.426l-.183-.059a1.24 1.24 0 0 1 .255-.544c.127-.153.287-.271.479-.354.192-.083.404-.124.635-.124.302 0 .566.063.793.19.227.126.404.303.531.53.131.223.196.487.196.793 0 .306-.072.574-.216.806a1.459 1.459 0 0 1-.603.531c-.257.126-.559.19-.904.19Zm-.046-.675a.872.872 0 0 0 .616-.223c.162-.148.243-.358.243-.629 0-.275-.081-.485-.243-.629-.161-.148-.371-.223-.629-.223a.973.973 0 0 0-.642.217c-.17.139-.255.342-.255.609 0 .179.041.336.124.472a.833.833 0 0 0 .328.301c.139.07.292.105.458.105Zm4.207.675c-.384 0-.725-.103-1.022-.308a2.135 2.135 0 0 1-.701-.865 3.083 3.083 0 0 1-.249-1.271c0-.476.083-.893.249-1.252.166-.362.398-.644.695-.845a1.784 1.784 0 0 1 1.028-.308c.389 0 .732.103 1.029.308.297.201.528.483.694.845.171.359.256.776.256 1.252 0 .48-.085.904-.256 1.271a2.081 2.081 0 0 1-.694.865c-.297.205-.64.308-1.029.308Zm0-.714a.822.822 0 0 0 .597-.23 1.41 1.41 0 0 0 .353-.622c.083-.262.125-.557.125-.885 0-.327-.039-.618-.118-.871a1.297 1.297 0 0 0-.36-.596.851.851 0 0 0-.597-.217.85.85 0 0 0-.596.223 1.324 1.324 0 0 0-.354.596 2.942 2.942 0 0 0-.118.865c0 .332.04.629.118.891.079.262.199.47.361.623a.84.84 0 0 0 .589.223Zm-18.397 19.851v-3.964l.124.079a1.166 1.166 0 0 1-.288.373 2.164 2.164 0 0 1-1.022.472v-.819a1.83 1.83 0 0 0 .531-.17c.179-.087.34-.19.484-.308.145-.122.247-.249.308-.38h.695v4.717h-.832Zm3.183.066c-.35 0-.656-.059-.918-.177a1.496 1.496 0 0 1-.615-.485 1.237 1.237 0 0 1-.217-.721c0-.236.053-.447.158-.635.104-.188.246-.334.425-.439.184-.109.394-.164.629-.164l.072.138c-.235 0-.441-.044-.615-.131a.966.966 0 0 1-.4-.38 1.156 1.156 0 0 1-.138-.57c0-.258.066-.483.197-.675.135-.192.323-.341.563-.446.245-.109.529-.164.852-.164.328 0 .612.055.852.164.24.105.426.254.557.446.135.192.203.415.203.668 0 .218-.046.411-.138.577a.964.964 0 0 1-.399.38 1.386 1.386 0 0 1-.623.131l.079-.138c.236 0 .443.055.622.164.184.105.328.251.433.439.104.188.157.399.157.635 0 .271-.072.511-.216.721-.144.21-.348.374-.61.491a2.232 2.232 0 0 1-.91.171Zm-.007-.675c.262 0 .465-.068.609-.203.149-.14.223-.33.223-.57 0-.24-.076-.428-.229-.564-.149-.135-.35-.203-.603-.203-.258 0-.461.068-.609.203-.149.136-.223.324-.223.564 0 .244.074.434.223.57.148.135.351.203.609.203Zm0-2.162a.745.745 0 0 0 .518-.177.639.639 0 0 0 .196-.491c0-.21-.067-.374-.203-.492a.743.743 0 0 0-.517-.177c-.21 0-.38.061-.511.184-.132.118-.197.279-.197.485 0 .205.065.369.197.491a.756.756 0 0 0 .517.177Zm4.191 2.837c-.385 0-.726-.103-1.023-.308a2.135 2.135 0 0 1-.701-.865 3.083 3.083 0 0 1-.249-1.271c0-.476.083-.893.249-1.251.166-.363.398-.645.695-.846a1.785 1.785 0 0 1 1.029-.308c.388 0 .731.103 1.028.308.297.201.529.483.695.846.17.358.255.775.255 1.251 0 .48-.085.904-.255 1.271a2.084 2.084 0 0 1-.695.865c-.297.205-.64.308-1.028.308Zm0-.714a.82.82 0 0 0 .596-.23c.157-.153.275-.36.354-.622.083-.262.124-.557.124-.885 0-.327-.039-.618-.118-.871a1.289 1.289 0 0 0-.36-.596.848.848 0 0 0-.596-.216.853.853 0 0 0-.597.222 1.312 1.312 0 0 0-.353.597 2.898 2.898 0 0 0-.118.864c0 .332.039.629.118.891.078.263.198.47.36.623a.843.843 0 0 0 .59.223Z"/></g><path fill="#fff" d="M58.587 210.161v-8.634h5.398v1.235h-3.961v2.437h3.639v1.229h-3.64v3.733h-1.436Zm9.21.181a2.8 2.8 0 0 1-1.518-.429 3.117 3.117 0 0 1-1.088-1.202c-.269-.515-.403-1.112-.403-1.793 0-.716.134-1.329.403-1.839a2.922 2.922 0 0 1 1.081-1.175c.456-.273.965-.41 1.524-.41.515 0 .956.103 1.323.309.367.206.662.483.886.832.228.35.383.746.463 1.189.08.438.09.893.027 1.363h-4.559v-.799h3.559l-.31.201a3.203 3.203 0 0 0-.033-.685 1.904 1.904 0 0 0-.208-.624 1.165 1.165 0 0 0-.423-.463c-.183-.117-.416-.175-.698-.175-.35 0-.645.087-.886.262-.238.175-.417.41-.537.705a2.579 2.579 0 0 0-.182.987v.577c0 .39.058.734.175 1.034.116.3.29.537.523.712.233.175.526.262.88.262.34 0 .622-.078.846-.235.228-.161.372-.401.43-.719h1.457c-.067.421-.224.79-.47 1.108a2.518 2.518 0 0 1-.947.746 3.163 3.163 0 0 1-1.316.261Zm3.583-6.667h1.497l1.477 5.056H74.2l1.403-4.72h1.283l1.396 4.733h-.148l1.47-5.069h1.438l-2.136 6.486h-1.41l-1.396-4.438h.222l-1.37 4.438h-1.417l-2.155-6.486Zm13.516 6.667a2.8 2.8 0 0 1-1.517-.429 3.117 3.117 0 0 1-1.088-1.202c-.269-.515-.403-1.112-.403-1.793 0-.716.134-1.329.403-1.839a2.923 2.923 0 0 1 1.081-1.175c.457-.273.965-.41 1.524-.41.515 0 .956.103 1.323.309.367.206.662.483.886.832.228.35.383.746.463 1.189.081.438.09.893.027 1.363h-4.559v-.799h3.559l-.309.201a3.203 3.203 0 0 0-.034-.685 1.904 1.904 0 0 0-.208-.624 1.165 1.165 0 0 0-.423-.463c-.183-.117-.416-.175-.698-.175-.35 0-.645.087-.886.262a1.61 1.61 0 0 0-.537.705 2.579 2.579 0 0 0-.182.987v.577c0 .39.058.734.175 1.034.116.3.29.537.524.712.232.175.526.262.88.262.34 0 .621-.078.845-.235.228-.161.372-.401.43-.719h1.457c-.067.421-.224.79-.47 1.108a2.518 2.518 0 0 1-.947.746 3.163 3.163 0 0 1-1.316.261Zm4.678-.181v-6.513h1.437v6.513h-1.437Zm1.068-2.874c0-.841.092-1.537.275-2.088.184-.555.434-.966.752-1.235.318-.273.68-.41 1.088-.41.12 0 .23.009.329.027.103.014.206.036.309.067l-.04 1.431a3.06 3.06 0 0 0-.39-.074 2.197 2.197 0 0 0-.37-.034c-.353 0-.648.092-.885.275-.233.179-.408.441-.524.786-.117.345-.175.763-.175 1.255h-.369Zm-36.238 10.24h2.726c.877 0 1.642.177 2.296.53a3.77 3.77 0 0 1 1.53 1.497c.368.645.551 1.41.551 2.297 0 .868-.183 1.627-.55 2.276a3.812 3.812 0 0 1-1.531 1.504c-.654.353-1.419.53-2.296.53h-2.726v-8.634Zm1.437 1.296v6.056h1.289c.582 0 1.083-.132 1.504-.396.425-.264.752-.625.98-1.081.233-.457.35-.974.35-1.551 0-.591-.117-1.113-.35-1.565a2.59 2.59 0 0 0-.98-1.074c-.421-.26-.922-.389-1.504-.389h-1.29Zm10.067 7.519a2.804 2.804 0 0 1-1.518-.429 3.118 3.118 0 0 1-1.087-1.202c-.269-.515-.403-1.112-.403-1.793 0-.716.134-1.329.403-1.839a2.923 2.923 0 0 1 1.08-1.175c.457-.273.965-.41 1.525-.41.514 0 .955.103 1.322.309.367.206.663.483.887.832.228.35.382.746.463 1.189.08.438.09.893.027 1.363h-4.56v-.799h3.56l-.31.201a3.196 3.196 0 0 0-.033-.685 1.901 1.901 0 0 0-.208-.624 1.163 1.163 0 0 0-.423-.463c-.184-.117-.416-.175-.698-.175-.35 0-.645.087-.887.262-.237.175-.416.41-.537.705a2.58 2.58 0 0 0-.181.987v.577c0 .39.058.734.174 1.034.117.3.291.537.524.712.233.175.526.262.88.262.34 0 .622-.078.846-.235.228-.161.371-.401.43-.719h1.456c-.067.421-.223.79-.47 1.108a2.52 2.52 0 0 1-.946.746 3.163 3.163 0 0 1-1.316.261Zm6.82 0a2.47 2.47 0 0 1-1.027-.208 1.727 1.727 0 0 1-.732-.644c-.184-.291-.276-.656-.276-1.095v-6.465h1.43v6.418c0 .569.271.853.813.853.166 0 .329-.018.49-.054.161-.036.343-.091.544-.168l.208 1.014a6.704 6.704 0 0 1-.718.249c-.233.067-.477.1-.732.1Zm-2.981-5.707v-.96h4.223v.96h-4.223Zm10.174 5.526-.182-1.537v-2.652c0-.493-.1-.853-.302-1.081-.201-.229-.53-.343-.987-.343-.264 0-.494.038-.691.114-.197.076-.352.19-.464.343a.909.909 0 0 0-.16.55h-1.579c0-.488.117-.882.35-1.181.237-.305.57-.526 1-.665.434-.143.949-.215 1.544-.215.542 0 1.016.09 1.424.269.412.174.732.447.96.819.228.371.342.85.342 1.437v4.142h-1.255Zm-2.149.181c-.55 0-1.01-.096-1.376-.288a2.02 2.02 0 0 1-.82-.759 1.97 1.97 0 0 1-.275-1.014c0-.416.108-.763.323-1.041.219-.277.523-.483.913-.617.394-.139.852-.208 1.376-.208.35 0 .683.029 1 .087.323.054.643.13.96.228v.853a4.832 4.832 0 0 0-.839-.208 5.263 5.263 0 0 0-.846-.074c-.389 0-.713.076-.973.228-.255.148-.383.399-.383.752 0 .264.103.49.309.678.206.188.533.282.98.282.332 0 .618-.074.86-.221a1.64 1.64 0 0 0 .557-.564 1.29 1.29 0 0 0 .201-.665h.343a3 3 0 0 1-.269 1.269 2.226 2.226 0 0 1-.779.933c-.34.233-.76.349-1.262.349Zm6.61-7.949c-.282 0-.504-.076-.665-.228-.161-.157-.242-.367-.242-.632 0-.259.08-.465.242-.617.16-.152.383-.229.665-.229.277 0 .496.077.657.229.162.152.242.358.242.617 0 .265-.08.475-.242.632-.16.152-.38.228-.657.228Zm-.719 7.768v-6.513H85.1v6.513h-1.437Zm4.167 0v-9.198h1.437v9.198H87.83Zm6.397.181c-.622 0-1.155-.087-1.598-.261-.439-.175-.777-.421-1.014-.739-.233-.322-.351-.705-.356-1.148h1.336c.018.345.157.6.417.765.26.161.61.242 1.054.242.242 0 .459-.036.651-.107.192-.077.343-.177.45-.303a.641.641 0 0 0 .168-.429.574.574 0 0 0-.222-.477c-.143-.116-.376-.222-.698-.316l-1.377-.476c-.519-.179-.917-.419-1.195-.719a1.527 1.527 0 0 1-.416-1.074c0-.542.244-.978.732-1.309.488-.331 1.137-.497 1.947-.497.824 0 1.46.177 1.907.53.447.354.678.799.691 1.337h-1.362a.716.716 0 0 0-.343-.544c-.201-.135-.499-.202-.893-.202-.362 0-.647.079-.853.235-.201.152-.302.327-.302.524 0 .345.296.602.887.772l1.47.537c.515.17.913.39 1.195.658.282.269.423.609.423 1.021 0 .34-.114.662-.342.967-.224.299-.538.543-.94.731-.403.188-.876.282-1.417.282Z"/><path stroke="#fff" stroke-dasharray="2.01 2.01" stroke-width="1.007" d="M74.037 136.711v55.406h116.855v54.902h123.403v54.959h122.396"/><path fill="#fff" d="M423.622 311.33h2.061l2.578 5.466h-.127l2.578-5.466h1.994v8.635h-1.45v-7.016h.228l-2.82 6.036h-.94l-2.806-6.003h.141v6.983h-1.437v-8.635Zm14.142 8.816a3.298 3.298 0 0 1-1.591-.383 2.777 2.777 0 0 1-1.121-1.141c-.278-.506-.416-1.137-.416-1.893 0-.77.138-1.408.416-1.914a2.738 2.738 0 0 1 1.121-1.135 3.308 3.308 0 0 1 1.591-.382c.587 0 1.113.127 1.578.382.47.251.842.629 1.115 1.135.277.506.416 1.144.416 1.914 0 .756-.139 1.387-.416 1.893a2.74 2.74 0 0 1-1.115 1.141 3.217 3.217 0 0 1-1.578.383Zm-.04-1.255a1.6 1.6 0 0 0 .893-.249c.26-.165.461-.409.604-.732.144-.322.215-.716.215-1.181 0-.712-.143-1.254-.43-1.625-.282-.376-.68-.564-1.195-.564-.344 0-.646.083-.906.248-.255.166-.454.412-.598.739-.143.327-.214.727-.214 1.202 0 .698.143 1.233.429 1.604.287.372.687.558 1.202.558Zm5.07 1.074v-6.513h1.437v6.513h-1.437Zm1.067-2.874c0-.841.092-1.537.276-2.088.183-.555.434-.967.752-1.235.318-.273.68-.41 1.087-.41.121 0 .231.009.329.027.103.013.206.036.309.067l-.04 1.43a3.278 3.278 0 0 0-.389-.074 2.313 2.313 0 0 0-.37-.033c-.353 0-.649.092-.886.275-.233.179-.407.441-.524.786-.116.344-.174.763-.174 1.255h-.37Zm6.463 3.055c-.555 0-1.06-.143-1.517-.43a3.116 3.116 0 0 1-1.088-1.201c-.268-.515-.403-1.113-.403-1.793 0-.716.135-1.329.403-1.84.269-.51.629-.902 1.081-1.175a2.915 2.915 0 0 1 1.524-.409c.515 0 .956.103 1.323.309.367.205.662.483.886.832.229.349.383.745.464 1.189.08.438.089.892.026 1.362h-4.558v-.799h3.558l-.309.202a3.212 3.212 0 0 0-.033-.685 1.907 1.907 0 0 0-.209-.624 1.167 1.167 0 0 0-.423-.464c-.183-.116-.416-.174-.698-.174-.349 0-.644.087-.886.262a1.606 1.606 0 0 0-.537.705 2.578 2.578 0 0 0-.181.987v.577c0 .389.058.734.174 1.034.116.3.291.537.524.712.233.174.526.262.879.262.341 0 .623-.079.846-.235.229-.162.372-.401.43-.719h1.457c-.067.421-.224.79-.47 1.108a2.515 2.515 0 0 1-.947.745 3.145 3.145 0 0 1-1.316.262Zm-33.265 7.184h2.725c.878 0 1.643.177 2.297.531a3.767 3.767 0 0 1 1.531 1.497c.367.645.55 1.41.55 2.296 0 .869-.183 1.627-.55 2.276a3.808 3.808 0 0 1-1.531 1.504c-.654.354-1.419.531-2.297.531h-2.725v-8.635Zm1.436 1.296v6.056h1.289c.582 0 1.084-.132 1.504-.396a2.63 2.63 0 0 0 .981-1.081c.232-.456.349-.973.349-1.551 0-.59-.117-1.112-.349-1.564a2.58 2.58 0 0 0-.981-1.074c-.42-.26-.922-.39-1.504-.39h-1.289Zm10.067 7.52c-.555 0-1.06-.143-1.517-.43a3.116 3.116 0 0 1-1.088-1.201c-.268-.515-.403-1.113-.403-1.793 0-.716.135-1.329.403-1.84.269-.51.629-.902 1.081-1.175a2.915 2.915 0 0 1 1.524-.409c.515 0 .956.103 1.323.309.367.205.663.483.886.832.229.349.383.745.464 1.189.08.438.089.892.026 1.362h-4.558v-.799h3.558l-.309.202a3.212 3.212 0 0 0-.033-.685 1.907 1.907 0 0 0-.209-.624 1.171 1.171 0 0 0-.422-.464c-.184-.116-.417-.174-.699-.174-.349 0-.644.087-.886.262a1.606 1.606 0 0 0-.537.705 2.578 2.578 0 0 0-.181.987v.577c0 .389.058.734.174 1.034.116.3.291.537.524.712.233.174.526.262.879.262.341 0 .623-.079.846-.235.229-.162.372-.401.43-.719h1.457c-.067.421-.224.79-.47 1.108a2.515 2.515 0 0 1-.947.745 3.145 3.145 0 0 1-1.316.262Zm6.82 0c-.376 0-.718-.069-1.027-.208a1.728 1.728 0 0 1-.732-.645c-.183-.291-.275-.655-.275-1.094v-6.466h1.43v6.419c0 .568.271.853.813.853.165 0 .329-.018.49-.054.161-.036.342-.092.544-.168l.208 1.014a6.89 6.89 0 0 1-.719.248 2.59 2.59 0 0 1-.732.101Zm-2.981-5.707v-.96h4.224v.96h-4.224Zm10.174 5.526-.181-1.538v-2.652c0-.492-.101-.852-.302-1.081-.202-.228-.531-.342-.987-.342-.264 0-.495.038-.692.114a1.01 1.01 0 0 0-.463.342.917.917 0 0 0-.161.551h-1.578c0-.488.117-.882.349-1.182.237-.304.571-.526 1.001-.664.434-.144.949-.215 1.544-.215.542 0 1.016.089 1.423.268.412.175.732.448.96.819.229.372.343.851.343 1.437v4.143h-1.256Zm-2.148.181c-.551 0-1.01-.096-1.377-.289a2.017 2.017 0 0 1-.819-.758 1.98 1.98 0 0 1-.275-1.014c0-.416.107-.763.322-1.041.22-.277.524-.483.913-.618.394-.138.853-.208 1.377-.208.349 0 .682.029 1 .088.322.053.643.129.96.228v.853a4.923 4.923 0 0 0-.839-.209 5.259 5.259 0 0 0-.846-.073c-.389 0-.714.076-.973.228-.256.148-.383.398-.383.752 0 .264.103.49.309.678.206.188.532.282.98.282.331 0 .618-.074.859-.222.242-.152.428-.34.558-.564.134-.223.201-.445.201-.664h.342c0 .456-.089.879-.268 1.269a2.227 2.227 0 0 1-.779.933c-.34.233-.761.349-1.262.349Zm6.609-7.949c-.282 0-.503-.077-.665-.229-.161-.156-.241-.367-.241-.631 0-.259.08-.465.241-.618.162-.152.383-.228.665-.228.278 0 .497.076.658.228.161.153.242.359.242.618 0 .264-.081.475-.242.631-.161.152-.38.229-.658.229Zm-.718 7.768v-6.513h1.437v6.513h-1.437Zm4.167 0v-9.199h1.437v9.199h-1.437Zm6.397.181c-.623 0-1.155-.087-1.598-.262-.439-.174-.777-.42-1.014-.738a1.94 1.94 0 0 1-.356-1.148h1.336c.018.344.157.599.416.765.26.161.611.242 1.054.242.242 0 .459-.036.652-.108.192-.076.342-.177.45-.302a.647.647 0 0 0 .167-.43.572.572 0 0 0-.221-.476c-.143-.117-.376-.222-.698-.316l-1.377-.477c-.519-.179-.917-.418-1.195-.718a1.53 1.53 0 0 1-.416-1.074c0-.542.244-.978.732-1.309.488-.332 1.137-.497 1.947-.497.823 0 1.459.177 1.907.53.447.354.678.799.691 1.336h-1.363a.719.719 0 0 0-.342-.544c-.202-.134-.499-.201-.893-.201-.363 0-.647.078-.853.235-.201.152-.302.327-.302.524 0 .344.295.602.886.772l1.471.537c.514.17.913.389 1.195.658.282.268.423.609.423 1.02 0 .341-.114.663-.343.967-.224.3-.537.544-.94.732-.403.188-.875.282-1.416.282Z"/><defs><clipPath id="a"><path fill="#fff" d="M18.631 18.849h110.083v110.083H18.631z"/></clipPath><clipPath id="b"><path fill="#fff" d="M63.957 111.664h5.284v5.284h-5.284z"/></clipPath><clipPath id="c"><path fill="#fff" d="M135.766 74.254h110.083v110.083H135.766z"/></clipPath><clipPath id="d"><path fill="#fff" d="M181.092 167.072h5.284v5.284h-5.284z"/></clipPath><clipPath id="e"><path fill="#fff" d="M258.386 128.652h110.083v110.083H258.386z"/></clipPath><clipPath id="f"><path fill="#fff" d="M303.712 221.47h5.284v5.284h-5.284z"/></clipPath><clipPath id="g"><path fill="#fff" d="M381.286 184.058h110.083v110.083H381.286z"/></clipPath><clipPath id="h"><path fill="#fff" d="M426.612 276.876h5.284v5.284h-5.284z"/></clipPath><radialGradient id="i" cx="0" cy="0" r="1" gradientTransform="rotate(-171.649 226.892 103.624) scale(55.5431 58.3548)" gradientUnits="userSpaceOnUse"><stop offset=".381" stop-color="#171414"/><stop offset="1" stop-color="#fff"/></radialGradient></defs></svg>