<svg xmlns="http://www.w3.org/2000/svg" width="1040" height="557" fill="none"><rect width="1039" height="556" x=".5" y=".5" fill="#0C0D0E" rx="19.5"/><rect width="1039" height="556" x=".5" y=".5" stroke="#767F87" rx="19.5"/><path fill="#F1F2F3" d="M495.996 385.162c-16.368 0-30.184-3.608-41.448-10.824-11.264-7.392-19.8-17.952-25.608-31.68-5.808-13.904-8.712-30.536-8.712-49.896 0-20.944 3.52-38.456 10.56-52.536 7.216-14.256 17.16-24.992 29.832-32.208 12.672-7.216 27.368-10.824 44.088-10.824 8.272 0 16.192.792 23.76 2.376 7.568 1.584 14.256 4.136 20.064 7.656l-7.656 15.312c-4.752-3.168-10.208-5.368-16.368-6.6-6.16-1.408-12.672-2.112-19.536-2.112-19.888 0-35.816 6.336-47.784 19.008-11.792 12.672-17.688 31.592-17.688 56.76 0 3.872.176 8.712.528 14.52.528 5.632 1.584 11.264 3.168 16.896l-6.6-5.016c1.936-9.152 5.72-16.896 11.352-23.232 5.632-6.512 12.672-11.44 21.12-14.784 8.448-3.344 17.688-5.016 27.72-5.016 12.32 0 23.144 2.288 32.472 6.864 9.328 4.576 16.632 11 21.912 19.272 5.28 8.272 7.92 18.04 7.92 29.304 0 11.44-2.728 21.472-8.184 30.096-5.456 8.448-13.024 15.048-22.704 19.8-9.504 4.576-20.24 6.864-32.208 6.864Zm-.792-16.104c8.8 0 16.544-1.584 23.232-4.752 6.864-3.344 12.232-8.008 16.104-13.992 3.872-6.16 5.808-13.288 5.808-21.384 0-12.144-4.224-21.824-12.672-29.04-8.272-7.216-19.536-10.824-33.792-10.824-9.504 0-17.776 1.76-24.816 5.28-7.04 3.52-12.584 8.36-16.632 14.52-4.048 5.984-6.072 12.848-6.072 20.592 0 6.688 1.848 13.112 5.544 19.272 3.696 5.984 9.152 10.912 16.368 14.784 7.392 3.696 16.368 5.544 26.928 5.544Zm144.243 16.104c-13.2 0-25.784-2.112-37.752-6.336-11.968-4.4-21.472-10.208-28.512-17.424l9.24-15.048c5.808 6.16 13.728 11.264 23.76 15.312 10.208 4.048 21.208 6.072 33 6.072 15.664 0 27.544-3.432 35.64-10.296 8.272-7.04 12.408-16.192 12.408-27.456 0-7.92-1.936-14.696-5.808-20.328-3.696-5.808-10.032-10.296-19.008-13.464-8.976-3.168-21.296-4.752-36.96-4.752h-39.336l9.504-92.664h101.112v16.896h-93.456l9.768-9.24-8.184 77.616-9.768-9.504h34.584c18.656 0 33.616 2.288 44.88 6.864 11.264 4.576 19.36 11 24.288 19.272 5.104 8.096 7.656 17.6 7.656 28.512 0 10.384-2.464 19.888-7.392 28.512-4.928 8.448-12.32 15.136-22.176 20.064-9.856 4.928-22.352 7.392-37.488 7.392Z"/><path fill="#ADB3B8" d="M623.78 416.898c2.389 0 4.461.467 6.216 1.4 1.792.896 3.173 2.277 4.144 4.144 1.008 1.867 1.512 4.219 1.512 7.056v17.08h-3.976V429.89c0-3.099-.747-5.432-2.24-7-1.456-1.605-3.528-2.408-6.216-2.408-2.016 0-3.771.429-5.264 1.288-1.456.821-2.595 2.035-3.416 3.64-.784 1.568-1.176 3.472-1.176 5.712v15.456h-3.976V429.89c0-3.099-.747-5.432-2.24-7-1.493-1.605-3.584-2.408-6.272-2.408-1.979 0-3.715.429-5.208 1.288-1.493.821-2.651 2.035-3.472 3.64-.784 1.568-1.176 3.472-1.176 5.712v15.456h-3.976v-29.4h3.808v7.952l-.616-1.4c.896-2.128 2.333-3.789 4.312-4.984 2.016-1.232 4.387-1.848 7.112-1.848 2.875 0 5.32.728 7.336 2.184 2.016 1.419 3.323 3.565 3.92 6.44l-1.568-.616c.859-2.389 2.371-4.312 4.536-5.768 2.203-1.493 4.835-2.24 7.896-2.24Zm37.831 29.96c-2.539 0-4.835-.579-6.888-1.736-2.054-1.195-3.696-2.893-4.928-5.096-1.195-2.24-1.792-4.965-1.792-8.176 0-3.211.597-5.917 1.792-8.12 1.194-2.24 2.818-3.939 4.872-5.096 2.053-1.157 4.368-1.736 6.944-1.736 2.8 0 5.301.635 7.504 1.904 2.24 1.232 3.994 2.987 5.264 5.264 1.269 2.24 1.904 4.835 1.904 7.784 0 2.987-.635 5.6-1.904 7.84a13.717 13.717 0 0 1-5.264 5.264c-2.203 1.269-4.704 1.904-7.504 1.904Zm-15.176 10.584v-40.264h3.808v8.848l-.392 5.88.56 5.936v19.6h-3.976Zm14.896-14.112c2.09 0 3.957-.467 5.6-1.4 1.642-.971 2.949-2.315 3.92-4.032.97-1.755 1.456-3.771 1.456-6.048s-.486-4.275-1.456-5.992c-.971-1.717-2.278-3.061-3.92-4.032-1.643-.971-3.51-1.456-5.6-1.456-2.091 0-3.976.485-5.656 1.456-1.643.971-2.95 2.315-3.92 4.032-.934 1.717-1.4 3.715-1.4 5.992s.466 4.293 1.4 6.048c.97 1.717 2.277 3.061 3.92 4.032 1.68.933 3.565 1.4 5.656 1.4Zm38.065-26.432c2.389 0 4.48.467 6.272 1.4 1.829.896 3.248 2.277 4.256 4.144 1.045 1.867 1.568 4.219 1.568 7.056v17.08h-3.976V429.89c0-3.099-.784-5.432-2.352-7-1.531-1.605-3.696-2.408-6.496-2.408-2.091 0-3.92.429-5.488 1.288-1.531.821-2.726 2.035-3.584 3.64-.822 1.568-1.232 3.472-1.232 5.712v15.456h-3.976v-41.552h3.976v20.216l-.784-1.512c.933-2.128 2.426-3.789 4.48-4.984 2.053-1.232 4.498-1.848 7.336-1.848Z"/><path fill="#767F87" d="m735.861 127.097-10.836-20.105-395.783.001-85.405 95.448 8.801 15.976 85.224-91.319 397.999-.001Z" opacity=".5"/><path fill="url(#a)" d="m489.165 127.101-10.775-20.109H331.739l8.62 20.105 148.806.004Z"/><path fill="#F1F2F3" d="M476.378 103.969h5.532l14.392 26.032h-5.517l-14.407-26.032Z"/><path fill="#0C0D0E" d="M324.859 103.969h5.532l14.392 26.032h-5.517l-14.407-26.032Zm233.453 0h5.532l14.392 26.032h-5.517l-14.407-26.032Z"/><g clip-path="url(#b)"><path stroke="#F1F2F3" stroke-linecap="round" stroke-linejoin="round" stroke-width="2.5" d="m343.859 50.5-2.5 12.5 10 3.75-17.5 18.75 2.5-12.5-10-3.75 17.5-18.75Z"/></g><path fill="#F1F2F3" d="M368.107 79v-1.632l9.312-9.12c.854-.832 1.494-1.557 1.92-2.176.427-.64.715-1.237.864-1.792.15-.555.224-1.077.224-1.568 0-1.301-.448-2.325-1.344-3.072-.874-.747-2.176-1.12-3.904-1.12-1.322 0-2.496.203-3.52.608a6.631 6.631 0 0 0-2.592 1.888l-1.632-1.408c.875-1.024 1.995-1.813 3.36-2.368 1.366-.555 2.891-.832 4.576-.832 1.515 0 2.827.245 3.936.736 1.11.47 1.963 1.163 2.56 2.08.619.917.928 1.995.928 3.232 0 .725-.106 1.44-.32 2.144-.192.704-.554 1.45-1.088 2.24-.512.768-1.269 1.643-2.272 2.624l-8.544 8.384-.64-.896h13.888V79h-15.712Zm20.644.16a1.66 1.66 0 0 1-1.216-.512 1.757 1.757 0 0 1-.48-1.248c0-.512.16-.928.48-1.248a1.72 1.72 0 0 1 1.216-.48c.47 0 .864.16 1.184.48.342.32.512.736.512 1.248 0 .49-.17.907-.512 1.248-.32.341-.714.512-1.184.512Zm12.054.032c-1.621 0-3.157-.256-4.608-.768-1.429-.533-2.581-1.237-3.456-2.112l1.12-1.824c.725.747 1.696 1.365 2.912 1.856 1.237.49 2.581.736 4.032.736 1.856 0 3.275-.405 4.256-1.216 1.003-.81 1.504-1.899 1.504-3.264 0-1.365-.491-2.453-1.472-3.264-.96-.81-2.485-1.216-4.576-1.216h-1.6v-1.696l6.912-8.672.32.896h-12.48V56.6h14.4v1.632l-6.912 8.672-1.12-.736h.864c2.688 0 4.693.597 6.016 1.792 1.344 1.195 2.016 2.73 2.016 4.608 0 1.259-.299 2.39-.896 3.392-.597 1.003-1.504 1.792-2.72 2.368-1.195.576-2.699.864-4.512.864Zm42.246-17.152c1.365 0 2.549.267 3.552.8 1.024.512 1.813 1.301 2.368 2.368.576 1.067.864 2.41.864 4.032V79h-2.272v-9.536c0-1.77-.427-3.104-1.28-4-.832-.917-2.016-1.376-3.552-1.376-1.152 0-2.155.245-3.008.736-.832.47-1.483 1.163-1.952 2.08-.448.896-.672 1.984-.672 3.264V79h-2.272v-9.536c0-1.77-.427-3.104-1.28-4-.854-.917-2.048-1.376-3.584-1.376-1.131 0-2.123.245-2.976.736-.854.47-1.515 1.163-1.984 2.08-.448.896-.672 1.984-.672 3.264V79h-2.272V62.2h2.176v4.544l-.352-.8a5.94 5.94 0 0 1 2.464-2.848c1.152-.704 2.506-1.056 4.064-1.056 1.642 0 3.04.416 4.192 1.248 1.152.81 1.898 2.037 2.24 3.68l-.896-.352c.49-1.365 1.354-2.464 2.592-3.296 1.258-.853 2.762-1.28 4.512-1.28ZM455.996 79V62.2h2.272V79h-2.272Zm1.152-20.512a1.61 1.61 0 0 1-1.184-.48c-.32-.32-.48-.704-.48-1.152 0-.448.16-.821.48-1.12.32-.32.715-.48 1.184-.48s.864.15 1.184.448c.32.299.48.672.48 1.12 0 .47-.16.864-.48 1.184-.299.32-.693.48-1.184.48Zm3.474 23.712 10.56-30.144h2.08L462.702 82.2h-2.08Zm16.479-7.552.064-2.912 10.464-9.536h2.784l-7.392 7.072-1.28 1.088-4.64 4.288ZM475.309 79V55.256h2.272V79h-2.272Zm13.024 0-7.008-8.736 1.472-1.76L491.117 79h-2.784Zm11.419 0L492.2 56.6h2.432l7.072 21.088h-1.216l7.296-21.088h2.176l7.2 21.088h-1.152l7.136-21.088h2.272L517.864 79h-2.496l-6.88-20h.64l-6.912 20h-2.464Zm38.57-16.96c1.365 0 2.56.267 3.584.8 1.045.512 1.856 1.301 2.432 2.368.597 1.067.896 2.41.896 4.032V79h-2.272v-9.536c0-1.77-.448-3.104-1.344-4-.875-.917-2.112-1.376-3.712-1.376-1.195 0-2.24.245-3.136.736-.875.47-1.557 1.163-2.048 2.08-.469.896-.704 1.984-.704 3.264V79h-2.272V55.256h2.272v11.552l-.448-.864c.533-1.216 1.387-2.165 2.56-2.848 1.173-.704 2.571-1.056 4.192-1.056Z"/><path fill="#767F87" d="m550.804 434.131-10.405 12.127H332.423l-35.406-38.516 8.959-10.343 34.637 36.732h210.191Z" opacity=".5"/><path fill="url(#c)" d="m462.337 434.136-9.68 12.123-120.242.003-35.412-38.526 9.001-10.308 34.617 36.708h121.716Z"/><path fill="#F1F2F3" d="M466.505 431.547h-3.15l-14.949 17.373h3.132l14.967-17.373Z"/><path fill="#0C0D0E" d="M486.149 431.543h-3.151l-14.948 17.373h3.131l14.968-17.373Zm-70.057 0h-3.151l-14.948 17.373h3.132l14.967-17.373Zm-70.056 0h-3.151l-14.948 17.373h3.131l14.968-17.373Z"/><g stroke="#F1F2F3" stroke-linecap="round" stroke-linejoin="round" stroke-width="2.5" clip-path="url(#d)"><path d="m343.437 491.168 2.5-6.25h-5l2.5-6.25"/><path d="M334.687 498.668v-25a2.5 2.5 0 0 1 2.5-2.5h12.5a2.498 2.498 0 0 1 2.5 2.5v25m-21.25 0h25"/><path d="M352.187 482.418h3.75a2.498 2.498 0 0 1 2.5 2.5v6.25a2.5 2.5 0 1 0 5 0v-12.714a2.503 2.503 0 0 0-.733-1.769l-3.017-3.017"/></g><path fill="#F1F2F3" d="M382.289 496.11c-1.622 0-3.158-.256-4.608-.768-1.43-.533-2.582-1.237-3.456-2.112l1.12-1.824c.725.747 1.696 1.365 2.912 1.856 1.237.491 2.581.736 4.032.736 1.856 0 3.274-.405 4.256-1.216 1.002-.811 1.504-1.899 1.504-3.264 0-1.365-.491-2.453-1.472-3.264-.96-.811-2.486-1.216-4.576-1.216h-1.6v-1.696l6.912-8.672.32.896h-12.48v-2.048h14.4v1.632l-6.912 8.672-1.12-.736h.864c2.688 0 4.693.597 6.016 1.792 1.344 1.195 2.016 2.731 2.016 4.608 0 1.259-.299 2.389-.896 3.392-.598 1.003-1.504 1.792-2.72 2.368-1.195.576-2.699.864-4.512.864Zm18.134 0c-1.6 0-3.126-.256-4.576-.768-1.451-.533-2.603-1.237-3.456-2.112l1.12-1.824c.704.747 1.664 1.365 2.88 1.856 1.237.491 2.57.736 4 .736 1.898 0 3.338-.416 4.32-1.248 1.002-.853 1.504-1.963 1.504-3.328 0-.96-.235-1.781-.704-2.464-.448-.704-1.216-1.248-2.304-1.632-1.088-.384-2.582-.576-4.48-.576h-4.768l1.152-11.232h12.256v2.048h-11.328l1.184-1.12-.992 9.408-1.184-1.152h4.192c2.261 0 4.074.277 5.44.832 1.365.555 2.346 1.333 2.944 2.336.618.981.928 2.133.928 3.456 0 1.259-.299 2.411-.896 3.456-.598 1.024-1.494 1.835-2.688 2.432-1.195.597-2.71.896-4.544.896Zm19.981 0c-1.728 0-3.264-.448-4.608-1.344-1.344-.917-2.4-2.219-3.168-3.904-.768-1.707-1.152-3.755-1.152-6.144 0-2.389.384-4.427 1.152-6.112.768-1.707 1.824-3.008 3.168-3.904 1.344-.917 2.88-1.376 4.608-1.376 1.728 0 3.264.459 4.608 1.376 1.344.896 2.4 2.197 3.168 3.904.789 1.685 1.184 3.723 1.184 6.112 0 2.389-.395 4.437-1.184 6.144-.768 1.685-1.824 2.987-3.168 3.904-1.344.896-2.88 1.344-4.608 1.344Zm0-2.112c1.322 0 2.474-.352 3.456-1.056.981-.725 1.749-1.771 2.304-3.136.554-1.387.832-3.083.832-5.088s-.278-3.691-.832-5.056c-.555-1.387-1.323-2.432-2.304-3.136-.982-.725-2.134-1.088-3.456-1.088-1.28 0-2.422.363-3.424 1.088-1.003.704-1.782 1.749-2.336 3.136-.555 1.365-.832 3.051-.832 5.056s.277 3.701.832 5.088c.554 1.365 1.333 2.411 2.336 3.136 1.002.704 2.144 1.056 3.424 1.056Zm43.13-15.04c1.365 0 2.549.267 3.552.8 1.024.512 1.813 1.301 2.368 2.368.576 1.067.864 2.411.864 4.032v9.76h-2.272v-9.536c0-1.771-.427-3.104-1.28-4-.832-.917-2.016-1.376-3.552-1.376-1.152 0-2.155.245-3.008.736-.832.469-1.483 1.163-1.952 2.08-.448.896-.672 1.984-.672 3.264v8.832h-2.272v-9.536c0-1.771-.427-3.104-1.28-4-.853-.917-2.048-1.376-3.584-1.376-1.131 0-2.123.245-2.976.736-.853.469-1.515 1.163-1.984 2.08-.448.896-.672 1.984-.672 3.264v8.832h-2.272v-16.8h2.176v4.544l-.352-.8a5.94 5.94 0 0 1 2.464-2.848c1.152-.704 2.507-1.056 4.064-1.056 1.643 0 3.04.416 4.192 1.248 1.152.811 1.899 2.037 2.24 3.68l-.896-.352c.491-1.365 1.355-2.464 2.592-3.296 1.259-.853 2.763-1.28 4.512-1.28Zm12.946 16.96v-16.8h2.272v16.8h-2.272Zm1.152-20.512c-.47 0-.864-.16-1.184-.48-.32-.32-.48-.704-.48-1.152 0-.448.16-.821.48-1.12.32-.32.714-.48 1.184-.48.469 0 .864.149 1.184.448.32.299.48.672.48 1.12 0 .469-.16.864-.48 1.184-.299.32-.694.48-1.184.48Z"/><defs><linearGradient id="a" x1="467.138" x2="335.621" y1="117.046" y2="117.047" gradientUnits="userSpaceOnUse"><stop stop-color="#0FBBFF"/><stop offset="1" stop-color="#001219"/></linearGradient><linearGradient id="c" x1="456.294" x2="314.5" y1="439.82" y2="402.858" gradientUnits="userSpaceOnUse"><stop stop-color="#0FBBFF"/><stop offset="1" stop-color="#001219"/></linearGradient><clipPath id="b"><path fill="#fff" d="M318.859 48h40v40h-40z"/></clipPath><clipPath id="d"><path fill="#fff" d="M325.937 464.918h40v40h-40z"/></clipPath></defs></svg>