<svg xmlns="http://www.w3.org/2000/svg" width="510" height="328" fill="none"><path fill="#fff" d="M0 0h510v328H0z"/><path stroke="#B3B6BA" stroke-dasharray="9.32 9.32" stroke-width="1.554" d="M165.317 82.192h175.528V245.36H165.317z"/><path stroke="#B3B6BA" stroke-dasharray="9.32 9.32" stroke-width="1.554" d="M127.957 44.777H378.37v238.446H127.957z"/><path fill="#FF7B00" d="M316.438 126.788c-21.176-47.498-84.703-49.832-114.35-36.05-25.412 14.843-42.355 36.05-32.826 91.182 9.53 55.132 61.412 62.553 100.588 60.432 39.177-2.12 73.059-56.192 46.588-115.564Z"/><path fill="#000" d="m241.972 241.889-3.924-71.474h13.161l5.196 72.242c-5.635-.105-8.797-.288-14.433-.768Zm20.345-95.356-4.636-1.998s3.252-13.524 7.791-21.002c4.388-7.228 14.432-16.142 14.432-16.142l4.344 2.84c-14.668 9.787-19.326 18.885-21.931 36.302Zm26.369-5.494-1.795-4.719s11.97-7.084 20.498-9.034c8.243-1.885 21.634-.885 21.634-.885l.987 5.095c-17.238-3.711-27.011-.717-41.324 9.543Zm-8.042 30.639 1.66-4.767s13.722 2.273 21.506 6.265c7.525 3.858 17.136 13.236 17.136 13.236l-2.521 4.536c-10.814-13.928-20.223-17.921-37.781-19.27Z"/><path fill="#000" d="m244.18 160.304 2.8 4.2s-10.091 9.573-17.971 13.373c-7.616 3.673-20.894 5.681-20.894 5.681l-2.097-4.748c17.632-.221 26.493-5.316 38.162-18.506Z"/><path fill="#000" d="m259.399 163.331-1.12 4.922s-13.89-.731-22.07-3.832c-7.907-2.996-18.503-11.247-18.503-11.247l2.001-4.789c12.297 12.639 22.092 15.56 39.692 14.946Z"/><path fill="#000" d="m240.33 151.239 4.925 1.108s-.698 13.891-3.778 22.079c-2.977 7.915-11.202 18.53-11.202 18.53l-4.793-1.989c12.608-12.328 15.505-22.129 14.848-39.728Z"/><path fill="#000" d="m242.788 161.775.003 5.048s-13.706 2.373-22.37 1.168c-8.375-1.165-20.539-6.854-20.539-6.854l.887-5.114c14.797 9.59 24.996 10.261 42.019 5.752Z"/><path fill="#000" d="m251.365 164.758-4.247 2.729s-9.401-10.251-13.068-18.193c-3.545-7.677-5.329-20.987-5.329-20.987l4.783-2.016c-.076 17.633 4.869 26.578 17.861 38.467Z"/><path fill="#000" d="M262.353 155.29c-4.752-10.658-19.007-11.182-25.659-8.089-5.702 3.33-9.504 8.089-7.366 20.46 2.139 12.371 13.78 14.036 22.571 13.56 8.791-.476 16.394-12.609 10.454-25.931Zm29.449-47.875c.742-4.601-3.908-7.892-6.808-8.313-2.634-.133-4.945.627-6.934 5.229-1.99 4.603 1.538 7.704 4.58 9.466 3.042 1.763 8.236-.631 9.162-6.382Zm45.489 27.54c3.818-2.672 2.941-8.301 1.224-10.675-1.739-1.983-3.894-3.112-8.582-1.335-4.688 1.778-4.457 6.469-3.603 9.88.854 3.41 6.188 5.47 10.961 2.13Zm-15.515 63.325c4.643.409 7.591-4.465 7.803-7.387-.056-2.637-.98-4.887-5.713-6.541-4.733-1.654-7.574 2.086-9.113 5.247-1.54 3.161 1.22 8.169 7.023 8.681Zm-123.627-21.22c-3.127 3.455-1.018 8.748 1.185 10.679 2.136 1.546 4.488 2.167 8.663-.61 4.175-2.777 2.905-7.299 1.313-10.433-1.592-3.135-7.252-3.955-11.161.364Zm17.413-35.588c-4.66.109-7.048 5.282-6.932 8.209.349 2.614 1.517 4.748 6.405 5.865s7.294-2.917 8.472-6.229c1.179-3.313-2.122-7.983-7.945-7.845Zm3.017 53.657c.121 4.659 5.299 7.035 8.226 6.912 2.613-.356 4.744-1.529 5.849-6.419 1.105-4.891-2.934-7.288-6.25-8.458-3.315-1.17-7.977 2.142-7.825 7.965Zm-23.391-44.925c-4.518 1.142-5.697 6.716-4.934 9.544.922 2.471 2.535 4.292 7.549 4.295 5.013.003 6.463-4.464 6.876-7.956.413-3.492-3.843-7.311-9.491-5.883Zm40.199-31.752c-3.403-3.185-8.73-1.166-10.698 1.004-1.582 2.11-2.243 4.452.464 8.672 2.706 4.221 7.249 3.028 10.41 1.489 3.161-1.54 4.076-7.184-.176-11.165Z"/><path fill="#B3B6BA" d="M267.615 255.795c-4.752-10.658-19.007-11.182-25.659-8.089-5.702 3.331-9.504 8.089-7.366 20.46 2.139 12.371 13.78 14.037 22.571 13.561 8.791-.476 16.394-12.609 10.454-25.932Zm0-200.458c-4.752-10.658-19.007-11.182-25.659-8.09-5.702 3.331-9.504 8.09-7.366 20.46 2.139 12.372 13.78 14.037 22.571 13.561 8.791-.475 16.394-12.609 10.454-25.931ZM162.232 161.285c-4.751-10.658-19.006-11.182-25.659-8.089-5.702 3.331-9.504 8.089-7.365 20.46 2.138 12.371 13.78 14.037 22.571 13.561 8.79-.476 16.393-12.609 10.453-25.932Zm212.819-2.148c-4.752-10.658-19.007-11.182-25.66-8.089-5.702 3.33-9.503 8.089-7.365 20.46s13.78 14.036 22.571 13.56c8.791-.475 16.393-12.609 10.454-25.931Z"/></svg>