<svg xmlns="http://www.w3.org/2000/svg" width="1040" height="440" fill="none"><path fill="#fff" d="M5.104 15.192c-.885 0-1.648-.221-2.288-.664-.64-.448-1.133-1.067-1.48-1.856-.347-.795-.52-1.715-.52-2.76 0-1.115.187-2.053.56-2.816.379-.763.89-1.339 1.536-1.728.65-.395 1.381-.592 2.192-.592 1.072 0 1.933.27 2.584.808.656.533 1.107 1.23 1.352 2.088l-1.344.272c-.208-.624-.541-1.12-1-1.488a2.428 2.428 0 0 0-1.592-.56c-.528 0-1.016.152-1.464.456-.443.299-.8.747-1.072 1.344-.272.597-.408 1.336-.408 2.216 0 .8.107 1.512.32 2.136.219.624.544 1.115.976 1.472.437.357.987.536 1.648.536.795 0 1.424-.213 1.888-.64.47-.427.704-.987.704-1.68h1.36c0 .72-.165 1.339-.496 1.856-.33.512-.795.907-1.392 1.184-.592.277-1.28.416-2.064.416ZM11.428 15V4.088h1.248V15h-1.248Zm9.685-7.664h1.248V15h-1.248V7.336Zm-5.424 0h1.248v4.768c0 .64.154 1.125.464 1.456.314.33.762.496 1.344.496.48 0 .896-.128 1.248-.384.357-.256.632-.608.824-1.056.197-.453.296-.97.296-1.552h.464c0 .859-.126 1.592-.376 2.2-.245.608-.595 1.075-1.048 1.4-.448.32-.976.48-1.584.48-.576 0-1.08-.107-1.512-.32a2.294 2.294 0 0 1-1.008-.968c-.24-.437-.36-.99-.36-1.656V7.336Zm12.663 7.856c-.741 0-1.36-.104-1.856-.312-.496-.213-.872-.504-1.128-.872a2.353 2.353 0 0 1-.408-1.28h1.2c.027.485.222.85.584 1.096.368.24.867.36 1.496.36.331 0 .635-.053.912-.16.278-.107.499-.253.664-.44a.928.928 0 0 0 .248-.632c0-.299-.109-.533-.328-.704-.218-.17-.568-.32-1.048-.448l-1.488-.48c-.645-.203-1.141-.48-1.488-.832a1.788 1.788 0 0 1-.512-1.28c0-.619.272-1.115.816-1.488.544-.373 1.259-.56 2.144-.56.939 0 1.667.192 2.184.576.518.384.787.864.808 1.44H29.92a1.002 1.002 0 0 0-.512-.76c-.293-.176-.709-.264-1.248-.264-.517 0-.922.117-1.216.352-.288.23-.432.485-.432.768 0 .528.454.917 1.36 1.168l1.52.512c.656.197 1.158.456 1.504.776.352.32.528.728.528 1.224 0 .384-.125.747-.376 1.088-.25.341-.605.619-1.064.832-.458.213-1.002.32-1.632.32Zm8.007 0c-.416 0-.79-.08-1.12-.24-.331-.16-.592-.4-.784-.72-.192-.32-.288-.72-.288-1.2V5.224h1.232V13c0 .79.368 1.184 1.104 1.184.218 0 .429-.024.632-.072.208-.048.44-.12.696-.216l.176.896a6.22 6.22 0 0 1-.816.288 3.07 3.07 0 0 1-.832.112Zm-3.424-6.976v-.864h4.88v.864h-4.88Zm9.743 6.976a3.213 3.213 0 0 1-1.776-.504c-.517-.341-.928-.813-1.232-1.416-.298-.603-.448-1.296-.448-2.08 0-.837.15-1.557.448-2.16.299-.603.707-1.064 1.224-1.384.523-.325 1.118-.488 1.784-.488.582 0 1.078.117 1.488.352.41.235.742.552.992.952.25.4.424.853.52 1.36.102.501.13 1.021.088 1.56H40.23v-.768h4.712l-.368.24a4.322 4.322 0 0 0-.056-.944 2.697 2.697 0 0 0-.28-.864 1.648 1.648 0 0 0-.584-.64c-.25-.16-.57-.24-.96-.24-.49 0-.901.125-1.232.376-.33.25-.578.581-.744.992a3.46 3.46 0 0 0-.248 1.32v.512c0 .533.08 1.01.24 1.432.166.421.41.755.736 1s.736.368 1.232.368.904-.12 1.224-.36c.32-.24.515-.595.584-1.064h1.296c-.08.507-.261.944-.544 1.312a2.81 2.81 0 0 1-1.08.84c-.437.197-.93.296-1.48.296ZM48.241 15V7.336h1.248V15h-1.248Zm.864-3.456c0-.97.093-1.776.28-2.416.187-.645.459-1.125.816-1.44.363-.32.803-.48 1.32-.48.17 0 .325.013.464.04.144.021.288.056.432.104l-.08 1.232a3.842 3.842 0 0 0-.488-.12 2.301 2.301 0 0 0-.472-.056c-.453 0-.819.13-1.096.392-.277.256-.48.619-.608 1.088-.123.47-.184 1.021-.184 1.656h-.384Z"/><path fill="#0C0D0E" d="M.336 27.336h436.576V208.43H.336z"/><path stroke="#fff" stroke-width=".672" d="M.336 27.336h436.576V208.43H.336z"/><path fill="#fff" d="M2.213 220.369h.84v8.398h-1.04v-7.172a2.54 2.54 0 0 1-1.373.467v-1.013c.28-.04.55-.114.813-.22.267-.107.52-.26.76-.46Zm3.04 8.398v-1.24c0-.484.078-.889.233-1.213.16-.324.382-.593.667-.807a4.55 4.55 0 0 1 1.02-.553l1.652-.653c.427-.173.747-.395.96-.666.214-.271.32-.609.32-1.014 0-.426-.149-.775-.446-1.046-.294-.271-.705-.406-1.233-.406-.525 0-.956.113-1.293.339-.334.223-.525.558-.574 1.007H5.4c.032-.484.174-.896.427-1.233a2.381 2.381 0 0 1 1.047-.767c.44-.177.953-.266 1.54-.266.537 0 1.019.104 1.446.313a2.5 2.5 0 0 1 1.006.866c.249.365.373.785.373 1.26 0 .431-.08.807-.24 1.127-.16.319-.388.595-.686.826a4.28 4.28 0 0 1-1.047.593l-1.693.68c-.426.164-.746.362-.96.593-.213.231-.32.531-.32.9v.4h4.866v.96H5.253Zm10.825.16c-.657 0-1.233-.16-1.726-.48-.489-.32-.87-.802-1.146-1.447-.271-.644-.407-1.45-.407-2.419 0-.969.136-1.773.407-2.413.275-.644.657-1.124 1.146-1.439.493-.32 1.069-.48 1.726-.48.654 0 1.227.16 1.72.48.493.315.875.795 1.146 1.439.276.64.414 1.444.414 2.413 0 .969-.138 1.775-.414 2.419-.27.645-.653 1.127-1.146 1.447-.493.32-1.066.48-1.72.48Zm0-.96c.72 0 1.267-.293 1.64-.88.373-.591.56-1.426.56-2.506 0-1.08-.187-1.913-.56-2.499-.373-.591-.92-.887-1.64-.887-.71 0-1.255.296-1.633.887-.377.586-.566 1.419-.566 2.499s.189 1.915.566 2.506c.378.587.922.88 1.633.88Zm7.915.96c-.657 0-1.233-.16-1.726-.48-.489-.32-.871-.802-1.147-1.447-.27-.644-.406-1.45-.406-2.419 0-.969.135-1.773.406-2.413.276-.644.658-1.124 1.147-1.439.493-.32 1.069-.48 1.726-.48.653 0 1.226.16 1.72.48.493.315.875.795 1.146 1.439.275.64.413 1.444.413 2.413 0 .969-.137 1.775-.413 2.419-.271.645-.653 1.127-1.146 1.447-.494.32-1.067.48-1.72.48Zm0-.96c.72 0 1.266-.293 1.64-.88.373-.591.56-1.426.56-2.506 0-1.08-.187-1.913-.56-2.499-.374-.591-.92-.887-1.64-.887-.71 0-1.255.296-1.633.887-.377.586-.566 1.419-.566 2.499s.189 1.915.566 2.506c.378.587.922.88 1.633.88Zm8.195.96c-.467 0-.873-.107-1.22-.32a2.091 2.091 0 0 1-.793-.933c-.187-.414-.28-.916-.28-1.507h.44c0 .396.082.729.246 1 .165.271.378.478.64.62.267.138.549.206.847.206.32 0 .626-.091.92-.273.293-.186.533-.46.72-.82.186-.36.28-.804.28-1.333 0-.506-.087-.939-.26-1.299a1.958 1.958 0 0 0-.687-.827 1.702 1.702 0 0 0-.96-.286 1.74 1.74 0 0 0-.853.22 1.67 1.67 0 0 0-.647.646c-.164.28-.246.627-.246 1.04h-.44c0-.618.102-1.135.306-1.553.205-.422.483-.74.834-.953a2.23 2.23 0 0 1 1.18-.32c.497 0 .961.133 1.392.4.431.266.78.649 1.047 1.146.266.498.4 1.093.4 1.786 0 .702-.136 1.305-.407 1.807-.267.502-.618.886-1.053 1.153-.436.266-.904.4-1.406.4Zm-2.893 2.972v-9.504h.866l.174 1.493v8.011h-1.04Zm6.798-3.132 2.413-3.186-2.413-3.199h1.266l1.826 2.412 1.76-2.412h1.266l-2.426 3.199 2.413 3.186h-1.266l-1.827-2.426-1.746 2.426h-1.266Zm9.984 0 2.413-3.186-2.413-3.199h1.267l1.826 2.412 1.76-2.412h1.266l-2.426 3.199 2.412 3.186h-1.266l-1.826-2.426-1.746 2.426h-1.267Zm13.397.16c-.528 0-1.01-.096-1.446-.287a2.472 2.472 0 0 1-1.046-.84c-.263-.373-.396-.829-.4-1.366h1.04c0 .506.177.889.533 1.146.36.258.8.387 1.32.387.6 0 1.07-.182 1.412-.547.347-.369.52-.822.52-1.359 0-1.076-.693-1.613-2.08-1.613h-2.239l.36-4.053h4.639v.947h-3.8l.214-.36-.28 2.919-.133-.12c.213-.049.455-.082.727-.1.27-.022.513-.033.726-.033.906 0 1.624.202 2.153.606.528.405.793 1.007.793 1.807 0 .542-.122 1.03-.367 1.466a2.67 2.67 0 0 1-1.046 1.026c-.449.249-.982.374-1.6.374Zm7.724 0c-.657 0-1.233-.16-1.726-.48-.489-.32-.87-.802-1.146-1.447-.271-.644-.407-1.45-.407-2.419 0-.969.136-1.773.407-2.413.275-.644.657-1.124 1.146-1.439.493-.32 1.069-.48 1.726-.48.654 0 1.227.16 1.72.48.493.315.875.795 1.146 1.439.276.64.414 1.444.414 2.413 0 .969-.138 1.775-.414 2.419-.27.645-.653 1.127-1.146 1.447-.493.32-1.066.48-1.72.48Zm0-.96c.72 0 1.267-.293 1.64-.88.373-.591.56-1.426.56-2.506 0-1.08-.187-1.913-.56-2.499-.373-.591-.92-.887-1.64-.887-.71 0-1.255.296-1.632.887-.378.586-.567 1.419-.567 2.499s.189 1.915.567 2.506c.377.587.921.88 1.632.88Zm7.915.96c-.657 0-1.233-.16-1.726-.48-.489-.32-.871-.802-1.147-1.447-.27-.644-.406-1.45-.406-2.419 0-.969.135-1.773.406-2.413.276-.644.658-1.124 1.147-1.439.493-.32 1.069-.48 1.726-.48.653 0 1.227.16 1.72.48.493.315.875.795 1.146 1.439.275.64.413 1.444.413 2.413 0 .969-.138 1.775-.413 2.419-.271.645-.653 1.127-1.146 1.447-.493.32-1.067.48-1.72.48Zm0-.96c.72 0 1.266-.293 1.64-.88.373-.591.56-1.426.56-2.506 0-1.08-.187-1.913-.56-2.499-.374-.591-.92-.887-1.64-.887-.71 0-1.255.296-1.633.887-.377.586-.566 1.419-.566 2.499s.189 1.915.566 2.506c.378.587.922.88 1.633.88Zm8.195.96c-.467 0-.873-.107-1.22-.32a2.092 2.092 0 0 1-.793-.933c-.187-.414-.28-.916-.28-1.507h.44c0 .396.082.729.246 1 .165.271.378.478.64.62.267.138.549.206.847.206.32 0 .626-.091.92-.273.293-.186.533-.46.72-.82.186-.36.28-.804.28-1.333 0-.506-.087-.939-.26-1.299a1.958 1.958 0 0 0-.687-.827 1.702 1.702 0 0 0-.96-.286 1.74 1.74 0 0 0-.853.22 1.67 1.67 0 0 0-.647.646c-.164.28-.246.627-.246 1.04h-.44c0-.618.102-1.135.306-1.553.205-.422.483-.74.834-.953a2.23 2.23 0 0 1 1.18-.32c.497 0 .961.133 1.392.4.431.266.78.649 1.047 1.146.266.498.4 1.093.4 1.786 0 .702-.136 1.305-.407 1.807-.266.502-.617.886-1.053 1.153a2.65 2.65 0 0 1-1.406.4Zm-2.893 2.972v-9.504h.867l.173 1.493v8.011h-1.04Zm6.798-3.132 2.413-3.186-2.413-3.199h1.266l1.826 2.412 1.76-2.412h1.266l-2.426 3.199 2.413 3.186h-1.266l-1.827-2.426-1.746 2.426h-1.266Zm-83.254 16.16a4.24 4.24 0 0 1-1.213-.174 3.54 3.54 0 0 1-1.046-.52 2.53 2.53 0 0 1-.727-.853 2.478 2.478 0 0 1-.267-1.173h1.067c.009.382.111.705.306.967.196.262.456.46.78.593.33.133.696.2 1.1.2.622 0 1.104-.151 1.446-.453a1.45 1.45 0 0 0 .514-1.133c0-.289-.072-.545-.214-.767-.142-.222-.369-.395-.68-.52-.306-.129-.71-.193-1.213-.193h-.946v-.827h.64c.649 0 1.16-.128 1.533-.386s.56-.613.56-1.067a1.32 1.32 0 0 0-.454-1.013c-.302-.275-.733-.413-1.293-.413-.43 0-.815.089-1.153.267-.337.173-.566.493-.686.96H.946c.072-.52.24-.94.507-1.26.267-.32.604-.551 1.013-.693.409-.147.862-.22 1.36-.22.555 0 1.05.097 1.486.293a2.5 2.5 0 0 1 1.026.806c.254.343.38.736.38 1.18 0 .44-.126.818-.38 1.133-.248.311-.61.551-1.086.72.529.151.96.4 1.293.747.338.346.507.79.507 1.333 0 .479-.127.906-.38 1.279-.25.369-.605.66-1.067.873-.462.209-1.01.314-1.646.314Zm6.13-8.558h.84v8.398h-1.04v-7.172a2.54 2.54 0 0 1-1.373.467v-1.013c.28-.04.55-.114.813-.22.266-.107.52-.26.76-.46Zm2.973 8.398 4.012-7.385h-4.479v-.987h5.706v.96l-3.853 7.412h-1.386Zm5.875-.62c0-.209.073-.389.22-.54a.74.74 0 0 1 .553-.227c.222 0 .411.076.567.227a.727.727 0 0 1 .233.54.684.684 0 0 1-.233.526.81.81 0 0 1-.567.214.764.764 0 0 1-.553-.214.717.717 0 0 1-.22-.526Zm5.741.78c-.528 0-1.01-.096-1.446-.287a2.474 2.474 0 0 1-1.046-.84c-.263-.373-.396-.829-.4-1.366h1.04c0 .506.177.889.533 1.146.36.258.8.387 1.32.387.6 0 1.07-.182 1.412-.547.347-.369.52-.822.52-1.359 0-1.076-.693-1.613-2.08-1.613h-2.239l.36-4.053h4.639v.947h-3.8l.214-.36-.28 2.919-.133-.12c.213-.049.455-.082.726-.1.271-.022.514-.033.727-.033.906 0 1.624.202 2.153.606.529.405.793 1.007.793 1.807 0 .542-.122 1.03-.367 1.466a2.67 2.67 0 0 1-1.046 1.026c-.449.249-.982.374-1.6.374Zm14.07-.16v-3.746c0-.609-.147-1.071-.44-1.386-.29-.32-.68-.48-1.173-.48-.578 0-1.02.224-1.327.673-.306.444-.46 1.06-.46 1.846h-.48c0-.573.056-1.075.167-1.506.116-.431.282-.789.5-1.073.218-.289.482-.505.793-.647a2.525 2.525 0 0 1 1.06-.213c.502 0 .93.113 1.286.34.36.222.636.542.827.96.19.417.286.913.286 1.486v3.746h-1.04Zm-8.958 0v-6.372h.893l.12 1.28c.2-.463.48-.818.84-1.067.364-.249.8-.373 1.306-.373.502 0 .93.113 1.286.34.36.222.636.542.827.96.19.417.286.913.286 1.486v3.746h-1.026v-3.746c0-.609-.147-1.071-.44-1.386-.289-.32-.684-.48-1.186-.48-.382 0-.713.104-.993.313-.28.209-.496.509-.647.9-.151.386-.227.848-.227 1.386v3.013h-1.04Zm21.428 0v-3.746c0-.609-.146-1.071-.44-1.386-.288-.32-.68-.48-1.173-.48-.577 0-1.02.224-1.326.673-.307.444-.46 1.06-.46 1.846h-.48c0-.573.056-1.075.167-1.506.115-.431.282-.789.5-1.073.218-.289.482-.505.793-.647a2.525 2.525 0 0 1 1.06-.213c.502 0 .93.113 1.286.34.36.222.635.542.826.96.192.417.287.913.287 1.486v3.746h-1.04Zm-8.957 0v-6.372h.893l.12 1.28c.2-.463.48-.818.84-1.067.364-.249.8-.373 1.306-.373.502 0 .93.113 1.286.34.36.222.636.542.827.96.19.417.286.913.286 1.486v3.746h-1.026v-3.746c0-.609-.147-1.071-.44-1.386-.289-.32-.684-.48-1.187-.48-.382 0-.713.104-.993.313-.28.209-.495.509-.646.9-.151.386-.227.848-.227 1.386v3.013h-1.04Zm14.634 0 2.413-3.186-2.413-3.199h1.266l1.826 2.412 1.76-2.412h1.266l-2.426 3.199L63 244.767h-1.266l-1.827-2.426-1.746 2.426h-1.266Zm11.85-8.398h.84v8.398h-1.04v-7.172a2.54 2.54 0 0 1-1.373.467v-1.013c.28-.04.552-.114.814-.22.266-.107.52-.26.76-.46Zm6.147 8.558a4.24 4.24 0 0 1-1.213-.174 3.54 3.54 0 0 1-1.047-.52 2.53 2.53 0 0 1-.726-.853 2.477 2.477 0 0 1-.267-1.173h1.067c.009.382.11.705.306.967s.456.46.78.593c.329.133.695.2 1.1.2.622 0 1.104-.151 1.446-.453a1.45 1.45 0 0 0 .513-1.133c0-.289-.07-.545-.213-.767-.142-.222-.369-.395-.68-.52-.306-.129-.71-.193-1.213-.193H73.8v-.827h.64c.648 0 1.16-.128 1.533-.386s.56-.613.56-1.067a1.32 1.32 0 0 0-.454-1.013c-.302-.275-.733-.413-1.293-.413-.43 0-.815.089-1.153.267-.338.173-.566.493-.686.96H71.88c.071-.52.24-.94.507-1.26.266-.32.604-.551 1.013-.693.409-.147.862-.22 1.36-.22.555 0 1.05.097 1.486.293a2.5 2.5 0 0 1 1.026.806c.254.343.38.736.38 1.18 0 .44-.126.818-.38 1.133-.249.311-.61.551-1.086.72.529.151.96.4 1.293.747.338.346.506.79.506 1.333 0 .479-.126.906-.38 1.279-.248.369-.604.66-1.066.873-.462.209-1.01.314-1.646.314Zm4.77-.16v-1.24c0-.484.077-.889.233-1.213.16-.324.382-.593.666-.807a4.548 4.548 0 0 1 1.02-.553l1.653-.653c.427-.173.747-.395.96-.666.213-.271.32-.609.32-1.014 0-.426-.15-.775-.447-1.046-.293-.271-.704-.406-1.233-.406-.524 0-.955.113-1.293.339-.333.223-.524.558-.573 1.007h-1.16c.031-.484.173-.896.427-1.233a2.381 2.381 0 0 1 1.046-.767c.44-.177.953-.266 1.54-.266.537 0 1.02.104 1.446.313a2.5 2.5 0 0 1 1.007.866c.248.365.373.785.373 1.26 0 .431-.08.807-.24 1.127a2.4 2.4 0 0 1-.687.826 4.281 4.281 0 0 1-1.046.593l-1.693.68c-.427.164-.746.362-.96.593-.213.231-.32.531-.32.9v.4h4.866v.96h-5.905Zm7.266-.62c0-.209.073-.389.22-.54a.74.74 0 0 1 .553-.227c.222 0 .41.076.566.227a.727.727 0 0 1 .234.54.684.684 0 0 1-.234.526.81.81 0 0 1-.566.214.764.764 0 0 1-.553-.214.717.717 0 0 1-.22-.526Zm5.941.78a4.24 4.24 0 0 1-1.213-.174 3.542 3.542 0 0 1-1.046-.52 2.53 2.53 0 0 1-.727-.853 2.479 2.479 0 0 1-.266-1.173h1.066c.009.382.111.705.306.967.196.262.456.46.78.593.33.133.696.2 1.1.2.622 0 1.104-.151 1.446-.453a1.45 1.45 0 0 0 .514-1.133c0-.289-.072-.545-.214-.767-.142-.222-.368-.395-.68-.52-.306-.129-.71-.193-1.213-.193h-.946v-.827h.64c.649 0 1.16-.128 1.533-.386s.56-.613.56-1.067a1.32 1.32 0 0 0-.454-1.013c-.302-.275-.733-.413-1.293-.413-.43 0-.815.089-1.153.267-.337.173-.566.493-.686.96h-1.067c.072-.52.24-.94.507-1.26.267-.32.604-.551 1.013-.693.409-.147.862-.22 1.36-.22.555 0 1.05.097 1.486.293a2.5 2.5 0 0 1 1.027.806c.253.343.38.736.38 1.18 0 .44-.127.818-.38 1.133-.25.311-.611.551-1.087.72.529.151.96.4 1.293.747.338.346.507.79.507 1.333 0 .479-.127.906-.38 1.279-.25.369-.605.66-1.067.873-.462.209-1.01.314-1.646.314Zm14.221-.16v-3.746c0-.609-.147-1.071-.44-1.386-.289-.32-.68-.48-1.173-.48-.578 0-1.02.224-1.326.673-.307.444-.46 1.06-.46 1.846h-.48c0-.573.055-1.075.166-1.506.116-.431.283-.789.5-1.073.218-.289.482-.505.793-.647a2.527 2.527 0 0 1 1.06-.213c.502 0 .931.113 1.286.34.36.222.636.542.827.96.191.417.287.913.287 1.486v3.746h-1.04Zm-8.958 0v-6.372h.893l.12 1.28c.2-.463.48-.818.84-1.067.364-.249.8-.373 1.306-.373.502 0 .931.113 1.287.34.359.222.635.542.826.96.191.417.287.913.287 1.486v3.746h-1.027v-3.746c0-.609-.146-1.071-.44-1.386-.288-.32-.684-.48-1.186-.48-.382 0-.713.104-.993.313-.28.209-.496.509-.647.9-.15.386-.226.848-.226 1.386v3.013h-1.04Zm21.429 0v-3.746c0-.609-.147-1.071-.44-1.386-.289-.32-.68-.48-1.173-.48-.578 0-1.02.224-1.327.673-.306.444-.46 1.06-.46 1.846h-.479c0-.573.055-1.075.166-1.506.116-.431.282-.789.5-1.073.218-.289.482-.505.793-.647a2.527 2.527 0 0 1 1.06-.213c.502 0 .931.113 1.286.34.36.222.636.542.827.96.191.417.286.913.286 1.486v3.746h-1.039Zm-8.958 0v-6.372h.893l.12 1.28c.2-.463.48-.818.84-1.067.364-.249.8-.373 1.306-.373.502 0 .931.113 1.286.34.36.222.636.542.827.96.191.417.286.913.286 1.486v3.746h-1.026v-3.746c0-.609-.147-1.071-.44-1.386-.289-.32-.684-.48-1.186-.48-.382 0-.713.104-.993.313-.28.209-.496.509-.647.9-.151.386-.226.848-.226 1.386v3.013h-1.04ZM458.865 15V4.952h1.248V15h-1.248Zm7.972.192c-.885 0-1.648-.221-2.288-.664-.64-.448-1.133-1.067-1.48-1.856-.347-.795-.52-1.715-.52-2.76 0-1.115.187-2.053.56-2.816.379-.763.891-1.339 1.536-1.728.651-.395 1.381-.592 2.192-.592 1.072 0 1.933.27 2.584.808.656.533 1.107 1.23 1.352 2.088l-1.344.272c-.208-.624-.541-1.12-1-1.488a2.428 2.428 0 0 0-1.592-.56c-.528 0-1.016.152-1.464.456-.443.299-.8.747-1.072 1.344-.272.597-.408 1.336-.408 2.216 0 .8.107 1.512.32 2.136.219.624.544 1.115.976 1.472.437.357.987.536 1.648.536.795 0 1.424-.213 1.888-.64.469-.427.704-.987.704-1.68h1.36c0 .72-.165 1.339-.496 1.856a3.233 3.233 0 0 1-1.392 1.184c-.592.277-1.28.416-2.064.416Zm9.541 0c-.672 0-1.288-.12-1.848-.36a3.218 3.218 0 0 1-1.352-1.08c-.342-.475-.518-1.061-.528-1.76h1.216c0 .47.114.856.344 1.16.229.299.533.523.912.672.378.144.792.216 1.24.216.485 0 .906-.077 1.264-.232.357-.155.632-.357.824-.608.197-.256.296-.536.296-.84 0-.427-.131-.77-.392-1.032-.262-.267-.648-.483-1.16-.648l-1.776-.624c-.832-.299-1.462-.64-1.888-1.024-.427-.384-.64-.923-.64-1.616 0-.779.298-1.413.896-1.904.602-.49 1.456-.736 2.56-.736 1.024 0 1.824.237 2.4.712.576.47.906 1.101.992 1.896h-1.232c-.08-.464-.299-.824-.656-1.08-.352-.261-.854-.392-1.504-.392-.662 0-1.176.147-1.544.44-.368.293-.552.664-.552 1.112 0 .368.114.661.344.88.234.213.6.405 1.096.576l2.08.72c.72.24 1.288.576 1.704 1.008.421.432.632.992.632 1.68 0 .533-.144 1.016-.432 1.448-.283.432-.702.776-1.256 1.032-.555.256-1.235.384-2.04.384Z"/><path fill="#0C0D0E" d="M457.585 27.336h581.328V398.92H457.585z"/><path stroke="#fff" stroke-width=".672" d="M457.585 27.336h581.328V398.92H457.585z"/><path fill="#fff" d="M459.461 410.858h.84v8.398h-1.039v-7.172a2.537 2.537 0 0 1-1.373.467v-1.013c.279-.04.551-.114.813-.22.266-.107.52-.26.759-.46Zm6.2 8.558c-.671 0-1.257-.185-1.76-.553-.497-.369-.884-.869-1.159-1.5-.276-.635-.414-1.351-.414-2.146 0-.938.14-1.74.42-2.406.28-.671.68-1.184 1.2-1.54.52-.355 1.14-.533 1.86-.533.497 0 .935.096 1.313.287.382.186.686.448.913.786.231.338.369.731.413 1.18h-1.133c-.067-.4-.218-.718-.453-.953-.236-.236-.578-.354-1.027-.354-.764 0-1.364.331-1.799.994-.436.657-.653 1.557-.653 2.699 0 .164.004.355.013.573.009.213.027.413.053.6.04-.591.176-1.055.407-1.393.235-.342.529-.584.88-.727a2.94 2.94 0 0 1 1.113-.213c.506 0 .959.111 1.359.333.405.223.722.531.953.927.236.391.354.842.354 1.353 0 .515-.12.968-.36 1.359-.24.387-.576.689-1.007.907-.426.213-.922.32-1.486.32Zm0-.96c.507 0 .926-.149 1.26-.446.333-.298.5-.7.5-1.207 0-.52-.167-.926-.5-1.22-.334-.297-.753-.446-1.26-.446-.333 0-.631.073-.893.22-.262.142-.471.34-.627.593a1.611 1.611 0 0 0-.226.853c0 .507.166.909.5 1.207.333.297.748.446 1.246.446Zm7.575.96c-.658 0-1.233-.16-1.726-.48-.489-.32-.871-.802-1.147-1.446-.271-.645-.406-1.451-.406-2.42 0-.968.135-1.773.406-2.412.276-.645.658-1.125 1.147-1.44.493-.32 1.068-.48 1.726-.48.653 0 1.226.16 1.72.48.493.315.875.795 1.146 1.44.275.639.413 1.444.413 2.412 0 .969-.138 1.775-.413 2.42-.271.644-.653 1.126-1.146 1.446-.494.32-1.067.48-1.72.48Zm0-.96c.72 0 1.266-.293 1.64-.88.373-.591.559-1.426.559-2.506 0-1.079-.186-1.913-.559-2.499-.374-.591-.92-.887-1.64-.887-.711 0-1.255.296-1.633.887-.378.586-.566 1.42-.566 2.499 0 1.08.188 1.915.566 2.506.378.587.922.88 1.633.88Zm7.915.96c-.658 0-1.233-.16-1.727-.48-.488-.32-.87-.802-1.146-1.446-.271-.645-.407-1.451-.407-2.42 0-.968.136-1.773.407-2.412.276-.645.658-1.125 1.146-1.44.494-.32 1.069-.48 1.727-.48.653 0 1.226.16 1.719.48.493.315.876.795 1.147 1.44.275.639.413 1.444.413 2.412 0 .969-.138 1.775-.413 2.42-.271.644-.654 1.126-1.147 1.446-.493.32-1.066.48-1.719.48Zm0-.96c.719 0 1.266-.293 1.639-.88.373-.591.56-1.426.56-2.506 0-1.079-.187-1.913-.56-2.499-.373-.591-.92-.887-1.639-.887-.711 0-1.256.296-1.633.887-.378.586-.567 1.42-.567 2.499 0 1.08.189 1.915.567 2.506.377.587.922.88 1.633.88Zm8.194.96c-.466 0-.873-.107-1.219-.32a2.08 2.08 0 0 1-.794-.933c-.186-.413-.279-.916-.279-1.506h.439c0 .395.083.728.247.999.164.271.378.478.64.62.266.138.549.207.846.207.32 0 .627-.091.92-.274.293-.186.533-.459.72-.819.187-.36.28-.805.28-1.333 0-.507-.087-.94-.26-1.3a1.956 1.956 0 0 0-.687-.826 1.691 1.691 0 0 0-.959-.287c-.303 0-.587.073-.853.22a1.673 1.673 0 0 0-.647.646c-.164.28-.247.627-.247 1.04h-.439c0-.618.102-1.135.306-1.553.204-.422.482-.74.833-.953a2.23 2.23 0 0 1 1.18-.32c.498 0 .962.133 1.393.4.431.267.78.649 1.046 1.146.267.498.4 1.093.4 1.787 0 .702-.135 1.304-.406 1.806-.267.502-.618.886-1.053 1.153-.436.267-.905.4-1.407.4Zm-2.892 2.972v-9.504h.866l.173 1.493v8.011h-1.039Zm6.797-3.132 2.413-3.186-2.413-3.199h1.267l1.826 2.413 1.76-2.413h1.266l-2.426 3.199 2.413 3.186h-1.267l-1.826-2.426-1.746 2.426h-1.267Zm9.985 0 2.413-3.186-2.413-3.199h1.266l1.826 2.413 1.76-2.413h1.266l-2.426 3.199 2.413 3.186h-1.266l-1.826-2.426-1.747 2.426h-1.266Zm11.851-8.398h.839v8.398h-1.039v-7.172a2.537 2.537 0 0 1-1.373.467v-1.013c.28-.04.551-.114.813-.22.266-.107.52-.26.76-.46Zm6.146 8.558c-.658 0-1.233-.16-1.726-.48-.489-.32-.871-.802-1.147-1.446-.271-.645-.406-1.451-.406-2.42 0-.968.135-1.773.406-2.412.276-.645.658-1.125 1.147-1.44.493-.32 1.068-.48 1.726-.48.653 0 1.226.16 1.719.48.494.315.876.795 1.147 1.44.275.639.413 1.444.413 2.412 0 .969-.138 1.775-.413 2.42-.271.644-.653 1.126-1.147 1.446-.493.32-1.066.48-1.719.48Zm0-.96c.72 0 1.266-.293 1.639-.88.374-.591.56-1.426.56-2.506 0-1.079-.186-1.913-.56-2.499-.373-.591-.919-.887-1.639-.887-.711 0-1.255.296-1.633.887-.378.586-.567 1.42-.567 2.499 0 1.08.189 1.915.567 2.506.378.587.922.88 1.633.88Zm4.809.8v-1.24c0-.484.077-.888.233-1.213.16-.324.382-.593.666-.806a4.518 4.518 0 0 1 1.02-.554l1.653-.653c.427-.173.747-.395.96-.666.213-.271.32-.609.32-1.013 0-.427-.149-.776-.447-1.047-.293-.271-.704-.406-1.233-.406-.524 0-.955.113-1.293.34-.333.222-.524.557-.573 1.006h-1.16c.031-.484.174-.895.427-1.233a2.366 2.366 0 0 1 1.046-.766c.44-.178.953-.267 1.54-.267.537 0 1.02.104 1.446.313.427.209.762.498 1.007.867.248.364.373.784.373 1.259 0 .431-.08.807-.24 1.127a2.39 2.39 0 0 1-.687.826 4.278 4.278 0 0 1-1.046.593l-1.693.68c-.427.165-.746.362-.96.593-.213.231-.32.531-.32.9v.4h4.866v.96h-5.905Zm11.598-8.491h.973v5.572h1.453v.879h-1.453v2.04h-1.026v-2.04h-4.333v-.799l4.386-5.652Zm-.013 1.639-3.133 4.013h3.133v-4.013Zm6.966 7.012c-.467 0-.873-.107-1.22-.32a2.084 2.084 0 0 1-.793-.933c-.187-.413-.28-.916-.28-1.506h.44c0 .395.082.728.247.999.164.271.377.478.639.62.267.138.549.207.847.207.32 0 .626-.091.92-.274.293-.186.533-.459.719-.819.187-.36.28-.805.28-1.333 0-.507-.086-.94-.26-1.3a1.947 1.947 0 0 0-.686-.826 1.697 1.697 0 0 0-.96-.287 1.74 1.74 0 0 0-.853.22 1.677 1.677 0 0 0-.646.646c-.165.28-.247.627-.247 1.04h-.44c0-.618.102-1.135.307-1.553.204-.422.482-.74.833-.953a2.23 2.23 0 0 1 1.18-.32c.497 0 .962.133 1.393.4.431.267.779.649 1.046 1.146.267.498.4 1.093.4 1.787 0 .702-.136 1.304-.407 1.806-.266.502-.617.886-1.053 1.153a2.64 2.64 0 0 1-1.406.4Zm-2.893 2.972v-9.504h.867l.173 1.493v8.011h-1.04Zm6.798-3.132 2.413-3.186-2.413-3.199h1.266l1.827 2.413 1.759-2.413h1.267l-2.427 3.199 2.413 3.186h-1.266l-1.826-2.426-1.747 2.426h-1.266Zm-86.516 7.509h.973v5.572h1.453v.879h-1.453v2.04h-1.026v-2.04h-4.333v-.799l4.386-5.652Zm-.013 1.639-3.133 4.013h3.133v-4.013Zm3.58 6.852v-1.24c0-.484.078-.888.233-1.213.16-.324.382-.593.667-.806a4.489 4.489 0 0 1 1.019-.554l1.653-.653c.427-.173.747-.395.96-.666.213-.271.32-.609.32-1.013 0-.427-.149-.776-.447-1.047-.293-.271-.704-.406-1.233-.406-.524 0-.955.113-1.293.34-.333.222-.524.557-.573 1.006h-1.159c.031-.484.173-.895.426-1.233a2.377 2.377 0 0 1 1.046-.766c.44-.178.954-.267 1.54-.267.538 0 1.02.104 1.446.313.427.209.762.498 1.007.867.249.364.373.784.373 1.259 0 .431-.08.807-.24 1.127-.16.32-.389.595-.686.826a4.285 4.285 0 0 1-1.047.593l-1.693.68c-.426.165-.746.362-.959.593-.214.231-.32.531-.32.9v.4h4.865v.96h-5.905Zm10.825.16a4.28 4.28 0 0 1-1.213-.173 3.568 3.568 0 0 1-1.046-.52 2.54 2.54 0 0 1-.727-.853 2.494 2.494 0 0 1-.266-1.174h1.066c.009.383.111.705.307.967a1.8 1.8 0 0 0 .779.593c.329.133.696.2 1.1.2.622 0 1.104-.151 1.447-.453a1.45 1.45 0 0 0 .513-1.133c0-.289-.071-.545-.214-.767-.142-.222-.368-.395-.679-.52-.307-.128-.711-.193-1.213-.193h-.947v-.826h.64c.649 0 1.16-.129 1.533-.387s.56-.613.56-1.066c0-.4-.151-.738-.453-1.013-.303-.276-.734-.414-1.293-.414-.431 0-.816.089-1.153.267-.338.173-.567.493-.687.96h-1.066c.071-.52.24-.94.506-1.26.267-.32.604-.551 1.013-.693.409-.147.862-.22 1.36-.22.555 0 1.051.098 1.486.293a2.51 2.51 0 0 1 1.027.807c.253.342.38.735.38 1.179 0 .44-.127.818-.38 1.133-.249.312-.611.551-1.087.72.529.151.96.4 1.293.747.338.346.507.791.507 1.333 0 .48-.127.906-.38 1.279-.249.369-.604.66-1.067.874-.462.208-1.01.313-1.646.313Zm4.317-.78c0-.209.073-.389.22-.54a.737.737 0 0 1 .553-.226.78.78 0 0 1 .566.226.726.726 0 0 1 .234.54.686.686 0 0 1-.234.527.808.808 0 0 1-.566.213.762.762 0 0 1-.553-.213.72.72 0 0 1-.22-.527Zm5.941.78c-.418 0-.822-.058-1.213-.173a3.556 3.556 0 0 1-1.046-.52 2.54 2.54 0 0 1-.727-.853c-.178-.338-.266-.729-.266-1.174h1.066c.009.383.111.705.307.967a1.8 1.8 0 0 0 .779.593c.329.133.696.2 1.1.2.622 0 1.104-.151 1.446-.453.343-.302.514-.68.514-1.133 0-.289-.072-.545-.214-.767-.142-.222-.369-.395-.68-.52-.306-.128-.71-.193-1.213-.193h-.946v-.826h.64c.649 0 1.16-.129 1.533-.387s.56-.613.56-1.066c0-.4-.151-.738-.454-1.013-.302-.276-.733-.414-1.293-.414-.431 0-.815.089-1.153.267-.337.173-.566.493-.686.96h-1.067c.072-.52.24-.94.507-1.26.267-.32.604-.551 1.013-.693.409-.147.862-.22 1.36-.22.555 0 1.051.098 1.486.293a2.5 2.5 0 0 1 1.026.807c.254.342.38.735.38 1.179 0 .44-.126.818-.38 1.133-.248.312-.61.551-1.086.72.529.151.96.4 1.293.747.338.346.507.791.507 1.333 0 .48-.127.906-.38 1.279-.249.369-.605.66-1.067.874-.462.208-1.011.313-1.646.313Zm14.221-.16v-3.746c0-.609-.147-1.071-.44-1.386-.289-.32-.68-.48-1.173-.48-.578 0-1.02.224-1.326.673-.307.444-.46 1.06-.46 1.846h-.48c0-.573.055-1.075.166-1.506.116-.431.283-.789.5-1.073.218-.289.482-.504.793-.647a2.527 2.527 0 0 1 1.06-.213c.502 0 .931.113 1.286.34.36.222.636.542.827.96.191.418.287.913.287 1.486v3.746h-1.04Zm-8.958 0v-6.372h.893l.12 1.28c.2-.462.48-.818.84-1.067.364-.248.8-.373 1.306-.373.502 0 .931.113 1.287.34.359.222.635.542.826.96.191.418.287.913.287 1.486v3.746h-1.027v-3.746c0-.609-.146-1.071-.44-1.386-.288-.32-.684-.48-1.186-.48-.382 0-.713.104-.993.313-.28.209-.496.509-.647.9-.151.387-.226.849-.226 1.386v3.013h-1.04Zm21.429 0v-3.746c0-.609-.147-1.071-.44-1.386-.289-.32-.68-.48-1.173-.48-.578 0-1.02.224-1.327.673-.306.444-.46 1.06-.46 1.846h-.479c0-.573.055-1.075.166-1.506.116-.431.282-.789.5-1.073.218-.289.482-.504.793-.647a2.524 2.524 0 0 1 1.06-.213c.502 0 .931.113 1.286.34.36.222.636.542.827.96.191.418.286.913.286 1.486v3.746h-1.039Zm-8.958 0v-6.372h.893l.12 1.28c.2-.462.48-.818.84-1.067.364-.248.8-.373 1.306-.373.502 0 .931.113 1.286.34.36.222.636.542.827.96.191.418.286.913.286 1.486v3.746h-1.026v-3.746c0-.609-.147-1.071-.44-1.386-.289-.32-.684-.48-1.186-.48-.382 0-.713.104-.993.313-.28.209-.496.509-.647.9-.151.387-.226.849-.226 1.386v3.013h-1.04Zm14.634 0 2.413-3.186-2.413-3.199h1.267l1.826 2.413 1.759-2.413h1.267l-2.426 3.199 2.412 3.186h-1.266l-1.826-2.426-1.746 2.426h-1.267Zm10.491 0v-1.24c0-.484.078-.888.234-1.213.159-.324.382-.593.666-.806a4.518 4.518 0 0 1 1.02-.554l1.653-.653c.426-.173.746-.395.959-.666.214-.271.32-.609.32-1.013 0-.427-.148-.776-.446-1.047-.293-.271-.704-.406-1.233-.406-.525 0-.956.113-1.293.34-.333.222-.525.557-.573 1.006h-1.16c.031-.484.173-.895.426-1.233a2.375 2.375 0 0 1 1.047-.766c.44-.178.953-.267 1.539-.267.538 0 1.02.104 1.447.313.426.209.762.498 1.006.867.249.364.373.784.373 1.259 0 .431-.08.807-.24 1.127-.159.32-.388.595-.686.826a4.278 4.278 0 0 1-1.046.593l-1.693.68c-.427.165-.747.362-.96.593-.213.231-.32.531-.32.9v.4h4.865v.96h-5.905Zm7.653 0 4.012-7.385h-4.479v-.986h5.706v.959l-3.853 7.412h-1.386Zm9.434.16c-.658 0-1.233-.16-1.726-.48-.489-.32-.871-.802-1.147-1.446-.271-.645-.406-1.451-.406-2.42 0-.968.135-1.773.406-2.412.276-.645.658-1.125 1.147-1.44.493-.32 1.068-.48 1.726-.48.653 0 1.226.16 1.72.48.493.315.875.795 1.146 1.44.275.639.413 1.444.413 2.412 0 .969-.138 1.775-.413 2.42-.271.644-.653 1.126-1.146 1.446-.494.32-1.067.48-1.72.48Zm0-.96c.72 0 1.266-.293 1.64-.88.373-.591.559-1.426.559-2.506 0-1.079-.186-1.913-.559-2.499-.374-.591-.92-.887-1.64-.887-.711 0-1.255.296-1.633.887-.378.586-.566 1.42-.566 2.499 0 1.08.188 1.915.566 2.506.378.587.922.88 1.633.88Zm4.356.18c0-.209.073-.389.22-.54a.737.737 0 0 1 .553-.226.78.78 0 0 1 .566.226.726.726 0 0 1 .234.54.686.686 0 0 1-.234.527.808.808 0 0 1-.566.213.762.762 0 0 1-.553-.213.72.72 0 0 1-.22-.527Zm5.768.78c-.551 0-1.042-.113-1.473-.34a2.628 2.628 0 0 1-1.013-.933 2.565 2.565 0 0 1-.367-1.367h1.08c.013.511.173.92.48 1.227.311.302.733.453 1.266.453.524 0 .949-.151 1.273-.453.329-.302.569-.729.72-1.28.155-.555.233-1.208.233-1.959a6.136 6.136 0 0 0-.067-.987c-.057.48-.195.88-.413 1.2a2.07 2.07 0 0 1-.84.713 2.697 2.697 0 0 1-1.146.233c-.498 0-.946-.111-1.346-.333a2.595 2.595 0 0 1-.947-.926 2.635 2.635 0 0 1-.346-1.353c0-.52.117-.973.353-1.36.24-.387.573-.684 1-.893.426-.213.922-.32 1.486-.32.48 0 .922.098 1.326.293a3.04 3.04 0 0 1 1.06.847c.298.364.529.802.693 1.313.169.511.253 1.084.253 1.719 0 .92-.117 1.718-.353 2.393-.231.675-.589 1.197-1.073 1.566-.48.365-1.093.547-1.839.547Zm-.067-4.412c.329 0 .626-.074.893-.22.267-.147.478-.345.633-.594.156-.248.234-.528.234-.839 0-.516-.172-.922-.514-1.22-.337-.298-.753-.447-1.246-.447-.507 0-.926.149-1.26.447-.333.298-.5.704-.5 1.22 0 .511.167.915.5 1.213.334.293.753.44 1.26.44Zm14.317 4.252v-3.746c0-.609-.146-1.071-.439-1.386-.289-.32-.68-.48-1.174-.48-.577 0-1.019.224-1.326.673-.306.444-.46 1.06-.46 1.846h-.48c0-.573.056-1.075.167-1.506.116-.431.282-.789.5-1.073.218-.289.482-.504.793-.647a2.524 2.524 0 0 1 1.06-.213c.502 0 .931.113 1.286.34.36.222.636.542.827.96.191.418.286.913.286 1.486v3.746h-1.04Zm-8.957 0v-6.372h.893l.12 1.28c.2-.462.48-.818.84-1.067.364-.248.799-.373 1.306-.373.502 0 .931.113 1.286.34.36.222.636.542.827.96.191.418.286.913.286 1.486v3.746h-1.026v-3.746c0-.609-.147-1.071-.44-1.386-.289-.32-.684-.48-1.186-.48a1.61 1.61 0 0 0-.993.313c-.28.209-.496.509-.647.9-.151.387-.227.849-.227 1.386v3.013h-1.039Zm21.428 0v-3.746c0-.609-.146-1.071-.44-1.386-.288-.32-.679-.48-1.173-.48-.577 0-1.019.224-1.326.673-.307.444-.46 1.06-.46 1.846h-.48c0-.573.056-1.075.167-1.506.115-.431.282-.789.5-1.073.217-.289.482-.504.793-.647a2.524 2.524 0 0 1 1.06-.213c.502 0 .93.113 1.286.34.36.222.635.542.826.96.191.418.287.913.287 1.486v3.746h-1.04Zm-8.957 0v-6.372h.893l.12 1.28c.2-.462.479-.818.839-1.067.365-.248.8-.373 1.307-.373.502 0 .931.113 1.286.34.36.222.635.542.827.96.191.418.286.913.286 1.486v3.746h-1.026v-3.746c0-.609-.147-1.071-.44-1.386-.289-.32-.684-.48-1.187-.48-.382 0-.713.104-.993.313-.28.209-.495.509-.646.9-.151.387-.227.849-.227 1.386v3.013h-1.039Z"/></svg>