<svg xmlns="http://www.w3.org/2000/svg" width="1040" height="360" fill="none"><path fill="#fff" d="M0 0h1040v360H0z"/><path fill="#FF7B00" d="M211.458 149.74c-17.445-39.128-69.779-41.051-94.202-29.697-20.934 12.228-34.891 29.697-27.041 75.115 7.85 45.417 50.591 51.531 82.864 49.784 32.273-1.747 60.185-46.291 38.379-95.202Z"/><path fill="#000" d="m150.113 244.56-3.233-58.88h10.842l4.281 59.513c-4.643-.086-7.247-.237-11.89-.633Zm16.76-78.554-3.819-1.646s2.679-11.141 6.418-17.301c3.615-5.955 11.889-13.298 11.889-13.298l3.578 2.34c-12.083 8.062-15.92 15.557-18.066 29.905Zm21.722-4.526-1.478-3.887s9.861-5.836 16.886-7.442c6.79-1.553 17.822-.729 17.822-.729l.813 4.197c-14.201-3.057-22.252-.591-34.043 7.861Zm-6.625 25.241 1.368-3.927s11.304 1.872 17.717 5.16c6.199 3.179 14.116 10.904 14.116 10.904l-2.077 3.737c-8.908-11.474-16.659-14.763-31.124-15.874Z"/><path fill="#000" d="m151.931 177.351 2.307 3.46s-8.313 7.886-14.804 11.016c-6.274 3.027-17.213 4.68-17.213 4.68l-1.727-3.911c14.525-.182 21.825-4.379 31.437-15.245Z"/><path fill="#000" d="m164.469 179.844-.922 4.055s-11.443-.602-18.182-3.156c-6.514-2.469-15.242-9.266-15.242-9.266l1.648-3.945c10.13 10.412 18.199 12.818 32.698 12.312Z"/><path fill="#000" d="m148.76 169.883 4.057.913s-.574 11.443-3.112 18.188c-2.453 6.52-9.228 15.265-9.228 15.265l-3.949-1.638c10.387-10.156 12.773-18.23 12.232-32.728Z"/><path fill="#000" d="m150.785 178.562.002 4.159s-11.29 1.955-18.428.962c-6.899-.959-16.92-5.646-16.92-5.646l.731-4.213c12.19 7.9 20.591 8.453 34.615 4.738Z"/><path fill="#000" d="m157.851 181.02-3.499 2.248s-7.745-8.444-10.766-14.987c-2.92-6.325-4.389-17.289-4.389-17.289l3.94-1.661c-.063 14.526 4.011 21.895 14.714 31.689Z"/><path fill="#000" d="M166.903 173.22c-3.915-8.78-15.658-9.212-21.138-6.664-4.698 2.744-7.83 6.664-6.068 16.855 1.761 10.191 11.352 11.563 18.594 11.171 7.242-.392 13.505-10.387 8.612-21.362Zm24.26-39.439c.611-3.79-3.22-6.502-5.609-6.848-2.17-.11-4.073.516-5.712 4.308-1.639 3.791 1.267 6.346 3.773 7.798 2.506 1.452 6.784-.52 7.548-5.258Zm37.473 22.687c3.145-2.201 2.423-6.838 1.008-8.794-1.432-1.633-3.207-2.563-7.069-1.099-3.862 1.464-3.672 5.329-2.969 8.138.704 2.81 5.098 4.507 9.03 1.755Zm-12.781 52.167c3.825.337 6.254-3.678 6.428-6.086-.046-2.172-.807-4.026-4.706-5.388-3.899-1.363-6.239 1.719-7.508 4.323-1.268 2.604 1.006 6.729 5.786 7.151Zm-101.843-17.481c-2.576 2.847-.839 7.207.975 8.798 1.761 1.273 3.698 1.785 7.137-.503 3.439-2.287 2.393-6.012 1.082-8.595-1.312-2.582-5.974-3.258-9.194.3Zm14.344-29.317c-3.838.09-5.806 4.351-5.711 6.763.288 2.153 1.25 3.911 5.277 4.831 4.027.92 6.009-2.403 6.98-5.131.97-2.729-1.748-6.576-6.546-6.463Zm2.485 44.203c.1 3.838 4.366 5.795 6.777 5.694 2.153-.293 3.909-1.26 4.819-5.289.91-4.029-2.418-6.003-5.149-6.967-2.731-.964-6.571 1.764-6.447 6.562Zm-19.268-37.01c-3.723.941-4.694 5.533-4.065 7.863.759 2.036 2.088 3.536 6.218 3.538 4.13.002 5.325-3.678 5.665-6.554.34-2.877-3.166-6.023-7.818-4.847Zm33.115-26.157c-2.803-2.623-7.192-.96-8.813.828-1.303 1.738-1.847 3.667.382 7.144 2.23 3.477 5.972 2.494 8.576 1.226 2.604-1.268 3.358-5.918-.145-9.198Zm121.005 6.47c8.029 0 13.592 1.339 16.689 4.015 3.096 2.624 4.644 6.796 4.644 12.517 0 5.667-1.128 9.944-3.385 12.831 3.306 2.729 4.959 7.321 4.959 13.776 0 12.385-7.111 18.578-21.333 18.578-1.679 0-7.163-.42-16.452-1.26v-59.197c5.458-.84 10.417-1.26 14.878-1.26Zm9.446 50.145c1.05-1.155 1.575-3.516 1.575-7.085 0-3.568-.394-5.72-1.181-6.455-.787-.735-2.834-1.102-6.14-1.102-3.254 0-5.327.053-6.219.157-.84.105-1.26.42-1.26.945v14.091c0 .577.342.918 1.024 1.023.734.105 2.702.158 5.904.158 3.201 0 5.3-.577 6.297-1.732Zm-11.808-24.403c4.566 0 7.662-.551 9.289-1.653 1.68-1.102 2.519-3.543 2.519-7.321 0-2.152-.472-3.91-1.417-5.275-.892-1.417-1.863-2.125-2.912-2.125-4.461 0-7.164.289-8.108.866-.315.21-.578.525-.788.945v13.303c0 .63.105.997.315 1.102a4 4 0 0 0 1.102.158Zm31.533 32.826v-57.308c5.353-.84 9.998-1.26 13.934-1.26 7.294 0 12.332 1.365 15.114 4.094 2.781 2.729 4.172 7.242 4.172 13.54 0 8.816-2.466 14.694-7.4 17.633l9.919 22.435c.577 1.312.866 2.178.866 2.598 0 .367-.052.603-.157.708-.21.473-1.102.709-2.677.709-5.09 0-8.082-.997-8.974-2.992l-8.974-20.782c-1.312.105-3.28.158-5.904.158v20.31c0 1.469-.157 2.387-.472 2.755-.263.367-1.155.551-2.677.551-4.513 0-6.77-1.05-6.77-3.149Zm11.178-31.252c4.199 0 7.033-.577 8.502-1.732 1.47-1.207 2.204-3.883 2.204-8.029 0-2.519-.419-4.513-1.259-5.983-.787-1.469-1.679-2.204-2.677-2.204-3.726 0-6.009.079-6.848.236-.787.158-1.181.682-1.181 1.575v14.956c0 .683.131 1.05.394 1.102.262.053.551.079.865.079Zm56.933-2.676c2.099 0 3.149.944 3.149 2.834 0 2.571-.158 4.329-.473 5.274-.315.944-1.128 1.417-2.44 1.417h-15.429v16.767h18.184c1.26.053 2.126.315 2.598.787.472.42.708 1.076.708 1.968 0 2.572-.236 4.356-.708 5.353-.472.945-1.417 1.417-2.834 1.417h-27.709l-1.26-1.259v-57.938h27.946c2.256.052 3.385.892 3.385 2.519-.053 1.417-.132 2.545-.236 3.385-.105.787-.447 1.574-1.024 2.361-.525.788-1.312 1.181-2.361 1.181h-17.555l.866 13.934h15.193Zm38.053 0c2.099 0 3.149.944 3.149 2.834 0 2.571-.158 4.329-.473 5.274-.314.944-1.128 1.417-2.44 1.417h-15.429v16.767h18.184c1.26.053 2.126.315 2.598.787.472.42.709 1.076.709 1.968 0 2.572-.237 4.356-.709 5.353-.472.945-1.417 1.417-2.834 1.417h-27.709l-1.26-1.259v-57.938h27.946c2.256.052 3.385.892 3.385 2.519-.053 1.417-.131 2.545-.236 3.385-.105.787-.446 1.574-1.024 2.361-.525.788-1.312 1.181-2.361 1.181h-17.555l.866 13.934h15.193Zm43.721 35.817h-30.701l-1.259-1.259v-8.345l22.356-40.147h-20.152c-1.365-.052-2.257-.367-2.677-.944-.42-.735-.629-1.942-.629-3.622 0-1.731.183-2.965.551-3.699.367-.788 1.154-1.181 2.361-1.181h31.646l1.259 1.259v6.928l-21.805 41.485h18.656c1.732.053 2.887.289 3.464.709.63.367.945.971.945 1.81-.105 4.671-1.444 7.006-4.015 7.006Z"/><path fill="#FF7B00" d="M711.89 149.74c-17.445-39.128-69.778-41.051-94.201-29.697-20.934 12.228-34.892 29.697-27.042 75.115 7.851 45.417 50.591 51.531 82.864 49.784 32.274-1.747 60.186-46.291 38.379-95.202Z"/><path fill="#000" d="m650.545 244.56-3.233-58.88h10.843l4.28 59.513c-4.642-.086-7.247-.237-11.89-.633Zm16.76-78.554-3.819-1.646s2.679-11.141 6.419-17.301c3.615-5.955 11.889-13.298 11.889-13.298l3.578 2.34c-12.084 8.062-15.921 15.557-18.067 29.905Zm21.723-4.526-1.479-3.887s9.861-5.836 16.886-7.442c6.791-1.553 17.823-.729 17.823-.729l.812 4.197c-14.2-3.057-22.251-.591-34.042 7.861Zm-6.625 25.241 1.367-3.927s11.305 1.872 17.717 5.16c6.199 3.179 14.117 10.904 14.117 10.904l-2.077 3.737c-8.909-11.474-16.659-14.763-31.124-15.874Z"/><path fill="#000" d="m652.364 177.351 2.307 3.46s-8.313 7.886-14.804 11.016c-6.275 3.027-17.213 4.68-17.213 4.68l-1.727-3.911c14.525-.182 21.824-4.379 31.437-15.245Z"/><path fill="#000" d="m664.901 179.844-.922 4.055s-11.443-.602-18.181-3.156c-6.514-2.469-15.243-9.266-15.243-9.266l1.649-3.945c10.13 10.412 18.198 12.818 32.697 12.312Z"/><path fill="#000" d="m649.192 169.883 4.058.913s-.575 11.443-3.113 18.188c-2.452 6.52-9.228 15.265-9.228 15.265l-3.949-1.638c10.387-10.156 12.774-18.23 12.232-32.728Z"/><path fill="#000" d="m651.218 178.562.002 4.159s-11.291 1.955-18.428.962c-6.9-.959-16.921-5.646-16.921-5.646l.731-4.213c12.19 7.9 20.592 8.453 34.616 4.738Z"/><path fill="#000" d="m658.283 181.02-3.498 2.248s-7.745-8.444-10.766-14.987c-2.92-6.325-4.39-17.289-4.39-17.289l3.94-1.661c-.062 14.526 4.011 21.895 14.714 31.689Z"/><path fill="#000" d="M667.335 173.22c-3.914-8.78-15.657-9.212-21.138-6.664-4.697 2.744-7.829 6.664-6.068 16.855 1.762 10.191 11.352 11.563 18.594 11.171 7.242-.392 13.505-10.387 8.612-21.362Zm24.26-39.439c.611-3.79-3.22-6.502-5.609-6.848-2.169-.11-4.073.516-5.712 4.308-1.639 3.791 1.267 6.346 3.773 7.798 2.506 1.452 6.785-.52 7.548-5.258Zm37.473 22.687c3.146-2.201 2.424-6.838 1.009-8.794-1.433-1.633-3.208-2.563-7.07-1.099-3.862 1.464-3.672 5.329-2.968 8.138.703 2.81 5.098 4.507 9.029 1.755Zm-12.78 52.167c3.824.337 6.253-3.678 6.427-6.086-.046-2.172-.807-4.026-4.706-5.388-3.899-1.363-6.239 1.719-7.507 4.323-1.269 2.604 1.005 6.729 5.786 7.151Zm-101.844-17.481c-2.576 2.847-.839 7.207.976 8.798 1.76 1.273 3.697 1.785 7.137-.503 3.439-2.287 2.393-6.012 1.081-8.595-1.311-2.582-5.973-3.258-9.194.3Zm14.344-29.317c-3.838.09-5.805 4.351-5.71 6.763.288 2.153 1.25 3.911 5.277 4.831 4.026.92 6.008-2.403 6.979-5.131.971-2.729-1.748-6.576-6.546-6.463Zm2.486 44.203c.1 3.838 4.365 5.795 6.777 5.694 2.153-.293 3.908-1.26 4.818-5.289.911-4.029-2.417-6.003-5.148-6.967-2.732-.964-6.572 1.764-6.447 6.562Zm-19.269-37.01c-3.722.941-4.693 5.533-4.065 7.863.759 2.036 2.088 3.536 6.219 3.538 4.13.002 5.324-3.678 5.664-6.554.34-2.877-3.165-6.023-7.818-4.847Zm33.115-26.157c-2.803-2.623-7.191-.96-8.813.828-1.303 1.738-1.847 3.667.383 7.144 2.229 3.477 5.971 2.494 8.575 1.226 2.605-1.268 3.359-5.918-.145-9.198Zm117.632 1.658c8.029 0 13.592 1.338 16.689 4.015 3.096 2.624 4.644 6.796 4.644 12.516 0 5.668-1.128 9.945-3.385 12.831 3.306 2.729 4.96 7.321 4.96 13.776 0 12.386-7.111 18.578-21.334 18.578-1.679 0-7.163-.42-16.452-1.259V145.79c5.458-.839 10.417-1.259 14.878-1.259Zm9.446 50.144c1.05-1.154 1.575-3.516 1.575-7.084 0-3.569-.394-5.721-1.181-6.455-.787-.735-2.834-1.102-6.14-1.102-3.254 0-5.327.052-6.219.157-.84.105-1.26.42-1.26.945v14.091c0 .577.342.918 1.024 1.023.735.105 2.703.157 5.904.157s5.3-.577 6.297-1.732Zm-11.808-24.403c4.566 0 7.663-.551 9.289-1.653 1.68-1.102 2.519-3.542 2.519-7.321 0-2.151-.472-3.91-1.417-5.274-.892-1.417-1.863-2.125-2.912-2.125-4.461 0-7.164.288-8.108.865-.315.21-.578.525-.788.945v13.304c0 .63.105.997.315 1.102.368.105.735.157 1.102.157Zm31.533 32.827V145.79c5.353-.839 9.998-1.259 13.934-1.259 7.294 0 12.333 1.364 15.114 4.093 2.781 2.729 4.172 7.243 4.172 13.54 0 8.817-2.466 14.695-7.4 17.633l9.919 22.436c.577 1.312.866 2.178.866 2.597 0 .368-.052.604-.157.709-.21.472-1.102.708-2.677.708-5.09 0-8.082-.997-8.974-2.991l-8.974-20.782c-1.312.105-3.28.157-5.904.157v20.31c0 1.47-.157 2.388-.472 2.755-.263.368-1.155.551-2.677.551-4.513 0-6.77-1.049-6.77-3.148Zm11.179-31.252c4.198 0 7.032-.578 8.501-1.732 1.47-1.207 2.204-3.884 2.204-8.03 0-2.519-.419-4.513-1.259-5.982-.787-1.47-1.679-2.204-2.677-2.204-3.726 0-6.008.078-6.848.236-.787.157-1.181.682-1.181 1.574v14.957c0 .682.131 1.049.394 1.102.262.052.551.079.866.079Zm56.932-2.677c2.099 0 3.149.945 3.149 2.834 0 2.572-.158 4.33-.473 5.274-.314.945-1.128 1.417-2.44 1.417h-15.429v16.768h18.184c1.26.052 2.126.315 2.598.787.472.42.709 1.076.709 1.968 0 2.571-.237 4.356-.709 5.353-.472.944-1.417 1.417-2.834 1.417H835.08l-1.26-1.26V145.79h27.946c2.256.053 3.385.893 3.385 2.519-.053 1.417-.131 2.546-.236 3.385-.105.788-.446 1.575-1.024 2.362-.525.787-1.312 1.181-2.361 1.181h-17.555l.866 13.933h15.193Zm38.053 0c2.099 0 3.149.945 3.149 2.834 0 2.572-.158 4.33-.472 5.274-.315.945-1.129 1.417-2.441 1.417h-15.429v16.768h18.184c1.26.052 2.126.315 2.598.787.473.42.709 1.076.709 1.968 0 2.571-.236 4.356-.709 5.353-.472.944-1.417 1.417-2.834 1.417h-27.709l-1.26-1.26V145.79h27.946c2.257.053 3.385.893 3.385 2.519-.053 1.417-.131 2.546-.236 3.385-.105.788-.446 1.575-1.024 2.362-.524.787-1.312 1.181-2.361 1.181h-17.555l.866 13.933h15.193Zm43.721 35.818h-30.701l-1.259-1.26v-8.344l22.356-40.147h-20.152c-1.365-.053-2.257-.368-2.677-.945-.419-.735-.629-1.942-.629-3.621 0-1.732.183-2.965.551-3.7.367-.787 1.154-1.181 2.361-1.181h31.646l1.259 1.26v6.927l-21.805 41.486h18.656c1.732.052 2.887.288 3.464.708.63.368.945.971.945 1.811-.105 4.67-1.443 7.006-4.015 7.006Zm-190.022 23.56-3.794-10.829h1.321l3.333 9.754h-.537l3.394-9.754h1.014l3.349 9.754h-.477l3.349-9.754h1.259l-3.794 10.829h-1.121l-3.256-9.37h.338l-3.287 9.37h-1.091Zm13.818 0v-10.829h1.244v5.023h-.2c.215-.594.564-1.04 1.045-1.337.491-.307 1.055-.46 1.689-.46.594 0 1.086.107 1.475.322.399.215.696.543.891.983.194.43.292.978.292 1.644v4.654h-1.244v-4.577c0-.461-.062-.84-.185-1.137a1.225 1.225 0 0 0-.553-.661c-.246-.143-.568-.215-.967-.215-.451 0-.845.098-1.183.292a2.009 2.009 0 0 0-.784.814c-.184.348-.276.758-.276 1.229v4.255h-1.244Zm12.094.138c-.789 0-1.47-.154-2.043-.461a3.382 3.382 0 0 1-1.321-1.336c-.307-.573-.461-1.26-.461-2.058 0-.779.154-1.454.461-2.028a3.466 3.466 0 0 1 1.259-1.367c.543-.328 1.168-.491 1.874-.491.676 0 1.255.148 1.736.445.481.297.85.717 1.106 1.26.266.542.399 1.193.399 1.95v.476h-5.883v-.814h5.054l-.246.2c0-.819-.184-1.454-.553-1.905-.358-.46-.886-.691-1.582-.691-.522 0-.968.123-1.336.369-.359.235-.63.568-.814.998-.185.42-.277.912-.277 1.475v.092c0 .625.097 1.152.292 1.582.205.43.507.758.906.983.4.215.876.323 1.429.323.44 0 .865-.067 1.275-.2a3.582 3.582 0 0 0 1.182-.691l.43.875c-.338.308-.768.553-1.29.738a4.774 4.774 0 0 1-1.597.276Zm4.811-.138v-7.465h1.213v1.766h-.153c.174-.604.476-1.06.906-1.367.43-.317.998-.502 1.705-.553l.445-.046.092 1.075-.783.093c-.696.061-1.234.286-1.613.675-.368.379-.553.902-.553 1.567v4.255h-1.259Zm8.779.138c-.789 0-1.47-.154-2.043-.461a3.382 3.382 0 0 1-1.321-1.336c-.307-.573-.461-1.26-.461-2.058 0-.779.154-1.454.461-2.028a3.466 3.466 0 0 1 1.259-1.367c.543-.328 1.168-.491 1.874-.491.676 0 1.255.148 1.736.445.481.297.85.717 1.106 1.26.266.542.399 1.193.399 1.95v.476h-5.883v-.814h5.054l-.246.2c0-.819-.184-1.454-.553-1.905-.358-.46-.886-.691-1.582-.691-.522 0-.968.123-1.336.369-.359.235-.63.568-.814.998-.185.42-.277.912-.277 1.475v.092c0 .625.097 1.152.292 1.582.205.43.507.758.906.983.4.215.876.323 1.429.323.44 0 .865-.067 1.275-.2a3.582 3.582 0 0 0 1.182-.691l.43.875c-.338.308-.768.553-1.29.738a4.774 4.774 0 0 1-1.597.276Zm13.61 0c-1.065 0-1.977-.225-2.734-.676-.758-.45-1.342-1.09-1.752-1.92-.399-.829-.599-1.817-.599-2.964s.2-2.13.599-2.949c.41-.83.994-1.47 1.752-1.92.757-.451 1.669-.676 2.734-.676.747 0 1.438.118 2.073.353a4.192 4.192 0 0 1 1.598 1.029l-.492 1.029c-.471-.44-.962-.757-1.474-.952a4.391 4.391 0 0 0-1.675-.307c-1.218 0-2.15.384-2.795 1.152-.645.768-.968 1.848-.968 3.241 0 1.392.323 2.478.968 3.256.645.768 1.577 1.152 2.795 1.152a4.59 4.59 0 0 0 1.675-.292c.512-.205 1.003-.527 1.474-.967l.492 1.029c-.43.44-.963.783-1.598 1.029a5.928 5.928 0 0 1-2.073.353Zm8.044 0c-.727 0-1.357-.159-1.89-.476a3.277 3.277 0 0 1-1.244-1.336c-.287-.584-.43-1.27-.43-2.059 0-.788.143-1.469.43-2.043a3.25 3.25 0 0 1 1.244-1.351c.533-.318 1.163-.476 1.89-.476.727 0 1.356.158 1.889.476.532.317.942.768 1.229 1.351.297.574.445 1.255.445 2.043 0 .789-.148 1.475-.445 2.059a3.178 3.178 0 0 1-1.229 1.336c-.533.317-1.162.476-1.889.476Zm0-.998c.706 0 1.264-.246 1.674-.738.42-.501.63-1.218.63-2.15 0-.922-.21-1.628-.63-2.12-.41-.491-.968-.737-1.674-.737-.697 0-1.255.246-1.675.737-.42.492-.629 1.198-.629 2.12 0 .932.209 1.649.629 2.15.42.492.978.738 1.675.738Zm5.432.86v-7.465h1.213v1.659h-.169c.215-.594.564-1.04 1.045-1.337.491-.307 1.055-.46 1.689-.46.594 0 1.086.107 1.475.322.399.205.696.528.891.968.194.44.292.993.292 1.659v4.654h-1.244v-4.577c0-.461-.062-.84-.185-1.137a1.225 1.225 0 0 0-.553-.661c-.246-.143-.568-.215-.967-.215-.451 0-.845.098-1.183.292a2.009 2.009 0 0 0-.784.814c-.184.348-.276.758-.276 1.229v4.255h-1.244Zm8.73 0v-7.465h1.213v1.659h-.169c.215-.594.564-1.04 1.045-1.337.491-.307 1.055-.46 1.689-.46.594 0 1.086.107 1.475.322.399.205.696.528.891.968.194.44.292.993.292 1.659v4.654h-1.244v-4.577c0-.461-.062-.84-.185-1.137a1.225 1.225 0 0 0-.553-.661c-.245-.143-.568-.215-.967-.215-.451 0-.845.098-1.183.292a2 2 0 0 0-.783.814c-.185.348-.277.758-.277 1.229v4.255h-1.244Zm12.094.138c-.789 0-1.47-.154-2.043-.461a3.382 3.382 0 0 1-1.321-1.336c-.307-.573-.461-1.26-.461-2.058 0-.779.154-1.454.461-2.028a3.466 3.466 0 0 1 1.259-1.367c.543-.328 1.168-.491 1.874-.491.676 0 1.255.148 1.736.445.481.297.85.717 1.106 1.26.266.542.399 1.193.399 1.95v.476h-5.883v-.814h5.054l-.246.2c0-.819-.184-1.454-.553-1.905-.358-.46-.886-.691-1.582-.691-.522 0-.968.123-1.336.369-.359.235-.63.568-.814.998-.185.42-.277.912-.277 1.475v.092c0 .625.097 1.152.292 1.582.205.43.507.758.906.983.4.215.876.323 1.429.323.44 0 .865-.067 1.275-.2a3.582 3.582 0 0 0 1.182-.691l.43.875c-.338.308-.768.553-1.29.738a4.774 4.774 0 0 1-1.597.276Zm7.975 0c-.748 0-1.393-.164-1.935-.491a3.323 3.323 0 0 1-1.26-1.367c-.287-.594-.43-1.28-.43-2.059 0-.788.143-1.469.43-2.043a3.145 3.145 0 0 1 1.26-1.321c.542-.307 1.187-.46 1.935-.46.461 0 .916.082 1.367.245.451.164.824.395 1.121.692l-.43.906a2.815 2.815 0 0 0-.983-.63 2.796 2.796 0 0 0-.998-.2c-.778 0-1.377.246-1.797.738-.42.481-.63 1.177-.63 2.089 0 .891.21 1.597.63 2.119.42.512 1.019.768 1.797.768.317 0 .65-.066.998-.199.359-.133.686-.349.983-.645l.43.906a3.16 3.16 0 0 1-1.136.706 3.93 3.93 0 0 1-1.352.246Zm6.941 0c-.881 0-1.541-.235-1.981-.706-.441-.472-.661-1.142-.661-2.013v-3.916h-1.459v-.968h1.459v-2.289h1.244v2.289h2.366v.968h-2.366v3.793c0 .584.123 1.03.369 1.337.246.297.645.445 1.198.445.164 0 .328-.02.492-.061.163-.041.312-.082.445-.123l.215.952a2.537 2.537 0 0 1-.584.2 3.176 3.176 0 0 1-.737.092Zm2.221-9.462v-1.397h1.536v1.397h-1.536Zm.154 9.324v-7.465h1.244v7.465h-1.244Zm6.673.138c-.727 0-1.357-.159-1.89-.476a3.277 3.277 0 0 1-1.244-1.336c-.287-.584-.43-1.27-.43-2.059 0-.788.143-1.469.43-2.043a3.25 3.25 0 0 1 1.244-1.351c.533-.318 1.163-.476 1.89-.476.727 0 1.356.158 1.889.476.532.317.942.768 1.229 1.351.297.574.445 1.255.445 2.043 0 .789-.148 1.475-.445 2.059a3.178 3.178 0 0 1-1.229 1.336c-.533.317-1.162.476-1.889.476Zm0-.998c.706 0 1.264-.246 1.674-.738.42-.501.63-1.218.63-2.15 0-.922-.21-1.628-.63-2.12-.41-.491-.968-.737-1.674-.737-.697 0-1.255.246-1.675.737-.419.492-.629 1.198-.629 2.12 0 .932.21 1.649.629 2.15.42.492.978.738 1.675.738Zm5.432.86v-7.465h1.213v1.659h-.169c.215-.594.564-1.04 1.045-1.337.491-.307 1.055-.46 1.689-.46.594 0 1.086.107 1.475.322.399.205.696.528.891.968.194.44.292.993.292 1.659v4.654h-1.244v-4.577c0-.461-.062-.84-.185-1.137a1.225 1.225 0 0 0-.553-.661c-.246-.143-.568-.215-.967-.215-.451 0-.845.098-1.183.292a2.009 2.009 0 0 0-.784.814c-.184.348-.276.758-.276 1.229v4.255h-1.244Zm11.249.138c-.389 0-.768-.041-1.137-.123a5.287 5.287 0 0 1-1.014-.307 3.404 3.404 0 0 1-.798-.507l.399-.875c.246.194.512.358.799.491a4.494 4.494 0 0 0 1.782.369c.583 0 1.024-.108 1.321-.323.297-.215.445-.507.445-.875 0-.287-.097-.512-.292-.676-.194-.174-.502-.307-.921-.4l-1.398-.307c-.645-.133-1.127-.363-1.444-.691-.307-.328-.461-.753-.461-1.275 0-.461.118-.855.353-1.183.246-.337.589-.599 1.03-.783.44-.184.952-.276 1.536-.276.348 0 .681.035.998.107.317.072.614.179.891.323.287.133.532.302.737.507l-.415.875a2.723 2.723 0 0 0-.66-.461 3.076 3.076 0 0 0-.768-.292 2.917 2.917 0 0 0-.783-.107c-.574 0-1.009.113-1.306.338a1.064 1.064 0 0 0-.445.891c0 .286.092.522.276.706.184.185.471.318.86.4l1.398.292c.666.143 1.162.373 1.49.691.338.307.507.727.507 1.259 0 .451-.123.845-.369 1.183-.246.328-.594.584-1.044.768-.441.174-.963.261-1.567.261Zm8.99-.138v-10.829h4.331c1.106 0 1.966.246 2.581.737.614.492.921 1.188.921 2.089 0 .676-.199 1.239-.599 1.69-.389.45-.921.747-1.597.891v-.215c.512.061.952.21 1.321.445.369.225.65.528.845.906.194.369.292.804.292 1.306 0 .645-.144 1.193-.431 1.644-.276.44-.68.773-1.213.998-.532.225-1.178.338-1.935.338h-4.516Zm1.229-1.014h3.164c.327 0 .619-.026.875-.077.267-.051.497-.128.692-.23.194-.113.358-.246.491-.399.133-.154.23-.338.292-.553.072-.215.107-.456.107-.722 0-.277-.035-.517-.107-.722a1.437 1.437 0 0 0-.292-.553 1.574 1.574 0 0 0-.491-.4 2.499 2.499 0 0 0-.692-.23 4.506 4.506 0 0 0-.875-.077h-3.164v3.963Zm0-4.977h2.918c.799 0 1.403-.163 1.813-.491.419-.328.629-.799.629-1.413 0-.635-.21-1.111-.629-1.429-.41-.327-1.014-.491-1.813-.491h-2.918v3.824Zm11.27 6.129c-.757 0-1.331-.225-1.72-.676-.379-.45-.568-1.095-.568-1.935v-8.356h1.244v8.264c0 .358.046.66.138.906.103.246.251.43.446.553.194.123.435.184.722.184.122 0 .24-.005.353-.015.123-.021.235-.046.338-.077l-.031 1.045c-.164.03-.322.056-.476.076a3.072 3.072 0 0 1-.446.031Zm5.285 0c-.727 0-1.357-.159-1.89-.476a3.277 3.277 0 0 1-1.244-1.336c-.287-.584-.43-1.27-.43-2.059 0-.788.143-1.469.43-2.043a3.25 3.25 0 0 1 1.244-1.351c.533-.318 1.163-.476 1.89-.476.727 0 1.356.158 1.889.476.532.317.942.768 1.229 1.351.297.574.445 1.255.445 2.043 0 .789-.148 1.475-.445 2.059a3.178 3.178 0 0 1-1.229 1.336c-.533.317-1.162.476-1.889.476Zm0-.998c.706 0 1.264-.246 1.674-.738.42-.501.63-1.218.63-2.15 0-.922-.21-1.628-.63-2.12-.41-.491-.968-.737-1.674-.737-.697 0-1.255.246-1.675.737-.42.492-.629 1.198-.629 2.12 0 .932.209 1.649.629 2.15.42.492.978.738 1.675.738Zm7.951.998c-.389 0-.768-.041-1.137-.123a5.256 5.256 0 0 1-1.013-.307 3.39 3.39 0 0 1-.799-.507l.399-.875c.246.194.512.358.799.491a4.494 4.494 0 0 0 1.782.369c.583 0 1.024-.108 1.321-.323.297-.215.445-.507.445-.875 0-.287-.097-.512-.292-.676-.194-.174-.502-.307-.921-.4l-1.398-.307c-.645-.133-1.127-.363-1.444-.691-.307-.328-.461-.753-.461-1.275 0-.461.118-.855.353-1.183.246-.337.589-.599 1.03-.783.44-.184.952-.276 1.536-.276.348 0 .681.035.998.107.317.072.614.179.891.323.287.133.532.302.737.507l-.415.875a2.723 2.723 0 0 0-.66-.461 3.076 3.076 0 0 0-.768-.292 2.917 2.917 0 0 0-.783-.107c-.574 0-1.009.113-1.306.338a1.064 1.064 0 0 0-.445.891c0 .286.092.522.276.706.184.185.471.318.86.4l1.398.292c.666.143 1.162.373 1.49.691.338.307.507.727.507 1.259 0 .451-.123.845-.369 1.183-.246.328-.594.584-1.044.768-.441.174-.963.261-1.567.261Zm7.395 0c-.389 0-.768-.041-1.137-.123a5.256 5.256 0 0 1-1.013-.307 3.39 3.39 0 0 1-.799-.507l.399-.875c.246.194.512.358.799.491a4.494 4.494 0 0 0 1.782.369c.583 0 1.024-.108 1.321-.323.297-.215.445-.507.445-.875 0-.287-.097-.512-.292-.676-.194-.174-.502-.307-.921-.4l-1.398-.307c-.645-.133-1.127-.363-1.444-.691-.307-.328-.461-.753-.461-1.275 0-.461.118-.855.353-1.183.246-.337.589-.599 1.03-.783.44-.184.952-.276 1.536-.276.348 0 .681.035.998.107.317.072.614.179.891.323.287.133.532.302.737.507l-.415.875a2.723 2.723 0 0 0-.66-.461 3.076 3.076 0 0 0-.768-.292 2.917 2.917 0 0 0-.783-.107c-.574 0-1.009.113-1.306.338a1.064 1.064 0 0 0-.445.891c0 .286.092.522.276.706.184.185.471.318.86.4l1.398.292c.666.143 1.162.373 1.49.691.338.307.507.727.507 1.259 0 .451-.123.845-.369 1.183-.246.328-.594.584-1.044.768-.441.174-.963.261-1.567.261Zm7.979 0c-.727 0-1.357-.159-1.89-.476a3.277 3.277 0 0 1-1.244-1.336c-.287-.584-.43-1.27-.43-2.059 0-.788.143-1.469.43-2.043a3.25 3.25 0 0 1 1.244-1.351c.533-.318 1.163-.476 1.89-.476.727 0 1.356.158 1.889.476.532.317.942.768 1.229 1.351.297.574.445 1.255.445 2.043 0 .789-.148 1.475-.445 2.059a3.178 3.178 0 0 1-1.229 1.336c-.533.317-1.162.476-1.889.476Zm0-.998c.706 0 1.264-.246 1.674-.738.42-.501.63-1.218.63-2.15 0-.922-.21-1.628-.63-2.12-.41-.491-.968-.737-1.674-.737-.697 0-1.255.246-1.675.737-.419.492-.629 1.198-.629 2.12 0 .932.21 1.649.629 2.15.42.492.978.738 1.675.738Zm5.463.86v-7.465h1.213v1.659h-.169c.123-.379.302-.702.538-.968.245-.276.532-.481.86-.614a2.79 2.79 0 0 1 1.106-.215c.635 0 1.147.153 1.536.46.399.297.665.763.798 1.398h-.23a2.54 2.54 0 0 1 .983-1.351c.481-.338 1.039-.507 1.674-.507.564 0 1.024.107 1.383.322.368.215.645.543.829.983.184.43.277.978.277 1.644v4.654h-1.245v-4.593c0-.686-.117-1.188-.353-1.505-.235-.328-.635-.492-1.198-.492-.399 0-.753.098-1.06.292a1.914 1.914 0 0 0-.691.83c-.154.348-.23.763-.23 1.244v4.224h-1.244v-4.593c0-.686-.123-1.188-.369-1.505-.236-.328-.63-.492-1.183-.492-.409 0-.763.098-1.06.292a1.914 1.914 0 0 0-.691.83c-.153.348-.23.763-.23 1.244v4.224h-1.244Z"/></svg>