<svg xmlns="http://www.w3.org/2000/svg" width="401" height="329" fill="none"><path fill="url(#a)" d="M5.275 211c-2.913 0-5.282-2.362-5.21-5.275a211 211 0 0 1 399.548-89.309c1.306 2.604.169 5.75-2.467 6.991-2.637 1.24-5.773.105-7.082-2.498A200.454 200.454 0 0 0 167.273 15.378 200.451 200.451 0 0 0 10.619 205.725C10.543 208.637 8.19 211 5.275 211Z"/><path fill="url(#b)" d="M28.602 210.999c-2.848 0-5.165-2.31-5.087-5.157a187.556 187.556 0 0 1 217.55-179.973c2.812.456 4.647 3.165 4.113 5.963-.534 2.798-3.234 4.626-6.046 4.174a177.244 177.244 0 0 0-188.504 99.528 177.24 177.24 0 0 0-16.793 70.308c-.083 2.847-2.384 5.157-5.233 5.157Z"/><path fill="url(#c)" d="M50.616 211.001c-2.719 0-4.93-2.205-4.85-4.923a164.107 164.107 0 0 1 80.698-136.452c2.343-1.381 5.341-.505 6.651 1.878 1.31 2.382.435 5.37-1.904 6.754a154.26 154.26 0 0 0-75.593 127.82c-.087 2.718-2.283 4.923-5.002 4.923Z"/><path fill="url(#d)" d="M71.376 211c-2.525 0-4.58-2.048-4.498-4.571a140.67 140.67 0 0 1 11.434-51.155c1-2.318 3.731-3.296 6.016-2.221 2.285 1.075 3.257 3.796 2.262 6.116a131.528 131.528 0 0 0-10.563 47.26C75.939 208.952 73.9 211 71.376 211Z"/><path fill="url(#e)" d="M91.42 211c-2.589 0-4.698-2.1-4.594-4.687a117.225 117.225 0 0 1 2.514-19.901c.543-2.532 3.108-4.041 5.616-3.397 2.508.644 4.009 3.197 3.475 5.731a107.845 107.845 0 0 0-2.22 17.567c-.112 2.587-2.2 4.687-4.79 4.687Z"/><path fill="#EBEBEB" d="M29.183 312.581h.835l2.325 4.525h-.07l2.325-4.525h.82v6.175h-.59v-5.64h.12l-2.44 4.81h-.395l-2.43-4.775h.08v5.605h-.58v-6.175Zm9.97 6.285a2.17 2.17 0 0 1-1.12-.285 1.977 1.977 0 0 1-.765-.84c-.183-.37-.275-.823-.275-1.36 0-.537.092-.988.275-1.355.187-.37.442-.65.765-.84a2.17 2.17 0 0 1 1.12-.285c.424 0 .797.095 1.12.285.324.19.577.47.76.84.184.367.275.818.275 1.355s-.091.99-.275 1.36a1.94 1.94 0 0 1-.76.84 2.17 2.17 0 0 1-1.12.285Zm-.01-.505c.35 0 .642-.082.875-.245.234-.167.407-.398.52-.695.117-.297.175-.643.175-1.04 0-.597-.128-1.077-.385-1.44-.253-.363-.641-.545-1.165-.545-.35 0-.641.083-.875.25-.23.163-.403.395-.52.695-.113.297-.17.643-.17 1.04 0 .593.127 1.072.38 1.435.257.363.645.545 1.165.545Zm5.777.505c-.327 0-.622-.082-.885-.245a1.74 1.74 0 0 1-.62-.72c-.154-.313-.23-.69-.23-1.13h.27c0 .343.068.633.205.87a1.403 1.403 0 0 0 1.225.71c.27 0 .52-.078.75-.235a1.65 1.65 0 0 0 .555-.68c.14-.297.21-.653.21-1.07 0-.413-.07-.765-.21-1.055a1.663 1.663 0 0 0-.555-.67 1.319 1.319 0 0 0-.76-.235 1.384 1.384 0 0 0-1.22.715c-.134.233-.2.525-.2.875h-.27c0-.437.075-.81.225-1.12a1.72 1.72 0 0 1 .625-.72c.266-.17.571-.255.915-.255.37 0 .71.1 1.02.3.313.197.563.48.75.85.19.367.285.805.285 1.315 0 .51-.095.952-.285 1.325a2.21 2.21 0 0 1-.76.87 1.89 1.89 0 0 1-1.04.305Zm-2.045-.11v-6.8h.58v5.72l-.14 1.08h-.44Zm6.135-5.995a.393.393 0 0 1-.415-.405.34.34 0 0 1 .115-.27.427.427 0 0 1 .3-.105c.13 0 .232.035.305.105.073.067.11.157.11.27a.403.403 0 0 1-.11.29.4.4 0 0 1-.305.115Zm-.29 5.995v-4.75h.58v4.75h-.58Zm2.807 0v-6.8h.58v6.8h-.58Zm4.26.11c-.413 0-.777-.105-1.094-.315a2.19 2.19 0 0 1-.74-.875 2.898 2.898 0 0 1-.27-1.275c0-.52.088-.967.265-1.34.18-.373.426-.66.74-.86.316-.2.683-.3 1.1-.3.35 0 .647.072.89.215.247.14.445.332.595.575.15.243.255.518.315.825.063.307.088.623.075.95h-3.505v-.4h3.15l-.23.15a2.986 2.986 0 0 0-.04-.645 1.839 1.839 0 0 0-.195-.595 1.129 1.129 0 0 0-.395-.435c-.17-.11-.389-.165-.655-.165-.34 0-.623.088-.85.265-.227.173-.397.4-.51.68-.11.277-.165.573-.165.89v.245c0 .363.055.69.165.98.113.29.282.52.505.69.226.17.51.255.85.255.35 0 .635-.085.855-.255.223-.173.356-.427.4-.76h.62c-.05.317-.162.587-.335.81-.17.223-.387.395-.65.515a2.17 2.17 0 0 1-.89.175Zm4.99-.11 2.135-6.175h.685l2.105 6.175h-.61l-.57-1.715h-2.545l-.595 1.715h-.605Zm1.35-2.185h2.235l-1.12-3.27-1.115 3.27Zm5.223-3.81a.393.393 0 0 1-.415-.405.34.34 0 0 1 .115-.27.428.428 0 0 1 .3-.105c.13 0 .232.035.305.105.073.067.11.157.11.27a.403.403 0 0 1-.11.29.4.4 0 0 1-.305.115Zm-.29 5.995v-4.75h.58v4.75h-.58Zm2.807 0v-4.75h.58v4.75h-.58Zm.365-2.175c0-.593.052-1.087.155-1.48.103-.393.263-.688.48-.885.217-.197.493-.295.83-.295a1.666 1.666 0 0 1 .62.105l-.065.565a1.948 1.948 0 0 0-.32-.09 1.374 1.374 0 0 0-.305-.04c-.297 0-.532.09-.705.27-.17.18-.292.43-.365.75-.073.317-.11.683-.11 1.1h-.215Zm3.092 2.175v-6.8h.58v6.8h-.58Zm2.99-5.995a.393.393 0 0 1-.415-.405.34.34 0 0 1 .116-.27.428.428 0 0 1 .3-.105c.13 0 .231.035.305.105.073.067.11.157.11.27a.402.402 0 0 1-.11.29.4.4 0 0 1-.305.115Zm-.29 5.995v-4.75h.58v4.75h-.58Zm6.243 0v-2.795c0-.503-.122-.888-.365-1.155-.24-.267-.572-.4-.995-.4-.31 0-.579.085-.805.255-.224.17-.395.408-.515.715a3.017 3.017 0 0 0-.175 1.075h-.255c0-.52.07-.97.21-1.35.143-.383.353-.678.63-.885.28-.21.626-.315 1.04-.315.366 0 .683.082.95.245.27.163.478.4.625.71.146.307.22.675.22 1.105v2.795h-.565Zm-3.435 0v-4.745h.49l.09 1.17v3.575h-.58Zm7.522.11c-.413 0-.778-.105-1.095-.315a2.19 2.19 0 0 1-.74-.875 2.898 2.898 0 0 1-.27-1.275c0-.52.089-.967.265-1.34.18-.373.427-.66.74-.86.317-.2.684-.3 1.1-.3.35 0 .647.072.89.215.247.14.445.332.595.575.15.243.255.518.315.825.064.307.089.623.075.95h-3.505v-.4h3.15l-.23.15a2.986 2.986 0 0 0-.04-.645 1.839 1.839 0 0 0-.195-.595 1.129 1.129 0 0 0-.395-.435c-.17-.11-.388-.165-.655-.165-.34 0-.623.088-.85.265-.226.173-.396.4-.51.68-.11.277-.165.573-.165.89v.245c0 .363.055.69.165.98.114.29.282.52.505.69.227.17.51.255.85.255.35 0 .635-.085.855-.255.224-.173.357-.427.4-.76h.62c-.05.317-.161.587-.335.81-.17.223-.386.395-.65.515a2.17 2.17 0 0 1-.89.175Zm4.989-.11 2.135-6.175h.685l2.105 6.175h-.61l-.57-1.715h-2.545l-.595 1.715h-.605Zm1.35-2.185h2.235l-1.12-3.27-1.115 3.27Zm6.948 2.295c-.346 0-.651-.082-.915-.245a1.643 1.643 0 0 1-.61-.705c-.143-.307-.215-.675-.215-1.105h.28c0 .337.067.62.2.85a1.388 1.388 0 0 0 1.21.69c.264 0 .512-.077.745-.23.234-.153.424-.377.57-.67.147-.297.22-.657.22-1.08 0-.417-.07-.77-.21-1.06a1.598 1.598 0 0 0-.56-.67 1.318 1.318 0 0 0-.76-.235 1.394 1.394 0 0 0-1.215.71c-.133.23-.2.517-.2.86h-.28c0-.44.075-.815.225-1.125a1.66 1.66 0 0 1 .625-.705c.264-.163.562-.245.895-.245.37 0 .714.1 1.03.3.317.197.572.48.765.85.194.367.29.807.29 1.32 0 .52-.098.967-.295 1.34-.193.373-.45.66-.77.86a1.902 1.902 0 0 1-1.025.295Zm-2.04 2.23v-7.085h.49l.09 1.08v6.005h-.58Zm7.763-2.23c-.347 0-.652-.082-.915-.245a1.645 1.645 0 0 1-.61-.705c-.143-.307-.215-.675-.215-1.105h.28c0 .337.067.62.2.85a1.392 1.392 0 0 0 1.21.69c.263 0 .512-.077.745-.23.233-.153.423-.377.57-.67.147-.297.22-.657.22-1.08 0-.417-.07-.77-.21-1.06a1.605 1.605 0 0 0-.56-.67 1.318 1.318 0 0 0-.76-.235 1.394 1.394 0 0 0-1.215.71c-.133.23-.2.517-.2.86h-.28c0-.44.075-.815.225-1.125a1.66 1.66 0 0 1 .625-.705c.263-.163.562-.245.895-.245.37 0 .713.1 1.03.3.317.197.572.48.765.85.193.367.29.807.29 1.32 0 .52-.098.967-.295 1.34-.193.373-.45.66-.77.86a1.905 1.905 0 0 1-1.025.295Zm-2.04 2.23v-7.085h.49l.09 1.08v6.005h-.58Zm7.398-2.23c-.46 0-.84-.067-1.14-.2a1.52 1.52 0 0 1-.67-.54 1.477 1.477 0 0 1-.245-.76h.58c.02.337.155.592.405.765.253.17.598.255 1.035.255.226 0 .436-.037.63-.11a1.22 1.22 0 0 0 .465-.31.654.654 0 0 0 .18-.45.597.597 0 0 0-.235-.5c-.157-.12-.405-.223-.745-.31l-.865-.26c-.417-.12-.735-.29-.955-.51a1.1 1.1 0 0 1-.33-.8c0-.373.161-.672.485-.895.323-.227.745-.34 1.265-.34.566 0 1.008.112 1.325.335.316.223.483.502.5.835h-.6a.69.69 0 0 0-.365-.525c-.207-.117-.494-.175-.86-.175-.364 0-.645.083-.845.25-.2.167-.3.348-.3.545 0 .38.326.658.98.835l.85.265c.426.12.751.28.975.48.226.2.34.457.34.77 0 .23-.075.448-.225.655a1.584 1.584 0 0 1-.635.505c-.277.127-.61.19-1 .19Zm7.469-7.245.415.275c-.38.38-.699.782-.955 1.205a5.526 5.526 0 0 0-.575 1.305c-.127.443-.19.888-.19 1.335 0 .67.145 1.337.435 2 .29.66.718 1.273 1.285 1.84l-.415.295a6.237 6.237 0 0 1-1.425-1.945c-.334-.72-.5-1.45-.5-2.19 0-.747.166-1.477.5-2.19a6.133 6.133 0 0 1 1.425-1.93Zm4.24.86h.525v4.215h1.07v.485h-1.07v1.575h-.57v-1.575h-3.23v-.455l3.275-4.245Zm-.03.97-2.55 3.275h2.55v-3.275Zm4.765 5.415c-.3 0-.59-.042-.87-.125a2.417 2.417 0 0 1-.745-.38 1.843 1.843 0 0 1-.515-.615 1.832 1.832 0 0 1-.19-.85h.58c.003.317.083.582.24.795.16.21.37.368.63.475.263.107.553.16.87.16.497 0 .88-.123 1.15-.37.27-.247.405-.553.405-.92 0-.233-.057-.44-.17-.62-.113-.183-.295-.328-.545-.435-.25-.107-.583-.16-1-.16h-.635v-.465h.355c.54 0 .965-.103 1.275-.31.313-.21.47-.5.47-.87a1.08 1.08 0 0 0-.37-.825c-.247-.227-.592-.34-1.035-.34-.333 0-.63.068-.89.205-.26.133-.442.387-.545.76h-.58c.057-.363.18-.653.37-.87.19-.22.427-.378.71-.475.283-.1.593-.15.93-.15.39 0 .738.072 1.045.215.307.14.548.337.725.59.177.25.265.535.265.855 0 .33-.097.61-.29.84-.19.23-.465.41-.825.54.4.103.728.285.985.545.26.257.39.592.39 1.005 0 .347-.088.655-.265.925-.173.27-.423.483-.75.64-.327.153-.718.23-1.175.23Zm3.987-.11 4.145-6.175h.62l-4.15 6.175h-.615Zm4.06.095c-.21 0-.408-.053-.595-.16a1.212 1.212 0 0 1-.455-.47c-.117-.21-.175-.467-.175-.77 0-.3.058-.552.175-.755.117-.207.268-.363.455-.47a1.232 1.232 0 0 1 1.21 0c.19.107.342.263.455.47.117.203.175.455.175.755 0 .303-.058.56-.175.77a1.165 1.165 0 0 1-.455.47c-.19.107-.395.16-.615.16Zm0-.43c.22 0 .398-.078.535-.235.14-.157.21-.402.21-.735 0-.323-.07-.565-.21-.725a.67.67 0 0 0-.535-.24.665.665 0 0 0-.53.24c-.137.16-.205.402-.205.725 0 .333.068.578.205.735a.67.67 0 0 0 .53.235Zm-3.36-3.165c-.21 0-.408-.053-.595-.16a1.225 1.225 0 0 1-.455-.465c-.117-.207-.175-.46-.175-.76s.058-.553.175-.76c.117-.21.268-.367.455-.47a1.222 1.222 0 0 1 1.205 0c.19.103.343.26.46.47.117.207.175.46.175.76s-.058.553-.175.76a1.216 1.216 0 0 1-1.07.625Zm0-.42a.665.665 0 0 0 .525-.235c.137-.16.205-.403.205-.73 0-.327-.068-.572-.205-.735a.649.649 0 0 0-.525-.25.658.658 0 0 0-.535.25c-.133.163-.2.408-.2.735s.067.57.2.73a.676.676 0 0 0 .535.235Zm5.911 5.04-.425-.295c.57-.567 1-1.18 1.29-1.84.293-.663.44-1.33.44-2a4.72 4.72 0 0 0-.195-1.335 5.466 5.466 0 0 0-.58-1.305 6.421 6.421 0 0 0-.955-1.205l.425-.275a6.194 6.194 0 0 1 1.42 1.93c.336.713.505 1.443.505 2.19 0 .493-.075.985-.225 1.475-.15.487-.37.957-.66 1.41-.287.45-.634.867-1.04 1.25Zm-87.481-21.12v-6.175h3.685v.495h-3.105v2.28h2.915v.5h-2.915v2.9h-.58Zm5.127 0v-6.8h.58v6.8h-.58Zm2.991-5.995a.393.393 0 0 1-.415-.405.34.34 0 0 1 .115-.27.427.427 0 0 1 .3-.105c.13 0 .232.035.305.105.073.067.11.157.11.27a.403.403 0 0 1-.11.29.4.4 0 0 1-.305.115Zm-.29 5.995v-4.75h.58v4.75h-.58Zm4.407 2.435a3.31 3.31 0 0 1-1.2-.2c-.343-.13-.612-.307-.805-.53a1.122 1.122 0 0 1-.285-.745c0-.383.14-.675.42-.875.283-.197.652-.295 1.105-.295l.22.245c-.377 0-.668.082-.875.245a.802.802 0 0 0-.31.665c0 .277.143.515.43.715.29.2.723.3 1.3.3.433 0 .813-.062 1.14-.185.33-.12.587-.28.77-.48.187-.197.28-.41.28-.64a.587.587 0 0 0-.19-.435c-.123-.123-.313-.185-.57-.185h-1.975c-.323 0-.593-.047-.81-.14a1.175 1.175 0 0 1-.495-.37.826.826 0 0 1-.165-.49c0-.2.055-.367.165-.5.113-.137.258-.24.435-.31s.362-.105.555-.105l.075.24a.738.738 0 0 0-.315.075.713.713 0 0 0-.275.215.564.564 0 0 0-.11.36c0 .163.067.302.2.415.133.113.38.17.74.17h1.975c.42 0 .748.095.985.285.24.19.36.442.36.755 0 .293-.11.578-.33.855-.22.277-.537.503-.95.68-.413.177-.912.265-1.495.265Zm.18-3.785c-.36 0-.682-.073-.965-.22a1.729 1.729 0 0 1-.665-.62 1.718 1.718 0 0 1-.245-.915c0-.347.082-.652.245-.915.163-.263.385-.468.665-.615.283-.147.605-.22.965-.22.35 0 .663.073.94.22.28.147.502.352.665.615.163.263.245.568.245.915 0 .343-.082.648-.245.915-.163.263-.385.47-.665.62-.277.147-.59.22-.94.22Zm-.005-.43c.397 0 .708-.125.935-.375.23-.253.345-.57.345-.95 0-.383-.115-.697-.345-.94-.227-.243-.537-.365-.93-.365-.397 0-.712.122-.945.365-.23.243-.345.557-.345.94 0 .38.115.697.345.95.233.25.547.375.94.375Zm1.5-2.325-.285-.07c0-.277.048-.518.145-.725.1-.21.245-.373.435-.49.193-.117.432-.175.715-.175l-.06.59c-.307 0-.542.072-.705.215-.163.14-.245.358-.245.655Zm5.717 4.105v-2.795c0-.503-.122-.888-.365-1.155-.24-.267-.572-.4-.995-.4-.31 0-.579.085-.805.255-.224.17-.395.408-.515.715a3.019 3.019 0 0 0-.175 1.075H66.8c0-.52.07-.97.21-1.35.143-.383.353-.678.63-.885.28-.21.626-.315 1.04-.315.366 0 .683.082.95.245.27.163.478.4.625.71.146.307.22.675.22 1.105v2.795h-.565Zm-3.435 0v-6.8h.58v6.8h-.58Zm7.322.11c-.246 0-.466-.048-.66-.145-.19-.097-.34-.24-.45-.43a1.424 1.424 0 0 1-.16-.705v-4.925h.565v4.915c0 .54.25.81.75.81.147 0 .287-.017.42-.05.134-.033.284-.08.45-.14l.08.425a3.195 3.195 0 0 1-.49.175c-.163.047-.331.07-.505.07Zm-2.085-4.435v-.42h2.985v.42h-2.985Zm5.667-1.355v-.495h4.735v.495H79.9l.13-.135v5.815h-.58v-5.815l.13.135h-2.2Zm5.17 5.68v-4.75h.58v4.75h-.58Zm.365-2.175c0-.593.052-1.087.155-1.48.103-.393.263-.688.48-.885.217-.197.493-.295.83-.295a1.666 1.666 0 0 1 .62.105l-.065.565a1.954 1.954 0 0 0-.32-.09 1.375 1.375 0 0 0-.305-.04c-.297 0-.532.09-.705.27-.17.18-.292.43-.365.75-.073.317-.11.683-.11 1.1h-.215Zm5.987 2.175-.075-.985v-2.1c0-.477-.103-.815-.31-1.015-.207-.2-.502-.3-.885-.3a1.82 1.82 0 0 0-.595.095.912.912 0 0 0-.44.295c-.11.133-.165.31-.165.53h-.66c0-.337.083-.605.25-.805.167-.203.39-.348.67-.435.283-.09.597-.135.94-.135.34 0 .643.06.91.18.267.117.477.307.63.57.157.26.235.603.235 1.03v3.075h-.505Zm-1.65.11c-.38 0-.693-.068-.94-.205a1.392 1.392 0 0 1-.55-.535c-.12-.217-.18-.44-.18-.67 0-.333.08-.6.24-.8.163-.2.38-.345.65-.435.273-.09.572-.135.895-.135.243 0 .495.028.755.085.263.053.515.128.755.225v.39a3.464 3.464 0 0 0-.715-.215 3.85 3.85 0 0 0-.735-.08c-.34 0-.63.073-.87.22-.24.147-.36.395-.36.745a.93.93 0 0 0 .265.67c.18.183.468.275.865.275.27 0 .518-.065.745-.195.227-.13.408-.292.545-.485a.99.99 0 0 0 .21-.585h.145c0 .303-.072.587-.215.85-.14.263-.34.477-.6.64-.257.16-.558.24-.905.24Zm5.687 0c-.37 0-.717-.102-1.04-.305a2.25 2.25 0 0 1-.785-.865c-.197-.373-.295-.815-.295-1.325 0-.517.098-.958.295-1.325.2-.37.462-.653.785-.85.323-.197.67-.295 1.04-.295.247 0 .47.037.67.11.203.07.382.17.535.3.157.127.29.275.4.445.11.167.195.347.255.54l-.605.09a1.434 1.434 0 0 0-.475-.72 1.24 1.24 0 0 0-.79-.26c-.26 0-.505.075-.735.225-.227.15-.412.372-.555.665-.143.29-.215.648-.215 1.075 0 .387.063.73.19 1.03.13.297.308.53.535.7.227.167.487.25.78.25.403 0 .715-.1.935-.3.22-.2.33-.482.33-.845h.605c0 .327-.078.615-.235.865-.157.25-.375.445-.655.585-.28.14-.603.21-.97.21Zm3.488-.11v-6.8h.58v6.8h-.58Zm.48-2.605 2.62-2.14h.835l-3.455 2.775v-.635Zm2.84 2.605-2.32-2.985.625-.075 2.415 3.06h-.72Zm2.493-5.995a.392.392 0 0 1-.415-.405.34.34 0 0 1 .115-.27.429.429 0 0 1 .3-.105c.13 0 .232.035.305.105.073.067.11.157.11.27a.404.404 0 0 1-.11.29.4.4 0 0 1-.305.115Zm-.29 5.995v-4.75h.58v4.75h-.58Zm6.242 0v-2.795c0-.503-.122-.888-.365-1.155-.24-.267-.572-.4-.995-.4-.31 0-.578.085-.805.255a1.61 1.61 0 0 0-.515.715 3.01 3.01 0 0 0-.175 1.075h-.255c0-.52.07-.97.21-1.35.143-.383.353-.678.63-.885.28-.21.627-.315 1.04-.315.367 0 .683.082.95.245.27.163.478.4.625.71.147.307.22.675.22 1.105v2.795h-.565Zm-3.435 0v-4.745h.49l.09 1.17v3.575h-.58Zm7.537 2.435c-.456 0-.856-.067-1.2-.2-.343-.13-.611-.307-.805-.53a1.122 1.122 0 0 1-.285-.745c0-.383.14-.675.42-.875.284-.197.652-.295 1.105-.295l.22.245c-.376 0-.668.082-.875.245a.804.804 0 0 0-.31.665c0 .277.144.515.43.715.29.2.724.3 1.3.3.434 0 .814-.062 1.14-.185.33-.12.587-.28.77-.48.187-.197.28-.41.28-.64a.586.586 0 0 0-.19-.435c-.123-.123-.313-.185-.57-.185h-1.975c-.323 0-.593-.047-.81-.14a1.184 1.184 0 0 1-.495-.37.826.826 0 0 1-.165-.49c0-.2.055-.367.165-.5.114-.137.259-.24.435-.31.177-.07.362-.105.555-.105l.075.24a.74.74 0 0 0-.315.075.72.72 0 0 0-.275.215.566.566 0 0 0-.11.36c0 .163.067.302.2.415.134.113.38.17.74.17h1.975c.42 0 .749.095.985.285.24.19.36.442.36.755 0 .293-.11.578-.33.855-.22.277-.536.503-.95.68-.413.177-.911.265-1.495.265Zm.18-3.785c-.36 0-.681-.073-.965-.22a1.734 1.734 0 0 1-.665-.62 1.72 1.72 0 0 1-.245-.915c0-.347.082-.652.245-.915.164-.263.385-.468.665-.615.284-.147.605-.22.965-.22.35 0 .664.073.94.22.28.147.502.352.665.615.164.263.245.568.245.915 0 .343-.081.648-.245.915-.163.263-.385.47-.665.62a1.97 1.97 0 0 1-.94.22Zm-.005-.43c.397 0 .709-.125.935-.375.23-.253.345-.57.345-.95 0-.383-.115-.697-.345-.94-.226-.243-.536-.365-.93-.365-.396 0-.711.122-.945.365-.23.243-.345.557-.345.94 0 .38.115.697.345.95.234.25.547.375.94.375Zm1.5-2.325-.285-.07c0-.277.049-.518.145-.725.1-.21.245-.373.435-.49a1.36 1.36 0 0 1 .715-.175l-.06.59c-.306 0-.541.072-.705.215-.163.14-.245.358-.245.655Zm3.807 4.105 2.135-6.175h.685l2.105 6.175h-.61l-.57-1.715h-2.545l-.595 1.715h-.605Zm1.35-2.185h2.235l-1.12-3.27-1.115 3.27Zm6.948 2.295c-.346 0-.651-.082-.915-.245a1.645 1.645 0 0 1-.61-.705c-.143-.307-.215-.675-.215-1.105h.28c0 .337.067.62.2.85a1.392 1.392 0 0 0 1.21.69c.264 0 .512-.077.745-.23.234-.153.424-.377.57-.67.147-.297.22-.657.22-1.08 0-.417-.07-.77-.21-1.06a1.598 1.598 0 0 0-.56-.67 1.318 1.318 0 0 0-.76-.235 1.394 1.394 0 0 0-1.215.71c-.133.23-.2.517-.2.86h-.28c0-.44.075-.815.225-1.125.154-.31.362-.545.625-.705.264-.163.562-.245.895-.245.37 0 .714.1 1.03.3.317.197.572.48.765.85.194.367.29.807.29 1.32 0 .52-.098.967-.295 1.34-.193.373-.45.66-.77.86a1.902 1.902 0 0 1-1.025.295Zm-2.04 2.23v-7.085h.49l.09 1.08v6.005h-.58Zm7.763-2.23c-.347 0-.652-.082-.915-.245a1.645 1.645 0 0 1-.61-.705c-.143-.307-.215-.675-.215-1.105h.28c0 .337.067.62.2.85a1.392 1.392 0 0 0 1.21.69c.263 0 .512-.077.745-.23.233-.153.423-.377.57-.67.147-.297.22-.657.22-1.08 0-.417-.07-.77-.21-1.06a1.605 1.605 0 0 0-.56-.67 1.318 1.318 0 0 0-.76-.235 1.394 1.394 0 0 0-1.215.71c-.133.23-.2.517-.2.86h-.28c0-.44.075-.815.225-1.125a1.66 1.66 0 0 1 .625-.705c.263-.163.562-.245.895-.245.37 0 .713.1 1.03.3.317.197.572.48.765.85.193.367.29.807.29 1.32 0 .52-.098.967-.295 1.34-.193.373-.45.66-.77.86a1.905 1.905 0 0 1-1.025.295Zm-2.04 2.23v-7.085h.49l.09 1.08v6.005h-.58Zm7.398-2.23c-.46 0-.84-.067-1.14-.2a1.52 1.52 0 0 1-.67-.54 1.477 1.477 0 0 1-.245-.76h.58c.02.337.155.592.405.765.253.17.598.255 1.035.255.226 0 .436-.037.63-.11a1.22 1.22 0 0 0 .465-.31.654.654 0 0 0 .18-.45.597.597 0 0 0-.235-.5c-.157-.12-.405-.223-.745-.31l-.865-.26c-.417-.12-.735-.29-.955-.51a1.1 1.1 0 0 1-.33-.8c0-.373.161-.672.485-.895.323-.227.745-.34 1.265-.34.566 0 1.008.112 1.325.335.316.223.483.502.5.835h-.6a.69.69 0 0 0-.365-.525c-.207-.117-.494-.175-.86-.175-.364 0-.645.083-.845.25-.2.167-.3.348-.3.545 0 .38.326.658.98.835l.85.265c.426.12.751.28.975.48.226.2.34.457.34.77 0 .23-.075.448-.225.655a1.584 1.584 0 0 1-.635.505c-.277.127-.61.19-1 .19Zm7.469-7.245.415.275c-.38.38-.699.782-.955 1.205a5.526 5.526 0 0 0-.575 1.305c-.127.443-.19.888-.19 1.335 0 .67.145 1.337.435 2 .29.66.718 1.273 1.285 1.84l-.415.295a6.237 6.237 0 0 1-1.425-1.945c-.334-.72-.5-1.45-.5-2.19 0-.747.166-1.477.5-2.19a6.133 6.133 0 0 1 1.425-1.93Zm1.345 7.135v-.84c0-.363.06-.663.18-.9.123-.24.291-.437.505-.59.216-.153.461-.285.735-.395l1.195-.48c.336-.14.59-.318.76-.535.17-.217.255-.492.255-.825 0-.353-.122-.64-.365-.86-.24-.22-.574-.33-1-.33-.43 0-.78.087-1.05.26-.267.173-.419.433-.455.78h-.65c.03-.323.133-.602.31-.835.18-.233.423-.412.73-.535.31-.127.68-.19 1.11-.19.386 0 .731.077 1.035.23.303.15.541.358.715.625.173.263.26.565.26.905 0 .317-.06.592-.18.825a1.83 1.83 0 0 1-.495.6 2.868 2.868 0 0 1-.71.415l-1.235.505c-.35.137-.617.305-.8.505-.18.197-.27.453-.27.77v.355h3.62v.54h-4.2Zm8.003.11c-.46 0-.873-.077-1.24-.23a2.108 2.108 0 0 1-.86-.63 1.45 1.45 0 0 1-.31-.91c0-.323.082-.6.245-.83a1.58 1.58 0 0 1 .685-.535 2.569 2.569 0 0 1 1-.185c.074 0 .147.003.22.01.077.003.154.013.23.03v.2c-.356 0-.668.062-.935.185-.266.12-.473.277-.62.47-.146.193-.22.402-.22.625 0 .273.079.503.235.69.157.187.372.328.645.425.274.097.582.145.925.145.55 0 .987-.097 1.31-.29.327-.193.49-.447.49-.76a.802.802 0 0 0-.265-.625c-.176-.163-.418-.298-.725-.405l-1.67-.635a3.32 3.32 0 0 1-.615-.315c-.206-.133-.38-.3-.52-.5s-.21-.437-.21-.71c0-.303.089-.577.265-.82.177-.243.43-.435.76-.575.33-.14.724-.21 1.18-.21.43 0 .809.073 1.135.22.327.147.582.347.765.6.184.253.275.54.275.86 0 .267-.065.513-.195.74a1.393 1.393 0 0 1-.57.54c-.253.137-.568.205-.945.205-.073 0-.145-.003-.215-.01a1.304 1.304 0 0 1-.22-.045v-.205c.297 0 .56-.05.79-.15.234-.103.417-.245.55-.425.134-.183.2-.393.2-.63a.968.968 0 0 0-.2-.6 1.278 1.278 0 0 0-.55-.415 2.013 2.013 0 0 0-.82-.155c-.303 0-.575.05-.815.15-.236.1-.425.233-.565.4a.832.832 0 0 0-.205.545c0 .253.085.455.255.605.174.147.409.275.705.385l1.64.62c.454.167.8.368 1.04.605.244.233.365.547.365.94 0 .313-.096.592-.29.835-.19.24-.465.428-.825.565-.36.137-.795.205-1.305.205Zm4.132-.11 4.145-6.175h.62l-4.15 6.175h-.615Zm4.06.095c-.21 0-.409-.053-.595-.16a1.205 1.205 0 0 1-.455-.47c-.117-.21-.175-.467-.175-.77 0-.3.058-.552.175-.755.116-.207.268-.363.455-.47a1.232 1.232 0 0 1 1.21 0c.19.107.341.263.455.47.116.203.175.455.175.755 0 .303-.059.56-.175.77a1.172 1.172 0 0 1-.455.47c-.19.107-.395.16-.615.16Zm0-.43c.22 0 .398-.078.535-.235.14-.157.21-.402.21-.735 0-.323-.07-.565-.21-.725a.67.67 0 0 0-.535-.24.663.663 0 0 0-.53.24c-.137.16-.205.402-.205.725 0 .333.068.578.205.735a.668.668 0 0 0 .53.235Zm-3.36-3.165c-.21 0-.409-.053-.595-.16a1.218 1.218 0 0 1-.455-.465c-.117-.207-.175-.46-.175-.76s.058-.553.175-.76a1.16 1.16 0 0 1 .455-.47c.186-.107.385-.16.595-.16.216 0 .42.053.61.16.19.103.343.26.46.47.116.207.175.46.175.76s-.059.553-.175.76a1.216 1.216 0 0 1-1.07.625Zm0-.42a.665.665 0 0 0 .525-.235c.136-.16.205-.403.205-.73 0-.327-.069-.572-.205-.735a.649.649 0 0 0-.525-.25.657.657 0 0 0-.535.25c-.134.163-.2.408-.2.735s.066.57.2.73a.674.674 0 0 0 .535.235Zm5.91 5.04-.425-.295c.57-.567 1-1.18 1.29-1.84.294-.663.44-1.33.44-2a4.72 4.72 0 0 0-.195-1.335 5.426 5.426 0 0 0-.58-1.305 6.381 6.381 0 0 0-.955-1.205l.425-.275a6.163 6.163 0 0 1 1.42 1.93c.337.713.505 1.443.505 2.19 0 .493-.075.985-.225 1.475-.15.487-.37.957-.66 1.41-.286.45-.633.867-1.04 1.25Zm-91.2-21.01c-.483 0-.926-.125-1.33-.375a2.67 2.67 0 0 1-.965-1.07c-.236-.467-.355-1.022-.355-1.665 0-.55.079-1.03.235-1.44.157-.41.37-.75.64-1.02.274-.273.584-.477.93-.61a2.926 2.926 0 0 1 1.085-.205c.434 0 .824.087 1.17.26.347.17.662.44.945.81l-.505.25a2.472 2.472 0 0 0-.785-.6c-.27-.127-.55-.19-.84-.19-.403 0-.778.11-1.125.33a2.38 2.38 0 0 0-.83.945c-.206.41-.31.9-.31 1.47 0 .493.082.933.245 1.32.167.387.404.692.71.915.31.223.68.335 1.11.335.317 0 .6-.073.85-.22.254-.147.452-.373.595-.68.147-.307.22-.7.22-1.18h.23c0 .53-.063.992-.19 1.385-.126.393-.331.698-.615.915-.28.213-.651.32-1.115.32Zm1.815-.11-.125-1.505v-1.015l-1.64-.06v-.42h2.215v3h-.45Zm2.32 0v-6.175h1.885c.67 0 1.176.172 1.52.515.343.343.515.797.515 1.36 0 .557-.172 1.005-.515 1.345-.344.337-.85.505-1.52.505h-1.295v2.45h-.59Zm.59-2.955h1.295c.47 0 .826-.118 1.07-.355.246-.24.37-.57.37-.99 0-.427-.124-.763-.37-1.01-.244-.247-.6-.37-1.07-.37h-1.295v2.725Zm6.71 3.065c-.403 0-.773-.073-1.11-.22a1.956 1.956 0 0 1-.81-.65c-.203-.287-.305-.635-.305-1.045h.56c0 .313.077.572.23.775.153.203.355.355.605.455.253.097.527.145.82.145.337 0 .625-.055.865-.165.24-.113.423-.26.55-.44a.966.966 0 0 0 .195-.575c0-.297-.09-.537-.27-.72-.177-.183-.433-.327-.77-.43l-1.025-.33c-.53-.183-.928-.39-1.195-.62-.267-.23-.4-.555-.4-.975 0-.467.177-.848.53-1.145.353-.297.862-.445 1.525-.445.597 0 1.065.137 1.405.41.343.273.542.632.595 1.075h-.575a1.025 1.025 0 0 0-.44-.705c-.237-.167-.565-.25-.985-.25-.453 0-.805.103-1.055.31a.965.965 0 0 0-.37.78c0 .257.078.46.235.61.157.147.403.277.74.39l1.24.4c.433.133.782.33 1.045.59.267.257.4.605.4 1.045 0 .303-.085.587-.255.85-.17.263-.42.477-.75.64-.33.16-.738.24-1.225.24Zm3.534.57 2.48-7.92h.595l-2.5 7.92h-.575Zm4.566-6.855h.75l3.31 5.44h-.06v-5.44h.58v6.175h-.705l-3.38-5.555h.085v5.555h-.58v-6.175Zm9.58 6.175-.075-.985v-2.1c0-.477-.103-.815-.31-1.015-.207-.2-.502-.3-.885-.3a1.82 1.82 0 0 0-.595.095.913.913 0 0 0-.44.295c-.11.133-.165.31-.165.53h-.66c0-.337.083-.605.25-.805.167-.203.39-.348.67-.435.283-.09.597-.135.94-.135.34 0 .643.06.91.18.267.117.477.307.63.57.157.26.235.603.235 1.03v3.075h-.505Zm-1.65.11c-.38 0-.693-.068-.94-.205a1.392 1.392 0 0 1-.55-.535c-.12-.217-.18-.44-.18-.67 0-.333.08-.6.24-.8.163-.2.38-.345.65-.435.273-.09.572-.135.895-.135.243 0 .495.028.755.085.263.053.515.128.755.225v.39a3.47 3.47 0 0 0-.715-.215 3.85 3.85 0 0 0-.735-.08c-.34 0-.63.073-.87.22-.24.147-.36.395-.36.745 0 .263.088.487.265.67.18.183.468.275.865.275.27 0 .518-.065.745-.195.227-.13.408-.292.545-.485a.99.99 0 0 0 .21-.585h.145c0 .303-.072.587-.215.85-.14.263-.34.477-.6.64-.257.16-.558.24-.905.24Zm3.247-4.855h.655l1.67 4.245h-.12l1.67-4.245h.655l-1.96 4.745h-.61l-1.96-4.745Zm6.096-1.25a.406.406 0 0 1-.3-.115.396.396 0 0 1-.115-.29c0-.113.039-.203.115-.27a.429.429 0 0 1 .3-.105c.13 0 .232.035.305.105.074.067.11.157.11.27a.4.4 0 0 1-.11.29.4.4 0 0 1-.305.115Zm-.29 5.995v-4.75h.58v4.75h-.58Zm4.407 2.435c-.456 0-.856-.067-1.2-.2-.343-.13-.611-.307-.805-.53a1.122 1.122 0 0 1-.285-.745c0-.383.14-.675.42-.875.284-.197.652-.295 1.105-.295l.22.245c-.376 0-.668.082-.875.245a.804.804 0 0 0-.31.665c0 .277.144.515.43.715.29.2.724.3 1.3.3.434 0 .814-.062 1.14-.185.33-.12.587-.28.77-.48.187-.197.28-.41.28-.64a.586.586 0 0 0-.19-.435c-.123-.123-.313-.185-.57-.185h-1.975c-.323 0-.593-.047-.81-.14a1.184 1.184 0 0 1-.495-.37.826.826 0 0 1-.165-.49c0-.2.055-.367.165-.5.114-.137.259-.24.435-.31.177-.07.362-.105.555-.105l.075.24a.74.74 0 0 0-.315.075.72.72 0 0 0-.275.215.566.566 0 0 0-.11.36c0 .163.067.302.2.415.134.113.38.17.74.17h1.975c.42 0 .749.095.985.285.24.19.36.442.36.755 0 .293-.11.578-.33.855-.22.277-.536.503-.95.68-.413.177-.911.265-1.495.265Zm.18-3.785c-.36 0-.681-.073-.965-.22a1.734 1.734 0 0 1-.665-.62 1.72 1.72 0 0 1-.245-.915c0-.347.082-.652.245-.915.164-.263.385-.468.665-.615.284-.147.605-.22.965-.22.35 0 .664.073.94.22.28.147.502.352.665.615.164.263.245.568.245.915 0 .343-.081.648-.245.915-.163.263-.385.47-.665.62a1.97 1.97 0 0 1-.94.22Zm-.005-.43c.397 0 .709-.125.935-.375.23-.253.345-.57.345-.95 0-.383-.115-.697-.345-.94-.226-.243-.536-.365-.93-.365-.396 0-.711.122-.945.365-.23.243-.345.557-.345.94 0 .38.115.697.345.95.234.25.547.375.94.375Zm1.5-2.325-.285-.07c0-.277.049-.518.145-.725.1-.21.245-.373.435-.49a1.36 1.36 0 0 1 .715-.175l-.06.59c-.306 0-.541.072-.705.215-.163.14-.245.358-.245.655Zm5.177 4.105-.075-.985v-2.1c0-.477-.103-.815-.31-1.015-.207-.2-.502-.3-.885-.3a1.82 1.82 0 0 0-.595.095.913.913 0 0 0-.44.295c-.11.133-.165.31-.165.53h-.66c0-.337.083-.605.25-.805.167-.203.39-.348.67-.435.283-.09.597-.135.94-.135.34 0 .643.06.91.18.267.117.477.307.63.57.157.26.235.603.235 1.03v3.075h-.505Zm-1.65.11c-.38 0-.693-.068-.94-.205a1.39 1.39 0 0 1-.55-.535c-.12-.217-.18-.44-.18-.67 0-.333.08-.6.24-.8.163-.2.38-.345.65-.435.273-.09.572-.135.895-.135.243 0 .495.028.755.085.263.053.515.128.755.225v.39a3.47 3.47 0 0 0-.715-.215 3.85 3.85 0 0 0-.735-.08c-.34 0-.63.073-.87.22-.24.147-.36.395-.36.745 0 .263.088.487.265.67.18.183.468.275.865.275.27 0 .518-.065.745-.195.227-.13.408-.292.545-.485a.99.99 0 0 0 .21-.585h.145c0 .303-.072.587-.215.85-.14.263-.34.477-.6.64-.257.16-.558.24-.905.24Zm5.472 0a1.45 1.45 0 0 1-.66-.145c-.19-.097-.34-.24-.45-.43-.107-.19-.16-.425-.16-.705v-4.925h.565v4.915c0 .54.25.81.75.81.147 0 .287-.017.42-.05s.283-.08.45-.14l.08.425a3.199 3.199 0 0 1-.49.175c-.163.047-.332.07-.505.07Zm-2.085-4.435v-.42h2.985v.42h-2.985Zm4.677-1.67a.406.406 0 0 1-.3-.115.396.396 0 0 1-.115-.29c0-.113.039-.203.115-.27a.429.429 0 0 1 .3-.105c.13 0 .232.035.305.105.074.067.11.157.11.27a.4.4 0 0 1-.11.29.4.4 0 0 1-.305.115Zm-.29 5.995v-4.75h.58v4.75h-.58Zm4.447.11c-.423 0-.796-.095-1.12-.285a1.98 1.98 0 0 1-.765-.84c-.183-.37-.275-.823-.275-1.36 0-.537.092-.988.275-1.355.187-.37.442-.65.765-.84.324-.19.697-.285 1.12-.285.424 0 .797.095 1.12.285.324.19.577.47.76.84.184.367.275.818.275 1.355s-.091.99-.275 1.36a1.94 1.94 0 0 1-.76.84c-.323.19-.696.285-1.12.285Zm-.01-.505c.35 0 .642-.082.875-.245.234-.167.407-.398.52-.695.117-.297.175-.643.175-1.04 0-.597-.128-1.077-.385-1.44-.253-.363-.641-.545-1.165-.545-.35 0-.641.083-.875.25-.23.163-.403.395-.52.695-.113.297-.17.643-.17 1.04 0 .593.127 1.072.38 1.435.257.363.645.545 1.165.545Zm7.167.395v-2.795c0-.503-.122-.888-.365-1.155-.24-.267-.572-.4-.995-.4-.31 0-.579.085-.805.255-.224.17-.395.408-.515.715a3.01 3.01 0 0 0-.175 1.075h-.255c0-.52.07-.97.21-1.35.143-.383.353-.678.63-.885.28-.21.626-.315 1.04-.315.366 0 .683.082.95.245.27.163.478.4.625.71.146.307.22.675.22 1.105v2.795h-.565Zm-3.435 0v-4.745h.49l.09 1.17v3.575h-.58Zm7.462 0 2.135-6.175h.685l2.105 6.175h-.61l-.57-1.715h-2.545l-.595 1.715h-.605Zm1.35-2.185h2.235l-1.12-3.27-1.115 3.27Zm6.948 2.295c-.346 0-.651-.082-.915-.245a1.645 1.645 0 0 1-.61-.705c-.143-.307-.215-.675-.215-1.105h.28c0 .337.067.62.2.85a1.392 1.392 0 0 0 1.21.69c.264 0 .512-.077.745-.23.234-.153.424-.377.57-.67.147-.297.22-.657.22-1.08 0-.417-.07-.77-.21-1.06a1.598 1.598 0 0 0-.56-.67 1.318 1.318 0 0 0-.76-.235 1.394 1.394 0 0 0-1.215.71c-.133.23-.2.517-.2.86h-.28c0-.44.075-.815.225-1.125.154-.31.362-.545.625-.705.264-.163.562-.245.895-.245.37 0 .714.1 1.03.3.317.197.572.48.765.85.194.367.29.807.29 1.32 0 .52-.098.967-.295 1.34-.193.373-.45.66-.77.86a1.902 1.902 0 0 1-1.025.295Zm-2.04 2.23v-7.085h.49l.09 1.08v6.005h-.58Zm7.763-2.23c-.347 0-.652-.082-.915-.245a1.645 1.645 0 0 1-.61-.705c-.143-.307-.215-.675-.215-1.105h.28c0 .337.067.62.2.85a1.392 1.392 0 0 0 1.21.69c.263 0 .512-.077.745-.23.233-.153.423-.377.57-.67.147-.297.22-.657.22-1.08 0-.417-.07-.77-.21-1.06a1.605 1.605 0 0 0-.56-.67 1.318 1.318 0 0 0-.76-.235 1.394 1.394 0 0 0-1.215.71c-.133.23-.2.517-.2.86h-.28c0-.44.075-.815.225-1.125a1.66 1.66 0 0 1 .625-.705c.263-.163.562-.245.895-.245.37 0 .713.1 1.03.3.317.197.572.48.765.85.193.367.29.807.29 1.32 0 .52-.098.967-.295 1.34-.193.373-.45.66-.77.86a1.905 1.905 0 0 1-1.025.295Zm-2.04 2.23v-7.085h.49l.09 1.08v6.005h-.58Zm7.398-2.23c-.46 0-.84-.067-1.14-.2a1.52 1.52 0 0 1-.67-.54 1.477 1.477 0 0 1-.245-.76h.58c.02.337.155.592.405.765.253.17.598.255 1.035.255.226 0 .436-.037.63-.11a1.22 1.22 0 0 0 .465-.31.654.654 0 0 0 .18-.45.597.597 0 0 0-.235-.5c-.157-.12-.405-.223-.745-.31l-.865-.26c-.417-.12-.735-.29-.955-.51a1.1 1.1 0 0 1-.33-.8c0-.373.161-.672.485-.895.323-.227.745-.34 1.265-.34.566 0 1.008.112 1.325.335.316.223.483.502.5.835h-.6a.69.69 0 0 0-.365-.525c-.207-.117-.494-.175-.86-.175-.364 0-.645.083-.845.25-.2.167-.3.348-.3.545 0 .38.326.658.98.835l.85.265c.426.12.751.28.975.48.226.2.34.457.34.77 0 .23-.075.448-.225.655a1.584 1.584 0 0 1-.635.505c-.277.127-.61.19-1 .19Zm7.469-7.245.415.275c-.38.38-.699.782-.955 1.205a5.526 5.526 0 0 0-.575 1.305c-.127.443-.19.888-.19 1.335 0 .67.145 1.337.435 2 .29.66.718 1.273 1.285 1.84l-.415.295a6.237 6.237 0 0 1-1.425-1.945c-.334-.72-.5-1.45-.5-2.19 0-.747.166-1.477.5-2.19a6.133 6.133 0 0 1 1.425-1.93Zm2.304.95h.5v6.185h-.58v-5.51c-.153.127-.32.223-.5.29-.176.063-.353.1-.53.11v-.575c.204-.033.4-.09.59-.17.19-.08.364-.19.52-.33Zm2.219 6.185 3.03-5.635h-3.455v-.54h4.14v.515l-2.95 5.66h-.765Zm5.021 0 4.145-6.175h.62l-4.15 6.175h-.615Zm4.06.095c-.21 0-.408-.053-.595-.16a1.212 1.212 0 0 1-.455-.47c-.117-.21-.175-.467-.175-.77 0-.3.058-.552.175-.755.117-.207.268-.363.455-.47a1.232 1.232 0 0 1 1.21 0c.19.107.342.263.455.47.117.203.175.455.175.755 0 .303-.058.56-.175.77a1.165 1.165 0 0 1-.455.47c-.19.107-.395.16-.615.16Zm0-.43c.22 0 .398-.078.535-.235.14-.157.21-.402.21-.735 0-.323-.07-.565-.21-.725a.67.67 0 0 0-.535-.24.665.665 0 0 0-.53.24c-.137.16-.205.402-.205.725 0 .333.068.578.205.735a.67.67 0 0 0 .53.235Zm-3.36-3.165c-.21 0-.408-.053-.595-.16a1.225 1.225 0 0 1-.455-.465c-.117-.207-.175-.46-.175-.76s.058-.553.175-.76c.117-.21.268-.367.455-.47a1.222 1.222 0 0 1 1.205 0c.19.103.343.26.46.47.117.207.175.46.175.76s-.058.553-.175.76a1.216 1.216 0 0 1-1.07.625Zm0-.42a.665.665 0 0 0 .525-.235c.137-.16.205-.403.205-.73 0-.327-.068-.572-.205-.735a.649.649 0 0 0-.525-.25.658.658 0 0 0-.535.25c-.133.163-.2.408-.2.735s.067.57.2.73a.676.676 0 0 0 .535.235Zm5.911 5.04-.425-.295c.57-.567 1-1.18 1.29-1.84.293-.663.44-1.33.44-2a4.72 4.72 0 0 0-.195-1.335 5.466 5.466 0 0 0-.58-1.305 6.421 6.421 0 0 0-.955-1.205l.425-.275a6.194 6.194 0 0 1 1.42 1.93c.336.713.505 1.443.505 2.19 0 .493-.075.985-.225 1.475-.15.487-.37.957-.66 1.41-.287.45-.634.867-1.04 1.25Zm-74.229-47.295v5.67h2.865v.505h-3.445v-6.175h.58Zm6.856 6.175-.075-.985v-2.1c0-.477-.103-.815-.31-1.015-.207-.2-.502-.3-.885-.3a1.82 1.82 0 0 0-.595.095.913.913 0 0 0-.44.295c-.11.133-.165.31-.165.53h-.66c0-.337.083-.605.25-.805.167-.203.39-.348.67-.435.283-.09.597-.135.94-.135.34 0 .643.06.91.18.267.117.477.307.63.57.157.26.235.603.235 1.03v3.075h-.505Zm-1.65.11c-.38 0-.693-.068-.94-.205a1.39 1.39 0 0 1-.55-.535c-.12-.217-.18-.44-.18-.67 0-.333.08-.6.24-.8.163-.2.38-.345.65-.435.273-.09.572-.135.895-.135.243 0 .495.028.755.085.263.053.515.128.755.225v.39a3.47 3.47 0 0 0-.715-.215 3.85 3.85 0 0 0-.735-.08c-.34 0-.63.073-.87.22-.24.147-.36.395-.36.745 0 .263.088.487.265.67.18.183.468.275.865.275.27 0 .518-.065.745-.195.227-.13.408-.292.545-.485a.99.99 0 0 0 .21-.585h.145c0 .303-.072.587-.215.85-.14.263-.34.477-.6.64-.257.16-.558.24-.905.24Zm7.522-.11v-2.795c0-.503-.122-.888-.365-1.155-.24-.267-.572-.4-.995-.4-.31 0-.578.085-.805.255a1.61 1.61 0 0 0-.515.715 3.01 3.01 0 0 0-.175 1.075h-.255c0-.52.07-.97.21-1.35.143-.383.353-.678.63-.885.28-.21.627-.315 1.04-.315.367 0 .683.082.95.245.27.163.478.4.625.71.147.307.22.675.22 1.105v2.795h-.565Zm-3.435 0v-4.745h.49l.09 1.17v3.575h-.58Zm7.537 2.435c-.456 0-.856-.067-1.2-.2-.343-.13-.611-.307-.805-.53a1.122 1.122 0 0 1-.285-.745c0-.383.14-.675.42-.875.284-.197.652-.295 1.105-.295l.22.245c-.376 0-.668.082-.875.245a.804.804 0 0 0-.31.665c0 .277.144.515.43.715.29.2.724.3 1.3.3.434 0 .814-.062 1.14-.185.33-.12.587-.28.77-.48.187-.197.28-.41.28-.64a.586.586 0 0 0-.19-.435c-.123-.123-.313-.185-.57-.185h-1.975c-.323 0-.593-.047-.81-.14a1.184 1.184 0 0 1-.495-.37.826.826 0 0 1-.165-.49c0-.2.055-.367.165-.5.114-.137.259-.24.435-.31.177-.07.362-.105.555-.105l.075.24a.74.74 0 0 0-.315.075.72.72 0 0 0-.275.215.566.566 0 0 0-.11.36c0 .163.067.302.2.415.134.113.38.17.74.17h1.975c.42 0 .749.095.985.285.24.19.36.442.36.755 0 .293-.11.578-.33.855-.22.277-.536.503-.95.68-.413.177-.911.265-1.495.265Zm.18-3.785c-.36 0-.681-.073-.965-.22a1.734 1.734 0 0 1-.665-.62 1.72 1.72 0 0 1-.245-.915c0-.347.082-.652.245-.915.164-.263.385-.468.665-.615.284-.147.605-.22.965-.22.35 0 .664.073.94.22.28.147.502.352.665.615.164.263.245.568.245.915 0 .343-.081.648-.245.915-.163.263-.385.47-.665.62a1.97 1.97 0 0 1-.94.22Zm-.005-.43c.397 0 .709-.125.935-.375.23-.253.345-.57.345-.95 0-.383-.115-.697-.345-.94-.226-.243-.536-.365-.93-.365-.396 0-.711.122-.945.365-.23.243-.345.557-.345.94 0 .38.115.697.345.95.234.25.547.375.94.375Zm1.5-2.325-.285-.07c0-.277.049-.518.145-.725.1-.21.245-.373.435-.49a1.36 1.36 0 0 1 .715-.175l-.06.59c-.306 0-.541.072-.705.215-.163.14-.245.358-.245.655Zm5.542-.645h.58v4.75h-.58v-4.75Zm-3.42 0h.58v2.98c0 .44.107.777.32 1.01.217.23.528.345.935.345.333 0 .618-.09.855-.27.237-.18.417-.422.54-.725.127-.303.19-.638.19-1.005h.275c0 .507-.078.948-.235 1.325-.157.377-.378.668-.665.875a1.72 1.72 0 0 1-1.02.305c-.367 0-.683-.068-.95-.205a1.42 1.42 0 0 1-.61-.61c-.143-.273-.215-.612-.215-1.015v-3.01Zm9.002 4.75-.075-.985v-2.1c0-.477-.103-.815-.31-1.015-.206-.2-.501-.3-.885-.3-.213 0-.411.032-.595.095a.913.913 0 0 0-.44.295c-.11.133-.165.31-.165.53h-.66c0-.337.084-.605.25-.805.167-.203.39-.348.67-.435.284-.09.597-.135.94-.135.34 0 .644.06.91.18.267.117.477.307.63.57.157.26.235.603.235 1.03v3.075h-.505Zm-1.65.11c-.38 0-.693-.068-.94-.205a1.397 1.397 0 0 1-.55-.535c-.12-.217-.18-.44-.18-.67 0-.333.08-.6.24-.8.164-.2.38-.345.65-.435.274-.09.572-.135.895-.135.244 0 .495.028.755.085.264.053.515.128.755.225v.39a3.451 3.451 0 0 0-.715-.215 3.85 3.85 0 0 0-.735-.08c-.34 0-.63.073-.87.22-.24.147-.36.395-.36.745 0 .263.089.487.265.67.18.183.469.275.865.275.27 0 .519-.065.745-.195.227-.13.409-.292.545-.485a.99.99 0 0 0 .21-.585h.145c0 .303-.071.587-.215.85-.14.263-.34.477-.6.64-.256.16-.558.24-.905.24Zm5.687 2.325c-.456 0-.856-.067-1.2-.2-.343-.13-.611-.307-.805-.53a1.122 1.122 0 0 1-.285-.745c0-.383.14-.675.42-.875.284-.197.652-.295 1.105-.295l.22.245c-.376 0-.668.082-.875.245a.804.804 0 0 0-.31.665c0 .277.144.515.43.715.29.2.724.3 1.3.3.434 0 .814-.062 1.14-.185.33-.12.587-.28.77-.48.187-.197.28-.41.28-.64a.586.586 0 0 0-.19-.435c-.123-.123-.313-.185-.57-.185h-1.975c-.323 0-.593-.047-.81-.14a1.184 1.184 0 0 1-.495-.37.826.826 0 0 1-.165-.49c0-.2.055-.367.165-.5.114-.137.259-.24.435-.31.177-.07.362-.105.555-.105l.075.24a.74.74 0 0 0-.315.075.72.72 0 0 0-.275.215.566.566 0 0 0-.11.36c0 .163.067.302.2.415.134.113.38.17.74.17h1.975c.42 0 .749.095.985.285.24.19.36.442.36.755 0 .293-.11.578-.33.855-.22.277-.536.503-.95.68-.413.177-.911.265-1.495.265Zm.18-3.785c-.36 0-.681-.073-.965-.22a1.734 1.734 0 0 1-.665-.62 1.72 1.72 0 0 1-.245-.915c0-.347.082-.652.245-.915.164-.263.385-.468.665-.615.284-.147.605-.22.965-.22.35 0 .664.073.94.22.28.147.502.352.665.615.164.263.245.568.245.915 0 .343-.081.648-.245.915-.163.263-.385.47-.665.62a1.97 1.97 0 0 1-.94.22Zm-.005-.43c.397 0 .709-.125.935-.375.23-.253.345-.57.345-.95 0-.383-.115-.697-.345-.94-.226-.243-.536-.365-.93-.365-.396 0-.711.122-.945.365-.23.243-.345.557-.345.94 0 .38.115.697.345.95.234.25.547.375.94.375Zm1.5-2.325-.285-.07c0-.277.049-.518.145-.725.1-.21.245-.373.435-.49a1.36 1.36 0 0 1 .715-.175l-.06.59c-.306 0-.541.072-.705.215-.163.14-.245.358-.245.655Zm3.867 4.215c-.413 0-.778-.105-1.095-.315a2.194 2.194 0 0 1-.74-.875 2.898 2.898 0 0 1-.27-1.275c0-.52.088-.967.265-1.34.18-.373.427-.66.74-.86.317-.2.683-.3 1.1-.3.35 0 .647.072.89.215.247.14.445.332.595.575.15.243.255.518.315.825.063.307.088.623.075.95h-3.505v-.4h3.15l-.23.15a2.96 2.96 0 0 0-.04-.645 1.82 1.82 0 0 0-.195-.595 1.125 1.125 0 0 0-.395-.435c-.17-.11-.388-.165-.655-.165-.34 0-.623.088-.85.265-.227.173-.397.4-.51.68-.11.277-.165.573-.165.89v.245c0 .363.055.69.165.98.113.29.282.52.505.69.227.17.51.255.85.255.35 0 .635-.085.855-.255.223-.173.357-.427.4-.76h.62c-.05.317-.162.587-.335.81-.17.223-.387.395-.65.515-.263.117-.56.175-.89.175Zm4.769-5.79v-.495h4.735v.495h-2.215l.13-.135v5.815h-.58v-5.815l.13.135h-2.2Zm5.169 5.68v-4.75h.58v4.75h-.58Zm.365-2.175c0-.593.052-1.087.155-1.48.104-.393.264-.688.48-.885.217-.197.494-.295.83-.295a1.666 1.666 0 0 1 .62.105l-.065.565a1.923 1.923 0 0 0-.32-.09 1.367 1.367 0 0 0-.305-.04c-.296 0-.531.09-.705.27-.17.18-.291.43-.365.75-.073.317-.11.683-.11 1.1h-.215Zm5.987 2.175-.075-.985v-2.1c0-.477-.103-.815-.31-1.015-.206-.2-.501-.3-.885-.3-.213 0-.411.032-.595.095a.913.913 0 0 0-.44.295c-.11.133-.165.31-.165.53h-.66c0-.337.084-.605.25-.805.167-.203.39-.348.67-.435.284-.09.597-.135.94-.135.34 0 .644.06.91.18.267.117.477.307.63.57.157.26.235.603.235 1.03v3.075h-.505Zm-1.65.11c-.38 0-.693-.068-.94-.205a1.397 1.397 0 0 1-.55-.535c-.12-.217-.18-.44-.18-.67 0-.333.08-.6.24-.8.164-.2.38-.345.65-.435.274-.09.572-.135.895-.135.244 0 .495.028.755.085.264.053.515.128.755.225v.39a3.451 3.451 0 0 0-.715-.215 3.85 3.85 0 0 0-.735-.08c-.34 0-.63.073-.87.22-.24.147-.36.395-.36.745 0 .263.089.487.265.67.18.183.469.275.865.275.27 0 .519-.065.745-.195.227-.13.409-.292.545-.485a.99.99 0 0 0 .21-.585h.145c0 .303-.071.587-.215.85-.14.263-.34.477-.6.64-.256.16-.558.24-.905.24Zm7.523-.11v-2.795c0-.503-.122-.888-.365-1.155-.24-.267-.572-.4-.995-.4-.31 0-.579.085-.805.255-.224.17-.395.408-.515.715a3.01 3.01 0 0 0-.175 1.075h-.255c0-.52.07-.97.21-1.35.143-.383.353-.678.63-.885.28-.21.626-.315 1.04-.315.366 0 .683.082.95.245.27.163.478.4.625.71.146.307.22.675.22 1.105v2.795h-.565Zm-3.435 0v-4.745h.49l.09 1.17v3.575h-.58Zm7.612.11c-.46 0-.84-.067-1.14-.2a1.52 1.52 0 0 1-.67-.54 1.477 1.477 0 0 1-.245-.76h.58c.02.337.155.592.405.765.253.17.598.255 1.035.255.227 0 .437-.037.63-.11a1.22 1.22 0 0 0 .465-.31.654.654 0 0 0 .18-.45.594.594 0 0 0-.235-.5c-.157-.12-.405-.223-.745-.31l-.865-.26c-.417-.12-.735-.29-.955-.51a1.1 1.1 0 0 1-.33-.8c0-.373.162-.672.485-.895.323-.227.745-.34 1.265-.34.567 0 1.008.112 1.325.335.317.223.483.502.5.835h-.6a.687.687 0 0 0-.365-.525c-.207-.117-.493-.175-.86-.175-.363 0-.645.083-.845.25-.2.167-.3.348-.3.545 0 .38.327.658.98.835l.85.265c.427.12.752.28.975.48.227.2.34.457.34.77 0 .23-.075.448-.225.655a1.577 1.577 0 0 1-.635.505c-.277.127-.61.19-1 .19Zm3.569-.11v-6.8h.58v6.8h-.58Zm5.571 0-.075-.985v-2.1c0-.477-.103-.815-.31-1.015-.207-.2-.502-.3-.885-.3a1.82 1.82 0 0 0-.595.095.913.913 0 0 0-.44.295c-.11.133-.165.31-.165.53h-.66c0-.337.083-.605.25-.805.167-.203.39-.348.67-.435.283-.09.597-.135.94-.135.34 0 .643.06.91.18.267.117.477.307.63.57.157.26.235.603.235 1.03v3.075h-.505Zm-1.65.11c-.38 0-.693-.068-.94-.205a1.39 1.39 0 0 1-.55-.535c-.12-.217-.18-.44-.18-.67 0-.333.08-.6.24-.8.163-.2.38-.345.65-.435.273-.09.572-.135.895-.135.243 0 .495.028.755.085.263.053.515.128.755.225v.39a3.47 3.47 0 0 0-.715-.215 3.85 3.85 0 0 0-.735-.08c-.34 0-.63.073-.87.22-.24.147-.36.395-.36.745 0 .263.088.487.265.67.18.183.468.275.865.275.27 0 .518-.065.745-.195.227-.13.408-.292.545-.485a.99.99 0 0 0 .21-.585h.145c0 .303-.072.587-.215.85-.14.263-.34.477-.6.64-.257.16-.558.24-.905.24Zm5.472 0a1.45 1.45 0 0 1-.66-.145c-.19-.097-.34-.24-.45-.43-.107-.19-.16-.425-.16-.705v-4.925h.565v4.915c0 .54.25.81.75.81.147 0 .287-.017.42-.05s.283-.08.45-.14l.08.425a3.199 3.199 0 0 1-.49.175c-.163.047-.332.07-.505.07Zm-2.085-4.435v-.42h2.985v.42h-2.985Zm4.677-1.67a.392.392 0 0 1-.415-.405.34.34 0 0 1 .115-.27.429.429 0 0 1 .3-.105c.13 0 .232.035.305.105.073.067.11.157.11.27a.404.404 0 0 1-.11.29.4.4 0 0 1-.305.115Zm-.29 5.995v-4.75h.58v4.75h-.58Zm4.447.11a2.17 2.17 0 0 1-1.12-.285 1.98 1.98 0 0 1-.765-.84c-.183-.37-.275-.823-.275-1.36 0-.537.092-.988.275-1.355.187-.37.442-.65.765-.84a2.17 2.17 0 0 1 1.12-.285c.423 0 .797.095 1.12.285.323.19.577.47.76.84.183.367.275.818.275 1.355s-.092.99-.275 1.36c-.183.37-.437.65-.76.84a2.17 2.17 0 0 1-1.12.285Zm-.01-.505c.35 0 .642-.082.875-.245.233-.167.407-.398.52-.695.117-.297.175-.643.175-1.04 0-.597-.128-1.077-.385-1.44-.253-.363-.642-.545-1.165-.545-.35 0-.642.083-.875.25-.23.163-.403.395-.52.695-.113.297-.17.643-.17 1.04 0 .593.127 1.072.38 1.435.257.363.645.545 1.165.545Zm7.166.395v-2.795c0-.503-.121-.888-.365-1.155-.24-.267-.571-.4-.995-.4-.31 0-.578.085-.805.255a1.61 1.61 0 0 0-.515.715 3.032 3.032 0 0 0-.175 1.075h-.255c0-.52.07-.97.21-1.35.144-.383.354-.678.63-.885.28-.21.627-.315 1.04-.315.367 0 .684.082.95.245.27.163.479.4.625.71.147.307.22.675.22 1.105v2.795h-.565Zm-3.435 0v-4.745h.49l.09 1.17v3.575h-.58Zm7.463 0 2.135-6.175h.685l2.105 6.175h-.61l-.57-1.715h-2.545l-.595 1.715h-.605Zm1.35-2.185h2.235l-1.12-3.27-1.115 3.27Zm6.948 2.295c-.347 0-.652-.082-.915-.245a1.645 1.645 0 0 1-.61-.705c-.143-.307-.215-.675-.215-1.105h.28c0 .337.067.62.2.85a1.392 1.392 0 0 0 1.21.69c.263 0 .512-.077.745-.23.233-.153.423-.377.57-.67.147-.297.22-.657.22-1.08 0-.417-.07-.77-.21-1.06a1.605 1.605 0 0 0-.56-.67 1.318 1.318 0 0 0-.76-.235 1.394 1.394 0 0 0-1.215.71c-.133.23-.2.517-.2.86h-.28c0-.44.075-.815.225-1.125a1.66 1.66 0 0 1 .625-.705c.263-.163.562-.245.895-.245.37 0 .713.1 1.03.3.317.197.572.48.765.85.193.367.29.807.29 1.32 0 .52-.098.967-.295 1.34-.193.373-.45.66-.77.86a1.905 1.905 0 0 1-1.025.295Zm-2.04 2.23v-7.085h.49l.09 1.08v6.005h-.58Zm7.763-2.23c-.347 0-.652-.082-.915-.245a1.638 1.638 0 0 1-.61-.705c-.144-.307-.215-.675-.215-1.105h.28c0 .337.066.62.2.85.136.227.311.398.525.515.216.117.445.175.685.175.263 0 .511-.077.745-.23.233-.153.423-.377.57-.67.146-.297.22-.657.22-1.08 0-.417-.07-.77-.21-1.06a1.605 1.605 0 0 0-.56-.67 1.32 1.32 0 0 0-.76-.235 1.392 1.392 0 0 0-1.215.71c-.134.23-.2.517-.2.86h-.28c0-.44.075-.815.225-1.125.153-.31.361-.545.625-.705.263-.163.561-.245.895-.245.37 0 .713.1 1.03.3.316.197.571.48.765.85.193.367.29.807.29 1.32 0 .52-.099.967-.295 1.34a2.16 2.16 0 0 1-.77.86 1.907 1.907 0 0 1-1.025.295Zm-2.04 2.23v-7.085h.49l.09 1.08v6.005h-.58Zm7.397-2.23c-.46 0-.84-.067-1.14-.2a1.525 1.525 0 0 1-.67-.54 1.486 1.486 0 0 1-.245-.76h.58c.02.337.155.592.405.765.254.17.599.255 1.035.255.227 0 .437-.037.63-.11.194-.077.349-.18.465-.31a.654.654 0 0 0 .18-.45.594.594 0 0 0-.235-.5c-.156-.12-.405-.223-.745-.31l-.865-.26c-.416-.12-.735-.29-.955-.51a1.1 1.1 0 0 1-.33-.8c0-.373.162-.672.485-.895.324-.227.745-.34 1.265-.34.567 0 1.009.112 1.325.335.317.223.484.502.5.835h-.6a.685.685 0 0 0-.365-.525c-.206-.117-.493-.175-.86-.175-.363 0-.645.083-.845.25-.2.167-.3.348-.3.545 0 .38.327.658.98.835l.85.265c.427.12.752.28.975.48.227.2.34.457.34.77 0 .23-.075.448-.225.655a1.57 1.57 0 0 1-.635.505c-.276.127-.61.19-1 .19Zm7.47-7.245.415.275c-.38.38-.699.782-.955 1.205a5.526 5.526 0 0 0-.575 1.305c-.127.443-.19.888-.19 1.335 0 .67.145 1.337.435 2 .29.66.718 1.273 1.285 1.84l-.415.295a6.237 6.237 0 0 1-1.425-1.945c-.334-.72-.5-1.45-.5-2.19 0-.747.166-1.477.5-2.19a6.133 6.133 0 0 1 1.425-1.93Zm4.239.86h.525v4.215h1.07v.485h-1.07v1.575h-.57v-1.575h-3.23v-.455l3.275-4.245Zm-.03.97-2.55 3.275h2.55v-3.275Zm3.011 5.305 4.145-6.175h.62l-4.15 6.175h-.615Zm4.06.095c-.21 0-.409-.053-.595-.16a1.205 1.205 0 0 1-.455-.47c-.117-.21-.175-.467-.175-.77 0-.3.058-.552.175-.755.116-.207.268-.363.455-.47a1.232 1.232 0 0 1 1.21 0c.19.107.341.263.455.47.116.203.175.455.175.755 0 .303-.059.56-.175.77a1.172 1.172 0 0 1-.455.47c-.19.107-.395.16-.615.16Zm0-.43c.22 0 .398-.078.535-.235.14-.157.21-.402.21-.735 0-.323-.07-.565-.21-.725a.67.67 0 0 0-.535-.24.663.663 0 0 0-.53.24c-.137.16-.205.402-.205.725 0 .333.068.578.205.735a.668.668 0 0 0 .53.235Zm-3.36-3.165c-.21 0-.409-.053-.595-.16a1.218 1.218 0 0 1-.455-.465c-.117-.207-.175-.46-.175-.76s.058-.553.175-.76a1.16 1.16 0 0 1 .455-.47c.186-.107.385-.16.595-.16.216 0 .42.053.61.16.19.103.343.26.46.47.116.207.175.46.175.76s-.059.553-.175.76a1.216 1.216 0 0 1-1.07.625Zm0-.42a.665.665 0 0 0 .525-.235c.136-.16.205-.403.205-.73 0-.327-.069-.572-.205-.735a.649.649 0 0 0-.525-.25.657.657 0 0 0-.535.25c-.134.163-.2.408-.2.735s.066.57.2.73a.674.674 0 0 0 .535.235Zm5.91 5.04-.425-.295c.57-.567 1-1.18 1.29-1.84.294-.663.44-1.33.44-2a4.72 4.72 0 0 0-.195-1.335 5.426 5.426 0 0 0-.58-1.305 6.381 6.381 0 0 0-.955-1.205l.425-.275a6.163 6.163 0 0 1 1.42 1.93c.337.713.505 1.443.505 2.19 0 .493-.075.985-.225 1.475-.15.487-.37.957-.66 1.41-.286.45-.633.867-1.04 1.25Zm-154.367 18.99a2.56 2.56 0 0 1-1.33-.35c-.393-.233-.705-.585-.935-1.055-.23-.473-.345-1.065-.345-1.775 0-.72.115-1.317.345-1.79.23-.477.542-.832.935-1.065a2.56 2.56 0 0 1 1.33-.35c.49 0 .932.118 1.325.355.394.233.705.588.935 1.065.23.473.345 1.068.345 1.785 0 .717-.115 1.31-.345 1.78-.23.47-.541.822-.935 1.055-.393.23-.835.345-1.325.345Zm0-.545c.62 0 1.109-.222 1.465-.665.357-.447.535-1.107.535-1.98 0-.86-.178-1.52-.535-1.98-.356-.463-.845-.695-1.465-.695-.616 0-1.105.232-1.465.695-.36.463-.54 1.127-.54 1.99 0 .87.18 1.527.54 1.97.36.443.849.665 1.465.665Zm5.565.545a1.45 1.45 0 0 1-.66-.145c-.19-.097-.34-.24-.45-.43a1.422 1.422 0 0 1-.16-.705v-4.925h.565v4.915c0 .54.25.81.75.81.147 0 .287-.017.42-.05s.283-.08.45-.14l.08.425a3.199 3.199 0 0 1-.49.175c-.163.047-.332.07-.505.07Zm-2.085-4.435v-.42h2.985v.42h-2.985Zm7.797 4.325v-2.795c0-.503-.122-.888-.365-1.155-.24-.267-.572-.4-.995-.4-.31 0-.578.085-.805.255a1.61 1.61 0 0 0-.515.715 3.01 3.01 0 0 0-.175 1.075h-.255c0-.52.07-.97.21-1.35.143-.383.353-.678.63-.885.28-.21.627-.315 1.04-.315.367 0 .683.082.95.245.27.163.478.4.625.71.147.307.22.675.22 1.105v2.795h-.565Zm-3.435 0v-6.8h.58v6.8h-.58Zm7.522.11c-.413 0-.778-.105-1.095-.315a2.194 2.194 0 0 1-.74-.875 2.898 2.898 0 0 1-.27-1.275c0-.52.089-.967.265-1.34.18-.373.427-.66.74-.86.317-.2.684-.3 1.1-.3.35 0 .647.072.89.215.247.14.445.332.595.575.15.243.255.518.315.825.064.307.089.623.075.95h-3.505v-.4h3.15l-.23.15a2.96 2.96 0 0 0-.04-.645 1.82 1.82 0 0 0-.195-.595 1.125 1.125 0 0 0-.395-.435c-.17-.11-.388-.165-.655-.165-.34 0-.623.088-.85.265-.226.173-.396.4-.51.68-.11.277-.165.573-.165.89v.245c0 .363.055.69.165.98.114.29.282.52.505.69.227.17.51.255.85.255.35 0 .635-.085.855-.255.224-.173.357-.427.4-.76h.62c-.05.317-.161.587-.335.81-.17.223-.386.395-.65.515-.263.117-.56.175-.89.175Zm3.464-.11v-4.75h.58v4.75h-.58Zm.365-2.175c0-.593.052-1.087.155-1.48.104-.393.264-.688.48-.885.217-.197.494-.295.83-.295a1.666 1.666 0 0 1 .62.105l-.065.565a1.923 1.923 0 0 0-.32-.09 1.367 1.367 0 0 0-.305-.04c-.296 0-.531.09-.705.27-.17.18-.291.43-.365.75-.073.317-.11.683-.11 1.1h-.215Zm6.992-4.96.415.275c-.38.38-.698.782-.955 1.205a5.567 5.567 0 0 0-.575 1.305 4.86 4.86 0 0 0-.19 1.335c0 .67.145 1.337.435 2 .29.66.719 1.273 1.285 1.84l-.415.295a6.268 6.268 0 0 1-1.425-1.945c-.333-.72-.5-1.45-.5-2.19 0-.747.167-1.477.5-2.19a6.164 6.164 0 0 1 1.425-1.93Zm1.35 7.135 3.03-5.635h-3.455v-.54h4.14v.515l-2.95 5.66h-.765Zm5.021 0 4.145-6.175h.62l-4.15 6.175h-.615Zm4.06.095c-.21 0-.408-.053-.595-.16a1.212 1.212 0 0 1-.455-.47c-.117-.21-.175-.467-.175-.77 0-.3.058-.552.175-.755.117-.207.268-.363.455-.47a1.232 1.232 0 0 1 1.21 0c.19.107.342.263.455.47.117.203.175.455.175.755 0 .303-.058.56-.175.77a1.165 1.165 0 0 1-.455.47c-.19.107-.395.16-.615.16Zm0-.43c.22 0 .398-.078.535-.235.14-.157.21-.402.21-.735 0-.323-.07-.565-.21-.725a.67.67 0 0 0-.535-.24.665.665 0 0 0-.53.24c-.137.16-.205.402-.205.725 0 .333.068.578.205.735a.67.67 0 0 0 .53.235Zm-3.36-3.165c-.21 0-.408-.053-.595-.16a1.225 1.225 0 0 1-.455-.465c-.117-.207-.175-.46-.175-.76s.058-.553.175-.76c.117-.21.268-.367.455-.47a1.222 1.222 0 0 1 1.205 0c.19.103.343.26.46.47.117.207.175.46.175.76s-.058.553-.175.76a1.216 1.216 0 0 1-1.07.625Zm0-.42a.665.665 0 0 0 .525-.235c.137-.16.205-.403.205-.73 0-.327-.068-.572-.205-.735a.649.649 0 0 0-.525-.25.658.658 0 0 0-.535.25c-.133.163-.2.408-.2.735s.067.57.2.73a.676.676 0 0 0 .535.235Zm5.91 5.04-.425-.295c.57-.567 1-1.18 1.29-1.84.294-.663.44-1.33.44-2a4.72 4.72 0 0 0-.195-1.335 5.426 5.426 0 0 0-.58-1.305 6.381 6.381 0 0 0-.955-1.205l.425-.275a6.163 6.163 0 0 1 1.42 1.93c.337.713.505 1.443.505 2.19 0 .493-.075.985-.225 1.475-.15.487-.37.957-.66 1.41-.286.45-.633.867-1.04 1.25ZM3.5 218a2.501 2.501 0 1 0 5.001 0 2.501 2.501 0 0 0-5.002 0Zm2.5 0h-.469v90.498h.938V218H6Zm7.502 98v.469H22v-.938h-8.498V316ZM6 308.498h-.469a7.971 7.971 0 0 0 7.971 7.971v-.938a7.033 7.033 0 0 1-7.033-7.033H6ZM26.5 218a2.501 2.501 0 1 0 5.001 0 2.501 2.501 0 0 0-5.002 0Zm2.5 0h-.469v70.498h.938V218H29Zm7.502 78v.469H46v-.938h-9.498V296ZM29 288.498h-.469a7.971 7.971 0 0 0 7.971 7.971v-.938a7.033 7.033 0 0 1-7.033-7.033H29ZM48.5 218a2.501 2.501 0 1 0 5.001 0 2.501 2.501 0 0 0-5.002 0Zm2.5 0h-.469v50.498h.938V218H51Zm7.502 58v.469H67v-.938h-8.498V276ZM51 268.498h-.469a7.971 7.971 0 0 0 7.971 7.971v-.938a7.033 7.033 0 0 1-7.033-7.033H51ZM68.5 218a2.501 2.501 0 1 0 5.001 0 2.501 2.501 0 0 0-5.002 0Zm2.5 0h-.469v30.498h.938V218H71Zm7.502 38v.469H89v-.938H78.502V256ZM71 248.498h-.469a7.971 7.971 0 0 0 7.971 7.971v-.938a7.033 7.033 0 0 1-7.033-7.033H71ZM88.5 218a2.501 2.501 0 1 0 5.001 0 2.501 2.501 0 0 0-5.002 0Zm2.5 0h-.469v10.498h.938V218H91Zm7.502 18v.469H108v-.938h-9.498V236ZM91 228.498h-.469a7.971 7.971 0 0 0 7.971 7.971v-.938a7.033 7.033 0 0 1-7.033-7.033H91Z"/><defs><linearGradient id="a" x1="0" x2="422" y1="211" y2="211" gradientUnits="userSpaceOnUse"><stop stop-color="#004382"/><stop offset="1" stop-color="#79B8F4"/></linearGradient><linearGradient id="b" x1="23.445" x2="398.556" y1="210.999" y2="210.999" gradientUnits="userSpaceOnUse"><stop stop-color="#004382"/><stop offset="1" stop-color="#79B8F4"/></linearGradient><linearGradient id="c" x1="45.693" x2="373.915" y1="211" y2="211" gradientUnits="userSpaceOnUse"><stop stop-color="#004382"/><stop offset="1" stop-color="#79B8F4"/></linearGradient><linearGradient id="d" x1="66.804" x2="348.137" y1="210.999" y2="210.999" gradientUnits="userSpaceOnUse"><stop stop-color="#004382"/><stop offset="1" stop-color="#79B8F4"/></linearGradient><linearGradient id="e" x1="86.732" x2="321.176" y1="211" y2="211" gradientUnits="userSpaceOnUse"><stop stop-color="#004382"/><stop offset="1" stop-color="#79B8F4"/></linearGradient></defs></svg>