<svg xmlns="http://www.w3.org/2000/svg" width="1212" height="837" fill="none"><rect width="150" height="150" y="36" fill="#2E48B8" rx="6"/><path fill="#fff" d="m24.62 120 6.147-18.004h3.738L40.44 120h-3.15l-1.33-4.088h-6.818L27.799 120H24.62Zm5.293-6.356h5.334l-2.66-8.064-2.674 8.064Zm22.913-7.224h2.982V120h-2.982v-13.58Zm-9.38 0h2.996v8.344c0 .952.233 1.671.7 2.156.466.476 1.12.714 1.96.714.7 0 1.33-.182 1.89-.546.57-.373 1.017-.91 1.344-1.61.326-.7.49-1.549.49-2.548h.868c0 1.615-.215 2.968-.644 4.06-.43 1.083-1.027 1.899-1.792 2.45-.766.541-1.657.812-2.674.812-.97 0-1.848-.177-2.632-.532a4.059 4.059 0 0 1-1.834-1.666c-.448-.765-.672-1.764-.672-2.996v-8.638Zm22.738 13.958a5.946 5.946 0 0 1-3.136-.882c-.961-.588-1.74-1.419-2.338-2.492-.588-1.073-.882-2.333-.882-3.78 0-1.531.294-2.823.882-3.878.598-1.064 1.377-1.871 2.338-2.422a6.248 6.248 0 0 1 3.136-.826c.85 0 1.601.135 2.254.406a5.205 5.205 0 0 1 1.694 1.092 5.38 5.38 0 0 1 1.106 1.54c.28.56.467 1.134.56 1.722l-3.038.112c-.168-.644-.476-1.167-.924-1.568-.438-.411-.998-.616-1.68-.616-.569 0-1.106.159-1.61.476-.494.308-.9.789-1.218 1.442-.308.653-.462 1.493-.462 2.52 0 .961.145 1.773.434 2.436.29.653.682 1.153 1.176 1.498a2.963 2.963 0 0 0 1.68.504c.887 0 1.54-.215 1.96-.644.43-.439.644-1.027.644-1.764h3.038c0 .952-.219 1.815-.658 2.59-.438.775-1.078 1.391-1.918 1.848-.83.457-1.843.686-3.038.686Zm14.137 0c-.784 0-1.498-.145-2.142-.434a3.606 3.606 0 0 1-1.526-1.344c-.382-.607-.574-1.367-.574-2.282v-13.482h2.982v13.384c0 1.185.565 1.778 1.694 1.778.346 0 .686-.037 1.022-.112a8.434 8.434 0 0 0 1.134-.35l.434 2.114a14.35 14.35 0 0 1-1.498.518c-.485.14-.994.21-1.526.21Zm-6.216-11.9v-2.002h8.806v2.002h-8.806Zm14.41-4.676c-.588 0-1.05-.159-1.386-.476-.336-.327-.504-.765-.504-1.316 0-.541.168-.971.504-1.288.337-.317.798-.476 1.386-.476.58 0 1.037.159 1.373.476.335.317.503.747.503 1.288 0 .551-.168.989-.504 1.316-.335.317-.793.476-1.371.476ZM87.017 120v-13.58h2.996V120h-2.996Zm13.898.378c-1.223 0-2.329-.266-3.318-.798-.98-.532-1.76-1.325-2.338-2.38-.579-1.055-.868-2.371-.868-3.948 0-1.605.29-2.935.868-3.99.579-1.055 1.358-1.843 2.338-2.366.99-.532 2.095-.798 3.318-.798 1.223 0 2.319.266 3.29.798.98.523 1.755 1.311 2.324 2.366.579 1.055.868 2.385.868 3.99 0 1.577-.289 2.893-.868 3.948-.569 1.055-1.344 1.848-2.324 2.38-.971.532-2.067.798-3.29.798Zm-.084-2.618c.709 0 1.33-.173 1.862-.518.541-.345.961-.854 1.26-1.526.299-.672.448-1.493.448-2.464 0-1.484-.299-2.613-.896-3.388-.588-.784-1.419-1.176-2.492-1.176-.719 0-1.349.173-1.89.518-.532.345-.948.859-1.246 1.54-.299.681-.448 1.517-.448 2.506 0 1.456.299 2.571.896 3.346.597.775 1.432 1.162 2.506 1.162Zm19.951 2.24v-7.924c0-1.083-.261-1.899-.784-2.45-.513-.56-1.199-.84-2.058-.84-.7 0-1.316.191-1.848.574-.532.383-.947.952-1.246 1.708-.298.756-.448 1.685-.448 2.786h-1.022c0-1.708.215-3.136.644-4.284.439-1.148 1.055-2.011 1.848-2.59.803-.588 1.75-.882 2.842-.882 1.102 0 2.026.247 2.772.742.756.495 1.326 1.19 1.708 2.086.392.896.588 1.946.588 3.15V120h-2.996Zm-9.38 0v-13.524h2.618l.378 2.8V120h-2.996Z"/><rect width="150" height="150" y="669" fill="#1C7373" rx="6"/><path fill="#fff" d="M30.978 753.378c-1.568 0-2.958-.35-4.172-1.05-1.213-.7-2.165-1.745-2.856-3.136-.69-1.391-1.036-3.122-1.036-5.194 0-2.109.346-3.855 1.036-5.236.691-1.381 1.643-2.413 2.856-3.094 1.214-.681 2.604-1.022 4.172-1.022 1.578 0 2.973.35 4.186 1.05 1.223.691 2.175 1.731 2.856 3.122.691 1.381 1.036 3.108 1.036 5.18 0 2.091-.345 3.836-1.036 5.236-.681 1.391-1.633 2.431-2.856 3.122-1.213.681-2.608 1.022-4.186 1.022Zm0-2.73c1.531 0 2.744-.569 3.64-1.708.896-1.148 1.344-2.805 1.344-4.97 0-2.109-.448-3.743-1.344-4.9-.896-1.157-2.109-1.736-3.64-1.736-1.502 0-2.706.583-3.612 1.75-.896 1.157-1.344 2.795-1.344 4.914 0 2.156.448 3.803 1.344 4.942.906 1.139 2.11 1.708 3.612 1.708ZM43.84 753v-15.288c0-.961.187-1.741.56-2.338a3.34 3.34 0 0 1 1.484-1.33 4.687 4.687 0 0 1 2.016-.434c.43 0 .873.033 1.33.098.467.056.92.135 1.358.238l-.574 2.324a4.543 4.543 0 0 0-.77-.21 3.414 3.414 0 0 0-.742-.084c-.27 0-.532.051-.784.154a1.286 1.286 0 0 0-.616.546c-.158.252-.238.611-.238 1.078V753H43.84Zm-2.058-11.522v-2.002h7.644v2.002h-7.644ZM53.93 753v-15.288c0-.961.187-1.741.56-2.338a3.34 3.34 0 0 1 1.484-1.33 4.687 4.687 0 0 1 2.016-.434c.43 0 .873.033 1.33.098.467.056.92.135 1.358.238l-.574 2.324a4.543 4.543 0 0 0-.77-.21 3.414 3.414 0 0 0-.742-.084c-.27 0-.532.051-.784.154a1.286 1.286 0 0 0-.616.546c-.159.252-.238.611-.238 1.078V753H53.93Zm-2.058-11.522v-2.002h7.644v2.002h-7.644Zm16.334 11.9a5.836 5.836 0 0 1-3.164-.896c-.943-.597-1.699-1.433-2.268-2.506-.56-1.073-.84-2.319-.84-3.738 0-1.493.28-2.772.84-3.836.56-1.064 1.311-1.881 2.254-2.45.952-.569 2.011-.854 3.178-.854 1.073 0 1.992.215 2.758.644a5.151 5.151 0 0 1 1.848 1.736c.476.728.798 1.554.966 2.478.168.915.186 1.862.056 2.842h-9.506v-1.666h7.42l-.644.42a6.662 6.662 0 0 0-.07-1.428 3.965 3.965 0 0 0-.434-1.302 2.446 2.446 0 0 0-.882-.966c-.383-.243-.868-.364-1.456-.364-.728 0-1.344.182-1.848.546-.495.364-.868.854-1.12 1.47-.252.616-.378 1.302-.378 2.058v1.204c0 .812.121 1.531.364 2.156.242.625.606 1.12 1.092 1.484.485.364 1.097.546 1.834.546.71 0 1.297-.163 1.764-.49.476-.336.775-.835.896-1.498h3.038a4.99 4.99 0 0 1-.98 2.31 5.246 5.246 0 0 1-1.974 1.554c-.803.364-1.718.546-2.744.546ZM77.96 753v-13.58h2.996V753H77.96Zm2.226-5.992c0-1.755.191-3.206.574-4.354.382-1.157.905-2.016 1.568-2.576.662-.569 1.418-.854 2.268-.854.252 0 .48.019.686.056.214.028.43.075.644.14l-.084 2.982a6.608 6.608 0 0 0-.812-.154 4.677 4.677 0 0 0-.77-.07c-.738 0-1.354.191-1.848.574-.486.373-.85.919-1.092 1.638-.243.719-.364 1.591-.364 2.618h-.77Zm10.27-10.206c-.588 0-1.05-.159-1.386-.476-.336-.327-.504-.765-.504-1.316 0-.541.168-.971.504-1.288.336-.317.798-.476 1.386-.476.579 0 1.036.159 1.372.476.336.317.504.747.504 1.288 0 .551-.168.989-.504 1.316-.336.317-.793.476-1.372.476ZM88.959 753v-13.58h2.996V753h-2.996Zm18.069 0v-7.924c0-1.083-.261-1.899-.784-2.45-.513-.56-1.199-.84-2.058-.84-.7 0-1.316.191-1.848.574-.532.383-.947.952-1.246 1.708-.298.756-.448 1.685-.448 2.786h-1.022c0-1.708.215-3.136.644-4.284.439-1.148 1.055-2.011 1.848-2.59.803-.588 1.75-.882 2.842-.882 1.102 0 2.026.247 2.772.742.756.495 1.326 1.19 1.708 2.086.392.896.588 1.946.588 3.15V753h-2.996Zm-9.38 0v-13.524h2.618l.378 2.8V753h-2.996Zm22.378 6.986c-1.503 0-2.796-.21-3.878-.63-1.074-.411-1.9-.961-2.478-1.652-.579-.681-.868-1.423-.868-2.226 0-.98.354-1.736 1.064-2.268.718-.532 1.628-.798 2.73-.798l2.086.854c-.943 0-1.671.182-2.184.546-.504.373-.756.882-.756 1.526 0 .672.373 1.213 1.12 1.624.756.42 1.81.63 3.164.63.998 0 1.862-.145 2.59-.434.737-.289 1.306-.672 1.708-1.148.401-.467.602-.961.602-1.484 0-.355-.126-.653-.378-.896-.243-.243-.621-.364-1.134-.364h-4.732c-.915 0-1.736-.145-2.464-.434-.719-.289-1.288-.677-1.708-1.162-.42-.485-.63-1.022-.63-1.61 0-.569.158-1.055.476-1.456.317-.411.742-.723 1.274-.938a4.64 4.64 0 0 1 1.792-.336l.728 1.008c-.28 0-.551.056-.812.168-.252.112-.462.28-.63.504-.168.215-.252.485-.252.812 0 .383.163.7.49.952.336.252.914.378 1.736.378h4.732c1.4 0 2.496.266 3.29.798.802.523 1.204 1.316 1.204 2.38 0 .952-.322 1.857-.966 2.716-.635.868-1.54 1.573-2.716 2.114-1.176.551-2.576.826-4.2.826Zm.238-11.102c-1.064 0-2.035-.201-2.912-.602-.868-.411-1.564-.98-2.086-1.708-.514-.737-.77-1.596-.77-2.576 0-.989.256-1.853.77-2.59.522-.737 1.218-1.307 2.086-1.708.877-.401 1.848-.602 2.912-.602 1.036 0 1.988.201 2.856.602a5.152 5.152 0 0 1 2.086 1.708c.522.737.784 1.601.784 2.59 0 .98-.262 1.839-.784 2.576-.523.728-1.218 1.297-2.086 1.708-.868.401-1.82.602-2.856.602Zm.014-2.1c.905 0 1.591-.266 2.058-.798.476-.532.714-1.195.714-1.988 0-.84-.238-1.517-.714-2.03-.467-.513-1.158-.77-2.072-.77-.887 0-1.573.257-2.058.77-.486.513-.728 1.19-.728 2.03 0 .793.242 1.456.728 1.988.485.532 1.176.798 2.072.798Zm4.69-5.516-1.386-.742c0-.812.177-1.517.532-2.114a3.817 3.817 0 0 1 1.47-1.414c.616-.336 1.306-.504 2.072-.504l-.168 2.884c-.822 0-1.447.154-1.876.462-.43.308-.644.784-.644 1.428Z"/><rect width="150" height="150" x="1062" y="6" fill="#D56E18" rx="6"/><path fill="#fff" d="M1089.16 90.378c-1.58 0-2.95-.383-4.12-1.148-1.17-.765-2.07-1.853-2.71-3.262-.64-1.41-.96-3.09-.96-5.04 0-2.025.34-3.724 1.01-5.096.67-1.381 1.6-2.422 2.77-3.122 1.18-.71 2.51-1.064 4.01-1.064 2.05 0 3.67.504 4.84 1.512 1.19.999 1.96 2.296 2.31 3.892l-3.2.602c-.31-.99-.81-1.787-1.49-2.394-.67-.607-1.49-.91-2.46-.91-.84 0-1.61.247-2.3.742-.69.485-1.24 1.218-1.65 2.198-.4.97-.6 2.184-.6 3.64 0 1.363.17 2.548.52 3.556.35.999.86 1.773 1.54 2.324.68.55 1.51.826 2.49.826 1.24 0 2.2-.331 2.9-.994.7-.663 1.05-1.512 1.05-2.548h3.22c0 1.325-.3 2.455-.89 3.388-.58.933-1.4 1.652-2.47 2.156-1.07.495-2.34.742-3.81.742Zm16.32 0c-1.22 0-2.33-.266-3.32-.798-.98-.532-1.76-1.325-2.34-2.38-.58-1.055-.86-2.37-.86-3.948 0-1.605.28-2.935.86-3.99.58-1.055 1.36-1.843 2.34-2.366.99-.532 2.1-.798 3.32-.798 1.22 0 2.32.266 3.29.798.98.523 1.75 1.311 2.32 2.366.58 1.055.87 2.385.87 3.99 0 1.577-.29 2.893-.87 3.948-.57 1.055-1.34 1.848-2.32 2.38-.97.532-2.07.798-3.29.798Zm-.08-2.618c.7 0 1.33-.173 1.86-.518.54-.345.96-.854 1.26-1.526.3-.672.45-1.493.45-2.464 0-1.484-.3-2.613-.9-3.388-.59-.784-1.42-1.176-2.49-1.176-.72 0-1.35.173-1.89.518-.53.345-.95.859-1.25 1.54-.3.681-.45 1.517-.45 2.506 0 1.456.3 2.571.9 3.346.6.775 1.43 1.162 2.51 1.162Zm19.95 2.24v-7.924c0-1.083-.26-1.9-.79-2.45-.51-.56-1.2-.84-2.06-.84-.7 0-1.31.191-1.84.574-.54.383-.95.952-1.25 1.708-.3.756-.45 1.685-.45 2.786h-1.02c0-1.708.22-3.136.64-4.284.44-1.148 1.06-2.011 1.85-2.59.81-.588 1.75-.882 2.84-.882 1.11 0 2.03.247 2.78.742s1.32 1.19 1.7 2.086c.4.896.59 1.946.59 3.15V90h-2.99Zm-9.38 0V76.476h2.61l.38 2.8V90h-2.99Zm21.74.378c-.78 0-1.49-.145-2.14-.434a3.598 3.598 0 0 1-1.52-1.344c-.39-.607-.58-1.367-.58-2.282V72.836h2.98V86.22c0 1.185.57 1.778 1.7 1.778.34 0 .68-.037 1.02-.112.34-.075.71-.191 1.13-.35l.44 2.114c-.51.205-1.01.378-1.5.518s-.99.21-1.53.21Zm-6.21-11.9v-2.002h8.8v2.002h-8.8ZM1144.16 90V76.42h2.99V90h-2.99Zm2.22-5.992c0-1.755.2-3.206.58-4.354.38-1.157.9-2.016 1.57-2.576.66-.57 1.41-.854 2.26-.854.26 0 .48.019.69.056.21.028.43.075.64.14l-.08 2.982a6.479 6.479 0 0 0-.81-.154c-.28-.047-.54-.07-.77-.07-.74 0-1.36.191-1.85.574-.49.373-.85.92-1.09 1.638-.24.719-.37 1.591-.37 2.618h-.77ZM1163.46 90l-.38-3.206v-5.53c0-1.027-.21-1.778-.63-2.254-.42-.476-1.11-.714-2.06-.714-.55 0-1.03.08-1.44.238-.41.159-.73.397-.97.714-.22.308-.33.69-.33 1.148h-3.29c0-1.017.24-1.839.73-2.464.49-.635 1.19-1.097 2.08-1.386.91-.299 1.98-.448 3.22-.448 1.13 0 2.12.187 2.97.56.86.364 1.53.933 2 1.708.48.775.72 1.773.72 2.996V90h-2.62Zm-4.48.378c-1.15 0-2.11-.2-2.87-.602-.76-.401-1.33-.929-1.71-1.582a4.133 4.133 0 0 1-.57-2.114c0-.868.22-1.591.67-2.17.46-.579 1.09-1.008 1.9-1.288.82-.29 1.78-.434 2.87-.434.73 0 1.43.06 2.09.182.67.112 1.34.27 2 .476v1.778a10.27 10.27 0 0 0-1.75-.434c-.63-.103-1.21-.154-1.76-.154-.82 0-1.49.159-2.03.476-.54.308-.8.83-.8 1.568 0 .55.21 1.022.64 1.414.43.392 1.11.588 2.05.588.69 0 1.28-.154 1.79-.462.5-.317.89-.71 1.16-1.176.28-.467.42-.929.42-1.386h.71c0 .952-.18 1.834-.56 2.646a4.6 4.6 0 0 1-1.62 1.946c-.71.485-1.59.728-2.63.728Zm17.07 0c-1.12 0-2.17-.294-3.14-.882-.96-.588-1.74-1.419-2.33-2.492-.59-1.073-.89-2.333-.89-3.78 0-1.53.3-2.823.89-3.878.59-1.064 1.37-1.871 2.33-2.422.97-.55 2.02-.826 3.14-.826.85 0 1.6.135 2.25.406.67.27 1.23.635 1.7 1.092.46.457.83.97 1.1 1.54.28.56.47 1.134.56 1.722l-3.03.112c-.17-.644-.48-1.167-.93-1.568-.44-.41-1-.616-1.68-.616-.57 0-1.1.159-1.61.476-.49.308-.9.789-1.22 1.442-.3.653-.46 1.493-.46 2.52 0 .961.15 1.773.44 2.436.28.653.68 1.153 1.17 1.498a2.99 2.99 0 0 0 1.68.504c.89 0 1.54-.215 1.96-.644.43-.439.65-1.027.65-1.764h3.03a5.25 5.25 0 0 1-.65 2.59c-.44.775-1.08 1.39-1.92 1.848-.83.457-1.85.686-3.04.686Zm14.14 0c-.79 0-1.5-.145-2.15-.434a3.598 3.598 0 0 1-1.52-1.344c-.38-.607-.58-1.367-.58-2.282V72.836h2.99V86.22c0 1.185.56 1.778 1.69 1.778.35 0 .69-.037 1.02-.112a8.32 8.32 0 0 0 1.14-.35l.43 2.114c-.5.205-1 .378-1.5.518-.48.14-.99.21-1.52.21Zm-6.22-11.9v-2.002h8.81v2.002h-8.81Z"/><rect width="372" height="200" x="231" y="219" stroke="#64BAF0" stroke-width="4" rx="12"/><rect width="148" height="148" x="257" y="245" stroke="#A83032" stroke-width="4" rx="6"/><path fill="#FF595C" d="M309.263 328.378c-1.241 0-2.38-.215-3.416-.644a5.933 5.933 0 0 1-2.52-1.974c-.644-.887-.985-1.997-1.022-3.332h2.94c0 .737.182 1.344.546 1.82a3.31 3.31 0 0 0 1.442 1.05 5.741 5.741 0 0 0 2.002.336c.719 0 1.353-.103 1.904-.308.56-.205.994-.49 1.302-.854.317-.364.476-.784.476-1.26 0-.644-.196-1.153-.588-1.526-.392-.383-1.008-.719-1.848-1.008l-3.444-1.33c-1.419-.541-2.501-1.167-3.248-1.876-.747-.719-1.12-1.708-1.12-2.968 0-1.437.565-2.604 1.694-3.5 1.139-.905 2.73-1.358 4.774-1.358 1.969 0 3.495.457 4.578 1.372 1.083.915 1.699 2.175 1.848 3.78h-2.94c-.131-.747-.476-1.339-1.036-1.778-.551-.439-1.367-.658-2.45-.658-.999 0-1.783.21-2.352.63-.56.42-.84.952-.84 1.596 0 .541.177.971.532 1.288.364.317.924.616 1.68.896l3.878 1.456c1.325.495 2.347 1.139 3.066 1.932.728.784 1.092 1.773 1.092 2.968 0 1.045-.271 1.965-.812 2.758-.532.784-1.316 1.395-2.352 1.834-1.027.439-2.282.658-3.766.658Zm18.071 0c-.989 0-1.838-.215-2.548-.644-.709-.439-1.25-1.092-1.624-1.96-.373-.868-.56-1.951-.56-3.248h1.12c0 .663.15 1.227.448 1.694.299.467.691.826 1.176 1.078a3.513 3.513 0 0 0 1.568.364c.588 0 1.162-.163 1.722-.49.56-.327 1.022-.817 1.386-1.47.364-.663.546-1.489.546-2.478 0-.924-.158-1.717-.476-2.38-.317-.663-.746-1.171-1.288-1.526a3.268 3.268 0 0 0-1.834-.532 3.3 3.3 0 0 0-1.61.406 2.972 2.972 0 0 0-1.19 1.162c-.298.504-.448 1.125-.448 1.862h-1.12c0-1.391.22-2.539.658-3.444.439-.905 1.027-1.577 1.764-2.016a4.65 4.65 0 0 1 2.422-.658 5.68 5.68 0 0 1 3.01.854c.934.56 1.69 1.372 2.268 2.436.579 1.064.868 2.343.868 3.836 0 1.503-.294 2.786-.882 3.85-.578 1.064-1.348 1.881-2.31 2.45a5.875 5.875 0 0 1-3.066.854Zm-6.608 6.244v-20.146h2.478l.518 3.29v16.856h-2.996Zm22.08-6.244c-1.223 0-2.329-.266-3.318-.798-.98-.532-1.76-1.325-2.338-2.38-.579-1.055-.868-2.371-.868-3.948 0-1.605.289-2.935.868-3.99.578-1.055 1.358-1.843 2.338-2.366.989-.532 2.095-.798 3.318-.798 1.222 0 2.319.266 3.29.798.98.523 1.754 1.311 2.324 2.366.578 1.055.868 2.385.868 3.99 0 1.577-.29 2.893-.868 3.948-.57 1.055-1.344 1.848-2.324 2.38-.971.532-2.068.798-3.29.798Zm-.084-2.618c.709 0 1.33-.173 1.862-.518.541-.345.961-.854 1.26-1.526.298-.672.448-1.493.448-2.464 0-1.484-.299-2.613-.896-3.388-.588-.784-1.419-1.176-2.492-1.176-.719 0-1.349.173-1.89.518-.532.345-.948.859-1.246 1.54-.299.681-.448 1.517-.448 2.506 0 1.456.298 2.571.896 3.346.597.775 1.432 1.162 2.506 1.162Zm15.037 2.618c-.784 0-1.498-.145-2.142-.434a3.6 3.6 0 0 1-1.526-1.344c-.383-.607-.574-1.367-.574-2.282v-13.482h2.982v13.384c0 1.185.564 1.778 1.694 1.778.345 0 .686-.037 1.022-.112a8.434 8.434 0 0 0 1.134-.35l.434 2.114c-.504.205-1.004.378-1.498.518-.486.14-.994.21-1.526.21Zm-6.216-11.9v-2.002h8.806v2.002h-8.806Z"/><rect width="148" height="148" x="429" y="245" stroke="#2E48B8" stroke-width="4" rx="6"/><path fill="#5776FF" d="m452.621 328 6.146-18.004h3.738L468.441 328h-3.15l-1.33-4.088h-6.818L455.799 328h-3.178Zm5.292-6.356h5.334l-2.66-8.064-2.674 8.064Zm22.913-7.224h2.982V328h-2.982v-13.58Zm-9.38 0h2.996v8.344c0 .952.233 1.671.7 2.156.466.476 1.12.714 1.96.714.7 0 1.33-.182 1.89-.546.569-.373 1.017-.91 1.344-1.61.326-.7.49-1.549.49-2.548h.868c0 1.615-.215 2.968-.644 4.06-.43 1.083-1.027 1.899-1.792 2.45-.766.541-1.657.812-2.674.812-.971 0-1.848-.177-2.632-.532a4.057 4.057 0 0 1-1.834-1.666c-.448-.765-.672-1.764-.672-2.996v-8.638Zm22.738 13.958a5.947 5.947 0 0 1-3.136-.882c-.961-.588-1.74-1.419-2.338-2.492-.588-1.073-.882-2.333-.882-3.78 0-1.531.294-2.823.882-3.878.598-1.064 1.377-1.871 2.338-2.422a6.249 6.249 0 0 1 3.136-.826c.85 0 1.601.135 2.254.406a5.193 5.193 0 0 1 1.694 1.092 5.36 5.36 0 0 1 1.106 1.54c.28.56.467 1.134.56 1.722l-3.038.112c-.168-.644-.476-1.167-.924-1.568-.438-.411-.998-.616-1.68-.616-.569 0-1.106.159-1.61.476-.494.308-.9.789-1.218 1.442-.308.653-.462 1.493-.462 2.52 0 .961.145 1.773.434 2.436.29.653.682 1.153 1.176 1.498a2.963 2.963 0 0 0 1.68.504c.887 0 1.54-.215 1.96-.644.43-.439.644-1.027.644-1.764h3.038c0 .952-.219 1.815-.658 2.59-.438.775-1.078 1.391-1.918 1.848-.83.457-1.843.686-3.038.686Zm14.137 0c-.784 0-1.498-.145-2.142-.434a3.611 3.611 0 0 1-1.526-1.344c-.382-.607-.574-1.367-.574-2.282v-13.482h2.982v13.384c0 1.185.565 1.778 1.694 1.778.346 0 .686-.037 1.022-.112a8.434 8.434 0 0 0 1.134-.35l.434 2.114c-.504.205-1.003.378-1.498.518-.485.14-.994.21-1.526.21Zm-6.216-11.9v-2.002h8.806v2.002h-8.806Zm14.41-4.676c-.588 0-1.05-.159-1.386-.476-.336-.327-.504-.765-.504-1.316 0-.541.168-.971.504-1.288.336-.317.798-.476 1.386-.476.579 0 1.036.159 1.372.476.336.317.504.747.504 1.288 0 .551-.168.989-.504 1.316-.336.317-.793.476-1.372.476ZM515.017 328v-13.58h2.996V328h-2.996Zm13.898.378c-1.223 0-2.329-.266-3.318-.798-.98-.532-1.759-1.325-2.338-2.38-.579-1.055-.868-2.371-.868-3.948 0-1.605.289-2.935.868-3.99.579-1.055 1.358-1.843 2.338-2.366.989-.532 2.095-.798 3.318-.798 1.223 0 2.319.266 3.29.798.98.523 1.755 1.311 2.324 2.366.579 1.055.868 2.385.868 3.99 0 1.577-.289 2.893-.868 3.948-.569 1.055-1.344 1.848-2.324 2.38-.971.532-2.067.798-3.29.798Zm-.084-2.618c.709 0 1.33-.173 1.862-.518.541-.345.961-.854 1.26-1.526.299-.672.448-1.493.448-2.464 0-1.484-.299-2.613-.896-3.388-.588-.784-1.419-1.176-2.492-1.176-.719 0-1.349.173-1.89.518-.532.345-.947.859-1.246 1.54-.299.681-.448 1.517-.448 2.506 0 1.456.299 2.571.896 3.346.597.775 1.433 1.162 2.506 1.162Zm19.951 2.24v-7.924c0-1.083-.261-1.899-.784-2.45-.513-.56-1.199-.84-2.058-.84-.7 0-1.316.191-1.848.574-.532.383-.947.952-1.246 1.708-.298.756-.448 1.685-.448 2.786h-1.022c0-1.708.215-3.136.644-4.284.439-1.148 1.055-2.011 1.848-2.59.803-.588 1.75-.882 2.842-.882 1.102 0 2.026.247 2.772.742.756.495 1.326 1.19 1.708 2.086.392.896.588 1.946.588 3.15V328h-2.996Zm-9.38 0v-13.524h2.618l.378 2.8V328h-2.996Z"/><rect width="372" height="200" x="647" y="219" stroke="#64BAF0" stroke-width="4" rx="12"/><rect width="148" height="148" x="673" y="245" stroke="#D56E18" stroke-width="4" rx="6"/><path fill="#FF851F" d="M699.157 328.878c-1.577 0-2.949-.383-4.116-1.148-1.166-.765-2.072-1.853-2.716-3.262-.634-1.409-.952-3.089-.952-5.04 0-2.025.336-3.724 1.008-5.096.672-1.381 1.596-2.422 2.772-3.122 1.176-.709 2.511-1.064 4.004-1.064 2.054 0 3.668.504 4.844 1.512 1.186.999 1.956 2.296 2.31 3.892l-3.206.602c-.308-.989-.802-1.787-1.484-2.394-.672-.607-1.493-.91-2.464-.91-.84 0-1.605.247-2.296.742-.69.485-1.241 1.218-1.652 2.198-.401.971-.602 2.184-.602 3.64 0 1.363.173 2.548.518 3.556.355.999.868 1.773 1.54 2.324.682.551 1.512.826 2.492.826 1.242 0 2.208-.331 2.898-.994.7-.663 1.05-1.512 1.05-2.548h3.22c0 1.325-.294 2.455-.882 3.388-.578.933-1.404 1.652-2.478 2.156-1.064.495-2.333.742-3.808.742Zm16.322 0c-1.222 0-2.328-.266-3.318-.798-.98-.532-1.759-1.325-2.338-2.38-.578-1.055-.868-2.371-.868-3.948 0-1.605.29-2.935.868-3.99.579-1.055 1.358-1.843 2.338-2.366.99-.532 2.096-.798 3.318-.798 1.223 0 2.32.266 3.29.798.98.523 1.755 1.311 2.324 2.366.579 1.055.868 2.385.868 3.99 0 1.577-.289 2.893-.868 3.948-.569 1.055-1.344 1.848-2.324 2.38-.97.532-2.067.798-3.29.798Zm-.084-2.618c.71 0 1.33-.173 1.862-.518.542-.345.962-.854 1.26-1.526.299-.672.448-1.493.448-2.464 0-1.484-.298-2.613-.896-3.388-.588-.784-1.418-1.176-2.492-1.176-.718 0-1.348.173-1.89.518-.532.345-.947.859-1.246 1.54-.298.681-.448 1.517-.448 2.506 0 1.456.299 2.571.896 3.346.598.775 1.433 1.162 2.506 1.162Zm19.952 2.24v-7.924c0-1.083-.262-1.899-.784-2.45-.514-.56-1.2-.84-2.058-.84-.7 0-1.316.191-1.848.574-.532.383-.948.952-1.246 1.708-.299.756-.448 1.685-.448 2.786h-1.022c0-1.708.214-3.136.644-4.284.438-1.148 1.054-2.011 1.848-2.59.802-.588 1.75-.882 2.842-.882 1.101 0 2.025.247 2.772.742.756.495 1.325 1.19 1.708 2.086.392.896.588 1.946.588 3.15v7.924h-2.996Zm-9.38 0v-13.524h2.618l.378 2.8V328.5h-2.996Zm21.747.378c-.784 0-1.498-.145-2.142-.434a3.606 3.606 0 0 1-1.526-1.344c-.383-.607-.574-1.367-.574-2.282v-13.482h2.982v13.384c0 1.185.565 1.778 1.694 1.778.345 0 .686-.037 1.022-.112a8.434 8.434 0 0 0 1.134-.35l.434 2.114c-.504.205-1.003.378-1.498.518-.485.14-.994.21-1.526.21Zm-6.216-11.9v-2.002h8.806v2.002h-8.806Zm12.66 11.522v-13.58h2.996v13.58h-2.996Zm2.226-5.992c0-1.755.191-3.206.574-4.354.383-1.157.905-2.016 1.568-2.576.663-.569 1.419-.854 2.268-.854.252 0 .481.019.686.056.215.028.429.075.644.14l-.084 2.982a6.62 6.62 0 0 0-.812-.154 4.68 4.68 0 0 0-.77-.07c-.737 0-1.353.191-1.848.574-.485.373-.849.919-1.092 1.638-.243.719-.364 1.591-.364 2.618h-.77Zm17.074 5.992-.378-3.206v-5.53c0-1.027-.21-1.778-.63-2.254-.42-.476-1.106-.714-2.058-.714-.551 0-1.031.079-1.442.238a2.107 2.107 0 0 0-.966.714c-.224.308-.336.691-.336 1.148h-3.29c0-1.017.243-1.839.728-2.464.495-.635 1.19-1.097 2.086-1.386.905-.299 1.979-.448 3.22-.448 1.129 0 2.119.187 2.968.56a4.218 4.218 0 0 1 2.002 1.708c.476.775.714 1.773.714 2.996v8.638h-2.618Zm-4.48.378c-1.148 0-2.105-.201-2.87-.602-.756-.401-1.325-.929-1.708-1.582a4.107 4.107 0 0 1-.574-2.114c0-.868.224-1.591.672-2.17.457-.579 1.092-1.008 1.904-1.288.821-.289 1.778-.434 2.87-.434a11.6 11.6 0 0 1 2.086.182c.672.112 1.339.271 2.002.476v1.778a10.2 10.2 0 0 0-1.75-.434 10.872 10.872 0 0 0-1.764-.154c-.812 0-1.489.159-2.03.476-.532.308-.798.831-.798 1.568 0 .551.215 1.022.644 1.414.429.392 1.111.588 2.044.588.691 0 1.288-.154 1.792-.462a3.408 3.408 0 0 0 1.162-1.176c.28-.467.42-.929.42-1.386h.714c0 .952-.187 1.834-.56 2.646a4.645 4.645 0 0 1-1.624 1.946c-.709.485-1.587.728-2.632.728Zm17.072 0a5.945 5.945 0 0 1-3.136-.882c-.962-.588-1.741-1.419-2.338-2.492-.588-1.073-.882-2.333-.882-3.78 0-1.531.294-2.823.882-3.878.597-1.064 1.376-1.871 2.338-2.422a6.246 6.246 0 0 1 3.136-.826c.849 0 1.6.135 2.254.406a5.215 5.215 0 0 1 1.694 1.092c.466.457.835.971 1.106 1.54.28.56.466 1.134.56 1.722l-3.038.112c-.168-.644-.476-1.167-.924-1.568-.439-.411-.999-.616-1.68-.616-.57 0-1.106.159-1.61.476-.495.308-.901.789-1.218 1.442-.308.653-.462 1.493-.462 2.52 0 .961.144 1.773.434 2.436.289.653.681 1.153 1.176 1.498a2.963 2.963 0 0 0 1.68.504c.886 0 1.54-.215 1.96-.644.429-.439.644-1.027.644-1.764h3.038c0 .952-.22 1.815-.658 2.59-.439.775-1.078 1.391-1.918 1.848-.831.457-1.844.686-3.038.686Zm14.137 0c-.784 0-1.498-.145-2.142-.434a3.6 3.6 0 0 1-1.526-1.344c-.383-.607-.574-1.367-.574-2.282v-13.482h2.982v13.384c0 1.185.564 1.778 1.694 1.778.345 0 .686-.037 1.022-.112a8.434 8.434 0 0 0 1.134-.35l.434 2.114c-.504.205-1.004.378-1.498.518-.486.14-.994.21-1.526.21Zm-6.216-11.9v-2.002h8.806v2.002h-8.806Z"/><rect width="148" height="148" x="845" y="245" stroke="#2E48B8" stroke-width="4" rx="6"/><path fill="#5776FF" d="m868.621 328 6.146-18.004h3.738L884.441 328h-3.15l-1.33-4.088h-6.818L871.799 328h-3.178Zm5.292-6.356h5.334l-2.66-8.064-2.674 8.064Zm22.913-7.224h2.982V328h-2.982v-13.58Zm-9.38 0h2.996v8.344c0 .952.233 1.671.7 2.156.466.476 1.12.714 1.96.714.7 0 1.33-.182 1.89-.546.569-.373 1.017-.91 1.344-1.61.326-.7.49-1.549.49-2.548h.868c0 1.615-.215 2.968-.644 4.06-.43 1.083-1.027 1.899-1.792 2.45-.766.541-1.657.812-2.674.812-.971 0-1.848-.177-2.632-.532a4.057 4.057 0 0 1-1.834-1.666c-.448-.765-.672-1.764-.672-2.996v-8.638Zm22.738 13.958a5.947 5.947 0 0 1-3.136-.882c-.961-.588-1.74-1.419-2.338-2.492-.588-1.073-.882-2.333-.882-3.78 0-1.531.294-2.823.882-3.878.598-1.064 1.377-1.871 2.338-2.422a6.249 6.249 0 0 1 3.136-.826c.85 0 1.601.135 2.254.406a5.193 5.193 0 0 1 1.694 1.092 5.36 5.36 0 0 1 1.106 1.54c.28.56.467 1.134.56 1.722l-3.038.112c-.168-.644-.476-1.167-.924-1.568-.438-.411-.998-.616-1.68-.616-.569 0-1.106.159-1.61.476-.494.308-.9.789-1.218 1.442-.308.653-.462 1.493-.462 2.52 0 .961.145 1.773.434 2.436.29.653.682 1.153 1.176 1.498a2.963 2.963 0 0 0 1.68.504c.887 0 1.54-.215 1.96-.644.43-.439.644-1.027.644-1.764h3.038c0 .952-.219 1.815-.658 2.59-.438.775-1.078 1.391-1.918 1.848-.83.457-1.843.686-3.038.686Zm14.137 0c-.784 0-1.498-.145-2.142-.434a3.611 3.611 0 0 1-1.526-1.344c-.382-.607-.574-1.367-.574-2.282v-13.482h2.982v13.384c0 1.185.565 1.778 1.694 1.778.346 0 .686-.037 1.022-.112a8.434 8.434 0 0 0 1.134-.35l.434 2.114c-.504.205-1.003.378-1.498.518-.485.14-.994.21-1.526.21Zm-6.216-11.9v-2.002h8.806v2.002h-8.806Zm14.41-4.676c-.588 0-1.05-.159-1.386-.476-.336-.327-.504-.765-.504-1.316 0-.541.168-.971.504-1.288.336-.317.798-.476 1.386-.476.579 0 1.036.159 1.372.476.336.317.504.747.504 1.288 0 .551-.168.989-.504 1.316-.336.317-.793.476-1.372.476ZM931.017 328v-13.58h2.996V328h-2.996Zm13.898.378c-1.223 0-2.329-.266-3.318-.798-.98-.532-1.759-1.325-2.338-2.38-.579-1.055-.868-2.371-.868-3.948 0-1.605.289-2.935.868-3.99.579-1.055 1.358-1.843 2.338-2.366.989-.532 2.095-.798 3.318-.798 1.223 0 2.319.266 3.29.798.98.523 1.755 1.311 2.324 2.366.579 1.055.868 2.385.868 3.99 0 1.577-.289 2.893-.868 3.948-.569 1.055-1.344 1.848-2.324 2.38-.971.532-2.067.798-3.29.798Zm-.084-2.618c.709 0 1.33-.173 1.862-.518.541-.345.961-.854 1.26-1.526.299-.672.448-1.493.448-2.464 0-1.484-.299-2.613-.896-3.388-.588-.784-1.419-1.176-2.492-1.176-.719 0-1.349.173-1.89.518-.532.345-.947.859-1.246 1.54-.299.681-.448 1.517-.448 2.506 0 1.456.299 2.571.896 3.346.597.775 1.433 1.162 2.506 1.162Zm19.951 2.24v-7.924c0-1.083-.261-1.899-.784-2.45-.513-.56-1.199-.84-2.058-.84-.7 0-1.316.191-1.848.574-.532.383-.947.952-1.246 1.708-.298.756-.448 1.685-.448 2.786h-1.022c0-1.708.215-3.136.644-4.284.439-1.148 1.055-2.011 1.848-2.59.803-.588 1.75-.882 2.842-.882 1.102 0 2.026.247 2.772.742.756.495 1.326 1.19 1.708 2.086.392.896.588 1.946.588 3.15V328h-2.996Zm-9.38 0v-13.524h2.618l.378 2.8V328h-2.996Z"/><rect width="372" height="200" x="231" y="463" stroke="#64BAF0" stroke-width="4" rx="12"/><rect width="148" height="148" x="257" y="489" stroke="#A83032" stroke-width="4" rx="6"/><path fill="#FF595C" d="M309.263 572.378c-1.241 0-2.38-.215-3.416-.644a5.933 5.933 0 0 1-2.52-1.974c-.644-.887-.985-1.997-1.022-3.332h2.94c0 .737.182 1.344.546 1.82a3.31 3.31 0 0 0 1.442 1.05 5.741 5.741 0 0 0 2.002.336c.719 0 1.353-.103 1.904-.308.56-.205.994-.49 1.302-.854.317-.364.476-.784.476-1.26 0-.644-.196-1.153-.588-1.526-.392-.383-1.008-.719-1.848-1.008l-3.444-1.33c-1.419-.541-2.501-1.167-3.248-1.876-.747-.719-1.12-1.708-1.12-2.968 0-1.437.565-2.604 1.694-3.5 1.139-.905 2.73-1.358 4.774-1.358 1.969 0 3.495.457 4.578 1.372 1.083.915 1.699 2.175 1.848 3.78h-2.94c-.131-.747-.476-1.339-1.036-1.778-.551-.439-1.367-.658-2.45-.658-.999 0-1.783.21-2.352.63-.56.42-.84.952-.84 1.596 0 .541.177.971.532 1.288.364.317.924.616 1.68.896l3.878 1.456c1.325.495 2.347 1.139 3.066 1.932.728.784 1.092 1.773 1.092 2.968 0 1.045-.271 1.965-.812 2.758-.532.784-1.316 1.395-2.352 1.834-1.027.439-2.282.658-3.766.658Zm18.071 0c-.989 0-1.838-.215-2.548-.644-.709-.439-1.25-1.092-1.624-1.96-.373-.868-.56-1.951-.56-3.248h1.12c0 .663.15 1.227.448 1.694.299.467.691.826 1.176 1.078a3.513 3.513 0 0 0 1.568.364c.588 0 1.162-.163 1.722-.49.56-.327 1.022-.817 1.386-1.47.364-.663.546-1.489.546-2.478 0-.924-.158-1.717-.476-2.38-.317-.663-.746-1.171-1.288-1.526a3.268 3.268 0 0 0-1.834-.532 3.3 3.3 0 0 0-1.61.406 2.972 2.972 0 0 0-1.19 1.162c-.298.504-.448 1.125-.448 1.862h-1.12c0-1.391.22-2.539.658-3.444.439-.905 1.027-1.577 1.764-2.016a4.65 4.65 0 0 1 2.422-.658 5.68 5.68 0 0 1 3.01.854c.934.56 1.69 1.372 2.268 2.436.579 1.064.868 2.343.868 3.836 0 1.503-.294 2.786-.882 3.85-.578 1.064-1.348 1.881-2.31 2.45a5.875 5.875 0 0 1-3.066.854Zm-6.608 6.244v-20.146h2.478l.518 3.29v16.856h-2.996Zm22.08-6.244c-1.223 0-2.329-.266-3.318-.798-.98-.532-1.76-1.325-2.338-2.38-.579-1.055-.868-2.371-.868-3.948 0-1.605.289-2.935.868-3.99.578-1.055 1.358-1.843 2.338-2.366.989-.532 2.095-.798 3.318-.798 1.222 0 2.319.266 3.29.798.98.523 1.754 1.311 2.324 2.366.578 1.055.868 2.385.868 3.99 0 1.577-.29 2.893-.868 3.948-.57 1.055-1.344 1.848-2.324 2.38-.971.532-2.068.798-3.29.798Zm-.084-2.618c.709 0 1.33-.173 1.862-.518.541-.345.961-.854 1.26-1.526.298-.672.448-1.493.448-2.464 0-1.484-.299-2.613-.896-3.388-.588-.784-1.419-1.176-2.492-1.176-.719 0-1.349.173-1.89.518-.532.345-.948.859-1.246 1.54-.299.681-.448 1.517-.448 2.506 0 1.456.298 2.571.896 3.346.597.775 1.432 1.162 2.506 1.162Zm15.037 2.618c-.784 0-1.498-.145-2.142-.434a3.6 3.6 0 0 1-1.526-1.344c-.383-.607-.574-1.367-.574-2.282v-13.482h2.982v13.384c0 1.185.564 1.778 1.694 1.778.345 0 .686-.037 1.022-.112a8.434 8.434 0 0 0 1.134-.35l.434 2.114c-.504.205-1.004.378-1.498.518-.486.14-.994.21-1.526.21Zm-6.216-11.9v-2.002h8.806v2.002h-8.806Z"/><rect width="148" height="148" x="429" y="489" stroke="#1C7373" stroke-width="4" rx="6"/><path fill="#35B7B7" d="M458.978 572.378c-1.568 0-2.958-.35-4.172-1.05-1.213-.7-2.165-1.745-2.856-3.136-.69-1.391-1.036-3.122-1.036-5.194 0-2.109.346-3.855 1.036-5.236.691-1.381 1.643-2.413 2.856-3.094 1.214-.681 2.604-1.022 4.172-1.022 1.578 0 2.973.35 4.186 1.05 1.223.691 2.175 1.731 2.856 3.122.691 1.381 1.036 3.108 1.036 5.18 0 2.091-.345 3.836-1.036 5.236-.681 1.391-1.633 2.431-2.856 3.122-1.213.681-2.608 1.022-4.186 1.022Zm0-2.73c1.531 0 2.744-.569 3.64-1.708.896-1.148 1.344-2.805 1.344-4.97 0-2.109-.448-3.743-1.344-4.9-.896-1.157-2.109-1.736-3.64-1.736-1.502 0-2.706.583-3.612 1.75-.896 1.157-1.344 2.795-1.344 4.914 0 2.156.448 3.803 1.344 4.942.906 1.139 2.11 1.708 3.612 1.708ZM471.84 572v-15.288c0-.961.187-1.741.56-2.338a3.338 3.338 0 0 1 1.484-1.33 4.687 4.687 0 0 1 2.016-.434c.429 0 .873.033 1.33.098a12.4 12.4 0 0 1 1.358.238l-.574 2.324a4.55 4.55 0 0 0-.77-.21 3.412 3.412 0 0 0-.742-.084c-.271 0-.532.051-.784.154a1.288 1.288 0 0 0-.616.546c-.159.252-.238.611-.238 1.078V572h-3.024Zm-2.058-11.522v-2.002h7.644v2.002h-7.644ZM481.93 572v-15.288c0-.961.187-1.741.56-2.338a3.338 3.338 0 0 1 1.484-1.33 4.687 4.687 0 0 1 2.016-.434c.429 0 .873.033 1.33.098a12.4 12.4 0 0 1 1.358.238l-.574 2.324a4.55 4.55 0 0 0-.77-.21 3.412 3.412 0 0 0-.742-.084c-.271 0-.532.051-.784.154a1.288 1.288 0 0 0-.616.546c-.159.252-.238.611-.238 1.078V572h-3.024Zm-2.058-11.522v-2.002h7.644v2.002h-7.644Zm16.334 11.9a5.837 5.837 0 0 1-3.164-.896c-.943-.597-1.699-1.433-2.268-2.506-.56-1.073-.84-2.319-.84-3.738 0-1.493.28-2.772.84-3.836.56-1.064 1.311-1.881 2.254-2.45.952-.569 2.011-.854 3.178-.854 1.073 0 1.993.215 2.758.644a5.158 5.158 0 0 1 1.848 1.736c.476.728.798 1.554.966 2.478.168.915.187 1.862.056 2.842h-9.506v-1.666h7.42l-.644.42a6.642 6.642 0 0 0-.07-1.428 3.968 3.968 0 0 0-.434-1.302 2.441 2.441 0 0 0-.882-.966c-.383-.243-.868-.364-1.456-.364-.728 0-1.344.182-1.848.546-.495.364-.868.854-1.12 1.47-.252.616-.378 1.302-.378 2.058v1.204c0 .812.121 1.531.364 2.156.243.625.607 1.12 1.092 1.484.485.364 1.097.546 1.834.546.709 0 1.297-.163 1.764-.49.476-.336.775-.835.896-1.498h3.038a4.995 4.995 0 0 1-.98 2.31 5.241 5.241 0 0 1-1.974 1.554c-.803.364-1.717.546-2.744.546Zm9.755-.378v-13.58h2.996V572h-2.996Zm2.226-5.992c0-1.755.191-3.206.574-4.354.382-1.157.905-2.016 1.568-2.576.662-.569 1.418-.854 2.268-.854.252 0 .48.019.686.056.214.028.429.075.644.14l-.084 2.982a6.62 6.62 0 0 0-.812-.154 4.68 4.68 0 0 0-.77-.07c-.738 0-1.354.191-1.848.574-.486.373-.85.919-1.092 1.638-.243.719-.364 1.591-.364 2.618h-.77Zm10.27-10.206c-.588 0-1.05-.159-1.386-.476-.336-.327-.504-.765-.504-1.316 0-.541.168-.971.504-1.288.336-.317.798-.476 1.386-.476.579 0 1.036.159 1.372.476.336.317.504.747.504 1.288 0 .551-.168.989-.504 1.316-.336.317-.793.476-1.372.476ZM516.959 572v-13.58h2.996V572h-2.996Zm18.069 0v-7.924c0-1.083-.261-1.899-.784-2.45-.513-.56-1.199-.84-2.058-.84-.7 0-1.316.191-1.848.574-.532.383-.947.952-1.246 1.708-.298.756-.448 1.685-.448 2.786h-1.022c0-1.708.215-3.136.644-4.284.439-1.148 1.055-2.011 1.848-2.59.803-.588 1.75-.882 2.842-.882 1.102 0 2.026.247 2.772.742.756.495 1.326 1.19 1.708 2.086.392.896.588 1.946.588 3.15V572h-2.996Zm-9.38 0v-13.524h2.618l.378 2.8V572h-2.996Zm22.378 6.986c-1.503 0-2.796-.21-3.878-.63-1.074-.411-1.9-.961-2.478-1.652-.579-.681-.868-1.423-.868-2.226 0-.98.354-1.736 1.064-2.268.718-.532 1.628-.798 2.73-.798l2.086.854c-.943 0-1.671.182-2.184.546-.504.373-.756.882-.756 1.526 0 .672.373 1.213 1.12 1.624.756.42 1.81.63 3.164.63.998 0 1.862-.145 2.59-.434.737-.289 1.306-.672 1.708-1.148.401-.467.602-.961.602-1.484 0-.355-.126-.653-.378-.896-.243-.243-.621-.364-1.134-.364h-4.732c-.915 0-1.736-.145-2.464-.434-.719-.289-1.288-.677-1.708-1.162-.42-.485-.63-1.022-.63-1.61 0-.569.158-1.055.476-1.456.317-.411.742-.723 1.274-.938a4.64 4.64 0 0 1 1.792-.336l.728 1.008c-.28 0-.551.056-.812.168-.252.112-.462.28-.63.504-.168.215-.252.485-.252.812 0 .383.163.7.49.952.336.252.914.378 1.736.378h4.732c1.4 0 2.496.266 3.29.798.802.523 1.204 1.316 1.204 2.38 0 .952-.322 1.857-.966 2.716-.635.868-1.54 1.573-2.716 2.114-1.176.551-2.576.826-4.2.826Zm.238-11.102c-1.064 0-2.035-.201-2.912-.602-.868-.411-1.564-.98-2.086-1.708-.514-.737-.77-1.596-.77-2.576 0-.989.256-1.853.77-2.59.522-.737 1.218-1.307 2.086-1.708.877-.401 1.848-.602 2.912-.602 1.036 0 1.988.201 2.856.602a5.152 5.152 0 0 1 2.086 1.708c.522.737.784 1.601.784 2.59 0 .98-.262 1.839-.784 2.576-.523.728-1.218 1.297-2.086 1.708-.868.401-1.82.602-2.856.602Zm.014-2.1c.905 0 1.591-.266 2.058-.798.476-.532.714-1.195.714-1.988 0-.84-.238-1.517-.714-2.03-.467-.513-1.158-.77-2.072-.77-.887 0-1.573.257-2.058.77-.486.513-.728 1.19-.728 2.03 0 .793.242 1.456.728 1.988.485.532 1.176.798 2.072.798Zm4.69-5.516-1.386-.742c0-.812.177-1.517.532-2.114a3.817 3.817 0 0 1 1.47-1.414c.616-.336 1.306-.504 2.072-.504l-.168 2.884c-.822 0-1.447.154-1.876.462-.43.308-.644.784-.644 1.428Z"/><rect width="372" height="200" x="647" y="463" stroke="#64BAF0" stroke-width="4" rx="12"/><rect width="148" height="148" x="673" y="489" stroke="#D56E18" stroke-width="4" rx="6"/><path fill="#FF851F" d="M699.157 572.878c-1.577 0-2.949-.383-4.116-1.148-1.166-.765-2.072-1.853-2.716-3.262-.634-1.409-.952-3.089-.952-5.04 0-2.025.336-3.724 1.008-5.096.672-1.381 1.596-2.422 2.772-3.122 1.176-.709 2.511-1.064 4.004-1.064 2.054 0 3.668.504 4.844 1.512 1.186.999 1.956 2.296 2.31 3.892l-3.206.602c-.308-.989-.802-1.787-1.484-2.394-.672-.607-1.493-.91-2.464-.91-.84 0-1.605.247-2.296.742-.69.485-1.241 1.218-1.652 2.198-.401.971-.602 2.184-.602 3.64 0 1.363.173 2.548.518 3.556.355.999.868 1.773 1.54 2.324.682.551 1.512.826 2.492.826 1.242 0 2.208-.331 2.898-.994.7-.663 1.05-1.512 1.05-2.548h3.22c0 1.325-.294 2.455-.882 3.388-.578.933-1.404 1.652-2.478 2.156-1.064.495-2.333.742-3.808.742Zm16.322 0c-1.222 0-2.328-.266-3.318-.798-.98-.532-1.759-1.325-2.338-2.38-.578-1.055-.868-2.371-.868-3.948 0-1.605.29-2.935.868-3.99.579-1.055 1.358-1.843 2.338-2.366.99-.532 2.096-.798 3.318-.798 1.223 0 2.32.266 3.29.798.98.523 1.755 1.311 2.324 2.366.579 1.055.868 2.385.868 3.99 0 1.577-.289 2.893-.868 3.948-.569 1.055-1.344 1.848-2.324 2.38-.97.532-2.067.798-3.29.798Zm-.084-2.618c.71 0 1.33-.173 1.862-.518.542-.345.962-.854 1.26-1.526.299-.672.448-1.493.448-2.464 0-1.484-.298-2.613-.896-3.388-.588-.784-1.418-1.176-2.492-1.176-.718 0-1.348.173-1.89.518-.532.345-.947.859-1.246 1.54-.298.681-.448 1.517-.448 2.506 0 1.456.299 2.571.896 3.346.598.775 1.433 1.162 2.506 1.162Zm19.952 2.24v-7.924c0-1.083-.262-1.899-.784-2.45-.514-.56-1.2-.84-2.058-.84-.7 0-1.316.191-1.848.574-.532.383-.948.952-1.246 1.708-.299.756-.448 1.685-.448 2.786h-1.022c0-1.708.214-3.136.644-4.284.438-1.148 1.054-2.011 1.848-2.59.802-.588 1.75-.882 2.842-.882 1.101 0 2.025.247 2.772.742.756.495 1.325 1.19 1.708 2.086.392.896.588 1.946.588 3.15v7.924h-2.996Zm-9.38 0v-13.524h2.618l.378 2.8V572.5h-2.996Zm21.747.378c-.784 0-1.498-.145-2.142-.434a3.606 3.606 0 0 1-1.526-1.344c-.383-.607-.574-1.367-.574-2.282v-13.482h2.982v13.384c0 1.185.565 1.778 1.694 1.778.345 0 .686-.037 1.022-.112a8.434 8.434 0 0 0 1.134-.35l.434 2.114c-.504.205-1.003.378-1.498.518-.485.14-.994.21-1.526.21Zm-6.216-11.9v-2.002h8.806v2.002h-8.806Zm12.66 11.522v-13.58h2.996v13.58h-2.996Zm2.226-5.992c0-1.755.191-3.206.574-4.354.383-1.157.905-2.016 1.568-2.576.663-.569 1.419-.854 2.268-.854.252 0 .481.019.686.056.215.028.429.075.644.14l-.084 2.982a6.62 6.62 0 0 0-.812-.154 4.68 4.68 0 0 0-.77-.07c-.737 0-1.353.191-1.848.574-.485.373-.849.919-1.092 1.638-.243.719-.364 1.591-.364 2.618h-.77Zm17.074 5.992-.378-3.206v-5.53c0-1.027-.21-1.778-.63-2.254-.42-.476-1.106-.714-2.058-.714-.551 0-1.031.079-1.442.238a2.107 2.107 0 0 0-.966.714c-.224.308-.336.691-.336 1.148h-3.29c0-1.017.243-1.839.728-2.464.495-.635 1.19-1.097 2.086-1.386.905-.299 1.979-.448 3.22-.448 1.129 0 2.119.187 2.968.56a4.218 4.218 0 0 1 2.002 1.708c.476.775.714 1.773.714 2.996v8.638h-2.618Zm-4.48.378c-1.148 0-2.105-.201-2.87-.602-.756-.401-1.325-.929-1.708-1.582a4.107 4.107 0 0 1-.574-2.114c0-.868.224-1.591.672-2.17.457-.579 1.092-1.008 1.904-1.288.821-.289 1.778-.434 2.87-.434a11.6 11.6 0 0 1 2.086.182c.672.112 1.339.271 2.002.476v1.778a10.2 10.2 0 0 0-1.75-.434 10.872 10.872 0 0 0-1.764-.154c-.812 0-1.489.159-2.03.476-.532.308-.798.831-.798 1.568 0 .551.215 1.022.644 1.414.429.392 1.111.588 2.044.588.691 0 1.288-.154 1.792-.462a3.408 3.408 0 0 0 1.162-1.176c.28-.467.42-.929.42-1.386h.714c0 .952-.187 1.834-.56 2.646a4.645 4.645 0 0 1-1.624 1.946c-.709.485-1.587.728-2.632.728Zm17.072 0a5.945 5.945 0 0 1-3.136-.882c-.962-.588-1.741-1.419-2.338-2.492-.588-1.073-.882-2.333-.882-3.78 0-1.531.294-2.823.882-3.878.597-1.064 1.376-1.871 2.338-2.422a6.246 6.246 0 0 1 3.136-.826c.849 0 1.6.135 2.254.406a5.215 5.215 0 0 1 1.694 1.092c.466.457.835.971 1.106 1.54.28.56.466 1.134.56 1.722l-3.038.112c-.168-.644-.476-1.167-.924-1.568-.439-.411-.999-.616-1.68-.616-.57 0-1.106.159-1.61.476-.495.308-.901.789-1.218 1.442-.308.653-.462 1.493-.462 2.52 0 .961.144 1.773.434 2.436.289.653.681 1.153 1.176 1.498a2.963 2.963 0 0 0 1.68.504c.886 0 1.54-.215 1.96-.644.429-.439.644-1.027.644-1.764h3.038c0 .952-.22 1.815-.658 2.59-.439.775-1.078 1.391-1.918 1.848-.831.457-1.844.686-3.038.686Zm14.137 0c-.784 0-1.498-.145-2.142-.434a3.6 3.6 0 0 1-1.526-1.344c-.383-.607-.574-1.367-.574-2.282v-13.482h2.982v13.384c0 1.185.564 1.778 1.694 1.778.345 0 .686-.037 1.022-.112a8.434 8.434 0 0 0 1.134-.35l.434 2.114c-.504.205-1.004.378-1.498.518-.486.14-.994.21-1.526.21Zm-6.216-11.9v-2.002h8.806v2.002h-8.806Z"/><rect width="148" height="148" x="845" y="489" stroke="#1C7373" stroke-width="4" rx="6"/><path fill="#35B7B7" d="M874.978 572.378c-1.568 0-2.958-.35-4.172-1.05-1.213-.7-2.165-1.745-2.856-3.136-.69-1.391-1.036-3.122-1.036-5.194 0-2.109.346-3.855 1.036-5.236.691-1.381 1.643-2.413 2.856-3.094 1.214-.681 2.604-1.022 4.172-1.022 1.578 0 2.973.35 4.186 1.05 1.223.691 2.175 1.731 2.856 3.122.691 1.381 1.036 3.108 1.036 5.18 0 2.091-.345 3.836-1.036 5.236-.681 1.391-1.633 2.431-2.856 3.122-1.213.681-2.608 1.022-4.186 1.022Zm0-2.73c1.531 0 2.744-.569 3.64-1.708.896-1.148 1.344-2.805 1.344-4.97 0-2.109-.448-3.743-1.344-4.9-.896-1.157-2.109-1.736-3.64-1.736-1.502 0-2.706.583-3.612 1.75-.896 1.157-1.344 2.795-1.344 4.914 0 2.156.448 3.803 1.344 4.942.906 1.139 2.11 1.708 3.612 1.708ZM887.84 572v-15.288c0-.961.187-1.741.56-2.338a3.338 3.338 0 0 1 1.484-1.33 4.687 4.687 0 0 1 2.016-.434c.429 0 .873.033 1.33.098a12.4 12.4 0 0 1 1.358.238l-.574 2.324a4.55 4.55 0 0 0-.77-.21 3.412 3.412 0 0 0-.742-.084c-.271 0-.532.051-.784.154a1.288 1.288 0 0 0-.616.546c-.159.252-.238.611-.238 1.078V572h-3.024Zm-2.058-11.522v-2.002h7.644v2.002h-7.644ZM897.93 572v-15.288c0-.961.187-1.741.56-2.338a3.338 3.338 0 0 1 1.484-1.33 4.687 4.687 0 0 1 2.016-.434c.429 0 .873.033 1.33.098a12.4 12.4 0 0 1 1.358.238l-.574 2.324a4.55 4.55 0 0 0-.77-.21 3.412 3.412 0 0 0-.742-.084c-.271 0-.532.051-.784.154a1.288 1.288 0 0 0-.616.546c-.159.252-.238.611-.238 1.078V572h-3.024Zm-2.058-11.522v-2.002h7.644v2.002h-7.644Zm16.334 11.9a5.837 5.837 0 0 1-3.164-.896c-.943-.597-1.699-1.433-2.268-2.506-.56-1.073-.84-2.319-.84-3.738 0-1.493.28-2.772.84-3.836.56-1.064 1.311-1.881 2.254-2.45.952-.569 2.011-.854 3.178-.854 1.073 0 1.993.215 2.758.644a5.158 5.158 0 0 1 1.848 1.736c.476.728.798 1.554.966 2.478.168.915.187 1.862.056 2.842h-9.506v-1.666h7.42l-.644.42a6.642 6.642 0 0 0-.07-1.428 3.968 3.968 0 0 0-.434-1.302 2.441 2.441 0 0 0-.882-.966c-.383-.243-.868-.364-1.456-.364-.728 0-1.344.182-1.848.546-.495.364-.868.854-1.12 1.47-.252.616-.378 1.302-.378 2.058v1.204c0 .812.121 1.531.364 2.156.243.625.607 1.12 1.092 1.484.485.364 1.097.546 1.834.546.709 0 1.297-.163 1.764-.49.476-.336.775-.835.896-1.498h3.038a4.995 4.995 0 0 1-.98 2.31 5.241 5.241 0 0 1-1.974 1.554c-.803.364-1.717.546-2.744.546Zm9.755-.378v-13.58h2.996V572h-2.996Zm2.226-5.992c0-1.755.191-3.206.574-4.354.382-1.157.905-2.016 1.568-2.576.662-.569 1.418-.854 2.268-.854.252 0 .48.019.686.056.214.028.429.075.644.14l-.084 2.982a6.62 6.62 0 0 0-.812-.154 4.68 4.68 0 0 0-.77-.07c-.738 0-1.354.191-1.848.574-.486.373-.85.919-1.092 1.638-.243.719-.364 1.591-.364 2.618h-.77Zm10.27-10.206c-.588 0-1.05-.159-1.386-.476-.336-.327-.504-.765-.504-1.316 0-.541.168-.971.504-1.288.336-.317.798-.476 1.386-.476.579 0 1.036.159 1.372.476.336.317.504.747.504 1.288 0 .551-.168.989-.504 1.316-.336.317-.793.476-1.372.476ZM932.959 572v-13.58h2.996V572h-2.996Zm18.069 0v-7.924c0-1.083-.261-1.899-.784-2.45-.513-.56-1.199-.84-2.058-.84-.7 0-1.316.191-1.848.574-.532.383-.947.952-1.246 1.708-.298.756-.448 1.685-.448 2.786h-1.022c0-1.708.215-3.136.644-4.284.439-1.148 1.055-2.011 1.848-2.59.803-.588 1.75-.882 2.842-.882 1.102 0 2.026.247 2.772.742.756.495 1.326 1.19 1.708 2.086.392.896.588 1.946.588 3.15V572h-2.996Zm-9.38 0v-13.524h2.618l.378 2.8V572h-2.996Zm22.378 6.986c-1.503 0-2.796-.21-3.878-.63-1.074-.411-1.9-.961-2.478-1.652-.579-.681-.868-1.423-.868-2.226 0-.98.354-1.736 1.064-2.268.718-.532 1.628-.798 2.73-.798l2.086.854c-.943 0-1.671.182-2.184.546-.504.373-.756.882-.756 1.526 0 .672.373 1.213 1.12 1.624.756.42 1.81.63 3.164.63.998 0 1.862-.145 2.59-.434.737-.289 1.306-.672 1.708-1.148.401-.467.602-.961.602-1.484 0-.355-.126-.653-.378-.896-.243-.243-.621-.364-1.134-.364h-4.732c-.915 0-1.736-.145-2.464-.434-.719-.289-1.288-.677-1.708-1.162-.42-.485-.63-1.022-.63-1.61 0-.569.158-1.055.476-1.456.317-.411.742-.723 1.274-.938a4.64 4.64 0 0 1 1.792-.336l.728 1.008c-.28 0-.551.056-.812.168-.252.112-.462.28-.63.504-.168.215-.252.485-.252.812 0 .383.163.7.49.952.336.252.914.378 1.736.378h4.732c1.4 0 2.496.266 3.29.798.802.523 1.204 1.316 1.204 2.38 0 .952-.322 1.857-.966 2.716-.635.868-1.54 1.573-2.716 2.114-1.176.551-2.576.826-4.2.826Zm.238-11.102c-1.064 0-2.035-.201-2.912-.602-.868-.411-1.564-.98-2.086-1.708-.514-.737-.77-1.596-.77-2.576 0-.989.256-1.853.77-2.59.522-.737 1.218-1.307 2.086-1.708.877-.401 1.848-.602 2.912-.602 1.036 0 1.988.201 2.856.602a5.152 5.152 0 0 1 2.086 1.708c.522.737.784 1.601.784 2.59 0 .98-.262 1.839-.784 2.576-.523.728-1.218 1.297-2.086 1.708-.868.401-1.82.602-2.856.602Zm.014-2.1c.905 0 1.591-.266 2.058-.798.476-.532.714-1.195.714-1.988 0-.84-.238-1.517-.714-2.03-.467-.513-1.158-.77-2.072-.77-.887 0-1.573.257-2.058.77-.486.513-.728 1.19-.728 2.03 0 .793.242 1.456.728 1.988.485.532 1.176.798 2.072.798Zm4.69-5.516-1.386-.742c0-.812.177-1.517.532-2.114a3.817 3.817 0 0 1 1.47-1.414c.616-.336 1.306-.504 2.072-.504l-.168 2.884c-.822 0-1.447.154-1.876.462-.43.308-.644.784-.644 1.428Z"/><path stroke="#fff" stroke-linecap="round" stroke-width="4" d="M175 100.989c38.189 4.457 109.794 24.708 99.847 72.165-6.79 32.401-43.399 18.206-34.595-16.955 8.803-35.161 70.574-41.112 82.147 28.861m0 0-12.751-6.562m12.751 6.562 8.293-17.219m699.418-91.759c-37.633 7.897-107.109 34.549-92.905 80.911 9.697 31.653 44.869 14.201 32.918-20.019-11.952-34.219-74.008-34.551-79.197 36.182m0 0 12.105-7.689m-12.105 7.689-9.818-16.397"/><g clip-path="url(#a)"><path stroke="#fff" stroke-linecap="round" stroke-width="4" d="M132 753.778c38.223 4.151 112.539.338 113.399-48.143.588-33.1-38.261-27.405-37.5 8.833.76 36.239 59.659 55.783 86.509-9.862m0 0-13.892 3.56m13.892-3.56 4.255 18.633"/></g><defs><clipPath id="a"><path fill="#fff" d="m252.889 836.581 166.692-169.43L250.15 500.46 83.459 669.89z"/></clipPath></defs></svg>