<svg xmlns="http://www.w3.org/2000/svg" width="863" height="401" fill="none"><rect width="863" height="359.583" fill="url(#a)" rx="20"/><rect width="862" height="358.583" x=".5" y=".5" stroke="url(#b)" stroke-opacity=".5" rx="19.5"/><g stroke="#F1F2F3" stroke-linecap="round" stroke-linejoin="round" stroke-width=".899" clip-path="url(#c)"><path d="M686.755 26.97a5.394 5.394 0 1 0 0-10.789 5.394 5.394 0 0 0 0 10.788Z"/><path d="M686.755 18.428v3.146h3.146"/></g><path fill="#F1F2F3" d="M698.826 25.574v-7.71l.368.392h-2.267v-.736h2.727v8.054h-.828Zm5.964.07a2.916 2.916 0 0 1-1.657-.484c-.483-.33-.863-.798-1.139-1.404-.277-.614-.415-1.35-.415-2.21 0-.858.138-1.59.415-2.197.276-.614.656-1.082 1.139-1.404a2.867 2.867 0 0 1 1.657-.494 2.87 2.87 0 0 1 1.657.494c.483.322.863.79 1.139 1.404.284.606.426 1.339.426 2.198s-.142 1.595-.426 2.21c-.276.605-.656 1.073-1.139 1.403a2.92 2.92 0 0 1-1.657.483Zm0-.76c.475 0 .89-.127 1.242-.38.353-.26.63-.637.829-1.128.199-.498.299-1.108.299-1.83 0-.72-.1-1.326-.299-1.817-.199-.499-.476-.875-.829-1.128a2.03 2.03 0 0 0-1.242-.391c-.461 0-.871.13-1.231.391-.361.253-.641.63-.84 1.128-.2.49-.3 1.097-.3 1.818 0 .721.1 1.33.3 1.83.199.49.479.866.84 1.127.36.253.77.38 1.231.38Zm5.029-4.154a.599.599 0 0 1-.437-.184.632.632 0 0 1-.172-.449c0-.184.057-.334.172-.449a.619.619 0 0 1 .437-.172c.169 0 .311.057.426.172a.586.586 0 0 1 .184.449.61.61 0 0 1-.184.449.56.56 0 0 1-.426.184Zm0 4.902a.598.598 0 0 1-.437-.184.632.632 0 0 1-.172-.45c0-.183.057-.333.172-.448a.619.619 0 0 1 .437-.172c.169 0 .311.057.426.172a.586.586 0 0 1 .184.449.61.61 0 0 1-.184.449.56.56 0 0 1-.426.184Zm4.222.011a4.944 4.944 0 0 1-1.657-.276c-.514-.192-.928-.445-1.242-.76l.402-.655c.261.268.61.49 1.048.667.444.177.928.265 1.449.265.668 0 1.178-.146 1.531-.437.36-.292.541-.683.541-1.174 0-.491-.177-.882-.53-1.174-.345-.291-.893-.437-1.645-.437h-.576v-.61l2.486-3.118.115.322h-4.488v-.736h5.178v.586l-2.485 3.119-.403-.265h.311c.966 0 1.688.215 2.163.644.483.43.725.982.725 1.657 0 .453-.107.86-.322 1.22-.215.36-.541.644-.978.852-.43.207-.971.31-1.623.31Zm3.885-.069v-.587l3.348-3.279c.307-.3.537-.56.691-.782.153-.23.257-.445.31-.645.054-.2.081-.387.081-.564 0-.468-.161-.836-.484-1.104-.314-.269-.782-.403-1.403-.403-.476 0-.898.073-1.266.219a2.378 2.378 0 0 0-.932.679l-.587-.507a3.085 3.085 0 0 1 1.208-.851c.491-.2 1.04-.3 1.646-.3.544 0 1.016.089 1.415.265.399.169.706.418.921.748.222.33.333.717.333 1.162a2.752 2.752 0 0 1-.506 1.576c-.184.277-.456.591-.817.944l-3.072 3.015-.23-.322h4.993v.736h-5.649Zm10.414 0V17.52h3.015c.683 0 1.269.11 1.76.333.491.215.867.53 1.128.944.269.406.403.901.403 1.484 0 .568-.134 1.059-.403 1.473-.261.407-.637.721-1.128.944-.491.222-1.077.333-1.76.333h-2.543l.38-.402v2.945h-.852Zm.852-2.876-.38-.415h2.52c.805 0 1.415-.172 1.829-.518.422-.352.633-.847.633-1.484 0-.644-.211-1.143-.633-1.496-.414-.353-1.024-.529-1.829-.529h-2.52l.38-.403v4.845Zm7.295 2.876V17.52h.702l3.682 6.282h-.368l3.647-6.282h.702v8.054h-.817v-6.777h.196l-3.36 5.753h-.403l-3.383-5.753h.219v6.777h-.817Z"/><g stroke="#E5F8FF" stroke-linecap="round" stroke-linejoin="round" stroke-width=".899" clip-path="url(#d)"><path d="M767.623 22.189a3.598 3.598 0 0 1-2.1-2.503 3.6 3.6 0 0 0 4.312-4.313 3.599 3.599 0 0 1 2.788 3.505c0 .056 0 .112-.004.168"/><path d="M769.926 22.474a3.829 3.829 0 0 1 2.509-3.372 3.822 3.822 0 0 1 5.074 2.927 3.824 3.824 0 0 1-3.762 4.49h-4.495a2.472 2.472 0 1 1 .798-4.813"/></g><path fill="#F1F2F3" d="M785.244 25.643c-.713 0-1.315-.157-1.806-.471-.491-.323-.863-.783-1.117-1.381-.253-.606-.379-1.331-.379-2.175 0-.913.153-1.676.46-2.29.315-.621.748-1.09 1.3-1.404.553-.314 1.193-.471 1.922-.471.36 0 .706.034 1.035.103.33.07.622.18.875.334l-.334.667a1.967 1.967 0 0 0-.713-.288 3.813 3.813 0 0 0-.852-.092c-.866 0-1.561.277-2.082.829-.514.552-.771 1.377-.771 2.474 0 .169.007.38.023.633.023.245.069.49.138.736l-.288-.219a2.17 2.17 0 0 1 .495-1.012c.245-.284.552-.499.92-.644a3.258 3.258 0 0 1 1.209-.22c.537 0 1.008.1 1.415.3.407.2.725.48.955.84.23.36.345.786.345 1.277 0 .499-.119.936-.356 1.312a2.417 2.417 0 0 1-.99.863c-.414.2-.882.3-1.404.3Zm-.034-.702a2.34 2.34 0 0 0 1.012-.207c.299-.146.533-.349.702-.61a1.71 1.71 0 0 0 .253-.932c0-.529-.184-.95-.552-1.265-.361-.315-.852-.472-1.473-.472-.414 0-.775.077-1.082.23a1.821 1.821 0 0 0-.724.633 1.56 1.56 0 0 0-.265.897c0 .292.08.572.242.84.161.261.398.476.713.645.322.16.713.241 1.174.241Zm6.804.702c-.644 0-1.2-.092-1.668-.276-.46-.184-.817-.449-1.07-.794-.246-.353-.368-.767-.368-1.243 0-.46.118-.851.356-1.173.246-.33.599-.583 1.059-.76.468-.176 1.032-.264 1.691-.264.652 0 1.212.088 1.68.264.468.177.825.43 1.07.76.254.322.38.713.38 1.173 0 .476-.126.89-.38 1.243-.253.345-.613.61-1.081.794-.468.184-1.024.276-1.669.276Zm0-.702c.714 0 1.27-.145 1.669-.437.406-.291.61-.687.61-1.185 0-.499-.204-.89-.61-1.174-.399-.291-.955-.437-1.669-.437-.713 0-1.269.146-1.668.437-.399.284-.598.675-.598 1.174 0 .498.199.894.598 1.185.399.292.955.437 1.668.437Zm0-3.337c-.598 0-1.108-.08-1.53-.241-.414-.161-.733-.391-.955-.69-.223-.307-.334-.672-.334-1.094 0-.445.115-.824.345-1.139.238-.322.568-.568.99-.736.422-.17.917-.253 1.484-.253.568 0 1.063.084 1.485.253.429.168.763.414 1.001.736.238.315.357.694.357 1.14 0 .421-.112.786-.334 1.092-.223.3-.549.53-.978.69-.422.162-.932.242-1.531.242Zm0-.552c.629 0 1.12-.13 1.473-.391.353-.26.53-.61.53-1.047 0-.46-.185-.817-.553-1.07-.36-.261-.844-.392-1.45-.392s-1.089.13-1.449.392c-.361.253-.541.606-.541 1.058 0 .445.172.798.518 1.059.352.26.843.391 1.472.391Zm6.084.058c-.338 0-.648-.08-.932-.242a1.918 1.918 0 0 1-.656-.656 1.816 1.816 0 0 1-.242-.932 1.795 1.795 0 0 1 .898-1.576c.284-.161.594-.242.932-.242.345 0 .656.08.932.242.284.16.506.38.667.655.161.277.242.583.242.921 0 .338-.081.644-.242.92a1.815 1.815 0 0 1-1.599.909Zm.011-.484c.246 0 .468-.061.668-.184.207-.122.368-.284.483-.483.115-.2.173-.426.173-.679 0-.253-.058-.48-.173-.679a1.22 1.22 0 0 0-.483-.483 1.313 1.313 0 0 0-.668-.173c-.253 0-.483.058-.69.173a1.334 1.334 0 0 0-.644 1.162c0 .253.057.483.172.69.115.2.273.361.472.484.207.115.437.172.69.172Zm4.476.794h4.257v.737h-4.257v-.737Zm.092 4.154h-.852V17.52h5.524v.736h-4.672v7.318ZM406.871 218.107c-5.886 0-10.917-1.297-15.094-3.892-4.177-2.595-7.373-6.329-9.588-11.202-2.151-4.936-3.227-10.948-3.227-18.036 0-7.532 1.329-13.892 3.987-19.081 2.658-5.19 6.36-9.114 11.107-11.772 4.746-2.658 10.189-3.987 16.328-3.987 3.164 0 6.17.317 9.018.95 2.911.632 5.411 1.613 7.499 2.942l-3.607 7.405c-1.709-1.203-3.671-2.025-5.886-2.468-2.151-.443-4.43-.665-6.835-.665-6.771 0-12.151 2.12-16.138 6.361-3.987 4.176-5.98 10.41-5.98 18.701 0 1.329.063 2.911.19 4.746.126 1.836.443 3.639.949 5.411l-3.228-3.227c.95-2.912 2.437-5.348 4.462-7.31 2.088-2.025 4.557-3.512 7.404-4.462 2.912-1.012 6.044-1.519 9.399-1.519 4.43 0 8.353.823 11.771 2.469 3.417 1.645 6.107 3.987 8.069 7.024 1.962 2.975 2.943 6.519 2.943 10.633 0 4.24-1.044 7.942-3.133 11.106-2.088 3.165-4.905 5.601-8.449 7.31-3.544 1.709-7.531 2.563-11.961 2.563Zm-.38-7.689c2.912 0 5.443-.538 7.595-1.614 2.215-1.076 3.955-2.563 5.221-4.462 1.266-1.962 1.899-4.24 1.899-6.835 0-3.923-1.361-7.025-4.082-9.303-2.722-2.341-6.424-3.512-11.107-3.512-3.038 0-5.696.569-7.974 1.708-2.279 1.14-4.082 2.69-5.411 4.652-1.266 1.899-1.899 4.082-1.899 6.55 0 2.279.601 4.399 1.804 6.361 1.202 1.898 2.974 3.449 5.316 4.651 2.341 1.203 5.221 1.804 8.638 1.804Zm52.514 7.689c-4.683 0-9.239-.728-13.669-2.183-4.367-1.456-7.943-3.418-10.728-5.886l4.367-7.499c2.215 2.088 5.095 3.797 8.639 5.126 3.544 1.329 7.309 1.993 11.297 1.993 5.062 0 8.955-1.076 11.676-3.227 2.721-2.152 4.082-5.032 4.082-8.639 0-2.468-.601-4.62-1.804-6.455-1.202-1.835-3.291-3.228-6.265-4.177-2.911-1.013-6.93-1.519-12.056-1.519H439.45l3.512-34.744h37.498v8.259h-33.985l4.936-4.652-2.753 27.435-4.936-4.557h12.815c6.645 0 11.993.854 16.043 2.563 4.051 1.709 6.994 4.082 8.829 7.12 1.835 2.974 2.753 6.424 2.753 10.347 0 3.798-.918 7.278-2.753 10.443-1.835 3.101-4.62 5.601-8.354 7.499-3.671 1.835-8.354 2.753-14.05 2.753Z"/><path fill="#ADB3B8" d="M454.608 229.306c.859 0 1.604.168 2.235.503a3.332 3.332 0 0 1 1.49 1.491c.363.671.544 1.517.544 2.537v6.142h-1.43v-6.001c0-1.114-.268-1.953-.805-2.517-.524-.578-1.269-.866-2.235-.866-.725 0-1.356.154-1.893.463-.524.295-.933.732-1.228 1.309-.282.564-.423 1.248-.423 2.054v5.558h-1.43v-6.001c0-1.114-.268-1.953-.805-2.517-.537-.578-1.289-.866-2.256-.866-.711 0-1.335.154-1.872.463a3.02 3.02 0 0 0-1.249 1.309c-.282.564-.423 1.248-.423 2.054v5.558h-1.429v-10.572h1.369v2.859l-.222-.503a3.739 3.739 0 0 1 1.551-1.792c.725-.443 1.577-.665 2.557-.665 1.034 0 1.913.262 2.638.785.725.511 1.195 1.282 1.41 2.316l-.564-.221a4.125 4.125 0 0 1 1.631-2.074c.792-.537 1.738-.806 2.839-.806Zm13.603 10.773c-.912 0-1.738-.208-2.476-.624-.739-.43-1.329-1.04-1.772-1.832-.43-.806-.645-1.786-.645-2.94 0-1.155.215-2.128.645-2.92.429-.806 1.013-1.417 1.752-1.833.738-.416 1.57-.624 2.496-.624 1.007 0 1.907.228 2.699.685a4.762 4.762 0 0 1 1.893 1.893c.456.805.684 1.738.684 2.799 0 1.074-.228 2.013-.684 2.819a4.946 4.946 0 0 1-1.893 1.893c-.792.456-1.692.684-2.699.684Zm-5.457 3.806v-14.478h1.37v3.181l-.141 2.115.201 2.134v7.048h-1.43Zm5.357-5.074c.752 0 1.423-.168 2.013-.504a3.844 3.844 0 0 0 1.41-1.45c.349-.631.524-1.356.524-2.174 0-.819-.175-1.538-.524-2.155a3.844 3.844 0 0 0-1.41-1.45c-.59-.349-1.261-.523-2.013-.523s-1.43.174-2.034.523a3.844 3.844 0 0 0-1.41 1.45c-.335.617-.503 1.336-.503 2.155 0 .818.168 1.543.503 2.174a3.844 3.844 0 0 0 1.41 1.45c.604.336 1.282.504 2.034.504Zm13.687-9.505c.86 0 1.611.168 2.256.503a3.423 3.423 0 0 1 1.53 1.491c.376.671.564 1.517.564 2.537v6.142h-1.43v-6.001c0-1.114-.282-1.953-.846-2.517-.55-.578-1.329-.866-2.335-.866-.752 0-1.41.154-1.974.463-.55.295-.98.732-1.289 1.309-.295.564-.443 1.248-.443 2.054v5.558h-1.429v-14.942h1.429v7.269l-.281-.543a3.788 3.788 0 0 1 1.61-1.792c.739-.443 1.618-.665 2.638-.665Z"/><path fill="#767F87" d="m493.658 125.53-3.896-7.229H347.444l-30.71 34.322 3.165 5.744 30.645-32.837h143.114Z" opacity=".5"/><path fill="url(#e)" d="m404.95 125.531-3.874-7.23h-52.734l3.1 7.229 53.508.001Z"/><path fill="#F1F2F3" d="M400.352 117.213h1.989l5.175 9.361h-1.983l-5.181-9.361Z"/><path fill="#0C0D0E" d="M345.869 117.213h1.989l5.175 9.361h-1.984l-5.18-9.361Zm83.945 0h1.99l5.175 9.361h-1.984l-5.181-9.361Z"/><g clip-path="url(#f)"><path stroke="#F1F2F3" stroke-linecap="round" stroke-linejoin="round" stroke-width=".899" d="m352.701 97.986-.899 4.495 3.596 1.349-6.293 6.742.899-4.495-3.596-1.348 6.293-6.743Z"/></g><path fill="#F1F2F3" d="M361.42 108.279v-.587l3.348-3.279a5.64 5.64 0 0 0 .691-.782c.153-.231.257-.445.31-.645.054-.199.081-.387.081-.564 0-.468-.161-.836-.483-1.104-.315-.269-.783-.403-1.404-.403-.476 0-.898.073-1.266.219-.36.145-.671.372-.932.679l-.587-.507a3.082 3.082 0 0 1 1.208-.851c.491-.2 1.04-.299 1.646-.299.545 0 1.016.088 1.415.264.399.169.706.418.921.748.222.33.333.717.333 1.162a2.76 2.76 0 0 1-.506 1.577c-.184.276-.456.59-.817.943l-3.072 3.015-.23-.322h4.994v.736h-5.65Zm7.423.058a.6.6 0 0 1-.437-.184.634.634 0 0 1-.173-.449c0-.184.058-.334.173-.449a.617.617 0 0 1 .437-.172c.169 0 .311.057.426.172a.587.587 0 0 1 .184.449.611.611 0 0 1-.184.449.563.563 0 0 1-.426.184Zm4.334.011a4.946 4.946 0 0 1-1.657-.276c-.513-.192-.928-.445-1.242-.759l.403-.656c.26.268.609.491 1.047.667.445.177.928.265 1.449.265.668 0 1.178-.146 1.531-.437.36-.292.541-.683.541-1.174 0-.491-.177-.882-.53-1.174-.345-.291-.893-.437-1.645-.437h-.575v-.61l2.485-3.118.115.322h-4.488v-.736h5.178v.586l-2.485 3.119-.403-.265h.311c.967 0 1.688.215 2.163.644.484.43.725.982.725 1.657 0 .453-.107.86-.322 1.22-.215.361-.541.645-.978.852-.43.207-.97.31-1.623.31Zm15.191-6.167c.491 0 .917.096 1.277.287.369.185.653.468.852.852.207.383.311.867.311 1.45v3.509h-.817v-3.429c0-.636-.154-1.116-.461-1.438-.299-.33-.725-.495-1.277-.495-.414 0-.775.088-1.081.265-.3.169-.534.418-.702.748-.161.322-.242.713-.242 1.173v3.176h-.817v-3.429c0-.636-.153-1.116-.46-1.438-.307-.33-.737-.495-1.289-.495-.407 0-.763.088-1.07.265a1.729 1.729 0 0 0-.714.748c-.161.322-.241.713-.241 1.173v3.176h-.817v-6.041h.782v1.634l-.126-.287c.184-.438.479-.779.886-1.025.414-.253.901-.379 1.461-.379.591 0 1.093.149 1.507.449.415.291.683.732.806 1.323l-.322-.127c.176-.491.487-.886.932-1.185.452-.307.993-.46 1.622-.46Zm4.655 6.098v-6.041h.817v6.041h-.817Zm.414-7.375a.579.579 0 0 1-.425-.173.565.565 0 0 1-.173-.414.53.53 0 0 1 .173-.403.578.578 0 0 1 .425-.173.6.6 0 0 1 .426.161.529.529 0 0 1 .173.403.58.58 0 0 1-.173.426.555.555 0 0 1-.426.173Zm1.25 8.526 3.797-10.84h.748l-3.798 10.84h-.747Zm5.925-2.716.023-1.047 3.763-3.429h1.001l-2.658 2.543-.46.391-1.669 1.542Zm-.644 1.565v-8.538h.817v8.538h-.817Zm4.683 0-2.52-3.141.529-.633 2.992 3.774h-1.001Zm4.106 0-2.716-8.054h.875l2.543 7.583h-.437l2.623-7.583h.783l2.589 7.583h-.415l2.566-7.583h.817l-2.715 8.054h-.898l-2.474-7.191h.23l-2.485 7.191h-.886Zm13.869-6.098c.491 0 .921.096 1.289.287.376.185.667.468.875.852.214.383.322.867.322 1.45v3.509h-.817v-3.429c0-.636-.161-1.116-.484-1.438-.314-.33-.759-.495-1.334-.495-.43 0-.806.088-1.128.265-.314.169-.56.418-.736.748-.169.322-.254.713-.254 1.173v3.176h-.817v-8.538h.817v4.154l-.161-.31a2.17 2.17 0 0 1 .921-1.025c.422-.253.924-.379 1.507-.379Z"/><path fill="#767F87" d="m427.115 236.653-3.742 4.361h-74.784l-12.732-13.85 3.222-3.719 12.454 13.208h75.582Z" opacity=".5"/><path fill="url(#g)" d="m335.852 227.161 8.812 9.585 3.293-3.887-8.869-9.405-3.236 3.707Z"/><path fill="#F1F2F3" d="M349.832 232.001h-1.133l-5.374 6.248h1.126l5.381-6.248Z"/><path fill="#0C0D0E" d="M403.866 235.723h-1.133l-5.375 6.247h1.126l5.382-6.247Zm-25.192 0h-1.133l-5.375 6.247h1.126l5.382-6.247Zm-25.191 0h-1.133l-5.375 6.247h1.126l5.382-6.247Z"/><g stroke="#F1F2F3" stroke-linecap="round" stroke-linejoin="round" stroke-width=".899" clip-path="url(#h)"><path d="m355.607 257.163.898-2.248h-1.797l.899-2.247"/><path d="M352.46 259.859v-8.989a.898.898 0 0 1 .899-.899h4.495a.9.9 0 0 1 .899.899v8.989m-7.641 0h8.989m-1.348-5.842h1.348a.898.898 0 0 1 .899.899v2.248c0 .238.095.467.264.635a.896.896 0 0 0 1.271 0 .9.9 0 0 0 .263-.635v-4.572a.902.902 0 0 0-.263-.636l-1.085-1.085"/></g><path fill="#F1F2F3" d="M369.577 258.985a4.946 4.946 0 0 1-1.657-.276c-.514-.192-.928-.445-1.243-.76l.403-.655c.261.268.61.491 1.047.667.445.176.928.265 1.45.265.667 0 1.178-.146 1.53-.438.361-.291.541-.682.541-1.173s-.176-.882-.529-1.174c-.345-.292-.894-.437-1.645-.437h-.576v-.61l2.486-3.118.115.322h-4.488v-.737h5.178v.587l-2.485 3.118-.403-.264h.311c.966 0 1.687.215 2.163.644.483.43.725.982.725 1.657 0 .453-.108.859-.322 1.22-.215.36-.541.644-.978.851-.43.207-.971.311-1.623.311Zm3.884-.069v-.587l3.349-3.279a5.5 5.5 0 0 0 .69-.783c.154-.23.257-.445.311-.644.054-.2.08-.387.08-.564 0-.468-.161-.836-.483-1.105-.314-.268-.782-.402-1.404-.402-.475 0-.897.073-1.265.218a2.373 2.373 0 0 0-.932.679l-.587-.506a3.087 3.087 0 0 1 1.208-.852 4.342 4.342 0 0 1 1.645-.299c.545 0 1.017.089 1.416.265.399.169.705.418.92.748.223.33.334.717.334 1.162a2.768 2.768 0 0 1-.506 1.576c-.184.277-.457.591-.817.944l-3.073 3.015-.23-.322h4.994v.736h-5.65Zm17.791-6.099c.491 0 .916.096 1.277.288.368.184.652.468.851.852.207.383.311.866.311 1.449v3.51h-.817v-3.429c0-.637-.153-1.116-.46-1.438-.299-.33-.725-.495-1.277-.495-.415 0-.775.088-1.082.265a1.746 1.746 0 0 0-.702.747c-.161.323-.242.714-.242 1.174v3.176h-.817v-3.429c0-.637-.153-1.116-.46-1.438-.307-.33-.736-.495-1.289-.495-.406 0-.763.088-1.07.265a1.724 1.724 0 0 0-.713.747c-.161.323-.242.714-.242 1.174v3.176h-.817v-6.041h.783v1.634l-.127-.288c.184-.437.48-.778.886-1.024.414-.253.901-.38 1.461-.38.591 0 1.094.15 1.508.449.414.292.683.733.805 1.324l-.322-.127c.177-.491.487-.886.932-1.185.453-.307.994-.461 1.623-.461Zm4.655 6.099v-6.041h.817v6.041h-.817Zm.414-7.376a.578.578 0 0 1-.426-.172.567.567 0 0 1-.173-.415c0-.161.058-.295.173-.402a.58.58 0 0 1 .426-.173c.169 0 .311.054.426.161a.53.53 0 0 1 .172.403.578.578 0 0 1-.172.426.557.557 0 0 1-.426.172Z"/><path fill="#ADB3B8" d="M55.424 349.918v-8.055h3.015c.682 0 1.27.112 1.76.334.491.215.867.529 1.128.944.268.406.403.901.403 1.484 0 .568-.135 1.059-.403 1.473-.261.406-.637.721-1.128.943-.49.223-1.078.334-1.76.334h-2.543l.38-.403v2.946h-.852Zm.851-2.877-.38-.414h2.52c.806 0 1.416-.173 1.83-.518.422-.353.633-.847.633-1.484 0-.644-.211-1.143-.633-1.496-.414-.353-1.024-.529-1.83-.529h-2.52l.38-.403v4.844Zm12.813 2.877v-8.055h3.015c.683 0 1.27.112 1.76.334.491.215.867.529 1.128.944.268.406.403.901.403 1.484 0 .568-.135 1.059-.403 1.473-.26.406-.637.721-1.128.943-.49.215-1.078.322-1.76.322H69.56l.38-.391v2.946h-.852Zm5.5 0-2.071-2.923h.92l2.083 2.923h-.932Zm-4.648-2.877-.38-.402h2.52c.805 0 1.415-.177 1.83-.53.421-.353.632-.847.632-1.484 0-.644-.21-1.143-.633-1.496-.414-.353-1.024-.529-1.83-.529h-2.52l.38-.403v4.844Zm12.672 2.877v-8.055h.702l5.557 6.996h-.368v-6.996h.84v8.055h-.702l-5.546-6.996h.368v6.996h-.851Zm31.784 0v-8.055h3.475c.897 0 1.591.181 2.082.541.499.361.748.871.748 1.531 0 .437-.103.805-.311 1.104a1.854 1.854 0 0 1-.828.679 2.78 2.78 0 0 1-1.139.23l.195-.276c.514 0 .956.081 1.324.242.376.153.667.387.874.702.207.306.311.69.311 1.15 0 .683-.253 1.212-.76 1.588-.498.376-1.254.564-2.266.564h-3.705Zm.851-.702h2.842c.706 0 1.247-.119 1.623-.357.375-.245.563-.633.563-1.162 0-.521-.188-.901-.563-1.139-.376-.245-.917-.368-1.623-.368h-2.934v-.702h2.658c.644 0 1.143-.123 1.496-.368.36-.246.541-.61.541-1.093 0-.491-.181-.856-.541-1.094-.353-.245-.852-.368-1.496-.368h-2.566v6.651Z"/><path fill="#F1F2F3" d="M97.474 350.918V340.85h4.401c1.093 0 2.052.211 2.877.633.824.421 1.467 1.006 1.927 1.754.46.748.69 1.63.69 2.647 0 1.007-.23 1.889-.69 2.646-.46.748-1.103 1.333-1.927 1.755-.825.422-1.784.633-2.877.633h-4.401Zm1.87-1.582h2.445c.757 0 1.409-.144 1.956-.432a3.05 3.05 0 0 0 1.28-1.208c.307-.518.46-1.122.46-1.812 0-.7-.153-1.304-.46-1.812a3.059 3.059 0 0 0-1.28-1.209c-.547-.287-1.199-.431-1.956-.431h-2.445v6.904Z"/><path fill="#66EB78" d="M149.5 345.465h4.258v.725H149.5v-.725Zm.092 3.717h4.845v.736h-5.696v-8.055h5.523v.737h-4.672v6.582Zm10.322.805c-.606 0-1.166-.1-1.68-.299a4.047 4.047 0 0 1-1.335-.863 4.038 4.038 0 0 1-.886-1.3 4.224 4.224 0 0 1-.311-1.634c0-.591.104-1.136.311-1.634.215-.499.51-.932.886-1.301a4.02 4.02 0 0 1 1.346-.851 4.456 4.456 0 0 1 1.68-.311c.583 0 1.132.1 1.646.299.514.192.947.484 1.3.875l-.541.541a2.929 2.929 0 0 0-1.093-.725 3.546 3.546 0 0 0-1.289-.23c-.483 0-.932.084-1.346.253a3.102 3.102 0 0 0-1.082.702 3.316 3.316 0 0 0-.725 1.058c-.168.399-.253.84-.253 1.324 0 .483.085.928.253 1.334.177.399.419.752.725 1.059.307.299.668.533 1.082.702.414.161.863.242 1.346.242.461 0 .89-.077 1.289-.231a3.049 3.049 0 0 0 1.093-.736l.541.541a3.366 3.366 0 0 1-1.3.886 4.552 4.552 0 0 1-1.657.299Zm8.125 0c-.606 0-1.17-.1-1.692-.299a4.17 4.17 0 0 1-1.346-.863 4.208 4.208 0 0 1-.886-1.3 4.224 4.224 0 0 1-.311-1.634c0-.591.104-1.132.311-1.623.215-.498.51-.932.886-1.3a3.92 3.92 0 0 1 1.346-.863 4.489 4.489 0 0 1 1.692-.311c.606 0 1.166.104 1.68.311.514.199.959.483 1.334.851.384.369.679.802.886 1.301a4.08 4.08 0 0 1 .323 1.634c0 .59-.108 1.135-.323 1.634a3.8 3.8 0 0 1-.886 1.3c-.375.368-.82.656-1.334.863a4.614 4.614 0 0 1-1.68.299Zm0-.759c.483 0 .928-.081 1.334-.242a3.214 3.214 0 0 0 1.071-.702c.306-.307.544-.66.713-1.059.169-.406.253-.851.253-1.334a3.36 3.36 0 0 0-.253-1.324 3.161 3.161 0 0 0-.713-1.058 2.987 2.987 0 0 0-1.071-.702 3.439 3.439 0 0 0-1.334-.253c-.484 0-.932.084-1.347.253a3.098 3.098 0 0 0-1.081.702 3.403 3.403 0 0 0-.714 1.058c-.168.399-.253.84-.253 1.324 0 .475.085.916.253 1.323.177.406.415.763.714 1.07.307.299.667.533 1.081.702.415.161.863.242 1.347.242Z"/><path fill="#0872FD" d="M185.764 349.976c-.629 0-1.181-.131-1.657-.392a2.944 2.944 0 0 1-1.116-1.093c-.268-.468-.403-1.001-.403-1.599 0-.599.127-1.128.38-1.588.261-.46.614-.821 1.059-1.082a2.924 2.924 0 0 1 1.519-.403c.567 0 1.07.131 1.507.392a2.68 2.68 0 0 1 1.047 1.081c.253.461.38.994.38 1.6a.74.74 0 0 1-.012.126v.127h-5.258v-.61h4.821l-.322.242c0-.438-.096-.825-.288-1.163a2.025 2.025 0 0 0-.759-.805 2.137 2.137 0 0 0-1.116-.288c-.415 0-.787.096-1.116.288a2 2 0 0 0-.771.805 2.475 2.475 0 0 0-.277 1.186v.126c0 .461.1.867.3 1.22.207.345.491.617.851.817a2.67 2.67 0 0 0 1.254.288c.369 0 .71-.066 1.024-.196.323-.13.599-.33.829-.598l.46.529a2.575 2.575 0 0 1-1.012.736 3.36 3.36 0 0 1-1.324.254Zm4.042-2.82v-.713h3.015v.713h-3.015Zm5.015 2.762v-8.055h3.015c.683 0 1.27.112 1.761.334.491.215.866.529 1.127.944.269.406.403.901.403 1.484 0 .568-.134 1.059-.403 1.473-.261.406-.636.721-1.127.943-.491.223-1.078.334-1.761.334h-2.543l.38-.403v2.946h-.852Zm.852-2.877-.38-.414h2.52c.806 0 1.415-.173 1.83-.518.422-.353.633-.847.633-1.484 0-.644-.211-1.143-.633-1.496-.415-.353-1.024-.529-1.83-.529h-2.52l.38-.403v4.844Zm8.055-1.576h4.257v.725h-4.257v-.725Zm.092 3.717h4.844v.736h-5.696v-8.055h5.523v.737h-4.671v6.582Zm6.846.736v-8.055h3.279c.859 0 1.611.173 2.255.518a3.71 3.71 0 0 1 1.519 1.415c.361.606.541 1.305.541 2.095 0 .79-.18 1.488-.541 2.094a3.79 3.79 0 0 1-1.519 1.427c-.644.337-1.396.506-2.255.506h-3.279Zm.851-.736h2.382c.713 0 1.331-.139 1.852-.415.53-.284.94-.671 1.232-1.162.291-.498.437-1.07.437-1.714 0-.652-.146-1.224-.437-1.715a3.031 3.031 0 0 0-1.232-1.151c-.521-.283-1.139-.425-1.852-.425h-2.382v6.582Zm7.254.736 3.682-8.055h.84l3.682 8.055h-.897l-3.383-7.56h.345l-3.383 7.56h-.886Zm1.45-2.152.253-.69h4.683l.253.69h-5.189Zm8.087 2.152v-8.055h.851v7.319h4.511v.736h-5.362Z"/><path fill="#ADB3B8" d="M742.346 349.918v-7.709l.368.391h-2.267v-.737h2.727v8.055h-.828Zm2.604 0v-.587l3.348-3.279c.307-.299.537-.56.691-.783.153-.23.257-.445.31-.644.054-.2.081-.387.081-.564 0-.468-.161-.836-.483-1.105-.315-.268-.783-.402-1.404-.402-.476 0-.898.073-1.266.218-.36.146-.671.372-.932.679l-.587-.506a3.094 3.094 0 0 1 1.208-.852 4.347 4.347 0 0 1 1.646-.299c.544 0 1.016.088 1.415.265.399.169.706.418.921.748.222.33.333.717.333 1.162a2.743 2.743 0 0 1-.506 1.576c-.184.277-.456.591-.817.944l-3.072 3.015-.23-.322h4.994v.736h-5.65Zm6.848 1.68.506-2.129.092.495a.634.634 0 0 1-.449-.173.605.605 0 0 1-.172-.448c0-.184.057-.334.172-.449a.62.62 0 0 1 .438-.173c.176 0 .318.062.425.184a.62.62 0 0 1 .173.438 1.23 1.23 0 0 1-.058.391 4.92 4.92 0 0 1-.092.276l-.483 1.588h-.552Zm4.909-1.611a4.946 4.946 0 0 1-1.657-.276c-.514-.192-.928-.445-1.242-.76l.402-.655c.261.268.61.49 1.048.667.444.176.928.265 1.449.265.668 0 1.178-.146 1.531-.438.36-.291.541-.682.541-1.173s-.177-.883-.53-1.174c-.345-.292-.893-.437-1.645-.437h-.576v-.61l2.486-3.118.115.322h-4.488v-.737h5.178v.587l-2.485 3.118-.403-.264h.311c.966 0 1.688.215 2.163.644.483.43.725.982.725 1.657 0 .453-.107.859-.322 1.22-.215.36-.541.644-.978.851-.43.207-.971.311-1.623.311Zm3.952-2.186v-.599l4.269-5.339h.921l-4.235 5.339-.448-.138h6.478v.737h-6.985Zm4.546 2.117v-2.117l.023-.737V345.2h.805v4.718h-.828Zm5.72.069a4.91 4.91 0 0 1-1.645-.276c-.522-.192-.936-.445-1.243-.76l.403-.655c.253.268.598.49 1.036.667a3.87 3.87 0 0 0 1.438.265c.683 0 1.2-.15 1.553-.449.361-.307.541-.706.541-1.197 0-.345-.084-.64-.253-.886-.161-.253-.437-.449-.829-.587-.391-.138-.928-.207-1.61-.207h-1.715l.414-4.039h4.407v.737h-4.073l.426-.403-.357 3.383-.426-.414h1.508c.813 0 1.465.099 1.956.299.491.199.844.479 1.058.84.223.353.334.767.334 1.243 0 .452-.107.866-.322 1.242-.215.369-.537.66-.967.875-.429.215-.974.322-1.634.322Zm15.076-6.168c.491 0 .916.096 1.277.288.368.184.652.468.851.852.207.383.311.866.311 1.449v3.51h-.817v-3.429c0-.637-.153-1.116-.46-1.438-.299-.33-.725-.495-1.277-.495-.415 0-.775.088-1.082.265a1.746 1.746 0 0 0-.702.747c-.161.323-.242.714-.242 1.174v3.176h-.817v-3.429c0-.637-.153-1.116-.46-1.438-.307-.33-.736-.495-1.289-.495-.406 0-.763.088-1.07.265a1.724 1.724 0 0 0-.713.747c-.161.323-.242.714-.242 1.174v3.176h-.817v-6.041h.783v1.634l-.127-.288c.184-.437.48-.778.886-1.024.414-.253.901-.38 1.461-.38.591 0 1.094.15 1.508.449.414.292.683.733.805 1.323l-.322-.126c.177-.491.487-.886.932-1.185.453-.307.994-.461 1.623-.461Zm4.655 6.099v-6.041h.817v6.041h-.817Zm.414-7.376a.578.578 0 0 1-.426-.172.567.567 0 0 1-.173-.415c0-.161.058-.295.173-.402a.58.58 0 0 1 .426-.173c.169 0 .31.054.426.161a.53.53 0 0 1 .172.403.578.578 0 0 1-.172.426.557.557 0 0 1-.426.172Zm2.676 7.376v-8.538h.817v8.538h-.817Zm5.656.058c-.629 0-1.181-.131-1.657-.392a2.93 2.93 0 0 1-1.116-1.093c-.269-.468-.403-1.001-.403-1.599 0-.599.127-1.128.38-1.588a2.87 2.87 0 0 1 1.058-1.082 2.927 2.927 0 0 1 1.519-.403c.568 0 1.07.131 1.508.392a2.68 2.68 0 0 1 1.047 1.081c.253.461.379.994.379 1.6 0 .038-.003.08-.011.126v.127h-5.259v-.61h4.822l-.322.242c0-.438-.096-.825-.288-1.163a2.02 2.02 0 0 0-.76-.805 2.137 2.137 0 0 0-1.116-.288c-.414 0-.786.096-1.116.288a2 2 0 0 0-.771.805 2.486 2.486 0 0 0-.276 1.186v.126c0 .461.1.867.299 1.22.207.345.491.617.852.817a2.67 2.67 0 0 0 1.254.288c.368 0 .709-.066 1.024-.196.322-.13.598-.33.828-.598l.461.529a2.579 2.579 0 0 1-1.013.736c-.399.169-.84.254-1.323.254Zm6.001 0c-.499 0-.971-.07-1.416-.208-.444-.145-.793-.326-1.047-.54l.369-.645c.245.184.56.345.943.483.384.131.786.196 1.208.196.576 0 .99-.088 1.243-.265a.855.855 0 0 0 .38-.724c0-.223-.073-.396-.219-.518a1.25 1.25 0 0 0-.552-.288 6.068 6.068 0 0 0-.771-.173 15.943 15.943 0 0 1-.852-.161 3.266 3.266 0 0 1-.759-.264 1.606 1.606 0 0 1-.564-.495c-.138-.207-.207-.483-.207-.829 0-.329.092-.625.276-.886.184-.26.453-.464.806-.609.36-.154.797-.231 1.311-.231.392 0 .783.054 1.174.162.391.099.713.233.967.402l-.357.656a2.666 2.666 0 0 0-.863-.391 3.478 3.478 0 0 0-.921-.127c-.544 0-.947.096-1.208.288-.253.184-.38.422-.38.713 0 .231.07.411.208.541.145.131.333.234.563.311.238.069.495.126.771.173.284.046.564.103.84.172.284.061.541.15.771.265a1.3 1.3 0 0 1 .564.472c.146.199.219.464.219.794 0 .352-.1.659-.299.92-.192.253-.476.453-.852.598-.368.138-.817.208-1.346.208Z"/><path fill="#fff" d="M381.446 376.048h.936v4.812c0 .708.178 1.22.534 1.536.356.312.822.468 1.398.468.572 0 1.034-.156 1.386-.468.356-.316.534-.828.534-1.536v-4.812h.936v4.812c0 .632-.118 1.162-.354 1.59a2.272 2.272 0 0 1-.99.96c-.428.212-.932.318-1.512.318s-1.086-.106-1.518-.318a2.307 2.307 0 0 1-.996-.96c-.236-.428-.354-.958-.354-1.59v-4.812Zm10.071 7.68c-.556 0-1.02-.078-1.392-.234-.372-.16-.654-.378-.846-.654-.192-.28-.294-.6-.306-.96h.9c.02.364.166.638.438.822.276.18.65.27 1.122.27.248 0 .476-.04.684-.12.208-.08.374-.19.498-.33a.696.696 0 0 0 .186-.474c0-.224-.082-.4-.246-.528-.164-.128-.426-.24-.786-.336l-1.116-.36c-.484-.152-.856-.36-1.116-.624a1.341 1.341 0 0 1-.384-.96c0-.464.204-.836.612-1.116.408-.28.944-.42 1.608-.42.704 0 1.25.144 1.638.432.388.288.59.648.606 1.08h-.924a.751.751 0 0 0-.384-.57c-.22-.132-.532-.198-.936-.198-.388 0-.692.088-.912.264-.216.172-.324.364-.324.576 0 .396.34.688 1.02.876l1.14.384c.492.148.868.342 1.128.582.264.24.396.546.396.918 0 .288-.094.56-.282.816a2.02 2.02 0 0 1-.798.624c-.344.16-.752.24-1.224.24Zm6.233 0a2.41 2.41 0 0 1-1.332-.378 2.694 2.694 0 0 1-.924-1.062c-.224-.452-.336-.972-.336-1.56 0-.628.112-1.168.336-1.62.224-.452.53-.798.918-1.038a2.48 2.48 0 0 1 1.338-.366c.436 0 .808.088 1.116.264.308.176.556.414.744.714.188.3.318.64.39 1.02.076.376.098.766.066 1.17h-4.152v-.576h3.534l-.276.18a3.24 3.24 0 0 0-.042-.708 2.022 2.022 0 0 0-.21-.648c-.104-.2-.25-.36-.438-.48s-.428-.18-.72-.18c-.368 0-.676.094-.924.282a1.716 1.716 0 0 0-.558.744 2.596 2.596 0 0 0-.186.99v.384c0 .4.06.758.18 1.074.124.316.308.566.552.75.244.184.552.276.924.276s.678-.09.918-.27c.24-.18.386-.446.438-.798h.972a2.13 2.13 0 0 1-.408.984 2.107 2.107 0 0 1-.81.63 2.67 2.67 0 0 1-1.11.222Zm9.036 0c-.46 0-.89-.124-1.29-.372a2.746 2.746 0 0 1-.96-1.05c-.244-.452-.366-.986-.366-1.602 0-.632.122-1.172.366-1.62.244-.448.564-.79.96-1.026.4-.236.83-.354 1.29-.354.324 0 .614.05.87.15.26.096.486.23.678.402.192.172.35.368.474.588.128.216.222.444.282.684l-.96.084a1.563 1.563 0 0 0-.504-.786 1.275 1.275 0 0 0-.852-.294c-.284 0-.552.082-.804.246-.248.16-.45.402-.606.726-.156.32-.234.72-.234 1.2 0 .444.07.83.21 1.158.144.324.34.576.588.756.248.18.53.27.846.27.444 0 .78-.108 1.008-.324.232-.22.348-.524.348-.912h.96c0 .4-.094.756-.282 1.068a1.97 1.97 0 0 1-.804.738c-.344.18-.75.27-1.218.27Zm6.247 0c-.516 0-.976-.114-1.38-.342a2.403 2.403 0 0 1-.948-1.014c-.232-.448-.348-1-.348-1.656 0-.66.116-1.212.348-1.656.232-.448.548-.786.948-1.014a2.759 2.759 0 0 1 1.38-.342c.512 0 .968.114 1.368.342.404.228.72.566.948 1.014.232.444.348.996.348 1.656 0 .656-.116 1.208-.348 1.656a2.355 2.355 0 0 1-.948 1.014c-.4.228-.856.342-1.368.342Zm-.024-.816c.372 0 .688-.088.948-.264.26-.18.456-.434.588-.762.136-.328.204-.718.204-1.17 0-.684-.142-1.222-.426-1.614-.284-.396-.706-.594-1.266-.594-.376 0-.694.09-.954.27-.256.176-.452.43-.588.762-.132.328-.198.72-.198 1.176 0 .676.142 1.212.426 1.608.288.392.71.588 1.266.588Zm4.511.672V375.4h.936v8.184h-.936Zm5.439.144c-.516 0-.976-.114-1.38-.342a2.403 2.403 0 0 1-.948-1.014c-.232-.448-.348-1-.348-1.656 0-.66.116-1.212.348-1.656.232-.448.548-.786.948-1.014a2.759 2.759 0 0 1 1.38-.342c.512 0 .968.114 1.368.342.404.228.72.566.948 1.014.232.444.348.996.348 1.656 0 .656-.116 1.208-.348 1.656a2.355 2.355 0 0 1-.948 1.014c-.4.228-.856.342-1.368.342Zm-.024-.816c.372 0 .688-.088.948-.264.26-.18.456-.434.588-.762.136-.328.204-.718.204-1.17 0-.684-.142-1.222-.426-1.614-.284-.396-.706-.594-1.266-.594-.376 0-.694.09-.954.27-.256.176-.452.43-.588.762-.132.328-.198.72-.198 1.176 0 .676.142 1.212.426 1.608.288.392.71.588 1.266.588Zm4.511.672v-5.748h.936v5.748h-.936Zm.648-2.592c0-.728.07-1.332.21-1.812.14-.484.344-.844.612-1.08.272-.24.602-.36.99-.36.128 0 .244.01.348.03.108.016.216.042.324.078l-.06.924a2.882 2.882 0 0 0-.366-.09 1.726 1.726 0 0 0-.354-.042c-.34 0-.614.098-.822.294-.208.192-.36.464-.456.816a4.948 4.948 0 0 0-.138 1.242h-.288Zm8.299 2.736c-.312 0-.592-.06-.84-.18s-.444-.3-.588-.54c-.144-.24-.216-.54-.216-.9v-5.856h.924v5.832c0 .592.276.888.828.888.164 0 .322-.018.474-.054.156-.036.33-.09.522-.162l.132.672c-.204.088-.408.16-.612.216-.2.056-.408.084-.624.084Zm-2.568-5.232v-.648h3.66v.648h-3.66Zm7.392 5.232c-.516 0-.976-.114-1.38-.342a2.403 2.403 0 0 1-.948-1.014c-.232-.448-.348-1-.348-1.656 0-.66.116-1.212.348-1.656.232-.448.548-.786.948-1.014a2.759 2.759 0 0 1 1.38-.342c.512 0 .968.114 1.368.342.404.228.72.566.948 1.014.232.444.348.996.348 1.656 0 .656-.116 1.208-.348 1.656a2.355 2.355 0 0 1-.948 1.014c-.4.228-.856.342-1.368.342Zm-.024-.816c.372 0 .688-.088.948-.264.26-.18.456-.434.588-.762.136-.328.204-.718.204-1.17 0-.684-.142-1.222-.426-1.614-.284-.396-.706-.594-1.266-.594-.376 0-.694.09-.954.27-.256.176-.452.43-.588.762-.132.328-.198.72-.198 1.176 0 .676.142 1.212.426 1.608.288.392.71.588 1.266.588Zm9.41.816c-.464 0-.89-.124-1.278-.372a2.693 2.693 0 0 1-.93-1.056c-.232-.456-.348-.992-.348-1.608 0-.612.114-1.142.342-1.59.228-.448.53-.792.906-1.032.38-.244.796-.366 1.248-.366.42 0 .788.102 1.104.306.32.204.568.498.744.882.176.384.264.848.264 1.392h-.36c0-.38-.076-.7-.228-.96a1.544 1.544 0 0 0-1.356-.792c-.312 0-.598.088-.858.264-.256.172-.462.42-.618.744-.152.32-.228.704-.228 1.152 0 .456.076.848.228 1.176.156.328.362.58.618.756a1.498 1.498 0 0 0 1.608.06c.244-.136.444-.334.6-.594.156-.264.234-.582.234-.954h.36c0 .556-.092 1.028-.276 1.416-.18.384-.426.676-.738.876-.308.2-.654.3-1.038.3Zm1.848-.144-.156-1.344v-6.84h.936v8.184h-.78Zm3.213 0v-5.748h.936v5.748h-.936Zm.648-2.592c0-.728.07-1.332.21-1.812.14-.484.344-.844.612-1.08.272-.24.602-.36.99-.36.128 0 .244.01.348.03.108.016.216.042.324.078l-.06.924a2.882 2.882 0 0 0-.366-.09 1.726 1.726 0 0 0-.354-.042c-.34 0-.614.098-.822.294-.208.192-.36.464-.456.816a4.948 4.948 0 0 0-.138 1.242h-.288Zm7.24 2.592-.12-1.26v-2.46c0-.516-.11-.886-.33-1.11-.22-.228-.55-.342-.99-.342-.248 0-.474.036-.678.108-.2.072-.36.184-.48.336-.116.148-.174.34-.174.576h-1.044c0-.416.102-.75.306-1.002.204-.256.484-.44.84-.552.36-.116.77-.174 1.23-.174.44 0 .83.074 1.17.222.34.148.606.384.798.708.192.32.288.738.288 1.254v3.696h-.816Zm-1.956.144c-.472 0-.862-.084-1.17-.252a1.706 1.706 0 0 1-.69-.654 1.69 1.69 0 0 1-.228-.846c0-.388.096-.704.288-.948.196-.244.462-.422.798-.534a3.462 3.462 0 0 1 1.134-.174c.3 0 .6.03.9.09.304.06.6.142.888.246v.588a4.294 4.294 0 0 0-.816-.228 4.538 4.538 0 0 0-.828-.084c-.384 0-.708.08-.972.24-.264.156-.396.424-.396.804 0 .28.1.52.3.72.204.2.528.3.972.3.312 0 .592-.072.84-.216.252-.148.45-.332.594-.552.148-.22.222-.44.222-.66h.228c0 .384-.084.74-.252 1.068-.164.328-.4.592-.708.792-.308.2-.676.3-1.104.3Zm4.018-5.88h.972l1.464 4.788h-.12l1.428-4.512h.78l1.416 4.524h-.108l1.464-4.8h.936l-1.884 5.736h-.912l-1.392-4.236h.144l-1.38 4.236h-.912l-1.896-5.736Zm14.591 5.88c-.464 0-.89-.124-1.278-.372a2.693 2.693 0 0 1-.93-1.056c-.232-.456-.348-.992-.348-1.608 0-.612.114-1.142.342-1.59.228-.448.53-.792.906-1.032.38-.244.796-.366 1.248-.366.42 0 .788.102 1.104.306.32.204.568.498.744.882.176.384.264.848.264 1.392h-.36c0-.38-.076-.7-.228-.96a1.544 1.544 0 0 0-1.356-.792c-.312 0-.598.088-.858.264-.256.172-.462.42-.618.744-.152.32-.228.704-.228 1.152 0 .456.076.848.228 1.176.156.328.362.58.618.756a1.498 1.498 0 0 0 1.608.06c.244-.136.444-.334.6-.594.156-.264.234-.582.234-.954h.36c0 .556-.092 1.028-.276 1.416-.18.384-.426.676-.738.876-.308.2-.654.3-1.038.3Zm1.848-.144-.156-1.344v-6.84h.936v8.184h-.78Zm3.213 0v-5.748h.936v5.748h-.936Zm.648-2.592c0-.728.07-1.332.21-1.812.14-.484.344-.844.612-1.08.272-.24.602-.36.99-.36.128 0 .244.01.348.03.108.016.216.042.324.078l-.06.924a2.882 2.882 0 0 0-.366-.09 1.726 1.726 0 0 0-.354-.042c-.34 0-.614.098-.822.294-.208.192-.36.464-.456.816a4.948 4.948 0 0 0-.138 1.242h-.288Zm4.216-4.5c-.192 0-.344-.054-.456-.162a.592.592 0 0 1-.168-.438c0-.176.056-.316.168-.42.112-.104.264-.156.456-.156s.344.052.456.156a.545.545 0 0 1 .168.42c0 .18-.056.326-.168.438-.112.108-.264.162-.456.162Zm-.468 7.092v-5.748h.936v5.748h-.936Zm2.518-5.736h1.068l1.8 4.932h-.132l1.8-4.932h1.068l-2.292 5.736h-1.02l-2.292-5.736Zm9.023 5.88a2.41 2.41 0 0 1-1.332-.378 2.694 2.694 0 0 1-.924-1.062c-.224-.452-.336-.972-.336-1.56 0-.628.112-1.168.336-1.62.224-.452.53-.798.918-1.038a2.48 2.48 0 0 1 1.338-.366c.436 0 .808.088 1.116.264.308.176.556.414.744.714.188.3.318.64.39 1.02.076.376.098.766.066 1.17h-4.152v-.576h3.534l-.276.18a3.24 3.24 0 0 0-.042-.708 2.022 2.022 0 0 0-.21-.648c-.104-.2-.25-.36-.438-.48s-.428-.18-.72-.18c-.368 0-.676.094-.924.282a1.716 1.716 0 0 0-.558.744 2.596 2.596 0 0 0-.186.99v.384c0 .4.06.758.18 1.074.124.316.308.566.552.75.244.184.552.276.924.276s.678-.09.918-.27c.24-.18.386-.446.438-.798h.972a2.13 2.13 0 0 1-.408.984 2.107 2.107 0 0 1-.81.63 2.67 2.67 0 0 1-1.11.222Zm4.172-.144v-5.748h.936v5.748h-.936Zm.648-2.592c0-.728.07-1.332.21-1.812.14-.484.344-.844.612-1.08.272-.24.602-.36.99-.36.128 0 .244.01.348.03.108.016.216.042.324.078l-.06.924a2.882 2.882 0 0 0-.366-.09 1.726 1.726 0 0 0-.354-.042c-.34 0-.614.098-.822.294-.208.192-.36.464-.456.816a4.948 4.948 0 0 0-.138 1.242h-.288Zm5.752 2.736c-.556 0-1.02-.078-1.392-.234-.372-.16-.654-.378-.846-.654-.192-.28-.294-.6-.306-.96h.9c.02.364.166.638.438.822.276.18.65.27 1.122.27.248 0 .476-.04.684-.12.208-.08.374-.19.498-.33a.696.696 0 0 0 .186-.474c0-.224-.082-.4-.246-.528-.164-.128-.426-.24-.786-.336l-1.116-.36c-.484-.152-.856-.36-1.116-.624a1.341 1.341 0 0 1-.384-.96c0-.464.204-.836.612-1.116.408-.28.944-.42 1.608-.42.704 0 1.25.144 1.638.432.388.288.59.648.606 1.08h-.924a.751.751 0 0 0-.384-.57c-.22-.132-.532-.198-.936-.198-.388 0-.692.088-.912.264-.216.172-.324.364-.324.576 0 .396.34.688 1.02.876l1.14.384c.492.148.868.342 1.128.582.264.24.396.546.396.918 0 .288-.094.56-.282.816a2.02 2.02 0 0 1-.798.624c-.344.16-.752.24-1.224.24Zm3.881-5.172-.672-.36c.228-.116.42-.246.576-.39.16-.148.264-.318.312-.51a.835.835 0 0 1-.456-.186.52.52 0 0 1-.18-.414c0-.176.066-.324.198-.444a.712.712 0 0 1 .498-.18.71.71 0 0 1 .432.132c.12.084.212.198.276.342.064.14.096.298.096.474 0 .288-.094.57-.282.846a2.267 2.267 0 0 1-.798.69Zm9.314 5.028-.12-1.26v-2.46c0-.516-.11-.886-.33-1.11-.22-.228-.55-.342-.99-.342-.248 0-.474.036-.678.108-.2.072-.36.184-.48.336-.116.148-.174.34-.174.576h-1.044c0-.416.102-.75.306-1.002.204-.256.484-.44.84-.552.36-.116.77-.174 1.23-.174.44 0 .83.074 1.17.222.34.148.606.384.798.708.192.32.288.738.288 1.254v3.696h-.816Zm-1.956.144c-.472 0-.862-.084-1.17-.252a1.706 1.706 0 0 1-.69-.654 1.69 1.69 0 0 1-.228-.846c0-.388.096-.704.288-.948.196-.244.462-.422.798-.534a3.462 3.462 0 0 1 1.134-.174c.3 0 .6.03.9.09.304.06.6.142.888.246v.588a4.294 4.294 0 0 0-.816-.228 4.538 4.538 0 0 0-.828-.084c-.384 0-.708.08-.972.24-.264.156-.396.424-.396.804 0 .28.1.52.3.72.204.2.528.3.972.3.312 0 .592-.072.84-.216.252-.148.45-.332.594-.552.148-.22.222-.44.222-.66h.228c0 .384-.084.74-.252 1.068-.164.328-.4.592-.708.792-.308.2-.676.3-1.104.3Zm6.778 0c-.312 0-.592-.06-.84-.18s-.444-.3-.588-.54c-.144-.24-.216-.54-.216-.9v-5.856h.924v5.832c0 .592.276.888.828.888.164 0 .322-.018.474-.054.156-.036.33-.09.522-.162l.132.672c-.204.088-.408.16-.612.216-.2.056-.408.084-.624.084Zm-2.568-5.232v-.648h3.66v.648h-3.66Zm7.079 5.232c-.312 0-.592-.06-.84-.18s-.444-.3-.588-.54c-.144-.24-.216-.54-.216-.9v-5.856h.924v5.832c0 .592.276.888.828.888.164 0 .322-.018.474-.054.156-.036.33-.09.522-.162l.132.672c-.204.088-.408.16-.612.216-.2.056-.408.084-.624.084Zm-2.568-5.232v-.648h3.66v.648h-3.66Zm7.308 5.232a2.41 2.41 0 0 1-1.332-.378 2.694 2.694 0 0 1-.924-1.062c-.224-.452-.336-.972-.336-1.56 0-.628.112-1.168.336-1.62.224-.452.53-.798.918-1.038a2.48 2.48 0 0 1 1.338-.366c.436 0 .808.088 1.116.264.308.176.556.414.744.714.188.3.318.64.39 1.02.076.376.098.766.066 1.17h-4.152v-.576h3.534l-.276.18a3.24 3.24 0 0 0-.042-.708 2.022 2.022 0 0 0-.21-.648c-.104-.2-.25-.36-.438-.48s-.428-.18-.72-.18c-.368 0-.676.094-.924.282a1.716 1.716 0 0 0-.558.744 2.596 2.596 0 0 0-.186.99v.384c0 .4.06.758.18 1.074.124.316.308.566.552.75.244.184.552.276.924.276s.678-.09.918-.27c.24-.18.386-.446.438-.798h.972a2.13 2.13 0 0 1-.408.984 2.107 2.107 0 0 1-.81.63 2.67 2.67 0 0 1-1.11.222Zm8.252-.144v-3.372c0-.548-.132-.964-.396-1.248-.26-.288-.616-.432-1.068-.432-.344 0-.642.094-.894.282-.252.188-.446.458-.582.81-.136.348-.204.764-.204 1.248h-.36c0-.668.088-1.238.264-1.71.176-.472.432-.832.768-1.08.34-.252.752-.378 1.236-.378.452 0 .838.102 1.158.306.324.2.572.488.744.864.172.376.258.822.258 1.338v3.372h-.924Zm-4.08 0v-5.736h.804l.132 1.32v4.416h-.936Zm9.006.144c-.312 0-.592-.06-.84-.18s-.444-.3-.588-.54c-.144-.24-.216-.54-.216-.9v-5.856h.924v5.832c0 .592.276.888.828.888.164 0 .322-.018.474-.054.156-.036.33-.09.522-.162l.132.672c-.204.088-.408.16-.612.216-.2.056-.408.084-.624.084Zm-2.568-5.232v-.648h3.66v.648h-3.66Zm5.844-2.004c-.192 0-.344-.054-.456-.162a.592.592 0 0 1-.168-.438c0-.176.056-.316.168-.42.112-.104.264-.156.456-.156s.344.052.456.156a.545.545 0 0 1 .168.42c0 .18-.056.326-.168.438-.112.108-.264.162-.456.162Zm-.468 7.092v-5.748h.936v5.748h-.936Zm5.59.144c-.516 0-.976-.114-1.38-.342a2.403 2.403 0 0 1-.948-1.014c-.232-.448-.348-1-.348-1.656 0-.66.116-1.212.348-1.656.232-.448.548-.786.948-1.014a2.759 2.759 0 0 1 1.38-.342c.512 0 .968.114 1.368.342.404.228.72.566.948 1.014.232.444.348.996.348 1.656 0 .656-.116 1.208-.348 1.656a2.355 2.355 0 0 1-.948 1.014c-.4.228-.856.342-1.368.342Zm-.024-.816c.372 0 .688-.088.948-.264.26-.18.456-.434.588-.762.136-.328.204-.718.204-1.17 0-.684-.142-1.222-.426-1.614-.284-.396-.706-.594-1.266-.594-.376 0-.694.09-.954.27-.256.176-.452.43-.588.762-.132.328-.198.72-.198 1.176 0 .676.142 1.212.426 1.608.288.392.71.588 1.266.588Zm8.591.672v-3.372c0-.548-.132-.964-.396-1.248-.26-.288-.616-.432-1.068-.432-.344 0-.642.094-.894.282-.252.188-.446.458-.582.81-.136.348-.204.764-.204 1.248h-.36c0-.668.088-1.238.264-1.71.176-.472.432-.832.768-1.08.34-.252.752-.378 1.236-.378.452 0 .838.102 1.158.306.324.2.572.488.744.864.172.376.258.822.258 1.338v3.372h-.924Zm-4.08 0v-5.736h.804l.132 1.32v4.416h-.936Zm-184.488 8.264h.972l1.464 4.788h-.12l1.428-4.512h.78l1.416 4.524h-.108l1.464-4.8h.936l-1.884 5.736h-.912l-1.392-4.236h.144l-1.38 4.236h-.912l-1.896-5.736Zm13.771 5.736v-3.372c0-.548-.132-.964-.396-1.248-.26-.288-.616-.432-1.068-.432-.344 0-.642.094-.894.282-.252.188-.446.458-.582.81-.136.348-.204.764-.204 1.248h-.36c0-.668.088-1.238.264-1.71.176-.472.432-.832.768-1.08.34-.252.752-.378 1.236-.378.452 0 .838.102 1.158.306.324.2.572.488.744.864.172.376.258.822.258 1.338v3.372h-.924Zm-4.08 0V389.4h.936v8.184h-.936Zm9.234.144a2.41 2.41 0 0 1-1.332-.378 2.694 2.694 0 0 1-.924-1.062c-.224-.452-.336-.972-.336-1.56 0-.628.112-1.168.336-1.62.224-.452.53-.798.918-1.038a2.48 2.48 0 0 1 1.338-.366c.436 0 .808.088 1.116.264.308.176.556.414.744.714.188.3.318.64.39 1.02.076.376.098.766.066 1.17h-4.152v-.576h3.534l-.276.18a3.24 3.24 0 0 0-.042-.708 2.022 2.022 0 0 0-.21-.648c-.104-.2-.25-.36-.438-.48s-.428-.18-.72-.18c-.368 0-.676.094-.924.282a1.716 1.716 0 0 0-.558.744 2.596 2.596 0 0 0-.186.99v.384c0 .4.06.758.18 1.074.124.316.308.566.552.75.244.184.552.276.924.276s.678-.09.918-.27c.24-.18.386-.446.438-.798h.972a2.13 2.13 0 0 1-.408.984 2.107 2.107 0 0 1-.81.63 2.67 2.67 0 0 1-1.11.222Zm8.252-.144v-3.372c0-.548-.132-.964-.396-1.248-.26-.288-.616-.432-1.068-.432-.344 0-.642.094-.894.282-.252.188-.446.458-.582.81-.136.348-.204.764-.204 1.248h-.36c0-.668.088-1.238.264-1.71.176-.472.432-.832.768-1.08.34-.252.752-.378 1.236-.378.452 0 .838.102 1.158.306.324.2.572.488.744.864.172.376.258.822.258 1.338v3.372h-.924Zm-4.08 0v-5.736h.804l.132 1.32v4.416h-.936Zm11.854.144c-.312 0-.592-.06-.84-.18s-.444-.3-.588-.54c-.144-.24-.216-.54-.216-.9v-5.856h.924v5.832c0 .592.276.888.828.888.164 0 .322-.018.474-.054.156-.036.33-.09.522-.162l.132.672c-.204.088-.408.16-.612.216-.2.056-.408.084-.624.084Zm-2.568-5.232v-.648h3.66v.648h-3.66Zm9.396 5.088v-3.372c0-.548-.132-.964-.396-1.248-.26-.288-.616-.432-1.068-.432-.344 0-.642.094-.894.282-.252.188-.446.458-.582.81-.136.348-.204.764-.204 1.248h-.36c0-.668.088-1.238.264-1.71.176-.472.432-.832.768-1.08.34-.252.752-.378 1.236-.378.452 0 .838.102 1.158.306.324.2.572.488.744.864.172.376.258.822.258 1.338v3.372h-.924Zm-4.08 0V389.4h.936v8.184h-.936Zm9.234.144a2.41 2.41 0 0 1-1.332-.378 2.694 2.694 0 0 1-.924-1.062c-.224-.452-.336-.972-.336-1.56 0-.628.112-1.168.336-1.62.224-.452.53-.798.918-1.038a2.48 2.48 0 0 1 1.338-.366c.436 0 .808.088 1.116.264.308.176.556.414.744.714.188.3.318.64.39 1.02.076.376.098.766.066 1.17h-4.152v-.576h3.534l-.276.18a3.24 3.24 0 0 0-.042-.708 2.022 2.022 0 0 0-.21-.648c-.104-.2-.25-.36-.438-.48s-.428-.18-.72-.18c-.368 0-.676.094-.924.282a1.716 1.716 0 0 0-.558.744 2.596 2.596 0 0 0-.186.99v.384c0 .4.06.758.18 1.074.124.316.308.566.552.75.244.184.552.276.924.276s.678-.09.918-.27c.24-.18.386-.446.438-.798h.972a2.13 2.13 0 0 1-.408.984 2.107 2.107 0 0 1-.81.63 2.67 2.67 0 0 1-1.11.222Zm3.224-5.88h1.044l1.872 4.92h-.216l1.452-4.92h.96l-2.16 6.888c-.18.576-.42 1.02-.72 1.332-.3.312-.684.468-1.152.468-.252 0-.492-.036-.72-.108a3.743 3.743 0 0 1-.696-.312v-.864c.212.168.416.288.612.36.2.072.408.108.624.108.24 0 .44-.076.6-.228.164-.152.3-.348.408-.588.108-.236.2-.484.276-.744l.168-.576-2.352-5.736Zm6.178.708-.672-.36c.228-.116.42-.246.576-.39.16-.148.264-.318.312-.51a.835.835 0 0 1-.456-.186.52.52 0 0 1-.18-.414c0-.176.066-.324.198-.444a.712.712 0 0 1 .498-.18.71.71 0 0 1 .432.132c.12.084.212.198.276.342.064.14.096.298.096.474 0 .288-.094.57-.282.846a2.267 2.267 0 0 1-.798.69Zm2.915 5.028v-5.748h.936v5.748h-.936Zm.648-2.592c0-.728.07-1.332.21-1.812.14-.484.344-.844.612-1.08.272-.24.602-.36.99-.36.128 0 .244.01.348.03.108.016.216.042.324.078l-.06.924a2.882 2.882 0 0 0-.366-.09 1.726 1.726 0 0 0-.354-.042c-.34 0-.614.098-.822.294-.208.192-.36.464-.456.816a4.948 4.948 0 0 0-.138 1.242h-.288Zm5.679 2.736a2.41 2.41 0 0 1-1.332-.378 2.694 2.694 0 0 1-.924-1.062c-.224-.452-.336-.972-.336-1.56 0-.628.112-1.168.336-1.62.224-.452.53-.798.918-1.038a2.48 2.48 0 0 1 1.338-.366c.436 0 .808.088 1.116.264.308.176.556.414.744.714.188.3.318.64.39 1.02.076.376.098.766.066 1.17h-4.152v-.576h3.534l-.276.18a3.24 3.24 0 0 0-.042-.708 2.022 2.022 0 0 0-.21-.648c-.104-.2-.25-.36-.438-.48s-.428-.18-.72-.18c-.368 0-.676.094-.924.282a1.716 1.716 0 0 0-.558.744 2.596 2.596 0 0 0-.186.99v.384c0 .4.06.758.18 1.074.124.316.308.566.552.75.244.184.552.276.924.276s.678-.09.918-.27c.24-.18.386-.446.438-.798h.972a2.13 2.13 0 0 1-.408.984 2.107 2.107 0 0 1-.81.63 2.67 2.67 0 0 1-1.11.222Zm7.02-.144V389.4h.936v8.184h-.936Zm5.439.144c-.516 0-.976-.114-1.38-.342a2.403 2.403 0 0 1-.948-1.014c-.232-.448-.348-1-.348-1.656 0-.66.116-1.212.348-1.656.232-.448.548-.786.948-1.014a2.759 2.759 0 0 1 1.38-.342c.512 0 .968.114 1.368.342.404.228.72.566.948 1.014.232.444.348.996.348 1.656 0 .656-.116 1.208-.348 1.656a2.355 2.355 0 0 1-.948 1.014c-.4.228-.856.342-1.368.342Zm-.024-.816c.372 0 .688-.088.948-.264.26-.18.456-.434.588-.762.136-.328.204-.718.204-1.17 0-.684-.142-1.222-.426-1.614-.284-.396-.706-.594-1.266-.594-.376 0-.694.09-.954.27-.256.176-.452.43-.588.762-.132.328-.198.72-.198 1.176 0 .676.142 1.212.426 1.608.288.392.71.588 1.266.588Zm3.515-5.064h.972l1.464 4.788h-.12l1.428-4.512h.78l1.416 4.524h-.108l1.464-4.8h.936l-1.884 5.736h-.912l-1.392-4.236h.144l-1.38 4.236h-.912l-1.896-5.736Zm14.615 5.88c-.516 0-.976-.114-1.38-.342a2.403 2.403 0 0 1-.948-1.014c-.232-.448-.348-1-.348-1.656 0-.66.116-1.212.348-1.656.232-.448.548-.786.948-1.014a2.759 2.759 0 0 1 1.38-.342c.512 0 .968.114 1.368.342.404.228.72.566.948 1.014.232.444.348.996.348 1.656 0 .656-.116 1.208-.348 1.656a2.355 2.355 0 0 1-.948 1.014c-.4.228-.856.342-1.368.342Zm-.024-.816c.372 0 .688-.088.948-.264.26-.18.456-.434.588-.762.136-.328.204-.718.204-1.17 0-.684-.142-1.222-.426-1.614-.284-.396-.706-.594-1.266-.594-.376 0-.694.09-.954.27-.256.176-.452.43-.588.762-.132.328-.198.72-.198 1.176 0 .676.142 1.212.426 1.608.288.392.71.588 1.266.588Zm8.59.672v-3.372c0-.548-.132-.964-.396-1.248-.26-.288-.616-.432-1.068-.432-.344 0-.642.094-.894.282-.252.188-.446.458-.582.81-.136.348-.204.764-.204 1.248h-.36c0-.668.088-1.238.264-1.71.176-.472.432-.832.768-1.08.34-.252.752-.378 1.236-.378.452 0 .838.102 1.158.306.324.2.572.488.744.864.172.376.258.822.258 1.338v3.372h-.924Zm-4.08 0v-5.736h.804l.132 1.32v4.416h-.936Zm12.718.144c-.384 0-.732-.1-1.044-.3-.308-.2-.554-.492-.738-.876-.18-.388-.27-.86-.27-1.416h.36c0 .372.076.69.228.954.156.26.356.458.6.594.244.136.5.204.768.204.308 0 .59-.088.846-.264.256-.176.46-.428.612-.756.156-.328.234-.72.234-1.176 0-.448-.076-.832-.228-1.152a1.762 1.762 0 0 0-.618-.744 1.48 1.48 0 0 0-.858-.264 1.566 1.566 0 0 0-1.362.792c-.148.26-.222.58-.222.96h-.36c0-.544.088-1.008.264-1.392.18-.384.428-.678.744-.882a1.99 1.99 0 0 1 1.104-.306c.452 0 .866.122 1.242.366.38.24.684.584.912 1.032.228.448.342.978.342 1.59 0 .616-.116 1.152-.348 1.608a2.693 2.693 0 0 1-.93 1.056 2.326 2.326 0 0 1-1.278.372Zm-2.628-.144V389.4h.936v6.84l-.276 1.344h-.66Zm10.666 0-.12-1.26v-2.46c0-.516-.11-.886-.33-1.11-.22-.228-.55-.342-.99-.342-.248 0-.474.036-.678.108-.2.072-.36.184-.48.336-.116.148-.174.34-.174.576h-1.044c0-.416.102-.75.306-1.002.204-.256.484-.44.84-.552.36-.116.77-.174 1.23-.174.44 0 .83.074 1.17.222.34.148.606.384.798.708.192.32.288.738.288 1.254v3.696h-.816Zm-1.956.144c-.472 0-.862-.084-1.17-.252a1.706 1.706 0 0 1-.69-.654 1.69 1.69 0 0 1-.228-.846c0-.388.096-.704.288-.948.196-.244.462-.422.798-.534a3.462 3.462 0 0 1 1.134-.174c.3 0 .6.03.9.09.304.06.6.142.888.246v.588a4.294 4.294 0 0 0-.816-.228 4.538 4.538 0 0 0-.828-.084c-.384 0-.708.08-.972.24-.264.156-.396.424-.396.804 0 .28.1.52.3.72.204.2.528.3.972.3.312 0 .592-.072.84-.216.252-.148.45-.332.594-.552.148-.22.222-.44.222-.66h.228c0 .384-.084.74-.252 1.068-.164.328-.4.592-.708.792-.308.2-.676.3-1.104.3Zm6.777 0c-.312 0-.592-.06-.84-.18s-.444-.3-.588-.54c-.144-.24-.216-.54-.216-.9v-5.856h.924v5.832c0 .592.276.888.828.888.164 0 .322-.018.474-.054.156-.036.33-.09.522-.162l.132.672c-.204.088-.408.16-.612.216-.2.056-.408.084-.624.084Zm-2.568-5.232v-.648h3.66v.648h-3.66Zm7.08 5.232c-.312 0-.592-.06-.84-.18s-.444-.3-.588-.54c-.144-.24-.216-.54-.216-.9v-5.856h.924v5.832c0 .592.276.888.828.888.164 0 .322-.018.474-.054.156-.036.33-.09.522-.162l.132.672c-.204.088-.408.16-.612.216-.2.056-.408.084-.624.084Zm-2.568-5.232v-.648h3.66v.648h-3.66Zm7.307 5.232a2.41 2.41 0 0 1-1.332-.378 2.694 2.694 0 0 1-.924-1.062c-.224-.452-.336-.972-.336-1.56 0-.628.112-1.168.336-1.62.224-.452.53-.798.918-1.038a2.48 2.48 0 0 1 1.338-.366c.436 0 .808.088 1.116.264.308.176.556.414.744.714.188.3.318.64.39 1.02.076.376.098.766.066 1.17h-4.152v-.576h3.534l-.276.18a3.24 3.24 0 0 0-.042-.708 2.022 2.022 0 0 0-.21-.648c-.104-.2-.25-.36-.438-.48s-.428-.18-.72-.18c-.368 0-.676.094-.924.282a1.716 1.716 0 0 0-.558.744 2.596 2.596 0 0 0-.186.99v.384c0 .4.06.758.18 1.074.124.316.308.566.552.75.244.184.552.276.924.276s.678-.09.918-.27c.24-.18.386-.446.438-.798h.972a2.13 2.13 0 0 1-.408.984 2.107 2.107 0 0 1-.81.63 2.67 2.67 0 0 1-1.11.222Zm4.172-.144v-5.748h.936v5.748h-.936Zm.648-2.592c0-.728.07-1.332.21-1.812.14-.484.344-.844.612-1.08.272-.24.602-.36.99-.36.128 0 .244.01.348.03.108.016.216.042.324.078l-.06.924a2.882 2.882 0 0 0-.366-.09 1.726 1.726 0 0 0-.354-.042c-.34 0-.614.098-.822.294-.208.192-.36.464-.456.816a4.948 4.948 0 0 0-.138 1.242h-.288Zm2.74-3.144h1.044l1.872 4.92h-.216l1.452-4.92h.96l-2.16 6.888c-.18.576-.42 1.02-.72 1.332-.3.312-.684.468-1.152.468-.252 0-.492-.036-.72-.108a3.743 3.743 0 0 1-.696-.312v-.864c.212.168.416.288.612.36.2.072.408.108.624.108.24 0 .44-.076.6-.228.164-.152.3-.348.408-.588.108-.236.2-.484.276-.744l.168-.576-2.352-5.736Z"/><path stroke="#fff" stroke-dasharray="1.84 1.84" stroke-linecap="round" d="M375.902 386.578H346.5"/><path fill="#fff" d="M345.646 280.646a.502.502 0 0 1 .708 0l3.182 3.182a.502.502 0 0 1-.708.708L346 281.707l-2.828 2.829a.502.502 0 0 1-.708-.708l3.182-3.182Zm-.146 105.44a.5.5 0 0 1 1 0h-1Zm1-1.827a.5.5 0 0 1-1 0h1Zm-1-1.828a.5.5 0 0 1 1 0h-1Zm1-1.828a.5.5 0 1 1-1 0h1Zm-1-1.827a.5.5 0 0 1 1 0h-1Zm1-1.828a.5.5 0 0 1-1 0h1Zm-1-1.827a.5.5 0 0 1 1 0h-1Zm1-1.828a.5.5 0 0 1-1 0h1Zm-1-1.827a.5.5 0 1 1 1 0h-1Zm1-1.828a.5.5 0 0 1-1 0h1Zm-1-1.828a.5.5 0 0 1 1 0h-1Zm1-1.827a.5.5 0 0 1-1 0h1Zm-1-1.828a.5.5 0 0 1 1 0h-1Zm1-1.827a.5.5 0 0 1-1 0h1Zm-1-1.828a.5.5 0 0 1 1 0h-1Zm1-1.828a.5.5 0 1 1-1 0h1Zm-1-1.827a.5.5 0 0 1 1 0h-1Zm1-1.828a.5.5 0 0 1-1 0h1Zm-1-1.827a.5.5 0 0 1 1 0h-1Zm1-1.828a.5.5 0 0 1-1 0h1Zm-1-1.828a.5.5 0 0 1 1 0h-1Zm1-1.827a.5.5 0 0 1-1 0h1Zm-1-1.828a.5.5 0 0 1 1 0h-1Zm1-1.827a.5.5 0 0 1-1 0h1Zm-1-1.828a.5.5 0 0 1 1 0h-1Zm1-1.827a.5.5 0 0 1-1 0h1Zm-1-1.828a.5.5 0 0 1 1 0h-1Zm1-1.828a.5.5 0 1 1-1 0h1Zm-1-1.827a.5.5 0 0 1 1 0h-1Zm1-1.828a.5.5 0 0 1-1 0h1Zm-1-1.827a.5.5 0 1 1 1 0h-1Zm1-1.828a.5.5 0 0 1-1 0h1Zm-1-1.828a.5.5 0 0 1 1 0h-1Zm1-1.827a.5.5 0 0 1-1 0h1Zm-1-1.828a.5.5 0 0 1 1 0h-1Zm1-1.827a.5.5 0 0 1-1 0h1Zm-1-1.828a.5.5 0 0 1 1 0h-1Zm1-1.828a.5.5 0 0 1-1 .001l1-.001Zm-1-1.827a.5.5 0 0 1 1 0h-1Zm1-1.828a.5.5 0 0 1-1 0h1Zm-1-1.827a.5.5 0 0 1 1 0h-1Zm1-1.828a.5.5 0 0 1-1 0h1Zm-1-1.827a.5.5 0 1 1 1 0h-1Zm1-1.828a.5.5 0 0 1-1 0h1Zm-1-1.828a.5.5 0 0 1 1 0h-1Zm1-1.827a.5.5 0 0 1-1 0h1Zm-1-1.828a.5.5 0 0 1 1 0h-1Zm1-1.827a.5.5 0 0 1-1 0h1Zm-1-1.828a.5.5 0 0 1 1 0h-1Zm1-1.828a.501.501 0 0 1-1 .001l1-.001Zm-1-1.827a.5.5 0 0 1 1 0h-1Zm1-1.828a.5.5 0 0 1-1 0h1Zm-1-1.827a.5.5 0 0 1 1 0h-1Zm1-1.828a.5.5 0 0 1-1 0h1Zm-1-1.827a.5.5 0 1 1 1 0h-1Zm1-1.828a.5.5 0 0 1-1 0h1Zm-1-1.828a.5.5 0 0 1 1 0h-1Zm1-1.827a.5.5 0 0 1-1 0h1ZM346 387h-.5v-.914h1V387h-.5Zm0-2.741h-.5v-1.828h1v1.828h-.5Zm0-3.656h-.5v-1.827h1v1.827h-.5Zm0-3.655h-.5v-1.827h1v1.827h-.5Zm0-3.655h-.5v-1.827h1v1.827h-.5Zm0-3.655h-.5v-1.828h1v1.828h-.5Zm0-3.655h-.5v-1.828h1v1.828h-.5Zm0-3.655h-.5V360.5h1v1.828h-.5Zm0-3.656h-.5v-1.827h1v1.827h-.5Zm0-3.655h-.5v-1.827h1v1.827h-.5Zm0-3.655h-.5v-1.828h1v1.828h-.5Zm0-3.655h-.5v-1.828h1v1.828h-.5Zm0-3.655h-.5v-1.828h1v1.828h-.5Zm0-3.655h-.5v-1.828h1v1.828h-.5Zm0-3.656h-.5v-1.827h1v1.827h-.5Zm0-3.655h-.5v-1.827h1v1.827h-.5Zm0-3.655h-.5v-1.828h1v1.828h-.5Zm0-3.655h-.5v-1.828h1v1.828h-.5Zm0-3.655h-.5v-1.828h1v1.828h-.5Zm0-3.656-.5.001v-1.828h1v1.827h-.5Zm0-3.655h-.5v-1.827h1v1.827h-.5Zm0-3.655h-.5v-1.827h1v1.827h-.5Zm0-3.655h-.5v-1.828h1v1.828h-.5Zm0-3.655h-.5v-1.828h1v1.828h-.5Zm0-3.655h-.5v-1.828h1v1.828h-.5Zm0-3.655h-.5v-1.828h1v1.827l-.5.001Zm0-3.656h-.5v-1.827h1v1.827h-.5Zm0-3.655h-.5v-1.827h1v1.827h-.5Zm0-3.655h-.5v-1.828h1v1.828h-.5Zm0-3.655h-.5V281h1v.914h-.5Z"/><defs><linearGradient id="a" x1="431.5" x2="431.5" y1="0" y2="359.583" gradientUnits="userSpaceOnUse"><stop stop-color="#0C0D0E"/><stop offset="1" stop-color="#19191B"/></linearGradient><linearGradient id="b" x1="863" x2="0" y1="-10.209" y2="383.291" gradientUnits="userSpaceOnUse"><stop stop-color="#1D1F21"/><stop offset=".251" stop-color="#767F87" stop-opacity=".2"/><stop offset=".519" stop-color="#767F87"/><stop offset=".758" stop-color="#767F87" stop-opacity=".2"/><stop offset="1" stop-color="#1D1F21"/></linearGradient><linearGradient id="e" x1="397.03" x2="349.738" y1="121.916" y2="121.916" gradientUnits="userSpaceOnUse"><stop stop-color="#0FBBFF"/><stop offset="1" stop-color="#001219"/></linearGradient><linearGradient id="g" x1="347.393" x2="338.577" y1="233.535" y2="224.032" gradientUnits="userSpaceOnUse"><stop stop-color="#EB4848"/><stop offset="1" stop-color="#1C0303"/></linearGradient><clipPath id="c"><path fill="#fff" d="M679.563 14.383h14.383v14.383h-14.383z"/></clipPath><clipPath id="d"><path fill="#fff" d="M764.083 14.383h14.383v14.383h-14.383z"/></clipPath><clipPath id="f"><path fill="#fff" d="M343.711 97.088h14.383v14.383h-14.383z"/></clipPath><clipPath id="h"><path fill="#fff" d="M349.314 247.725h14.383v14.383h-14.383z"/></clipPath></defs></svg>