<svg xmlns="http://www.w3.org/2000/svg" width="1728" height="1117" fill="none"><g clip-path="url(#a)"><path fill="url(#b)" d="M0 0h1728v1117H0z"/><g filter="url(#c)"><g clip-path="url(#d)"><path fill="#fff" d="M245.5 138.717h1237v67.648h-1237z"/><path fill="#ED6A5E" fill-rule="evenodd" d="M281.74 179.79a7.249 7.249 0 1 0-.001-14.497 7.249 7.249 0 0 0 .001 14.497Z" clip-rule="evenodd"/><path fill="#F4BF4F" fill-rule="evenodd" d="M305.9 179.79a7.249 7.249 0 1 0-.001-14.497 7.249 7.249 0 0 0 .001 14.497Z" clip-rule="evenodd"/><path fill="#61C554" fill-rule="evenodd" d="M330.061 179.79a7.249 7.249 0 1 0-.001-14.497 7.249 7.249 0 0 0 .001 14.497Z" clip-rule="evenodd"/><path fill="#8C8C8C" fill-rule="evenodd" d="M383.447 162.946a.768.768 0 0 1 .221.535.752.752 0 0 1-.221.535l-8.527 8.525 8.527 8.526a.757.757 0 0 1-1.069 1.069l-9.06-9.06a.755.755 0 0 1 0-1.07l9.06-9.06a.753.753 0 0 1 1.069 0Z" clip-rule="evenodd"/><path fill="#000" fill-opacity=".1" fill-rule="evenodd" d="M411.972 162.946a.753.753 0 0 1 1.069 0l9.06 9.06a.768.768 0 0 1 .222.535.753.753 0 0 1-.222.535l-9.06 9.06a.76.76 0 0 1-1.069 0 .756.756 0 0 1 0-1.069l8.527-8.526-8.527-8.525a.752.752 0 0 1-.164-.824.752.752 0 0 1 .164-.246Z" clip-rule="evenodd"/><path stroke="#000" stroke-opacity=".1" stroke-width=".076" d="M412.507 162.763a.716.716 0 0 1 .508.21l9.059 9.06a.711.711 0 0 1 .211.508.703.703 0 0 1-.211.508l-9.059 9.06a.718.718 0 0 1-1.017-1.016l8.527-8.526.027-.026-.027-.026-8.527-8.526a.718.718 0 0 1 0-1.015l.001-.001a.724.724 0 0 1 .508-.21Z"/><path fill="#F1F1F1" d="M615.15 171.092c0-5.412 0-8.119 1.054-10.186a9.661 9.661 0 0 1 4.223-4.223c2.067-1.054 4.774-1.054 10.186-1.054h548.917c5.41 0 8.12 0 10.19 1.054a9.665 9.665 0 0 1 4.22 4.223c1.05 2.067 1.05 4.774 1.05 10.186v2.899c0 5.412 0 8.119-1.05 10.186a9.665 9.665 0 0 1-4.22 4.223c-2.07 1.054-4.78 1.054-10.19 1.054H630.613c-5.412 0-8.119 0-10.186-1.054a9.661 9.661 0 0 1-4.223-4.223c-1.054-2.067-1.054-4.774-1.054-10.186v-2.899Z"/><path fill="#151515" d="M848.773 178.042V166.62h1.316v4.216h.112c.096-.148.23-.338.401-.568.175-.235.424-.443.747-.625.328-.186.77-.279 1.328-.279.721 0 1.357.18 1.907.541.55.361.98.872 1.288 1.534.309.661.463 1.442.463 2.342 0 .907-.154 1.693-.463 2.359-.308.662-.736 1.175-1.283 1.539-.546.361-1.176.541-1.89.541-.55 0-.991-.091-1.322-.273-.331-.186-.585-.396-.764-.63a8.133 8.133 0 0 1-.412-.592h-.157v1.317h-1.271Zm1.294-4.283c0 .646.095 1.217.284 1.712.19.49.467.875.831 1.154.364.275.811.413 1.338.413.551 0 1.01-.145 1.378-.435.372-.294.651-.688.836-1.183.19-.498.285-1.052.285-1.661 0-.603-.093-1.146-.279-1.629-.182-.487-.459-.872-.831-1.154-.368-.286-.831-.43-1.389-.43-.535 0-.985.136-1.349.407-.364.268-.64.644-.825 1.127-.186.48-.279 1.039-.279 1.679Zm14.349-2.365-1.183.335a2.191 2.191 0 0 0-.329-.575 1.588 1.588 0 0 0-.58-.468c-.245-.123-.559-.184-.942-.184-.524 0-.961.121-1.311.362-.345.238-.518.541-.518.909 0 .327.119.586.357.775.238.19.609.348 1.115.474l1.272.313c.765.186 1.336.47 1.712.853.375.379.563.868.563 1.467 0 .49-.141.929-.424 1.316-.279.386-.669.691-1.171.914-.502.223-1.086.335-1.751.335-.874 0-1.597-.19-2.17-.569-.572-.379-.935-.933-1.087-1.662l1.249-.312c.119.461.344.807.675 1.037.335.231.771.346 1.31.346.614 0 1.101-.13 1.462-.39.364-.264.546-.58.546-.948a.998.998 0 0 0-.312-.748c-.208-.204-.528-.357-.959-.457l-1.428-.335c-.785-.185-1.361-.474-1.729-.864-.364-.394-.546-.887-.546-1.478 0-.483.135-.911.407-1.282a2.771 2.771 0 0 1 1.121-.876c.476-.212 1.015-.318 1.617-.318.848 0 1.513.186 1.996.558a3.01 3.01 0 0 1 1.038 1.472Zm5.862-1.918v1.115h-4.439v-1.115h4.439Zm-3.145-2.053h1.316v8.165c0 .372.054.65.162.836a.836.836 0 0 0 .424.368c.174.06.358.09.552.09.145 0 .264-.008.357-.023l.223-.044.267 1.182a2.66 2.66 0 0 1-.373.1c-.16.037-.363.056-.608.056-.372 0-.736-.08-1.093-.24a2.172 2.172 0 0 1-.881-.73c-.231-.327-.346-.74-.346-1.238v-8.522Zm8.513 10.797c-.773 0-1.452-.184-2.036-.552-.58-.368-1.033-.883-1.36-1.545-.324-.662-.486-1.435-.486-2.32 0-.892.162-1.671.486-2.336.327-.666.78-1.183 1.36-1.551.584-.368 1.263-.552 2.036-.552.773 0 1.45.184 2.03.552.583.368 1.037.885 1.361 1.551.327.665.49 1.444.49 2.336 0 .885-.163 1.658-.49 2.32a3.707 3.707 0 0 1-1.361 1.545c-.58.368-1.257.552-2.03.552Zm0-1.182c.587 0 1.071-.151 1.45-.452.379-.301.66-.697.842-1.188a4.551 4.551 0 0 0 .273-1.595c0-.572-.091-1.106-.273-1.6a2.696 2.696 0 0 0-.842-1.199c-.379-.305-.863-.458-1.45-.458-.588 0-1.071.153-1.45.458-.379.305-.66.704-.842 1.199a4.595 4.595 0 0 0-.273 1.6c0 .573.091 1.104.273 1.595.182.491.463.887.842 1.188.379.301.862.452 1.45.452Zm9.37 1.182c-.803 0-1.494-.19-2.074-.569a3.702 3.702 0 0 1-1.339-1.567c-.312-.665-.468-1.426-.468-2.281 0-.87.16-1.638.479-2.303.324-.669.774-1.192 1.35-1.567.58-.379 1.257-.569 2.03-.569a3.84 3.84 0 0 1 1.628.335c.484.223.88.535 1.188.937.309.401.5.87.575 1.405h-1.317c-.1-.39-.323-.736-.669-1.037-.342-.305-.803-.458-1.383-.458-.513 0-.963.134-1.349.402-.383.264-.683.637-.898 1.121-.212.479-.318 1.043-.318 1.69 0 .661.104 1.238.312 1.728.212.491.51.872.892 1.144.387.271.841.407 1.361.407.342 0 .653-.06.931-.179.279-.119.515-.29.709-.513a1.96 1.96 0 0 0 .412-.803h1.317a3.05 3.05 0 0 1-1.707 2.326c-.476.234-1.03.351-1.662.351Zm6.519-3.301-.022-1.629h.268l3.747-3.814h1.629l-3.993 4.037h-.112l-1.517 1.406Zm-1.227 3.123V166.62h1.317v11.422h-1.317Zm5.443 0-3.346-4.239.937-.914 4.082 5.153h-1.673Zm4.059.089a.966.966 0 0 1-.708-.296.966.966 0 0 1-.296-.708c0-.275.099-.511.296-.708a.966.966 0 0 1 .708-.296c.275 0 .511.099.708.296a.966.966 0 0 1 .296.708.948.948 0 0 1-.14.502c-.089.152-.21.275-.362.368a.96.96 0 0 1-.502.134Zm6.845.089c-.803 0-1.494-.19-2.074-.569a3.709 3.709 0 0 1-1.339-1.567c-.312-.665-.468-1.426-.468-2.281 0-.87.16-1.638.479-2.303.324-.669.774-1.192 1.35-1.567.58-.379 1.257-.569 2.03-.569a3.84 3.84 0 0 1 1.628.335c.484.223.88.535 1.188.937.309.401.5.87.575 1.405h-1.316c-.101-.39-.324-.736-.67-1.037-.342-.305-.803-.458-1.383-.458-.513 0-.963.134-1.349.402-.383.264-.682.637-.898 1.121-.212.479-.318 1.043-.318 1.69 0 .661.104 1.238.312 1.728.212.491.51.872.893 1.144.386.271.84.407 1.36.407.342 0 .653-.06.932-.179.278-.119.515-.29.708-.513.193-.223.331-.491.413-.803h1.316a3.06 3.06 0 0 1-.552 1.366c-.29.402-.675.722-1.155.96-.476.234-1.03.351-1.662.351Zm8.773 0c-.774 0-1.452-.184-2.036-.552-.58-.368-1.034-.883-1.361-1.545-.323-.662-.485-1.435-.485-2.32 0-.892.162-1.671.485-2.336.327-.666.781-1.183 1.361-1.551.584-.368 1.262-.552 2.036-.552.773 0 1.449.184 2.029.552.584.368 1.038.885 1.361 1.551.327.665.491 1.444.491 2.336 0 .885-.164 1.658-.491 2.32a3.694 3.694 0 0 1-1.361 1.545c-.58.368-1.256.552-2.029.552Zm0-1.182c.587 0 1.07-.151 1.449-.452.38-.301.66-.697.843-1.188a4.551 4.551 0 0 0 .273-1.595c0-.572-.091-1.106-.273-1.6a2.697 2.697 0 0 0-.843-1.199c-.379-.305-.862-.458-1.449-.458-.588 0-1.071.153-1.45.458-.38.305-.66.704-.843 1.199a4.595 4.595 0 0 0-.273 1.6c0 .573.091 1.104.273 1.595.183.491.463.887.843 1.188.379.301.862.452 1.45.452Zm5.89 1.004v-8.566h1.271v1.338h.112c.178-.457.467-.812.864-1.065.398-.257.876-.385 1.434-.385.565 0 1.035.128 1.411.385.379.253.674.608.886 1.065h.089a2.5 2.5 0 0 1 .988-1.054c.438-.264.964-.396 1.578-.396.766 0 1.392.24 1.879.719.487.476.731 1.218.731 2.226v5.733h-1.316v-5.733c0-.632-.173-1.084-.519-1.356a1.922 1.922 0 0 0-1.221-.407c-.603 0-1.069.183-1.4.547-.331.361-.496.818-.496 1.372v5.577h-1.339v-5.867c0-.487-.158-.879-.474-1.177-.316-.301-.723-.452-1.221-.452-.342 0-.662.091-.959.274a2.061 2.061 0 0 0-.714.758c-.179.32-.268.69-.268 1.11v5.354h-1.316Z"/><g fill="#8C8C8C" fill-rule="evenodd" clip-path="url(#e)" clip-rule="evenodd"><path d="M1169.83 170.979a6.08 6.08 0 0 1 1.25-2.36 5.99 5.99 0 0 1 2.13-1.596 6.077 6.077 0 0 1 2.62-.519c.9.024 1.78.249 2.58.658a.607.607 0 0 0 .67-.079.697.697 0 0 0 .15-.186c.03-.07.05-.148.06-.227a.47.47 0 0 0-.03-.234.556.556 0 0 0-.3-.352 7.249 7.249 0 0 0-10.53 6.909 7.25 7.25 0 0 0 2.01 4.563 7.236 7.236 0 0 0 9.3.979 7.232 7.232 0 0 0 2.91-4.046 7.27 7.27 0 0 0-.39-4.967.616.616 0 0 0-.34-.314.608.608 0 0 0-.78.356c-.05.15-.05.316.02.462.4.881.59 1.847.54 2.815a6.053 6.053 0 0 1-2.81 4.809 6.035 6.035 0 0 1-5.55.467 6.14 6.14 0 0 1-2.31-1.7 6.062 6.062 0 0 1-1.2-5.438Z"/><path d="M1175.85 163.055a.584.584 0 0 1 .42-.177c.16 0 .32.064.43.177l3.02 3.02c.06.056.1.123.13.196.03.073.05.152.05.231 0 .08-.02.159-.05.232a.542.542 0 0 1-.13.196l-3.02 3.02a.589.589 0 0 1-.2.131.59.59 0 0 1-.46 0 .708.708 0 0 1-.2-.132.611.611 0 0 1-.17-.427c0-.079.01-.158.04-.231.03-.074.08-.14.14-.196l2.59-2.593-2.59-2.592a.57.57 0 0 1-.14-.196.606.606 0 0 1-.04-.232c0-.079.01-.158.04-.231a.57.57 0 0 1 .14-.196Z"/></g><path fill="#8C8C8C" fill-rule="evenodd" d="M1388.04 167.036a.78.78 0 0 0 .54.222.738.738 0 0 0 .53-.222l4-3.997 3.99 3.997a.797.797 0 0 0 .54.222c.1 0 .19-.02.29-.058a.804.804 0 0 0 .41-.409c.03-.092.05-.19.05-.289a.94.94 0 0 0-.05-.29.816.816 0 0 0-.17-.245l-4.53-4.53a.754.754 0 0 0-.24-.164.75.75 0 0 0-.58 0 .797.797 0 0 0-.25.164l-4.53 4.53a.787.787 0 0 0-.22.535.775.775 0 0 0 .22.534Z" clip-rule="evenodd"/><path fill="#8C8C8C" fill-rule="evenodd" d="M1393.11 177.827c.2 0 .39-.079.53-.221a.731.731 0 0 0 .23-.534v-13.59c0-.2-.08-.392-.23-.534a.746.746 0 0 0-1.06 0 .762.762 0 0 0-.22.534v13.59c0 .2.08.392.22.534.14.142.33.221.53.221Z" clip-rule="evenodd"/><path fill="#8C8C8C" fill-rule="evenodd" d="M1384.8 181.602c0 .6.24 1.177.67 1.601.42.425 1 .664 1.6.664h12.08c.6 0 1.17-.239 1.6-.664a2.28 2.28 0 0 0 .66-1.601v-10.57c0-.601-.24-1.177-.66-1.602a2.27 2.27 0 0 0-1.6-.663h-2.27c-.2 0-.39.079-.53.221a.759.759 0 0 0 0 1.067c.14.142.33.222.53.222h2.27c.2 0 .39.079.53.221.14.141.22.333.22.534v10.57c0 .2-.08.392-.22.534a.746.746 0 0 1-.53.221h-12.08c-.2 0-.39-.08-.54-.221a.762.762 0 0 1-.22-.534v-10.57c0-.201.08-.393.22-.534a.783.783 0 0 1 .54-.221h2.26a.758.758 0 0 0 .54-1.289.765.765 0 0 0-.54-.221h-2.26c-.6 0-1.18.238-1.6.663a2.25 2.25 0 0 0-.67 1.602v10.57Z" clip-rule="evenodd"/><path fill="#8C8C8C" d="M1441.43 164.388a.908.908 0 0 1 .91.906v6.341h6.34a.912.912 0 0 1 .91.906.912.912 0 0 1-.91.906h-6.34v6.342a.912.912 0 0 1-1.55.641.902.902 0 0 1-.26-.641v-6.342h-6.35a.908.908 0 0 1-.64-.264.902.902 0 0 1-.26-.641c0-.24.09-.472.26-.642.17-.169.4-.264.64-.264h6.35v-6.342c0-.24.09-.472.26-.642.17-.169.4-.264.64-.264Z"/><path stroke="#000" stroke-opacity=".1" stroke-width="1.208" d="M245.5 205.762h1237"/><path fill="url(#f)" d="M0 0h1237v771.117H0z" transform="translate(245.5 206.366)"/><path fill="#fff" d="M447.105 498.857h824.067v187.816H447.105z"/><path fill="#284D99" d="M463.95 499.354s41.204.105 161.768.105v71.109l2.56 4.442c4.493 4.969 9.509 9.446 14.872 14.643l-.01.01.008.008c-2.177 2.143-14.681 14.608-15.029 14.995-.992 1.105-1.861 2.579-2.401 4.105v77.151l-.001-.001v.001l-161.768-.351-.241.01c-.116.004-.272.008-.464.009-1.669.01-6.003-.199-9.804-2.382l-.048-.03a14.353 14.353 0 0 1-.376-.225l-.162-.102a10.858 10.858 0 0 1-.317-.21l-.134-.091c-.115-.08-.23-.163-.343-.248-.031-.022-.063-.044-.093-.067-.12-.091-.239-.186-.357-.282l-.056-.047a11.9 11.9 0 0 1-.3-.255l-.063-.056a12.906 12.906 0 0 1-.983-.981l-.056-.063a12.903 12.903 0 0 1-.3-.352c-.033-.04-.062-.081-.094-.12-.055-.07-.111-.139-.165-.21-.056-.073-.109-.147-.163-.222-.028-.039-.057-.077-.084-.116-1.645-2.324-2.693-5.53-2.533-9.955v-153.49c-.004-.03-2.524-16.732 17.137-16.732Z"/><path fill="#0E2954" d="M917.469 522.952c21.229-7.251 42.841-7.269 63.739 1.37 14.036 5.794 21.642 16.697 21.312 32.639-.07 3.038-.1 6.058-.12 9.095-.05 9.095.07 18.19.07 27.285 0 9.077-.1 18.19-.09 27.284.02 3.038.06 6.058.13 9.095.36 16.329-7.371 27.443-21.912 33.149-21.926 8.603-44.321 8.656-66.229-.123-14.402-5.759-21.681-16.978-21.577-32.956.157-23.65.034-47.282.034-70.915 0-18.611 7.141-29.953 24.643-35.923Zm131.131-.527c19.13-6.25 38.64-6.25 57.76.264 15.34 5.214 23.16 16.451 23.84 32.85.66 15.767.49 16.066-14.99 16.066-4.27 0-8.54.105-12.79-.053-4.91-.193-6.75-1.879-6.67-6.777.11-6.514-.67-12.554-7.4-15.364-7.75-3.248-15.7-3.37-23.19.966-3.5 2.019-5.3 5.443-5.3 9.587-.03 22.228-.05 44.473 0 66.719.02 5.495 2.82 9.306 7.81 11.307 5.99 2.423 12.15 2.493 18.3.597 6.49-2.001 9.59-6.321 9.72-13.291.22-13.028.22-13.028 13.21-13.028 5.02 0 10.07-.263 15.05.158 1.9.158 4.65 1.528 5.29 3.091 5.92 14.081-1.41 37.415-14.83 44.648-7.2 3.881-15.47 6.497-23.55 7.761-13.08 2.037-26.33 1.44-39.25-2.317-15.57-4.513-28.02-15.539-27.31-36.204.4-11.94.07-23.931.07-35.888v-36.362c0-17.699 7.51-29.27 24.23-34.73Zm-360.971.352c20.236-6.813 40.699-7.093 60.517 1.317 18.547 7.866 21.56 24.369 19.296 41.26-.209 1.545-3.274 3.758-5.102 3.863-7.732.439-15.517.264-23.267.158-3.413-.052-5.067-1.844-5.311-5.478-.993-15.135-8.342-20.437-23.389-17.136-6.774 1.492-10.118 5.408-10.605 12.413-.505 7.199 1.602 10.323 8.899 12.887 10.449 3.652 20.897 7.322 31.416 10.799 26.018 8.585 31.225 23.298 30.006 47.282-1.271 24.616-16.23 33.044-32.67 36.468-17.537 3.652-35.039 3.634-52.036-2.792-14.681-5.549-22.901-16.188-23.232-32.324-.122-5.197.175-10.412.349-15.609.105-3.213 1.915-4.652 5.015-4.635h11.878c4.109 0 8.219-.017 12.329 0 2.96 0 4.51 1.58 4.615 4.512.104 3.371.034 6.742.156 10.113.296 8.094 3.78 12.642 11.703 14.03 4.406.772 9.126 1 13.515.28 10.152-1.686 13.722-6.145 12.938-16.363-.243-3.091-2.246-6.69-4.562-8.797-2.839-2.564-6.739-4.073-10.379-5.531-9.578-3.827-19.139-7.795-28.961-10.938-21.229-6.777-26.994-22.79-25.809-42.068.156-2.441.366-4.899.784-7.304 2.229-13.045 9.455-22.211 21.907-26.407Zm531.751 6.338c3.66-6.373 8.19-9.779 15.78-9.182 6.5.509 13.08.053 19.63.123 5.48.053 6.6 1.896 3.65 6.725-8.98 14.748-18.12 29.426-27.22 44.122-3.53 5.723-6.93 11.535-10.71 17.101-1.98 2.915-2.1 4.986.02 8.076 13.95 20.279 27.69 40.717 41.35 61.206 1.51 2.283 2.17 5.145 3.23 7.744-2.82.684-5.62 1.843-8.46 1.949-7.3.281-14.63-.194-21.91.192-6.15.316-9.89-2.51-13.01-7.462-10.32-16.451-20.84-32.78-31.34-49.108-.84-1.317-2.15-2.318-3.23-3.459-.4.228-.8.474-1.2.702v4.916c0 15.661.02 31.305-.01 46.967-.02 5.917-1.36 7.252-7.32 7.304-6.84.053-13.7.053-20.55 0-5.8-.052-7.3-1.545-7.56-7.304-.05-.913-.01-1.826-.01-2.756 0-42.349 0-84.716.01-127.083 0-1.686.06-3.371.26-5.039.42-3.213 2.18-4.846 5.52-4.811 7.46.071 14.93-.035 22.38 0 6.08.035 7.25 1.159 7.27 7.216.03 16.416.01 32.85.01 49.267v4.829c.44.175.89.333 1.33.491 1.02-1.264 2.23-2.423 3.06-3.81 9.74-16.275 19.58-32.482 29.03-48.916Zm-435.028-9.13c30.11.105 60.238.035 90.366.07 5.329.017 6.182.93 6.269 6.144.07 5.215.07 10.43.018 15.645-.052 5.759-.993 6.795-6.601 6.865-7.593.088-15.22.176-22.813-.035-3.379-.105-4.476.965-4.442 4.424.157 17.961.071 35.906.071 53.85 0 16.872.017 33.746 0 50.619 0 8.813-.697 9.481-9.247 9.481-6.252 0-12.487.053-18.722-.017-5.608-.071-7.035-1.37-7.262-7.024-.209-5.057-.069-10.131-.069-15.187v-90.194c0-5.882-.018-5.882-6.026-5.882-7.158 0-14.315-.122-21.456.036-4.492.087-6.46-2.196-6.565-6.357-.139-5.355-.105-10.728-.018-16.1.07-4.197 1.969-6.356 6.497-6.338Zm174.861 29.479c-6.409-2.792-13.062-2.88-19.662-1.212-8.133 2.054-11.25 6.427-11.25 14.872v30.393c0 10.605.069 21.192-.018 31.779-.052 6.163 2.891 10.236 8.324 12.448 7.349 2.985 14.873 2.915 22.222-.017 5.277-2.107 8.324-6.111 8.324-12.01.035-21.491.035-42.981 0-64.472-.017-5.653-2.838-9.551-7.94-11.781Z"/><path fill="#0E2954" d="M1297.16 508.817c-.04-4.723-2.09-9.955-4.65-14.011-5.33-8.445-14.06-10.517-23.48-10.517-269.407.018-538.834.018-808.243.018-1.219 0-2.439-.053-3.658.017-15.185.826-25.112 10.605-25.164 25.863-.174 54.938-.105 109.876-.035 164.814.017 17.049 13.688 25.687 26.088 25.669 135.627-.228 271.238-.14 406.866-.14h407.786c13.76 0 24.66-10.535 24.68-24.124.03-55.887.12-111.738-.19-167.589Zm-14.4 30.129v133.053c0 10.253-3.59 13.94-13.62 13.94-212.95 0-425.903-.491-638.854-.386H463.973s-17.763 1.282-17.136-15.995V516.069s-2.542-16.733 17.136-16.733c0 0 407.859.106 528.406.106h274.911c1.06 0 2.13-.018 3.21 0 8.56.14 12.22 3.757 12.27 12.343.04 9.059-.01 18.119-.01 27.161Z"/><path fill="#fff" d="M628.28 574.905c4.493 4.969 9.509 9.446 14.873 14.643-2.177 2.142-14.681 14.608-15.029 14.994-.993 1.106-1.864 2.581-2.404 4.109v77.271l643.41.035c10.03 0 13.62-3.687 13.62-13.941V538.964c0-9.06.04-18.102-.02-27.162-.05-8.568-3.7-12.185-12.27-12.343-1.06-.017-2.13 0-3.21 0H992.34c-120.563 0-246.091.035-366.654-.105v71.126l2.594 4.425Zm141.793 55.219c-1.271 24.616-16.231 33.043-32.67 36.467-17.537 3.652-35.039 3.634-52.036-2.792-14.664-5.548-22.901-16.188-23.232-32.323-.104-5.197.192-10.412.348-15.609.105-3.213 1.916-4.653 5.016-4.635 3.953.017 7.906 0 11.877 0 4.11 0 8.22 0 12.33.017 2.96 0 4.51 1.58 4.615 4.513.122 3.371.034 6.742.156 10.113.296 8.076 3.779 12.624 11.703 14.028 4.406.773 9.126 1.001 13.514.281 10.153-1.685 13.723-6.145 12.94-16.363-.244-3.091-2.23-6.708-4.563-8.797-2.821-2.563-6.74-4.073-10.379-5.531-9.596-3.827-19.157-7.795-28.962-10.938-21.228-6.777-26.993-22.79-25.809-42.068.157-2.441.366-4.899.784-7.304 2.229-13.063 9.456-22.211 21.908-26.407 20.254-6.83 40.716-7.111 60.517 1.317 18.547 7.883 21.543 24.387 19.296 41.26-.209 1.545-3.257 3.758-5.103 3.863-7.732.439-15.516.246-23.266.158-3.413-.035-5.068-1.826-5.312-5.478-.992-15.135-8.341-20.437-23.388-17.136-6.774 1.492-10.118 5.39-10.606 12.413-.505 7.199 1.585 10.324 8.899 12.887 10.449 3.652 20.898 7.322 31.417 10.798 26.035 8.586 31.243 23.299 30.006 47.266Zm110.916-88.28c-.052 5.759-.993 6.794-6.6 6.865-7.611.087-15.221.175-22.814-.035-3.378-.088-4.475.983-4.441 4.424.157 17.944.07 35.888.07 53.85 0 16.873.017 33.745 0 50.618-.017 8.814-.697 9.482-9.247 9.482-6.235 0-12.469.052-18.721-.018-5.608-.07-7.036-1.37-7.262-7.023-.192-5.057-.07-10.131-.07-15.187v-90.194c0-5.882-.018-5.882-6.026-5.882-7.157 0-14.297-.123-21.455.035-4.493.105-6.461-2.177-6.565-6.356-.122-5.373-.105-10.745-.018-16.1.07-4.197 1.968-6.356 6.496-6.339 30.128.106 60.256.035 90.366.071 5.329 0 6.183.913 6.252 6.145.087 5.214.07 10.429.035 15.644Zm99.631 121.007c-21.925 8.604-44.321 8.656-66.229-.123-14.402-5.776-21.699-16.995-21.577-32.955.157-23.633.035-47.266.035-70.916 0-18.611 7.14-29.936 24.642-35.923 21.229-7.251 42.841-7.269 63.739 1.369 14.036 5.795 21.65 16.715 21.32 32.64-.07 3.038-.11 6.058-.13 9.095-.05 9.095.07 18.19.07 27.285 0 9.095-.12 18.19-.07 27.284.02 3.038.06 6.058.13 9.095.34 16.329-7.388 27.443-21.93 33.149Zm133.8-2.704c-7.19 3.881-15.47 6.497-23.55 7.761-13.07 2.054-26.34 1.44-39.25-2.318-15.57-4.53-28.02-15.538-27.31-36.204.42-11.957.07-23.931.07-35.888v-36.362c0-17.698 7.53-29.268 24.23-34.729 19.12-6.25 38.64-6.233 57.76.264 15.33 5.214 23.15 16.469 23.84 32.85.67 15.767.49 16.065-14.99 16.065-4.27 0-8.52.123-12.78-.052-4.91-.193-6.76-1.879-6.67-6.778.1-6.513-.68-12.571-7.4-15.363-7.77-3.248-15.71-3.371-23.2.966-3.5 2.019-5.29 5.443-5.29 9.587-.04 22.245-.04 44.491 0 66.719.01 5.495 2.82 9.305 7.8 11.307 5.99 2.423 12.15 2.493 18.3.597 6.5-2.002 9.6-6.321 9.72-13.291.22-13.028.22-13.028 13.22-13.028 5.01 0 10.06-.281 15.04.158 1.88.158 4.65 1.528 5.3 3.073 5.92 14.098-1.41 37.433-14.84 44.666Zm142.24 6.813c-7.29.281-14.62-.193-21.9.193-6.15.333-9.89-2.511-13.01-7.462-10.35-16.434-20.85-32.763-31.35-49.109-.84-1.299-2.14-2.318-3.22-3.459-.4.228-.8.474-1.2.702v4.917c0 15.661.01 31.305-.02 46.966-.02 5.935-1.36 7.252-7.31 7.304-6.85.071-13.71.053-20.55 0-5.8-.052-7.3-1.545-7.56-7.304-.04-.913-.02-1.843-.02-2.756 0-42.367 0-84.734.02-127.083 0-1.685.05-3.371.26-5.039.42-3.195 2.18-4.846 5.52-4.811 7.45.071 14.92-.035 22.38 0 6.08.018 7.26 1.159 7.26 7.217.03 16.416.02 32.85.02 49.267v4.828c.43.158.89.316 1.32.491 1.03-1.264 2.25-2.422 3.07-3.81 9.73-16.275 19.57-32.481 29.03-48.915 3.65-6.356 8.18-9.762 15.77-9.183 6.52.509 13.08.053 19.63.123 5.5.053 6.6 1.896 3.66 6.725-8.99 14.766-18.13 29.426-27.22 44.122-3.54 5.724-6.95 11.535-10.71 17.101-1.99 2.932-2.11 4.987.02 8.077 13.95 20.279 27.69 40.716 41.36 61.188 1.53 2.283 2.19 5.145 3.24 7.743-2.84.703-5.63 1.861-8.49 1.967Z"/><path fill="#FCFCFC" d="M572.834 590.971c-.749-.404-1.48-.843-2.142-1.212 3.152-3.88 6.583-7.304 9.073-11.307 4.563-7.357 3.779-15.802 3.588-24.019-.279-12.448-5.834-21.842-16.632-27.881-9.421-5.268-19.783-7.304-30.389-7.533-15.656-.333-31.329-.088-47.003-.088-7.889 0-9.683 1.756-9.683 9.569v129.769c0 7.901 2.386 10.289 10.397 10.307 14.611.035 29.223.298 43.816-.141 8.116-.246 16.318-1.088 24.242-2.774 13.026-2.756 24.329-8.709 29.658-22.052 3.883-9.727 3.587-19.981 2.333-30.217-1.341-10.886-8.15-17.558-17.258-22.421Zm-55.153-41.524c6.269 0 12.521-.79 18.494.193 8.621 1.387 12.208 8.498 9.648 17.084-2.107 7.058-6.826 10.85-14.245 11.131-4.389.176-8.795.035-13.897.035v-28.443Zm35.875 73.444c-.331 8.603-5.225 13.695-13.706 14.783-2.246.281-4.545.123-6.827.123-4.98.018-9.944 0-15.325 0V607.44c8.377 0 16.179-.755 23.772.193 9.961 1.247 12.364 8.235 12.086 15.258Z"/></g><rect width="1237" height="839.565" x="245.5" y="138.717" stroke="#000" stroke-opacity=".1" stroke-width="1.208" rx="19.328"/></g></g><defs><clipPath id="a"><path fill="#fff" d="M0 0h1728v1117H0z"/></clipPath><clipPath id="d"><rect width="1237" height="839.565" x="245.5" y="138.717" fill="#fff" rx="19.328"/></clipPath><clipPath id="e"><path fill="#fff" d="M1166 162.877h19.328v19.328H1166z"/></clipPath><linearGradient id="b" x1="864" x2="864" y1="0" y2="1117" gradientUnits="userSpaceOnUse"><stop stop-color="#3E79DF"/><stop offset="1" stop-color="#153771"/></linearGradient><linearGradient id="f" x1="952.514" x2="429.805" y1="-84.561" y2="872.403" gradientUnits="userSpaceOnUse"><stop stop-color="#9DB5F6"/><stop offset="1" stop-color="#4684EF"/></linearGradient><filter id="c" width="1431.49" height="1058.21" x="148.256" y="138.113" color-interpolation-filters="sRGB" filterUnits="userSpaceOnUse"><feFlood flood-opacity="0" result="BackgroundImageFix"/><feColorMatrix in="SourceAlpha" result="hardAlpha" values="0 0 0 0 0 0 0 0 0 0 0 0 0 0 0 0 0 0 127 0"/><feOffset dy="3.343"/><feGaussianBlur stdDeviation="1.337"/><feColorMatrix values="0 0 0 0 0 0 0 0 0 0 0 0 0 0 0 0 0 0 0.0196802 0"/><feBlend in2="BackgroundImageFix" result="effect1_dropShadow_40000441_33332"/><feColorMatrix in="SourceAlpha" result="hardAlpha" values="0 0 0 0 0 0 0 0 0 0 0 0 0 0 0 0 0 0 127 0"/><feOffset dy="8.033"/><feGaussianBlur stdDeviation="3.213"/><feColorMatrix values="0 0 0 0 0 0 0 0 0 0 0 0 0 0 0 0 0 0 0.0282725 0"/><feBlend in2="effect1_dropShadow_40000441_33332" result="effect2_dropShadow_40000441_33332"/><feColorMatrix in="SourceAlpha" result="hardAlpha" values="0 0 0 0 0 0 0 0 0 0 0 0 0 0 0 0 0 0 127 0"/><feOffset dy="15.126"/><feGaussianBlur stdDeviation="6.05"/><feColorMatrix values="0 0 0 0 0 0 0 0 0 0 0 0 0 0 0 0 0 0 0.035 0"/><feBlend in2="effect2_dropShadow_40000441_33332" result="effect3_dropShadow_40000441_33332"/><feColorMatrix in="SourceAlpha" result="hardAlpha" values="0 0 0 0 0 0 0 0 0 0 0 0 0 0 0 0 0 0 127 0"/><feOffset dy="26.982"/><feGaussianBlur stdDeviation="10.793"/><feColorMatrix values="0 0 0 0 0 0 0 0 0 0 0 0 0 0 0 0 0 0 0.0417275 0"/><feBlend in2="effect3_dropShadow_40000441_33332" result="effect4_dropShadow_40000441_33332"/><feColorMatrix in="SourceAlpha" result="hardAlpha" values="0 0 0 0 0 0 0 0 0 0 0 0 0 0 0 0 0 0 127 0"/><feOffset dy="50.468"/><feGaussianBlur stdDeviation="20.187"/><feColorMatrix values="0 0 0 0 0 0 0 0 0 0 0 0 0 0 0 0 0 0 0.0503198 0"/><feBlend in2="effect4_dropShadow_40000441_33332" result="effect5_dropShadow_40000441_33332"/><feColorMatrix in="SourceAlpha" result="hardAlpha" values="0 0 0 0 0 0 0 0 0 0 0 0 0 0 0 0 0 0 127 0"/><feOffset dy="120.801"/><feGaussianBlur stdDeviation="48.32"/><feColorMatrix values="0 0 0 0 0 0 0 0 0 0 0 0 0 0 0 0 0 0 0.07 0"/><feBlend in2="effect5_dropShadow_40000441_33332" result="effect6_dropShadow_40000441_33332"/><feBlend in="SourceGraphic" in2="effect6_dropShadow_40000441_33332" result="shape"/></filter></defs></svg>