<svg xmlns="http://www.w3.org/2000/svg" width="1048" height="343" fill="none"><path fill="#fff" d="M0 0h1048v343H0z"/><path fill="#FFE5CC" d="M219.648 104.862c-19.944-44.736-79.777-46.934-107.7-33.953-23.933 13.98-39.89 33.953-30.916 85.878 8.975 51.925 57.84 58.915 94.738 56.918 36.898-1.997 68.809-52.924 43.878-108.843Z"/><path fill="#000" d="m94.028 250 6.38-14.1h2.1l6.38 14.1h-2.6l-1.7-3.96 1.08.7h-8.44l1.08-.7-1.68 3.96h-2.6Zm7.4-11.32-2.8 6.66-.52-.64h6.68l-.5.64-2.82-6.66h-.04Zm12.163 11.52c-1.16 0-2.02-.313-2.58-.94-.547-.64-.82-1.573-.82-2.8V235.9h2.5v10.44c0 .387.053.72.16 1 .12.267.293.467.52.6.226.133.506.2.84.2a5 5 0 0 0 .44-.02c.146-.013.286-.04.42-.08l-.04 1.98a6.93 6.93 0 0 1-.72.12c-.227.04-.467.06-.72.06Zm3.026-.2v-9.78h2.44v1.96h-.22a3.44 3.44 0 0 1 .72-1.16c.307-.32.674-.567 1.1-.74.427-.173.9-.26 1.42-.26.787 0 1.434.187 1.94.56.507.373.86.947 1.06 1.72h-.28a3.332 3.332 0 0 1 1.32-1.66c.614-.413 1.32-.62 2.12-.62.747 0 1.36.147 1.84.44.494.293.86.74 1.1 1.34.24.587.36 1.333.36 2.24V250h-2.5v-5.86c0-.747-.126-1.293-.38-1.64-.24-.347-.653-.52-1.24-.52-.426 0-.8.107-1.12.32-.32.2-.566.493-.74.88-.16.387-.24.853-.24 1.4V250h-2.5v-5.86c0-.747-.126-1.293-.38-1.64-.24-.347-.646-.52-1.22-.52-.44 0-.82.107-1.14.32-.306.2-.546.493-.72.88-.16.387-.24.853-.24 1.4V250h-2.5Zm21.959.2c-1.013 0-1.893-.207-2.64-.62a4.343 4.343 0 0 1-1.74-1.76c-.413-.773-.62-1.68-.62-2.72 0-1.04.207-1.94.62-2.7a4.343 4.343 0 0 1 1.74-1.76c.747-.413 1.627-.62 2.64-.62 1.014 0 1.894.207 2.64.62a4.33 4.33 0 0 1 1.74 1.76c.414.76.62 1.66.62 2.7 0 1.04-.206 1.947-.62 2.72a4.33 4.33 0 0 1-1.74 1.76c-.746.413-1.626.62-2.64.62Zm0-1.9c.747 0 1.347-.267 1.8-.8.454-.547.68-1.347.68-2.4 0-1.067-.226-1.86-.68-2.38-.453-.533-1.053-.8-1.8-.8-.746 0-1.346.267-1.8.8-.453.52-.68 1.313-.68 2.38 0 1.053.227 1.853.68 2.4.454.533 1.054.8 1.8.8Zm7.064 1.7v-9.78h2.44v1.96h-.22c.293-.707.747-1.24 1.36-1.6.627-.373 1.333-.56 2.12-.56.787 0 1.433.147 1.94.44.507.293.887.74 1.14 1.34.253.587.38 1.333.38 2.24V250h-2.5v-5.84c0-.507-.067-.92-.2-1.24-.12-.32-.313-.553-.58-.7-.253-.16-.58-.24-.98-.24-.48 0-.9.107-1.26.32-.36.2-.64.493-.84.88-.2.373-.3.813-.3 1.32v5.5h-2.5Zm15.459.2c-.853 0-1.607-.207-2.26-.62-.64-.413-1.14-1-1.5-1.76-.36-.773-.54-1.68-.54-2.72 0-1.053.18-1.953.54-2.7.36-.76.86-1.347 1.5-1.76.653-.413 1.407-.62 2.26-.62.813 0 1.52.2 2.12.6.613.4 1.027.927 1.24 1.58h-.22v-6.3h2.5V250h-2.44v-2.08h.18a2.93 2.93 0 0 1-1.22 1.66c-.613.413-1.333.62-2.16.62Zm.7-1.9c.747 0 1.347-.267 1.8-.8.453-.547.68-1.347.68-2.4 0-1.067-.227-1.86-.68-2.38-.453-.533-1.053-.8-1.8-.8-.747 0-1.347.267-1.8.8-.453.52-.68 1.313-.68 2.38 0 1.053.227 1.853.68 2.4.453.533 1.053.8 1.8.8Zm13.203 1.7v-14.1h2.14l5.32 9.82h-.64l5.3-9.82h2.1V250h-2.32v-10.3h.44l-4.48 8.16h-1.5l-4.52-8.18h.48V250h-2.32Zm16.923-11.88v-2.44h2.8v2.44h-2.8Zm.16 11.88v-9.78h2.5V250h-2.5Zm8.498.2c-1.16 0-2.02-.313-2.58-.94-.547-.64-.82-1.573-.82-2.8V235.9h2.5v10.44c0 .387.053.72.16 1 .12.267.293.467.52.6.226.133.506.2.84.2a5 5 0 0 0 .44-.02c.146-.013.286-.04.42-.08l-.04 1.98a6.93 6.93 0 0 1-.72.12c-.227.04-.467.06-.72.06Zm2.987-.2v-14.1h2.5v8.48h.04l3.94-4.16h3.02l-4.92 5.2v-1.04l5.2 5.62h-3.06l-4.18-4.36h-.04V250h-2.5Zm-84.342 23 .576-2.912h-1.424v-.944h1.6l.72-3.696h-2v-.944h2.16l.56-2.784h1.008l-.544 2.784h2.544l.544-2.784h1.024l-.544 2.784h1.408v.944h-1.6l-.72 3.696h2v.944h-2.16l-.576 2.912h-1.024l.56-2.912h-2.528l-.56 2.912h-1.024Zm1.76-3.856h2.528l.736-3.696h-2.544l-.72 3.696ZM132.915 273v-11.28h6.976v1.104h-5.664v3.936h5.344v1.104h-5.344V273h-1.312Zm8.766 0v-11.28h6.976v1.104h-5.664v3.936h5.344v1.104h-5.344V273h-1.312Zm8.766 0v-11.28h7.12v1.104h-5.84v3.904h5.504v1.104h-5.504v4.064h5.84V273h-7.12Zm12.976.144c-.48 0-.95-.053-1.408-.16a5.837 5.837 0 0 1-1.296-.464 4.988 4.988 0 0 1-1.056-.72l.496-1.04a5.81 5.81 0 0 0 1.552.928 4.965 4.965 0 0 0 1.696.288c.789 0 1.402-.219 1.84-.656.448-.437.672-1.013.672-1.728 0-.736-.214-1.339-.64-1.808-.427-.469-1.014-.704-1.76-.704-.544 0-1.024.112-1.44.336-.406.213-.774.549-1.104 1.008h-.96v-6.704h6.544v1.12h-5.248v4.496h-.352a2.684 2.684 0 0 1 1.152-1.024 3.636 3.636 0 0 1 1.648-.368c.714 0 1.328.149 1.84.448.522.299.922.72 1.2 1.264.288.533.432 1.157.432 1.872 0 .704-.155 1.328-.464 1.872-.31.544-.747.971-1.312 1.28-.566.309-1.243.464-2.032.464Zm10.826 0c-1.11 0-2.059-.235-2.848-.704-.79-.469-1.398-1.136-1.824-2-.416-.864-.624-1.893-.624-3.088s.208-2.219.624-3.072c.426-.864 1.034-1.531 1.824-2 .789-.469 1.738-.704 2.848-.704.778 0 1.498.123 2.16.368a4.356 4.356 0 0 1 1.664 1.072l-.512 1.072c-.491-.459-1.003-.789-1.536-.992a4.583 4.583 0 0 0-1.744-.32c-1.27 0-2.24.4-2.912 1.2-.672.8-1.008 1.925-1.008 3.376 0 1.451.336 2.581 1.008 3.392.672.8 1.642 1.2 2.912 1.2.64 0 1.221-.101 1.744-.304.533-.213 1.045-.549 1.536-1.008l.512 1.072a4.617 4.617 0 0 1-1.664 1.072 6.177 6.177 0 0 1-2.16.368Zm10.437 0c-1.109 0-2.059-.235-2.848-.704-.789-.469-1.397-1.136-1.824-2-.416-.864-.624-1.893-.624-3.088s.208-2.219.624-3.072c.427-.864 1.035-1.531 1.824-2 .789-.469 1.739-.704 2.848-.704.779 0 1.499.123 2.16.368a4.356 4.356 0 0 1 1.664 1.072l-.512 1.072c-.491-.459-1.003-.789-1.536-.992a4.583 4.583 0 0 0-1.744-.32c-1.269 0-2.24.4-2.912 1.2-.672.8-1.008 1.925-1.008 3.376 0 1.451.336 2.581 1.008 3.392.672.8 1.643 1.2 2.912 1.2.64 0 1.221-.101 1.744-.304.533-.213 1.045-.549 1.536-1.008l.512 1.072a4.617 4.617 0 0 1-1.664 1.072 6.169 6.169 0 0 1-2.16.368Z"/><path fill="#FFA13C" d="M466.648 104.862c-19.944-44.736-79.777-46.934-107.7-33.953-23.933 13.98-39.891 33.953-30.916 85.878 8.976 51.925 57.84 58.915 94.738 56.918 36.898-1.997 68.809-52.924 43.878-108.843Z"/><path fill="#000" d="M372.089 250v-14.1h2.56v5.88h7.26v-5.88h2.56V250h-2.56v-6.08h-7.26V250h-2.56Zm19.689.2c-1.014 0-1.894-.207-2.64-.62a4.33 4.33 0 0 1-1.74-1.76c-.414-.773-.62-1.68-.62-2.72 0-1.04.206-1.94.62-2.7a4.33 4.33 0 0 1 1.74-1.76c.746-.413 1.626-.62 2.64-.62 1.013 0 1.893.207 2.64.62.746.413 1.326 1 1.74 1.76.413.76.62 1.66.62 2.7 0 1.04-.207 1.947-.62 2.72a4.343 4.343 0 0 1-1.74 1.76c-.747.413-1.627.62-2.64.62Zm0-1.9c.746 0 1.346-.267 1.8-.8.453-.547.68-1.347.68-2.4 0-1.067-.227-1.86-.68-2.38-.454-.533-1.054-.8-1.8-.8-.747 0-1.347.267-1.8.8-.454.52-.68 1.313-.68 2.38 0 1.053.226 1.853.68 2.4.453.533 1.053.8 1.8.8Zm7.063 1.7v-9.78h2.44v1.96h-.22c.293-.707.747-1.24 1.36-1.6.627-.373 1.333-.56 2.12-.56.787 0 1.433.147 1.94.44.507.293.887.74 1.14 1.34.253.587.38 1.333.38 2.24V250h-2.5v-5.84c0-.507-.067-.92-.2-1.24-.12-.32-.313-.553-.58-.7-.253-.16-.58-.24-.98-.24-.48 0-.9.107-1.26.32-.36.2-.64.493-.84.88-.2.373-.3.813-.3 1.32v5.5h-2.5Zm16.519.2c-1.106 0-2.06-.207-2.86-.62-.8-.413-1.42-1-1.86-1.76-.426-.76-.64-1.66-.64-2.7 0-1.013.207-1.9.62-2.66a4.658 4.658 0 0 1 1.74-1.78c.747-.44 1.594-.66 2.54-.66.934 0 1.734.2 2.4.6.667.4 1.18.967 1.54 1.7.374.733.56 1.607.56 2.62v.74h-7.38v-1.44h5.62l-.32.3c0-.907-.2-1.6-.6-2.08-.4-.493-.973-.74-1.72-.74-.56 0-1.04.133-1.44.4-.386.253-.686.62-.9 1.1-.2.467-.3 1.027-.3 1.68v.14c0 .733.114 1.34.34 1.82.227.48.567.84 1.02 1.08.454.24 1.014.36 1.68.36.547 0 1.094-.08 1.64-.24a4.643 4.643 0 0 0 1.5-.8l.7 1.68c-.466.387-1.053.693-1.76.92a6.892 6.892 0 0 1-2.12.34Zm6.744 3.4 2.04-4.5v1.04l-4.3-9.92h2.66l3.04 7.58h-.6l3.1-7.58h2.52l-5.88 13.38h-2.58ZM365.947 273l.576-2.912h-1.424v-.944h1.6l.72-3.696h-2v-.944h2.16l.56-2.784h1.008l-.544 2.784h2.544l.544-2.784h1.024l-.544 2.784h1.408v.944h-1.6l-.72 3.696h2v.944h-2.16l-.576 2.912h-1.024l.56-2.912h-2.528l-.56 2.912h-1.024Zm1.76-3.856h2.528l.736-3.696h-2.544l-.72 3.696ZM379.634 273v-11.28h6.976v1.104h-5.664v3.936h5.344v1.104h-5.344V273h-1.312Zm8.766 0v-11.28h6.976v1.104h-5.664v3.936h5.344v1.104h-5.344V273H388.4Zm6.756 0 4.976-11.28h1.12l4.976 11.28h-1.36l-1.392-3.216.64.336h-6.88l.656-.336-1.376 3.216h-1.36Zm5.52-9.744-2.576 6.064-.384-.304h5.92l-.352.304-2.576-6.064h-.032Zm7.816 9.744v-1.12h2.576v-9.024h.688l-2.72 1.728-.56-.976 2.96-1.888h.944v10.16h2.416V273h-6.304Zm12.282.144c-.502 0-.987-.053-1.456-.16a6.414 6.414 0 0 1-1.296-.448 4.532 4.532 0 0 1-1.072-.736l.48-1.04c.522.427 1.05.736 1.584.928a5.062 5.062 0 0 0 1.728.288c.544 0 1.002-.08 1.376-.24a1.8 1.8 0 0 0 .848-.704c.192-.32.288-.709.288-1.168 0-.661-.219-1.163-.656-1.504-.438-.341-1.072-.512-1.904-.512h-1.664v-1.136h1.552c.49 0 .906-.085 1.248-.256.352-.171.624-.411.816-.72.192-.32.288-.704.288-1.152 0-.597-.192-1.051-.576-1.36-.384-.32-.939-.48-1.664-.48-.598 0-1.147.107-1.648.32-.502.203-.976.523-1.424.96l-.48-1.024c.426-.448.96-.795 1.6-1.04a5.499 5.499 0 0 1 2.032-.384c.725 0 1.344.117 1.856.352.522.224.922.555 1.2.992.277.427.416.944.416 1.552 0 .693-.192 1.291-.576 1.792-.384.491-.907.827-1.568 1.008v-.176c.522.085.965.256 1.328.512.373.256.656.587.848.992.192.395.288.848.288 1.36 0 .651-.155 1.216-.464 1.696-.299.469-.731.837-1.296 1.104-.566.256-1.243.384-2.032.384Zm11.193 0c-1.109 0-2.058-.235-2.848-.704-.789-.469-1.397-1.136-1.824-2-.416-.864-.624-1.893-.624-3.088s.208-2.219.624-3.072c.427-.864 1.035-1.531 1.824-2 .79-.469 1.739-.704 2.848-.704.779 0 1.499.123 2.16.368a4.348 4.348 0 0 1 1.664 1.072l-.512 1.072c-.49-.459-1.002-.789-1.536-.992a4.58 4.58 0 0 0-1.744-.32c-1.269 0-2.24.4-2.912 1.2-.672.8-1.008 1.925-1.008 3.376 0 1.451.336 2.581 1.008 3.392.672.8 1.643 1.2 2.912 1.2.64 0 1.222-.101 1.744-.304.534-.213 1.046-.549 1.536-1.008l.512 1.072a4.608 4.608 0 0 1-1.664 1.072 6.169 6.169 0 0 1-2.16.368Z"/><path fill="#E74F0C" d="M713.648 104.862c-19.944-44.736-79.777-46.934-107.7-33.953-23.933 13.98-39.891 33.953-30.916 85.878 8.976 51.925 57.84 58.915 94.738 56.918 36.898-1.997 68.809-52.924 43.878-108.843Z"/><path fill="#000" d="M629.007 250.2c-.733 0-1.44-.067-2.12-.2a8.897 8.897 0 0 1-1.86-.54 7.121 7.121 0 0 1-1.5-.86l.78-2.02c.44.307.9.573 1.38.8.494.213 1.014.38 1.56.5.56.107 1.147.16 1.76.16 1.054 0 1.82-.173 2.3-.52.48-.36.72-.82.72-1.38a1.34 1.34 0 0 0-.22-.78c-.146-.227-.386-.42-.72-.58-.333-.16-.773-.293-1.32-.4l-2.2-.46c-1.266-.267-2.213-.713-2.84-1.34-.613-.64-.92-1.48-.92-2.52 0-.88.234-1.647.7-2.3.467-.653 1.114-1.16 1.94-1.52.827-.36 1.78-.54 2.86-.54.64 0 1.254.067 1.84.2.6.12 1.147.307 1.64.56.507.24.947.533 1.32.88l-.78 1.92a5.741 5.741 0 0 0-1.84-1.04 6.45 6.45 0 0 0-2.2-.36c-.613 0-1.14.087-1.58.26-.44.173-.78.42-1.02.74-.226.307-.34.673-.34 1.1 0 .48.16.867.48 1.16.32.28.867.5 1.64.66l2.18.46c1.32.28 2.3.72 2.94 1.32.654.6.98 1.4.98 2.4 0 .84-.226 1.58-.68 2.22-.453.64-1.1 1.14-1.94 1.5-.826.347-1.806.52-2.94.52Zm7.518 3.4v-13.38h2.44v2.06h-.2c.2-.68.606-1.227 1.22-1.64.626-.413 1.353-.62 2.18-.62.853 0 1.6.207 2.24.62.653.413 1.16 1 1.52 1.76.36.747.54 1.647.54 2.7 0 1.04-.18 1.947-.54 2.72-.36.76-.86 1.347-1.5 1.76-.64.413-1.394.62-2.26.62-.814 0-1.527-.2-2.14-.6-.614-.413-1.027-.947-1.24-1.6h.24v5.6h-2.5Zm4.94-5.3c.746 0 1.346-.267 1.8-.8.453-.547.68-1.347.68-2.4 0-1.067-.227-1.86-.68-2.38-.454-.533-1.054-.8-1.8-.8-.747 0-1.347.267-1.8.8-.454.52-.68 1.313-.68 2.38 0 1.053.226 1.853.68 2.4.453.533 1.053.8 1.8.8Zm6.892-10.18v-2.44h2.8v2.44h-2.8Zm.16 11.88v-9.78h2.5V250h-2.5Zm9.617.2c-1.026 0-1.92-.207-2.68-.62a4.41 4.41 0 0 1-1.76-1.8c-.413-.773-.62-1.68-.62-2.72 0-1.04.207-1.933.62-2.68.414-.76 1-1.34 1.76-1.74.76-.413 1.654-.62 2.68-.62.627 0 1.247.1 1.86.3.614.2 1.12.48 1.52.84l-.74 1.74a3.63 3.63 0 0 0-1.18-.7 3.52 3.52 0 0 0-1.24-.24c-.866 0-1.54.273-2.02.82-.466.533-.7 1.3-.7 2.3 0 .987.234 1.767.7 2.34.48.56 1.154.84 2.02.84.387 0 .8-.08 1.24-.24.44-.16.834-.4 1.18-.72l.74 1.76c-.4.347-.913.627-1.54.84a5.9 5.9 0 0 1-1.84.3Zm9.539 0c-1.107 0-2.06-.207-2.86-.62-.8-.413-1.42-1-1.86-1.76-.427-.76-.64-1.66-.64-2.7 0-1.013.206-1.9.62-2.66a4.644 4.644 0 0 1 1.74-1.78c.746-.44 1.593-.66 2.54-.66.933 0 1.733.2 2.4.6.666.4 1.18.967 1.54 1.7.373.733.56 1.607.56 2.62v.74h-7.38v-1.44h5.62l-.32.3c0-.907-.2-1.6-.6-2.08-.4-.493-.974-.74-1.72-.74-.56 0-1.04.133-1.44.4-.387.253-.687.62-.9 1.1-.2.467-.3 1.027-.3 1.68v.14c0 .733.113 1.34.34 1.82.226.48.566.84 1.02 1.08.453.24 1.013.36 1.68.36.546 0 1.093-.08 1.64-.24a4.664 4.664 0 0 0 1.5-.8l.7 1.68c-.467.387-1.054.693-1.76.92a6.902 6.902 0 0 1-2.12.34ZM613.236 273l.576-2.912h-1.424v-.944h1.6l.72-3.696h-2v-.944h2.16l.56-2.784h1.008l-.544 2.784h2.544l.544-2.784h1.024l-.544 2.784h1.408v.944h-1.6l-.72 3.696h2v.944h-2.16l-.576 2.912h-1.024l.56-2.912h-2.528l-.56 2.912h-1.024Zm1.76-3.856h2.528l.736-3.696h-2.544l-.72 3.696ZM626.923 273v-11.28h7.12v1.104h-5.84v3.904h5.504v1.104h-5.504v4.064h5.84V273h-7.12Zm9.728 0 5.536-10.72v.576h-6.256v-1.136h7.456v.992L638.107 273h-1.456Zm13.834 0v-2.416h-5.2v-.992l5.424-7.872h1.104v7.744h1.68v1.12h-1.68V273h-1.328Zm0-3.536v-6.16h.384l-4.464 6.512v-.352h4.08Zm4.954 3.536v-11.28h6.976v1.104h-5.664v3.936h5.344v1.104h-5.344V273h-1.312Zm12.174.144c-.854 0-1.579-.219-2.176-.656-.587-.448-1.03-1.104-1.328-1.968-.299-.864-.448-1.92-.448-3.168 0-1.259.149-2.315.448-3.168.298-.864.741-1.515 1.328-1.952.597-.437 1.322-.656 2.176-.656.864 0 1.589.219 2.176.656.586.437 1.029 1.083 1.328 1.936.298.853.448 1.909.448 3.168 0 1.259-.15 2.32-.448 3.184-.299.864-.742 1.52-1.328 1.968-.587.437-1.312.656-2.176.656Zm0-1.136c.896 0 1.557-.379 1.984-1.136.437-.757.656-1.936.656-3.536s-.214-2.768-.64-3.504c-.427-.747-1.094-1.12-2-1.12-.886 0-1.547.373-1.984 1.12-.438.747-.656 1.915-.656 3.504 0 1.6.213 2.779.64 3.536.437.757 1.104 1.136 2 1.136Zm11.065 1.136c-1.109 0-2.058-.235-2.848-.704-.789-.469-1.397-1.136-1.824-2-.416-.864-.624-1.893-.624-3.088s.208-2.219.624-3.072c.427-.864 1.035-1.531 1.824-2 .79-.469 1.739-.704 2.848-.704.779 0 1.499.123 2.16.368a4.348 4.348 0 0 1 1.664 1.072l-.512 1.072c-.49-.459-1.002-.789-1.536-.992a4.58 4.58 0 0 0-1.744-.32c-1.269 0-2.24.4-2.912 1.2-.672.8-1.008 1.925-1.008 3.376 0 1.451.336 2.581 1.008 3.392.672.8 1.643 1.2 2.912 1.2.64 0 1.222-.101 1.744-.304.534-.213 1.046-.549 1.536-1.008l.512 1.072a4.608 4.608 0 0 1-1.664 1.072 6.169 6.169 0 0 1-2.16.368Z"/><path fill="#D96A02" d="M960.648 104.862c-19.944-44.736-79.777-46.934-107.7-33.953-23.933 13.98-39.891 33.953-30.916 85.878 8.976 51.925 57.84 58.915 94.738 56.918 36.898-1.997 68.809-52.924 43.878-108.843Z"/><path fill="#000" d="M877.932 250.2c-1.467 0-2.727-.293-3.78-.88a6.076 6.076 0 0 1-2.4-2.52c-.56-1.093-.84-2.38-.84-3.86s.28-2.76.84-3.84a5.95 5.95 0 0 1 2.4-2.5c1.053-.6 2.313-.9 3.78-.9.947 0 1.84.147 2.68.44.853.293 1.553.713 2.1 1.26l-.84 2.04c-.6-.507-1.213-.873-1.84-1.1-.627-.24-1.3-.36-2.02-.36-1.427 0-2.513.433-3.26 1.3-.747.853-1.12 2.073-1.12 3.66 0 1.587.373 2.813 1.12 3.68.747.867 1.833 1.3 3.26 1.3.72 0 1.393-.113 2.02-.34.627-.24 1.24-.613 1.84-1.12l.84 2.04c-.547.533-1.247.953-2.1 1.26-.84.293-1.733.44-2.68.44Zm6.614-12.08v-2.44h2.8v2.44h-2.8Zm.16 11.88v-9.78h2.5V250h-2.5Zm8.858.2c-.853 0-1.607-.207-2.26-.62-.64-.413-1.14-1-1.5-1.76-.36-.773-.54-1.68-.54-2.72 0-1.053.18-1.953.54-2.7.36-.76.86-1.347 1.5-1.76.653-.413 1.407-.62 2.26-.62.813 0 1.52.2 2.12.6.613.4 1.027.927 1.24 1.58h-.22v-6.3h2.5V250h-2.44v-2.08h.18a2.93 2.93 0 0 1-1.22 1.66c-.613.413-1.333.62-2.16.62Zm.7-1.9c.747 0 1.347-.267 1.8-.8.453-.547.68-1.347.68-2.4 0-1.067-.227-1.86-.68-2.38-.453-.533-1.053-.8-1.8-.8-.747 0-1.347.267-1.8.8-.453.52-.68 1.313-.68 2.38 0 1.053.227 1.853.68 2.4.453.533 1.053.8 1.8.8Zm12.352 1.9c-1.107 0-2.06-.207-2.86-.62-.8-.413-1.42-1-1.86-1.76-.427-.76-.64-1.66-.64-2.7 0-1.013.207-1.9.62-2.66a4.658 4.658 0 0 1 1.74-1.78c.747-.44 1.593-.66 2.54-.66.933 0 1.733.2 2.4.6.667.4 1.18.967 1.54 1.7.373.733.56 1.607.56 2.62v.74h-7.38v-1.44h5.62l-.32.3c0-.907-.2-1.6-.6-2.08-.4-.493-.973-.74-1.72-.74-.56 0-1.04.133-1.44.4-.387.253-.687.62-.9 1.1-.2.467-.3 1.027-.3 1.68v.14c0 .733.113 1.34.34 1.82.227.48.567.84 1.02 1.08.453.24 1.013.36 1.68.36.547 0 1.093-.08 1.64-.24a4.643 4.643 0 0 0 1.5-.8l.7 1.68c-.467.387-1.053.693-1.76.92a6.897 6.897 0 0 1-2.12.34Zm6.02-.2v-9.78h2.44v2.36h-.2c.187-.8.553-1.407 1.1-1.82.547-.427 1.273-.673 2.18-.74l.76-.06.16 2.12-1.44.14c-.813.08-1.427.333-1.84.76-.413.413-.62 1-.62 1.76V250h-2.54Zm-54.533 23 .576-2.912h-1.424v-.944h1.6l.72-3.696h-2v-.944h2.16l.56-2.784h1.008l-.544 2.784h2.544l.544-2.784h1.024l-.544 2.784h1.408v.944h-1.6l-.72 3.696h2v.944h-2.16l-.576 2.912h-1.024l.56-2.912h-2.528l-.56 2.912h-1.024Zm1.76-3.856h2.528l.736-3.696h-2.544l-.72 3.696ZM871.79 273v-11.28h3.808c1.227 0 2.262.219 3.104.656a4.283 4.283 0 0 1 1.936 1.904c.448.832.672 1.856.672 3.072s-.224 2.245-.672 3.088a4.368 4.368 0 0 1-1.936 1.92c-.842.427-1.877.64-3.104.64h-3.808Zm1.312-1.12h2.4c1.483 0 2.587-.379 3.312-1.136.736-.757 1.104-1.888 1.104-3.392s-.368-2.629-1.104-3.376c-.736-.757-1.84-1.136-3.312-1.136h-2.4v9.04Zm13.203 1.264c-.384 0-.773-.053-1.168-.16a5.195 5.195 0 0 1-1.12-.48 3.99 3.99 0 0 1-.896-.72l.496-1.04c.384.416.811.725 1.28.928.47.203.944.304 1.424.304.523 0 .987-.096 1.392-.288.406-.192.747-.48 1.024-.864.278-.395.486-.88.624-1.456.15-.587.224-1.264.224-2.032v-1.488h.128c-.064.597-.245 1.12-.544 1.568a2.867 2.867 0 0 1-1.12 1.024 3.352 3.352 0 0 1-1.552.352c-.661 0-1.248-.149-1.76-.448a3.27 3.27 0 0 1-1.2-1.264c-.288-.544-.432-1.157-.432-1.84 0-.715.15-1.344.448-1.888.31-.555.731-.987 1.264-1.296.544-.32 1.168-.48 1.872-.48.886 0 1.638.219 2.256.656.63.427 1.104 1.051 1.424 1.872.32.821.48 1.813.48 2.976 0 1.291-.181 2.389-.544 3.296-.352.907-.869 1.595-1.552 2.064-.672.469-1.488.704-2.448.704Zm.48-5.456c.47 0 .886-.107 1.248-.32.363-.213.646-.507.848-.88.203-.373.304-.805.304-1.296 0-.501-.101-.939-.304-1.312a2.236 2.236 0 0 0-.848-.88 2.415 2.415 0 0 0-1.248-.32c-.48 0-.901.107-1.264.32a2.405 2.405 0 0 0-.848.88c-.202.373-.304.811-.304 1.312 0 .491.102.923.304 1.296.214.373.496.667.848.88.363.213.784.32 1.264.32Zm10.282 5.456c-.896 0-1.658-.213-2.288-.64-.618-.437-1.088-1.067-1.408-1.888-.32-.821-.48-1.813-.48-2.976 0-1.301.176-2.4.528-3.296.363-.907.886-1.595 1.568-2.064.694-.469 1.515-.704 2.464-.704.384 0 .774.059 1.168.176.395.107.763.261 1.104.464.352.203.651.443.896.72l-.48 1.024a3.728 3.728 0 0 0-1.296-.912 3.479 3.479 0 0 0-1.424-.304c-.522 0-.986.096-1.392.288a2.764 2.764 0 0 0-1.024.88c-.277.384-.485.869-.624 1.456-.138.576-.208 1.248-.208 2.016v1.488h-.144c.064-.608.24-1.131.528-1.568a2.995 2.995 0 0 1 1.136-1.024 3.355 3.355 0 0 1 1.552-.352c.662 0 1.248.149 1.76.448.512.299.912.72 1.2 1.264.288.533.432 1.147.432 1.84 0 .704-.149 1.333-.448 1.888-.298.555-.72.992-1.264 1.312-.544.309-1.162.464-1.856.464Zm-.096-1.12c.47 0 .886-.101 1.248-.304.363-.213.646-.507.848-.88.203-.384.304-.821.304-1.312 0-.491-.101-.923-.304-1.296a2.236 2.236 0 0 0-.848-.88c-.352-.213-.768-.32-1.248-.32a2.42 2.42 0 0 0-1.248.32 2.25 2.25 0 0 0-.848.88c-.202.373-.304.805-.304 1.296s.102.928.304 1.312c.203.373.486.667.848.88.363.203.779.304 1.248.304Zm4.794.976 4.976-11.28h1.12l4.976 11.28h-1.36l-1.392-3.216.64.336h-6.88l.656-.336-1.376 3.216h-1.36Zm5.52-9.744-2.576 6.064-.384-.304h5.92l-.352.304-2.576-6.064h-.032Zm10.632 9.888c-.853 0-1.578-.219-2.176-.656-.586-.448-1.029-1.104-1.328-1.968-.298-.864-.448-1.92-.448-3.168 0-1.259.15-2.315.448-3.168.299-.864.742-1.515 1.328-1.952.598-.437 1.323-.656 2.176-.656.864 0 1.59.219 2.176.656.587.437 1.03 1.083 1.328 1.936.299.853.448 1.909.448 3.168 0 1.259-.149 2.32-.448 3.184-.298.864-.741 1.52-1.328 1.968-.586.437-1.312.656-2.176.656Zm0-1.136c.896 0 1.558-.379 1.984-1.136.438-.757.656-1.936.656-3.536s-.213-2.768-.64-3.504c-.426-.747-1.093-1.12-2-1.12-.885 0-1.546.373-1.984 1.12-.437.747-.656 1.915-.656 3.504 0 1.6.214 2.779.64 3.536.438.757 1.104 1.136 2 1.136Zm6.234.992v-.992l3.856-4.16c.363-.395.656-.763.88-1.104.224-.352.389-.693.496-1.024.107-.331.16-.667.16-1.008 0-.64-.197-1.125-.592-1.456-.384-.341-.949-.512-1.696-.512-.576 0-1.115.107-1.616.32-.491.203-.96.523-1.408.96l-.496-1.024c.416-.427.944-.768 1.584-1.024a5.342 5.342 0 0 1 2.048-.4c.757 0 1.397.117 1.92.352.523.235.917.581 1.184 1.04.267.448.4.997.4 1.648 0 .341-.043.677-.128 1.008-.075.32-.197.645-.368.976-.16.32-.368.651-.624.992a9.484 9.484 0 0 1-.896 1.056l-3.392 3.6v-.368h5.872V273h-7.184Z"/></svg>