<svg xmlns="http://www.w3.org/2000/svg" width="1040" height="441" fill="none"><path fill="#fff" d="M5.104 15.96c-.885 0-1.648-.22-2.288-.663-.64-.448-1.133-1.067-1.48-1.856-.347-.795-.52-1.715-.52-2.76 0-1.115.187-2.054.56-2.816.379-.763.89-1.34 1.536-1.728.65-.395 1.381-.592 2.192-.592 1.072 0 1.933.269 2.584.808.656.533 1.107 1.229 1.352 2.088l-1.344.272c-.208-.624-.541-1.12-1-1.488a2.428 2.428 0 0 0-1.592-.56c-.528 0-1.016.152-1.464.456-.443.298-.8.746-1.072 1.344-.272.597-.408 1.336-.408 2.216 0 .8.107 1.512.32 2.136.219.624.544 1.114.976 1.472.437.357.987.536 1.648.536.795 0 1.424-.214 1.888-.64.47-.427.704-.987.704-1.68h1.36c0 .72-.165 1.338-.496 1.856-.33.512-.795.906-1.392 1.184-.592.277-1.28.416-2.064.416Zm6.324-.191V4.857h1.248v10.912h-1.248Zm9.685-7.664h1.248v7.664h-1.248V8.105Zm-5.424 0h1.248v4.768c0 .64.154 1.125.464 1.456.314.33.762.496 1.344.496.48 0 .896-.128 1.248-.384.357-.256.632-.608.824-1.056.197-.454.296-.971.296-1.552h.464c0 .858-.126 1.592-.376 2.2-.245.608-.595 1.074-1.048 1.4-.448.32-.976.48-1.584.48-.576 0-1.08-.107-1.512-.32a2.294 2.294 0 0 1-1.008-.968c-.24-.438-.36-.99-.36-1.656V8.105Zm12.663 7.856c-.741 0-1.36-.104-1.856-.312-.496-.214-.872-.504-1.128-.872a2.353 2.353 0 0 1-.408-1.28h1.2c.027.485.222.85.584 1.096.368.24.867.36 1.496.36.331 0 .635-.054.912-.16a1.67 1.67 0 0 0 .664-.44.928.928 0 0 0 .248-.632c0-.3-.109-.534-.328-.704-.218-.171-.568-.32-1.048-.448l-1.488-.48c-.645-.203-1.141-.48-1.488-.832a1.788 1.788 0 0 1-.512-1.28c0-.62.272-1.115.816-1.488.544-.374 1.259-.56 2.144-.56.939 0 1.667.192 2.184.576.518.384.787.864.808 1.44H29.92a1.002 1.002 0 0 0-.512-.76c-.293-.176-.709-.264-1.248-.264-.517 0-.922.117-1.216.352-.288.229-.432.485-.432.768 0 .528.454.917 1.36 1.168l1.52.512c.656.197 1.158.456 1.504.776.352.32.528.728.528 1.224 0 .384-.125.746-.376 1.088-.25.34-.605.618-1.064.832-.458.213-1.002.32-1.632.32Zm8.007 0c-.416 0-.79-.08-1.12-.24-.331-.16-.592-.4-.784-.72-.192-.32-.288-.72-.288-1.2V5.993h1.232v7.776c0 .789.368 1.184 1.104 1.184.218 0 .429-.024.632-.072.208-.048.44-.12.696-.216l.176.896a6.22 6.22 0 0 1-.816.288 3.073 3.073 0 0 1-.832.112Zm-3.424-6.976V8.12h4.88v.864h-4.88Zm9.743 6.976a3.213 3.213 0 0 1-1.776-.504 3.604 3.604 0 0 1-1.232-1.416c-.298-.603-.448-1.296-.448-2.08 0-.838.15-1.558.448-2.16.299-.603.707-1.064 1.224-1.384.523-.326 1.118-.488 1.784-.488.582 0 1.078.117 1.488.352.41.234.742.552.992.952.25.4.424.853.52 1.36.102.5.13 1.02.088 1.56H40.23v-.768h4.712l-.368.24a4.322 4.322 0 0 0-.056-.944 2.698 2.698 0 0 0-.28-.864 1.648 1.648 0 0 0-.584-.64c-.25-.16-.57-.24-.96-.24-.49 0-.901.125-1.232.376-.33.25-.578.58-.744.992a3.46 3.46 0 0 0-.248 1.32v.512c0 .533.08 1.01.24 1.432.166.42.41.754.736 1 .326.245.736.368 1.232.368s.904-.12 1.224-.36c.32-.24.515-.595.584-1.064h1.296a2.84 2.84 0 0 1-.544 1.312 2.811 2.811 0 0 1-1.08.84c-.437.197-.93.296-1.48.296Zm5.563-.192V8.105h1.248v7.664h-1.248Zm.864-3.456c0-.971.093-1.776.28-2.416.187-.646.459-1.126.816-1.44.363-.32.803-.48 1.32-.48.17 0 .325.013.464.04.144.02.288.056.432.104l-.08 1.232a3.842 3.842 0 0 0-.488-.12 2.301 2.301 0 0 0-.472-.056c-.453 0-.819.13-1.096.392-.277.256-.48.618-.608 1.088-.123.469-.184 1.02-.184 1.656h-.384Z"/><g clip-path="url(#a)"><path fill="#0C0D0E" d="M0 27.769h437.249v181.766H0z"/><path fill="#474D52" d="M-.379 198.511h437.954v11.679H-.379zm0-170.487h437.954v12.458H-.379zm0 16.241H103.27v151.164H-.379zm334.305 0h103.649v151.164H333.926zm-222.369 0h214.34v151.164h-214.34z"/></g><path stroke="#fff" stroke-width=".672" d="M.336 28.105h436.576v181.094H.336z"/><path fill="#fff" d="M2.213 221.137h.84v8.398h-1.04v-7.171c-.213.146-.438.26-.673.34a2.576 2.576 0 0 1-.7.126v-1.013c.28-.04.55-.113.813-.22.267-.106.52-.26.76-.46Zm3.04 8.398v-1.24c0-.484.078-.888.233-1.213a2.22 2.22 0 0 1 .667-.806 4.51 4.51 0 0 1 1.02-.553l1.652-.653c.427-.174.747-.396.96-.667.214-.271.32-.609.32-1.013 0-.427-.149-.775-.446-1.046-.294-.271-.705-.407-1.233-.407-.525 0-.956.113-1.293.34-.334.222-.525.558-.574 1.006H5.4c.032-.484.174-.895.427-1.233a2.38 2.38 0 0 1 1.047-.766c.44-.178.953-.267 1.54-.267.537 0 1.019.105 1.446.314.426.208.762.497 1.006.866.249.364.373.784.373 1.26 0 .431-.08.806-.24 1.126a2.4 2.4 0 0 1-.686.827 4.313 4.313 0 0 1-1.047.593l-1.693.68c-.426.164-.746.362-.96.593-.213.231-.32.531-.32.899v.4h4.866v.96H5.253Zm10.825.16c-.657 0-1.233-.16-1.726-.48-.489-.32-.87-.802-1.146-1.446-.271-.644-.407-1.451-.407-2.419 0-.969.136-1.773.407-2.413.275-.644.657-1.124 1.146-1.44.493-.32 1.069-.48 1.726-.48.654 0 1.227.16 1.72.48.493.316.875.796 1.146 1.44.276.64.414 1.444.414 2.413 0 .968-.138 1.775-.414 2.419-.27.644-.653 1.126-1.146 1.446-.493.32-1.066.48-1.72.48Zm0-.96c.72 0 1.267-.293 1.64-.879.373-.591.56-1.427.56-2.506 0-1.08-.187-1.913-.56-2.5-.373-.591-.92-.886-1.64-.886-.71 0-1.255.295-1.633.886-.377.587-.566 1.42-.566 2.5 0 1.079.189 1.915.566 2.506.378.586.922.879 1.633.879Zm7.915.96c-.657 0-1.233-.16-1.726-.48-.489-.32-.871-.802-1.147-1.446-.27-.644-.406-1.451-.406-2.419 0-.969.135-1.773.406-2.413.276-.644.658-1.124 1.147-1.44.493-.32 1.069-.48 1.726-.48.653 0 1.226.16 1.72.48.493.316.875.796 1.146 1.44.275.64.413 1.444.413 2.413 0 .968-.137 1.775-.413 2.419-.271.644-.653 1.126-1.146 1.446-.494.32-1.067.48-1.72.48Zm0-.96c.72 0 1.266-.293 1.64-.879.373-.591.56-1.427.56-2.506 0-1.08-.187-1.913-.56-2.5-.374-.591-.92-.886-1.64-.886-.71 0-1.255.295-1.633.886-.377.587-.566 1.42-.566 2.5 0 1.079.189 1.915.566 2.506.378.586.922.879 1.633.879Zm8.195.96c-.467 0-.873-.107-1.22-.32a2.08 2.08 0 0 1-.793-.933c-.187-.413-.28-.915-.28-1.506h.44c0 .395.082.729.246 1 .165.271.378.477.64.619.267.138.549.207.847.207.32 0 .626-.091.92-.273.293-.187.533-.46.72-.82.186-.36.28-.804.28-1.333 0-.507-.087-.94-.26-1.3a1.955 1.955 0 0 0-.687-.826 1.703 1.703 0 0 0-.96-.287 1.75 1.75 0 0 0-.853.22 1.673 1.673 0 0 0-.647.647c-.164.28-.246.626-.246 1.039h-.44c0-.617.102-1.135.306-1.553.205-.422.483-.739.834-.953a2.23 2.23 0 0 1 1.18-.32c.497 0 .961.134 1.392.4.431.267.78.649 1.047 1.147.266.497.4 1.093.4 1.786 0 .702-.136 1.304-.407 1.806-.267.502-.618.887-1.053 1.153-.436.267-.904.4-1.406.4Zm-2.893 2.973v-9.505h.866l.174 1.493v8.012h-1.04Zm6.798-3.133 2.413-3.186-2.413-3.199h1.266l1.826 2.413 1.76-2.413h1.266l-2.426 3.199 2.413 3.186h-1.266l-1.827-2.426-1.746 2.426h-1.266Zm9.984 0 2.413-3.186-2.413-3.199h1.267l1.826 2.413 1.76-2.413h1.266l-2.426 3.199 2.412 3.186h-1.266l-1.826-2.426-1.746 2.426h-1.267Zm13.397.16c-.528 0-1.01-.095-1.446-.286a2.48 2.48 0 0 1-1.046-.84c-.263-.374-.396-.829-.4-1.367h1.04c0 .507.177.889.533 1.147.36.257.8.386 1.32.386.6 0 1.07-.182 1.412-.546.347-.369.52-.822.52-1.36 0-1.075-.693-1.613-2.08-1.613h-2.239l.36-4.052h4.639v.946h-3.8l.214-.36-.28 2.92-.133-.12c.213-.049.455-.082.727-.1a9.09 9.09 0 0 1 .726-.034c.906 0 1.624.203 2.153.607.528.404.793 1.006.793 1.806 0 .542-.122 1.031-.367 1.466a2.673 2.673 0 0 1-1.046 1.027c-.449.249-.982.373-1.6.373Zm7.724 0c-.657 0-1.233-.16-1.726-.48-.489-.32-.87-.802-1.146-1.446-.271-.644-.407-1.451-.407-2.419 0-.969.136-1.773.407-2.413.275-.644.657-1.124 1.146-1.44.493-.32 1.069-.48 1.726-.48.654 0 1.227.16 1.72.48.493.316.875.796 1.146 1.44.276.64.414 1.444.414 2.413 0 .968-.138 1.775-.414 2.419-.27.644-.653 1.126-1.146 1.446-.493.32-1.066.48-1.72.48Zm0-.96c.72 0 1.267-.293 1.64-.879.373-.591.56-1.427.56-2.506 0-1.08-.187-1.913-.56-2.5-.373-.591-.92-.886-1.64-.886-.71 0-1.255.295-1.632.886-.378.587-.567 1.42-.567 2.5 0 1.079.189 1.915.567 2.506.377.586.921.879 1.632.879Zm7.915.96c-.657 0-1.233-.16-1.726-.48-.489-.32-.871-.802-1.147-1.446-.27-.644-.406-1.451-.406-2.419 0-.969.135-1.773.406-2.413.276-.644.658-1.124 1.147-1.44.493-.32 1.069-.48 1.726-.48.653 0 1.227.16 1.72.48.493.316.875.796 1.146 1.44.275.64.413 1.444.413 2.413 0 .968-.138 1.775-.413 2.419-.271.644-.653 1.126-1.146 1.446-.493.32-1.067.48-1.72.48Zm0-.96c.72 0 1.266-.293 1.64-.879.373-.591.56-1.427.56-2.506 0-1.08-.187-1.913-.56-2.5-.374-.591-.92-.886-1.64-.886-.71 0-1.255.295-1.633.886-.377.587-.566 1.42-.566 2.5 0 1.079.189 1.915.566 2.506.378.586.922.879 1.633.879Zm8.195.96c-.467 0-.873-.107-1.22-.32a2.08 2.08 0 0 1-.793-.933c-.187-.413-.28-.915-.28-1.506h.44c0 .395.082.729.246 1 .165.271.378.477.64.619.267.138.549.207.847.207.32 0 .626-.091.92-.273.293-.187.533-.46.72-.82.186-.36.28-.804.28-1.333 0-.507-.087-.94-.26-1.3a1.955 1.955 0 0 0-.687-.826 1.703 1.703 0 0 0-.96-.287 1.75 1.75 0 0 0-.853.22 1.673 1.673 0 0 0-.647.647c-.164.28-.246.626-.246 1.039h-.44c0-.617.102-1.135.306-1.553.205-.422.483-.739.834-.953a2.23 2.23 0 0 1 1.18-.32c.497 0 .961.134 1.392.4.431.267.78.649 1.047 1.147.266.497.4 1.093.4 1.786 0 .702-.136 1.304-.407 1.806-.266.502-.617.887-1.053 1.153a2.64 2.64 0 0 1-1.406.4Zm-2.893 2.973v-9.505h.867l.173 1.493v8.012h-1.04Zm6.798-3.133 2.413-3.186-2.413-3.199h1.266l1.826 2.413 1.76-2.413h1.266l-2.426 3.199 2.413 3.186h-1.266l-1.827-2.426-1.746 2.426h-1.266Zm-83.254 16.16c-.418 0-.822-.058-1.213-.173a3.54 3.54 0 0 1-1.046-.52 2.53 2.53 0 0 1-.727-.853 2.484 2.484 0 0 1-.267-1.173h1.067c.009.382.111.704.306.966.196.262.456.46.78.593.33.134.696.2 1.1.2.622 0 1.104-.151 1.446-.453a1.45 1.45 0 0 0 .514-1.133 1.39 1.39 0 0 0-.214-.766c-.142-.223-.369-.396-.68-.52-.306-.129-.71-.194-1.213-.194h-.946v-.826h.64c.649 0 1.16-.129 1.533-.387.373-.257.56-.613.56-1.066 0-.4-.151-.738-.454-1.013-.302-.276-.733-.413-1.293-.413-.43 0-.815.089-1.153.266-.337.174-.566.494-.686.96H.946c.072-.52.24-.94.507-1.26.267-.32.604-.551 1.013-.693a4.02 4.02 0 0 1 1.36-.22c.555 0 1.05.098 1.486.294a2.5 2.5 0 0 1 1.026.806c.254.342.38.735.38 1.18 0 .44-.126.817-.38 1.133-.248.311-.61.551-1.086.72.529.151.96.399 1.293.746.338.347.507.791.507 1.333 0 .48-.127.907-.38 1.28-.25.369-.605.66-1.067.873-.462.209-1.01.313-1.646.313Zm6.13-8.558h.84v8.398h-1.04v-7.171c-.214.146-.438.26-.674.34a2.576 2.576 0 0 1-.7.126v-1.013c.28-.04.551-.113.814-.22.266-.106.52-.26.76-.46Zm2.973 8.398 4.012-7.385h-4.479v-.986h5.706v.96l-3.853 7.411h-1.386Zm5.875-.62a.75.75 0 0 1 .22-.54.738.738 0 0 1 .553-.226c.222 0 .411.075.567.226a.728.728 0 0 1 .233.54.686.686 0 0 1-.233.527.81.81 0 0 1-.567.213.763.763 0 0 1-.553-.213.719.719 0 0 1-.22-.527Zm5.741.78c-.528 0-1.01-.095-1.446-.286a2.481 2.481 0 0 1-1.046-.84c-.263-.374-.396-.829-.4-1.367h1.04c0 .507.177.889.533 1.147.36.257.8.386 1.32.386.6 0 1.07-.182 1.412-.546.347-.369.52-.822.52-1.36 0-1.075-.693-1.613-2.08-1.613h-2.239l.36-4.052h4.639v.946h-3.8l.214-.36-.28 2.92-.133-.12c.213-.049.455-.082.726-.1.271-.022.514-.034.727-.034.906 0 1.624.203 2.153.607.529.404.793 1.006.793 1.806 0 .542-.122 1.031-.367 1.466a2.673 2.673 0 0 1-1.046 1.027c-.449.249-.982.373-1.6.373Zm14.07-.16v-3.746c0-.608-.147-1.07-.44-1.386-.29-.32-.68-.48-1.173-.48-.578 0-1.02.225-1.327.673-.306.445-.46 1.06-.46 1.847h-.48c0-.574.056-1.076.167-1.507.116-.431.282-.788.5-1.073a2.05 2.05 0 0 1 .793-.646 2.525 2.525 0 0 1 1.06-.214c.502 0 .93.114 1.286.34.36.223.636.542.827.96.19.418.286.913.286 1.486v3.746h-1.04Zm-8.958 0v-6.372h.893l.12 1.28c.2-.462.48-.817.84-1.066.364-.249.8-.374 1.306-.374.502 0 .93.114 1.286.34.36.223.636.542.827.96.19.418.286.913.286 1.486v3.746h-1.026v-3.746c0-.608-.147-1.07-.44-1.386-.289-.32-.684-.48-1.186-.48a1.62 1.62 0 0 0-.993.313c-.28.209-.496.509-.647.9-.151.387-.227.849-.227 1.387v3.012h-1.04Zm21.428 0v-3.746c0-.608-.146-1.07-.44-1.386-.288-.32-.68-.48-1.173-.48-.577 0-1.02.225-1.326.673-.307.445-.46 1.06-.46 1.847h-.48c0-.574.056-1.076.167-1.507.115-.431.282-.788.5-1.073a2.05 2.05 0 0 1 .793-.646 2.525 2.525 0 0 1 1.06-.214c.502 0 .93.114 1.286.34.36.223.635.542.826.96.192.418.287.913.287 1.486v3.746h-1.04Zm-8.957 0v-6.372h.893l.12 1.28c.2-.462.48-.817.84-1.066.364-.249.8-.374 1.306-.374.502 0 .93.114 1.286.34.36.223.636.542.827.96.19.418.286.913.286 1.486v3.746h-1.026v-3.746c0-.608-.147-1.07-.44-1.386-.289-.32-.684-.48-1.187-.48a1.62 1.62 0 0 0-.993.313c-.28.209-.495.509-.646.9-.151.387-.227.849-.227 1.387v3.012h-1.04Zm14.634 0 2.413-3.186-2.413-3.199h1.266l1.826 2.413 1.76-2.413h1.266l-2.426 3.199L63 245.535h-1.266l-1.827-2.426-1.746 2.426h-1.266Zm11.85-8.398h.84v8.398h-1.04v-7.171a2.76 2.76 0 0 1-.672.34 2.576 2.576 0 0 1-.7.126v-1.013c.28-.04.55-.113.813-.22.266-.106.52-.26.76-.46Zm6.147 8.558c-.418 0-.822-.058-1.213-.173a3.54 3.54 0 0 1-1.047-.52 2.53 2.53 0 0 1-.726-.853 2.483 2.483 0 0 1-.267-1.173h1.067c.009.382.11.704.306.966s.456.46.78.593c.329.134.695.2 1.1.2.622 0 1.104-.151 1.446-.453a1.45 1.45 0 0 0 .513-1.133c0-.289-.07-.544-.213-.766-.142-.223-.369-.396-.68-.52-.306-.129-.71-.194-1.213-.194H73.8v-.826h.64c.648 0 1.16-.129 1.533-.387.373-.257.56-.613.56-1.066 0-.4-.152-.738-.454-1.013-.302-.276-.733-.413-1.293-.413-.43 0-.815.089-1.153.266-.338.174-.566.494-.686.96H71.88c.071-.52.24-.94.507-1.26.266-.32.604-.551 1.013-.693a4.02 4.02 0 0 1 1.36-.22c.555 0 1.05.098 1.486.294a2.5 2.5 0 0 1 1.026.806c.254.342.38.735.38 1.18 0 .44-.126.817-.38 1.133-.249.311-.61.551-1.086.72.529.151.96.399 1.293.746.338.347.506.791.506 1.333 0 .48-.126.907-.38 1.28-.248.369-.604.66-1.066.873-.462.209-1.01.313-1.646.313Zm4.77-.16v-1.24c0-.484.077-.888.233-1.213a2.22 2.22 0 0 1 .666-.806 4.509 4.509 0 0 1 1.02-.553l1.653-.653c.427-.174.747-.396.96-.667.213-.271.32-.609.32-1.013 0-.427-.15-.775-.447-1.046-.293-.271-.704-.407-1.233-.407-.524 0-.955.113-1.293.34-.333.222-.524.558-.573 1.006h-1.16c.031-.484.173-.895.427-1.233a2.38 2.38 0 0 1 1.046-.766c.44-.178.953-.267 1.54-.267.537 0 1.02.105 1.446.314.427.208.762.497 1.007.866.248.364.373.784.373 1.26 0 .431-.08.806-.24 1.126-.16.32-.389.595-.687.827a4.314 4.314 0 0 1-1.046.593l-1.693.68c-.427.164-.746.362-.96.593-.213.231-.32.531-.32.899v.4h4.866v.96h-5.905Zm7.266-.62a.75.75 0 0 1 .22-.54.738.738 0 0 1 .553-.226c.222 0 .41.075.566.226a.728.728 0 0 1 .234.54.686.686 0 0 1-.234.527.81.81 0 0 1-.566.213.763.763 0 0 1-.553-.213.72.72 0 0 1-.22-.527Zm5.941.78c-.418 0-.822-.058-1.213-.173a3.542 3.542 0 0 1-1.046-.52 2.53 2.53 0 0 1-.727-.853 2.484 2.484 0 0 1-.266-1.173h1.066c.009.382.111.704.306.966.196.262.456.46.78.593.33.134.696.2 1.1.2.622 0 1.104-.151 1.446-.453a1.45 1.45 0 0 0 .514-1.133 1.39 1.39 0 0 0-.214-.766c-.142-.223-.368-.396-.68-.52-.306-.129-.71-.194-1.213-.194h-.946v-.826h.64c.649 0 1.16-.129 1.533-.387.373-.257.56-.613.56-1.066 0-.4-.151-.738-.454-1.013-.302-.276-.733-.413-1.293-.413-.43 0-.815.089-1.153.266-.337.174-.566.494-.686.96h-1.067c.072-.52.24-.94.507-1.26.267-.32.604-.551 1.013-.693a4.02 4.02 0 0 1 1.36-.22c.555 0 1.05.098 1.486.294a2.5 2.5 0 0 1 1.027.806c.253.342.38.735.38 1.18 0 .44-.127.817-.38 1.133-.25.311-.611.551-1.087.72.529.151.96.399 1.293.746.338.347.507.791.507 1.333 0 .48-.127.907-.38 1.28-.25.369-.605.66-1.067.873-.462.209-1.01.313-1.646.313Zm14.221-.16v-3.746c0-.608-.147-1.07-.44-1.386-.289-.32-.68-.48-1.173-.48-.578 0-1.02.225-1.326.673-.307.445-.46 1.06-.46 1.847h-.48c0-.574.055-1.076.166-1.507.116-.431.283-.788.5-1.073.218-.289.482-.504.793-.646a2.527 2.527 0 0 1 1.06-.214c.502 0 .931.114 1.286.34.36.223.636.542.827.96.191.418.287.913.287 1.486v3.746h-1.04Zm-8.958 0v-6.372h.893l.12 1.28c.2-.462.48-.817.84-1.066.364-.249.8-.374 1.306-.374.502 0 .931.114 1.287.34.359.223.635.542.826.96.191.418.287.913.287 1.486v3.746h-1.027v-3.746c0-.608-.146-1.07-.44-1.386-.288-.32-.684-.48-1.186-.48a1.62 1.62 0 0 0-.993.313c-.28.209-.496.509-.647.9-.15.387-.226.849-.226 1.387v3.012h-1.04Zm21.429 0v-3.746c0-.608-.147-1.07-.44-1.386-.289-.32-.68-.48-1.173-.48-.578 0-1.02.225-1.327.673-.306.445-.46 1.06-.46 1.847h-.479c0-.574.055-1.076.166-1.507.116-.431.282-.788.5-1.073.218-.289.482-.504.793-.646a2.527 2.527 0 0 1 1.06-.214c.502 0 .931.114 1.286.34.36.223.636.542.827.96.191.418.286.913.286 1.486v3.746h-1.039Zm-8.958 0v-6.372h.893l.12 1.28c.2-.462.48-.817.84-1.066.364-.249.8-.374 1.306-.374.502 0 .931.114 1.286.34.36.223.636.542.827.96.191.418.286.913.286 1.486v3.746h-1.026v-3.746c0-.608-.147-1.07-.44-1.386-.289-.32-.684-.48-1.186-.48a1.62 1.62 0 0 0-.993.313c-.28.209-.496.509-.647.9-.151.387-.226.849-.226 1.387v3.012h-1.04Zm226.285-15.84c-.618 0-1.133-.087-1.546-.26-.414-.178-.727-.42-.94-.726a1.953 1.953 0 0 1-.34-1.067h1c.022.405.184.709.486.913.307.2.722.3 1.246.3.276 0 .529-.044.76-.133a1.39 1.39 0 0 0 .554-.367.775.775 0 0 0 .206-.526.705.705 0 0 0-.273-.587c-.182-.142-.473-.266-.873-.373l-1.24-.4c-.538-.169-.951-.4-1.24-.693a1.491 1.491 0 0 1-.426-1.066c0-.516.226-.929.68-1.24.453-.311 1.048-.467 1.786-.467.782 0 1.388.16 1.819.48.431.32.656.72.674 1.2h-1.027a.834.834 0 0 0-.426-.633c-.245-.147-.591-.22-1.04-.22-.431 0-.769.098-1.013.293-.24.191-.36.405-.36.64 0 .44.378.764 1.133.973l1.266.427c.547.164.964.38 1.253.646.294.267.44.607.44 1.02 0 .32-.104.622-.313.906-.209.285-.504.516-.887.694-.382.177-.835.266-1.359.266Zm6.923 0c-.551 0-1.044-.14-1.479-.42a2.996 2.996 0 0 1-1.027-1.179c-.249-.503-.373-1.08-.373-1.733 0-.698.124-1.298.373-1.8s.589-.886 1.02-1.153a2.754 2.754 0 0 1 1.486-.407c.485 0 .898.098 1.24.294.342.195.618.46.826.793.209.333.354.711.434 1.133.084.418.109.851.073 1.3h-4.612v-.64h3.925l-.306.2a3.59 3.59 0 0 0-.047-.787 2.264 2.264 0 0 0-.233-.72 1.374 1.374 0 0 0-.487-.533c-.208-.133-.475-.2-.799-.2-.409 0-.751.105-1.027.314a1.906 1.906 0 0 0-.62.826 2.898 2.898 0 0 0-.206 1.1v.426c0 .445.066.842.2 1.193.137.351.342.629.613.833.271.205.613.307 1.026.307.414 0 .753-.1 1.02-.3.267-.2.429-.495.487-.886h1.079a2.357 2.357 0 0 1-.453 1.093 2.34 2.34 0 0 1-.9.7 2.97 2.97 0 0 1-1.233.246Zm6.874 0c-.511 0-.988-.138-1.433-.413a3.051 3.051 0 0 1-1.066-1.166c-.271-.503-.407-1.096-.407-1.78 0-.702.136-1.302.407-1.8.271-.497.626-.877 1.066-1.139a2.776 2.776 0 0 1 1.433-.394c.36 0 .682.056.967.167.288.107.539.256.753.447.213.191.389.408.526.653.142.24.247.493.314.76l-1.067.093a1.734 1.734 0 0 0-.56-.873 1.414 1.414 0 0 0-.946-.327c-.316 0-.613.091-.893.273-.276.178-.5.447-.673.807-.174.355-.26.8-.26 1.333 0 .493.077.922.233 1.286.16.36.378.64.653.84.276.2.589.3.94.3.493 0 .866-.12 1.12-.36.257-.244.386-.582.386-1.013h1.067c0 .444-.105.84-.314 1.186-.209.347-.506.62-.893.82-.382.2-.833.3-1.353.3Zm6.94 0a3.069 3.069 0 0 1-1.533-.38c-.444-.253-.795-.629-1.053-1.126-.258-.498-.386-1.111-.386-1.84 0-.733.128-1.346.386-1.839a2.677 2.677 0 0 1 1.053-1.127c.449-.253.96-.38 1.533-.38a3.02 3.02 0 0 1 1.52.38c.449.254.8.629 1.053 1.127.258.493.386 1.106.386 1.839 0 .729-.128 1.342-.386 1.84a2.614 2.614 0 0 1-1.053 1.126 3.02 3.02 0 0 1-1.52.38Zm-.027-.906c.414 0 .765-.098 1.054-.294.288-.2.506-.482.653-.846.151-.364.226-.798.226-1.3 0-.76-.157-1.357-.473-1.793-.315-.439-.784-.659-1.406-.659-.418 0-.771.1-1.06.299-.284.196-.502.478-.653.847-.147.364-.22.8-.22 1.306 0 .751.158 1.347.473 1.787.32.435.789.653 1.406.653Zm9.543.746v-3.746c0-.608-.147-1.07-.44-1.386-.289-.32-.684-.48-1.186-.48a1.62 1.62 0 0 0-.993.313c-.28.209-.496.509-.647.9-.151.387-.226.849-.226 1.387h-.4c0-.742.097-1.376.293-1.9.195-.524.48-.924.853-1.2.378-.28.835-.42 1.373-.42.502 0 .931.114 1.286.34.36.223.636.542.827.96.191.418.286.913.286 1.486v3.746h-1.026Zm-4.532 0v-6.372h.893l.147 1.467v4.905h-1.04Zm10.324.16c-.515 0-.988-.138-1.419-.413a2.997 2.997 0 0 1-1.034-1.173c-.257-.507-.386-1.102-.386-1.786 0-.68.127-1.269.38-1.767.253-.497.589-.879 1.006-1.146a2.515 2.515 0 0 1 1.387-.407c.466 0 .875.114 1.226.34.355.227.631.554.826.98.196.427.294.942.294 1.546h-.4c0-.422-.085-.777-.254-1.066a1.65 1.65 0 0 0-.646-.653 1.717 1.717 0 0 0-1.813.066 2.03 2.03 0 0 0-.686.827c-.169.355-.254.782-.254 1.28 0 .506.085.942.254 1.306.173.364.402.644.686.84a1.67 1.67 0 0 0 1.786.066 1.8 1.8 0 0 0 .667-.659c.173-.294.26-.647.26-1.06h.4c0 .617-.103 1.142-.307 1.573-.2.426-.473.751-.82.973a2.071 2.071 0 0 1-1.153.333Zm2.053-.16-.173-1.493v-7.598h1.039v9.091h-.866Zm7.515 0-.133-1.399v-2.733c0-.573-.122-.984-.367-1.233-.244-.253-.611-.38-1.1-.38-.275 0-.526.04-.753.12-.222.08-.4.204-.533.373-.129.165-.193.378-.193.64h-1.16c0-.462.113-.833.34-1.113.227-.284.538-.489.933-.613.4-.129.856-.194 1.366-.194.489 0 .922.083 1.3.247.378.164.673.427.887.787.213.355.32.819.32 1.393v4.105h-.907Zm-2.173.16c-.524 0-.957-.093-1.299-.28a1.892 1.892 0 0 1-.767-.726 1.876 1.876 0 0 1-.253-.94c0-.431.107-.782.32-1.053.218-.271.513-.469.886-.593a3.84 3.84 0 0 1 1.26-.194c.333 0 .666.034 1 .1.337.067.666.158.986.274v.653a4.726 4.726 0 0 0-.906-.253 4.984 4.984 0 0 0-.92-.094c-.427 0-.787.089-1.08.267-.293.173-.44.471-.44.893 0 .311.111.578.334.8.226.222.586.333 1.079.333.347 0 .658-.08.933-.24.28-.164.5-.369.66-.613.165-.245.247-.489.247-.733h.253c0 .426-.093.822-.28 1.186a2.21 2.21 0 0 1-.786.88c-.342.222-.751.333-1.227.333Zm5.569-.16v-6.385h1.04v6.385h-1.04Zm.72-2.879c0-.809.078-1.48.233-2.013.156-.538.383-.937.68-1.2.302-.266.669-.4 1.1-.4.142 0 .271.012.387.034.12.018.239.046.359.086l-.066 1.027a3.276 3.276 0 0 0-.407-.1 1.916 1.916 0 0 0-.393-.047c-.378 0-.682.109-.913.327-.231.213-.4.515-.507.906a5.508 5.508 0 0 0-.153 1.38h-.32Zm3.044-3.493h1.159l2.08 5.466h-.24l1.613-5.466h1.066l-2.399 7.652c-.2.64-.467 1.133-.8 1.479-.333.347-.76.52-1.28.52-.279 0-.546-.04-.799-.12a4.137 4.137 0 0 1-.773-.346v-.96c.235.187.462.32.679.4.223.08.454.12.694.12a.933.933 0 0 0 .666-.253c.182-.169.333-.387.453-.654.12-.262.222-.537.307-.826l.186-.64-2.612-6.372Zm10.425 6.372v-9.091h1.04v9.091h-1.04Zm7.682 0-.133-1.399v-2.733c0-.573-.122-.984-.367-1.233-.244-.253-.611-.38-1.099-.38-.276 0-.527.04-.754.12-.222.08-.399.204-.533.373-.129.165-.193.378-.193.64h-1.16c0-.462.114-.833.34-1.113.227-.284.538-.489.933-.613a4.45 4.45 0 0 1 1.367-.194c.488 0 .922.083 1.299.247.378.164.673.427.887.787.213.355.32.819.32 1.393v4.105h-.907Zm-2.173.16c-.524 0-.957-.093-1.299-.28a1.898 1.898 0 0 1-.767-.726 1.876 1.876 0 0 1-.253-.94c0-.431.107-.782.32-1.053.218-.271.513-.469.886-.593a3.844 3.844 0 0 1 1.26-.194c.333 0 .667.034 1 .1.337.067.666.158.986.274v.653a4.726 4.726 0 0 0-.906-.253 4.976 4.976 0 0 0-.92-.094c-.427 0-.786.089-1.08.267-.293.173-.44.471-.44.893 0 .311.111.578.334.8.226.222.586.333 1.079.333.347 0 .658-.08.933-.24.28-.164.5-.369.66-.613.165-.245.247-.489.247-.733h.253c0 .426-.093.822-.28 1.186a2.21 2.21 0 0 1-.786.88c-.342.222-.751.333-1.227.333Zm4.516-6.532h1.16l2.08 5.466h-.24l1.613-5.466h1.066l-2.399 7.652c-.2.64-.467 1.133-.8 1.479-.333.347-.76.52-1.28.52-.28 0-.546-.04-.8-.12a4.166 4.166 0 0 1-.773-.346v-.96c.236.187.462.32.68.4.222.08.453.12.693.12a.934.934 0 0 0 .667-.253c.182-.169.333-.387.453-.654.12-.262.222-.537.306-.826l.187-.64-2.613-6.372Zm9.569 6.532a3.069 3.069 0 0 1-1.533-.38c-.444-.253-.795-.629-1.053-1.126-.258-.498-.387-1.111-.387-1.84 0-.733.129-1.346.387-1.839a2.677 2.677 0 0 1 1.053-1.127c.449-.253.96-.38 1.533-.38a3.02 3.02 0 0 1 1.52.38c.448.254.799.629 1.053 1.127.257.493.386 1.106.386 1.839 0 .729-.129 1.342-.386 1.84a2.626 2.626 0 0 1-1.053 1.126 3.02 3.02 0 0 1-1.52.38Zm-.027-.906c.413 0 .765-.098 1.053-.294.289-.2.507-.482.653-.846.152-.364.227-.798.227-1.3 0-.76-.158-1.357-.473-1.793-.316-.439-.784-.659-1.406-.659-.418 0-.771.1-1.06.299-.285.196-.502.478-.653.847-.147.364-.22.8-.22 1.306 0 .751.157 1.347.473 1.787.32.435.789.653 1.406.653Zm9.343-5.639h1.04v6.385h-1.04v-6.385Zm-4.519 0h1.04v3.972c0 .534.129.938.386 1.213.263.276.636.414 1.12.414.4 0 .747-.107 1.04-.32.298-.214.526-.507.686-.88.165-.378.247-.809.247-1.293h.386c0 .715-.104 1.326-.313 1.833-.204.506-.495.895-.873 1.166-.373.267-.813.4-1.32.4-.479 0-.899-.089-1.259-.266a1.914 1.914 0 0 1-.84-.807c-.2-.364-.3-.824-.3-1.38v-4.052Zm10.217 6.545c-.347 0-.658-.067-.933-.2a1.513 1.513 0 0 1-.653-.6c-.16-.266-.24-.6-.24-.999v-6.505h1.026v6.478c0 .658.307.986.92.986.182 0 .358-.02.527-.06.173-.04.366-.1.579-.18l.147.747a5.111 5.111 0 0 1-.68.24 2.564 2.564 0 0 1-.693.093Zm-2.853-5.812v-.72h4.066v.72h-4.066Zm27.024-208.114V5.72h1.248v10.048h-1.248Zm7.972.192c-.885 0-1.648-.222-2.288-.664-.64-.448-1.133-1.067-1.48-1.856-.347-.795-.52-1.715-.52-2.76 0-1.115.187-2.054.56-2.816.379-.763.891-1.34 1.536-1.728.651-.395 1.381-.592 2.192-.592 1.072 0 1.933.269 2.584.808.656.533 1.107 1.229 1.352 2.088l-1.344.272c-.208-.624-.541-1.12-1-1.488a2.428 2.428 0 0 0-1.592-.56c-.528 0-1.016.152-1.464.456-.443.298-.8.746-1.072 1.344-.272.597-.408 1.336-.408 2.216 0 .8.107 1.512.32 2.136.219.624.544 1.114.976 1.472.437.357.987.536 1.648.536.795 0 1.424-.214 1.888-.64.469-.427.704-.987.704-1.68h1.36c0 .72-.165 1.338-.496 1.856-.331.512-.795.906-1.392 1.184-.592.277-1.28.416-2.064.416Zm9.541 0c-.672 0-1.288-.12-1.848-.36a3.22 3.22 0 0 1-1.352-1.08c-.342-.475-.518-1.062-.528-1.76h1.216c0 .469.114.856.344 1.16.229.298.533.522.912.672.378.144.792.216 1.24.216.485 0 .906-.078 1.264-.232.357-.155.632-.358.824-.608.197-.256.296-.536.296-.84 0-.427-.131-.771-.392-1.032-.262-.267-.648-.483-1.16-.648l-1.776-.624c-.832-.3-1.462-.64-1.888-1.024-.427-.384-.64-.923-.64-1.616 0-.78.298-1.414.896-1.904.602-.491 1.456-.736 2.56-.736 1.024 0 1.824.237 2.4.712.576.469.906 1.1.992 1.896h-1.232c-.08-.464-.299-.824-.656-1.08-.352-.262-.854-.392-1.504-.392-.662 0-1.176.146-1.544.44-.368.293-.552.664-.552 1.112 0 .368.114.66.344.88.234.213.6.405 1.096.576l2.08.72c.72.24 1.288.576 1.704 1.008.421.432.632.992.632 1.68 0 .533-.144 1.016-.432 1.448-.283.432-.702.776-1.256 1.032-.555.256-1.235.384-2.04.384Z"/><g clip-path="url(#b)"><path fill="#0C0D0E" d="M457.249 27.769h582v372.256h-582z"/><path fill="#474D52" d="M457.285 28.024h582.838v25.949H457.285zm137.696 34.242h445.142v298.79H594.981zm-137.696 0h123.853v298.79H457.285zm0 307.168h582.838v32.019H457.285z"/></g><path stroke="#fff" stroke-width=".672" d="M457.585 28.105h581.328v371.584H457.585z"/><path fill="#fff" d="M459.461 411.627h.84v8.397h-1.039v-7.171a2.535 2.535 0 0 1-1.373.466v-1.013c.279-.04.551-.113.813-.22.266-.106.52-.26.759-.459Zm6.2 8.557c-.671 0-1.257-.184-1.76-.553-.497-.369-.884-.868-1.159-1.499-.276-.636-.414-1.351-.414-2.147 0-.937.14-1.739.42-2.406.28-.671.68-1.184 1.2-1.539.52-.356 1.14-.533 1.86-.533.497 0 .935.095 1.313.286.382.187.686.449.913.787.231.337.369.731.413 1.179h-1.133c-.067-.4-.218-.717-.453-.953-.236-.235-.578-.353-1.027-.353-.764 0-1.364.331-1.799.993-.436.658-.653 1.557-.653 2.699 0 .165.004.356.013.574.009.213.027.413.053.599.04-.591.176-1.055.407-1.393.235-.342.529-.584.88-.726a2.94 2.94 0 0 1 1.113-.213c.506 0 .959.111 1.359.333.405.222.722.531.953.926.236.391.354.842.354 1.353 0 .516-.12.969-.36 1.36-.24.387-.576.689-1.007.906-.426.214-.922.32-1.486.32Zm0-.959c.507 0 .926-.149 1.26-.447.333-.298.5-.7.5-1.206 0-.52-.167-.927-.5-1.22-.334-.298-.753-.447-1.26-.447-.333 0-.631.074-.893.22-.262.143-.471.34-.627.594a1.609 1.609 0 0 0-.226.853c0 .506.166.908.5 1.206.333.298.748.447 1.246.447Zm7.575.959c-.658 0-1.233-.16-1.726-.48-.489-.319-.871-.802-1.147-1.446-.271-.644-.406-1.451-.406-2.419 0-.969.135-1.773.406-2.413.276-.644.658-1.124 1.147-1.44.493-.319 1.068-.479 1.726-.479.653 0 1.226.16 1.72.479.493.316.875.796 1.146 1.44.275.64.413 1.444.413 2.413 0 .968-.138 1.775-.413 2.419-.271.644-.653 1.127-1.146 1.446-.494.32-1.067.48-1.72.48Zm0-.959c.72 0 1.266-.294 1.64-.88.373-.591.559-1.426.559-2.506 0-1.08-.186-1.913-.559-2.5-.374-.591-.92-.886-1.64-.886-.711 0-1.255.295-1.633.886-.378.587-.566 1.42-.566 2.5s.188 1.915.566 2.506c.378.586.922.88 1.633.88Zm7.915.959c-.658 0-1.233-.16-1.727-.48-.488-.319-.87-.802-1.146-1.446-.271-.644-.407-1.451-.407-2.419 0-.969.136-1.773.407-2.413.276-.644.658-1.124 1.146-1.44.494-.319 1.069-.479 1.727-.479.653 0 1.226.16 1.719.479.493.316.876.796 1.147 1.44.275.64.413 1.444.413 2.413 0 .968-.138 1.775-.413 2.419-.271.644-.654 1.127-1.147 1.446-.493.32-1.066.48-1.719.48Zm0-.959c.719 0 1.266-.294 1.639-.88.373-.591.56-1.426.56-2.506 0-1.08-.187-1.913-.56-2.5-.373-.591-.92-.886-1.639-.886-.711 0-1.256.295-1.633.886-.378.587-.567 1.42-.567 2.5s.189 1.915.567 2.506c.377.586.922.88 1.633.88Zm8.194.959c-.466 0-.873-.106-1.219-.32a2.08 2.08 0 0 1-.794-.933c-.186-.413-.279-.915-.279-1.506h.439c0 .396.083.729.247 1 .164.271.378.477.64.62.266.137.549.206.846.206.32 0 .627-.091.92-.273.293-.187.533-.46.72-.82.187-.36.28-.804.28-1.333 0-.506-.087-.94-.26-1.299a1.959 1.959 0 0 0-.687-.827 1.7 1.7 0 0 0-.959-.287c-.303 0-.587.074-.853.22a1.676 1.676 0 0 0-.647.647c-.164.28-.247.626-.247 1.04h-.439c0-.618.102-1.136.306-1.553.204-.422.482-.74.833-.953a2.22 2.22 0 0 1 1.18-.32c.498 0 .962.133 1.393.4.431.266.78.648 1.046 1.146.267.498.4 1.093.4 1.786 0 .702-.135 1.304-.406 1.806-.267.503-.618.887-1.053 1.153-.436.267-.905.4-1.407.4Zm-2.892 2.973v-9.504h.866l.173 1.493v8.011h-1.039Zm6.797-3.133 2.413-3.185-2.413-3.2h1.267l1.826 2.413 1.76-2.413h1.266l-2.426 3.2 2.413 3.185h-1.267l-1.826-2.426-1.746 2.426h-1.267Zm9.985 0 2.413-3.185-2.413-3.2h1.266l1.826 2.413 1.76-2.413h1.266l-2.426 3.2 2.413 3.185h-1.266l-1.826-2.426-1.747 2.426h-1.266Zm11.851-8.397h.839v8.397h-1.039v-7.171a2.535 2.535 0 0 1-1.373.466v-1.013c.28-.04.551-.113.813-.22.266-.106.52-.26.76-.459Zm6.146 8.557c-.658 0-1.233-.16-1.726-.48-.489-.319-.871-.802-1.147-1.446-.271-.644-.406-1.451-.406-2.419 0-.969.135-1.773.406-2.413.276-.644.658-1.124 1.147-1.44.493-.319 1.068-.479 1.726-.479.653 0 1.226.16 1.719.479.494.316.876.796 1.147 1.44.275.64.413 1.444.413 2.413 0 .968-.138 1.775-.413 2.419-.271.644-.653 1.127-1.147 1.446-.493.32-1.066.48-1.719.48Zm0-.959c.72 0 1.266-.294 1.639-.88.374-.591.56-1.426.56-2.506 0-1.08-.186-1.913-.56-2.5-.373-.591-.919-.886-1.639-.886-.711 0-1.255.295-1.633.886-.378.587-.567 1.42-.567 2.5s.189 1.915.567 2.506c.378.586.922.88 1.633.88Zm4.809.799v-1.239c0-.485.077-.889.233-1.213.16-.325.382-.593.666-.807a4.557 4.557 0 0 1 1.02-.553l1.653-.653c.427-.173.747-.396.96-.667.213-.271.32-.608.32-1.013 0-.426-.149-.775-.447-1.046-.293-.271-.704-.407-1.233-.407-.524 0-.955.114-1.293.34-.333.222-.524.558-.573 1.007h-1.16c.031-.485.174-.896.427-1.233a2.368 2.368 0 0 1 1.046-.767c.44-.178.953-.266 1.54-.266.537 0 1.02.104 1.446.313.427.209.762.497 1.007.866.248.365.373.784.373 1.26 0 .431-.08.806-.24 1.126-.16.32-.389.596-.687.827a4.278 4.278 0 0 1-1.046.593l-1.693.68c-.427.164-.746.362-.96.593-.213.231-.32.531-.32.9v.4h4.866v.959h-5.905Zm11.598-8.491h.973v5.572h1.453v.88h-1.453v2.039h-1.026v-2.039h-4.333v-.8l4.386-5.652Zm-.013 1.64-3.133 4.012h3.133v-4.012Zm6.966 7.011c-.467 0-.873-.106-1.22-.32a2.084 2.084 0 0 1-.793-.933c-.187-.413-.28-.915-.28-1.506h.44c0 .396.082.729.247 1 .164.271.377.477.639.62.267.137.549.206.847.206.32 0 .626-.091.92-.273.293-.187.533-.46.719-.82.187-.36.28-.804.28-1.333 0-.506-.086-.94-.26-1.299a1.95 1.95 0 0 0-.686-.827 1.705 1.705 0 0 0-.96-.287c-.302 0-.586.074-.853.22a1.68 1.68 0 0 0-.646.647c-.165.28-.247.626-.247 1.04h-.44c0-.618.102-1.136.307-1.553.204-.422.482-.74.833-.953a2.22 2.22 0 0 1 1.18-.32c.497 0 .962.133 1.393.4.431.266.779.648 1.046 1.146.267.498.4 1.093.4 1.786 0 .702-.136 1.304-.407 1.806-.266.503-.617.887-1.053 1.153a2.64 2.64 0 0 1-1.406.4Zm-2.893 2.973v-9.504h.867l.173 1.493v8.011h-1.04Zm6.798-3.133 2.413-3.185-2.413-3.2h1.266l1.827 2.413 1.759-2.413h1.267l-2.427 3.2 2.413 3.185h-1.266l-1.826-2.426-1.747 2.426h-1.266Zm-86.516 7.509h.973v5.572h1.453v.88h-1.453v2.039h-1.026v-2.039h-4.333v-.8l4.386-5.652Zm-.013 1.64-3.133 4.012h3.133v-4.012Zm3.58 6.851v-1.239c0-.485.078-.889.233-1.213.16-.325.382-.593.667-.807a4.527 4.527 0 0 1 1.019-.553l1.653-.653c.427-.173.747-.396.96-.667.213-.271.32-.608.32-1.013 0-.426-.149-.775-.447-1.046-.293-.271-.704-.407-1.233-.407-.524 0-.955.114-1.293.34-.333.222-.524.558-.573 1.007h-1.159c.031-.485.173-.896.426-1.233a2.379 2.379 0 0 1 1.046-.767c.44-.178.954-.266 1.54-.266.538 0 1.02.104 1.446.313.427.209.762.497 1.007.866.249.365.373.784.373 1.26 0 .431-.08.806-.24 1.126-.16.32-.389.596-.686.827a4.285 4.285 0 0 1-1.047.593l-1.693.68c-.426.164-.746.362-.959.593-.214.231-.32.531-.32.9v.4h4.865v.959h-5.905Zm10.825.16c-.417 0-.822-.057-1.213-.173a3.544 3.544 0 0 1-1.046-.52 2.53 2.53 0 0 1-.727-.853 2.493 2.493 0 0 1-.266-1.173h1.066c.009.382.111.704.307.966.195.263.455.46.779.594.329.133.696.2 1.1.2.622 0 1.104-.151 1.447-.454.342-.302.513-.679.513-1.133 0-.288-.071-.544-.214-.766-.142-.222-.368-.396-.679-.52-.307-.129-.711-.193-1.213-.193h-.947v-.827h.64c.649 0 1.16-.129 1.533-.386.373-.258.56-.613.56-1.067 0-.4-.151-.737-.453-1.013-.303-.275-.734-.413-1.293-.413-.431 0-.816.089-1.153.267-.338.173-.567.493-.687.959h-1.066c.071-.52.24-.939.506-1.259.267-.32.604-.551 1.013-.694a4.02 4.02 0 0 1 1.36-.219c.555 0 1.051.097 1.486.293a2.5 2.5 0 0 1 1.027.806c.253.342.38.736.38 1.18 0 .44-.127.818-.38 1.133-.249.311-.611.551-1.087.72.529.151.96.4 1.293.746.338.347.507.791.507 1.333 0 .48-.127.907-.38 1.28-.249.369-.604.66-1.067.873-.462.209-1.01.313-1.646.313Zm4.317-.779c0-.209.073-.389.22-.54a.738.738 0 0 1 .553-.227c.222 0 .411.076.566.227a.726.726 0 0 1 .234.54.684.684 0 0 1-.234.526.808.808 0 0 1-.566.213.762.762 0 0 1-.553-.213.717.717 0 0 1-.22-.526Zm5.941.779a4.24 4.24 0 0 1-1.213-.173 3.532 3.532 0 0 1-1.046-.52 2.53 2.53 0 0 1-.727-.853c-.178-.338-.266-.729-.266-1.173h1.066c.009.382.111.704.307.966.195.263.455.46.779.594.329.133.696.2 1.1.2.622 0 1.104-.151 1.446-.454.343-.302.514-.679.514-1.133 0-.288-.072-.544-.214-.766-.142-.222-.369-.396-.68-.52-.306-.129-.71-.193-1.213-.193h-.946v-.827h.64c.649 0 1.16-.129 1.533-.386.373-.258.56-.613.56-1.067 0-.4-.151-.737-.454-1.013-.302-.275-.733-.413-1.293-.413-.431 0-.815.089-1.153.267-.337.173-.566.493-.686.959h-1.067c.072-.52.24-.939.507-1.259.267-.32.604-.551 1.013-.694a4.02 4.02 0 0 1 1.36-.219c.555 0 1.051.097 1.486.293a2.49 2.49 0 0 1 1.026.806c.254.342.38.736.38 1.18 0 .44-.126.818-.38 1.133-.248.311-.61.551-1.086.72.529.151.96.4 1.293.746.338.347.507.791.507 1.333 0 .48-.127.907-.38 1.28-.249.369-.605.66-1.067.873-.462.209-1.011.313-1.646.313Zm14.221-.16v-3.745c0-.609-.147-1.071-.44-1.387-.289-.32-.68-.48-1.173-.48-.578 0-1.02.225-1.326.674-.307.444-.46 1.059-.46 1.846h-.48c0-.573.055-1.075.166-1.506.116-.431.283-.789.5-1.074a2.06 2.06 0 0 1 .793-.646 2.527 2.527 0 0 1 1.06-.213c.502 0 .931.113 1.286.34.36.222.636.542.827.959.191.418.287.913.287 1.487v3.745h-1.04Zm-8.958 0v-6.371h.893l.12 1.279c.2-.462.48-.817.84-1.066.364-.249.8-.373 1.306-.373.502 0 .931.113 1.287.34.359.222.635.542.826.959.191.418.287.913.287 1.487v3.745h-1.027v-3.745c0-.609-.146-1.071-.44-1.387-.288-.32-.684-.48-1.186-.48-.382 0-.713.105-.993.314-.28.209-.496.509-.647.9-.151.386-.226.848-.226 1.386v3.012h-1.04Zm21.429 0v-3.745c0-.609-.147-1.071-.44-1.387-.289-.32-.68-.48-1.173-.48-.578 0-1.02.225-1.327.674-.306.444-.46 1.059-.46 1.846h-.479c0-.573.055-1.075.166-1.506.116-.431.282-.789.5-1.074a2.06 2.06 0 0 1 .793-.646 2.524 2.524 0 0 1 1.06-.213c.502 0 .931.113 1.286.34.36.222.636.542.827.959.191.418.286.913.286 1.487v3.745h-1.039Zm-8.958 0v-6.371h.893l.12 1.279c.2-.462.48-.817.84-1.066.364-.249.8-.373 1.306-.373.502 0 .931.113 1.286.34.36.222.636.542.827.959.191.418.286.913.286 1.487v3.745h-1.026v-3.745c0-.609-.147-1.071-.44-1.387-.289-.32-.684-.48-1.186-.48-.382 0-.713.105-.993.314-.28.209-.496.509-.647.9-.151.386-.226.848-.226 1.386v3.012h-1.04Zm14.634 0 2.413-3.185-2.413-3.2h1.267l1.826 2.413 1.759-2.413h1.267l-2.426 3.2 2.412 3.185h-1.266l-1.826-2.426-1.746 2.426h-1.267Zm10.491 0v-1.239c0-.485.078-.889.234-1.213.159-.325.382-.593.666-.807a4.557 4.557 0 0 1 1.02-.553l1.653-.653c.426-.173.746-.396.959-.667.214-.271.32-.608.32-1.013 0-.426-.148-.775-.446-1.046-.293-.271-.704-.407-1.233-.407-.525 0-.956.114-1.293.34-.333.222-.525.558-.573 1.007h-1.16c.031-.485.173-.896.426-1.233a2.376 2.376 0 0 1 1.047-.767c.44-.178.953-.266 1.539-.266.538 0 1.02.104 1.447.313.426.209.762.497 1.006.866.249.365.373.784.373 1.26 0 .431-.08.806-.24 1.126a2.38 2.38 0 0 1-.686.827 4.278 4.278 0 0 1-1.046.593l-1.693.68c-.427.164-.747.362-.96.593-.213.231-.32.531-.32.9v.4h4.865v.959h-5.905Zm7.653 0 4.012-7.384h-4.479v-.987h5.706v.96l-3.853 7.411h-1.386Zm9.434.16c-.658 0-1.233-.16-1.726-.48-.489-.319-.871-.802-1.147-1.446-.271-.644-.406-1.451-.406-2.419 0-.969.135-1.773.406-2.413.276-.644.658-1.124 1.147-1.44.493-.319 1.068-.479 1.726-.479.653 0 1.226.16 1.72.479.493.316.875.796 1.146 1.44.275.64.413 1.444.413 2.413 0 .968-.138 1.775-.413 2.419-.271.644-.653 1.127-1.146 1.446-.494.32-1.067.48-1.72.48Zm0-.959c.72 0 1.266-.294 1.64-.88.373-.591.559-1.426.559-2.506 0-1.08-.186-1.913-.559-2.5-.374-.591-.92-.886-1.64-.886-.711 0-1.255.295-1.633.886-.378.587-.566 1.42-.566 2.5s.188 1.915.566 2.506c.378.586.922.88 1.633.88Zm4.356.18c0-.209.073-.389.22-.54a.738.738 0 0 1 .553-.227c.222 0 .411.076.566.227a.726.726 0 0 1 .234.54.684.684 0 0 1-.234.526.808.808 0 0 1-.566.213.762.762 0 0 1-.553-.213.717.717 0 0 1-.22-.526Zm5.768.779c-.551 0-1.042-.113-1.473-.34a2.613 2.613 0 0 1-1.013-.933 2.561 2.561 0 0 1-.367-1.366h1.08c.013.511.173.92.48 1.226.311.303.733.454 1.266.454.524 0 .949-.151 1.273-.454.329-.302.569-.728.72-1.279.155-.556.233-1.209.233-1.96a6.07 6.07 0 0 0-.067-.986c-.057.48-.195.88-.413 1.199a2.065 2.065 0 0 1-.84.714 2.713 2.713 0 0 1-1.146.233c-.498 0-.946-.111-1.346-.333a2.598 2.598 0 0 1-.947-.927 2.63 2.63 0 0 1-.346-1.353c0-.52.117-.973.353-1.359.24-.387.573-.685 1-.894.426-.213.922-.319 1.486-.319a2.997 2.997 0 0 1 2.386 1.139c.298.365.529.802.693 1.313a5.46 5.46 0 0 1 .253 1.72c0 .92-.117 1.717-.353 2.393-.231.675-.589 1.197-1.073 1.566-.48.364-1.093.546-1.839.546Zm-.067-4.412c.329 0 .626-.073.893-.22.267-.146.478-.344.633-.593a1.55 1.55 0 0 0 .234-.84c0-.515-.172-.922-.514-1.219-.337-.298-.753-.447-1.246-.447-.507 0-.926.149-1.26.447-.333.297-.5.704-.5 1.219 0 .511.167.916.5 1.213.334.294.753.44 1.26.44Zm14.317 4.252v-3.745c0-.609-.146-1.071-.439-1.387-.289-.32-.68-.48-1.174-.48-.577 0-1.019.225-1.326.674-.306.444-.46 1.059-.46 1.846h-.48c0-.573.056-1.075.167-1.506.116-.431.282-.789.5-1.074a2.06 2.06 0 0 1 .793-.646 2.524 2.524 0 0 1 1.06-.213c.502 0 .931.113 1.286.34.36.222.636.542.827.959.191.418.286.913.286 1.487v3.745h-1.04Zm-8.957 0v-6.371h.893l.12 1.279c.2-.462.48-.817.84-1.066.364-.249.799-.373 1.306-.373.502 0 .931.113 1.286.34.36.222.636.542.827.959.191.418.286.913.286 1.487v3.745h-1.026v-3.745c0-.609-.147-1.071-.44-1.387-.289-.32-.684-.48-1.186-.48a1.61 1.61 0 0 0-.993.314c-.28.209-.496.509-.647.9-.151.386-.227.848-.227 1.386v3.012h-1.039Zm21.428 0v-3.745c0-.609-.146-1.071-.44-1.387-.288-.32-.679-.48-1.173-.48-.577 0-1.019.225-1.326.674-.307.444-.46 1.059-.46 1.846h-.48c0-.573.056-1.075.167-1.506.115-.431.282-.789.5-1.074.217-.288.482-.504.793-.646a2.524 2.524 0 0 1 1.06-.213c.502 0 .93.113 1.286.34.36.222.635.542.826.959.191.418.287.913.287 1.487v3.745h-1.04Zm-8.957 0v-6.371h.893l.12 1.279c.2-.462.479-.817.839-1.066.365-.249.8-.373 1.307-.373.502 0 .931.113 1.286.34.36.222.635.542.827.959.191.418.286.913.286 1.487v3.745h-1.026v-3.745c0-.609-.147-1.071-.44-1.387-.289-.32-.684-.48-1.187-.48-.382 0-.713.105-.993.314-.28.209-.495.509-.646.9-.151.386-.227.848-.227 1.386v3.012h-1.039Zm364.423-15.84c-.618 0-1.133-.086-1.546-.26-.414-.177-.727-.419-.94-.726a1.96 1.96 0 0 1-.34-1.066h1c.022.404.184.708.486.913.307.2.722.3 1.247.3.275 0 .528-.045.759-.134a1.4 1.4 0 0 0 .554-.366.777.777 0 0 0 .206-.527.702.702 0 0 0-.273-.586c-.182-.143-.473-.267-.873-.374l-1.24-.399c-.538-.169-.951-.4-1.24-.694a1.49 1.49 0 0 1-.426-1.066c0-.515.226-.929.68-1.24.453-.311 1.048-.466 1.786-.466.782 0 1.388.16 1.819.48.431.32.656.719.674 1.199h-1.027a.834.834 0 0 0-.426-.633c-.245-.147-.591-.22-1.04-.22-.431 0-.769.098-1.013.293-.24.191-.36.405-.36.64 0 .44.378.765 1.133.973l1.266.427c.547.164.965.38 1.253.646.294.267.44.607.44 1.02 0 .32-.104.622-.313.907-.209.284-.504.515-.886.693-.383.178-.836.266-1.36.266Zm6.923 0c-.551 0-1.044-.14-1.479-.42a2.996 2.996 0 0 1-1.027-1.179c-.249-.502-.373-1.08-.373-1.733 0-.698.124-1.298.373-1.8s.589-.886 1.02-1.153a2.753 2.753 0 0 1 1.486-.406c.485 0 .898.097 1.24.293.342.195.618.46.826.793.209.333.354.711.434 1.133.084.418.109.851.073 1.3h-4.612v-.64h3.926l-.307.2a3.593 3.593 0 0 0-.047-.787 2.225 2.225 0 0 0-.233-.719 1.377 1.377 0 0 0-.487-.534c-.208-.133-.475-.199-.799-.199-.409 0-.751.104-1.027.313a1.912 1.912 0 0 0-.62.826 2.898 2.898 0 0 0-.206 1.1v.427c0 .444.066.842.2 1.193.137.351.342.628.613.833.271.204.613.306 1.026.306.414 0 .753-.1 1.02-.3.267-.2.429-.495.487-.886h1.079a2.357 2.357 0 0 1-.453 1.093 2.34 2.34 0 0 1-.9.7 2.97 2.97 0 0 1-1.233.246Zm6.874 0c-.511 0-.988-.137-1.433-.413a3.044 3.044 0 0 1-1.066-1.166c-.271-.502-.407-1.096-.407-1.78 0-.702.136-1.302.407-1.799.271-.498.626-.878 1.066-1.14a2.775 2.775 0 0 1 1.433-.393c.36 0 .682.055.967.166.288.107.54.256.753.447.213.191.389.409.526.653.143.24.247.493.314.76l-1.067.093c-.111-.369-.297-.66-.56-.873a1.414 1.414 0 0 0-.946-.327 1.61 1.61 0 0 0-.893.274c-.276.177-.5.446-.673.806-.174.356-.26.8-.26 1.333 0 .493.077.922.233 1.287.16.359.378.639.653.839.276.2.589.3.94.3.493 0 .866-.12 1.12-.36.257-.244.386-.582.386-1.013h1.067c0 .445-.105.84-.314 1.187a2.183 2.183 0 0 1-.893.819c-.382.2-.833.3-1.353.3Zm6.94 0c-.573 0-1.084-.126-1.533-.38-.444-.253-.795-.628-1.053-1.126-.258-.498-.386-1.111-.386-1.839 0-.734.128-1.347.386-1.84.258-.498.609-.873 1.053-1.126.449-.254.96-.38 1.533-.38.569 0 1.075.126 1.52.38.449.253.8.628 1.053 1.126.258.493.386 1.106.386 1.84 0 .728-.128 1.341-.386 1.839a2.609 2.609 0 0 1-1.053 1.126c-.445.254-.951.38-1.52.38Zm-.026-.906c.413 0 .764-.098 1.053-.293.288-.2.506-.482.653-.847.151-.364.226-.797.226-1.299 0-.76-.157-1.358-.473-1.793-.315-.44-.784-.66-1.406-.66-.418 0-.771.1-1.06.3-.284.195-.502.477-.653.846-.147.365-.22.8-.22 1.307 0 .75.158 1.346.473 1.786.32.435.789.653 1.407.653Zm9.542.746v-3.745c0-.609-.146-1.071-.44-1.387-.289-.32-.684-.48-1.186-.48-.382 0-.713.105-.993.314-.28.209-.496.509-.647.9-.151.386-.226.848-.226 1.386h-.4c0-.742.098-1.375.293-1.9.196-.524.48-.924.853-1.199.378-.28.836-.42 1.373-.42.502 0 .931.113 1.286.34.36.222.636.542.827.959.191.418.287.913.287 1.487v3.745h-1.027Zm-4.532 0v-6.371h.893l.147 1.466v4.905h-1.04Zm10.324.16c-.515 0-.988-.137-1.419-.413a2.987 2.987 0 0 1-1.033-1.173c-.258-.506-.387-1.102-.387-1.786 0-.68.127-1.269.38-1.766.253-.498.589-.88 1.006-1.147a2.514 2.514 0 0 1 1.387-.406c.466 0 .875.113 1.226.34.355.226.631.553.826.979.196.427.294.942.294 1.547h-.4c0-.422-.085-.778-.254-1.067a1.656 1.656 0 0 0-.646-.653 1.717 1.717 0 0 0-1.813.067 2.02 2.02 0 0 0-.686.826c-.169.356-.254.782-.254 1.28 0 .506.085.942.254 1.306.173.365.402.645.686.84.289.196.607.293.953.293.289 0 .567-.075.833-.226.271-.151.494-.371.667-.66.173-.293.26-.647.26-1.06h.4c0 .618-.103 1.142-.307 1.573-.2.427-.473.751-.82.973a2.071 2.071 0 0 1-1.153.333Zm2.053-.16-.173-1.493v-7.598h1.04v9.091h-.867Zm7.515 0-.133-1.399v-2.733c0-.573-.122-.984-.367-1.233-.244-.253-.611-.38-1.099-.38-.276 0-.527.04-.754.12-.222.08-.399.205-.533.373-.129.165-.193.378-.193.64h-1.16c0-.462.114-.833.34-1.113.227-.284.538-.489.933-.613a4.45 4.45 0 0 1 1.367-.193c.488 0 .922.082 1.299.246.378.165.673.427.887.787.213.355.32.82.32 1.393v4.105h-.907Zm-2.173.16c-.524 0-.957-.093-1.299-.28a1.892 1.892 0 0 1-.767-.726 1.876 1.876 0 0 1-.253-.94c0-.431.107-.782.32-1.053.218-.271.513-.469.886-.593a3.845 3.845 0 0 1 1.26-.193c.333 0 .666.033 1 .1.337.066.666.157.986.273v.653a4.726 4.726 0 0 0-.906-.253 5.072 5.072 0 0 0-.92-.094c-.427 0-.787.089-1.08.267-.293.173-.44.471-.44.893 0 .311.111.578.334.8.226.222.586.333 1.079.333.347 0 .658-.08.933-.24.28-.164.5-.368.66-.613.165-.244.247-.489.247-.733h.253c0 .427-.093.822-.28 1.186a2.203 2.203 0 0 1-.786.88c-.342.222-.751.333-1.227.333Zm5.569-.16v-6.385h1.04v6.385h-1.04Zm.72-2.879c0-.809.078-1.479.233-2.013.156-.537.383-.937.68-1.199.302-.267.669-.4 1.1-.4.142 0 .271.011.387.033.12.018.24.047.36.087l-.067 1.026a3.276 3.276 0 0 0-.407-.1 1.916 1.916 0 0 0-.393-.047c-.378 0-.682.109-.913.327-.231.213-.4.515-.507.906a5.508 5.508 0 0 0-.153 1.38h-.32Zm3.044-3.492h1.16l2.079 5.465h-.24l1.613-5.465h1.066l-2.399 7.651c-.2.64-.467 1.133-.8 1.48-.333.346-.76.52-1.279.52-.28 0-.547-.04-.8-.12a4.144 4.144 0 0 1-.773-.347v-.96c.235.187.462.32.679.4.223.08.454.12.694.12a.93.93 0 0 0 .666-.253c.182-.169.333-.387.453-.653.12-.262.222-.538.307-.827l.186-.64-2.612-6.371Zm10.429 6.371v-9.091h1.04v9.091h-1.04Zm7.68 0-.14-1.399v-2.733c0-.573-.12-.984-.36-1.233-.25-.253-.61-.38-1.1-.38-.28 0-.53.04-.75.12-.23.08-.4.205-.54.373-.13.165-.19.378-.19.64h-1.16c0-.462.11-.833.34-1.113.23-.284.54-.489.93-.613.4-.129.86-.193 1.37-.193.49 0 .92.082 1.3.246.38.165.67.427.88.787.22.355.32.82.32 1.393v4.105h-.9Zm-2.17.16c-.53 0-.96-.093-1.3-.28a1.857 1.857 0 0 1-1.02-1.666c0-.431.1-.782.32-1.053.21-.271.51-.469.88-.593a3.9 3.9 0 0 1 1.26-.193c.34 0 .67.033 1 .1.34.066.67.157.99.273v.653a4.79 4.79 0 0 0-.91-.253 5.037 5.037 0 0 0-.92-.094c-.42 0-.78.089-1.08.267-.29.173-.44.471-.44.893 0 .311.11.578.34.8.22.222.58.333 1.08.333.34 0 .65-.08.93-.24.28-.164.5-.368.66-.613.16-.244.24-.489.24-.733h.26c0 .427-.1.822-.28 1.186-.18.365-.45.658-.79.88-.34.222-.75.333-1.22.333Zm4.51-6.531h1.16l2.08 5.465h-.24l1.61-5.465h1.07l-2.4 7.651c-.2.64-.47 1.133-.8 1.48-.33.346-.76.52-1.28.52-.28 0-.55-.04-.8-.12-.25-.08-.51-.196-.77-.347v-.96c.23.187.46.32.68.4.22.08.45.12.69.12.27 0 .49-.084.67-.253.18-.169.33-.387.45-.653.12-.262.22-.538.31-.827l.18-.64-2.61-6.371Zm9.57 6.531c-.57 0-1.08-.126-1.53-.38-.45-.253-.8-.628-1.06-1.126-.25-.498-.38-1.111-.38-1.839 0-.734.13-1.347.38-1.84.26-.498.61-.873 1.06-1.126.45-.254.96-.38 1.53-.38.57 0 1.08.126 1.52.38.45.253.8.628 1.05 1.126.26.493.39 1.106.39 1.84 0 .728-.13 1.341-.39 1.839-.25.498-.6.873-1.05 1.126-.44.254-.95.38-1.52.38Zm-.03-.906c.42 0 .77-.098 1.06-.293.29-.2.5-.482.65-.847.15-.364.23-.797.23-1.299 0-.76-.16-1.358-.48-1.793-.31-.44-.78-.66-1.4-.66-.42 0-.77.1-1.06.3-.29.195-.51.477-.66.846-.14.365-.22.8-.22 1.307 0 .75.16 1.346.48 1.786.32.435.79.653 1.4.653Zm9.35-5.639h1.04v6.385H1031v-6.385Zm-4.52 0h1.04v3.973c0 .533.13.937.38 1.213.27.275.64.413 1.12.413.4 0 .75-.107 1.04-.32.3-.213.53-.507.69-.88.16-.377.25-.808.25-1.293h.38c0 .716-.1 1.327-.31 1.833-.21.507-.5.895-.87 1.166-.38.267-.82.4-1.32.4-.48 0-.9-.088-1.26-.266a1.914 1.914 0 0 1-.84-.807c-.2-.364-.3-.824-.3-1.379v-4.053Zm10.21 6.545c-.34 0-.65-.066-.93-.2a1.543 1.543 0 0 1-.65-.599c-.16-.267-.24-.6-.24-1v-6.505h1.02v6.478c0 .658.31.987.92.987.19 0 .36-.02.53-.06.17-.04.37-.1.58-.18l.15.746c-.23.098-.46.178-.68.24-.22.062-.46.093-.7.093Zm-2.85-5.812v-.719h4.07v.719h-4.07Z"/><defs><clipPath id="a"><path fill="#fff" d="M0 27.769h437.249v181.766H0z"/></clipPath><clipPath id="b"><path fill="#fff" d="M457.249 27.769h582v372.256h-582z"/></clipPath></defs></svg>