<svg xmlns="http://www.w3.org/2000/svg" width="1040" height="300" fill="none"><path fill="#fff" d="M0 0h1040v300H0z"/><path fill="#FF7B00" d="m114.328 226.801-4.731-59.074 13.888 2.037 5.168 57.037h-14.325Z"/><path fill="#000" d="m117.219 142.895-11.038-2.882c-2.1-3.358-5.878-5.038-9.657-4.618-5.877.84-9.236 5.878-8.396 10.916a9.473 9.473 0 0 0 10.915 7.976c3.779-.42 7.137-3.358 7.977-7.137l10.199-4.255Zm-1.936-18.189-8.292-7.138c-.421-3.779-2.519-7.137-6.298-8.397-5.038-1.679-10.496.84-12.175 5.878-1.68 5.039.84 10.496 5.878 12.175 3.778 1.26 7.976 0 10.496-2.518h10.391Zm8.548-18.761-4.92-10.69c1.26-3.36.42-7.558-2.518-10.497a9.526 9.526 0 0 0-13.855.42 9.777 9.777 0 0 0 .42 13.434c2.938 2.939 7.137 3.359 10.496 2.1l10.377 5.233Zm26.62 71.288-2.01-11.411-5.547 10.571c-3.777.42-6.716 3.359-7.136 7.557-.84 5.458 2.938 10.076 7.976 10.915 5.458.84 10.076-2.938 10.915-7.976.841-4.199-1.259-7.976-4.198-9.656Zm-1.028-102.114a9.655 9.655 0 0 1 .316 13.65 9.654 9.654 0 0 1-13.651.317c-3.858-3.682-3.999-9.793-.317-13.651 3.683-3.858 9.794-3.999 13.652-.316Zm33.665 93.374c3.858 3.683 4 9.795.317 13.652-3.682 3.858-9.794 3.999-13.652.317a9.658 9.658 0 0 1-.316-13.652c3.682-3.857 9.795-3.999 13.651-.317Z"/><path fill="#FF7B00" fill-rule="evenodd" d="M126.934 135.284c0-13.435 10.917-24.351 24.351-24.351l-.001.001c13.435 0 24.771 10.496 24.771 23.93 0 13.435-10.917 24.351-24.351 24.351-5.458 0-10.496-2.1-14.694-5.038-7.976 6.297-12.174 14.694-13.434 17.633l-14.275-3.779c.035-.069.101-.23.201-.472 1.108-2.693 6.366-15.473 18.692-24.718-.84-2.099-1.26-5.038-1.26-7.557Z" clip-rule="evenodd"/><path fill="#02B9BF" d="M194.524 85.169c-2.617-5.87-10.467-6.158-14.13-4.454-3.14 1.834-5.234 4.454-4.056 11.266 1.177 6.813 7.588 7.73 12.429 7.468 4.841-.262 9.028-6.944 5.757-14.28Zm23.79 19.952c-2.616-5.869-10.466-6.157-14.13-4.454-3.14 1.834-5.233 4.454-4.056 11.267 1.178 6.812 7.589 7.729 12.429 7.467 4.841-.262 9.028-6.943 5.757-14.28Z"/><path fill="#FF7B00" d="M469.049 116.812c-17.314-38.835-69.255-40.744-93.495-29.475-20.778 12.136-34.63 29.475-26.839 74.552 7.791 45.077 50.211 51.145 82.243 49.411 32.031-1.734 59.734-45.944 38.091-94.488Z"/><path fill="#000" d="m408.542 218.544-3.587-66.062h10.761l4.484 66.062h-11.658Zm16.257-85.588-3.79-1.634s2.658-11.057 6.37-17.171c3.588-5.91 11.8-13.199 11.8-13.199l3.551 2.323c-11.993 8.001-15.801 15.44-17.931 29.681Zm21.559-4.493-1.467-3.857s9.787-5.793 16.759-7.387c6.74-1.542 17.689-.724 17.689-.724l.807 4.166c-14.094-3.034-22.085-.586-33.788 7.802Zm-6.575 25.052 1.357-3.897s11.22 1.858 17.584 5.122c6.153 3.154 14.011 10.822 14.011 10.822l-2.062 3.709c-8.841-11.388-16.534-14.653-30.89-15.756Z"/><path fill="#000" d="m409.97 144.216 2.289 3.434s-8.251 7.826-14.693 10.934c-6.227 3.003-17.084 4.644-17.084 4.644l-1.714-3.882c14.416-.18 21.661-4.346 31.202-15.13Z"/><path fill="#000" d="m422.412 146.689-.915 4.025s-11.357-.598-18.045-3.133c-6.465-2.45-15.128-9.196-15.128-9.196l1.636-3.915c10.054 10.333 18.062 12.721 32.452 12.219Z"/><path fill="#000" d="m406.822 136.804 4.027.905s-.57 11.358-3.089 18.053c-2.434 6.471-9.159 15.15-9.159 15.15l-3.919-1.626c10.309-10.079 12.677-18.093 12.14-32.482Z"/><path fill="#000" d="m408.831 145.418.002 4.127s-11.205 1.941-18.29.956c-6.848-.953-16.793-5.605-16.793-5.605l.725-4.181c12.099 7.841 20.438 8.39 34.356 4.703Z"/><path fill="#000" d="m415.844 147.856-3.472 2.232s-7.687-8.381-10.685-14.875c-2.899-6.277-4.357-17.16-4.357-17.16l3.91-1.648c-.062 14.417 3.981 21.731 14.604 31.451Z"/><path fill="#000" d="M424.828 140.115c-3.885-8.714-15.54-9.142-20.98-6.613-4.662 2.723-7.77 6.613-6.022 16.728 1.749 10.115 11.267 11.477 18.455 11.088 7.187-.389 13.404-10.31 8.547-21.203Zm24.078-39.143c.607-3.762-3.196-6.453-5.566-6.797-2.154-.109-4.043.512-5.67 4.275-1.626 3.763 1.258 6.299 3.745 7.74 2.487 1.441 6.734-.516 7.491-5.218Zm37.193 22.517c3.122-2.185 2.405-6.787 1.001-8.728-1.422-1.621-3.183-2.544-7.016-1.091s-3.645 5.289-2.947 8.078c.699 2.788 5.06 4.472 8.962 1.741Zm-12.685 51.777c3.795.334 6.207-3.651 6.379-6.04-.046-2.156-.801-3.996-4.671-5.349-3.87-1.352-6.192 1.707-7.451 4.291-1.259 2.584.998 6.679 5.743 7.098Zm-101.08-17.351c-2.557 2.826-.833 7.153.969 8.732 1.747 1.264 3.67 1.772 7.083-.499 3.413-2.27 2.375-5.967 1.073-8.53-1.301-2.563-5.929-3.234-9.125.297Zm14.236-29.098c-3.809.09-5.762 4.319-5.667 6.713.285 2.137 1.24 3.882 5.237 4.795 3.996.913 5.964-2.385 6.927-5.093.963-2.709-1.735-6.527-6.497-6.415Zm2.467 43.872c.099 3.81 4.333 5.752 6.726 5.652 2.137-.291 3.879-1.251 4.783-5.249.903-3.999-2.4-5.958-5.11-6.915-2.711-.957-6.523 1.751-6.399 6.512Zm-19.124-36.732c-3.694.934-4.658 5.491-4.034 7.804.753 2.021 2.072 3.509 6.172 3.512 4.099.002 5.284-3.65 5.622-6.505.337-2.855-3.142-5.978-7.76-4.811Zm32.866-25.96c-2.781-2.604-7.137-.953-8.746.821-1.293 1.726-1.834 3.64.379 7.091s5.927 2.475 8.512 1.217c2.584-1.259 3.333-5.874-.145-9.129Z"/><path fill="#000" fill-rule="evenodd" d="m674.016 163.997-.005.194-.006.224c-.036 1.173-.152 2.339-.267 3.505a78.138 78.138 0 0 0-.21 2.371c-.132 1.978-.084 3.952-.012 5.932.061 1.682.292 3.357.522 5.026l.083.599c-.003-.014-.004-.029-.006-.043l.06.433c.25 1.828.501 3.656.82 5.474.151.866.31 1.73.468 2.594v.001c.187 1.018.373 2.036.548 3.056.47-.524.962-1.026 1.488-1.49a29.34 29.34 0 0 1 5.514-3.865c.849-.458 1.71-.896 2.57-1.333 1.009-.513 2.018-1.025 3.008-1.572.593-.328 1.184-.658 1.775-.988a209.399 209.399 0 0 1 3.944-2.168c.442-.235.885-.467 1.328-.7 1.403-.738 2.807-1.475 4.171-2.285a66.062 66.062 0 0 0 4.999-3.274c2.41-1.917 4.707-4 6.901-6.157a38.41 38.41 0 0 0 1.306-1.369c.652-.706 1.305-1.413 2.031-2.041.419-.363.887-.708 1.351-1.05l.391-.29c.488-.365 1.328-.674 1.865-.871l.294-.11c.651-.253 1.352-.302 2.049-.351.142-.01.284-.02.425-.032a7.552 7.552 0 0 1 3.84 1.039l.158.119.219.163c1.045.778 1.805 1.344 2.527 2.577.362.687.651 1.401.865 2.141.475 1.55.27 3.17-.014 4.72-.316 1.735-1.019 3.348-1.72 4.959-.125.286-.249.571-.371.858-.83 1.941-1.978 3.782-3.178 5.514a32.628 32.628 0 0 1-5.18 5.871c-1.99 1.768-4.197 3.255-6.544 4.502-1.39.738-2.877 1.337-4.363 1.859-.996.351-2.01.62-3.046.832-.863.176-1.743.283-2.618.39l-.548.068-.038.004a21.05 21.05 0 0 1-1.367.146 35.58 35.58 0 0 1-3.011.056 192.15 192.15 0 0 1-2.15-.063h-.003c-1.267-.041-2.534-.082-3.802-.085-1.325-.003-2.644.093-3.962.189-.721.053-1.441.105-2.162.142-.956.048-1.918-.012-2.873-.08l-.176-.013c-.45-.033-.9-.066-1.351-.08-.126-.006-.254-.008-.384-.011l-.078-.001-.113-.003-.505.298-.025.015a76.963 76.963 0 0 1-.53.312l-.548.733c-.336.45-.669.829-1.099 1.106.166 1.557.25 3.127.118 4.687-.188 2.26-.488 4.54-1.29 6.675-.809 2.155-1.756 4.246-2.752 6.32a58.73 58.73 0 0 1-2.806 5.145 45.82 45.82 0 0 1-1.593 2.473l-.227.321c-.219.306-.438.612-.637.931-.275.439-.489.89-.705 1.36a4.097 4.097 0 0 1-3.55 2.038c-1.45 0-2.82-.787-3.551-2.038a4.142 4.142 0 0 1 0-4.15c.517-.883 1.441-1.661 2.457-1.89.167-.038.328-.077.485-.122.065-.039.131-.08.195-.122.806-.701 1.561-1.462 2.313-2.22l.273-.275.185-.186a37.639 37.639 0 0 0 2.659-2.936 32.86 32.86 0 0 0 1.654-2.512c.498-.853.924-1.74 1.332-2.64.344-.841.686-1.696.885-2.584.201-.903.359-1.804.496-2.717.171-1.592.288-3.191.396-4.79-.315.115-.632.224-.954.322-.898.275-1.823.505-2.741.703-.034.006-.068.014-.101.021l-.026.006c-.504.255-1.048.433-1.592.611-.188.061-.376.122-.562.187-.564.293-1.097.64-1.63.987-.66.43-1.32.86-2.041 1.187a48.89 48.89 0 0 1-6.539 2.436c-.946.276-1.937.528-2.909.692l-.335.057c-1.467.251-2.945.504-4.428.604-2.101.143-4.197.18-6.301.056-2.731-.161-5.439-.513-8.136-.973-1.999-.342-4.008-.789-5.927-1.456a69.5 69.5 0 0 1-3.102-1.175l-.056-.023c-1.594-.64-3.308-1.329-4.699-2.36a48.788 48.788 0 0 1-1.517-1.165 5.719 5.719 0 0 1-.56-.471 18.039 18.039 0 0 1-1.289-1.636 5.91 5.91 0 0 1-.427-.729c-.142-.281-.636-1.306-.748-1.859a15.556 15.556 0 0 1-.27-1.979c-.039-.496.154-1.516.351-2.114.392-1.189 1.076-2.444 2.064-3.244l.174-.141.002-.002c.483-.392.919-.747 1.484-1.003l.029-.013c.47-.212 1.091-.493 1.623-.669a10.622 10.622 0 0 1 1.756-.423 52.547 52.547 0 0 1 2.996-.397 50.981 50.981 0 0 1 3.024-.224 36.553 36.553 0 0 1 3.424.058c2.024.117 4.051.325 6.063.582l.129.016c2.39.304 4.793.609 7.143 1.155a89.006 89.006 0 0 1 6.174 1.654c.672.208 1.34.426 2.007.643 1.325.432 2.65.865 4.001 1.218 1.813.475 3.657.835 5.505 1.137 1.623.169 3.247.255 4.875.325.898.037 1.796.067 2.694.083l.158.003.231.004c.446.01.892.019 1.337.005a36.2 36.2 0 0 0-.143-3.03c-.161-1.051-.377-2.084-.717-3.095a52.666 52.666 0 0 0-1.133-3.036 65.966 65.966 0 0 0-1.584-3.414c-.351-.701-.756-1.373-1.161-2.045a52.355 52.355 0 0 1-.674-1.139l-.292-.509c-.531-.924-1.064-1.85-1.527-2.809-.711-1.471-1.342-2.977-1.971-4.482a24.032 24.032 0 0 1-.955-2.75l-.051-.183c-.244-.864-.49-1.739-.612-2.628l-.051-.365-.022-.154c-.08-.565-.161-1.131-.216-1.697a42.435 42.435 0 0 1-1.32-.238c-1.058-.209-2.088-.518-3.12-.83-1.06-.318-2.082-.763-3.098-1.206-.286-.124-.572-.249-.857-.37a17.601 17.601 0 0 1-3.271-1.841c-2.413-1.497-3.437-2.628-4.776-4.992-.637-.961-1.149-1.984-1.602-3.043l-.155-.359c-.374-.867-.755-1.75-.994-2.662-.223-.851-.34-1.737-.429-2.611-.076-.738-.141-1.52-.098-2.266.066-1.172.194-2.326.351-3.486-.534.169-1.064.354-1.592.553-.611.288-1.219.586-1.796.937a42.96 42.96 0 0 0-2.042 1.325c-.476.392-.94.799-1.379 1.234a35.098 35.098 0 0 0-1.751 1.875c-.11.158-.217.317-.326.479-.106.162-.224.317-.341.472l-.138.183a53.654 53.654 0 0 1-1.481 1.922c-.685.6-1.408 1.148-2.168 1.643a5.705 5.705 0 0 1-1.106.597 8.811 8.811 0 0 1-4.126 1.02 8.805 8.805 0 0 1-4.464-1.208 8.864 8.864 0 0 1-3.174-3.173 8.81 8.81 0 0 1-1.208-4.466c.013-.156.03-.311.05-.465a9.1 9.1 0 0 1 1.248-4.615c.455-.903.985-1.873 1.779-2.502.134-.104.266-.209.399-.314l.002-.002.216-.17c.994-.786 1.892-1.458 2.922-2.128a64.885 64.885 0 0 1 2.59-1.624l.525-.312c.708-.421 1.422-.845 2.161-1.204.144-.069.286-.14.429-.21.367-.181.734-.363 1.109-.522.348-.148.701-.304 1.053-.461.714-.317 1.432-.636 2.146-.889l.242-.086c.914-.324 1.83-.649 2.792-.812 1.501-.255 3.014-.492 4.541-.492.117 0 .234.001.351.004 2.549.063 5.043.443 7.51 1.061l.194-.278.027-.037c1.24-1.744 2.645-3.433 4.267-4.86a69.408 69.408 0 0 0-2.064-1.213 73.054 73.054 0 0 0-3.718-2 29.141 29.141 0 0 0-3.977-1.097 129.292 129.292 0 0 1-3.938-.879c-.448-.105-.896-.21-1.345-.313-1.222-.283-2.458-.499-3.694-.716-.51-.089-1.019-.178-1.528-.272a46.94 46.94 0 0 1-2.574-.527 11.627 11.627 0 0 1-1.4-.407c-2.21-.823-4.01-1.555-5.645-3.344-1.58-1.732-2.744-3.424-3.301-5.735-.716-2.967-.425-5.995 1.132-8.656a11.275 11.275 0 0 1 4.03-4.03c.894-.378 1.789-.757 2.685-1.133.34-.049.679-.109 1.018-.169.781-.138 1.561-.276 2.348-.276.122 0 .245.004.367.01.23.014.463.022.698.03.963.036 1.947.072 2.823.433.353.146.715.287 1.077.43.845.33 1.696.663 2.464 1.064l.611.316.001.001a206.963 206.963 0 0 1 1.574.82c.753.39 1.509.783 2.23 1.224a31.07 31.07 0 0 1 2.764 1.914c.285.22.582.442.886.669 1.153.86 2.391 1.783 3.296 2.861 1.109 1.322 2.211 2.679 3.078 4.176l.409.707.002.003c.362.626.724 1.254 1.094 1.875.966 1.622 2.051 3.154 3.141 4.692l.175.248a107.428 107.428 0 0 1 2.115 3.093 24.646 24.646 0 0 1 4.609-2.267c1.354-.503 2.795-.826 4.227-1.022.32-.044.64-.09.96-.137.461-.066.922-.133 1.383-.193-.024-.264-.05-.527-.079-.79-.41-2.721-1.056-5.382-2.015-7.963a21.572 21.572 0 0 0-1.791-3.093 18.132 18.132 0 0 0-1.477-1.522 24.402 24.402 0 0 0-3.225-1.867c-.438-.161-.877-.316-1.316-.471-1.452-.513-2.901-1.025-4.277-1.754l-.633-.333a36.913 36.913 0 0 1-1.654-.9 12.307 12.307 0 0 1-1.201-.816c-.269-.205-.511-.38-.734-.543-.678-.492-1.177-.855-1.72-1.507-.73-.876-1.441-1.757-2.033-2.729-2.855-4.693-1.059-11.05 3.615-13.784a10.118 10.118 0 0 1 7.762-1.016 10.062 10.062 0 0 1 4.444 2.592c.36.316.644.627.946.996l.231.282.003.004c.863 1.053 1.202 1.468 1.728 2.517.541 1.08.979 2.255 1.407 3.404l.166.444c.134.357.276.71.419 1.062.268.662.536 1.324.742 2.01.179.598.314 1.207.45 1.817.095.428.191.856.301 1.28.113.435.241.868.369 1.3.198.67.396 1.34.538 2.019.102.482.201.966.301 1.449.316 1.535.632 3.071 1.007 4.594.495 2.022.969 4.04 1.367 6.083l.054.276c.402 2.072.803 4.138 1.074 6.234l.062.501.663.021c1.31.051 2.618.247 3.916.441l.613.092c.401.058.801.126 1.201.203 1.026-3.433 1.994-6.899 2.536-10.442.311-2.965.419-5.965.151-8.938a19.278 19.278 0 0 0-.776-2.937 25.062 25.062 0 0 0-2.141-3.569c-.699-.88-1.392-1.762-2.022-2.691-.545-.807-.9-1.728-1.249-2.635-.078-.203-.155-.405-.235-.605-.314-.785-.385-1.621-.457-2.462a31.095 31.095 0 0 0-.063-.68c-.03-.278-.022-.51.006-.791a9.323 9.323 0 0 1 1.278-4.723l1.462-1.893a9.348 9.348 0 0 1 4.129-2.406 9.528 9.528 0 0 1 2.487-.334c.829 0 1.659.111 2.487.334a9.357 9.357 0 0 1 4.128 2.406l.387.488c1.136 1.431 2.169 2.732 2.603 4.614.281 1.221.408 2.471.531 3.717.073.73 0 1.495-.069 2.22l-.002.023a84.33 84.33 0 0 1-.871 6.609c-.347 1.973-.964 3.88-1.581 5.786-.335 1.038-.671 2.075-.963 3.122-.237.851-.461 1.706-.685 2.561-.3 1.143-.599 2.286-.93 3.418a68.04 68.04 0 0 1-2.046 5.925c-.765 1.936-1.616 3.835-2.47 5.732l.179.077.078.033c.95.406 1.81.995 2.632 1.612l.185.138c.733.547 1.532 1.143 2.134 1.837.067.075.132.152.197.228a63.925 63.925 0 0 0 1.559-2.229c.926-1.397 1.782-2.832 2.631-4.278 1.56-2.66 2.88-5.449 4.109-8.275a60.895 60.895 0 0 0 1.631-4.573c.336-1.08.557-2.201.739-3.324.099-1.45.081-2.87-.031-4.315-.084-.48-.18-.957-.297-1.43a33.722 33.722 0 0 1-.365-1.661c-.238-1.23-.393-2.123-.349-3.237.049-1.2.232-2.39.503-3.557.569-2.444 2.404-4.652 4.537-5.9a9.833 9.833 0 0 1 4.981-1.346 9.913 9.913 0 0 1 6.98 2.89A9.857 9.857 0 0 1 722.378 82c.85 2.709.735 5.722-.3 8.355a49.979 49.979 0 0 1-2.076 4.638l-.179.349c-.352.689-.709 1.387-1.145 2.024a119.47 119.47 0 0 1-1.75 2.445l-.156.215c-2.6 3.576-5.253 7.136-8.343 10.308a453.895 453.895 0 0 0-4.456 4.643c-1.135 1.2-2.357 2.295-3.583 3.394-.288.258-.577.517-.864.777-1.239 1.12-2.468 2.255-3.622 3.465.166.3.319.609.458.93.597 1.378 1.087 2.699 1.383 4.164.488 2.398.741 4.843.564 7.286a62.464 62.464 0 0 1-.329 3.269 22.764 22.764 0 0 0 2.995-1.769 24.42 24.42 0 0 0 1.438-1.237c.506-.473.953-1.002 1.398-1.53l.06-.071a35.97 35.97 0 0 0 1.55-2.248c.504-.795.937-1.618 1.343-2.462a25.96 25.96 0 0 0 1.024-3.981c.026-.344.046-.69.057-1.038.034-1.109.201-2.209.443-3.29.393-1.765 1.716-3.915 3.086-5.076a9.262 9.262 0 0 1 4.091-2.385l1.714-.23h.003l.748-.101c2.45 0 4.825.986 6.558 2.717a9.306 9.306 0 0 1 2.715 6.557 9.22 9.22 0 0 1-1.266 4.681c-.132.181-.26.36-.387.538-.412.576-.814 1.137-1.331 1.714-.738.823-.981 1.004-2.262 1.895-.16.112-.321.225-.483.336-.202.141-.454.24-.698.335-.106.041-.21.082-.309.126-.773.343-1.539.717-2.28 1.122l-.7.384c-1.54.843-3.078 1.684-4.563 2.622-.516.326-1.019.673-1.522 1.021-.34.234-.68.469-1.023.696-.798.53-1.666 1.005-2.515 1.445-2.089 1.081-4.28 1.851-6.51 2.581-1.404.46-2.827.88-4.257 1.268-.617 2.092-1.428 4.105-2.388 6.068-1.039 2.124-2.459 4.006-3.936 5.838-.174.215-.353.426-.537.633-1.258 1.668-2.422 2.493-4.024 3.628-.219.156-.447.317-.684.487-1.918 1.387-4.048 2.37-6.265 3.183-.919.336-1.871.657-2.831.855a39.24 39.24 0 0 1-2.416.421v.001Zm-1.237-32.012a6.398 6.398 0 1 0 0-12.797 6.4 6.4 0 0 0 0 12.797Zm6.399 17.996a6.398 6.398 0 0 0 0-12.796 6.398 6.398 0 1 0 0 12.796Zm-19.196 0a6.397 6.397 0 0 0 6.398-6.398 6.398 6.398 0 1 0-6.398 6.398Z" clip-rule="evenodd"/><path fill="#FF7B00" d="M678.75 122.51c-1.758-3.943-7.032-4.137-9.494-2.993-2.11 1.233-3.516 2.993-2.725 7.57.791 4.578 5.099 5.194 8.351 5.018 3.253-.176 6.066-4.665 3.868-9.595Z"/><path fill="#fff" d="M685.015 141.068c-1.281-4.123-6.496-4.938-9.075-4.092-2.24.975-3.845 2.558-3.599 7.196.246 4.639 4.451 5.759 7.701 5.968 3.251.208 6.574-3.918 4.973-9.072Z"/><path fill="#02B9BF" d="M658.371 137.03c-4.265.678-5.817 5.722-5.349 8.396.645 2.357 1.981 4.171 6.607 4.592 4.626.42 6.336-3.581 7.008-6.769.672-3.187-2.936-7.066-8.266-6.219Z"/><path fill="#FF7B00" d="m898.627 226.348-5.02-98.984 14.738 3.413 5.484 95.571h-15.202Z"/><path fill="#000" fill-rule="evenodd" d="M894.91 154.721c.375.075.751.142 1.128.204 3.722.733 5.812.695 9.534.148.69-.099 1.378-.216 2.064-.359.819-.17 1.633-.443 2.417-.731 1.894-.694 3.713-1.534 5.351-2.718l.585-.416c1.368-.97 2.362-1.675 3.437-3.099.157-.177.31-.357.458-.54 1.262-1.565 2.475-3.173 3.363-4.987a33.19 33.19 0 0 0 2.039-5.182 73.048 73.048 0 0 0 3.636-1.084c1.904-.623 3.776-1.281 5.56-2.204a23.442 23.442 0 0 0 2.148-1.234c.293-.194.583-.395.874-.595.429-.297.859-.594 1.3-.872 1.268-.801 2.581-1.52 3.897-2.239l.598-.328a26.238 26.238 0 0 1 1.948-.959c.084-.037.173-.072.263-.107.209-.082.424-.166.597-.287.138-.094.275-.191.412-.286 1.095-.761 1.301-.916 1.932-1.619.442-.492.785-.972 1.137-1.464l.001-.002c.108-.151.217-.303.33-.458a7.885 7.885 0 0 0 1.081-3.997c0-2.093-.84-4.123-2.319-5.601a7.954 7.954 0 0 0-5.601-2.32l-.639.086h-.003l-1.464.196a7.912 7.912 0 0 0-3.494 2.038c-1.17.991-2.3 2.827-2.636 4.334a15.046 15.046 0 0 0-.378 2.811c-.009.297-.027.592-.049.887a22.206 22.206 0 0 1-.874 3.4 20.39 20.39 0 0 1-1.148 2.102c-.418.66-.859 1.296-1.323 1.92l-.051.061c-.381.451-.762.903-1.194 1.307-.398.371-.806.719-1.229 1.057a19.549 19.549 0 0 1-2.558 1.51c.118-.928.212-1.857.281-2.792.151-2.086-.065-4.175-.481-6.223-.253-1.251-.672-2.38-1.182-3.557a9.435 9.435 0 0 0-.391-.794c.986-1.033 2.035-2.003 3.093-2.959l.734-.66.001-.001.001-.001.002-.002c1.047-.938 2.091-1.874 3.061-2.899a364.917 364.917 0 0 1 3.805-3.965c2.64-2.71 4.906-5.75 7.126-8.805l.134-.184c.504-.692 1.007-1.383 1.494-2.088.373-.543.678-1.14.978-1.728l.001-.002.001-.002.151-.295a42.773 42.773 0 0 0 1.774-3.96 10.86 10.86 0 0 0 .256-7.137 8.418 8.418 0 0 0-2.168-3.721 8.467 8.467 0 0 0-5.961-2.468 8.397 8.397 0 0 0-4.255 1.15c-1.822 1.066-3.389 2.951-3.875 5.04a16.462 16.462 0 0 0-.43 3.037c-.037.952.095 1.715.298 2.765.092.478.196.946.312 1.418.1.404.182.813.254 1.222a25.32 25.32 0 0 1 .026 3.685c-.156.96-.344 1.916-.631 2.84a52.055 52.055 0 0 1-1.393 3.905c-1.05 2.414-2.177 4.797-3.51 7.069-.724 1.234-1.456 2.46-2.247 3.653a53.59 53.59 0 0 1-1.332 1.904l-.167-.195c-.515-.593-1.197-1.102-1.823-1.569l-.158-.118c-.702-.527-1.437-1.03-2.249-1.376l-.066-.029-.153-.065c.73-1.621 1.456-3.243 2.11-4.896a58.13 58.13 0 0 0 1.747-5.061c.283-.967.539-1.943.794-2.919.192-.73.383-1.46.586-2.188.249-.894.536-1.78.822-2.666.527-1.628 1.054-3.257 1.351-4.942.328-1.868.563-3.756.743-5.645l.002-.019c.059-.62.122-1.274.059-1.896-.105-1.065-.213-2.132-.453-3.176-.371-1.607-1.254-2.718-2.224-3.94l-.33-.417a7.994 7.994 0 0 0-3.526-2.055 8.143 8.143 0 0 0-2.124-.285 8.15 8.15 0 0 0-2.125.285 7.988 7.988 0 0 0-3.526 2.055l-1.249 1.617a7.957 7.957 0 0 0-1.091 4.033c-.024.24-.031.44-.005.677.02.193.037.387.053.58.062.718.122 1.432.391 2.103.068.17.134.343.2.515l.001.002c.298.774.6 1.56 1.066 2.25.538.794 1.13 1.548 1.727 2.299.692.969 1.307 1.98 1.829 3.048.288.826.507 1.65.663 2.509.228 2.54.136 5.101-.129 7.633-.464 3.027-1.29 5.987-2.166 8.919a22.876 22.876 0 0 0-1.026-.173 635.41 635.41 0 0 0-.524-.078c-1.109-.166-2.225-.334-3.344-.377-.19-.008-.378-.013-.567-.018a62.757 62.757 0 0 0-.053-.429c-.231-1.79-.574-3.554-.917-5.324l-.046-.235c-.34-1.745-.745-3.469-1.168-5.196-.32-1.3-.59-2.613-.86-3.924-.085-.413-.17-.825-.257-1.238-.121-.58-.29-1.151-.459-1.723-.11-.37-.219-.74-.315-1.111-.095-.362-.176-.728-.258-1.094-.116-.52-.231-1.04-.384-1.552-.176-.585-.405-1.15-.634-1.716a36.42 36.42 0 0 1-.499-1.286c-.366-.982-.74-1.986-1.202-2.908-.449-.896-.739-1.25-1.476-2.15l-.003-.003-.197-.241a6.907 6.907 0 0 0-.808-.851 8.593 8.593 0 0 0-3.795-2.214 8.638 8.638 0 0 0-6.63.868c-3.992 2.336-5.526 7.765-3.088 11.773.506.83 1.113 1.583 1.736 2.331.464.558.89.867 1.469 1.288.191.138.397.288.627.463.338.256.662.483 1.027.698.461.271.936.52 1.412.768l.54.284c1.176.623 2.414 1.06 3.654 1.498.375.133.75.265 1.124.403a20.77 20.77 0 0 1 2.754 1.594c.451.413.863.84 1.262 1.301a18.452 18.452 0 0 1 1.53 2.641c.818 2.204 1.37 4.477 1.721 6.801.024.225.046.449.067.675-.394.051-.788.108-1.181.165-.273.04-.547.08-.82.117-1.223.167-2.454.443-3.611.873a21.092 21.092 0 0 0-3.937 1.936 88.486 88.486 0 0 0-1.805-2.642l-.15-.212c-.931-1.313-1.858-2.622-2.683-4.007-.316-.531-.625-1.067-.934-1.602l-.002-.002-.349-.604c-.741-1.279-1.682-2.438-2.629-3.566-.774-.921-1.831-1.71-2.815-2.445-.26-.193-.514-.383-.757-.57a26.54 26.54 0 0 0-2.361-1.635 31.083 31.083 0 0 0-1.905-1.047c-.175-.09-.351-.182-.525-.274l-.819-.425h-.001l-.521-.271c-.657-.342-1.384-.627-2.105-.91-.31-.12-.619-.242-.92-.366-.748-.308-1.589-.34-2.412-.37-.2-.007-.399-.014-.595-.025a5.606 5.606 0 0 0-.314-.01c-.672 0-1.339.119-2.005.237-.29.051-.58.102-.87.144-.765.321-1.53.645-2.293.967a9.63 9.63 0 0 0-3.442 3.442c-1.33 2.274-1.578 4.86-.967 7.394.476 1.974 1.47 3.419 2.819 4.898 1.397 1.529 2.934 2.153 4.822 2.856.396.148.783.25 1.195.348.728.177 1.464.314 2.199.45.434.08.87.157 1.305.233 1.056.185 2.112.37 3.155.611.384.088.767.178 1.149.267 1.119.262 2.237.524 3.364.752a24.77 24.77 0 0 1 3.396.936 63.38 63.38 0 0 1 3.176 1.708c.597.34 1.185.681 1.762 1.036-1.384 1.219-2.585 2.662-3.644 4.152l-.022.032-.167.237c-2.107-.528-4.237-.853-6.414-.907l-.3-.003c-1.304 0-2.596.202-3.878.42-.822.14-1.604.417-2.385.694l-.206.073c-.61.216-1.224.489-1.833.759-.302.134-.602.268-.9.394-.321.136-.634.291-.947.446l-.366.18c-.632.306-1.241.668-1.846 1.028l-.449.266c-.75.44-1.483.913-2.212 1.388a32.256 32.256 0 0 0-2.495 1.817l-.185.145-.002.002-.34.268c-.679.537-1.131 1.366-1.52 2.137a7.76 7.76 0 0 0-1.066 3.941 7.446 7.446 0 0 0-.042.398 7.53 7.53 0 0 0 1.031 3.815 7.576 7.576 0 0 0 2.711 2.709 7.513 7.513 0 0 0 3.813 1.032 7.519 7.519 0 0 0 3.524-.871c.331-.141.651-.299.944-.51.65-.423 1.267-.891 1.853-1.403.433-.538.856-1.085 1.264-1.642l.118-.156c.1-.132.201-.265.292-.403.092-.138.184-.275.278-.409.478-.551.973-1.083 1.495-1.602.375-.372.772-.719 1.178-1.054a37.393 37.393 0 0 1 1.744-1.131c.494-.3 1.012-.555 1.534-.801.451-.17.904-.327 1.36-.472a37.975 37.975 0 0 0-.299 2.977c-.037.637.018 1.306.083 1.936.076.746.176 1.503.366 2.23.204.779.53 1.533.85 2.273l.132.307c.387.905.824 1.778 1.368 2.599 1.144 2.019 2.019 2.985 4.079 4.264a15.05 15.05 0 0 0 2.794 1.573c.244.103.488.21.732.316.868.378 1.741.758 2.646 1.03.882.266 1.761.53 2.665.708Zm15.071-32.454a5.466 5.466 0 1 1-10.931-.001 5.466 5.466 0 0 1 10.931.001Zm5.464 15.371a5.464 5.464 0 1 1-10.93 0 5.466 5.466 0 0 1 10.93 0Zm-16.395 0a5.465 5.465 0 1 1-10.93 0 5.465 5.465 0 0 1 10.93 0Z" clip-rule="evenodd"/><path fill="#FF7B00" d="M909.616 119.64c-1.502-3.368-6.007-3.534-8.109-2.556-1.802 1.052-3.003 2.556-2.328 6.466.676 3.909 4.355 4.435 7.133 4.285 2.778-.15 5.181-3.985 3.304-8.195Z"/><path fill="#fff" d="M914.966 135.49c-1.094-3.522-5.548-4.217-7.751-3.494-1.913.832-3.284 2.184-3.073 6.146.21 3.962 3.801 4.918 6.577 5.096 2.777.179 5.615-3.346 4.247-7.748Z"/><path fill="#02B9BF" d="M892.209 132.042c-3.642.579-4.968 4.887-4.568 7.171.55 2.013 1.692 3.563 5.643 3.922 3.951.359 5.412-3.059 5.985-5.781.574-2.722-2.508-6.036-7.06-5.312Z"/></svg>