<svg xmlns="http://www.w3.org/2000/svg" width="598" height="392" fill="none"><path fill="#fff" d="M0 0h598v392H0z"/><path fill="#000" d="M187.057 268.36c0 31.743 24.879 43.424 47.722 44.904 2.82.182 5.112-2.126 5.112-4.952v-27.786c0-3.201-3.729-5.279-5.602-7.876-.519-.72-.856-1.716-.856-3.088s.337-2.368.856-3.088c1.873-2.596 5.602-4.675 5.602-7.876v-30.79c0-2.826-2.291-5.135-5.109-4.928-21.995 1.615-47.725 13.839-47.725 45.48Zm60.394-38.254v76.483c0 2.826 2.291 5.135 5.109 4.929 21.492-1.576 46.577-13.27 46.577-43.458 0-30.286-24.258-41.462-46.574-42.906-2.82-.183-5.112 2.126-5.112 4.952Z"/><path fill="#fff" d="M261.681 255.408v28.307c0 2.826 2.305 5.159 5.093 4.698 8.794-1.455 17.878-6.868 17.878-18.979 0-12.188-8.839-17.413-17.873-18.768-2.795-.419-5.098 1.916-5.098 4.742Z"/><path fill="#000" d="M435.243 268.528c0 33.435 26.206 45.739 50.267 47.298 2.971.192 5.385-2.239 5.385-5.216v-29.267c0-3.372-3.928-5.561-5.9-8.296-.548-.759-.902-1.808-.902-3.253s.354-2.494.902-3.253c1.972-2.735 5.9-4.924 5.9-8.296v-32.432c0-2.977-2.413-5.409-5.382-5.191-23.168 1.701-50.27 14.577-50.27 47.906Zm62.911-42.714v35.194c0 2.976 2.423 5.427 5.37 5.011 10.894-1.538 22.456-7.952 22.456-22.761 0-14.892-11.236-21.069-22.451-22.497-2.953-.376-5.375 2.076-5.375 5.053Zm0 49.602v35.194c0 2.977 2.423 5.427 5.37 5.011 10.894-1.538 22.456-7.952 22.456-22.76 0-14.893-11.236-21.07-22.451-22.497-2.953-.376-5.375 2.076-5.375 5.052ZM117.213 87.888c-13.943-5.873-32.35 2.124-41.248 7.755-.843.534-1.34 1.384-1.013 2.326 2.299 6.605 17.409 30.763 24.997 33.039 5.865 1.76 13.433-.608 17.701-2.547a3.745 3.745 0 0 0 2.13-2.622c1.869-8.757.802-25.266-.199-34.624-.156-1.457-1.017-2.758-2.368-3.327ZM57.05 130.906c.64-16.818 7.39-23.829 11.59-25.653.637-.277 1.351-.285 1.928.103 4.347 2.927 16.188 18.761 22.657 27.851.543.763.86 1.684.618 2.59-.734 2.747-3.243 6.359-5.215 8.813-.812 1.01-2.056 1.58-3.334 1.364-6.774-1.148-18.808-7.157-26.013-11.151-1.418-.786-2.294-2.297-2.232-3.917Zm23.769 21.156c-2.54-3.555-10.98-5.419-17.748-6.242-2.944-.358-5.242 2.354-4.366 5.187 6.83 22.099 21.519 21.984 24.64 20.424 3.368-1.685 1.684-13.474-2.526-19.369Zm42.739-27.258c.267-9.602 2.292-24.304 3.339-30.85.391-2.526 22.737 5.053 25.264 16.001 2.526 10.948-8.421 22.738-13.474 24.422-3.521 1.174-9.854-3.105-13.655-6.269a4.133 4.133 0 0 1-1.474-3.304Zm24.08 11.62c2.977-2.533 5.842-6.785 8.06-10.753 1.63-2.916 5.479-3.296 6.656-.171 3.59 9.531 4.467 24.648-3.456 29.93-6.737 4.492-11.603-4.741-14.012-12.492-.74-2.38.854-4.899 2.752-6.514Z"/><path stroke="#000" stroke-width="10.52" d="M367.382 113.347h-66.278l17.544 52.601h35.738l12.996-52.601Zm8.416 12.625h16.044v33.927h-24.46"/><path stroke="#000" stroke-width="5.26" d="m314.254 86.985 8.679-9.406 6.575 9.406-6.575 7.426-8.679-7.426Zm26.825-1.084V76l15.255 5.198-7.627 5.817-7.628 5.817v-6.93Z"/></svg>