<svg xmlns="http://www.w3.org/2000/svg" width="510" height="500" fill="none"><path fill="#fff" d="M0 0h510v500H0z"/><path fill="#FF7B00" d="M323.885 124.844c-27.258-61.138-109.029-64.143-147.19-46.402-32.709 19.106-54.518 46.402-42.252 117.367 12.266 70.964 79.048 80.517 129.475 77.788 50.427-2.73 94.04-72.33 59.967-148.753Z"/><path fill="#000" d="m228.033 273-5.051-92h16.942l6.687 92.988c-7.253-.134-11.322-.369-18.578-.988Zm26.188-122.741-5.967-2.572s4.186-17.407 10.029-27.033c5.648-9.304 18.577-20.777 18.577-20.777l5.591 3.656c-18.881 12.597-24.877 24.308-28.23 46.726Zm33.942-7.071-2.31-6.074s15.407-9.119 26.384-11.629c10.61-2.426 27.848-1.139 27.848-1.139l1.27 6.559c-22.189-4.777-34.769-.924-53.192 12.283Zm-10.352 39.438 2.137-6.136s17.663 2.926 27.683 8.063c9.685 4.967 22.057 17.038 22.057 17.038l-3.246 5.839c-13.919-17.928-26.03-23.068-48.631-24.804Z"/><path fill="#000" d="m230.875 167.986 3.605 5.406s-12.99 12.322-23.132 17.213c-9.803 4.729-26.895 7.312-26.895 7.312l-2.698-6.111c22.695-.284 34.101-6.842 49.12-23.82Z"/><path fill="#000" d="m250.465 171.881-1.441 6.337s-17.879-.942-28.408-4.933c-10.178-3.857-23.816-14.477-23.816-14.477l2.575-6.164c15.828 16.268 28.436 20.028 51.09 19.237Z"/><path fill="#000" d="m225.92 156.317 6.34 1.426s-.899 17.881-4.863 28.42c-3.833 10.187-14.419 23.852-14.419 23.852l-6.17-2.561c16.229-15.868 19.958-28.484 19.112-51.137Z"/><path fill="#000" d="m229.084 169.878.004 6.498s-17.642 3.055-28.794 1.504c-10.781-1.499-26.438-8.823-26.438-8.823l1.141-6.582c19.047 12.344 32.175 13.208 54.087 7.403Z"/><path fill="#000" d="m240.124 173.718-5.466 3.513s-12.101-13.194-16.822-23.417c-4.562-9.882-6.858-27.015-6.858-27.015l6.156-2.595c-.098 22.697 6.267 34.211 22.99 49.514Z"/><path fill="#000" d="M254.268 161.531c-6.116-13.719-24.465-14.393-33.028-10.412-7.34 4.287-12.233 10.412-9.481 26.336 2.752 15.923 17.738 18.067 29.053 17.454 11.315-.612 21.101-16.229 13.456-33.378Zm37.906-61.623c.955-5.923-5.031-10.159-8.763-10.7-3.391-.171-6.365.806-8.926 6.73s1.98 9.916 5.896 12.185 10.6-.812 11.793-8.215Zm58.552 35.449c4.915-3.44 3.786-10.685 1.575-13.741-2.238-2.552-5.011-4.006-11.045-1.718-6.035 2.288-5.738 8.326-4.639 12.717 1.099 4.39 7.966 7.041 14.109 2.742Zm-19.97 81.511c5.976.526 9.771-5.748 10.043-9.509-.072-3.394-1.26-6.291-7.353-8.42-6.092-2.129-9.748 2.686-11.73 6.755-1.982 4.068 1.571 10.515 9.04 11.174Zm-159.13-27.315c-4.025 4.448-1.311 11.26 1.525 13.746 2.75 1.99 5.777 2.79 11.151-.785 5.373-3.574 3.739-9.394 1.689-13.43-2.049-4.035-9.333-5.09-14.365.469Zm22.413-45.808c-5.997.141-9.071 6.799-8.923 10.567.45 3.365 1.953 6.111 8.245 7.549 6.291 1.438 9.389-3.754 10.905-8.018 1.517-4.264-2.731-10.275-10.227-10.098Zm3.883 69.067c.156 5.997 6.821 9.054 10.589 8.897 3.364-.458 6.107-1.968 7.529-8.263 1.422-6.296-3.777-9.38-8.045-10.886-4.267-1.507-10.268 2.756-10.073 10.252Zm-30.107-57.827c-5.816 1.47-7.334 8.644-6.352 12.285 1.187 3.181 3.263 5.525 9.717 5.528 6.453.004 8.32-5.746 8.851-10.241.531-4.494-4.947-9.411-12.216-7.572Zm51.742-40.871c-4.379-4.099-11.236-1.501-13.77 1.293-2.036 2.716-2.886 5.73.597 11.163 3.484 5.433 9.331 3.896 13.4 1.915 4.069-1.981 5.247-9.246-.227-14.371Zm-95.49 177.422c12.546 0 21.238 2.091 26.076 6.273 4.838 4.1 7.257 10.619 7.257 19.557 0 8.856-1.763 15.539-5.289 20.049 5.166 4.264 7.749 11.439 7.749 21.525 0 19.352-11.111 29.028-33.333 29.028-2.624 0-11.193-.656-25.707-1.968v-92.496c8.528-1.312 16.277-1.968 23.247-1.968Zm14.76 78.351c1.64-1.804 2.46-5.494 2.46-11.07 0-5.576-.615-8.938-1.845-10.086-1.23-1.148-4.428-1.722-9.594-1.722-5.084 0-8.323.082-9.717.246-1.312.164-1.968.656-1.968 1.476v22.017c0 .902.533 1.435 1.599 1.599 1.148.164 4.223.246 9.225.246s8.282-.902 9.84-2.706Zm-18.45-38.13c7.134 0 11.972-.861 14.514-2.583 2.624-1.722 3.936-5.535 3.936-11.439 0-3.362-.738-6.109-2.214-8.241-1.394-2.214-2.911-3.321-4.551-3.321-6.97 0-11.193.451-12.669 1.353-.492.328-.902.82-1.23 1.476v20.787c0 .984.164 1.558.492 1.722a6.242 6.242 0 0 0 1.722.246Zm49.27 51.291v-89.544c8.364-1.312 15.621-1.968 21.771-1.968 11.398 0 19.27 2.132 23.616 6.396 4.346 4.264 6.519 11.316 6.519 21.156 0 13.776-3.854 22.96-11.562 27.552l15.498 35.055c.902 2.05 1.353 3.403 1.353 4.059 0 .574-.082.943-.246 1.107-.328.738-1.722 1.107-4.182 1.107-7.954 0-12.628-1.558-14.022-4.674l-14.022-32.472c-2.05.164-5.125.246-9.225.246v31.734c0 2.296-.246 3.731-.738 4.305-.41.574-1.804.861-4.182.861-7.052 0-10.578-1.64-10.578-4.92Zm17.466-48.831c6.56 0 10.988-.902 13.284-2.706 2.296-1.886 3.444-6.068 3.444-12.546 0-3.936-.656-7.052-1.968-9.348-1.23-2.296-2.624-3.444-4.182-3.444-5.822 0-9.389.123-10.701.369-1.23.246-1.845 1.066-1.845 2.46v23.37c0 1.066.205 1.64.615 1.722.41.082.861.123 1.353.123Zm88.957-4.182c3.28 0 4.92 1.476 4.92 4.428 0 4.018-.246 6.765-.738 8.241s-1.763 2.214-3.813 2.214h-24.108v26.199h28.413c1.968.082 3.321.492 4.059 1.23.738.656 1.107 1.681 1.107 3.075 0 4.018-.369 6.806-1.107 8.364-.738 1.476-2.214 2.214-4.428 2.214h-43.296l-1.968-1.968v-90.528h43.665c3.526.082 5.289 1.394 5.289 3.936-.082 2.214-.205 3.977-.369 5.289-.164 1.23-.697 2.46-1.599 3.69-.82 1.23-2.05 1.845-3.69 1.845h-27.429l1.353 21.771h23.739Zm59.458 0c3.28 0 4.92 1.476 4.92 4.428 0 4.018-.246 6.765-.738 8.241s-1.763 2.214-3.813 2.214h-24.108v26.199h28.413c1.968.082 3.321.492 4.059 1.23.738.656 1.107 1.681 1.107 3.075 0 4.018-.369 6.806-1.107 8.364-.738 1.476-2.214 2.214-4.428 2.214h-43.296l-1.968-1.968v-90.528h43.665c3.526.082 5.289 1.394 5.289 3.936-.082 2.214-.205 3.977-.369 5.289-.164 1.23-.697 2.46-1.599 3.69-.82 1.23-2.05 1.845-3.69 1.845h-27.429l1.353 21.771h23.739ZM403.842 386h-47.97l-1.968-1.968v-13.038l34.932-62.73h-31.488c-2.132-.082-3.526-.574-4.182-1.476-.656-1.148-.984-3.034-.984-5.658 0-2.706.287-4.633.861-5.781.574-1.23 1.804-1.845 3.69-1.845h49.446l1.968 1.968v10.824l-34.071 64.821h29.151c2.706.082 4.51.451 5.412 1.107.984.574 1.476 1.517 1.476 2.829-.164 7.298-2.255 10.947-6.273 10.947Zm-299.194 36-5.928-16.92h2.064l5.208 15.24h-.84l5.304-15.24h1.584l5.232 15.24h-.744l5.232-15.24h1.968L117.8 422h-1.752l-5.088-14.64h.528L106.352 422h-1.704Zm21.59 0v-16.92h1.944v7.848h-.312c.336-.928.88-1.624 1.632-2.088.768-.48 1.648-.72 2.64-.72.928 0 1.696.168 2.304.504.624.336 1.088.848 1.392 1.536.304.672.456 1.528.456 2.568V422h-1.944v-7.152c0-.72-.096-1.312-.288-1.776-.176-.464-.464-.808-.864-1.032-.384-.224-.888-.336-1.512-.336-.704 0-1.32.152-1.848.456a3.125 3.125 0 0 0-1.224 1.272c-.288.544-.432 1.184-.432 1.92V422h-1.944Zm18.897.216c-1.232 0-2.296-.24-3.192-.72a5.288 5.288 0 0 1-2.064-2.088c-.48-.896-.72-1.968-.72-3.216 0-1.216.24-2.272.72-3.168.48-.912 1.136-1.624 1.968-2.136.848-.512 1.824-.768 2.928-.768 1.056 0 1.96.232 2.712.696.752.464 1.328 1.12 1.728 1.968.416.848.624 1.864.624 3.048v.744h-9.192v-1.272h7.896l-.384.312c0-1.28-.288-2.272-.864-2.976-.56-.72-1.384-1.08-2.472-1.08-.816 0-1.512.192-2.088.576-.56.368-.984.888-1.272 1.56-.288.656-.432 1.424-.432 2.304v.144c0 .976.152 1.8.456 2.472.32.672.792 1.184 1.416 1.536.624.336 1.368.504 2.232.504.688 0 1.352-.104 1.992-.312a5.598 5.598 0 0 0 1.848-1.08l.672 1.368c-.528.48-1.2.864-2.016 1.152a7.449 7.449 0 0 1-2.496.432Zm7.517-.216v-11.664h1.896v2.76h-.24c.272-.944.744-1.656 1.416-2.136.672-.496 1.56-.784 2.664-.864l.696-.072.144 1.68-1.224.144c-1.088.096-1.928.448-2.52 1.056-.576.592-.864 1.408-.864 2.448V422h-1.968Zm13.717.216c-1.232 0-2.296-.24-3.192-.72a5.288 5.288 0 0 1-2.064-2.088c-.48-.896-.72-1.968-.72-3.216 0-1.216.24-2.272.72-3.168.48-.912 1.136-1.624 1.968-2.136.848-.512 1.824-.768 2.928-.768 1.056 0 1.96.232 2.712.696.752.464 1.328 1.12 1.728 1.968.416.848.624 1.864.624 3.048v.744h-9.192v-1.272h7.896l-.384.312c0-1.28-.288-2.272-.864-2.976-.56-.72-1.384-1.08-2.472-1.08-.816 0-1.512.192-2.088.576-.56.368-.984.888-1.272 1.56-.288.656-.432 1.424-.432 2.304v.144c0 .976.152 1.8.456 2.472.32.672.792 1.184 1.416 1.536.624.336 1.368.504 2.232.504.688 0 1.352-.104 1.992-.312a5.598 5.598 0 0 0 1.848-1.08l.672 1.368c-.528.48-1.2.864-2.016 1.152a7.449 7.449 0 0 1-2.496.432Zm21.266 0c-1.664 0-3.088-.352-4.272-1.056-1.184-.704-2.096-1.704-2.736-3-.624-1.296-.936-2.84-.936-4.632 0-1.792.312-3.328.936-4.608.64-1.296 1.552-2.296 2.736-3 1.184-.704 2.608-1.056 4.272-1.056 1.168 0 2.248.184 3.24.552.992.368 1.824.904 2.496 1.608l-.768 1.608c-.736-.688-1.504-1.184-2.304-1.488-.784-.32-1.656-.48-2.616-.48-1.904 0-3.36.6-4.368 1.8-1.008 1.2-1.512 2.888-1.512 5.064s.504 3.872 1.512 5.088c1.008 1.2 2.464 1.8 4.368 1.8.96 0 1.832-.152 2.616-.456.8-.32 1.568-.824 2.304-1.512l.768 1.608c-.672.688-1.504 1.224-2.496 1.608-.992.368-2.072.552-3.24.552Zm12.568 0c-1.136 0-2.12-.248-2.952-.744a5.107 5.107 0 0 1-1.944-2.088c-.448-.912-.672-1.984-.672-3.216 0-1.232.224-2.296.672-3.192.464-.912 1.112-1.616 1.944-2.112.832-.496 1.816-.744 2.952-.744s2.12.248 2.952.744c.832.496 1.472 1.2 1.92 2.112.464.896.696 1.96.696 3.192 0 1.232-.232 2.304-.696 3.216a4.95 4.95 0 0 1-1.92 2.088c-.832.496-1.816.744-2.952.744Zm0-1.56c1.104 0 1.976-.384 2.616-1.152.656-.784.984-1.904.984-3.36 0-1.44-.328-2.544-.984-3.312-.64-.768-1.512-1.152-2.616-1.152-1.088 0-1.96.384-2.616 1.152-.656.768-.984 1.872-.984 3.312 0 1.456.328 2.576.984 3.36.656.768 1.528 1.152 2.616 1.152Zm8.488 1.344v-11.664h1.896v2.592h-.264c.336-.928.88-1.624 1.632-2.088.768-.48 1.648-.72 2.64-.72.928 0 1.696.168 2.304.504.624.32 1.088.824 1.392 1.512.304.688.456 1.552.456 2.592V422h-1.944v-7.152c0-.72-.096-1.312-.288-1.776-.176-.464-.464-.808-.864-1.032-.384-.224-.888-.336-1.512-.336-.704 0-1.32.152-1.848.456a3.125 3.125 0 0 0-1.224 1.272c-.288.544-.432 1.184-.432 1.92V422h-1.944Zm13.641 0v-11.664h1.896v2.592h-.264c.336-.928.88-1.624 1.632-2.088.768-.48 1.648-.72 2.64-.72.928 0 1.696.168 2.304.504.624.32 1.088.824 1.392 1.512.304.688.456 1.552.456 2.592V422h-1.944v-7.152c0-.72-.096-1.312-.288-1.776-.176-.464-.464-.808-.864-1.032-.384-.224-.888-.336-1.512-.336-.704 0-1.32.152-1.848.456a3.125 3.125 0 0 0-1.224 1.272c-.288.544-.432 1.184-.432 1.92V422h-1.944Zm18.896.216c-1.232 0-2.296-.24-3.192-.72a5.288 5.288 0 0 1-2.064-2.088c-.48-.896-.72-1.968-.72-3.216 0-1.216.24-2.272.72-3.168.48-.912 1.136-1.624 1.968-2.136.848-.512 1.824-.768 2.928-.768 1.056 0 1.96.232 2.712.696.752.464 1.328 1.12 1.728 1.968.416.848.624 1.864.624 3.048v.744h-9.192v-1.272h7.896l-.384.312c0-1.28-.288-2.272-.864-2.976-.56-.72-1.384-1.08-2.472-1.08-.816 0-1.512.192-2.088.576-.56.368-.984.888-1.272 1.56-.288.656-.432 1.424-.432 2.304v.144c0 .976.152 1.8.456 2.472.32.672.792 1.184 1.416 1.536.624.336 1.368.504 2.232.504.688 0 1.352-.104 1.992-.312a5.598 5.598 0 0 0 1.848-1.08l.672 1.368c-.528.48-1.2.864-2.016 1.152a7.449 7.449 0 0 1-2.496.432Zm12.462 0c-1.168 0-2.176-.256-3.024-.768a5.184 5.184 0 0 1-1.968-2.136c-.448-.928-.672-2-.672-3.216 0-1.232.224-2.296.672-3.192a4.904 4.904 0 0 1 1.968-2.064c.848-.48 1.856-.72 3.024-.72.72 0 1.432.128 2.136.384.704.256 1.288.616 1.752 1.08l-.672 1.416a4.415 4.415 0 0 0-1.536-.984 4.366 4.366 0 0 0-1.56-.312c-1.216 0-2.152.384-2.808 1.152-.656.752-.984 1.84-.984 3.264 0 1.392.328 2.496.984 3.312.656.8 1.592 1.2 2.808 1.2.496 0 1.016-.104 1.56-.312a4.266 4.266 0 0 0 1.536-1.008l.672 1.416c-.464.464-1.056.832-1.776 1.104a6.144 6.144 0 0 1-2.112.384Zm10.845 0c-1.376 0-2.408-.368-3.096-1.104-.688-.736-1.032-1.784-1.032-3.144v-6.12h-2.28v-1.512h2.28v-3.576h1.944v3.576h3.696v1.512h-3.696v5.928c0 .912.192 1.608.576 2.088.384.464 1.008.696 1.872.696.256 0 .512-.032.768-.096s.488-.128.696-.192l.336 1.488c-.208.112-.512.216-.912.312s-.784.144-1.152.144Zm3.471-14.784v-2.184h2.4v2.184h-2.4Zm.24 14.568v-11.664h1.944V422h-1.944Zm10.426.216c-1.136 0-2.12-.248-2.952-.744a5.107 5.107 0 0 1-1.944-2.088c-.448-.912-.672-1.984-.672-3.216 0-1.232.224-2.296.672-3.192.464-.912 1.112-1.616 1.944-2.112.832-.496 1.816-.744 2.952-.744s2.12.248 2.952.744c.832.496 1.472 1.2 1.92 2.112.464.896.696 1.96.696 3.192 0 1.232-.232 2.304-.696 3.216a4.95 4.95 0 0 1-1.92 2.088c-.832.496-1.816.744-2.952.744Zm0-1.56c1.104 0 1.976-.384 2.616-1.152.656-.784.984-1.904.984-3.36 0-1.44-.328-2.544-.984-3.312-.64-.768-1.512-1.152-2.616-1.152-1.088 0-1.96.384-2.616 1.152-.656.768-.984 1.872-.984 3.312 0 1.456.328 2.576.984 3.36.656.768 1.528 1.152 2.616 1.152ZM287.16 422v-11.664h1.896v2.592h-.264c.336-.928.88-1.624 1.632-2.088.768-.48 1.648-.72 2.64-.72.928 0 1.696.168 2.304.504.624.32 1.088.824 1.392 1.512.304.688.456 1.552.456 2.592V422h-1.944v-7.152c0-.72-.096-1.312-.288-1.776-.176-.464-.464-.808-.864-1.032-.384-.224-.888-.336-1.512-.336-.704 0-1.32.152-1.848.456a3.125 3.125 0 0 0-1.224 1.272c-.288.544-.432 1.184-.432 1.92V422h-1.944Zm17.577.216c-.608 0-1.2-.064-1.776-.192a8.288 8.288 0 0 1-1.584-.48 5.37 5.37 0 0 1-1.248-.792l.624-1.368c.384.304.8.56 1.248.768a6.97 6.97 0 0 0 2.784.576c.912 0 1.6-.168 2.064-.504.464-.336.696-.792.696-1.368 0-.448-.152-.8-.456-1.056-.304-.272-.784-.48-1.44-.624l-2.184-.48c-1.008-.208-1.76-.568-2.256-1.08-.48-.512-.72-1.176-.72-1.992 0-.72.184-1.336.552-1.848.384-.528.92-.936 1.608-1.224.688-.288 1.488-.432 2.4-.432.544 0 1.064.056 1.56.168.496.112.96.28 1.392.504.448.208.832.472 1.152.792l-.648 1.368a4.262 4.262 0 0 0-1.032-.72 4.754 4.754 0 0 0-1.2-.456 4.518 4.518 0 0 0-1.224-.168c-.896 0-1.576.176-2.04.528-.464.352-.696.816-.696 1.392 0 .448.144.816.432 1.104.288.288.736.496 1.344.624l2.184.456c1.04.224 1.816.584 2.328 1.08.528.48.792 1.136.792 1.968 0 .704-.192 1.32-.576 1.848-.384.512-.928.912-1.632 1.2-.688.272-1.504.408-2.448.408Zm14.046-.216v-16.92h6.768c1.728 0 3.072.384 4.032 1.152.96.768 1.44 1.856 1.44 3.264 0 1.056-.312 1.936-.936 2.64-.608.704-1.44 1.168-2.496 1.392v-.336c.8.096 1.488.328 2.064.696a3.513 3.513 0 0 1 1.32 1.416c.304.576.456 1.256.456 2.04 0 1.008-.224 1.864-.672 2.568-.432.688-1.064 1.208-1.896 1.56-.832.352-1.84.528-3.024.528h-7.056Zm1.92-1.584h4.944c.512 0 .968-.04 1.368-.12.416-.08.776-.2 1.08-.36a2.98 2.98 0 0 0 .768-.624c.208-.24.36-.528.456-.864.112-.336.168-.712.168-1.128 0-.432-.056-.808-.168-1.128a2.237 2.237 0 0 0-.456-.864 2.442 2.442 0 0 0-.768-.624 3.89 3.89 0 0 0-1.08-.36c-.4-.08-.856-.12-1.368-.12h-4.944v6.192Zm0-7.776h4.56c1.248 0 2.192-.256 2.832-.768.656-.512.984-1.248.984-2.208 0-.992-.328-1.736-.984-2.232-.64-.512-1.584-.768-2.832-.768h-4.56v5.976Zm17.611 9.576c-1.184 0-2.08-.352-2.688-1.056-.592-.704-.888-1.712-.888-3.024V405.08h1.944v12.912c0 .56.072 1.032.216 1.416.16.384.392.672.696.864.304.192.68.288 1.128.288.192 0 .376-.008.552-.024.192-.032.368-.072.528-.12l-.048 1.632c-.256.048-.504.088-.744.12a4.918 4.918 0 0 1-.696.048Zm8.256 0c-1.136 0-2.12-.248-2.952-.744a5.107 5.107 0 0 1-1.944-2.088c-.448-.912-.672-1.984-.672-3.216 0-1.232.224-2.296.672-3.192.464-.912 1.112-1.616 1.944-2.112.832-.496 1.816-.744 2.952-.744s2.12.248 2.952.744c.832.496 1.472 1.2 1.92 2.112.464.896.696 1.96.696 3.192 0 1.232-.232 2.304-.696 3.216a4.95 4.95 0 0 1-1.92 2.088c-.832.496-1.816.744-2.952.744Zm0-1.56c1.104 0 1.976-.384 2.616-1.152.656-.784.984-1.904.984-3.36 0-1.44-.328-2.544-.984-3.312-.64-.768-1.512-1.152-2.616-1.152-1.088 0-1.96.384-2.616 1.152-.656.768-.984 1.872-.984 3.312 0 1.456.328 2.576.984 3.36.656.768 1.528 1.152 2.616 1.152Zm12.424 1.56c-.608 0-1.2-.064-1.776-.192a8.288 8.288 0 0 1-1.584-.48 5.37 5.37 0 0 1-1.248-.792l.624-1.368c.384.304.8.56 1.248.768a6.97 6.97 0 0 0 2.784.576c.912 0 1.6-.168 2.064-.504.464-.336.696-.792.696-1.368 0-.448-.152-.8-.456-1.056-.304-.272-.784-.48-1.44-.624l-2.184-.48c-1.008-.208-1.76-.568-2.256-1.08-.48-.512-.72-1.176-.72-1.992 0-.72.184-1.336.552-1.848.384-.528.92-.936 1.608-1.224.688-.288 1.488-.432 2.4-.432.544 0 1.064.056 1.56.168.496.112.96.28 1.392.504.448.208.832.472 1.152.792l-.648 1.368a4.262 4.262 0 0 0-1.032-.72 4.754 4.754 0 0 0-1.2-.456 4.518 4.518 0 0 0-1.224-.168c-.896 0-1.576.176-2.04.528-.464.352-.696.816-.696 1.392 0 .448.144.816.432 1.104.288.288.736.496 1.344.624l2.184.456c1.04.224 1.816.584 2.328 1.08.528.48.792 1.136.792 1.968 0 .704-.192 1.32-.576 1.848-.384.512-.928.912-1.632 1.2-.688.272-1.504.408-2.448.408Zm11.555 0c-.608 0-1.2-.064-1.776-.192a8.288 8.288 0 0 1-1.584-.48 5.37 5.37 0 0 1-1.248-.792l.624-1.368c.384.304.8.56 1.248.768a6.97 6.97 0 0 0 2.784.576c.912 0 1.6-.168 2.064-.504.464-.336.696-.792.696-1.368 0-.448-.152-.8-.456-1.056-.304-.272-.784-.48-1.44-.624l-2.184-.48c-1.008-.208-1.76-.568-2.256-1.08-.48-.512-.72-1.176-.72-1.992 0-.72.184-1.336.552-1.848.384-.528.92-.936 1.608-1.224.688-.288 1.488-.432 2.4-.432.544 0 1.064.056 1.56.168.496.112.96.28 1.392.504.448.208.832.472 1.152.792l-.648 1.368a4.262 4.262 0 0 0-1.032-.72 4.754 4.754 0 0 0-1.2-.456 4.518 4.518 0 0 0-1.224-.168c-.896 0-1.576.176-2.04.528-.464.352-.696.816-.696 1.392 0 .448.144.816.432 1.104.288.288.736.496 1.344.624l2.184.456c1.04.224 1.816.584 2.328 1.08.528.48.792 1.136.792 1.968 0 .704-.192 1.32-.576 1.848-.384.512-.928.912-1.632 1.2-.688.272-1.504.408-2.448.408Zm12.467 0c-1.136 0-2.12-.248-2.952-.744a5.107 5.107 0 0 1-1.944-2.088c-.448-.912-.672-1.984-.672-3.216 0-1.232.224-2.296.672-3.192.464-.912 1.112-1.616 1.944-2.112.832-.496 1.816-.744 2.952-.744s2.12.248 2.952.744c.832.496 1.472 1.2 1.92 2.112.464.896.696 1.96.696 3.192 0 1.232-.232 2.304-.696 3.216a4.95 4.95 0 0 1-1.92 2.088c-.832.496-1.816.744-2.952.744Zm0-1.56c1.104 0 1.976-.384 2.616-1.152.656-.784.984-1.904.984-3.36 0-1.44-.328-2.544-.984-3.312-.64-.768-1.512-1.152-2.616-1.152-1.088 0-1.96.384-2.616 1.152-.656.768-.984 1.872-.984 3.312 0 1.456.328 2.576.984 3.36.656.768 1.528 1.152 2.616 1.152Zm8.536 1.344v-11.664h1.896v2.592h-.264a4.208 4.208 0 0 1 .84-1.512 3.59 3.59 0 0 1 1.344-.96 4.379 4.379 0 0 1 1.728-.336c.992 0 1.792.24 2.4.72.624.464 1.04 1.192 1.248 2.184h-.36c.288-.896.8-1.6 1.536-2.112.752-.528 1.624-.792 2.616-.792.88 0 1.6.168 2.16.504.576.336 1.008.848 1.296 1.536.288.672.432 1.528.432 2.568V422h-1.944v-7.176c0-1.072-.184-1.856-.552-2.352-.368-.512-.992-.768-1.872-.768-.624 0-1.176.152-1.656.456-.464.304-.824.736-1.08 1.296-.24.544-.36 1.192-.36 1.944v6.6h-1.944v-7.176c0-1.072-.192-1.856-.576-2.352-.368-.512-.984-.768-1.848-.768-.64 0-1.192.152-1.656.456-.464.304-.824.736-1.08 1.296-.24.544-.36 1.192-.36 1.944v6.6h-1.944Z"/></svg>