<svg xmlns="http://www.w3.org/2000/svg" width="1040" height="441" fill="none"><g clip-path="url(#a)"><path fill="#fff" d="M0 0h1040v441H0z"/><path fill="#000" d="M520 0h520v585H520z"/><path fill="#FF7B00" d="M211.489 96.25c-14.765-33.117-59.057-34.745-79.728-25.135-17.718 10.348-29.53 25.134-22.886 63.573 6.644 38.439 42.817 43.614 70.132 42.135 27.314-1.478 50.938-39.178 32.482-80.574Z"/><path fill="#000" d="m159.569 176.5-2.736-49.833h9.177l3.622 50.368c-3.929-.073-6.133-.2-10.063-.535Zm14.186-66.485-3.232-1.393s2.267-9.429 5.433-14.643c3.059-5.04 10.062-11.254 10.062-11.254l3.028 1.98c-10.227 6.823-13.474 13.167-15.291 25.31Zm18.384-3.83-1.251-3.29s8.346-4.94 14.291-6.3c5.748-1.313 15.085-.616 15.085-.616l.688 3.553c-12.019-2.588-18.833-.5-28.813 6.653Zm-5.608 21.363 1.158-3.324s9.567 1.585 14.994 4.367c5.247 2.69 11.948 9.229 11.948 9.229l-1.758 3.163c-7.539-9.711-14.099-12.495-26.342-13.435Z"/><path fill="#000" d="m161.108 119.617 1.952 2.929s-7.036 6.674-12.53 9.323c-5.31 2.562-14.568 3.961-14.568 3.961l-1.461-3.31c12.293-.154 18.471-3.706 26.607-12.903Z"/><path fill="#000" d="m171.722 121.727-.781 3.433s-9.684-.511-15.387-2.672c-5.514-2.09-12.901-7.842-12.901-7.842l1.395-3.339c8.574 8.812 15.403 10.849 27.674 10.42Z"/><path fill="#000" d="m158.427 113.297 3.434.772s-.487 9.686-2.634 15.394c-2.076 5.518-7.811 12.92-7.811 12.92l-3.342-1.387c8.791-8.595 10.811-15.429 10.353-27.699Z"/><path fill="#000" d="m160.139 120.642.001 3.52s-9.555 1.655-15.596.815c-5.84-.812-14.321-4.779-14.321-4.779l.618-3.566c10.318 6.686 17.428 7.155 29.298 4.01Z"/><path fill="#000" d="m166.116 122.722-2.961 1.903s-6.554-7.147-9.111-12.684c-2.472-5.353-3.715-14.633-3.715-14.633l3.334-1.406c-.053 12.294 3.395 18.531 12.453 26.82Z"/><path fill="#000" d="M173.78 116.121c-3.313-7.431-13.252-7.796-17.89-5.64-3.976 2.322-6.627 5.64-5.136 14.265 1.491 8.626 9.608 9.787 15.737 9.455 6.129-.332 11.43-8.791 7.289-18.08Zm20.531-33.379c.517-3.208-2.725-5.503-4.747-5.796-1.836-.093-3.447.437-4.834 3.646-1.387 3.208 1.072 5.37 3.193 6.6 2.121 1.228 5.742-.44 6.388-4.45Zm31.719 19.201c2.662-1.863 2.051-5.788.853-7.442-1.212-1.383-2.714-2.17-5.983-.931-3.269 1.24-3.108 4.51-2.512 6.888.595 2.378 4.314 3.814 7.642 1.485Zm-10.819 44.152c3.237.285 5.293-3.113 5.44-5.151-.039-1.838-.683-3.407-3.983-4.56-3.3-1.154-5.281 1.455-6.354 3.658-1.074 2.204.851 5.696 4.897 6.053ZM129.014 131.3c-2.18 2.409-.71 6.099.826 7.445 1.49 1.078 3.129 1.511 6.04-.425s2.025-5.089.915-7.274c-1.11-2.186-5.055-2.758-7.781.254Zm12.141-24.813c-3.248.076-4.913 3.682-4.833 5.724.244 1.822 1.058 3.31 4.466 4.089 3.408.778 5.086-2.034 5.908-4.343.821-2.31-1.48-5.566-5.541-5.47Zm2.102 37.411c.085 3.248 3.695 4.904 5.736 4.819 1.822-.248 3.307-1.066 4.078-4.476.77-3.41-2.046-5.08-4.358-5.896-2.311-.816-5.562 1.493-5.456 5.553Zm-16.307-31.323c-3.15.796-3.972 4.682-3.44 6.655.642 1.723 1.767 2.992 5.262 2.994 3.496.002 4.507-3.113 4.795-5.547.288-2.435-2.679-5.098-6.617-4.102Zm28.029-22.138c-2.372-2.22-6.086-.813-7.459.7-1.103 1.471-1.563 3.104.324 6.046 1.887 2.943 5.054 2.111 7.258 1.038 2.204-1.073 2.842-5.009-.123-7.784Zm102.03-1.331c6.63 0 11.223 1.105 13.78 3.315 2.556 2.166 3.835 5.611 3.835 10.335 0 4.68-.932 8.212-2.795 10.595 2.73 2.253 4.095 6.045 4.095 11.375 0 10.227-5.872 15.34-17.615 15.34-1.387 0-5.915-.347-13.585-1.04v-48.88c4.506-.694 8.601-1.04 12.285-1.04Zm7.8 41.405c.866-.953 1.3-2.903 1.3-5.85 0-2.947-.325-4.723-.975-5.33-.65-.607-2.34-.91-5.07-.91-2.687 0-4.399.043-5.135.13-.694.087-1.04.347-1.04.78v11.635c0 .477.281.758.845.845.606.087 2.231.13 4.875.13 2.643 0 4.376-.477 5.2-1.43Zm-9.75-20.15c3.77 0 6.326-.455 7.67-1.365 1.386-.91 2.08-2.925 2.08-6.045 0-1.777-.39-3.228-1.17-4.355-.737-1.17-1.539-1.755-2.405-1.755-3.684 0-5.915.238-6.695.715-.26.173-.477.433-.65.78v10.985c0 .52.086.823.26.91.303.087.606.13.91.13Zm26.037 27.105v-47.32c4.42-.694 8.255-1.04 11.505-1.04 6.023 0 10.183 1.127 12.48 3.38 2.297 2.253 3.445 5.98 3.445 11.18 0 7.28-2.037 12.133-6.11 14.56l8.19 18.525c.477 1.083.715 1.798.715 2.145 0 .303-.043.498-.13.585-.173.39-.91.585-2.21.585-4.203 0-6.673-.823-7.41-2.47l-7.41-17.16c-1.083.087-2.708.13-4.875.13v16.77c0 1.213-.13 1.972-.39 2.275-.217.303-.953.455-2.21.455-3.727 0-5.59-.867-5.59-2.6Zm9.23-25.805c3.467 0 5.807-.477 7.02-1.43 1.213-.997 1.82-3.207 1.82-6.63 0-2.08-.347-3.727-1.04-4.94-.65-1.213-1.387-1.82-2.21-1.82-3.077 0-4.962.065-5.655.195-.65.13-.975.563-.975 1.3v12.35c0 .563.108.867.325.91.217.043.455.065.715.065Zm47.01-2.21c1.733 0 2.6.78 2.6 2.34 0 2.123-.13 3.575-.39 4.355-.26.78-.932 1.17-2.015 1.17h-12.74v13.845h15.015c1.04.043 1.755.26 2.145.65.39.347.585.888.585 1.625 0 2.123-.195 3.597-.585 4.42-.39.78-1.17 1.17-2.34 1.17h-22.88l-1.04-1.04v-47.84h23.075c1.863.043 2.795.736 2.795 2.08-.044 1.17-.109 2.102-.195 2.795-.087.65-.369 1.3-.845 1.95-.434.65-1.084.975-1.95.975h-14.495l.715 11.505h12.545Zm31.421 0c1.733 0 2.6.78 2.6 2.34 0 2.123-.13 3.575-.39 4.355-.26.78-.932 1.17-2.015 1.17h-12.74v13.845h15.015c1.04.043 1.755.26 2.145.65.39.347.585.888.585 1.625 0 2.123-.195 3.597-.585 4.42-.39.78-1.17 1.17-2.34 1.17h-22.88l-1.04-1.04v-47.84h23.075c1.863.043 2.795.736 2.795 2.08-.044 1.17-.109 2.102-.195 2.795-.087.65-.369 1.3-.845 1.95-.434.65-1.084.975-1.95.975h-14.495l.715 11.505h12.545Zm36.1 29.575h-25.35l-1.04-1.04v-6.89l18.46-33.15h-16.64c-1.126-.043-1.863-.303-2.21-.78-.346-.607-.52-1.603-.52-2.99 0-1.43.152-2.448.455-3.055.304-.65.954-.975 1.95-.975h26.13l1.04 1.04v5.72l-18.005 34.255h15.405c1.43.043 2.384.238 2.86.585.52.303.78.802.78 1.495-.086 3.857-1.191 5.785-3.315 5.785Zm-151.813 11.218-2.314 9.282h-1.183l-1.651-6.084a46.404 46.404 0 0 1-.156-.559 32.834 32.834 0 0 0-.13-.546 12.148 12.148 0 0 1-.104-.442 5.073 5.073 0 0 1-.052-.286 6.212 6.212 0 0 1-.052.286c-.026.121-.057.269-.091.442-.035.173-.078.36-.13.559-.044.191-.091.386-.143.585l-1.612 6.045h-1.196l-2.301-9.282h1.209l1.339 5.668.13.598c.043.191.078.381.104.572.034.182.065.36.091.533.034.173.06.342.078.507l.078-.533.104-.559.13-.598c.052-.199.104-.394.156-.585l1.508-5.603h1.196l1.573 5.642c.052.199.099.403.143.611.052.199.095.394.13.585.043.191.078.377.104.559.034.173.065.334.091.481.026-.217.06-.442.104-.676.043-.243.091-.494.143-.754l.182-.793 1.326-5.655h1.196Zm2.301 2.301c0 .165-.009.334-.026.507a6.792 6.792 0 0 1-.039.468h.078c.138-.243.312-.442.52-.598.216-.156.45-.273.702-.351.26-.087.528-.13.806-.13.528 0 .97.091 1.326.273.355.173.624.446.806.819.182.373.273.858.273 1.456v4.537h-1.131v-4.459c0-.563-.117-.984-.351-1.261-.234-.277-.594-.416-1.079-.416-.477 0-.854.1-1.131.299-.278.191-.473.477-.585.858-.113.373-.169.832-.169 1.378v3.601h-1.131v-9.88h1.131v2.899Zm9.008-.117c.564 0 1.049.13 1.456.39.408.26.72.628.936 1.105.226.468.338 1.018.338 1.651v.689h-4.472c.018.789.204 1.391.559 1.807.356.407.854.611 1.495.611.416 0 .785-.039 1.105-.117.33-.087.668-.208 1.014-.364v1.001a4.67 4.67 0 0 1-1.001.338c-.32.078-.71.117-1.17.117-.624 0-1.174-.134-1.651-.403a2.778 2.778 0 0 1-1.118-1.196c-.268-.537-.403-1.192-.403-1.963 0-.763.122-1.417.364-1.963.243-.546.581-.966 1.014-1.261.442-.295.954-.442 1.534-.442Zm0 .936c-.502 0-.901.178-1.196.533-.294.347-.468.832-.52 1.456h3.276a2.9 2.9 0 0 0-.169-1.04 1.446 1.446 0 0 0-.52-.689c-.225-.173-.515-.26-.871-.26Zm7.478-.936c.122 0 .252.009.39.026.139.009.26.026.364.052l-.13 1.053a3.122 3.122 0 0 0-.702-.091c-.251 0-.489.056-.715.169a2.009 2.009 0 0 0-.611.481 2.29 2.29 0 0 0-.416.728 2.801 2.801 0 0 0-.156.962v3.718h-1.131v-6.968h.923l.13 1.274h.052c.139-.26.304-.494.494-.702.2-.217.425-.386.676-.507.252-.13.529-.195.832-.195Zm4.278 0c.564 0 1.049.13 1.456.39.408.26.72.628.936 1.105.226.468.338 1.018.338 1.651v.689h-4.472c.018.789.204 1.391.559 1.807.356.407.854.611 1.495.611.416 0 .785-.039 1.105-.117.33-.087.668-.208 1.014-.364v1.001a4.67 4.67 0 0 1-1.001.338c-.32.078-.71.117-1.17.117-.624 0-1.174-.134-1.651-.403a2.778 2.778 0 0 1-1.118-1.196c-.268-.537-.403-1.192-.403-1.963 0-.763.122-1.417.364-1.963.243-.546.581-.966 1.014-1.261.442-.295.954-.442 1.534-.442Zm0 .936c-.502 0-.901.178-1.196.533-.294.347-.468.832-.52 1.456h3.276a2.9 2.9 0 0 0-.169-1.04 1.446 1.446 0 0 0-.52-.689c-.225-.173-.515-.26-.871-.26Zm11.432-2.223c-.459 0-.871.087-1.235.26a2.496 2.496 0 0 0-.936.741 3.53 3.53 0 0 0-.585 1.183 5.73 5.73 0 0 0-.195 1.56c0 .763.108 1.426.325 1.989.217.563.542.997.975 1.3.442.303.988.455 1.638.455a5.39 5.39 0 0 0 1.079-.104c.347-.069.689-.156 1.027-.26v1.014c-.329.13-.667.225-1.014.286a7.33 7.33 0 0 1-1.248.091c-.893 0-1.638-.195-2.236-.585-.589-.39-1.031-.945-1.326-1.664-.295-.719-.442-1.564-.442-2.535 0-.702.091-1.343.273-1.924a4.35 4.35 0 0 1 .806-1.508c.355-.425.793-.75 1.313-.975.52-.234 1.118-.351 1.794-.351.442 0 .871.048 1.287.143.416.095.793.23 1.131.403l-.455.988a6.457 6.457 0 0 0-.91-.351 3.522 3.522 0 0 0-1.066-.156Zm9.565 4.888c0 .581-.074 1.096-.221 1.547a3.172 3.172 0 0 1-.611 1.131c-.269.312-.594.55-.975.715a3.338 3.338 0 0 1-1.274.234c-.434 0-.837-.078-1.209-.234a2.85 2.85 0 0 1-.962-.715 3.307 3.307 0 0 1-.624-1.131c-.148-.451-.221-.966-.221-1.547 0-.771.121-1.421.364-1.95.251-.537.606-.945 1.066-1.222.459-.286 1.001-.429 1.625-.429.598 0 1.122.143 1.573.429.459.277.819.685 1.079 1.222.26.529.39 1.179.39 1.95Zm-4.927 0c0 .546.065 1.023.195 1.43.13.399.333.706.611.923.277.217.632.325 1.066.325.433 0 .788-.108 1.066-.325.277-.217.481-.524.611-.923.138-.407.208-.884.208-1.43 0-.555-.07-1.027-.208-1.417-.13-.39-.334-.689-.611-.897-.278-.217-.637-.325-1.079-.325-.65 0-1.123.234-1.417.702-.295.468-.442 1.114-.442 1.937Zm9.806-3.601c.78 0 1.369.204 1.768.611.407.399.611 1.049.611 1.95v4.537h-1.131v-4.459c0-.563-.117-.984-.351-1.261-.234-.277-.594-.416-1.079-.416-.711 0-1.205.217-1.482.65-.269.433-.403 1.057-.403 1.872v3.614h-1.131v-6.968h.91l.169.949h.065c.138-.243.316-.442.533-.598a2.22 2.22 0 0 1 .715-.364c.26-.078.528-.117.806-.117Zm7.592 0c.78 0 1.369.204 1.768.611.407.399.611 1.049.611 1.95v4.537h-1.131v-4.459c0-.563-.117-.984-.351-1.261-.234-.277-.594-.416-1.079-.416-.711 0-1.205.217-1.482.65-.269.433-.403 1.057-.403 1.872v3.614h-1.131v-6.968h.91l.169.949h.065c.138-.243.316-.442.533-.598a2.22 2.22 0 0 1 .715-.364c.26-.078.528-.117.806-.117Zm6.941 0c.564 0 1.049.13 1.456.39.408.26.72.628.936 1.105.226.468.338 1.018.338 1.651v.689h-4.472c.018.789.204 1.391.559 1.807.356.407.854.611 1.495.611.416 0 .785-.039 1.105-.117.33-.087.668-.208 1.014-.364v1.001a4.67 4.67 0 0 1-1.001.338c-.32.078-.71.117-1.17.117-.624 0-1.174-.134-1.651-.403a2.778 2.778 0 0 1-1.118-1.196c-.268-.537-.403-1.192-.403-1.963 0-.763.122-1.417.364-1.963.243-.546.581-.966 1.014-1.261.442-.295.954-.442 1.534-.442Zm0 .936c-.502 0-.901.178-1.196.533-.294.347-.468.832-.52 1.456h3.276a2.9 2.9 0 0 0-.169-1.04 1.446 1.446 0 0 0-.52-.689c-.225-.173-.515-.26-.871-.26Zm7.01 6.292c-.589 0-1.109-.126-1.56-.377-.45-.251-.806-.641-1.066-1.17-.251-.529-.377-1.205-.377-2.028 0-.858.135-1.556.403-2.093.269-.537.633-.932 1.092-1.183a3.303 3.303 0 0 1 1.586-.377c.338 0 .663.039.975.117.321.069.581.156.78.26l-.351.949a6.078 6.078 0 0 0-.702-.221 2.845 2.845 0 0 0-.728-.104c-.424 0-.775.1-1.053.299-.277.199-.485.494-.624.884-.138.39-.208.875-.208 1.456 0 .555.07 1.027.208 1.417.139.39.343.685.611.884.278.199.616.299 1.014.299.356 0 .672-.039.949-.117.278-.078.533-.173.767-.286v1.014a2.92 2.92 0 0 1-.741.273 3.96 3.96 0 0 1-.975.104Zm5.514-.936c.164 0 .333-.013.507-.039.173-.035.316-.069.429-.104v.871a1.83 1.83 0 0 1-.52.143 3.213 3.213 0 0 1-.624.065c-.347 0-.668-.061-.962-.182a1.545 1.545 0 0 1-.715-.663c-.174-.312-.26-.75-.26-1.313v-4.056h-.923v-.546l.949-.455.429-1.482h.676v1.599h1.898v.884h-1.898v4.03c0 .425.095.741.286.949.19.199.433.299.728.299Zm3.376-6.162v6.968h-1.131v-6.968h1.131Zm-.559-2.613c.173 0 .325.061.455.182.13.113.195.295.195.546 0 .243-.065.425-.195.546a.648.648 0 0 1-.455.182.663.663 0 0 1-.468-.182c-.13-.121-.195-.303-.195-.546 0-.251.065-.433.195-.546a.663.663 0 0 1 .468-.182Zm8.347 6.084c0 .581-.073 1.096-.221 1.547a3.142 3.142 0 0 1-.611 1.131c-.268.312-.593.55-.975.715a3.335 3.335 0 0 1-1.274.234c-.433 0-.836-.078-1.209-.234a2.86 2.86 0 0 1-.962-.715 3.341 3.341 0 0 1-.624-1.131 4.984 4.984 0 0 1-.221-1.547c0-.771.122-1.421.364-1.95.252-.537.607-.945 1.066-1.222.46-.286 1.001-.429 1.625-.429.598 0 1.123.143 1.573.429.46.277.819.685 1.079 1.222.26.529.39 1.179.39 1.95Zm-4.927 0c0 .546.065 1.023.195 1.43.13.399.334.706.611.923.278.217.633.325 1.066.325.434 0 .789-.108 1.066-.325.278-.217.481-.524.611-.923.139-.407.208-.884.208-1.43 0-.555-.069-1.027-.208-1.417-.13-.39-.333-.689-.611-.897-.277-.217-.637-.325-1.079-.325-.65 0-1.122.234-1.417.702-.294.468-.442 1.114-.442 1.937Zm9.806-3.601c.78 0 1.37.204 1.768.611.408.399.611 1.049.611 1.95v4.537h-1.131v-4.459c0-.563-.117-.984-.351-1.261-.234-.277-.593-.416-1.079-.416-.71 0-1.204.217-1.482.65-.268.433-.403 1.057-.403 1.872v3.614h-1.131v-6.968h.91l.169.949h.065c.139-.243.317-.442.533-.598a2.23 2.23 0 0 1 .715-.364c.26-.078.529-.117.806-.117Zm8.697 5.174c0 .451-.108.828-.325 1.131-.208.303-.507.533-.897.689-.39.156-.858.234-1.404.234-.459 0-.858-.039-1.196-.117a3.423 3.423 0 0 1-.871-.325v-1.04c.269.139.589.269.962.39.373.113.75.169 1.131.169.529 0 .91-.091 1.144-.273a.912.912 0 0 0 .364-.754.81.81 0 0 0-.143-.468c-.087-.139-.247-.277-.481-.416a6.711 6.711 0 0 0-.988-.468 9.718 9.718 0 0 1-1.079-.52 2.093 2.093 0 0 1-.689-.624c-.156-.243-.234-.555-.234-.936 0-.589.225-1.044.676-1.365.459-.321 1.057-.481 1.794-.481.399 0 .771.043 1.118.13.347.078.676.191.988.338l-.377.91a4.131 4.131 0 0 0-.572-.221 3.776 3.776 0 0 0-.611-.156 2.887 2.887 0 0 0-.611-.065c-.425 0-.75.078-.975.234a.693.693 0 0 0-.338.611.8.8 0 0 0 .156.494c.104.139.273.273.507.403.243.121.572.264.988.429.416.165.771.334 1.066.507.295.173.516.386.663.637.156.243.234.55.234.923Zm7.414-7.358c.728 0 1.339.074 1.833.221.494.147.867.39 1.118.728.251.338.377.789.377 1.352 0 .364-.065.689-.195.975a1.796 1.796 0 0 1-.546.702 2.162 2.162 0 0 1-.897.377v.065c.364.061.689.173.975.338.295.165.524.399.689.702.173.303.26.698.26 1.183 0 .563-.126 1.044-.377 1.443-.243.39-.589.689-1.04.897-.451.199-.992.299-1.625.299h-3.081v-9.282h2.509Zm.221 3.952c.728 0 1.226-.126 1.495-.377.277-.26.416-.641.416-1.144 0-.511-.169-.875-.507-1.092-.329-.225-.854-.338-1.573-.338h-1.404v2.951h1.573Zm-1.573.975v3.367h1.716c.754 0 1.278-.16 1.573-.481.303-.321.455-.741.455-1.261 0-.329-.069-.615-.208-.858-.13-.243-.347-.429-.65-.559-.303-.139-.719-.208-1.248-.208h-1.638Zm7.791 4.355h-1.131v-9.88h1.131v9.88Zm7.788-3.497c0 .581-.074 1.096-.221 1.547a3.157 3.157 0 0 1-.611 1.131c-.269.312-.594.55-.975.715a3.335 3.335 0 0 1-1.274.234c-.433 0-.836-.078-1.209-.234a2.85 2.85 0 0 1-.962-.715 3.307 3.307 0 0 1-.624-1.131 4.984 4.984 0 0 1-.221-1.547c0-.771.121-1.421.364-1.95.251-.537.607-.945 1.066-1.222.459-.286 1.001-.429 1.625-.429.598 0 1.122.143 1.573.429.459.277.819.685 1.079 1.222.26.529.39 1.179.39 1.95Zm-4.927 0c0 .546.065 1.023.195 1.43.13.399.334.706.611.923.277.217.633.325 1.066.325.433 0 .789-.108 1.066-.325.277-.217.481-.524.611-.923.139-.407.208-.884.208-1.43 0-.555-.069-1.027-.208-1.417-.13-.39-.334-.689-.611-.897-.277-.217-.637-.325-1.079-.325-.65 0-1.122.234-1.417.702-.295.468-.442 1.114-.442 1.937Zm10.911 1.573c0 .451-.108.828-.325 1.131-.208.303-.507.533-.897.689-.39.156-.858.234-1.404.234-.459 0-.858-.039-1.196-.117a3.423 3.423 0 0 1-.871-.325v-1.04c.269.139.589.269.962.39.373.113.75.169 1.131.169.529 0 .91-.091 1.144-.273a.912.912 0 0 0 .364-.754.81.81 0 0 0-.143-.468c-.087-.139-.247-.277-.481-.416a6.711 6.711 0 0 0-.988-.468 9.718 9.718 0 0 1-1.079-.52 2.093 2.093 0 0 1-.689-.624c-.156-.243-.234-.555-.234-.936 0-.589.225-1.044.676-1.365.459-.321 1.057-.481 1.794-.481.399 0 .771.043 1.118.13.347.078.676.191.988.338l-.377.91a4.131 4.131 0 0 0-.572-.221 3.776 3.776 0 0 0-.611-.156 2.887 2.887 0 0 0-.611-.065c-.425 0-.75.078-.975.234a.693.693 0 0 0-.338.611.8.8 0 0 0 .156.494c.104.139.273.273.507.403.243.121.572.264.988.429.416.165.771.334 1.066.507.295.173.516.386.663.637.156.243.234.55.234.923Zm5.878 0c0 .451-.108.828-.325 1.131-.208.303-.507.533-.897.689-.39.156-.858.234-1.404.234-.459 0-.858-.039-1.196-.117a3.423 3.423 0 0 1-.871-.325v-1.04c.269.139.589.269.962.39.373.113.75.169 1.131.169.529 0 .91-.091 1.144-.273a.912.912 0 0 0 .364-.754.81.81 0 0 0-.143-.468c-.087-.139-.247-.277-.481-.416a6.711 6.711 0 0 0-.988-.468 9.718 9.718 0 0 1-1.079-.52 2.093 2.093 0 0 1-.689-.624c-.156-.243-.234-.555-.234-.936 0-.589.225-1.044.676-1.365.459-.321 1.057-.481 1.794-.481.399 0 .771.043 1.118.13.347.078.676.191.988.338l-.377.91a4.131 4.131 0 0 0-.572-.221 3.776 3.776 0 0 0-.611-.156 2.887 2.887 0 0 0-.611-.065c-.425 0-.75.078-.975.234a.693.693 0 0 0-.338.611.8.8 0 0 0 .156.494c.104.139.273.273.507.403.243.121.572.264.988.429.416.165.771.334 1.066.507.295.173.516.386.663.637.156.243.234.55.234.923Zm7.308-1.573c0 .581-.074 1.096-.221 1.547a3.157 3.157 0 0 1-.611 1.131c-.269.312-.594.55-.975.715a3.335 3.335 0 0 1-1.274.234c-.433 0-.836-.078-1.209-.234a2.85 2.85 0 0 1-.962-.715 3.307 3.307 0 0 1-.624-1.131 4.984 4.984 0 0 1-.221-1.547c0-.771.121-1.421.364-1.95.251-.537.607-.945 1.066-1.222.459-.286 1.001-.429 1.625-.429.598 0 1.122.143 1.573.429.459.277.819.685 1.079 1.222.26.529.39 1.179.39 1.95Zm-4.927 0c0 .546.065 1.023.195 1.43.13.399.334.706.611.923.277.217.633.325 1.066.325.433 0 .789-.108 1.066-.325.277-.217.481-.524.611-.923.139-.407.208-.884.208-1.43 0-.555-.069-1.027-.208-1.417-.13-.39-.334-.689-.611-.897-.277-.217-.637-.325-1.079-.325-.65 0-1.122.234-1.417.702-.295.468-.442 1.114-.442 1.937Zm13.849-3.601c.745 0 1.3.204 1.664.611.364.399.546 1.049.546 1.95v4.537h-1.118v-4.485c0-.546-.108-.958-.325-1.235-.208-.277-.537-.416-.988-.416-.624 0-1.07.195-1.339.585-.26.39-.39.958-.39 1.703v3.848h-1.131v-4.485c0-.364-.048-.667-.143-.91a1.093 1.093 0 0 0-.429-.559c-.191-.121-.438-.182-.741-.182-.433 0-.776.1-1.027.299-.251.191-.429.472-.533.845-.104.373-.156.832-.156 1.378v3.614h-1.131v-6.968h.91l.169.949h.065c.139-.243.308-.442.507-.598.199-.165.42-.286.663-.364a2.45 2.45 0 0 1 .754-.117c.503 0 .923.095 1.261.286.338.191.585.485.741.884h.078c.217-.399.511-.693.884-.884a2.662 2.662 0 0 1 1.209-.286Z"/><path fill="#FF7B00" d="M733.288 96.25c-14.765-33.117-59.058-34.745-79.728-25.135-17.718 10.348-29.531 25.134-22.887 63.573 6.645 38.439 42.818 43.614 70.133 42.135 27.314-1.478 50.938-39.178 32.482-80.574Z"/><path fill="#fff" d="m681.368 176.5-2.736-49.833h9.177l3.622 50.368c-3.929-.072-6.133-.2-10.063-.535Zm14.186-66.485-3.232-1.393s2.267-9.429 5.432-14.642c3.06-5.04 10.063-11.255 10.063-11.255l3.028 1.98c-10.227 6.824-13.474 13.167-15.291 25.31Zm18.384-3.83-1.251-3.29s8.346-4.94 14.291-6.299c5.748-1.314 15.085-.617 15.085-.617l.687 3.553c-12.019-2.588-18.832-.5-28.812 6.653Zm-5.608 21.363 1.158-3.324s9.567 1.585 14.994 4.367c5.247 2.69 11.948 9.229 11.948 9.229l-1.758 3.163c-7.54-9.711-14.1-12.495-26.342-13.435Z"/><path fill="#fff" d="m682.906 119.617 1.953 2.929s-7.036 6.674-12.53 9.323c-5.31 2.562-14.568 3.961-14.568 3.961l-1.462-3.31c12.294-.154 18.472-3.706 26.607-12.903Z"/><path fill="#fff" d="m693.518 121.727-.78 3.433s-9.684-.511-15.388-2.672c-5.513-2.09-12.9-7.842-12.9-7.842l1.395-3.339c8.573 8.812 15.402 10.849 27.673 10.42Z"/><path fill="#fff" d="m680.223 113.297 3.434.772s-.486 9.686-2.634 15.394c-2.076 5.518-7.81 12.92-7.81 12.92l-3.342-1.387c8.791-8.595 10.811-15.429 10.352-27.699Z"/><path fill="#fff" d="m681.937 120.642.002 3.52s-9.556 1.655-15.597.815c-5.839-.812-14.32-4.779-14.32-4.779l.618-3.566c10.317 6.686 17.428 7.155 29.297 4.01Z"/><path fill="#fff" d="m687.917 122.723-2.961 1.902s-6.555-7.147-9.111-12.684c-2.472-5.353-3.715-14.633-3.715-14.633l3.334-1.406c-.053 12.295 3.395 18.531 12.453 26.821Z"/><path fill="#fff" d="M695.579 116.121c-3.314-7.431-13.252-7.796-17.891-5.64-3.975 2.322-6.626 5.64-5.135 14.265 1.491 8.626 9.608 9.787 15.737 9.455 6.129-.332 11.43-8.791 7.289-18.08Zm20.531-33.379c.517-3.208-2.725-5.503-4.747-5.796-1.836-.093-3.448.437-4.835 3.646-1.387 3.208 1.073 5.37 3.194 6.6 2.121 1.228 5.742-.44 6.388-4.45Zm31.717 19.201c2.662-1.863 2.051-5.788.853-7.442-1.212-1.383-2.714-2.17-5.983-.931-3.269 1.24-3.108 4.51-2.513 6.888.596 2.378 4.315 3.814 7.643 1.485Zm-10.817 44.152c3.236.285 5.292-3.113 5.44-5.151-.04-1.838-.683-3.407-3.983-4.56-3.301-1.154-5.281 1.455-6.354 3.658-1.074 2.204.851 5.696 4.897 6.053ZM650.813 131.3c-2.18 2.409-.71 6.099.826 7.445 1.49 1.078 3.129 1.511 6.04-.425s2.025-5.089.915-7.274c-1.11-2.186-5.055-2.758-7.781.254Zm12.141-24.813c-3.248.076-4.913 3.682-4.833 5.724.244 1.822 1.058 3.31 4.466 4.089 3.408.778 5.086-2.034 5.907-4.343.822-2.31-1.479-5.566-5.54-5.47Zm2.104 37.411c.084 3.249 3.695 4.905 5.736 4.819 1.822-.248 3.307-1.066 4.078-4.476.77-3.409-2.046-5.08-4.358-5.896-2.311-.816-5.562 1.493-5.456 5.553Zm-16.309-31.323c-3.151.797-3.973 4.683-3.441 6.655.643 1.723 1.767 2.992 5.263 2.994 3.496.002 4.507-3.113 4.795-5.547.287-2.434-2.68-5.098-6.617-4.102Zm28.029-22.138c-2.372-2.22-6.087-.813-7.459.7-1.103 1.472-1.563 3.104.324 6.047 1.886 2.942 5.054 2.11 7.258 1.037 2.204-1.073 2.842-5.008-.123-7.784Z"/><path fill="#fff" d="M734.471 98.249a19.896 19.896 0 0 0-1.12-2.604s1.481-.228 4.713-.163c3.232.066 4.228.275 4.228.275l.688 3.552c-4.469-.91-6.063-1.06-8.509-1.06Z"/><path fill="#fff" d="M748.057 101.721c2.663-1.863 2.051-5.788.854-7.443-1.213-1.382-2.715-2.17-5.984-.93-3.268 1.239-3.107 4.51-2.512 6.888.595 2.378 4.315 3.814 7.642 1.485Zm-11.356 44.087c3.983.499 5.831-3.047 5.978-5.084 0-1.601-.466-3.005-3.528-4.393 0 0-.459 2.248-1.159 4.895-.627 2.37-1.291 4.582-1.291 4.582Z"/><path fill="#FF7B00" d="M779.04 84.038c6.63 0 11.224 1.105 13.78 3.315 2.557 2.167 3.835 5.612 3.835 10.335 0 4.68-.931 8.212-2.795 10.595 2.73 2.254 4.095 6.045 4.095 11.375 0 10.227-5.871 15.34-17.615 15.34-1.386 0-5.915-.346-13.585-1.04v-48.88c4.507-.693 8.602-1.04 12.285-1.04Zm7.8 41.405c.867-.953 1.3-2.903 1.3-5.85 0-2.946-.325-4.723-.975-5.33-.65-.606-2.34-.91-5.07-.91-2.686 0-4.398.044-5.135.13-.693.087-1.04.347-1.04.78v11.635c0 .477.282.759.845.845.607.087 2.232.13 4.875.13 2.644 0 4.377-.476 5.2-1.43Zm-9.75-20.15c3.77 0 6.327-.455 7.67-1.365 1.387-.91 2.08-2.925 2.08-6.045 0-1.776-.39-3.228-1.17-4.355-.736-1.17-1.538-1.755-2.405-1.755-3.683 0-5.915.239-6.695.715-.26.174-.476.434-.65.78v10.985c0 .52.087.824.26.91.304.087.607.13.91.13Zm26.038 27.105v-47.32c4.42-.693 8.255-1.04 11.505-1.04 6.023 0 10.183 1.127 12.48 3.38 2.296 2.254 3.445 5.98 3.445 11.18 0 7.28-2.037 12.134-6.11 14.56l8.19 18.525c.476 1.084.715 1.799.715 2.145 0 .304-.044.499-.13.585-.174.39-.91.585-2.21.585-4.204 0-6.674-.823-7.41-2.47l-7.41-17.16c-1.084.087-2.709.13-4.875.13v16.77c0 1.214-.13 1.972-.39 2.275-.217.304-.954.455-2.21.455-3.727 0-5.59-.866-5.59-2.6Zm9.23-25.805c3.466 0 5.806-.476 7.02-1.43 1.213-.996 1.82-3.206 1.82-6.63 0-2.08-.347-3.726-1.04-4.94-.65-1.213-1.387-1.82-2.21-1.82-3.077 0-4.962.065-5.655.195-.65.13-.975.564-.975 1.3v12.35c0 .564.108.867.325.91.216.044.455.065.715.065Zm47.009-2.21c1.734 0 2.6.78 2.6 2.34 0 2.124-.13 3.575-.39 4.355-.26.78-.931 1.17-2.015 1.17h-12.74v13.845h15.015c1.04.044 1.755.26 2.145.65.39.347.585.889.585 1.625 0 2.124-.195 3.597-.585 4.42-.39.78-1.17 1.17-2.34 1.17h-22.88l-1.04-1.04v-47.84h23.075c1.864.044 2.795.737 2.795 2.08-.043 1.17-.108 2.102-.195 2.795-.086.65-.368 1.3-.845 1.95-.433.65-1.083.975-1.95.975h-14.495l.715 11.505h12.545Zm31.421 0c1.733 0 2.6.78 2.6 2.34 0 2.124-.13 3.575-.39 4.355-.26.78-.932 1.17-2.015 1.17h-12.74v13.845h15.015c1.04.044 1.755.26 2.145.65.39.347.585.889.585 1.625 0 2.124-.195 3.597-.585 4.42-.39.78-1.17 1.17-2.34 1.17h-22.88l-1.04-1.04v-47.84h23.075c1.863.044 2.795.737 2.795 2.08-.043 1.17-.108 2.102-.195 2.795-.087.65-.368 1.3-.845 1.95-.433.65-1.083.975-1.95.975h-14.495l.715 11.505h12.545Zm36.101 29.575h-25.35l-1.04-1.04v-6.89l18.46-33.15h-16.64c-1.127-.043-1.863-.303-2.21-.78-.347-.606-.52-1.603-.52-2.99 0-1.43.152-2.448.455-3.055.303-.65.953-.975 1.95-.975h26.13l1.04 1.04v5.72l-18.005 34.255h15.405c1.43.044 2.383.239 2.86.585.52.304.78.802.78 1.495-.087 3.857-1.192 5.785-3.315 5.785Zm-151.814 11.218-2.314 9.282h-1.183l-1.651-6.084a46.404 46.404 0 0 1-.156-.559c-.043-.19-.086-.372-.13-.546-.043-.173-.078-.32-.104-.442a6.212 6.212 0 0 1-.052-.286 5.073 5.073 0 0 1-.052.286l-.091.442a9.24 9.24 0 0 1-.13.559c-.043.191-.091.386-.143.585l-1.612 6.045h-1.196l-2.301-9.282h1.209l1.339 5.668.13.598c.044.191.078.382.104.572.035.182.065.36.091.533.035.174.061.343.078.507l.078-.533c.035-.182.07-.368.104-.559l.13-.598c.052-.199.104-.394.156-.585l1.508-5.603h1.196l1.573 5.642c.052.2.1.403.143.611.052.2.096.395.13.585.044.191.078.377.104.559.035.174.065.334.091.481.026-.216.061-.442.104-.676.044-.242.091-.494.143-.754.061-.26.122-.524.182-.793l1.326-5.655h1.196Zm2.301 2.301c0 .165-.009.334-.026.507-.009.174-.022.33-.039.468h.078a1.95 1.95 0 0 1 .52-.598c.217-.156.451-.273.702-.351.26-.086.529-.13.806-.13.529 0 .971.091 1.326.273.355.174.624.447.806.819.182.373.273.858.273 1.456v4.537h-1.131v-4.459c0-.563-.117-.983-.351-1.261-.234-.277-.594-.416-1.079-.416-.477 0-.854.1-1.131.299-.277.191-.472.477-.585.858-.113.373-.169.832-.169 1.378v3.601h-1.131v-9.88h1.131v2.899Zm9.009-.117c.563 0 1.049.13 1.456.39.407.26.719.629.936 1.105.225.468.338 1.019.338 1.651v.689h-4.472c.017.789.204 1.391.559 1.807.355.408.854.611 1.495.611a4.7 4.7 0 0 0 1.105-.117 6.476 6.476 0 0 0 1.014-.364v1.001a4.69 4.69 0 0 1-1.001.338 5.028 5.028 0 0 1-1.17.117c-.624 0-1.174-.134-1.651-.403-.477-.268-.849-.667-1.118-1.196-.269-.537-.403-1.191-.403-1.963 0-.762.121-1.417.364-1.963s.581-.966 1.014-1.261c.442-.294.953-.442 1.534-.442Zm0 .936c-.503 0-.901.178-1.196.533-.295.347-.468.832-.52 1.456h3.276c0-.398-.056-.745-.169-1.04a1.457 1.457 0 0 0-.52-.689c-.225-.173-.516-.26-.871-.26Zm7.478-.936c.121 0 .251.009.39.026.139.009.26.026.364.052l-.13 1.053a3.365 3.365 0 0 0-.702-.091c-.251 0-.49.057-.715.169a2.009 2.009 0 0 0-.611.481 2.3 2.3 0 0 0-.416.728 2.801 2.801 0 0 0-.156.962v3.718h-1.131v-6.968h.923l.13 1.274h.052c.139-.26.303-.494.494-.702.199-.216.425-.385.676-.507.251-.13.529-.195.832-.195Zm4.278 0c.563 0 1.048.13 1.456.39.407.26.719.629.936 1.105.225.468.338 1.019.338 1.651v.689h-4.472c.017.789.203 1.391.559 1.807.355.408.853.611 1.495.611a4.7 4.7 0 0 0 1.105-.117 6.476 6.476 0 0 0 1.014-.364v1.001a4.69 4.69 0 0 1-1.001.338 5.028 5.028 0 0 1-1.17.117c-.624 0-1.175-.134-1.651-.403-.477-.268-.85-.667-1.118-1.196-.269-.537-.403-1.191-.403-1.963 0-.762.121-1.417.364-1.963.242-.546.58-.966 1.014-1.261.442-.294.953-.442 1.534-.442Zm0 .936c-.503 0-.902.178-1.196.533-.295.347-.468.832-.52 1.456h3.276c0-.398-.057-.745-.169-1.04a1.457 1.457 0 0 0-.52-.689c-.226-.173-.516-.26-.871-.26Zm11.432-2.223c-.46 0-.871.087-1.235.26a2.496 2.496 0 0 0-.936.741 3.493 3.493 0 0 0-.585 1.183c-.13.46-.195.98-.195 1.56 0 .763.108 1.426.325 1.989.216.564.541.997.975 1.3.442.304.988.455 1.638.455.381 0 .741-.034 1.079-.104a10.43 10.43 0 0 0 1.027-.26v1.014c-.33.13-.668.226-1.014.286a7.33 7.33 0 0 1-1.248.091c-.893 0-1.638-.195-2.236-.585-.59-.39-1.032-.944-1.326-1.664-.295-.719-.442-1.564-.442-2.535 0-.702.091-1.343.273-1.924.182-.58.45-1.083.806-1.508a3.513 3.513 0 0 1 1.313-.975c.52-.234 1.118-.351 1.794-.351.442 0 .871.048 1.287.143.416.096.793.23 1.131.403l-.455.988a6.457 6.457 0 0 0-.91-.351 3.527 3.527 0 0 0-1.066-.156Zm9.564 4.888c0 .581-.073 1.097-.221 1.547a3.142 3.142 0 0 1-.611 1.131 2.644 2.644 0 0 1-.975.715 3.335 3.335 0 0 1-1.274.234c-.433 0-.836-.078-1.209-.234a2.847 2.847 0 0 1-.962-.715 3.341 3.341 0 0 1-.624-1.131 4.98 4.98 0 0 1-.221-1.547c0-.771.122-1.421.364-1.95.252-.537.607-.944 1.066-1.222.46-.286 1.001-.429 1.625-.429.598 0 1.123.143 1.573.429.46.278.819.685 1.079 1.222.26.529.39 1.179.39 1.95Zm-4.927 0c0 .546.065 1.023.195 1.43.13.399.334.707.611.923.278.217.633.325 1.066.325.434 0 .789-.108 1.066-.325.278-.216.481-.524.611-.923.139-.407.208-.884.208-1.43 0-.554-.069-1.027-.208-1.417-.13-.39-.333-.689-.611-.897-.277-.216-.637-.325-1.079-.325-.65 0-1.122.234-1.417.702-.294.468-.442 1.114-.442 1.937Zm9.806-3.601c.78 0 1.37.204 1.768.611.408.399.611 1.049.611 1.95v4.537h-1.131v-4.459c0-.563-.117-.983-.351-1.261-.234-.277-.593-.416-1.079-.416-.71 0-1.204.217-1.482.65-.268.434-.403 1.058-.403 1.872v3.614h-1.131v-6.968h.91l.169.949h.065c.139-.242.317-.442.533-.598a2.25 2.25 0 0 1 .715-.364c.26-.078.529-.117.806-.117Zm7.592 0c.78 0 1.37.204 1.768.611.408.399.611 1.049.611 1.95v4.537h-1.131v-4.459c0-.563-.117-.983-.351-1.261-.234-.277-.593-.416-1.079-.416-.71 0-1.204.217-1.482.65-.268.434-.403 1.058-.403 1.872v3.614h-1.131v-6.968h.91l.169.949h.065c.139-.242.317-.442.533-.598a2.25 2.25 0 0 1 .715-.364c.26-.078.529-.117.806-.117Zm6.942 0c.563 0 1.049.13 1.456.39.407.26.719.629.936 1.105.225.468.338 1.019.338 1.651v.689h-4.472c.017.789.204 1.391.559 1.807.355.408.854.611 1.495.611a4.7 4.7 0 0 0 1.105-.117 6.476 6.476 0 0 0 1.014-.364v1.001a4.69 4.69 0 0 1-1.001.338 5.028 5.028 0 0 1-1.17.117c-.624 0-1.174-.134-1.651-.403-.477-.268-.849-.667-1.118-1.196-.269-.537-.403-1.191-.403-1.963 0-.762.121-1.417.364-1.963s.581-.966 1.014-1.261c.442-.294.953-.442 1.534-.442Zm0 .936c-.503 0-.901.178-1.196.533-.295.347-.468.832-.52 1.456h3.276c0-.398-.056-.745-.169-1.04a1.457 1.457 0 0 0-.52-.689c-.225-.173-.516-.26-.871-.26Zm7.01 6.292c-.589 0-1.109-.125-1.56-.377-.451-.251-.806-.641-1.066-1.17-.251-.528-.377-1.204-.377-2.028 0-.858.134-1.555.403-2.093.269-.537.633-.931 1.092-1.183a3.303 3.303 0 0 1 1.586-.377c.338 0 .663.039.975.117.321.07.581.156.78.26l-.351.949a6.28 6.28 0 0 0-.702-.221 2.851 2.851 0 0 0-.728-.104c-.425 0-.776.1-1.053.299-.277.2-.485.494-.624.884s-.208.876-.208 1.456c0 .555.069 1.027.208 1.417.139.39.342.685.611.884.277.2.615.299 1.014.299.355 0 .672-.039.949-.117.277-.078.533-.173.767-.286v1.014a2.845 2.845 0 0 1-.741.273c-.269.07-.594.104-.975.104Zm5.513-.936c.165 0 .334-.013.507-.039.174-.034.317-.069.429-.104v.871a1.78 1.78 0 0 1-.52.143 3.122 3.122 0 0 1-.624.065c-.346 0-.667-.06-.962-.182a1.55 1.55 0 0 1-.715-.663c-.173-.312-.26-.749-.26-1.313v-4.056h-.923v-.546l.949-.455.429-1.482h.676v1.599h1.898v.884h-1.898v4.03c0 .425.096.741.286.949.191.2.434.299.728.299Zm3.377-6.162v6.968h-1.131v-6.968h1.131Zm-.559-2.613c.173 0 .325.061.455.182.13.113.195.295.195.546 0 .243-.065.425-.195.546a.644.644 0 0 1-.455.182.659.659 0 0 1-.468-.182c-.13-.121-.195-.303-.195-.546 0-.251.065-.433.195-.546a.663.663 0 0 1 .468-.182Zm8.347 6.084a4.98 4.98 0 0 1-.221 1.547 3.157 3.157 0 0 1-.611 1.131 2.66 2.66 0 0 1-.975.715 3.335 3.335 0 0 1-1.274.234c-.433 0-.836-.078-1.209-.234a2.837 2.837 0 0 1-.962-.715 3.307 3.307 0 0 1-.624-1.131 4.98 4.98 0 0 1-.221-1.547c0-.771.121-1.421.364-1.95.251-.537.607-.944 1.066-1.222.459-.286 1.001-.429 1.625-.429.598 0 1.122.143 1.573.429.459.278.819.685 1.079 1.222.26.529.39 1.179.39 1.95Zm-4.927 0c0 .546.065 1.023.195 1.43.13.399.334.707.611.923.277.217.633.325 1.066.325.433 0 .789-.108 1.066-.325.277-.216.481-.524.611-.923.139-.407.208-.884.208-1.43 0-.554-.069-1.027-.208-1.417-.13-.39-.334-.689-.611-.897-.277-.216-.637-.325-1.079-.325-.65 0-1.122.234-1.417.702-.295.468-.442 1.114-.442 1.937Zm9.806-3.601c.78 0 1.369.204 1.768.611.407.399.611 1.049.611 1.95v4.537h-1.131v-4.459c0-.563-.117-.983-.351-1.261-.234-.277-.594-.416-1.079-.416-.711 0-1.205.217-1.482.65-.269.434-.403 1.058-.403 1.872v3.614h-1.131v-6.968h.91l.169.949h.065c.139-.242.316-.442.533-.598a2.25 2.25 0 0 1 .715-.364c.26-.078.529-.117.806-.117Zm8.697 5.174c0 .451-.109.828-.325 1.131-.208.304-.507.533-.897.689-.39.156-.858.234-1.404.234-.46 0-.858-.039-1.196-.117a3.408 3.408 0 0 1-.871-.325v-1.04c.268.139.589.269.962.39a3.87 3.87 0 0 0 1.131.169c.528 0 .91-.091 1.144-.273a.913.913 0 0 0 .364-.754.81.81 0 0 0-.143-.468c-.087-.138-.247-.277-.481-.416a6.978 6.978 0 0 0-.988-.468 9.543 9.543 0 0 1-1.079-.52 2.083 2.083 0 0 1-.689-.624c-.156-.242-.234-.554-.234-.936 0-.589.225-1.044.676-1.365.459-.32 1.057-.481 1.794-.481.398 0 .771.044 1.118.13.346.078.676.191.988.338l-.377.91a4.262 4.262 0 0 0-.572-.221 3.802 3.802 0 0 0-.611-.156 2.894 2.894 0 0 0-.611-.065c-.425 0-.75.078-.975.234a.692.692 0 0 0-.338.611c0 .191.052.356.156.494.104.139.273.273.507.403.242.122.572.265.988.429.416.165.771.334 1.066.507.294.174.515.386.663.637.156.243.234.551.234.923Zm7.414-7.358c.728 0 1.339.074 1.833.221.494.148.866.39 1.118.728.251.338.377.789.377 1.352 0 .364-.065.689-.195.975a1.8 1.8 0 0 1-.546.702 2.162 2.162 0 0 1-.897.377v.065c.364.061.689.174.975.338.294.165.524.399.689.702.173.304.26.698.26 1.183 0 .564-.126 1.045-.377 1.443-.243.39-.59.689-1.04.897-.451.2-.993.299-1.625.299h-3.081v-9.282h2.509Zm.221 3.952c.728 0 1.226-.125 1.495-.377.277-.26.416-.641.416-1.144 0-.511-.169-.875-.507-1.092-.33-.225-.854-.338-1.573-.338h-1.404v2.951h1.573Zm-1.573.975v3.367h1.716c.754 0 1.278-.16 1.573-.481.303-.32.455-.741.455-1.261 0-.329-.07-.615-.208-.858-.13-.242-.347-.429-.65-.559-.304-.138-.72-.208-1.248-.208h-1.638Zm7.79 4.355h-1.131v-9.88h1.131v9.88Zm7.789-3.497a4.98 4.98 0 0 1-.221 1.547 3.172 3.172 0 0 1-.611 1.131 2.66 2.66 0 0 1-.975.715 3.338 3.338 0 0 1-1.274.234c-.434 0-.837-.078-1.209-.234a2.837 2.837 0 0 1-.962-.715 3.307 3.307 0 0 1-.624-1.131c-.148-.45-.221-.966-.221-1.547 0-.771.121-1.421.364-1.95.251-.537.606-.944 1.066-1.222.459-.286 1.001-.429 1.625-.429.598 0 1.122.143 1.573.429.459.278.819.685 1.079 1.222.26.529.39 1.179.39 1.95Zm-4.927 0c0 .546.065 1.023.195 1.43.13.399.333.707.611.923.277.217.632.325 1.066.325.433 0 .788-.108 1.066-.325.277-.216.481-.524.611-.923.138-.407.208-.884.208-1.43 0-.554-.07-1.027-.208-1.417-.13-.39-.334-.689-.611-.897-.278-.216-.637-.325-1.079-.325-.65 0-1.123.234-1.417.702-.295.468-.442 1.114-.442 1.937Zm10.911 1.573c0 .451-.109.828-.325 1.131-.208.304-.507.533-.897.689-.39.156-.858.234-1.404.234-.46 0-.858-.039-1.196-.117a3.408 3.408 0 0 1-.871-.325v-1.04c.268.139.589.269.962.39a3.87 3.87 0 0 0 1.131.169c.528 0 .91-.091 1.144-.273a.913.913 0 0 0 .364-.754.81.81 0 0 0-.143-.468c-.087-.138-.247-.277-.481-.416a6.978 6.978 0 0 0-.988-.468 9.543 9.543 0 0 1-1.079-.52 2.083 2.083 0 0 1-.689-.624c-.156-.242-.234-.554-.234-.936 0-.589.225-1.044.676-1.365.459-.32 1.057-.481 1.794-.481.398 0 .771.044 1.118.13.346.078.676.191.988.338l-.377.91a4.262 4.262 0 0 0-.572-.221 3.802 3.802 0 0 0-.611-.156 2.894 2.894 0 0 0-.611-.065c-.425 0-.75.078-.975.234a.692.692 0 0 0-.338.611c0 .191.052.356.156.494.104.139.273.273.507.403.242.122.572.265.988.429.416.165.771.334 1.066.507.294.174.515.386.663.637.156.243.234.551.234.923Zm5.878 0c0 .451-.109.828-.325 1.131-.208.304-.507.533-.897.689-.39.156-.858.234-1.404.234-.46 0-.858-.039-1.196-.117a3.408 3.408 0 0 1-.871-.325v-1.04c.268.139.589.269.962.39a3.87 3.87 0 0 0 1.131.169c.528 0 .91-.091 1.144-.273a.913.913 0 0 0 .364-.754.81.81 0 0 0-.143-.468c-.087-.138-.247-.277-.481-.416a6.978 6.978 0 0 0-.988-.468 9.543 9.543 0 0 1-1.079-.52 2.083 2.083 0 0 1-.689-.624c-.156-.242-.234-.554-.234-.936 0-.589.225-1.044.676-1.365.459-.32 1.057-.481 1.794-.481.398 0 .771.044 1.118.13.346.078.676.191.988.338l-.377.91a4.262 4.262 0 0 0-.572-.221 3.802 3.802 0 0 0-.611-.156 2.894 2.894 0 0 0-.611-.065c-.425 0-.75.078-.975.234a.692.692 0 0 0-.338.611c0 .191.052.356.156.494.104.139.273.273.507.403.242.122.572.265.988.429.416.165.771.334 1.066.507.294.174.515.386.663.637.156.243.234.551.234.923Zm7.308-1.573a4.98 4.98 0 0 1-.221 1.547 3.172 3.172 0 0 1-.611 1.131 2.66 2.66 0 0 1-.975.715 3.338 3.338 0 0 1-1.274.234c-.434 0-.837-.078-1.209-.234a2.837 2.837 0 0 1-.962-.715 3.307 3.307 0 0 1-.624-1.131c-.148-.45-.221-.966-.221-1.547 0-.771.121-1.421.364-1.95.251-.537.606-.944 1.066-1.222.459-.286 1.001-.429 1.625-.429.598 0 1.122.143 1.573.429.459.278.819.685 1.079 1.222.26.529.39 1.179.39 1.95Zm-4.927 0c0 .546.065 1.023.195 1.43.13.399.333.707.611.923.277.217.632.325 1.066.325.433 0 .788-.108 1.066-.325.277-.216.481-.524.611-.923.138-.407.208-.884.208-1.43 0-.554-.07-1.027-.208-1.417-.13-.39-.334-.689-.611-.897-.278-.216-.637-.325-1.079-.325-.65 0-1.123.234-1.417.702-.295.468-.442 1.114-.442 1.937Zm13.849-3.601c.745 0 1.3.204 1.664.611.364.399.546 1.049.546 1.95v4.537h-1.118v-4.485c0-.546-.109-.957-.325-1.235-.208-.277-.538-.416-.988-.416-.624 0-1.071.195-1.339.585-.26.39-.39.958-.39 1.703v3.848h-1.131v-4.485c0-.364-.048-.667-.143-.91a1.107 1.107 0 0 0-.429-.559c-.191-.121-.438-.182-.741-.182-.434 0-.776.1-1.027.299-.252.191-.429.473-.533.845-.104.373-.156.832-.156 1.378v3.614h-1.131v-6.968h.91l.169.949h.065a2.01 2.01 0 0 1 .507-.598c.199-.164.42-.286.663-.364.242-.078.494-.117.754-.117.502 0 .923.096 1.261.286.338.191.585.486.741.884h.078c.216-.398.511-.693.884-.884.381-.19.784-.286 1.209-.286Z"/><path fill="#fff" d="M733.288 287.291c-14.765-33.117-59.058-34.744-79.728-25.135-17.718 10.349-29.531 25.135-22.887 63.574 6.645 38.439 42.818 43.613 70.133 42.135 27.314-1.478 50.938-39.178 32.482-80.574Z"/><path fill="#000" d="m681.691 374.042-3.059-56.334h9.177l3.823 56.334h-9.941Zm13.863-72.985-3.232-1.393s2.267-9.429 5.432-14.643c3.06-5.039 10.063-11.254 10.063-11.254l3.028 1.98c-10.227 6.823-13.474 13.167-15.291 25.31Zm18.384-3.83-1.251-3.29s8.346-4.94 14.291-6.299c5.748-1.314 15.085-.617 15.085-.617l.687 3.553c-12.019-2.588-18.832-.501-28.812 6.653Z"/><path fill="#fff" d="M734.243 289.513a19.887 19.887 0 0 0-1.12-2.604s1.481-.228 4.712-.163c3.232.066 4.228.275 4.228.275l.688 3.552c-4.469-.91-6.063-1.06-8.508-1.06Z"/><path fill="#000" d="m708.33 318.589 1.158-3.323s9.567 1.584 14.994 4.367c5.247 2.69 11.948 9.229 11.948 9.229l-1.758 3.163c-7.54-9.711-14.1-12.495-26.342-13.436Zm-25.424-7.93 1.953 2.929s-7.036 6.674-12.53 9.323c-5.31 2.561-14.568 3.961-14.568 3.961l-1.462-3.31c12.294-.154 18.472-3.707 26.607-12.903Z"/><path fill="#000" d="m693.518 312.769-.78 3.432s-9.684-.51-15.388-2.671c-5.513-2.09-12.9-7.842-12.9-7.842l1.395-3.339c8.573 8.812 15.402 10.848 27.673 10.42Z"/><path fill="#000" d="m680.223 304.339 3.434.772s-.486 9.685-2.634 15.394c-2.076 5.518-7.81 12.92-7.81 12.92l-3.342-1.387c8.791-8.595 10.811-15.429 10.352-27.699Z"/><path fill="#000" d="m681.937 311.684.002 3.52s-9.556 1.654-15.597.814c-5.839-.812-14.32-4.779-14.32-4.779l.618-3.565c10.317 6.686 17.428 7.154 29.297 4.01Z"/><path fill="#000" d="m687.917 313.764-2.961 1.903s-6.555-7.147-9.111-12.684c-2.472-5.353-3.715-14.633-3.715-14.633l3.334-1.406c-.053 12.294 3.395 18.531 12.453 26.82Z"/><path fill="#000" d="M695.579 307.163c-3.314-7.431-13.252-7.796-17.891-5.64-3.975 2.322-6.626 5.64-5.135 14.265 1.491 8.626 9.608 9.787 15.737 9.455 6.129-.332 11.43-8.791 7.289-18.08Zm20.531-33.379c.517-3.208-2.725-5.503-4.747-5.796-1.836-.093-3.448.437-4.835 3.646-1.387 3.208 1.073 5.371 3.194 6.6 2.121 1.228 5.742-.44 6.388-4.45Z"/><path fill="#fff" d="M747.827 292.985c2.662-1.863 2.051-5.788.853-7.443-1.212-1.382-2.714-2.17-5.983-.93-3.269 1.239-3.108 4.51-2.513 6.888.596 2.378 4.315 3.814 7.643 1.485Z"/><path fill="#000" d="M737.01 337.137c3.236.285 5.292-3.113 5.44-5.151-.04-1.838-.683-3.407-3.983-4.56-3.301-1.154-5.281 1.455-6.354 3.658-1.074 2.204.851 5.696 4.897 6.053Z"/><path fill="#fff" d="M736.47 337.071c3.984.498 5.832-3.047 5.979-5.084 0-1.601-.467-3.006-3.529-4.393 0 0-.459 2.248-1.159 4.895-.627 2.37-1.291 4.582-1.291 4.582Z"/><path fill="#000" d="M650.813 322.342c-2.18 2.409-.71 6.099.826 7.445 1.49 1.078 3.129 1.511 6.04-.425s2.025-5.089.915-7.274c-1.11-2.186-5.055-2.758-7.781.254Zm12.141-24.813c-3.248.076-4.913 3.682-4.833 5.724.244 1.822 1.058 3.31 4.466 4.089 3.408.778 5.086-2.034 5.907-4.344.822-2.309-1.479-5.565-5.54-5.469Zm2.104 37.411c.084 3.248 3.695 4.904 5.736 4.819 1.822-.248 3.307-1.066 4.078-4.476.77-3.41-2.046-5.08-4.358-5.896-2.311-.816-5.562 1.493-5.456 5.553Zm-16.309-31.323c-3.151.796-3.973 4.682-3.441 6.655.643 1.723 1.767 2.992 5.263 2.994 3.496.002 4.507-3.113 4.795-5.547.287-2.435-2.68-5.098-6.617-4.102Zm28.029-22.138c-2.372-2.221-6.087-.813-7.459.7-1.103 1.471-1.563 3.104.324 6.046 1.886 2.943 5.054 2.111 7.258 1.038 2.204-1.073 2.842-5.009-.123-7.784Z"/><path fill="#fff" d="M778.81 278.059c6.63 0 11.223 1.105 13.78 3.315 2.556 2.167 3.835 5.612 3.835 10.335 0 4.68-.932 8.212-2.795 10.595 2.73 2.254 4.095 6.045 4.095 11.375 0 10.227-5.872 15.34-17.615 15.34-1.387 0-5.915-.346-13.585-1.04v-48.88c4.506-.693 8.601-1.04 12.285-1.04Zm7.8 41.405c.866-.953 1.3-2.903 1.3-5.85 0-2.946-.325-4.723-.975-5.33-.65-.606-2.34-.91-5.07-.91-2.687 0-4.399.044-5.135.13-.694.087-1.04.347-1.04.78v11.635c0 .477.281.759.845.845.606.087 2.231.13 4.875.13 2.643 0 4.376-.476 5.2-1.43Zm-9.75-20.15c3.77 0 6.326-.455 7.67-1.365 1.386-.91 2.08-2.925 2.08-6.045 0-1.776-.39-3.228-1.17-4.355-.737-1.17-1.539-1.755-2.405-1.755-3.684 0-5.915.239-6.695.715-.26.174-.477.434-.65.78v10.985c0 .52.086.824.26.91.303.087.606.13.91.13Zm26.037 27.105v-47.32c4.42-.693 8.255-1.04 11.505-1.04 6.023 0 10.183 1.127 12.48 3.38 2.296 2.254 3.445 5.98 3.445 11.18 0 7.28-2.037 12.134-6.11 14.56l8.19 18.525c.476 1.084.715 1.799.715 2.145 0 .304-.044.499-.13.585-.174.39-.91.585-2.21.585-4.204 0-6.674-.823-7.41-2.47l-7.41-17.16c-1.084.087-2.709.13-4.875.13v16.77c0 1.214-.13 1.972-.39 2.275-.217.304-.954.455-2.21.455-3.727 0-5.59-.866-5.59-2.6Zm9.23-25.805c3.466 0 5.806-.476 7.02-1.43 1.213-.996 1.82-3.206 1.82-6.63 0-2.08-.347-3.726-1.04-4.94-.65-1.213-1.387-1.82-2.21-1.82-3.077 0-4.962.065-5.655.195-.65.13-.975.564-.975 1.3v12.35c0 .564.108.867.325.91.216.044.455.065.715.065Zm47.01-2.21c1.733 0 2.6.78 2.6 2.34 0 2.124-.13 3.575-.39 4.355-.26.78-.932 1.17-2.015 1.17h-12.74v13.845h15.015c1.04.044 1.755.26 2.145.65.39.347.585.889.585 1.625 0 2.124-.195 3.597-.585 4.42-.39.78-1.17 1.17-2.34 1.17h-22.88l-1.04-1.04v-47.84h23.075c1.863.044 2.795.737 2.795 2.08-.044 1.17-.109 2.102-.195 2.795-.087.65-.369 1.3-.845 1.95-.434.65-1.084.975-1.95.975h-14.495l.715 11.505h12.545Zm31.42 0c1.734 0 2.6.78 2.6 2.34 0 2.124-.13 3.575-.39 4.355-.26.78-.931 1.17-2.015 1.17h-12.74v13.845h15.015c1.04.044 1.755.26 2.145.65.39.347.585.889.585 1.625 0 2.124-.195 3.597-.585 4.42-.39.78-1.17 1.17-2.34 1.17h-22.88l-1.04-1.04v-47.84h23.075c1.864.044 2.795.737 2.795 2.08-.043 1.17-.108 2.102-.195 2.795-.086.65-.368 1.3-.845 1.95-.433.65-1.083.975-1.95.975h-14.495l.715 11.505h12.545Zm36.101 29.575h-25.35l-1.04-1.04v-6.89l18.46-33.15h-16.64c-1.126-.043-1.863-.303-2.21-.78-.346-.606-.52-1.603-.52-2.99 0-1.43.152-2.448.455-3.055.304-.65.954-.975 1.95-.975h26.13l1.04 1.04v5.72l-18.005 34.255h15.405c1.43.044 2.384.239 2.86.585.52.304.78.802.78 1.495-.086 3.857-1.191 5.785-3.315 5.785Zm-151.813 11.218-2.314 9.282h-1.183l-1.651-6.084a46.404 46.404 0 0 1-.156-.559c-.044-.19-.087-.372-.13-.546-.044-.173-.078-.32-.104-.442a5.073 5.073 0 0 1-.052-.286 6.212 6.212 0 0 1-.052.286c-.026.122-.057.269-.091.442-.035.174-.078.36-.13.559-.044.191-.091.386-.143.585l-1.612 6.045h-1.196l-2.301-9.282h1.209l1.339 5.668.13.598c.043.191.078.382.104.572.034.182.065.36.091.533.034.174.06.343.078.507l.078-.533.104-.559.13-.598c.052-.199.104-.394.156-.585l1.508-5.603h1.196l1.573 5.642c.052.2.099.403.143.611.052.2.095.395.13.585.043.191.078.377.104.559.034.174.065.334.091.481.026-.216.06-.442.104-.676.043-.242.091-.494.143-.754l.182-.793 1.326-5.655h1.196Zm2.3 2.301c0 .165-.008.334-.026.507a5.66 5.66 0 0 1-.039.468h.078a1.95 1.95 0 0 1 .52-.598c.217-.156.451-.273.702-.351.26-.086.529-.13.806-.13.529 0 .971.091 1.326.273.356.174.624.447.806.819.182.373.273.858.273 1.456v4.537h-1.131v-4.459c0-.563-.117-.983-.351-1.261-.234-.277-.593-.416-1.079-.416-.476 0-.853.1-1.131.299-.277.191-.472.477-.585.858-.112.373-.169.832-.169 1.378v3.601h-1.131v-9.88h1.131v2.899Zm9.009-.117c.564 0 1.049.13 1.456.39.408.26.72.629.936 1.105.226.468.338 1.019.338 1.651v.689h-4.472c.018.789.204 1.391.559 1.807.356.408.854.611 1.495.611.416 0 .785-.039 1.105-.117.33-.086.668-.208 1.014-.364v1.001a4.67 4.67 0 0 1-1.001.338c-.32.078-.71.117-1.17.117-.624 0-1.174-.134-1.651-.403-.476-.268-.849-.667-1.118-1.196-.268-.537-.403-1.191-.403-1.963 0-.762.122-1.417.364-1.963.243-.546.581-.966 1.014-1.261.442-.294.954-.442 1.534-.442Zm0 .936c-.502 0-.901.178-1.196.533-.294.347-.468.832-.52 1.456h3.276c0-.398-.056-.745-.169-1.04a1.45 1.45 0 0 0-.52-.689c-.225-.173-.515-.26-.871-.26Zm7.478-.936c.122 0 .252.009.39.026.139.009.26.026.364.052l-.13 1.053a3.365 3.365 0 0 0-.702-.091 1.59 1.59 0 0 0-.715.169 2.009 2.009 0 0 0-.611.481 2.3 2.3 0 0 0-.416.728 2.801 2.801 0 0 0-.156.962v3.718h-1.131v-6.968h.923l.13 1.274h.052c.139-.26.304-.494.494-.702.2-.216.425-.385.676-.507.252-.13.529-.195.832-.195Zm4.278 0c.563 0 1.049.13 1.456.39.407.26.719.629.936 1.105.225.468.338 1.019.338 1.651v.689h-4.472c.017.789.204 1.391.559 1.807.355.408.854.611 1.495.611a4.7 4.7 0 0 0 1.105-.117 6.476 6.476 0 0 0 1.014-.364v1.001a4.69 4.69 0 0 1-1.001.338 5.028 5.028 0 0 1-1.17.117c-.624 0-1.174-.134-1.651-.403-.477-.268-.849-.667-1.118-1.196-.269-.537-.403-1.191-.403-1.963 0-.762.121-1.417.364-1.963s.581-.966 1.014-1.261c.442-.294.953-.442 1.534-.442Zm0 .936c-.503 0-.901.178-1.196.533-.295.347-.468.832-.52 1.456h3.276c0-.398-.056-.745-.169-1.04a1.457 1.457 0 0 0-.52-.689c-.225-.173-.516-.26-.871-.26Zm11.432-2.223c-.459 0-.871.087-1.235.26a2.496 2.496 0 0 0-.936.741 3.53 3.53 0 0 0-.585 1.183c-.13.46-.195.98-.195 1.56 0 .763.108 1.426.325 1.989.217.564.542.997.975 1.3.442.304.988.455 1.638.455.381 0 .741-.034 1.079-.104.347-.069.689-.156 1.027-.26v1.014c-.329.13-.667.226-1.014.286a7.33 7.33 0 0 1-1.248.091c-.893 0-1.638-.195-2.236-.585-.589-.39-1.031-.944-1.326-1.664-.295-.719-.442-1.564-.442-2.535 0-.702.091-1.343.273-1.924.182-.58.451-1.083.806-1.508a3.513 3.513 0 0 1 1.313-.975c.52-.234 1.118-.351 1.794-.351.442 0 .871.048 1.287.143.416.096.793.23 1.131.403l-.455.988a6.457 6.457 0 0 0-.91-.351 3.522 3.522 0 0 0-1.066-.156Zm9.565 4.888a4.98 4.98 0 0 1-.221 1.547 3.172 3.172 0 0 1-.611 1.131 2.66 2.66 0 0 1-.975.715 3.338 3.338 0 0 1-1.274.234c-.434 0-.837-.078-1.209-.234a2.837 2.837 0 0 1-.962-.715 3.307 3.307 0 0 1-.624-1.131c-.148-.45-.221-.966-.221-1.547 0-.771.121-1.421.364-1.95.251-.537.606-.944 1.066-1.222.459-.286 1.001-.429 1.625-.429.598 0 1.122.143 1.573.429.459.278.819.685 1.079 1.222.26.529.39 1.179.39 1.95Zm-4.927 0c0 .546.065 1.023.195 1.43.13.399.333.707.611.923.277.217.632.325 1.066.325.433 0 .788-.108 1.066-.325.277-.216.481-.524.611-.923.138-.407.208-.884.208-1.43 0-.554-.07-1.027-.208-1.417-.13-.39-.334-.689-.611-.897-.278-.216-.637-.325-1.079-.325-.65 0-1.123.234-1.417.702-.295.468-.442 1.114-.442 1.937Zm9.806-3.601c.78 0 1.369.204 1.768.611.407.399.611 1.049.611 1.95v4.537h-1.131v-4.459c0-.563-.117-.983-.351-1.261-.234-.277-.594-.416-1.079-.416-.711 0-1.205.217-1.482.65-.269.434-.403 1.058-.403 1.872v3.614h-1.131v-6.968h.91l.169.949h.065c.138-.242.316-.442.533-.598a2.24 2.24 0 0 1 .715-.364c.26-.078.528-.117.806-.117Zm7.591 0c.78 0 1.37.204 1.768.611.408.399.611 1.049.611 1.95v4.537h-1.131v-4.459c0-.563-.117-.983-.351-1.261-.234-.277-.593-.416-1.079-.416-.71 0-1.204.217-1.482.65-.268.434-.403 1.058-.403 1.872v3.614h-1.131v-6.968h.91l.169.949h.065c.139-.242.317-.442.533-.598a2.25 2.25 0 0 1 .715-.364c.26-.078.529-.117.806-.117Zm6.942 0c.564 0 1.049.13 1.456.39.408.26.72.629.936 1.105.226.468.338 1.019.338 1.651v.689h-4.472c.018.789.204 1.391.559 1.807.356.408.854.611 1.495.611.416 0 .785-.039 1.105-.117.33-.086.668-.208 1.014-.364v1.001a4.67 4.67 0 0 1-1.001.338c-.32.078-.71.117-1.17.117-.624 0-1.174-.134-1.651-.403-.476-.268-.849-.667-1.118-1.196-.268-.537-.403-1.191-.403-1.963 0-.762.122-1.417.364-1.963.243-.546.581-.966 1.014-1.261.442-.294.954-.442 1.534-.442Zm0 .936c-.502 0-.901.178-1.196.533-.294.347-.468.832-.52 1.456h3.276c0-.398-.056-.745-.169-1.04a1.45 1.45 0 0 0-.52-.689c-.225-.173-.515-.26-.871-.26Zm7.01 6.292c-.589 0-1.109-.125-1.56-.377-.45-.251-.806-.641-1.066-1.17-.251-.528-.377-1.204-.377-2.028 0-.858.135-1.555.403-2.093.269-.537.633-.931 1.092-1.183a3.303 3.303 0 0 1 1.586-.377c.338 0 .663.039.975.117.321.07.581.156.78.26l-.351.949a6.28 6.28 0 0 0-.702-.221 2.845 2.845 0 0 0-.728-.104c-.424 0-.775.1-1.053.299-.277.2-.485.494-.624.884-.138.39-.208.876-.208 1.456 0 .555.07 1.027.208 1.417.139.39.343.685.611.884.278.2.616.299 1.014.299.356 0 .672-.039.949-.117.278-.078.533-.173.767-.286v1.014a2.845 2.845 0 0 1-.741.273c-.268.07-.593.104-.975.104Zm5.514-.936c.164 0 .333-.013.507-.039a4.26 4.26 0 0 0 .429-.104v.871a1.798 1.798 0 0 1-.52.143 3.137 3.137 0 0 1-.624.065c-.347 0-.668-.06-.962-.182a1.545 1.545 0 0 1-.715-.663c-.174-.312-.26-.749-.26-1.313v-4.056h-.923v-.546l.949-.455.429-1.482h.676v1.599h1.898v.884h-1.898v4.03c0 .425.095.741.286.949.19.2.433.299.728.299Zm3.376-6.162v6.968h-1.131v-6.968h1.131Zm-.559-2.613c.173 0 .325.061.455.182.13.113.195.295.195.546 0 .243-.065.425-.195.546a.644.644 0 0 1-.455.182.659.659 0 0 1-.468-.182c-.13-.121-.195-.303-.195-.546 0-.251.065-.433.195-.546a.663.663 0 0 1 .468-.182Zm8.347 6.084c0 .581-.073 1.097-.221 1.547a3.142 3.142 0 0 1-.611 1.131 2.644 2.644 0 0 1-.975.715 3.335 3.335 0 0 1-1.274.234c-.433 0-.836-.078-1.209-.234a2.847 2.847 0 0 1-.962-.715 3.341 3.341 0 0 1-.624-1.131 4.98 4.98 0 0 1-.221-1.547c0-.771.122-1.421.364-1.95.252-.537.607-.944 1.066-1.222.46-.286 1.001-.429 1.625-.429.598 0 1.123.143 1.573.429.46.278.819.685 1.079 1.222.26.529.39 1.179.39 1.95Zm-4.927 0c0 .546.065 1.023.195 1.43.13.399.334.707.611.923.278.217.633.325 1.066.325.434 0 .789-.108 1.066-.325.278-.216.481-.524.611-.923.139-.407.208-.884.208-1.43 0-.554-.069-1.027-.208-1.417-.13-.39-.333-.689-.611-.897-.277-.216-.637-.325-1.079-.325-.65 0-1.122.234-1.417.702-.294.468-.442 1.114-.442 1.937Zm9.806-3.601c.78 0 1.37.204 1.768.611.408.399.611 1.049.611 1.95v4.537h-1.131v-4.459c0-.563-.117-.983-.351-1.261-.234-.277-.593-.416-1.079-.416-.71 0-1.204.217-1.482.65-.268.434-.403 1.058-.403 1.872v3.614h-1.131v-6.968h.91l.169.949h.065c.139-.242.317-.442.533-.598a2.25 2.25 0 0 1 .715-.364c.26-.078.529-.117.806-.117Zm8.697 5.174c0 .451-.108.828-.325 1.131-.208.304-.507.533-.897.689-.39.156-.858.234-1.404.234-.459 0-.858-.039-1.196-.117a3.423 3.423 0 0 1-.871-.325v-1.04c.269.139.589.269.962.39.373.113.75.169 1.131.169.529 0 .91-.091 1.144-.273a.91.91 0 0 0 .364-.754.81.81 0 0 0-.143-.468c-.087-.138-.247-.277-.481-.416a6.924 6.924 0 0 0-.988-.468 9.543 9.543 0 0 1-1.079-.52 2.093 2.093 0 0 1-.689-.624c-.156-.242-.234-.554-.234-.936 0-.589.225-1.044.676-1.365.459-.32 1.057-.481 1.794-.481.399 0 .771.044 1.118.13.347.078.676.191.988.338l-.377.91a4.262 4.262 0 0 0-.572-.221 3.776 3.776 0 0 0-.611-.156 2.887 2.887 0 0 0-.611-.065c-.425 0-.75.078-.975.234a.694.694 0 0 0-.338.611c0 .191.052.356.156.494.104.139.273.273.507.403.243.122.572.265.988.429.416.165.771.334 1.066.507.295.174.516.386.663.637.156.243.234.551.234.923Zm7.414-7.358c.728 0 1.339.074 1.833.221.494.148.866.39 1.118.728.251.338.377.789.377 1.352 0 .364-.065.689-.195.975a1.8 1.8 0 0 1-.546.702 2.162 2.162 0 0 1-.897.377v.065c.364.061.689.174.975.338.294.165.524.399.689.702.173.304.26.698.26 1.183 0 .564-.126 1.045-.377 1.443-.243.39-.59.689-1.04.897-.451.2-.993.299-1.625.299h-3.081v-9.282h2.509Zm.221 3.952c.728 0 1.226-.125 1.495-.377.277-.26.416-.641.416-1.144 0-.511-.169-.875-.507-1.092-.33-.225-.854-.338-1.573-.338h-1.404v2.951h1.573Zm-1.573.975v3.367h1.716c.754 0 1.278-.16 1.573-.481.303-.32.455-.741.455-1.261 0-.329-.07-.615-.208-.858-.13-.242-.347-.429-.65-.559-.304-.138-.72-.208-1.248-.208h-1.638Zm7.79 4.355h-1.131v-9.88h1.131v9.88Zm7.789-3.497a4.98 4.98 0 0 1-.221 1.547 3.157 3.157 0 0 1-.611 1.131 2.66 2.66 0 0 1-.975.715 3.335 3.335 0 0 1-1.274.234c-.433 0-.836-.078-1.209-.234a2.837 2.837 0 0 1-.962-.715 3.307 3.307 0 0 1-.624-1.131 4.98 4.98 0 0 1-.221-1.547c0-.771.121-1.421.364-1.95.251-.537.607-.944 1.066-1.222.459-.286 1.001-.429 1.625-.429.598 0 1.122.143 1.573.429.459.278.819.685 1.079 1.222.26.529.39 1.179.39 1.95Zm-4.927 0c0 .546.065 1.023.195 1.43.13.399.334.707.611.923.277.217.633.325 1.066.325.433 0 .789-.108 1.066-.325.277-.216.481-.524.611-.923.139-.407.208-.884.208-1.43 0-.554-.069-1.027-.208-1.417-.13-.39-.334-.689-.611-.897-.277-.216-.637-.325-1.079-.325-.65 0-1.122.234-1.417.702-.295.468-.442 1.114-.442 1.937Zm10.911 1.573c0 .451-.108.828-.325 1.131-.208.304-.507.533-.897.689-.39.156-.858.234-1.404.234-.459 0-.858-.039-1.196-.117a3.423 3.423 0 0 1-.871-.325v-1.04c.269.139.589.269.962.39.373.113.75.169 1.131.169.529 0 .91-.091 1.144-.273a.91.91 0 0 0 .364-.754.81.81 0 0 0-.143-.468c-.087-.138-.247-.277-.481-.416a6.924 6.924 0 0 0-.988-.468 9.543 9.543 0 0 1-1.079-.52 2.093 2.093 0 0 1-.689-.624c-.156-.242-.234-.554-.234-.936 0-.589.225-1.044.676-1.365.459-.32 1.057-.481 1.794-.481.399 0 .771.044 1.118.13.347.078.676.191.988.338l-.377.91a4.262 4.262 0 0 0-.572-.221 3.776 3.776 0 0 0-.611-.156 2.887 2.887 0 0 0-.611-.065c-.425 0-.75.078-.975.234a.694.694 0 0 0-.338.611c0 .191.052.356.156.494.104.139.273.273.507.403.243.122.572.265.988.429.416.165.771.334 1.066.507.295.174.516.386.663.637.156.243.234.551.234.923Zm5.878 0c0 .451-.108.828-.325 1.131-.208.304-.507.533-.897.689-.39.156-.858.234-1.404.234-.459 0-.858-.039-1.196-.117a3.423 3.423 0 0 1-.871-.325v-1.04c.269.139.589.269.962.39.373.113.75.169 1.131.169.529 0 .91-.091 1.144-.273a.91.91 0 0 0 .364-.754.81.81 0 0 0-.143-.468c-.087-.138-.247-.277-.481-.416a6.924 6.924 0 0 0-.988-.468 9.543 9.543 0 0 1-1.079-.52 2.093 2.093 0 0 1-.689-.624c-.156-.242-.234-.554-.234-.936 0-.589.225-1.044.676-1.365.459-.32 1.057-.481 1.794-.481.399 0 .771.044 1.118.13.347.078.676.191.988.338l-.377.91a4.262 4.262 0 0 0-.572-.221 3.776 3.776 0 0 0-.611-.156 2.887 2.887 0 0 0-.611-.065c-.425 0-.75.078-.975.234a.694.694 0 0 0-.338.611c0 .191.052.356.156.494.104.139.273.273.507.403.243.122.572.265.988.429.416.165.771.334 1.066.507.295.174.516.386.663.637.156.243.234.551.234.923Zm7.308-1.573a4.98 4.98 0 0 1-.221 1.547 3.157 3.157 0 0 1-.611 1.131 2.66 2.66 0 0 1-.975.715 3.335 3.335 0 0 1-1.274.234c-.433 0-.836-.078-1.209-.234a2.837 2.837 0 0 1-.962-.715 3.307 3.307 0 0 1-.624-1.131 4.98 4.98 0 0 1-.221-1.547c0-.771.121-1.421.364-1.95.251-.537.607-.944 1.066-1.222.459-.286 1.001-.429 1.625-.429.598 0 1.122.143 1.573.429.459.278.819.685 1.079 1.222.26.529.39 1.179.39 1.95Zm-4.927 0c0 .546.065 1.023.195 1.43.13.399.334.707.611.923.277.217.633.325 1.066.325.433 0 .789-.108 1.066-.325.277-.216.481-.524.611-.923.139-.407.208-.884.208-1.43 0-.554-.069-1.027-.208-1.417-.13-.39-.334-.689-.611-.897-.277-.216-.637-.325-1.079-.325-.65 0-1.122.234-1.417.702-.295.468-.442 1.114-.442 1.937Zm13.849-3.601c.745 0 1.3.204 1.664.611.364.399.546 1.049.546 1.95v4.537h-1.118v-4.485c0-.546-.108-.957-.325-1.235-.208-.277-.537-.416-.988-.416-.624 0-1.07.195-1.339.585-.26.39-.39.958-.39 1.703v3.848h-1.131v-4.485c0-.364-.048-.667-.143-.91a1.097 1.097 0 0 0-.429-.559c-.191-.121-.438-.182-.741-.182-.433 0-.776.1-1.027.299-.251.191-.429.473-.533.845-.104.373-.156.832-.156 1.378v3.614h-1.131v-6.968h.91l.169.949h.065c.139-.242.308-.442.507-.598.199-.164.42-.286.663-.364a2.45 2.45 0 0 1 .754-.117c.503 0 .923.096 1.261.286.338.191.585.486.741.884h.078c.217-.398.511-.693.884-.884.381-.19.784-.286 1.209-.286Z"/><path fill="#000" d="M211.489 290.291c-14.765-33.117-59.057-34.744-79.728-25.135-17.718 10.349-29.53 25.135-22.886 63.574 6.644 38.439 42.817 43.613 70.132 42.135 27.314-1.478 50.938-39.178 32.482-80.574Z"/><path fill="#fff" d="m159.553 370.56-2.77-50.015h9.176l3.619 50.557c-3.929-.073-6.095-.207-10.025-.542Zm14.198-66.503-3.232-1.393s2.267-9.429 5.432-14.643c3.06-5.04 10.063-11.255 10.063-11.255l3.028 1.981c-10.227 6.823-13.475 13.167-15.291 25.31Zm18.388-3.83-1.251-3.29s8.346-4.94 14.291-6.299c5.748-1.315 15.085-.617 15.085-.617l.688 3.552c-12.019-2.587-18.833-.5-28.813 6.654Z"/><path fill="#000" d="M212.444 292.513a19.887 19.887 0 0 0-1.12-2.604s1.481-.228 4.713-.163c3.231.066 4.227.275 4.227.275l.688 3.552c-4.469-.91-6.063-1.06-8.508-1.06Z"/><path fill="#fff" d="m186.535 321.589 1.158-3.323s9.567 1.584 14.995 4.367c5.246 2.69 11.947 9.229 11.947 9.229l-1.758 3.163c-7.539-9.711-14.099-12.495-26.342-13.436Zm-25.423-7.93 1.952 2.929s-7.036 6.674-12.529 9.323c-5.311 2.561-14.568 3.961-14.568 3.961l-1.462-3.31c12.293-.154 18.471-3.707 26.607-12.903Z"/><path fill="#fff" d="m171.722 315.769-.781 3.432s-9.684-.51-15.387-2.671c-5.514-2.09-12.901-7.842-12.901-7.842l1.395-3.339c8.574 8.812 15.403 10.848 27.674 10.42Z"/><path fill="#fff" d="m158.427 307.339 3.434.772s-.487 9.685-2.634 15.394c-2.076 5.518-7.811 12.92-7.811 12.92l-3.342-1.387c8.791-8.595 10.811-15.429 10.353-27.699Z"/><path fill="#fff" d="m160.139 314.684.001 3.52s-9.555 1.654-15.596.814c-5.84-.812-14.321-4.779-14.321-4.779l.618-3.565c10.318 6.686 17.428 7.154 29.298 4.01Z"/><path fill="#fff" d="m166.116 316.764-2.961 1.903s-6.554-7.147-9.111-12.685c-2.472-5.352-3.715-14.632-3.715-14.632l3.334-1.406c-.053 12.294 3.395 18.531 12.453 26.82Z"/><path fill="#fff" d="M173.78 310.163c-3.313-7.431-13.252-7.797-17.89-5.64-3.976 2.322-6.627 5.64-5.136 14.265 1.491 8.625 9.608 9.786 15.737 9.455 6.129-.332 11.43-8.792 7.289-18.08Zm20.535-33.38c.517-3.208-2.725-5.502-4.746-5.795-1.837-.093-3.448.436-4.835 3.645s1.072 5.371 3.193 6.6c2.121 1.229 5.742-.44 6.388-4.45Z"/><path fill="#000" d="M226.03 295.985c2.662-1.863 2.051-5.788.853-7.443-1.212-1.382-2.714-2.17-5.983-.93-3.269 1.239-3.108 4.51-2.512 6.888.595 2.378 4.314 3.814 7.642 1.485Z"/><path fill="#fff" d="M215.211 340.137c3.237.285 5.293-3.113 5.44-5.151-.039-1.838-.683-3.407-3.983-4.561-3.3-1.153-5.281 1.455-6.354 3.659-1.074 2.204.851 5.696 4.897 6.053Z"/><path fill="#000" d="M214.671 340.071c3.984.498 5.832-3.047 5.979-5.085 0-1.6-.467-3.005-3.529-4.392 0 0-.458 2.248-1.159 4.895-.626 2.37-1.291 4.582-1.291 4.582Z"/><path fill="#fff" d="M129.014 325.341c-2.18 2.41-.71 6.1.826 7.446 1.49 1.078 3.129 1.511 6.04-.425s2.025-5.089.915-7.275c-1.11-2.185-5.055-2.757-7.781.254Zm12.141-24.813c-3.248.077-4.913 3.683-4.833 5.724.244 1.823 1.058 3.311 4.466 4.089 3.408.779 5.086-2.033 5.908-4.343.821-2.309-1.48-5.565-5.541-5.47Zm2.102 37.412c.085 3.248 3.695 4.904 5.736 4.819 1.822-.248 3.307-1.066 4.078-4.476.77-3.41-2.046-5.081-4.358-5.897-2.311-.816-5.562 1.493-5.456 5.554Zm-16.303-31.323c-3.15.796-3.972 4.682-3.44 6.654.642 1.723 1.767 2.993 5.263 2.995 3.495.002 4.506-3.113 4.794-5.547.288-2.435-2.679-5.098-6.617-4.102Zm28.025-22.139c-2.372-2.22-6.086-.813-7.459.701-1.103 1.471-1.563 3.103.324 6.046s5.054 2.111 7.258 1.038c2.204-1.073 2.842-5.009-.123-7.785Z"/><path fill="#000" d="M257.009 282.807c6.63 0 11.223 1.105 13.78 3.315 2.556 2.166 3.835 5.611 3.835 10.335 0 4.68-.932 8.211-2.795 10.595 2.73 2.253 4.095 6.045 4.095 11.375 0 10.226-5.872 15.34-17.615 15.34-1.387 0-5.915-.347-13.585-1.04v-48.88c4.506-.694 8.601-1.04 12.285-1.04Zm7.8 41.405c.866-.954 1.3-2.904 1.3-5.85 0-2.947-.325-4.724-.975-5.33-.65-.607-2.34-.91-5.07-.91-2.687 0-4.399.043-5.135.13-.694.086-1.04.346-1.04.78v11.635c0 .476.281.758.845.845.606.086 2.231.13 4.875.13 2.643 0 4.376-.477 5.2-1.43Zm-9.75-20.15c3.77 0 6.326-.455 7.67-1.365 1.386-.91 2.08-2.925 2.08-6.045 0-1.777-.39-3.229-1.17-4.355-.737-1.17-1.539-1.755-2.405-1.755-3.684 0-5.915.238-6.695.715-.26.173-.477.433-.65.78v10.985c0 .52.086.823.26.91.303.086.606.13.91.13Zm26.037 27.105v-47.32c4.42-.694 8.255-1.04 11.505-1.04 6.023 0 10.183 1.126 12.48 3.38 2.297 2.253 3.445 5.98 3.445 11.18 0 7.28-2.037 12.133-6.11 14.56l8.19 18.525c.477 1.083.715 1.798.715 2.145 0 .303-.043.498-.13.585-.173.39-.91.585-2.21.585-4.203 0-6.673-.824-7.41-2.47l-7.41-17.16c-1.083.086-2.708.13-4.875.13v16.77c0 1.213-.13 1.971-.39 2.275-.217.303-.953.455-2.21.455-3.727 0-5.59-.867-5.59-2.6Zm9.23-25.805c3.467 0 5.807-.477 7.02-1.43 1.213-.997 1.82-3.207 1.82-6.63 0-2.08-.347-3.727-1.04-4.94-.65-1.214-1.387-1.82-2.21-1.82-3.077 0-4.962.065-5.655.195-.65.13-.975.563-.975 1.3v12.35c0 .563.108.866.325.91.217.043.455.065.715.065Zm47.01-2.21c1.733 0 2.6.78 2.6 2.34 0 2.123-.13 3.575-.39 4.355-.26.78-.932 1.17-2.015 1.17h-12.74v13.845h15.015c1.04.043 1.755.26 2.145.65.39.346.585.888.585 1.625 0 2.123-.195 3.596-.585 4.42-.39.78-1.17 1.17-2.34 1.17h-22.88l-1.04-1.04v-47.84h23.075c1.863.043 2.795.736 2.795 2.08-.044 1.17-.109 2.101-.195 2.795-.087.65-.369 1.3-.845 1.95-.434.65-1.084.975-1.95.975h-14.495l.715 11.505h12.545Zm31.421 0c1.733 0 2.6.78 2.6 2.34 0 2.123-.13 3.575-.39 4.355-.26.78-.932 1.17-2.015 1.17h-12.74v13.845h15.015c1.04.043 1.755.26 2.145.65.39.346.585.888.585 1.625 0 2.123-.195 3.596-.585 4.42-.39.78-1.17 1.17-2.34 1.17h-22.88l-1.04-1.04v-47.84h23.075c1.863.043 2.795.736 2.795 2.08-.044 1.17-.109 2.101-.195 2.795-.087.65-.369 1.3-.845 1.95-.434.65-1.084.975-1.95.975h-14.495l.715 11.505h12.545Zm36.1 29.575h-25.35l-1.04-1.04v-6.89l18.46-33.15h-16.64c-1.126-.044-1.863-.304-2.21-.78-.346-.607-.52-1.604-.52-2.99 0-1.43.152-2.449.455-3.055.304-.65.954-.975 1.95-.975h26.13l1.04 1.04v5.72l-18.005 34.255h15.405c1.43.043 2.384.238 2.86.585.52.303.78.801.78 1.495-.086 3.856-1.191 5.785-3.315 5.785Zm-151.813 11.218-2.314 9.282h-1.183l-1.651-6.084a52.205 52.205 0 0 1-.156-.559 32.834 32.834 0 0 0-.13-.546 12.662 12.662 0 0 1-.104-.442 5.243 5.243 0 0 1-.052-.286 6.47 6.47 0 0 1-.052.286c-.026.121-.057.268-.091.442a10.5 10.5 0 0 1-.13.559c-.044.19-.091.385-.143.585l-1.612 6.045h-1.196l-2.301-9.282h1.209l1.339 5.668.13.598c.043.19.078.381.104.572.034.182.065.359.091.533.034.173.06.342.078.507l.078-.533.104-.559.13-.598c.052-.2.104-.395.156-.585l1.508-5.603h1.196l1.573 5.642c.052.199.099.403.143.611.052.199.095.394.13.585.043.19.078.377.104.559.034.173.065.333.091.481.026-.217.06-.442.104-.676.043-.243.091-.494.143-.754l.182-.793 1.326-5.655h1.196Zm2.301 2.301c0 .164-.009.333-.026.507a6.792 6.792 0 0 1-.039.468h.078c.138-.243.312-.442.52-.598.216-.156.45-.273.702-.351.26-.087.528-.13.806-.13.528 0 .97.091 1.326.273.355.173.624.446.806.819.182.372.273.858.273 1.456v4.537h-1.131v-4.459c0-.564-.117-.984-.351-1.261-.234-.278-.594-.416-1.079-.416-.477 0-.854.099-1.131.299-.278.19-.473.476-.585.858-.113.372-.169.832-.169 1.378v3.601h-1.131v-9.88h1.131v2.899Zm9.008-.117c.564 0 1.049.13 1.456.39.408.26.72.628.936 1.105.226.468.338 1.018.338 1.651v.689h-4.472c.018.788.204 1.391.559 1.807.356.407.854.611 1.495.611.416 0 .785-.039 1.105-.117.33-.087.668-.208 1.014-.364v1.001a4.726 4.726 0 0 1-1.001.338c-.32.078-.71.117-1.17.117-.624 0-1.174-.135-1.651-.403a2.783 2.783 0 0 1-1.118-1.196c-.268-.538-.403-1.192-.403-1.963 0-.763.122-1.417.364-1.963.243-.546.581-.967 1.014-1.261.442-.295.954-.442 1.534-.442Zm0 .936c-.502 0-.901.177-1.196.533-.294.346-.468.832-.52 1.456h3.276c0-.399-.056-.746-.169-1.04a1.44 1.44 0 0 0-.52-.689c-.225-.174-.515-.26-.871-.26Zm7.478-.936c.122 0 .252.008.39.026.139.008.26.026.364.052l-.13 1.053a3.122 3.122 0 0 0-.702-.091c-.251 0-.489.056-.715.169a1.993 1.993 0 0 0-.611.481 2.29 2.29 0 0 0-.416.728 2.797 2.797 0 0 0-.156.962v3.718h-1.131v-6.968h.923l.13 1.274h.052c.139-.26.304-.494.494-.702.2-.217.425-.386.676-.507.252-.13.529-.195.832-.195Zm4.278 0c.564 0 1.049.13 1.456.39.408.26.72.628.936 1.105.226.468.338 1.018.338 1.651v.689h-4.472c.018.788.204 1.391.559 1.807.356.407.854.611 1.495.611.416 0 .785-.039 1.105-.117.33-.087.668-.208 1.014-.364v1.001a4.726 4.726 0 0 1-1.001.338c-.32.078-.71.117-1.17.117-.624 0-1.174-.135-1.651-.403a2.783 2.783 0 0 1-1.118-1.196c-.268-.538-.403-1.192-.403-1.963 0-.763.122-1.417.364-1.963.243-.546.581-.967 1.014-1.261.442-.295.954-.442 1.534-.442Zm0 .936c-.502 0-.901.177-1.196.533-.294.346-.468.832-.52 1.456h3.276c0-.399-.056-.746-.169-1.04a1.44 1.44 0 0 0-.52-.689c-.225-.174-.515-.26-.871-.26Zm11.432-2.223a2.83 2.83 0 0 0-1.235.26 2.476 2.476 0 0 0-.936.741 3.52 3.52 0 0 0-.585 1.183 5.73 5.73 0 0 0-.195 1.56c0 .762.108 1.425.325 1.989.217.563.542.996.975 1.3.442.303.988.455 1.638.455a5.39 5.39 0 0 0 1.079-.104c.347-.07.689-.156 1.027-.26v1.014c-.329.13-.667.225-1.014.286-.347.06-.763.091-1.248.091-.893 0-1.638-.195-2.236-.585-.589-.39-1.031-.945-1.326-1.664-.295-.72-.442-1.565-.442-2.535 0-.702.091-1.344.273-1.924a4.341 4.341 0 0 1 .806-1.508c.355-.425.793-.75 1.313-.975.52-.234 1.118-.351 1.794-.351.442 0 .871.047 1.287.143.416.095.793.229 1.131.403l-.455.988a6.457 6.457 0 0 0-.91-.351 3.522 3.522 0 0 0-1.066-.156Zm9.565 4.888c0 .58-.074 1.096-.221 1.547a3.172 3.172 0 0 1-.611 1.131c-.269.312-.594.55-.975.715a3.338 3.338 0 0 1-1.274.234c-.434 0-.837-.078-1.209-.234a2.85 2.85 0 0 1-.962-.715 3.307 3.307 0 0 1-.624-1.131c-.148-.451-.221-.967-.221-1.547 0-.772.121-1.422.364-1.95.251-.538.606-.945 1.066-1.222.459-.286 1.001-.429 1.625-.429.598 0 1.122.143 1.573.429.459.277.819.684 1.079 1.222.26.528.39 1.178.39 1.95Zm-4.927 0c0 .546.065 1.022.195 1.43.13.398.333.706.611.923.277.216.632.325 1.066.325.433 0 .788-.109 1.066-.325.277-.217.481-.525.611-.923.138-.408.208-.884.208-1.43 0-.555-.07-1.027-.208-1.417-.13-.39-.334-.689-.611-.897-.278-.217-.637-.325-1.079-.325-.65 0-1.123.234-1.417.702-.295.468-.442 1.113-.442 1.937Zm9.806-3.601c.78 0 1.369.203 1.768.611.407.398.611 1.048.611 1.95v4.537h-1.131v-4.459c0-.564-.117-.984-.351-1.261-.234-.278-.594-.416-1.079-.416-.711 0-1.205.216-1.482.65-.269.433-.403 1.057-.403 1.872v3.614h-1.131v-6.968h.91l.169.949h.065c.138-.243.316-.442.533-.598a2.22 2.22 0 0 1 .715-.364c.26-.078.528-.117.806-.117Zm7.592 0c.78 0 1.369.203 1.768.611.407.398.611 1.048.611 1.95v4.537h-1.131v-4.459c0-.564-.117-.984-.351-1.261-.234-.278-.594-.416-1.079-.416-.711 0-1.205.216-1.482.65-.269.433-.403 1.057-.403 1.872v3.614h-1.131v-6.968h.91l.169.949h.065c.138-.243.316-.442.533-.598a2.22 2.22 0 0 1 .715-.364c.26-.078.528-.117.806-.117Zm6.941 0c.564 0 1.049.13 1.456.39.408.26.72.628.936 1.105.226.468.338 1.018.338 1.651v.689h-4.472c.018.788.204 1.391.559 1.807.356.407.854.611 1.495.611.416 0 .785-.039 1.105-.117.33-.087.668-.208 1.014-.364v1.001a4.726 4.726 0 0 1-1.001.338c-.32.078-.71.117-1.17.117-.624 0-1.174-.135-1.651-.403a2.783 2.783 0 0 1-1.118-1.196c-.268-.538-.403-1.192-.403-1.963 0-.763.122-1.417.364-1.963.243-.546.581-.967 1.014-1.261.442-.295.954-.442 1.534-.442Zm0 .936c-.502 0-.901.177-1.196.533-.294.346-.468.832-.52 1.456h3.276c0-.399-.056-.746-.169-1.04a1.44 1.44 0 0 0-.52-.689c-.225-.174-.515-.26-.871-.26Zm7.01 6.292c-.589 0-1.109-.126-1.56-.377-.45-.252-.806-.642-1.066-1.17-.251-.529-.377-1.205-.377-2.028 0-.858.135-1.556.403-2.093.269-.538.633-.932 1.092-1.183a3.292 3.292 0 0 1 1.586-.377c.338 0 .663.039.975.117.321.069.581.156.78.26l-.351.949a6.078 6.078 0 0 0-.702-.221 2.802 2.802 0 0 0-.728-.104c-.424 0-.775.099-1.053.299-.277.199-.485.494-.624.884-.138.39-.208.875-.208 1.456 0 .554.07 1.027.208 1.417.139.39.343.684.611.884.278.199.616.299 1.014.299.356 0 .672-.039.949-.117.278-.078.533-.174.767-.286v1.014a2.92 2.92 0 0 1-.741.273 3.96 3.96 0 0 1-.975.104Zm5.514-.936c.164 0 .333-.013.507-.039.173-.035.316-.07.429-.104v.871c-.122.06-.295.108-.52.143a3.213 3.213 0 0 1-.624.065c-.347 0-.668-.061-.962-.182a1.545 1.545 0 0 1-.715-.663c-.174-.312-.26-.75-.26-1.313v-4.056h-.923v-.546l.949-.455.429-1.482h.676v1.599h1.898v.884h-1.898v4.03c0 .424.095.741.286.949.19.199.433.299.728.299Zm3.376-6.162v6.968h-1.131v-6.968h1.131Zm-.559-2.613c.173 0 .325.06.455.182.13.112.195.294.195.546 0 .242-.065.424-.195.546a.648.648 0 0 1-.455.182.663.663 0 0 1-.468-.182c-.13-.122-.195-.304-.195-.546 0-.252.065-.434.195-.546a.659.659 0 0 1 .468-.182Zm8.347 6.084c0 .58-.073 1.096-.221 1.547a3.142 3.142 0 0 1-.611 1.131c-.268.312-.593.55-.975.715a3.335 3.335 0 0 1-1.274.234c-.433 0-.836-.078-1.209-.234a2.86 2.86 0 0 1-.962-.715 3.341 3.341 0 0 1-.624-1.131 4.988 4.988 0 0 1-.221-1.547c0-.772.122-1.422.364-1.95.252-.538.607-.945 1.066-1.222.46-.286 1.001-.429 1.625-.429.598 0 1.123.143 1.573.429.46.277.819.684 1.079 1.222.26.528.39 1.178.39 1.95Zm-4.927 0c0 .546.065 1.022.195 1.43.13.398.334.706.611.923.278.216.633.325 1.066.325.434 0 .789-.109 1.066-.325.278-.217.481-.525.611-.923.139-.408.208-.884.208-1.43 0-.555-.069-1.027-.208-1.417-.13-.39-.333-.689-.611-.897-.277-.217-.637-.325-1.079-.325-.65 0-1.122.234-1.417.702-.294.468-.442 1.113-.442 1.937Zm9.806-3.601c.78 0 1.37.203 1.768.611.408.398.611 1.048.611 1.95v4.537h-1.131v-4.459c0-.564-.117-.984-.351-1.261-.234-.278-.593-.416-1.079-.416-.71 0-1.204.216-1.482.65-.268.433-.403 1.057-.403 1.872v3.614h-1.131v-6.968h.91l.169.949h.065c.139-.243.317-.442.533-.598a2.23 2.23 0 0 1 .715-.364c.26-.078.529-.117.806-.117Zm8.697 5.174c0 .45-.108.827-.325 1.131-.208.303-.507.533-.897.689-.39.156-.858.234-1.404.234-.459 0-.858-.039-1.196-.117a3.46 3.46 0 0 1-.871-.325v-1.04c.269.138.589.268.962.39.373.112.75.169 1.131.169.529 0 .91-.091 1.144-.273a.912.912 0 0 0 .364-.754.806.806 0 0 0-.143-.468c-.087-.139-.247-.278-.481-.416a6.711 6.711 0 0 0-.988-.468 9.899 9.899 0 0 1-1.079-.52 2.115 2.115 0 0 1-.689-.624c-.156-.243-.234-.555-.234-.936 0-.59.225-1.045.676-1.365.459-.321 1.057-.481 1.794-.481.399 0 .771.043 1.118.13a4.7 4.7 0 0 1 .988.338l-.377.91a4.009 4.009 0 0 0-.572-.221 3.58 3.58 0 0 0-.611-.156 2.823 2.823 0 0 0-.611-.065c-.425 0-.75.078-.975.234a.693.693 0 0 0-.338.611c0 .19.052.355.156.494.104.138.273.273.507.403.243.121.572.264.988.429.416.164.771.333 1.066.507.295.173.516.385.663.637.156.242.234.55.234.923Zm7.414-7.358c.728 0 1.339.073 1.833.221.494.147.867.39 1.118.728.251.338.377.788.377 1.352 0 .364-.065.689-.195.975a1.796 1.796 0 0 1-.546.702 2.175 2.175 0 0 1-.897.377v.065c.364.06.689.173.975.338.295.164.524.398.689.702.173.303.26.697.26 1.183 0 .563-.126 1.044-.377 1.443-.243.39-.589.689-1.04.897-.451.199-.992.299-1.625.299h-3.081v-9.282h2.509Zm.221 3.952c.728 0 1.226-.126 1.495-.377.277-.26.416-.642.416-1.144 0-.512-.169-.876-.507-1.092-.329-.226-.854-.338-1.573-.338h-1.404v2.951h1.573Zm-1.573.975v3.367h1.716c.754 0 1.278-.161 1.573-.481.303-.321.455-.741.455-1.261 0-.33-.069-.616-.208-.858-.13-.243-.347-.429-.65-.559-.303-.139-.719-.208-1.248-.208h-1.638Zm7.791 4.355h-1.131v-9.88h1.131v9.88Zm7.788-3.497c0 .58-.074 1.096-.221 1.547a3.157 3.157 0 0 1-.611 1.131c-.269.312-.594.55-.975.715a3.335 3.335 0 0 1-1.274.234c-.433 0-.836-.078-1.209-.234a2.85 2.85 0 0 1-.962-.715 3.307 3.307 0 0 1-.624-1.131 4.988 4.988 0 0 1-.221-1.547c0-.772.121-1.422.364-1.95.251-.538.607-.945 1.066-1.222.459-.286 1.001-.429 1.625-.429.598 0 1.122.143 1.573.429.459.277.819.684 1.079 1.222.26.528.39 1.178.39 1.95Zm-4.927 0c0 .546.065 1.022.195 1.43.13.398.334.706.611.923.277.216.633.325 1.066.325.433 0 .789-.109 1.066-.325.277-.217.481-.525.611-.923.139-.408.208-.884.208-1.43 0-.555-.069-1.027-.208-1.417-.13-.39-.334-.689-.611-.897-.277-.217-.637-.325-1.079-.325-.65 0-1.122.234-1.417.702-.295.468-.442 1.113-.442 1.937Zm10.911 1.573c0 .45-.108.827-.325 1.131-.208.303-.507.533-.897.689-.39.156-.858.234-1.404.234-.459 0-.858-.039-1.196-.117a3.46 3.46 0 0 1-.871-.325v-1.04c.269.138.589.268.962.39.373.112.75.169 1.131.169.529 0 .91-.091 1.144-.273a.912.912 0 0 0 .364-.754.806.806 0 0 0-.143-.468c-.087-.139-.247-.278-.481-.416a6.711 6.711 0 0 0-.988-.468 9.899 9.899 0 0 1-1.079-.52 2.115 2.115 0 0 1-.689-.624c-.156-.243-.234-.555-.234-.936 0-.59.225-1.045.676-1.365.459-.321 1.057-.481 1.794-.481.399 0 .771.043 1.118.13a4.7 4.7 0 0 1 .988.338l-.377.91a4.009 4.009 0 0 0-.572-.221 3.58 3.58 0 0 0-.611-.156 2.823 2.823 0 0 0-.611-.065c-.425 0-.75.078-.975.234a.693.693 0 0 0-.338.611c0 .19.052.355.156.494.104.138.273.273.507.403.243.121.572.264.988.429.416.164.771.333 1.066.507.295.173.516.385.663.637.156.242.234.55.234.923Zm5.878 0c0 .45-.108.827-.325 1.131-.208.303-.507.533-.897.689-.39.156-.858.234-1.404.234-.459 0-.858-.039-1.196-.117a3.46 3.46 0 0 1-.871-.325v-1.04c.269.138.589.268.962.39.373.112.75.169 1.131.169.529 0 .91-.091 1.144-.273a.912.912 0 0 0 .364-.754.806.806 0 0 0-.143-.468c-.087-.139-.247-.278-.481-.416a6.711 6.711 0 0 0-.988-.468 9.899 9.899 0 0 1-1.079-.52 2.115 2.115 0 0 1-.689-.624c-.156-.243-.234-.555-.234-.936 0-.59.225-1.045.676-1.365.459-.321 1.057-.481 1.794-.481.399 0 .771.043 1.118.13a4.7 4.7 0 0 1 .988.338l-.377.91a4.009 4.009 0 0 0-.572-.221 3.58 3.58 0 0 0-.611-.156 2.823 2.823 0 0 0-.611-.065c-.425 0-.75.078-.975.234a.693.693 0 0 0-.338.611c0 .19.052.355.156.494.104.138.273.273.507.403.243.121.572.264.988.429.416.164.771.333 1.066.507.295.173.516.385.663.637.156.242.234.55.234.923Zm7.308-1.573c0 .58-.074 1.096-.221 1.547a3.157 3.157 0 0 1-.611 1.131c-.269.312-.594.55-.975.715a3.335 3.335 0 0 1-1.274.234c-.433 0-.836-.078-1.209-.234a2.85 2.85 0 0 1-.962-.715 3.307 3.307 0 0 1-.624-1.131 4.988 4.988 0 0 1-.221-1.547c0-.772.121-1.422.364-1.95.251-.538.607-.945 1.066-1.222.459-.286 1.001-.429 1.625-.429.598 0 1.122.143 1.573.429.459.277.819.684 1.079 1.222.26.528.39 1.178.39 1.95Zm-4.927 0c0 .546.065 1.022.195 1.43.13.398.334.706.611.923.277.216.633.325 1.066.325.433 0 .789-.109 1.066-.325.277-.217.481-.525.611-.923.139-.408.208-.884.208-1.43 0-.555-.069-1.027-.208-1.417-.13-.39-.334-.689-.611-.897-.277-.217-.637-.325-1.079-.325-.65 0-1.122.234-1.417.702-.295.468-.442 1.113-.442 1.937Zm13.849-3.601c.745 0 1.3.203 1.664.611.364.398.546 1.048.546 1.95v4.537h-1.118v-4.485c0-.546-.108-.958-.325-1.235-.208-.278-.537-.416-.988-.416-.624 0-1.07.195-1.339.585-.26.39-.39.957-.39 1.703v3.848h-1.131v-4.485c0-.364-.048-.668-.143-.91a1.088 1.088 0 0 0-.429-.559c-.191-.122-.438-.182-.741-.182-.433 0-.776.099-1.027.299-.251.19-.429.472-.533.845-.104.372-.156.832-.156 1.378v3.614h-1.131v-6.968h.91l.169.949h.065c.139-.243.308-.442.507-.598.199-.165.42-.286.663-.364a2.45 2.45 0 0 1 .754-.117c.503 0 .923.095 1.261.286.338.19.585.485.741.884h.078c.217-.399.511-.694.884-.884a2.662 2.662 0 0 1 1.209-.286Z"/></g><defs><clipPath id="a"><path fill="#fff" d="M0 0h1040v441H0z"/></clipPath></defs></svg>