<svg xmlns="http://www.w3.org/2000/svg" width="510" height="255" fill="none"><g clip-path="url(#a)"><path fill="url(#b)" d="M0 0h510v255H0z"/><g filter="url(#c)"><g clip-path="url(#d)"><path fill="#fff" d="M205 39h280.631v15.347H205z"/><path fill="#ED6A5E" fill-rule="evenodd" d="M213.222 48.318a1.644 1.644 0 1 0 .001-3.289 1.644 1.644 0 0 0-.001 3.289Z" clip-rule="evenodd"/><path fill="#F4BF4F" fill-rule="evenodd" d="M218.703 48.318a1.644 1.644 0 1 0 0-3.288 1.644 1.644 0 0 0 0 3.288Z" clip-rule="evenodd"/><path fill="#61C554" fill-rule="evenodd" d="M224.185 48.318a1.645 1.645 0 1 0 0-3.29 1.645 1.645 0 0 0 0 3.29Z" clip-rule="evenodd"/><path fill="#8C8C8C" fill-rule="evenodd" d="M236.296 44.497a.194.194 0 0 1 .037.055.185.185 0 0 1 .013.066.184.184 0 0 1-.013.066.194.194 0 0 1-.037.055l-1.935 1.934 1.935 1.934a.172.172 0 0 1-.243.243l-2.055-2.056a.179.179 0 0 1-.038-.055.184.184 0 0 1-.013-.066.18.18 0 0 1 .013-.065.179.179 0 0 1 .038-.056l2.055-2.055a.172.172 0 0 1 .243 0Z" clip-rule="evenodd"/><path fill="#000" fill-opacity=".1" fill-rule="evenodd" d="M242.767 44.497a.172.172 0 0 1 .243 0l2.055 2.055a.16.16 0 0 1 .037.056.16.16 0 0 1 .013.065.164.164 0 0 1-.013.066.16.16 0 0 1-.037.056l-2.055 2.055a.171.171 0 1 1-.243-.242l1.935-1.935-1.935-1.934a.176.176 0 0 1-.05-.121.176.176 0 0 1 .05-.121Z" clip-rule="evenodd"/><path stroke="#000" stroke-opacity=".1" stroke-width=".017" d="m242.768 44.738 1.927 1.929.013.013-1.935 1.933a.165.165 0 0 0 0 .23.164.164 0 0 0 .231 0l2.055-2.055a.164.164 0 0 0 .036-.053.166.166 0 0 0 .011-.062.162.162 0 0 0-.011-.062.168.168 0 0 0-.036-.053l-2.055-2.055a.163.163 0 0 0-.053-.036.163.163 0 0 0-.062-.012.166.166 0 0 0-.063.012.174.174 0 0 0-.089.089.166.166 0 0 0-.011.062.17.17 0 0 0 .011.063c.008.018.02.035.034.05m-.003.007.005-.005m-.005.005.005-.005m-.005.005h-.001a.187.187 0 0 1-.027-.039l.031.032m.002.002 1.814 1.813-1.816-1.816m.002.003-.002-.002"/><path fill="#F1F1F1" d="M288.861 46.345c0-1.228 0-1.842.239-2.311a2.19 2.19 0 0 1 .958-.958c.469-.24 1.083-.24 2.311-.24h124.53c1.228 0 1.842 0 2.311.24.412.21.748.545.958.958.239.469.239 1.083.239 2.31v.658c0 1.228 0 1.842-.239 2.311-.21.413-.546.748-.958.959-.469.238-1.083.238-2.311.238h-124.53c-1.228 0-1.842 0-2.311-.238a2.194 2.194 0 0 1-.958-.959c-.239-.469-.239-1.083-.239-2.31v-.658Z"/><path fill="#151515" d="M341.862 47.674v-2.591h.299v.956h.025c.022-.034.052-.077.091-.129a.53.53 0 0 1 .17-.141.607.607 0 0 1 .301-.064.768.768 0 0 1 .725.47c.07.151.105.328.105.532 0 .206-.035.384-.105.535a.761.761 0 0 1-.72.472.622.622 0 0 1-.3-.062.55.55 0 0 1-.173-.143 1.784 1.784 0 0 1-.094-.134h-.035v.299h-.289Zm.294-.972c0 .147.021.276.064.389a.585.585 0 0 0 .189.261.486.486 0 0 0 .303.094.491.491 0 0 0 .313-.099.613.613 0 0 0 .19-.268c.043-.113.064-.239.064-.377 0-.136-.021-.26-.063-.37a.572.572 0 0 0-.189-.261.495.495 0 0 0-.315-.097.499.499 0 0 0-.493.347 1.054 1.054 0 0 0-.063.381Zm3.255-.536-.268.076a.5.5 0 0 0-.075-.13.36.36 0 0 0-.132-.107.474.474 0 0 0-.213-.042.514.514 0 0 0-.298.083.24.24 0 0 0-.117.206c0 .074.027.133.081.176a.673.673 0 0 0 .253.107l.288.071a.793.793 0 0 1 .388.194.45.45 0 0 1 .128.332.494.494 0 0 1-.096.299.636.636 0 0 1-.266.207.966.966 0 0 1-.397.076.874.874 0 0 1-.492-.129.574.574 0 0 1-.247-.377l.284-.07a.394.394 0 0 0 .153.235.514.514 0 0 0 .297.078c.139 0 .25-.03.332-.088.082-.06.124-.132.124-.215a.227.227 0 0 0-.071-.17.457.457 0 0 0-.218-.104l-.324-.076c-.178-.042-.308-.107-.392-.196a.473.473 0 0 1-.124-.335c0-.11.031-.207.092-.291a.635.635 0 0 1 .255-.199.892.892 0 0 1 .367-.072c.192 0 .343.042.453.127.11.084.188.195.235.334Zm1.33-.435v.253h-1.007v-.254h1.007Zm-.714-.466h.299v1.852a.38.38 0 0 0 .037.19c.025.041.057.07.096.083.039.014.081.02.125.02a.524.524 0 0 0 .132-.014l.06.268a.62.62 0 0 1-.47-.019.486.486 0 0 1-.2-.166.471.471 0 0 1-.079-.28v-1.934Zm1.932 2.45a.846.846 0 0 1-.462-.126.847.847 0 0 1-.309-.35 1.19 1.19 0 0 1-.11-.527c0-.202.037-.379.11-.53a.845.845 0 0 1 .309-.352.846.846 0 0 1 .462-.125c.175 0 .328.042.46.126a.84.84 0 0 1 .309.351c.074.151.111.328.111.53 0 .201-.037.377-.111.527a.847.847 0 0 1-.309.35.841.841 0 0 1-.46.125Zm0-.269a.51.51 0 0 0 .328-.102.603.603 0 0 0 .192-.27c.041-.111.062-.232.062-.362 0-.13-.021-.25-.062-.363a.612.612 0 0 0-.192-.272.506.506 0 0 0-.328-.103.507.507 0 0 0-.329.103.61.61 0 0 0-.191.272 1.027 1.027 0 0 0-.062.363c0 .13.02.25.062.362a.601.601 0 0 0 .191.27.511.511 0 0 0 .329.102Zm2.125.268a.838.838 0 0 1-.47-.129.84.84 0 0 1-.304-.355 1.203 1.203 0 0 1-.106-.518c0-.197.036-.371.109-.522a.82.82 0 0 1 .766-.485c.137 0 .26.025.37.076.109.05.199.122.269.213.07.09.114.197.13.319h-.298a.461.461 0 0 0-.466-.34.526.526 0 0 0-.306.092.594.594 0 0 0-.204.254.944.944 0 0 0-.072.383c0 .15.024.281.071.392a.6.6 0 0 0 .203.26.52.52 0 0 0 .308.092.538.538 0 0 0 .212-.04.437.437 0 0 0 .254-.299h.298a.678.678 0 0 1-.125.31.7.7 0 0 1-.262.218.843.843 0 0 1-.377.08Zm1.479-.749-.005-.37h.061l.85-.864h.37l-.906.916h-.026l-.344.318Zm-.278.709v-2.591h.299v2.59h-.299Zm1.235 0-.759-.962.212-.207.926 1.169h-.379Zm.92.02a.219.219 0 0 1-.16-.067.218.218 0 0 1-.067-.16c0-.063.022-.117.067-.161a.219.219 0 0 1 .16-.067.22.22 0 0 1 .161.067.218.218 0 0 1 .067.16c0 .042-.01.08-.031.114a.241.241 0 0 1-.083.084.214.214 0 0 1-.114.03Zm1.553.02a.838.838 0 0 1-.47-.129.84.84 0 0 1-.304-.355 1.203 1.203 0 0 1-.106-.518c0-.197.036-.371.109-.522a.82.82 0 0 1 .766-.485c.137 0 .26.025.37.076.109.05.199.122.269.213a.66.66 0 0 1 .131.319h-.299a.461.461 0 0 0-.466-.34.526.526 0 0 0-.306.092.592.592 0 0 0-.203.254.944.944 0 0 0-.072.383c0 .15.023.281.07.392a.6.6 0 0 0 .203.26.52.52 0 0 0 .308.092.534.534 0 0 0 .212-.04.429.429 0 0 0 .254-.299h.299a.69.69 0 0 1-.388.528.84.84 0 0 1-.377.08Zm1.991 0a.846.846 0 0 1-.462-.125.847.847 0 0 1-.309-.35 1.19 1.19 0 0 1-.11-.527c0-.202.037-.379.11-.53a.845.845 0 0 1 .309-.352.846.846 0 0 1 .462-.125c.175 0 .329.042.46.126.133.083.235.2.309.351.074.151.111.328.111.53 0 .201-.037.377-.111.527a.84.84 0 0 1-.309.35.839.839 0 0 1-.46.125Zm0-.268a.515.515 0 0 0 .329-.102.61.61 0 0 0 .191-.27c.041-.111.062-.232.062-.362 0-.13-.021-.25-.062-.363a.618.618 0 0 0-.191-.272.51.51 0 0 0-.329-.103.507.507 0 0 0-.329.103.61.61 0 0 0-.191.272 1.027 1.027 0 0 0-.062.363c0 .13.02.25.062.362a.601.601 0 0 0 .191.27.511.511 0 0 0 .329.102Zm1.336.228V45.73h.288v.304h.026a.487.487 0 0 1 .196-.242.585.585 0 0 1 .325-.087c.128 0 .235.03.32.087a.57.57 0 0 1 .201.242h.02a.57.57 0 0 1 .224-.239c.1-.06.219-.09.358-.09.174 0 .316.055.427.163.11.108.165.277.165.505v1.3h-.298v-1.3c0-.143-.039-.246-.118-.307a.435.435 0 0 0-.277-.093.407.407 0 0 0-.317.124.443.443 0 0 0-.113.312v1.265h-.304v-1.331c0-.11-.035-.2-.107-.267a.386.386 0 0 0-.277-.102c-.078 0-.15.02-.218.061a.48.48 0 0 0-.223.424v1.215h-.298Z"/><g fill="#8C8C8C" fill-rule="evenodd" clip-path="url(#e)" clip-rule="evenodd"><path d="M414.7 46.32a1.366 1.366 0 0 1 1.36-1.016c.204.005.404.057.586.15a.138.138 0 0 0 .151-.019.133.133 0 0 0 .048-.093.137.137 0 0 0-.074-.133 1.644 1.644 0 1 0 .747.78.137.137 0 1 0-.249.114 1.376 1.376 0 0 1-.063 1.262 1.36 1.36 0 0 1-1.068.674 1.368 1.368 0 0 1-1.453-1.07 1.375 1.375 0 0 1 .015-.65Z"/><path d="M416.064 44.522a.135.135 0 0 1 .193 0l.686.685a.149.149 0 0 1 .04.097.149.149 0 0 1-.04.097l-.686.685a.125.125 0 0 1-.044.03.138.138 0 0 1-.19-.127.135.135 0 0 1 .041-.097l.588-.588-.588-.588a.136.136 0 0 1-.03-.15.134.134 0 0 1 .03-.044Z"/></g><g fill="#8C8C8C" fill-rule="evenodd" clip-path="url(#f)" clip-rule="evenodd"><path d="M464.203 45.425a.168.168 0 0 0 .121.05.176.176 0 0 0 .066-.013.179.179 0 0 0 .055-.037l.907-.907.906.907a.172.172 0 0 0 .243-.243l-1.028-1.028a.172.172 0 0 0-.243 0l-1.027 1.028a.179.179 0 0 0-.038.056.185.185 0 0 0-.013.065c0 .023.005.045.013.066.009.02.022.04.038.056Z"/><path d="M465.351 47.872a.172.172 0 0 0 .171-.17v-3.084a.172.172 0 0 0-.171-.171.172.172 0 0 0-.171.171v3.083a.172.172 0 0 0 .171.171Z"/><path d="M463.467 48.73a.515.515 0 0 0 .514.513h2.74a.517.517 0 0 0 .514-.514v-2.398a.515.515 0 0 0-.514-.514h-.514a.171.171 0 0 0 0 .343h.514a.17.17 0 0 1 .171.171v2.398a.172.172 0 0 1-.171.172h-2.74a.17.17 0 0 1-.121-.05.168.168 0 0 1-.051-.122v-2.398c0-.045.018-.089.051-.12a.17.17 0 0 1 .121-.051h.513a.172.172 0 1 0 0-.343h-.513a.515.515 0 0 0-.514.514v2.398Z"/></g><path fill="#8C8C8C" d="M476.312 44.824a.207.207 0 0 1 .207.205v1.44h1.439c.054 0 .106.021.145.06a.206.206 0 0 1-.145.35h-1.439v1.439a.208.208 0 0 1-.06.145.207.207 0 0 1-.352-.145v-1.439h-1.438a.207.207 0 0 1-.206-.206c0-.054.022-.107.06-.145a.21.21 0 0 1 .146-.06h1.438v-1.44a.211.211 0 0 1 .061-.144.204.204 0 0 1 .144-.06Z"/><path stroke="#000" stroke-opacity=".1" stroke-width=".274" d="M205 54.21h280.631"/><path fill="url(#g)" d="M0 0h280.631v174.939H0z" transform="translate(205 54.347)"/><path fill="#fff" d="M250.738 120.703h186.951v42.609H250.738z"/><path fill="#284D99" d="M254.559 120.816c.045 0 9.414.023 36.699.023v16.133l.581 1.008c1.019 1.127 2.157 2.142 3.374 3.321l-.003.002.002.002c-.494.486-3.33 3.315-3.409 3.403-.225.25-.423.583-.545.928v17.505l-36.7-.079c-.01.001-.097.005-.241.003l-.051-.001a4.742 4.742 0 0 1-.24-.012l-.035-.002a5.203 5.203 0 0 1-.816-.132c-.054-.013-.108-.028-.162-.043l-.048-.014a4.04 4.04 0 0 1-.444-.162l-.016-.008a3.189 3.189 0 0 1-.404-.211l-.059-.035a3.855 3.855 0 0 1-.168-.116c-.011-.009-.023-.015-.034-.024a2.24 2.24 0 0 1-.152-.125c-.014-.011-.026-.024-.04-.036-.041-.038-.082-.076-.122-.117l-.027-.028a2.806 2.806 0 0 1-.382-.507l-.042-.075-.013-.022-.085-.172c-.013-.027-.022-.054-.034-.082a3.391 3.391 0 0 1-.09-.245l-.027-.087a5.174 5.174 0 0 1-.041-.147l-.021-.096a3.793 3.793 0 0 1-.052-.299c-.004-.026-.009-.052-.012-.079a4.952 4.952 0 0 1-.029-.755v-34.821c-.003-.021-.565-3.796 3.888-3.796Z"/><path fill="#0E2954" d="M357.444 126.17c4.816-1.645 9.719-1.649 14.46.31 3.185 1.315 4.911 3.788 4.836 7.405-.016.689-.023 1.374-.027 2.063-.012 2.064.016 4.127.016 6.191 0 2.059-.024 4.126-.02 6.189.004.689.012 1.375.027 2.064.083 3.704-1.671 6.226-4.969 7.52-4.974 1.952-10.056 1.963-15.026-.028-3.267-1.307-4.918-3.852-4.894-7.477.035-5.365.007-10.726.007-16.088 0-4.222 1.62-6.795 5.59-8.149Zm29.748-.12c4.342-1.418 8.767-1.418 13.105.059 3.481 1.183 5.255 3.733 5.409 7.453.15 3.577.111 3.645-3.401 3.645-.968 0-1.937.024-2.901-.012-1.114-.044-1.532-.427-1.512-1.538.023-1.477-.155-2.848-1.68-3.485-1.758-.737-3.564-.764-5.263.22-.794.458-1.2 1.235-1.2 2.174-.008 5.043-.012 10.09 0 15.136.004 1.247.64 2.111 1.77 2.566 1.359.549 2.757.565 4.152.135 1.474-.454 2.177-1.434 2.205-3.015.051-2.956.051-2.955 2.998-2.955 1.138 0 2.284-.061 3.414.035.431.036 1.054.347 1.2.701 1.344 3.194-.319 8.489-3.365 10.13-1.632.88-3.509 1.473-5.342 1.76-2.967.462-5.974.327-8.905-.526-3.532-1.023-6.357-3.525-6.195-8.214.091-2.708.016-5.429.016-8.141v-8.249c0-4.015 1.703-6.64 5.495-7.879Zm-81.889.08c4.59-1.545 9.232-1.609 13.728.299 4.208 1.784 4.892 5.528 4.378 9.36-.047.351-.743.852-1.158.876-1.754.1-3.52.06-5.278.036-.774-.012-1.15-.419-1.205-1.243-.226-3.433-1.893-4.636-5.306-3.887-1.537.339-2.296 1.227-2.406 2.816-.115 1.633.364 2.342 2.019 2.924 2.371.828 4.741 1.661 7.127 2.45 5.903 1.948 7.084 5.285 6.808 10.726-.289 5.585-3.683 7.496-7.412 8.273-3.979.828-7.949.825-11.805-.633-3.331-1.259-5.195-3.673-5.271-7.333-.027-1.179.04-2.362.08-3.541.023-.729.434-1.056 1.137-1.052h5.491c.672 0 1.024.359 1.047 1.024.024.764.009 1.53.036 2.295.068 1.835.858 2.867 2.655 3.182.999.175 2.071.227 3.066.064 2.303-.383 3.114-1.395 2.936-3.713-.056-.701-.51-1.517-1.035-1.995-.644-.582-1.529-.925-2.355-1.255-2.173-.869-4.342-1.769-6.57-2.482-4.816-1.537-6.124-5.17-5.856-9.544.036-.553.083-1.111.178-1.657.506-2.959 2.146-5.038 4.971-5.99Zm124.215-.646c1.473.116 2.966.013 4.452.029 1.244.012 1.497.43.83 1.525-2.039 3.346-4.114 6.676-6.176 10.01-.802 1.298-1.572 2.617-2.43 3.88-.45.661-.478 1.131.004 1.832 3.165 4.6 6.283 9.237 9.38 13.886.344.517.494 1.166.734 1.755-.64.156-1.275.419-1.919.443-1.656.063-3.319-.044-4.97.044-1.395.071-2.245-.569-2.952-1.693-2.343-3.732-4.729-7.437-7.112-11.141-.189-.299-.485-.526-.73-.784-.091.051-.182.107-.273.159v1.115c0 3.553.004 7.102-.003 10.655-.004 1.342-.309 1.644-1.66 1.656-1.552.012-3.109.012-4.662 0-1.315-.011-1.655-.35-1.715-1.656-.011-.207-.004-.415-.004-.626.001-9.607 0-19.218.004-28.83 0-.382.013-.765.06-1.143.095-.729.493-1.099 1.252-1.091 1.691.016 3.386-.008 5.077 0 1.379.008 1.644.262 1.648 1.637.007 3.724.003 7.452.003 11.176v1.096c.099.04.202.076.3.111.233-.286.506-.549.696-.864 2.208-3.692 4.44-7.369 6.586-11.098.829-1.445 1.857-2.218 3.58-2.083Zm-102.273.013c6.831.024 13.666.008 20.501.016 1.209.004 1.402.211 1.422 1.393.016 1.183.016 2.367.004 3.55-.012 1.306-.225 1.541-1.497 1.557-1.723.02-3.453.04-5.176-.008-.766-.024-1.015.219-1.007 1.004.036 4.075.016 8.146.016 12.217 0 3.827.004 7.655 0 11.483 0 2-.159 2.151-2.099 2.151-1.418 0-2.833.012-4.247-.004-1.272-.016-1.596-.311-1.647-1.593-.048-1.147-.016-2.299-.016-3.446v-20.462c0-1.334-.004-1.334-1.367-1.334-1.624 0-3.248-.028-4.867.008-1.02.02-1.466-.498-1.49-1.442a88.918 88.918 0 0 1-.004-3.652c.016-.952.447-1.442 1.474-1.438Zm39.67 6.688c-1.454-.634-2.964-.654-4.461-.276-1.845.466-2.552 1.458-2.552 3.374v6.895c0 2.406.016 4.808-.004 7.21-.011 1.398.656 2.322 1.888 2.824 1.667.677 3.375.661 5.042-.004 1.197-.478 1.888-1.386 1.888-2.725.008-4.875.008-9.751 0-14.627-.004-1.282-.644-2.166-1.801-2.671Z"/><path fill="#0E2954" d="M443.583 122.962c-.008-1.071-.474-2.258-1.055-3.178-1.208-1.916-3.188-2.386-5.325-2.386-61.12.004-122.243.004-183.362.004-.277 0-.553-.012-.83.004-3.445.187-5.697 2.406-5.709 5.867a8472.812 8472.812 0 0 0-.008 37.39c.004 3.868 3.106 5.828 5.919 5.824 30.769-.052 61.534-.032 92.303-.032h92.512c3.122 0 5.595-2.39 5.599-5.473.008-12.678.027-25.349-.044-38.02Zm-3.267 6.836v30.184c0 2.326-.814 3.163-3.09 3.163-48.31 0-96.621-.112-144.932-.088h-37.73s-4.03.291-3.888-3.628v-34.822s-.577-3.796 3.888-3.796c0 0 92.528.024 119.876.024h62.368c.241 0 .482-.004.727 0 1.943.032 2.773.853 2.785 2.8.008 2.056-.004 4.111-.004 6.163Z"/><path fill="#fff" d="M291.839 137.956c1.019 1.127 2.157 2.143 3.374 3.322-.494.486-3.331 3.314-3.41 3.401a2.863 2.863 0 0 0-.545.932v17.53l145.967.008c2.276 0 3.09-.836 3.09-3.162v-30.185c0-2.055.008-4.107-.004-6.162-.012-1.944-.842-2.764-2.785-2.8-.241-.004-.482 0-.727 0h-62.368c-27.352 0-55.829.008-83.181-.024v16.136l.589 1.004Zm32.167 12.527c-.288 5.584-3.682 7.496-7.411 8.273-3.979.828-7.949.825-11.806-.633-3.326-1.259-5.195-3.673-5.27-7.333-.024-1.179.044-2.362.079-3.542.024-.728.435-1.055 1.138-1.051.897.004 1.794 0 2.694 0 .933 0 1.865 0 2.798.004.671 0 1.023.358 1.047 1.024.027.764.007 1.529.035 2.294.067 1.832.857 2.864 2.655 3.183 1 .175 2.07.227 3.066.063 2.303-.382 3.113-1.394 2.935-3.712-.055-.701-.505-1.522-1.035-1.996-.64-.581-1.529-.924-2.354-1.254-2.177-.869-4.346-1.769-6.571-2.482-4.816-1.537-6.123-5.17-5.855-9.544.036-.553.083-1.111.178-1.657.506-2.963 2.145-5.038 4.97-5.99 4.595-1.55 9.237-1.614 13.729.298 4.208 1.789 4.887 5.533 4.378 9.361-.048.35-.739.852-1.158.876-1.754.1-3.52.056-5.278.036-.774-.008-1.15-.414-1.205-1.243-.225-3.433-1.893-4.636-5.306-3.887-1.537.338-2.295 1.222-2.406 2.816-.115 1.633.359 2.342 2.019 2.923 2.37.829 4.741 1.661 7.127 2.45 5.907 1.948 7.088 5.286 6.807 10.723Zm25.163-20.028c-.012 1.307-.225 1.542-1.497 1.558-1.727.02-3.453.04-5.176-.008-.766-.02-1.015.223-1.007 1.004.035 4.07.016 8.141.016 12.216 0 3.828.004 7.656 0 11.484-.004 1.999-.158 2.151-2.098 2.151-1.415 0-2.829.011-4.247-.004-1.273-.016-1.597-.311-1.648-1.594-.043-1.147-.016-2.298-.016-3.445v-20.462c0-1.334-.004-1.334-1.367-1.334-1.624 0-3.243-.028-4.867.008-1.019.024-1.466-.494-1.49-1.442a96.717 96.717 0 0 1-.004-3.653c.016-.952.447-1.442 1.474-1.438 6.835.024 13.67.008 20.501.016 1.209 0 1.402.207 1.418 1.394.02 1.183.016 2.366.008 3.549Zm22.603 27.453c-4.974 1.951-10.055 1.963-15.025-.028-3.267-1.311-4.923-3.856-4.895-7.477.035-5.361.008-10.723.008-16.088 0-4.222 1.62-6.791 5.59-8.15 4.816-1.645 9.719-1.649 14.46.311 3.185 1.315 4.911 3.792 4.836 7.405-.016.689-.024 1.374-.028 2.063-.012 2.063.016 4.127.016 6.19 0 2.063-.028 4.127-.016 6.19.004.689.012 1.374.028 2.063.079 3.705-1.675 6.226-4.974 7.521Zm30.354-.614c-1.632.88-3.508 1.474-5.341 1.761-2.967.466-5.978.326-8.906-.526-3.532-1.028-6.356-3.525-6.194-8.213.094-2.713.015-5.43.015-8.142v-8.249c0-4.015 1.707-6.64 5.496-7.879 4.338-1.418 8.767-1.414 13.105.06 3.477 1.183 5.25 3.736 5.409 7.452.15 3.577.11 3.645-3.402 3.645-.968 0-1.932.028-2.9-.012-1.114-.044-1.533-.426-1.513-1.538.023-1.477-.154-2.852-1.679-3.485-1.762-.737-3.564-.765-5.263.219-.794.458-1.201 1.235-1.201 2.175-.008 5.047-.008 10.093 0 15.136.004 1.247.64 2.111 1.77 2.565 1.359.55 2.758.566 4.152.136 1.474-.454 2.177-1.434 2.205-3.016.051-2.955.051-2.955 2.999-2.955 1.137 0 2.283-.064 3.413.036.427.036 1.055.346 1.201.697 1.343 3.198-.32 8.492-3.366 10.133Zm32.27 1.546c-1.655.063-3.318-.044-4.97.043-1.394.076-2.244-.569-2.951-1.692-2.347-3.729-4.729-7.433-7.111-11.141-.19-.295-.486-.526-.731-.785l-.273.159v1.115c0 3.554.004 7.103-.004 10.656-.004 1.346-.308 1.645-1.659 1.657-1.553.016-3.11.012-4.662 0-1.316-.012-1.656-.351-1.715-1.657-.008-.208-.004-.419-.004-.626 0-9.611 0-19.223.004-28.83 0-.383.012-.765.059-1.143.095-.725.494-1.1 1.253-1.092 1.691.016 3.386-.008 5.077 0 1.378.004 1.647.263 1.647 1.637.008 3.725.004 7.453.004 11.177v1.096c.099.035.202.071.3.111.233-.287.51-.55.696-.864 2.208-3.693 4.44-7.369 6.586-11.098.829-1.441 1.857-2.214 3.579-2.083 1.478.116 2.967.012 4.453.028 1.248.012 1.497.43.829 1.526-2.038 3.35-4.112 6.676-6.175 10.01-.802 1.298-1.576 2.616-2.429 3.879-.451.665-.479 1.131.003 1.832 3.165 4.601 6.282 9.237 9.384 13.882.347.518.497 1.167.735 1.757-.644.159-1.277.422-1.925.446Z"/><path fill="#FCFCFC" d="M279.26 141.6c-.17-.092-.336-.191-.486-.275.715-.88 1.493-1.657 2.058-2.565 1.036-1.669.858-3.585.814-5.449-.063-2.824-1.323-4.955-3.773-6.326-2.137-1.195-4.488-1.657-6.894-1.708-3.552-.076-7.107-.02-10.663-.02-1.79 0-2.197.398-2.197 2.17v29.44c0 1.793.541 2.335 2.359 2.339 3.315.007 6.629.067 9.94-.032 1.841-.056 3.702-.247 5.5-.63 2.955-.625 5.519-1.975 6.728-5.003.881-2.206.814-4.533.529-6.855-.304-2.469-1.849-3.983-3.915-5.086Zm-12.512-9.421c1.422 0 2.84-.179 4.196.044 1.955.315 2.769 1.928 2.188 3.876-.478 1.601-1.548 2.462-3.231 2.525-.996.04-1.996.008-3.153.008v-6.453Zm8.138 16.662c-.075 1.952-1.185 3.107-3.109 3.354-.509.064-1.031.028-1.549.028-1.13.004-2.255 0-3.476 0v-6.887c1.9 0 3.67-.171 5.393.044 2.259.283 2.805 1.868 2.741 3.461Z"/></g><rect width="280.631" height="190.467" x="205" y="39" stroke="#000" stroke-opacity=".1" stroke-width=".274" rx="4.385"/></g><path fill="#EBEBEB" d="M25.414 77v-8.792h3.29c.644 0 1.178.107 1.603.322.425.21.742.49.952.84.21.345.315.723.315 1.134 0 .504-.14.943-.42 1.316-.275.369-.69.62-1.246.756.36.056.674.184.945.385.275.196.49.439.644.728.154.285.231.59.231.917 0 .299-.051.59-.154.875a1.97 1.97 0 0 1-.497.77c-.233.229-.544.41-.931.546-.387.135-.868.203-1.442.203h-3.29Zm1.092-.952h2.184c.667 0 1.146-.14 1.435-.42.294-.28.441-.64.441-1.078 0-.443-.159-.798-.476-1.064-.317-.27-.784-.406-1.4-.406h-2.184v2.968Zm0-6.902v2.996h2.156c.546 0 .98-.133 1.302-.399.327-.27.49-.651.49-1.141 0-.457-.159-.814-.476-1.071-.313-.257-.747-.385-1.302-.385h-2.17Zm6.721 4.256v-.952h3.808v.952h-3.808Zm8.564 3.766a4.063 4.063 0 0 1-1.617-.315 2.819 2.819 0 0 1-1.184-.945c-.298-.415-.452-.929-.462-1.54h1.065c0 .41.1.749.3 1.015.201.261.467.457.798.588.332.126.694.189 1.085.189.425 0 .794-.068 1.106-.203.313-.135.553-.313.721-.532.173-.224.26-.469.26-.735 0-.373-.115-.674-.343-.903-.23-.233-.568-.422-1.016-.567l-1.553-.546c-.729-.261-1.28-.56-1.653-.896-.373-.336-.56-.807-.56-1.414 0-.681.262-1.237.785-1.666.527-.43 1.273-.644 2.24-.644.895 0 1.596.208 2.1.623.504.41.793.964.867 1.659h-1.077a1.406 1.406 0 0 0-.575-.945c-.308-.229-.746-.343-1.316-.343-.578 0-1.029.128-1.35.385-.322.257-.483.581-.483.973 0 .322.1.579.3.77.206.187.526.355.96.504l1.82.63c.63.21 1.127.504 1.49.882.37.378.553.868.553 1.47 0 .467-.126.889-.377 1.267-.248.378-.614.679-1.1.903-.485.224-1.08.336-1.785.336Zm4.318-8.022v-.938h6.846v.938h-3.129l.245-.252V77H48.98v-8.106l.245.252H46.11Zm11.452 8.022c-.728 0-1.379-.168-1.953-.504-.574-.336-1.027-.84-1.358-1.512-.331-.677-.497-1.521-.497-2.534 0-1.027.166-1.876.497-2.548.331-.677.784-1.18 1.358-1.512.574-.336 1.225-.504 1.953-.504s1.38.168 1.953.504c.574.336 1.027.842 1.358 1.519.331.677.497 1.524.497 2.541 0 1.022-.166 1.871-.497 2.548-.331.672-.784 1.174-1.358 1.505-.574.331-1.225.497-1.953.497Zm0-1.008c.826 0 1.477-.301 1.953-.903.48-.602.721-1.486.721-2.653 0-1.143-.24-2.023-.72-2.639-.477-.62-1.128-.931-1.954-.931-.817 0-1.468.31-1.953.931-.48.62-.72 1.505-.72 2.653 0 1.162.24 2.044.72 2.646.485.597 1.136.896 1.953.896Zm8.981 1.008c-.775 0-1.442-.194-2.002-.581-.56-.392-.992-.933-1.295-1.624-.303-.695-.455-1.5-.455-2.415 0-.975.163-1.797.49-2.464.331-.667.78-1.171 1.344-1.512a3.625 3.625 0 0 1 1.918-.518c.938 0 1.692.236 2.261.707.574.467.969 1.076 1.183 1.827l-1.176.238c-.182-.546-.474-.98-.875-1.302a2.125 2.125 0 0 0-1.393-.49 2.23 2.23 0 0 0-1.28.399c-.388.261-.7.653-.939 1.176-.238.523-.357 1.169-.357 1.939 0 .7.093 1.323.28 1.869.192.546.476.975.854 1.288.383.313.864.469 1.442.469.695 0 1.246-.187 1.652-.56.41-.373.616-.863.616-1.47H70c0 .63-.144 1.171-.434 1.624-.29.448-.695.793-1.218 1.036-.518.243-1.12.364-1.806.364Zm10.588-8.96h1.512l-5.614 5.782v-1.54l4.102-4.242Zm-2.52 3.71L78.88 77h-1.428l-3.626-4.368.784-.714Zm-2.534-3.71h1.106V77h-1.106v-8.792Zm14.64 8.96a4.063 4.063 0 0 1-1.617-.315 2.818 2.818 0 0 1-1.183-.945c-.298-.415-.452-.929-.462-1.54h1.064c0 .41.1.749.301 1.015.2.261.467.457.798.588.332.126.693.189 1.085.189.425 0 .794-.068 1.106-.203.313-.135.553-.313.721-.532.173-.224.26-.469.26-.735 0-.373-.115-.674-.344-.903-.228-.233-.567-.422-1.015-.567l-1.554-.546c-.728-.261-1.278-.56-1.652-.896-.373-.336-.56-.807-.56-1.414 0-.681.262-1.237.784-1.666.528-.43 1.274-.644 2.24-.644.896 0 1.596.208 2.1.623.504.41.794.964.868 1.659h-1.078a1.406 1.406 0 0 0-.574-.945c-.308-.229-.746-.343-1.316-.343-.578 0-1.029.128-1.35.385-.323.257-.484.581-.484.973 0 .322.1.579.301.77.206.187.525.355.96.504l1.82.63c.63.21 1.126.504 1.49.882.369.378.553.868.553 1.47 0 .467-.126.889-.378 1.267-.247.378-.613.679-1.099.903-.485.224-1.08.336-1.785.336Zm8.757 0c-.728 0-1.379-.168-1.953-.504-.574-.336-1.026-.84-1.358-1.512-.331-.677-.497-1.521-.497-2.534 0-1.027.166-1.876.497-2.548.331-.677.784-1.18 1.358-1.512.574-.336 1.225-.504 1.953-.504s1.38.168 1.953.504c.574.336 1.027.842 1.358 1.519.331.677.497 1.524.497 2.541 0 1.022-.166 1.871-.497 2.548-.331.672-.784 1.174-1.358 1.505-.574.331-1.225.497-1.953.497Zm0-1.008c.826 0 1.477-.301 1.953-.903.48-.602.721-1.486.721-2.653 0-1.143-.24-2.023-.72-2.639-.477-.62-1.128-.931-1.954-.931-.817 0-1.468.31-1.953.931-.48.62-.72 1.505-.72 2.653 0 1.162.24 2.044.72 2.646.486.597 1.136.896 1.953.896Zm7.021-7.952v7.84h3.92V77h-5.012v-8.792h1.092Zm5.261 0h1.092v5.614c0 .826.208 1.423.623 1.792.415.364.959.546 1.631.546.667 0 1.206-.182 1.617-.546.415-.369.623-.966.623-1.792v-5.614h1.092v5.614c0 .737-.138 1.356-.413 1.855a2.654 2.654 0 0 1-1.155 1.12c-.499.247-1.087.371-1.764.371s-1.267-.124-1.771-.371a2.691 2.691 0 0 1-1.162-1.12c-.275-.5-.413-1.118-.413-1.855v-5.614Zm8.013.938v-.938h6.846v.938h-3.129l.245-.252V77h-1.092v-8.106l.245.252h-3.115ZM124.111 77v-8.792h1.092V77h-1.092Zm7.032.168c-.728 0-1.379-.168-1.953-.504-.574-.336-1.027-.84-1.358-1.512-.331-.677-.497-1.521-.497-2.534 0-1.027.166-1.876.497-2.548.331-.677.784-1.18 1.358-1.512.574-.336 1.225-.504 1.953-.504s1.379.168 1.953.504c.574.336 1.027.842 1.358 1.519.331.677.497 1.524.497 2.541 0 1.022-.166 1.871-.497 2.548-.331.672-.784 1.174-1.358 1.505-.574.331-1.225.497-1.953.497Zm0-1.008c.826 0 1.477-.301 1.953-.903.481-.602.721-1.486.721-2.653 0-1.143-.24-2.023-.721-2.639-.476-.62-1.127-.931-1.953-.931-.817 0-1.468.31-1.953.931-.481.62-.721 1.505-.721 2.653 0 1.162.24 2.044.721 2.646.485.597 1.136.896 1.953.896Zm5.915-7.952h1.302l4.466 7.238h-.098v-7.238h1.092V77h-1.218l-4.62-7.476h.168V77h-1.092v-8.792Zm12.399 8.96a4.063 4.063 0 0 1-1.617-.315 2.815 2.815 0 0 1-1.183-.945c-.299-.415-.453-.929-.462-1.54h1.064c0 .41.1.749.301 1.015.2.261.466.457.798.588.331.126.693.189 1.085.189.424 0 .793-.068 1.106-.203.312-.135.553-.313.721-.532.172-.224.259-.469.259-.735 0-.373-.115-.674-.343-.903-.229-.233-.567-.422-1.015-.567l-1.554-.546c-.728-.261-1.279-.56-1.652-.896-.374-.336-.56-.807-.56-1.414 0-.681.261-1.237.784-1.666.527-.43 1.274-.644 2.24-.644.896 0 1.596.208 2.1.623.504.41.793.964.868 1.659h-1.078a1.408 1.408 0 0 0-.574-.945c-.308-.229-.747-.343-1.316-.343-.579 0-1.029.128-1.351.385-.322.257-.483.581-.483.973 0 .322.1.579.301.77.205.187.525.355.959.504l1.82.63c.63.21 1.127.504 1.491.882.368.378.553.868.553 1.47 0 .467-.126.889-.378 1.267-.248.378-.614.679-1.099.903-.486.224-1.081.336-1.785.336Zm-110.601 23.28a.606.606 0 0 0-.144.072.453.453 0 0 1-.144.024c-.128 0-.264-.096-.408-.288-1.024-1.28-2.032-2.2-3.024-2.76-.992-.56-2.016-.84-3.072-.84-.64 0-1.192.168-1.656.504-.448.336-.672.864-.672 1.584 0 .592.184 1.08.552 1.464.368.384.84.704 1.416.96.592.24 1.192.448 1.8.624.912.256 1.808.544 2.688.864.896.32 1.704.704 2.424 1.152.72.432 1.296.968 1.728 1.608.432.624.648 1.384.648 2.28 0 1.088-.28 2.056-.84 2.904-.544.848-1.336 1.512-2.376 1.992-1.04.48-2.296.72-3.768.72-.72 0-1.4-.096-2.04-.288a10.97 10.97 0 0 1-1.824-.696.81.81 0 0 0-.36-.096c-.144 0-.216.08-.216.24 0 .048.016.136.048.264a.756.756 0 0 1 .072.288c0 .176-.136.264-.408.264h-1.2c-.288 0-.488-.112-.6-.336l-2.904-5.448a.737.737 0 0 1-.096-.288c0-.176.088-.312.264-.408l1.056-.6a.606.606 0 0 1 .144-.072.453.453 0 0 1 .144-.024c.16 0 .296.096.408.288 1.088 1.648 2.288 2.872 3.6 3.672 1.328.8 2.68 1.2 4.056 1.2 1.04 0 1.84-.232 2.4-.696.56-.48.84-1.08.84-1.8 0-.704-.176-1.256-.528-1.656-.352-.4-.896-.736-1.632-1.008a43.832 43.832 0 0 0-2.832-.912 21.172 21.172 0 0 1-2.328-.816 10.466 10.466 0 0 1-2.088-1.152 5.845 5.845 0 0 1-1.512-1.632c-.368-.64-.552-1.392-.552-2.256 0-1.056.264-1.928.792-2.616.544-.688 1.272-1.192 2.184-1.512.912-.336 1.944-.504 3.096-.504.896 0 1.656.112 2.28.336.624.224 1.104.432 1.44.624.272.16.456.24.552.24.08 0 .12-.048.12-.144 0-.08-.024-.192-.072-.336a2.097 2.097 0 0 1-.048-.456c0-.24.144-.36.432-.36h.864c.288 0 .488.136.6.408l1.68 4.296a.938.938 0 0 1 .072.192.453.453 0 0 1 .024.144c0 .144-.088.264-.264.36l-.816.432Zm10.096 11.112c.24 0 .36.12.36.36v.72c0 .24-.136.36-.408.36h-6.792c-.272 0-.408-.12-.408-.36v-.72c0-.24.12-.36.36-.36h.048c.592 0 1.024-.216 1.296-.648.288-.448.432-.992.432-1.632v-2.544c0-.368-.032-.736-.096-1.104a2.109 2.109 0 0 0-.36-.96c-.192-.272-.512-.432-.96-.48-.192-.016-.288-.12-.288-.312v-.816c0-.096.032-.16.096-.192a.813.813 0 0 1 .264-.12c1.264-.416 2.232-.84 2.904-1.272.688-.448 1.192-.84 1.512-1.176.032-.032.064-.048.096-.048h.072c.032 0 .048.016.048.048v8.952c0 .64.144 1.184.432 1.632.288.448.728.672 1.32.672h.072ZM45.52 95.24c.416 0 .824.2 1.224.6.4.4.6.8.6 1.2 0 .4-.2.8-.6 1.2-.4.4-.808.6-1.224.6-.384 0-.784-.2-1.2-.6-.4-.384-.6-.784-.6-1.2 0-.4.2-.8.6-1.2.4-.4.8-.6 1.2-.6Zm28.57 16.32c.24 0 .36.12.36.36v.72c0 .24-.12.36-.36.36h-6.77c-.24 0-.36-.12-.36-.36v-.72c0-.24.12-.36.36-.36h.12c.512 0 .848-.184 1.008-.552.16-.384.24-.96.24-1.728v-4.104c0-.432-.04-.824-.12-1.176-.064-.368-.224-.656-.48-.864-.24-.224-.616-.336-1.128-.336-.688 0-1.296.216-1.824.648a5.517 5.517 0 0 0-1.296 1.632v4.2c0 .88.136 1.48.408 1.8.288.32.664.48 1.128.48h.192c.24 0 .36.12.36.36v.72c0 .24-.12.36-.36.36H59.04c-.24 0-.36-.12-.36-.36v-.72c0-.24.12-.36.36-.36h.168c.336 0 .632-.16.888-.48.256-.32.384-.92.384-1.8v-4.104c0-.768-.104-1.352-.312-1.752-.192-.416-.664-.624-1.416-.624-.4 0-.8.104-1.2.312-.4.192-.752.448-1.056.768a3 3 0 0 0-.672.984v4.416c0 .64.136 1.184.408 1.632.288.432.664.648 1.128.648h.048c.24 0 .36.12.36.36v.72c0 .24-.12.36-.36.36h-6.744c-.24 0-.36-.12-.36-.36v-.72c0-.24.12-.36.36-.36h.048c.592 0 1.032-.216 1.32-.648.288-.448.432-.992.432-1.632v-3.024c0-.432-.032-.848-.096-1.248-.048-.4-.176-.736-.384-1.008-.192-.288-.512-.456-.96-.504-.176-.016-.264-.12-.264-.312v-.816c0-.16.112-.264.336-.312 1.152-.176 2.136-.448 2.952-.816.832-.368 1.408-.664 1.728-.888.08-.064.144-.096.192-.096h.024c.032 0 .048.016.048.048s-.008.096-.024.192l-.408 2.952a8.4 8.4 0 0 1 .888-1.176c.368-.432.824-.8 1.368-1.104.544-.32 1.176-.48 1.896-.48 1.184 0 2.064.224 2.64.672.576.432.968.992 1.176 1.68a6.829 6.829 0 0 1 1.896-1.704c.736-.432 1.576-.648 2.52-.648.864 0 1.56.136 2.088.408.544.256.96.608 1.248 1.056.288.432.48.928.576 1.488a8.31 8.31 0 0 1 .168 1.68v3.96c0 .64.144 1.184.432 1.632.304.432.744.648 1.32.648h.264Zm5.444-8.688c.096-.224.272-.504.528-.84.256-.352.64-.664 1.152-.936.512-.272 1.176-.408 1.992-.408.544 0 1.12.112 1.728.336.608.224 1.184.584 1.728 1.08.544.496.984 1.144 1.32 1.944.352.8.528 1.784.528 2.952 0 1.472-.264 2.68-.792 3.624-.528.928-1.216 1.608-2.064 2.04a5.942 5.942 0 0 1-2.736.648c-1.216 0-2.256-.384-3.12-1.152v1.92c0 .64.144 1.176.432 1.608.288.448.728.672 1.32.672.24 0 .36.12.36.36v.72c0 .24-.12.36-.36.36h-6.864c-.24 0-.36-.12-.36-.36v-.72c0-.24.128-.36.384-.36.592 0 1.024-.224 1.296-.672.288-.432.432-.968.432-1.608v-8.256c0-.432-.024-.848-.072-1.248-.048-.4-.176-.736-.384-1.008-.192-.288-.512-.456-.96-.504-.112-.016-.184-.048-.216-.096a.476.476 0 0 1-.048-.216v-.816c0-.208.112-.312.336-.312.8 0 1.456-.032 1.968-.096.512-.08.952-.192 1.32-.336.384-.144.76-.304 1.128-.48a.233.233 0 0 1 .12-.048h.12c.032 0 .048.024.048.072a.722.722 0 0 1-.024.12c0 .064-.016.248-.048.552-.032.288-.096.776-.192 1.464Zm.264 5.856c.064.496.2.976.408 1.44.224.464.528.84.912 1.128.384.288.84.432 1.368.432.768 0 1.368-.192 1.8-.576.432-.384.728-.88.888-1.488.176-.608.264-1.24.264-1.896 0-1.536-.312-2.752-.936-3.648-.608-.896-1.408-1.344-2.4-1.344-.64 0-1.16.184-1.56.552-.384.352-.632.696-.744 1.032v4.368Zm16.427 2.832c.24 0 .36.12.36.36v.72c0 .24-.136.36-.408.36h-6.792c-.272 0-.408-.12-.408-.36v-.72c0-.24.12-.36.36-.36h.048c.592 0 1.024-.216 1.296-.648.288-.448.432-.992.432-1.632v-9c0-.448-.032-.872-.096-1.272-.048-.4-.168-.736-.36-1.008-.192-.288-.512-.456-.96-.504-.192-.016-.288-.12-.288-.312v-.816c0-.096.032-.16.096-.192s.152-.072.264-.12c1.136-.416 2.04-.8 2.712-1.152.688-.368 1.256-.72 1.704-1.056.032-.032.064-.048.096-.048h.072c.032 0 .048.016.048.048v15.408c0 .64.144 1.184.432 1.632.288.448.728.672 1.32.672h.072Zm8.321 0c.24 0 .36.12.36.36v.72c0 .24-.136.36-.408.36h-6.793c-.272 0-.407-.12-.407-.36v-.72c0-.24.12-.36.36-.36h.047c.593 0 1.025-.216 1.296-.648.288-.448.432-.992.432-1.632v-2.544c0-.368-.032-.736-.096-1.104a2.109 2.109 0 0 0-.36-.96c-.192-.272-.511-.432-.96-.48-.191-.016-.287-.12-.287-.312v-.816c0-.096.031-.16.096-.192a.813.813 0 0 1 .264-.12c1.263-.416 2.232-.84 2.904-1.272.688-.448 1.192-.84 1.512-1.176.032-.032.064-.048.096-.048h.072c.032 0 .048.016.048.048v8.952c0 .64.144 1.184.432 1.632.288.448.728.672 1.32.672h.072Zm-3.432-16.32c.416 0 .824.2 1.224.6.4.4.6.8.6 1.2 0 .4-.2.8-.6 1.2-.4.4-.808.6-1.224.6-.384 0-.784-.2-1.2-.6-.4-.384-.6-.784-.6-1.2 0-.4.2-.8.6-1.2.4-.4.8-.6 1.2-.6Zm7.158 5.568c0-.72.088-1.48.264-2.28a8 8 0 0 1 .864-2.28 5.11 5.11 0 0 1 1.656-1.752c.704-.464 1.584-.696 2.64-.696 1.28 0 2.224.248 2.832.744.624.48.936 1.08.936 1.8 0 .416-.08.816-.24 1.2a.76.76 0 0 1-.216.288c-.08.08-.208.136-.384.168-.288.064-.632.144-1.032.24-.384.08-.736.152-1.056.216-.304.064-.48.096-.528.096-.096 0-.144-.072-.144-.216 0-.08.024-.168.072-.264.304-.608.456-1.136.456-1.584 0-.448-.12-.784-.36-1.008-.224-.24-.48-.36-.768-.36-.384 0-.72.176-1.008.528-.304.352-.512.84-.624 1.464-.096.624-.144 1.392-.144 2.304V101h3.216c.24 0 .36.12.36.36v1.032c0 .24-.12.36-.36.36h-3.216v6.528c0 .64.144 1.184.432 1.632.304.432.752.648 1.344.648.24 0 .36.12.36.36v.72c0 .24-.12.36-.36.36h-6.768c-.24 0-.36-.12-.36-.36v-.72c0-.24.12-.36.36-.36.592 0 1.032-.216 1.32-.648.288-.448.432-.992.432-1.632v-4.104c0-.432-.024-.856-.072-1.272-.048-.432-.2-.784-.456-1.056-.24-.272-.648-.408-1.224-.408-.24 0-.36-.12-.36-.36v-.72c0-.24.12-.36.36-.36h1.776v-.192Zm20.76.192c.24 0 .36.12.36.36v.72c0 .24-.12.36-.36.36h-.336a.888.888 0 0 0-.672.312c-.192.192-.432.584-.72 1.176l-6.96 14.016c-.096.208-.256.264-.48.168l-1.224-.624c-.224-.096-.288-.256-.192-.48l2.688-5.76-3.528-7.296c-.288-.592-.512-.992-.672-1.2-.16-.208-.4-.312-.72-.312h-.048c-.24 0-.36-.12-.36-.36v-.72c0-.24.12-.36.36-.36h5.544c.24 0 .36.12.36.36v.72c0 .24-.12.36-.36.36h-.048c-.512 0-.768.208-.768.624 0 .208.056.456.168.744.112.272.24.568.384.888l1.608 3.504 1.728-3.552c.176-.336.32-.648.432-.936.112-.304.168-.56.168-.768 0-.336-.184-.504-.552-.504h-.432c-.24 0-.36-.12-.36-.36v-.72c0-.24.12-.36.36-.36h4.632Zm8.162 10.56c.24 0 .36.12.36.36v.72c0 .24-.136.36-.408.36h-6.792c-.272 0-.408-.12-.408-.36v-.72c0-.24.12-.36.36-.36h.048c.592 0 1.024-.216 1.296-.648.288-.448.432-.992.432-1.632v-2.544c0-.368-.032-.736-.096-1.104a2.109 2.109 0 0 0-.36-.96c-.192-.272-.512-.432-.96-.48-.192-.016-.288-.12-.288-.312v-.816c0-.096.032-.16.096-.192a.813.813 0 0 1 .264-.12c1.264-.416 2.232-.84 2.904-1.272.688-.448 1.192-.84 1.512-1.176.032-.032.064-.048.096-.048h.072c.032 0 .048.016.048.048v8.952c0 .64.144 1.184.432 1.632.288.448.728.672 1.32.672h.072Zm-3.432-16.32c.416 0 .824.2 1.224.6.4.4.6.8.6 1.2 0 .4-.2.8-.6 1.2-.4.4-.808.6-1.224.6-.384 0-.784-.2-1.2-.6-.4-.384-.6-.784-.6-1.2 0-.4.2-.8.6-1.2.4-.4.8-.6 1.2-.6Zm18.322 9.936v4.104c0 .88.136 1.48.408 1.8.288.32.664.48 1.128.48h.192c.24 0 .36.12.36.36v.72c0 .24-.12.36-.36.36h-6.384c-.24 0-.36-.12-.36-.36v-.72c0-.24.12-.36.36-.36h.168c.336 0 .608-.16.816-.48.208-.32.312-.92.312-1.8v-4.104c0-.768-.12-1.352-.36-1.752-.24-.416-.696-.624-1.368-.624-.4 0-.8.104-1.2.312-.4.192-.752.448-1.056.768a3 3 0 0 0-.672.984v4.416c0 .64.136 1.184.408 1.632.288.432.664.648 1.128.648h.048c.24 0 .36.12.36.36v.72c0 .24-.12.36-.36.36h-6.744c-.24 0-.36-.12-.36-.36v-.72c0-.24.12-.36.36-.36h.048c.592 0 1.032-.216 1.32-.648.288-.448.432-.992.432-1.632v-3.024c0-.432-.032-.848-.096-1.248-.048-.4-.176-.736-.384-1.008-.192-.288-.512-.456-.96-.504-.176-.016-.264-.12-.264-.312v-.816c0-.16.112-.264.336-.312 1.152-.176 2.136-.448 2.952-.816.832-.368 1.408-.664 1.728-.888.08-.064.144-.096.192-.096h.024c.032 0 .048.016.048.048s-.008.096-.024.192l-.408 2.952a8.4 8.4 0 0 1 .888-1.176c.368-.432.824-.8 1.368-1.104.544-.32 1.176-.48 1.896-.48.864 0 1.568.128 2.112.384s.952.6 1.224 1.032c.288.432.48.912.576 1.44.112.528.168 1.072.168 1.632Zm14.583-4.896a.789.789 0 0 1 .192-.024c.08 0 .12.12.12.36 0 .784-.152 1.392-.456 1.824-.288.432-.704.648-1.248.648.384.64.576 1.376.576 2.208 0 .848-.216 1.624-.648 2.328-.416.688-1.016 1.24-1.8 1.656-.784.4-1.728.6-2.832.6-1.12 0-2.088-.224-2.904-.672-.208.16-.312.36-.312.6s.088.448.264.624c.176.16.512.296 1.008.408.512.096 1.256.168 2.232.216.704.032 1.384.104 2.04.216a6.593 6.593 0 0 1 1.8.552c.528.24.944.584 1.248 1.032.32.448.48 1.032.48 1.752 0 .656-.176 1.208-.528 1.656-.336.464-.8.832-1.392 1.104a7.706 7.706 0 0 1-1.92.6c-.704.128-1.416.192-2.136.192-.976 0-1.88-.104-2.712-.312-.816-.208-1.48-.528-1.992-.96-.496-.432-.744-.984-.744-1.656 0-.528.136-.984.408-1.368a3.425 3.425 0 0 1 1.032-.888c-.816-.512-1.224-1.24-1.224-2.184 0-.544.136-1.008.408-1.392a2.518 2.518 0 0 1 1.08-.84c-.944-.864-1.416-1.952-1.416-3.264 0-.848.208-1.616.624-2.304.432-.704 1.04-1.264 1.824-1.68.8-.416 1.744-.624 2.832-.624.672 0 1.28.088 1.824.264.56.16 1.056.384 1.488.672.08.048.144.08.192.096h.144c.128 0 .232-.04.312-.12.08-.096.12-.264.12-.504v-.072c0-.208.088-.328.264-.36l1.752-.384Zm-6.096 1.848c-.608 0-1.088.168-1.44.504a2.855 2.855 0 0 0-.72 1.248 5.48 5.48 0 0 0-.192 1.416c0 .464.064.944.192 1.44.144.48.384.888.72 1.224.352.336.832.504 1.44.504s1.064-.168 1.368-.504c.32-.336.536-.744.648-1.224.112-.496.168-.976.168-1.44 0-.464-.056-.936-.168-1.416a2.598 2.598 0 0 0-.648-1.248c-.304-.336-.76-.504-1.368-.504Zm-.096 14.376c1.184 0 2.088-.112 2.712-.336.64-.224.96-.52.96-.888 0-.512-.336-.856-1.008-1.032-.672-.16-1.616-.272-2.832-.336-.864-.048-1.608-.144-2.232-.288-.448.304-.672.728-.672 1.272 0 .24.088.48.264.72.176.256.488.464.936.624.448.176 1.072.264 1.872.264ZM33.528 145.272a.351.351 0 0 1 .072.216c0 .096-.064.184-.192.264l-.72.456a9.452 9.452 0 0 1-1.56.768 5.245 5.245 0 0 1-1.824.336c-.48 0-.936-.112-1.368-.336-.416-.224-.752-.6-1.008-1.128-.256-.544-.384-1.288-.384-2.232v-4.44c0-.432-.024-.856-.072-1.272-.048-.432-.2-.784-.456-1.056-.24-.272-.648-.408-1.224-.408-.24 0-.36-.12-.36-.36v-.72c0-.24.12-.36.36-.36h1.752v-1.608c0-.208.072-.352.216-.432.352-.192.816-.456 1.392-.792a8.226 8.226 0 0 0 1.536-1.2.163.163 0 0 1 .12-.048h.048c.032 0 .048.024.048.072V135h3.216c.24 0 .36.12.36.36v1.032c0 .24-.12.36-.36.36h-3.216v6.864c0 .624.096 1.056.288 1.296a.91.91 0 0 0 .72.336c.272 0 .56-.072.864-.216.304-.16.584-.32.84-.48a.59.59 0 0 1 .264-.096c.096 0 .184.064.264.192l.384.624Zm16.294.288c.24 0 .36.12.36.36v.72c0 .24-.12.36-.36.36h-6.528c-.24 0-.36-.12-.36-.36v-.72c0-.24.12-.36.36-.36h.072c.448 0 .768-.216.96-.648.192-.448.288-.992.288-1.632v-4.104c0-.8-.104-1.392-.312-1.776-.208-.4-.68-.6-1.416-.6-.592 0-1.176.176-1.752.528-.56.352-.952.784-1.176 1.296v4.656c0 .64.144 1.184.432 1.632.304.432.752.648 1.344.648h.048c.24 0 .36.12.36.36v.72c0 .24-.12.36-.36.36h-6.984c-.24 0-.36-.12-.36-.36v-.72c0-.24.12-.36.36-.36h.048c.592 0 1.032-.216 1.32-.648.288-.448.432-.992.432-1.632v-9c0-.432-.032-.848-.096-1.248-.048-.4-.168-.736-.36-1.008-.192-.288-.512-.456-.96-.504-.192-.016-.288-.12-.288-.312v-.816c0-.096.024-.16.072-.192a.813.813 0 0 1 .264-.12c.752-.256 1.512-.56 2.28-.912a11.697 11.697 0 0 0 2.232-1.32.233.233 0 0 1 .12-.048h.024c.032 0 .048.016.048.048v9.216c.144-.288.384-.616.72-.984.352-.368.8-.688 1.344-.96.544-.288 1.184-.432 1.92-.432.752 0 1.432.12 2.04.36.624.24 1.12.664 1.488 1.272.368.592.552 1.432.552 2.52v4.44c0 .64.144 1.184.432 1.632.288.432.728.648 1.32.648h.072Zm3.855-2.856c.272.672.704 1.272 1.296 1.8.608.528 1.376.792 2.304.792.512 0 1.048-.144 1.608-.432.56-.288 1.048-.736 1.464-1.344.048-.08.112-.12.192-.12s.16.024.24.072c.096.048.336.184.72.408a.228.228 0 0 1 .096.192c0 .112-.048.248-.144.408a5.74 5.74 0 0 1-1.824 2.04c-.768.528-1.768.792-3 .792-1.328 0-2.472-.296-3.432-.888a6.175 6.175 0 0 1-2.232-2.352 6.766 6.766 0 0 1-.768-3.192c0-1.104.16-2.048.48-2.832.336-.8.776-1.44 1.32-1.92a5.06 5.06 0 0 1 1.824-1.08 6.3 6.3 0 0 1 2.088-.36c.8 0 1.504.16 2.112.48a4.91 4.91 0 0 1 1.536 1.176c.432.48.752.992.96 1.536.224.528.336 1.024.336 1.488 0 .128-.072.224-.216.288l-6.96 3.048Zm3.576-3.432c0-.768-.184-1.4-.552-1.896-.368-.496-.832-.744-1.392-.744-.656 0-1.176.264-1.56.792-.384.512-.576 1.16-.576 1.944 0 .24.008.536.024.888.032.352.096.672.192.96l3.864-1.944Zm25.431-4.824a.606.606 0 0 0-.144.072.453.453 0 0 1-.144.024c-.128 0-.264-.096-.408-.288-1.024-1.28-2.032-2.2-3.024-2.76-.992-.56-2.016-.84-3.072-.84-.64 0-1.192.168-1.656.504-.448.336-.672.864-.672 1.584 0 .592.184 1.08.552 1.464.368.384.84.704 1.416.96.592.24 1.192.448 1.8.624.912.256 1.808.544 2.688.864.896.32 1.704.704 2.424 1.152.72.432 1.296.968 1.728 1.608.432.624.648 1.384.648 2.28 0 1.088-.28 2.056-.84 2.904-.544.848-1.336 1.512-2.376 1.992-1.04.48-2.296.72-3.768.72-.72 0-1.4-.096-2.04-.288a10.97 10.97 0 0 1-1.824-.696.81.81 0 0 0-.36-.096c-.144 0-.216.08-.216.24 0 .048.016.136.048.264a.756.756 0 0 1 .072.288c0 .176-.136.264-.408.264h-1.2c-.288 0-.488-.112-.6-.336l-2.904-5.448a.737.737 0 0 1-.096-.288c0-.176.088-.312.264-.408l1.056-.6a.606.606 0 0 1 .144-.072.453.453 0 0 1 .144-.024c.16 0 .296.096.408.288 1.088 1.648 2.288 2.872 3.6 3.672 1.328.8 2.68 1.2 4.056 1.2 1.04 0 1.84-.232 2.4-.696.56-.48.84-1.08.84-1.8 0-.704-.176-1.256-.528-1.656-.352-.4-.896-.736-1.632-1.008a43.832 43.832 0 0 0-2.832-.912 21.172 21.172 0 0 1-2.328-.816 10.466 10.466 0 0 1-2.088-1.152A5.845 5.845 0 0 1 70.3 135.6c-.368-.64-.552-1.392-.552-2.256 0-1.056.264-1.928.792-2.616.544-.688 1.272-1.192 2.184-1.512.912-.336 1.944-.504 3.096-.504.896 0 1.656.112 2.28.336.624.224 1.104.432 1.44.624.272.16.456.24.552.24.08 0 .12-.048.12-.144 0-.08-.024-.192-.072-.336a2.097 2.097 0 0 1-.048-.456c0-.24.144-.36.432-.36h.864c.288 0 .488.136.6.408l1.68 4.296a.938.938 0 0 1 .072.192.453.453 0 0 1 .024.144c0 .144-.088.264-.264.36l-.816.432Zm6.805 8.256c.272.672.704 1.272 1.296 1.8.608.528 1.376.792 2.304.792.512 0 1.048-.144 1.608-.432.56-.288 1.048-.736 1.464-1.344.048-.08.112-.12.192-.12s.16.024.24.072c.096.048.336.184.72.408a.228.228 0 0 1 .096.192c0 .112-.048.248-.144.408a5.74 5.74 0 0 1-1.824 2.04c-.768.528-1.768.792-3 .792-1.328 0-2.472-.296-3.432-.888a6.175 6.175 0 0 1-2.232-2.352 6.766 6.766 0 0 1-.768-3.192c0-1.104.16-2.048.48-2.832.336-.8.776-1.44 1.32-1.92a5.06 5.06 0 0 1 1.824-1.08 6.3 6.3 0 0 1 2.088-.36c.8 0 1.504.16 2.112.48a4.91 4.91 0 0 1 1.536 1.176c.432.48.752.992.96 1.536.224.528.336 1.024.336 1.488 0 .128-.072.224-.216.288l-6.96 3.048Zm3.576-3.432c0-.768-.184-1.4-.552-1.896-.368-.496-.832-.744-1.392-.744-.656 0-1.176.264-1.56.792-.384.512-.576 1.16-.576 1.944 0 .24.008.536.024.888.032.352.096.672.192.96l3.864-1.944Zm12.184 6.288c.24 0 .36.12.36.36v.72c0 .24-.136.36-.408.36h-6.792c-.272 0-.408-.12-.408-.36v-.72c0-.24.12-.36.36-.36h.048c.592 0 1.024-.216 1.296-.648.288-.448.432-.992.432-1.632v-9c0-.448-.032-.872-.096-1.272-.048-.4-.168-.736-.36-1.008-.192-.288-.512-.456-.96-.504-.192-.016-.288-.12-.288-.312v-.816c0-.096.032-.16.096-.192s.152-.072.264-.12c1.136-.416 2.04-.8 2.712-1.152.688-.368 1.256-.72 1.704-1.056.032-.032.064-.048.096-.048h.072c.032 0 .048.016.048.048v15.408c0 .64.144 1.184.432 1.632.288.448.728.672 1.32.672h.072Zm8.32 0c.24 0 .36.12.36.36v.72c0 .24-.136.36-.408.36h-6.792c-.272 0-.408-.12-.408-.36v-.72c0-.24.12-.36.36-.36h.048c.592 0 1.024-.216 1.296-.648.288-.448.432-.992.432-1.632v-9c0-.448-.032-.872-.096-1.272-.048-.4-.168-.736-.36-1.008-.192-.288-.512-.456-.96-.504-.192-.016-.288-.12-.288-.312v-.816c0-.096.032-.16.096-.192s.152-.072.264-.12c1.136-.416 2.04-.8 2.712-1.152.688-.368 1.256-.72 1.704-1.056.032-.032.064-.048.096-.048h.072c.032 0 .048.016.048.048v15.408c0 .64.144 1.184.432 1.632.288.448.728.672 1.32.672h.072Zm4.35-2.856c.272.672.704 1.272 1.296 1.8.608.528 1.376.792 2.304.792.512 0 1.048-.144 1.608-.432.56-.288 1.048-.736 1.464-1.344.048-.08.112-.12.192-.12s.16.024.24.072c.096.048.336.184.72.408a.228.228 0 0 1 .096.192c0 .112-.048.248-.144.408a5.74 5.74 0 0 1-1.824 2.04c-.768.528-1.768.792-3 .792-1.328 0-2.472-.296-3.432-.888a6.175 6.175 0 0 1-2.232-2.352 6.766 6.766 0 0 1-.768-3.192c0-1.104.16-2.048.48-2.832.336-.8.776-1.44 1.32-1.92a5.06 5.06 0 0 1 1.824-1.08 6.3 6.3 0 0 1 2.088-.36c.8 0 1.504.16 2.112.48a4.91 4.91 0 0 1 1.536 1.176c.432.48.752.992.96 1.536.224.528.336 1.024.336 1.488 0 .128-.072.224-.216.288l-6.96 3.048Zm3.576-3.432c0-.768-.184-1.4-.552-1.896-.368-.496-.832-.744-1.392-.744-.656 0-1.176.264-1.56.792-.384.512-.576 1.16-.576 1.944 0 .24.008.536.024.888.032.352.096.672.192.96l3.864-1.944Zm10.119-1.752c.432-.928 1.032-1.632 1.8-2.112.768-.48 1.576-.72 2.424-.72.752 0 1.392.208 1.92.624.528.416.792 1.032.792 1.848 0 .352-.032.664-.096.936s-.24.472-.528.6l-2.256.912a.762.762 0 0 1-.216.048c-.144 0-.216-.072-.216-.216 0-.048.016-.12.048-.216.096-.224.152-.44.168-.648a3.68 3.68 0 0 0 .048-.552c0-.432-.112-.744-.336-.936a1.073 1.073 0 0 0-.792-.312c-.368 0-.712.112-1.032.336-.32.224-.6.496-.84.816-.24.32-.416.632-.528.936v4.416c0 .64.144 1.184.432 1.632.288.432.728.648 1.32.648h.048c.24 0 .36.12.36.36v.72c0 .24-.12.36-.36.36h-6.984c-.24 0-.36-.12-.36-.36v-.72c0-.24.12-.36.36-.36h.048c.592 0 1.032-.216 1.32-.648.288-.448.432-.992.432-1.632v-3.024c0-.432-.032-.848-.096-1.248-.048-.4-.168-.736-.36-1.008-.192-.288-.512-.456-.96-.504-.192-.016-.288-.12-.288-.312v-.816c0-.16.12-.264.36-.312 1.136-.176 2.128-.456 2.976-.84.864-.384 1.448-.688 1.752-.912a.233.233 0 0 1 .12-.048h.048c.032 0 .048.016.048.048a5.8 5.8 0 0 1-.072.36 24 24 0 0 1-.144.864c-.048.336-.112.688-.192 1.056l-.168.936Zm-90.19 38.344c.144.08.216.168.216.264a.566.566 0 0 1-.072.24l-2.256 4.752c-.064.144-.16.216-.288.216a.298.298 0 0 1-.216-.096l-.12-.12c-.08-.08-.24-.12-.48-.12H25.08c-.24 0-.36-.12-.36-.36v-.72c0-.24.12-.36.36-.36h.048c1.152 0 1.728-.76 1.728-2.28v-10.536c0-1.52-.584-2.28-1.752-2.28h-.024c-.24 0-.36-.12-.36-.36v-.72c0-.256.12-.384.36-.384h12.024c.208 0 .36-.04.456-.12l.144-.12a.26.26 0 0 1 .192-.072c.128 0 .232.064.312.192l1.896 3.264a.351.351 0 0 1 .072.216c0 .112-.064.208-.192.288l-.96.528a.59.59 0 0 1-.264.096c-.112 0-.208-.072-.288-.216l-.072-.12c-.496-.832-1.032-1.408-1.608-1.728-.56-.336-1.304-.504-2.232-.504h-3.888v5.64h2.112c.72 0 1.28-.136 1.68-.408.4-.272.6-.672.6-1.2v-.168c0-.24.12-.36.36-.36h.72c.24 0 .36.12.36.36v5.448c0 .24-.12.36-.36.36h-.72c-.24 0-.36-.12-.36-.36v-.144c0-.544-.2-.944-.6-1.2-.384-.272-.944-.408-1.68-.408h-2.112v4.752c0 1.52.552 2.28 1.656 2.28h1.56c1.184 0 2.144-.112 2.88-.336.752-.224 1.376-.6 1.872-1.128.512-.528.992-1.24 1.44-2.136l.072-.144c.08-.128.184-.192.312-.192.08 0 .144.016.192.048l.768.456Zm.519 3.696c.496 0 .888-.12 1.176-.36.304-.24.656-.616 1.056-1.128l2.592-3.312-2.328-2.808c-.832-1.008-1.536-1.512-2.112-1.512h-.048c-.24 0-.36-.12-.36-.36v-.72c0-.24.12-.36.36-.36h6.024c.24 0 .36.12.36.36v.72c0 .24-.12.36-.36.36h-.048c-.592 0-.888.112-.888.336 0 .176.144.432.432.768l1.608 1.968 1.2-1.56c.224-.288.4-.536.528-.744.128-.208.192-.368.192-.48 0-.192-.192-.288-.576-.288h-.24c-.24 0-.36-.12-.36-.36v-.72c0-.24.12-.36.36-.36h4.392c.24 0 .36.12.36.36v.72c0 .24-.12.36-.36.36h-.336c-.496 0-.872.112-1.128.336-.256.224-.592.608-1.008 1.152l-2.088 2.712 2.808 3.408c.816 1.008 1.52 1.512 2.112 1.512h.048c.24 0 .36.12.36.36v.72c0 .24-.12.36-.36.36h-6.144c-.24 0-.36-.12-.36-.36v-.72c0-.24.12-.36.36-.36h.048c.16 0 .344-.032.552-.096.224-.064.336-.2.336-.408 0-.16-.12-.392-.36-.696l-2.064-2.496-1.68 2.184a46.75 46.75 0 0 0-.528.744c-.128.192-.192.352-.192.48 0 .192.2.288.6.288h.456c.24 0 .36.12.36.36v.72c0 .24-.12.36-.36.36h-4.392c-.24 0-.36-.12-.36-.36v-.72c0-.24.12-.36.36-.36Zm19.357-8.688c.096-.224.272-.504.528-.84.256-.352.64-.664 1.152-.936.512-.272 1.176-.408 1.992-.408.544 0 1.12.112 1.728.336.608.224 1.184.584 1.728 1.08.544.496.984 1.144 1.32 1.944.352.8.528 1.784.528 2.952 0 1.472-.264 2.68-.792 3.624-.528.928-1.216 1.608-2.064 2.04a5.942 5.942 0 0 1-2.736.648c-1.216 0-2.256-.384-3.12-1.152v1.92c0 .64.144 1.176.432 1.608.288.448.728.672 1.32.672.24 0 .36.12.36.36v.72c0 .24-.12.36-.36.36h-6.864c-.24 0-.36-.12-.36-.36v-.72c0-.24.128-.36.384-.36.592 0 1.024-.224 1.296-.672.288-.432.432-.968.432-1.608v-8.256c0-.432-.024-.848-.072-1.248-.048-.4-.176-.736-.384-1.008-.192-.288-.512-.456-.96-.504-.112-.016-.184-.048-.216-.096a.476.476 0 0 1-.048-.216v-.816c0-.208.112-.312.336-.312.8 0 1.456-.032 1.968-.096.512-.08.952-.192 1.32-.336.384-.144.76-.304 1.128-.48a.233.233 0 0 1 .12-.048h.12c.032 0 .048.024.048.072a.722.722 0 0 1-.024.12c0 .064-.016.248-.048.552-.032.288-.096.776-.192 1.464Zm.264 5.856c.064.496.2.976.408 1.44.224.464.528.84.912 1.128.384.288.84.432 1.368.432.768 0 1.368-.192 1.8-.576.432-.384.728-.88.888-1.488.176-.608.264-1.24.264-1.896 0-1.536-.312-2.752-.936-3.648-.608-.896-1.408-1.344-2.4-1.344-.64 0-1.16.184-1.56.552-.384.352-.632.696-.744 1.032v4.368Zm13.628-.024c.272.672.704 1.272 1.296 1.8.608.528 1.376.792 2.304.792.512 0 1.048-.144 1.608-.432.56-.288 1.048-.736 1.464-1.344.048-.08.112-.12.192-.12s.16.024.24.072c.096.048.336.184.72.408a.228.228 0 0 1 .096.192c0 .112-.048.248-.144.408a5.74 5.74 0 0 1-1.824 2.04c-.768.528-1.768.792-3 .792-1.328 0-2.472-.296-3.432-.888a6.175 6.175 0 0 1-2.232-2.352 6.766 6.766 0 0 1-.768-3.192c0-1.104.16-2.048.48-2.832.336-.8.776-1.44 1.32-1.92a5.06 5.06 0 0 1 1.824-1.08 6.3 6.3 0 0 1 2.088-.36c.8 0 1.504.16 2.112.48a4.91 4.91 0 0 1 1.536 1.176c.432.48.752.992.96 1.536.224.528.336 1.024.336 1.488 0 .128-.072.224-.216.288l-6.96 3.048Zm3.576-3.432c0-.768-.184-1.4-.552-1.896-.368-.496-.832-.744-1.392-.744-.656 0-1.176.264-1.56.792-.384.512-.576 1.16-.576 1.944 0 .24.008.536.024.888.032.352.096.672.192.96l3.864-1.944Zm10.12-1.752c.432-.928 1.032-1.632 1.8-2.112.768-.48 1.576-.72 2.424-.72.752 0 1.392.208 1.92.624.528.416.792 1.032.792 1.848 0 .352-.032.664-.096.936s-.24.472-.528.6l-2.256.912a.762.762 0 0 1-.216.048c-.144 0-.216-.072-.216-.216 0-.048.016-.12.048-.216.096-.224.152-.44.168-.648a3.68 3.68 0 0 0 .048-.552c0-.432-.112-.744-.336-.936a1.073 1.073 0 0 0-.792-.312c-.368 0-.712.112-1.032.336-.32.224-.6.496-.84.816-.24.32-.416.632-.528.936v4.416c0 .64.144 1.184.432 1.632.288.432.728.648 1.32.648h.048c.24 0 .36.12.36.36v.72c0 .24-.12.36-.36.36h-6.984c-.24 0-.36-.12-.36-.36v-.72c0-.24.12-.36.36-.36h.048c.592 0 1.032-.216 1.32-.648.288-.448.432-.992.432-1.632v-3.024c0-.432-.032-.848-.096-1.248-.048-.4-.168-.736-.36-1.008-.192-.288-.512-.456-.96-.504-.192-.016-.288-.12-.288-.312v-.816c0-.16.12-.264.36-.312 1.136-.176 2.128-.456 2.976-.84.864-.384 1.448-.688 1.752-.912a.233.233 0 0 1 .12-.048h.048c.032 0 .048.016.048.048a5.8 5.8 0 0 1-.072.36 24 24 0 0 1-.144.864c-.048.336-.112.688-.192 1.056l-.168.936Zm14.79 8.04c.24 0 .36.12.36.36v.72c0 .24-.136.36-.408.36h-6.792c-.272 0-.408-.12-.408-.36v-.72c0-.24.12-.36.36-.36h.048c.592 0 1.024-.216 1.296-.648.288-.448.432-.992.432-1.632v-2.544c0-.368-.032-.736-.096-1.104a2.109 2.109 0 0 0-.36-.96c-.192-.272-.512-.432-.96-.48-.192-.016-.288-.12-.288-.312v-.816c0-.096.032-.16.096-.192a.813.813 0 0 1 .264-.12c1.264-.416 2.232-.84 2.904-1.272.688-.448 1.192-.84 1.512-1.176.032-.032.064-.048.096-.048h.072c.032 0 .048.016.048.048v8.952c0 .64.144 1.184.432 1.632.288.448.728.672 1.32.672h.072Zm-3.432-16.32c.416 0 .824.2 1.224.6.4.4.6.8.6 1.2 0 .4-.2.8-.6 1.2-.4.4-.808.6-1.224.6-.384 0-.784-.2-1.2-.6-.4-.384-.6-.784-.6-1.2 0-.4.2-.8.6-1.2.4-.4.8-.6 1.2-.6Zm7.782 13.464c.272.672.704 1.272 1.296 1.8.608.528 1.376.792 2.304.792.512 0 1.048-.144 1.608-.432.56-.288 1.048-.736 1.464-1.344.048-.08.112-.12.192-.12s.16.024.24.072c.096.048.336.184.72.408a.228.228 0 0 1 .096.192c0 .112-.048.248-.144.408a5.74 5.74 0 0 1-1.824 2.04c-.768.528-1.768.792-3 .792-1.328 0-2.472-.296-3.432-.888a6.175 6.175 0 0 1-2.232-2.352 6.766 6.766 0 0 1-.768-3.192c0-1.104.16-2.048.48-2.832.336-.8.776-1.44 1.32-1.92a5.06 5.06 0 0 1 1.824-1.08 6.3 6.3 0 0 1 2.088-.36c.8 0 1.504.16 2.112.48a4.91 4.91 0 0 1 1.536 1.176c.432.48.752.992.96 1.536.224.528.336 1.024.336 1.488 0 .128-.072.224-.216.288l-6.96 3.048Zm3.576-3.432c0-.768-.184-1.4-.552-1.896-.368-.496-.832-.744-1.392-.744-.656 0-1.176.264-1.56.792-.384.512-.576 1.16-.576 1.944 0 .24.008.536.024.888.032.352.096.672.192.96l3.864-1.944Zm18.472-.096v4.104c0 .88.136 1.48.408 1.8.288.32.664.48 1.128.48h.192c.24 0 .36.12.36.36v.72c0 .24-.12.36-.36.36h-6.384c-.24 0-.36-.12-.36-.36v-.72c0-.24.12-.36.36-.36h.168c.336 0 .608-.16.816-.48.208-.32.312-.92.312-1.8v-4.104c0-.768-.12-1.352-.36-1.752-.24-.416-.696-.624-1.368-.624-.4 0-.8.104-1.2.312-.4.192-.752.448-1.056.768a3 3 0 0 0-.672.984v4.416c0 .64.136 1.184.408 1.632.288.432.664.648 1.128.648h.048c.24 0 .36.12.36.36v.72c0 .24-.12.36-.36.36H116.9c-.24 0-.36-.12-.36-.36v-.72c0-.24.12-.36.36-.36h.048c.592 0 1.032-.216 1.32-.648.288-.448.432-.992.432-1.632v-3.024c0-.432-.032-.848-.096-1.248-.048-.4-.176-.736-.384-1.008-.192-.288-.512-.456-.96-.504-.176-.016-.264-.12-.264-.312v-.816c0-.16.112-.264.336-.312 1.152-.176 2.136-.448 2.952-.816.832-.368 1.408-.664 1.728-.888.08-.064.144-.096.192-.096h.024c.032 0 .048.016.048.048s-.008.096-.024.192l-.408 2.952a8.4 8.4 0 0 1 .888-1.176c.368-.432.824-.8 1.368-1.104.544-.32 1.176-.48 1.896-.48.864 0 1.568.128 2.112.384s.952.6 1.224 1.032c.288.432.48.912.576 1.44.112.528.168 1.072.168 1.632Zm12.83 4.584c.128.096.192.2.192.312a.786.786 0 0 1-.048.192c-.464 1.024-1.152 1.792-2.064 2.304a5.993 5.993 0 0 1-2.952.744c-.896 0-1.712-.192-2.448-.576a5.957 5.957 0 0 1-1.872-1.584 6.564 6.564 0 0 1-1.128-2.208 7.02 7.02 0 0 1-.264-2.52c.112-1.328.48-2.416 1.104-3.264.624-.848 1.376-1.472 2.256-1.872.896-.4 1.792-.6 2.688-.6 1.056 0 1.912.16 2.568.48.656.32 1.16.736 1.512 1.248.352.512.592 1.048.72 1.608.016.064.024.12.024.168 0 .128-.096.216-.288.264l-2.76.72a.762.762 0 0 1-.216.048c-.112 0-.168-.056-.168-.168v-.192a1.14 1.14 0 0 0 .024-.264c0-.512-.16-.968-.48-1.368-.32-.4-.816-.6-1.488-.6-.608 0-1.088.192-1.44.576-.352.384-.608.88-.768 1.488a7.896 7.896 0 0 0-.216 1.872c0 .784.104 1.528.312 2.232.208.704.544 1.28 1.008 1.728.48.432 1.128.648 1.944.648a3.58 3.58 0 0 0 1.776-.456 4 4 0 0 0 1.344-1.296.311.311 0 0 1 .288-.168c.08 0 .152.024.216.072l.624.432Zm4.802-1.056c.272.672.704 1.272 1.296 1.8.608.528 1.376.792 2.304.792.512 0 1.048-.144 1.608-.432.56-.288 1.048-.736 1.464-1.344.048-.08.112-.12.192-.12s.16.024.24.072c.096.048.336.184.72.408a.228.228 0 0 1 .096.192c0 .112-.048.248-.144.408a5.74 5.74 0 0 1-1.824 2.04c-.768.528-1.768.792-3 .792-1.328 0-2.472-.296-3.432-.888a6.175 6.175 0 0 1-2.232-2.352 6.766 6.766 0 0 1-.768-3.192c0-1.104.16-2.048.48-2.832.336-.8.776-1.44 1.32-1.92a5.06 5.06 0 0 1 1.824-1.08 6.3 6.3 0 0 1 2.088-.36c.8 0 1.504.16 2.112.48a4.91 4.91 0 0 1 1.536 1.176c.432.48.752.992.96 1.536.224.528.336 1.024.336 1.488 0 .128-.072.224-.216.288l-6.96 3.048Zm3.576-3.432c0-.768-.184-1.4-.552-1.896-.368-.496-.832-.744-1.392-.744-.656 0-1.176.264-1.56.792-.384.512-.576 1.16-.576 1.944 0 .24.008.536.024.888.032.352.096.672.192.96l3.864-1.944Z"/></g><defs><clipPath id="a"><path fill="#fff" d="M0 0h510v255H0z"/></clipPath><clipPath id="d"><rect width="280.631" height="190.467" x="205" y="39" fill="#fff" rx="4.385"/></clipPath><clipPath id="e"><path fill="#fff" d="M413.83 44.481h4.385v4.385h-4.385z"/></clipPath><clipPath id="f"><path fill="#fff" d="M462.609 43.933h5.481v5.481h-5.481z"/></clipPath><linearGradient id="b" x1="510" x2="0" y1="127" y2="127" gradientUnits="userSpaceOnUse"><stop stop-color="#6791ED"/><stop offset=".703" stop-color="#213D73"/><stop offset="1" stop-color="#163161"/></linearGradient><linearGradient id="g" x1="216.091" x2="97.507" y1="-19.184" y2="197.917" gradientUnits="userSpaceOnUse"><stop stop-color="#9DB5F6"/><stop offset="1" stop-color="#4684EF"/></linearGradient><filter id="c" width="324.753" height="240.071" x="182.939" y="38.863" color-interpolation-filters="sRGB" filterUnits="userSpaceOnUse"><feFlood flood-opacity="0" result="BackgroundImageFix"/><feColorMatrix in="SourceAlpha" result="hardAlpha" values="0 0 0 0 0 0 0 0 0 0 0 0 0 0 0 0 0 0 127 0"/><feOffset dy=".758"/><feGaussianBlur stdDeviation=".303"/><feColorMatrix values="0 0 0 0 0 0 0 0 0 0 0 0 0 0 0 0 0 0 0.0196802 0"/><feBlend in2="BackgroundImageFix" result="effect1_dropShadow_40000487_57134"/><feColorMatrix in="SourceAlpha" result="hardAlpha" values="0 0 0 0 0 0 0 0 0 0 0 0 0 0 0 0 0 0 127 0"/><feOffset dy="1.822"/><feGaussianBlur stdDeviation=".729"/><feColorMatrix values="0 0 0 0 0 0 0 0 0 0 0 0 0 0 0 0 0 0 0.0282725 0"/><feBlend in2="effect1_dropShadow_40000487_57134" result="effect2_dropShadow_40000487_57134"/><feColorMatrix in="SourceAlpha" result="hardAlpha" values="0 0 0 0 0 0 0 0 0 0 0 0 0 0 0 0 0 0 127 0"/><feOffset dy="3.432"/><feGaussianBlur stdDeviation="1.373"/><feColorMatrix values="0 0 0 0 0 0 0 0 0 0 0 0 0 0 0 0 0 0 0.035 0"/><feBlend in2="effect2_dropShadow_40000487_57134" result="effect3_dropShadow_40000487_57134"/><feColorMatrix in="SourceAlpha" result="hardAlpha" values="0 0 0 0 0 0 0 0 0 0 0 0 0 0 0 0 0 0 127 0"/><feOffset dy="6.121"/><feGaussianBlur stdDeviation="2.449"/><feColorMatrix values="0 0 0 0 0 0 0 0 0 0 0 0 0 0 0 0 0 0 0.0417275 0"/><feBlend in2="effect3_dropShadow_40000487_57134" result="effect4_dropShadow_40000487_57134"/><feColorMatrix in="SourceAlpha" result="hardAlpha" values="0 0 0 0 0 0 0 0 0 0 0 0 0 0 0 0 0 0 127 0"/><feOffset dy="11.449"/><feGaussianBlur stdDeviation="4.58"/><feColorMatrix values="0 0 0 0 0 0 0 0 0 0 0 0 0 0 0 0 0 0 0.0503198 0"/><feBlend in2="effect4_dropShadow_40000487_57134" result="effect5_dropShadow_40000487_57134"/><feColorMatrix in="SourceAlpha" result="hardAlpha" values="0 0 0 0 0 0 0 0 0 0 0 0 0 0 0 0 0 0 127 0"/><feOffset dy="27.405"/><feGaussianBlur stdDeviation="10.962"/><feColorMatrix values="0 0 0 0 0 0 0 0 0 0 0 0 0 0 0 0 0 0 0.07 0"/><feBlend in2="effect5_dropShadow_40000487_57134" result="effect6_dropShadow_40000487_57134"/><feBlend in="SourceGraphic" in2="effect6_dropShadow_40000487_57134" result="shape"/></filter></defs></svg>