<svg xmlns="http://www.w3.org/2000/svg" width="510" height="255" fill="none"><path fill="url(#a)" d="M0 0h510v255H0z"/><path fill="#EBEBEB" d="m24.364 77 3.024-8.792h1.33L31.672 77h-1.148l-.742-2.254h-3.5L25.512 77h-1.148Zm2.198-3.108h2.94l-1.47-4.354-1.47 4.354Zm6.695-5.684h1.092v5.614c0 .826.208 1.423.623 1.792.415.364.96.546 1.631.546.667 0 1.206-.182 1.617-.546.415-.369.623-.966.623-1.792v-5.614h1.092v5.614c0 .737-.138 1.356-.413 1.855a2.65 2.65 0 0 1-1.155 1.12c-.5.247-1.087.371-1.764.371s-1.267-.124-1.77-.371a2.69 2.69 0 0 1-1.163-1.12c-.275-.5-.413-1.118-.413-1.855v-5.614Zm8.013.938v-.938h6.845v.938h-3.129l.245-.252V77H44.14v-8.106l.245.252H41.27Zm11.451 8.022c-.728 0-1.379-.168-1.953-.504-.574-.336-1.026-.84-1.358-1.512-.331-.677-.497-1.521-.497-2.534 0-1.027.166-1.876.497-2.548.332-.677.784-1.18 1.358-1.512.574-.336 1.225-.504 1.953-.504s1.38.168 1.953.504c.574.336 1.027.842 1.358 1.519.332.677.497 1.524.497 2.541 0 1.022-.165 1.871-.497 2.548-.331.672-.784 1.174-1.358 1.505-.574.331-1.225.497-1.953.497Zm0-1.008c.826 0 1.477-.301 1.953-.903.48-.602.721-1.486.721-2.653 0-1.143-.24-2.023-.72-2.639-.477-.62-1.128-.931-1.954-.931-.816 0-1.467.31-1.953.931-.48.62-.72 1.505-.72 2.653 0 1.162.24 2.044.72 2.646.486.597 1.137.896 1.953.896Zm9.056-7.952h1.092v5.614c0 .826.207 1.423.623 1.792.415.364.959.546 1.63.546.668 0 1.207-.182 1.618-.546.415-.369.623-.966.623-1.792v-5.614h1.092v5.614c0 .737-.138 1.356-.413 1.855a2.65 2.65 0 0 1-1.155 1.12c-.5.247-1.088.371-1.764.371-.677 0-1.267-.124-1.771-.371a2.691 2.691 0 0 1-1.162-1.12c-.276-.5-.413-1.118-.413-1.855v-5.614ZM71.119 77v-8.792h1.092V77H71.12ZM42.792 95c.24 0 .36.12.36.36v.72c0 .24-.12.36-.36.36h-.168c-.592 0-1.008.224-1.248.672-.24.432-.36.968-.36 1.608v7.68c0 2.208-.552 3.912-1.656 5.112-1.088 1.2-2.824 1.8-5.208 1.8-2.368 0-4.2-.592-5.496-1.776-1.28-1.184-1.92-2.816-1.92-4.896v-7.92c0-.64-.12-1.176-.36-1.608-.224-.448-.64-.672-1.248-.672h-.168c-.24 0-.36-.12-.36-.36v-.72c0-.24.12-.36.36-.36h7.368c.24 0 .36.12.36.36v.72c0 .24-.12.36-.36.36h-.144c-.592 0-1.008.224-1.248.672-.24.432-.36.968-.36 1.608v7.44c0 .672.048 1.312.144 1.92a4.28 4.28 0 0 0 .576 1.608c.304.464.736.832 1.296 1.104.576.272 1.328.408 2.256.408.928 0 1.664-.216 2.208-.648.544-.448.936-1.048 1.176-1.8.24-.768.36-1.632.36-2.592v-7.44c0-.64-.12-1.176-.36-1.608-.224-.448-.64-.672-1.248-.672h-.144c-.24 0-.36-.12-.36-.36v-.72c0-.24.12-.36.36-.36h5.952Zm4.843 7.872c.096-.224.273-.504.529-.84.255-.352.64-.664 1.151-.936.513-.272 1.177-.408 1.992-.408.544 0 1.12.112 1.728.336.609.224 1.184.584 1.729 1.08.543.496.983 1.144 1.32 1.944.351.8.527 1.784.527 2.952 0 1.472-.264 2.68-.791 3.624-.529.928-1.217 1.608-2.065 2.04a5.942 5.942 0 0 1-2.736.648c-1.215 0-2.255-.384-3.12-1.152v1.92c0 .64.145 1.176.432 1.608.288.448.728.672 1.32.672.24 0 .36.12.36.36v.72c0 .24-.12.36-.36.36h-6.864c-.24 0-.36-.12-.36-.36v-.72c0-.24.129-.36.385-.36.592 0 1.024-.224 1.296-.672.288-.432.431-.968.431-1.608v-8.256c0-.432-.023-.848-.072-1.248-.047-.4-.175-.736-.383-1.008-.193-.288-.513-.456-.96-.504-.113-.016-.184-.048-.217-.096a.476.476 0 0 1-.047-.216v-.816c0-.208.111-.312.336-.312.8 0 1.456-.032 1.968-.096.511-.08.951-.192 1.32-.336.383-.144.76-.304 1.127-.48a.233.233 0 0 1 .12-.048h.121c.032 0 .048.024.048.072a.722.722 0 0 1-.024.12c0 .064-.017.248-.048.552-.033.288-.097.776-.193 1.464Zm.265 5.856c.064.496.2.976.407 1.44.224.464.529.84.912 1.128.384.288.84.432 1.368.432.768 0 1.368-.192 1.8-.576.432-.384.728-.88.889-1.488a6.82 6.82 0 0 0 .263-1.896c0-1.536-.312-2.752-.936-3.648-.608-.896-1.407-1.344-2.4-1.344-.64 0-1.16.184-1.56.552-.383.352-.632.696-.743 1.032v4.368Zm22.22-.168c0 .576.088 1.096.264 1.56.176.448.56.712 1.152.792.192.016.288.12.288.312v.792c0 .224-.12.336-.36.336-.784 0-1.44.048-1.968.144-.512.08-.96.192-1.344.336-.368.128-.736.272-1.104.432a.387.387 0 0 1-.168.048h-.048c-.048 0-.072-.024-.072-.072l.096-1.08c.048-.352.104-.704.168-1.056-.08.208-.256.488-.528.84-.256.352-.64.672-1.152.96-.496.272-1.152.408-1.968.408-.544 0-1.128-.112-1.752-.336-.608-.224-1.184-.584-1.728-1.08-.544-.496-.992-1.144-1.344-1.944-.336-.816-.504-1.808-.504-2.976 0-1.488.264-2.688.792-3.6.544-.928 1.24-1.608 2.088-2.04a6.038 6.038 0 0 1 2.736-.648c1.216 0 2.248.376 3.096 1.128v-1.536c0-.432-.032-.848-.096-1.248-.048-.4-.168-.736-.36-1.008-.192-.288-.512-.456-.96-.504-.192-.016-.288-.12-.288-.312v-.816c0-.096.032-.16.096-.192a.813.813 0 0 1 .264-.12c1.264-.416 2.248-.832 2.952-1.248.72-.416 1.24-.744 1.56-.984a.233.233 0 0 1 .12-.048h.024c.032 0 .048.016.048.048v14.712Zm-3.36-3.336c0-.752-.248-1.392-.744-1.92-.48-.528-1.12-.792-1.92-.792-.768 0-1.368.168-1.8.504a2.667 2.667 0 0 0-.912 1.344c-.16.56-.24 1.176-.24 1.848 0 1.536.304 2.752.912 3.648.624.896 1.424 1.344 2.4 1.344.432 0 .808-.104 1.128-.312.32-.224.576-.496.768-.816a2.82 2.82 0 0 0 .408-.912v-3.936Zm17.657 3.336c0 .576.088 1.096.264 1.56.176.448.56.712 1.152.792.192.016.288.12.288.312v.792c0 .224-.12.336-.36.336-.784 0-1.44.048-1.968.144-.512.08-.96.192-1.344.336-.368.128-.736.272-1.104.432a.387.387 0 0 1-.168.048h-.072c-.032 0-.048-.032-.048-.096s.016-.216.048-.456c.032-.256.064-.536.096-.84l.12-.816c-.08.208-.256.488-.528.84-.256.352-.64.672-1.152.96-.496.272-1.152.408-1.968.408-.544 0-1.128-.112-1.752-.336-.608-.224-1.184-.584-1.728-1.08-.544-.496-.992-1.144-1.344-1.944-.336-.816-.504-1.808-.504-2.976 0-1.488.264-2.688.792-3.6.544-.928 1.24-1.608 2.088-2.04a6.038 6.038 0 0 1 2.736-.648c.784 0 1.504.12 2.16.36a5.23 5.23 0 0 1 1.728 1.032 18.69 18.69 0 0 0 1.056-.48c.304-.16.56-.32.768-.48l.24-.192c.096-.064.2-.128.312-.192a.233.233 0 0 1 .12-.048h.024c.032 0 .048.016.048.048v7.824Zm-3.36-3.768a3.591 3.591 0 0 0-.36-1.056 2.483 2.483 0 0 0-.816-1.008c-.368-.288-.864-.432-1.488-.432-.768 0-1.368.192-1.8.576-.432.368-.736.848-.912 1.44a7.241 7.241 0 0 0-.24 1.896c0 1.536.304 2.752.912 3.648.624.896 1.424 1.344 2.4 1.344.576 0 1.024-.12 1.344-.36.336-.256.576-.512.72-.768.144-.256.224-.408.24-.456v-4.824Zm14.487 6.48a.351.351 0 0 1 .072.216c0 .096-.064.184-.192.264l-.72.456a9.452 9.452 0 0 1-1.56.768 5.245 5.245 0 0 1-1.824.336c-.48 0-.936-.112-1.368-.336-.416-.224-.752-.6-1.008-1.128-.256-.544-.384-1.288-.384-2.232v-4.44c0-.432-.024-.856-.072-1.272-.048-.432-.2-.784-.456-1.056-.24-.272-.648-.408-1.224-.408-.24 0-.36-.12-.36-.36v-.72c0-.24.12-.36.36-.36h1.752v-1.608c0-.208.072-.352.216-.432.352-.192.816-.456 1.392-.792a8.226 8.226 0 0 0 1.536-1.2.163.163 0 0 1 .12-.048h.048c.032 0 .048.024.048.072V101h3.216c.24 0 .36.12.36.36v1.032c0 .24-.12.36-.36.36H91.92v6.864c0 .624.096 1.056.288 1.296a.91.91 0 0 0 .72.336c.272 0 .56-.072.864-.216.304-.16.584-.32.84-.48a.59.59 0 0 1 .264-.096c.096 0 .184.064.264.192l.384.624Zm8.181.288c.24 0 .36.12.36.36v.72c0 .24-.136.36-.408.36h-6.792c-.272 0-.408-.12-.408-.36v-.72c0-.24.12-.36.36-.36h.048c.592 0 1.024-.216 1.296-.648.288-.448.432-.992.432-1.632v-2.544c0-.368-.032-.736-.096-1.104a2.109 2.109 0 0 0-.36-.96c-.192-.272-.512-.432-.96-.48-.192-.016-.288-.12-.288-.312v-.816c0-.096.032-.16.096-.192a.813.813 0 0 1 .264-.12c1.264-.416 2.232-.84 2.904-1.272.688-.448 1.192-.84 1.512-1.176.032-.032.064-.048.096-.048h.072c.032 0 .048.016.048.048v8.952c0 .64.144 1.184.432 1.632.288.448.728.672 1.32.672h.072Zm-3.432-16.32c.416 0 .824.2 1.224.6.4.4.6.8.6 1.2 0 .4-.2.8-.6 1.2-.4.4-.808.6-1.224.6-.384 0-.784-.2-1.2-.6-.4-.384-.6-.784-.6-1.2 0-.4.2-.8.6-1.2.4-.4.8-.6 1.2-.6Zm18.322 9.936v4.104c0 .88.136 1.48.408 1.8.288.32.664.48 1.128.48h.192c.24 0 .36.12.36.36v.72c0 .24-.12.36-.36.36h-6.384c-.24 0-.36-.12-.36-.36v-.72c0-.24.12-.36.36-.36h.168c.336 0 .608-.16.816-.48.208-.32.312-.92.312-1.8v-4.104c0-.768-.12-1.352-.36-1.752-.24-.416-.696-.624-1.368-.624-.4 0-.8.104-1.2.312-.4.192-.752.448-1.056.768a3 3 0 0 0-.672.984v4.416c0 .64.136 1.184.408 1.632.288.432.664.648 1.128.648h.048c.24 0 .36.12.36.36v.72c0 .24-.12.36-.36.36h-6.744c-.24 0-.36-.12-.36-.36v-.72c0-.24.12-.36.36-.36h.048c.592 0 1.032-.216 1.32-.648.288-.448.432-.992.432-1.632v-3.024c0-.432-.032-.848-.096-1.248-.048-.4-.176-.736-.384-1.008-.192-.288-.512-.456-.96-.504-.176-.016-.264-.12-.264-.312v-.816c0-.16.112-.264.336-.312 1.152-.176 2.136-.448 2.952-.816.832-.368 1.408-.664 1.728-.888.08-.064.144-.096.192-.096h.024c.032 0 .048.016.048.048s-.008.096-.024.192l-.408 2.952a8.4 8.4 0 0 1 .888-1.176c.368-.432.824-.8 1.368-1.104.544-.32 1.176-.48 1.896-.48.864 0 1.568.128 2.112.384s.952.6 1.224 1.032c.288.432.48.912.576 1.44.112.528.168 1.072.168 1.632Zm14.584-4.896a.789.789 0 0 1 .192-.024c.08 0 .12.12.12.36 0 .784-.152 1.392-.456 1.824-.288.432-.704.648-1.248.648.384.64.576 1.376.576 2.208 0 .848-.216 1.624-.648 2.328-.416.688-1.016 1.24-1.8 1.656-.784.4-1.728.6-2.832.6-1.12 0-2.088-.224-2.904-.672-.208.16-.312.36-.312.6s.088.448.264.624c.176.16.512.296 1.008.408.512.096 1.256.168 2.232.216.704.032 1.384.104 2.04.216a6.593 6.593 0 0 1 1.8.552c.528.24.944.584 1.248 1.032.32.448.48 1.032.48 1.752 0 .656-.176 1.208-.528 1.656-.336.464-.8.832-1.392 1.104a7.706 7.706 0 0 1-1.92.6c-.704.128-1.416.192-2.136.192-.976 0-1.88-.104-2.712-.312-.816-.208-1.48-.528-1.992-.96-.496-.432-.744-.984-.744-1.656 0-.528.136-.984.408-1.368a3.425 3.425 0 0 1 1.032-.888c-.816-.512-1.224-1.24-1.224-2.184 0-.544.136-1.008.408-1.392a2.518 2.518 0 0 1 1.08-.84c-.944-.864-1.416-1.952-1.416-3.264 0-.848.208-1.616.624-2.304.432-.704 1.04-1.264 1.824-1.68.8-.416 1.744-.624 2.832-.624.672 0 1.28.088 1.824.264.56.16 1.056.384 1.488.672.08.048.144.08.192.096h.144c.128 0 .232-.04.312-.12.08-.096.12-.264.12-.504v-.072c0-.208.088-.328.264-.36l1.752-.384Zm-6.096 1.848c-.608 0-1.088.168-1.44.504a2.855 2.855 0 0 0-.72 1.248 5.48 5.48 0 0 0-.192 1.416c0 .464.064.944.192 1.44.144.48.384.888.72 1.224.352.336.832.504 1.44.504s1.064-.168 1.368-.504c.32-.336.536-.744.648-1.224.112-.496.168-.976.168-1.44 0-.464-.056-.936-.168-1.416a2.598 2.598 0 0 0-.648-1.248c-.304-.336-.76-.504-1.368-.504Zm-.096 14.376c1.184 0 2.088-.112 2.712-.336.64-.224.96-.52.96-.888 0-.512-.336-.856-1.008-1.032-.672-.16-1.616-.272-2.832-.336-.864-.048-1.608-.144-2.232-.288-.448.304-.672.728-.672 1.272 0 .24.088.48.264.72.176.256.488.464.936.624.448.176 1.072.264 1.872.264Zm22.115-5.232a.351.351 0 0 1 .072.216c0 .096-.064.184-.192.264l-.72.456a9.452 9.452 0 0 1-1.56.768 5.245 5.245 0 0 1-1.824.336c-.48 0-.936-.112-1.368-.336-.416-.224-.752-.6-1.008-1.128-.256-.544-.384-1.288-.384-2.232v-4.44c0-.432-.024-.856-.072-1.272-.048-.432-.2-.784-.456-1.056-.24-.272-.648-.408-1.224-.408-.24 0-.36-.12-.36-.36v-.72c0-.24.12-.36.36-.36h1.752v-1.608c0-.208.072-.352.216-.432.352-.192.816-.456 1.392-.792a8.226 8.226 0 0 0 1.536-1.2.163.163 0 0 1 .12-.048h.048c.032 0 .048.024.048.072V101h3.216c.24 0 .36.12.36.36v1.032c0 .24-.12.36-.36.36h-3.216v6.864c0 .624.096 1.056.288 1.296a.91.91 0 0 0 .72.336c.272 0 .56-.072.864-.216.304-.16.584-.32.84-.48a.59.59 0 0 1 .264-.096c.096 0 .184.064.264.192l.384.624Zm16.294.288c.24 0 .36.12.36.36v.72c0 .24-.12.36-.36.36h-6.528c-.24 0-.36-.12-.36-.36v-.72c0-.24.12-.36.36-.36h.072c.448 0 .768-.216.96-.648.192-.448.288-.992.288-1.632v-4.104c0-.8-.104-1.392-.312-1.776-.208-.4-.68-.6-1.416-.6-.592 0-1.176.176-1.752.528-.56.352-.952.784-1.176 1.296v4.656c0 .64.144 1.184.432 1.632.304.432.752.648 1.344.648h.048c.24 0 .36.12.36.36v.72c0 .24-.12.36-.36.36h-6.984c-.24 0-.36-.12-.36-.36v-.72c0-.24.12-.36.36-.36h.048c.592 0 1.032-.216 1.32-.648.288-.448.432-.992.432-1.632v-9c0-.432-.032-.848-.096-1.248-.048-.4-.168-.736-.36-1.008-.192-.288-.512-.456-.96-.504-.192-.016-.288-.12-.288-.312v-.816c0-.096.024-.16.072-.192a.813.813 0 0 1 .264-.12c.752-.256 1.512-.56 2.28-.912a11.697 11.697 0 0 0 2.232-1.32.233.233 0 0 1 .12-.048h.024c.032 0 .048.016.048.048v9.216c.144-.288.384-.616.72-.984.352-.368.8-.688 1.344-.96.544-.288 1.184-.432 1.92-.432.752 0 1.432.12 2.04.36.624.24 1.12.664 1.488 1.272.368.592.552 1.432.552 2.52v4.44c0 .64.144 1.184.432 1.632.288.432.728.648 1.32.648h.072Zm3.854-2.856c.272.672.704 1.272 1.296 1.8.608.528 1.376.792 2.304.792.512 0 1.048-.144 1.608-.432.56-.288 1.048-.736 1.464-1.344.048-.08.112-.12.192-.12s.16.024.24.072c.096.048.336.184.72.408a.228.228 0 0 1 .096.192c0 .112-.048.248-.144.408a5.74 5.74 0 0 1-1.824 2.04c-.768.528-1.768.792-3 .792-1.328 0-2.472-.296-3.432-.888a6.175 6.175 0 0 1-2.232-2.352 6.766 6.766 0 0 1-.768-3.192c0-1.104.16-2.048.48-2.832.336-.8.776-1.44 1.32-1.92a5.06 5.06 0 0 1 1.824-1.08 6.3 6.3 0 0 1 2.088-.36c.8 0 1.504.16 2.112.48a4.91 4.91 0 0 1 1.536 1.176c.432.48.752.992.96 1.536.224.528.336 1.024.336 1.488 0 .128-.072.224-.216.288l-6.96 3.048Zm3.576-3.432c0-.768-.184-1.4-.552-1.896-.368-.496-.832-.744-1.392-.744-.656 0-1.176.264-1.56.792-.384.512-.576 1.16-.576 1.944 0 .24.008.536.024.888.032.352.096.672.192.96l3.864-1.944ZM44.784 129c.24 0 .36.12.36.36v.72c0 .24-.12.36-.36.36-.592 0-1.032.216-1.32.648-.288.432-.432.976-.432 1.632v13.92c0 .24-.12.36-.36.36h-1.656c-.16 0-.304-.072-.432-.216l-11.352-13.056v9.552c0 .64.144 1.184.432 1.632.304.432.752.648 1.344.648.24 0 .36.12.36.36v.72c0 .24-.12.36-.36.36H25.08c-.24 0-.36-.12-.36-.36v-.72c0-.24.12-.36.36-.36.592 0 1.032-.216 1.32-.648.288-.448.432-.992.432-1.632v-12.24a2.57 2.57 0 0 0-.72-.456 2 2 0 0 0-.792-.144c-.24 0-.36-.12-.36-.36v-.72c0-.24.12-.36.36-.36h4.152c.176 0 .32.072.432.216l10.728 12.24v-8.736c0-.656-.152-1.2-.456-1.632-.288-.432-.728-.648-1.32-.648-.24 0-.36-.12-.36-.36v-.72c0-.24.12-.36.36-.36h5.928Zm7.73 16.56c.24 0 .36.12.36.36v.72c0 .24-.136.36-.408.36h-6.792c-.272 0-.408-.12-.408-.36v-.72c0-.24.12-.36.36-.36h.048c.592 0 1.024-.216 1.296-.648.288-.448.432-.992.432-1.632v-2.544c0-.368-.032-.736-.096-1.104a2.109 2.109 0 0 0-.36-.96c-.192-.272-.512-.432-.96-.48-.192-.016-.288-.12-.288-.312v-.816c0-.096.032-.16.096-.192a.813.813 0 0 1 .264-.12c1.264-.416 2.232-.84 2.904-1.272.688-.448 1.192-.84 1.512-1.176.032-.032.064-.048.096-.048h.072c.032 0 .048.016.048.048v8.952c0 .64.144 1.184.432 1.632.288.448.728.672 1.32.672h.072Zm-3.432-16.32c.416 0 .824.2 1.224.6.4.4.6.8.6 1.2 0 .4-.2.8-.6 1.2-.4.4-.808.6-1.224.6-.384 0-.784-.2-1.2-.6-.4-.384-.6-.784-.6-1.2 0-.4.2-.8.6-1.2.4-.4.8-.6 1.2-.6Zm14.453 9.48a.566.566 0 0 1-.24.072c-.111 0-.215-.056-.312-.168-.72-.912-1.471-1.552-2.255-1.92-.785-.368-1.465-.552-2.04-.552-.416 0-.8.088-1.153.264-.351.176-.527.496-.527.96 0 .352.127.648.383.888.273.224.617.408 1.032.552.416.144.84.272 1.273.384a27.19 27.19 0 0 1 1.872.504c.64.192 1.224.448 1.752.768.527.304.952.688 1.271 1.152.337.464.505 1.048.505 1.752 0 .752-.209 1.424-.624 2.016-.4.592-.976 1.064-1.728 1.416-.752.336-1.648.504-2.688.504-.496 0-.984-.064-1.464-.192a7.138 7.138 0 0 1-1.32-.456.553.553 0 0 0-.216-.072c-.112 0-.168.056-.168.168 0 .032.016.096.047.192.032.096.048.16.048.192 0 .128-.095.192-.287.192h-.864a.452.452 0 0 1-.409-.24l-2.064-3.864a.553.553 0 0 1-.072-.216c0-.112.065-.208.193-.288l.744-.432a.553.553 0 0 1 .216-.072c.096 0 .184.072.264.216.783 1.168 1.64 2 2.568 2.496.944.496 1.904.744 2.88.744 1.535 0 2.303-.456 2.303-1.368 0-.416-.191-.76-.575-1.032-.369-.272-.833-.496-1.393-.672a19.473 19.473 0 0 0-1.656-.456c-1.024-.256-1.84-.544-2.448-.864-.608-.336-1.064-.688-1.367-1.056-.304-.384-.512-.76-.624-1.128a4.55 4.55 0 0 1-.145-1.104c0-.96.368-1.752 1.105-2.376.736-.624 1.736-.936 3-.936.752 0 1.416.104 1.992.312.575.192.975.352 1.2.48a.368.368 0 0 0 .144.048c.047 0 .072-.032.072-.096 0-.048-.024-.144-.072-.288a.744.744 0 0 0-.049-.168v-.12c0-.16.104-.24.313-.24h.623c.208 0 .344.088.408.264l1.2 3.048a.566.566 0 0 1 .072.24c0 .112-.063.2-.191.264l-.528.288Zm12.61 0a.566.566 0 0 1-.24.072c-.112 0-.216-.056-.312-.168-.72-.912-1.472-1.552-2.256-1.92-.784-.368-1.464-.552-2.04-.552-.416 0-.8.088-1.152.264-.352.176-.528.496-.528.96 0 .352.128.648.384.888.272.224.616.408 1.032.552.416.144.84.272 1.272.384.624.144 1.248.312 1.872.504.64.192 1.224.448 1.752.768.528.304.952.688 1.272 1.152.336.464.504 1.048.504 1.752 0 .752-.208 1.424-.624 2.016-.4.592-.976 1.064-1.728 1.416-.752.336-1.648.504-2.688.504-.496 0-.984-.064-1.464-.192a7.138 7.138 0 0 1-1.32-.456.553.553 0 0 0-.216-.072c-.112 0-.168.056-.168.168 0 .032.016.096.048.192s.048.16.048.192c0 .128-.096.192-.288.192h-.864a.452.452 0 0 1-.408-.24l-2.064-3.864a.553.553 0 0 1-.072-.216c0-.112.064-.208.192-.288l.744-.432a.553.553 0 0 1 .216-.072c.096 0 .184.072.264.216.784 1.168 1.64 2 2.568 2.496.944.496 1.904.744 2.88.744 1.536 0 2.304-.456 2.304-1.368 0-.416-.192-.76-.576-1.032-.368-.272-.832-.496-1.392-.672a19.473 19.473 0 0 0-1.656-.456c-1.024-.256-1.84-.544-2.448-.864-.608-.336-1.064-.688-1.368-1.056-.304-.384-.512-.76-.624-1.128a4.55 4.55 0 0 1-.144-1.104c0-.96.368-1.752 1.104-2.376.736-.624 1.736-.936 3-.936.752 0 1.416.104 1.992.312.576.192.976.352 1.2.48a.368.368 0 0 0 .144.048c.048 0 .072-.032.072-.096 0-.048-.024-.144-.072-.288a.744.744 0 0 0-.048-.168v-.12c0-.16.104-.24.312-.24h.624c.208 0 .344.088.408.264l1.2 3.048a.566.566 0 0 1 .072.24c0 .112-.064.2-.192.264l-.528.288Zm14.624 3.84c0 .576.088 1.096.264 1.56.176.448.56.712 1.152.792.192.016.288.12.288.312v.792c0 .224-.12.336-.36.336-.784 0-1.44.048-1.968.144-.512.08-.96.192-1.344.336-.368.128-.736.272-1.104.432a.387.387 0 0 1-.168.048h-.072c-.032 0-.048-.032-.048-.096s.016-.216.048-.456c.032-.256.064-.536.096-.84l.12-.816c-.08.208-.256.488-.528.84-.256.352-.64.672-1.152.96-.496.272-1.152.408-1.968.408-.544 0-1.128-.112-1.752-.336-.608-.224-1.184-.584-1.728-1.08-.544-.496-.992-1.144-1.344-1.944-.336-.816-.504-1.808-.504-2.976 0-1.488.264-2.688.792-3.6.544-.928 1.24-1.608 2.088-2.04a6.038 6.038 0 0 1 2.736-.648c.784 0 1.504.12 2.16.36a5.23 5.23 0 0 1 1.728 1.032 18.69 18.69 0 0 0 1.056-.48c.304-.16.56-.32.768-.48l.24-.192c.096-.064.2-.128.312-.192a.233.233 0 0 1 .12-.048h.024c.032 0 .048.016.048.048v7.824Zm-3.36-3.768a3.591 3.591 0 0 0-.36-1.056 2.483 2.483 0 0 0-.816-1.008c-.368-.288-.864-.432-1.488-.432-.768 0-1.368.192-1.8.576-.432.368-.736.848-.912 1.44a7.241 7.241 0 0 0-.24 1.896c0 1.536.304 2.752.912 3.648.624.896 1.424 1.344 2.4 1.344.576 0 1.024-.12 1.344-.36.336-.256.576-.512.72-.768.144-.256.224-.408.24-.456v-4.824Zm19.604.384v4.104c0 .88.136 1.48.408 1.8.288.32.664.48 1.128.48h.192c.24 0 .36.12.36.36v.72c0 .24-.12.36-.36.36h-6.384c-.24 0-.36-.12-.36-.36v-.72c0-.24.12-.36.36-.36h.168c.336 0 .608-.16.816-.48.208-.32.312-.92.312-1.8v-4.104c0-.768-.12-1.352-.36-1.752-.24-.416-.696-.624-1.368-.624-.4 0-.8.104-1.2.312-.4.192-.752.448-1.056.768a3 3 0 0 0-.672.984v4.416c0 .64.136 1.184.408 1.632.288.432.664.648 1.128.648h.048c.24 0 .36.12.36.36v.72c0 .24-.12.36-.36.36h-6.744c-.24 0-.36-.12-.36-.36v-.72c0-.24.12-.36.36-.36h.048c.592 0 1.032-.216 1.32-.648.288-.448.432-.992.432-1.632v-3.024c0-.432-.032-.848-.096-1.248-.048-.4-.176-.736-.384-1.008-.192-.288-.512-.456-.96-.504-.176-.016-.264-.12-.264-.312v-.816c0-.16.112-.264.336-.312 1.152-.176 2.136-.448 2.952-.816.832-.368 1.408-.664 1.728-.888.08-.064.144-.096.192-.096h.024c.032 0 .048.016.048.048s-.008.096-.024.192l-.408 2.952a8.4 8.4 0 0 1 .888-1.176c.368-.432.824-.8 1.368-1.104.544-.32 1.176-.48 1.896-.48.864 0 1.568.128 2.112.384s.952.6 1.224 1.032c.288.432.48.912.576 1.44.112.528.168 1.072.168 1.632Zm24.76 2.688c.144.064.216.16.216.288 0 .016-.008.04-.024.072a.668.668 0 0 1-.048.144l-2.256 4.752c-.064.144-.16.216-.288.216a.233.233 0 0 1-.12-.048c-.048-.016-.12-.072-.216-.168-.08-.08-.24-.12-.48-.12h-12.024c-.24 0-.36-.12-.36-.36v-.72c0-.24.12-.36.36-.36 1.184 0 1.776-.76 1.776-2.28v-10.536c0-1.52-.592-2.28-1.776-2.28-.24 0-.36-.12-.36-.36v-.72c0-.256.12-.384.36-.384h7.272c.304 0 .456.128.456.384v.72c0 .24-.144.36-.432.36h-1.704v12.552c0 1.52.552 2.28 1.656 2.28h.936c1.168 0 2.24-.248 3.216-.744.976-.512 1.808-1.464 2.496-2.856l.072-.144c.08-.144.176-.216.288-.216.08 0 .152.024.216.072l.768.456Zm4.427.84c.272.672.704 1.272 1.296 1.8.608.528 1.376.792 2.304.792.512 0 1.048-.144 1.608-.432.56-.288 1.048-.736 1.464-1.344.048-.08.112-.12.192-.12s.16.024.24.072c.096.048.336.184.72.408a.228.228 0 0 1 .096.192c0 .112-.048.248-.144.408a5.74 5.74 0 0 1-1.824 2.04c-.768.528-1.768.792-3 .792-1.328 0-2.472-.296-3.432-.888a6.175 6.175 0 0 1-2.232-2.352 6.766 6.766 0 0 1-.768-3.192c0-1.104.16-2.048.48-2.832.336-.8.776-1.44 1.32-1.92a5.06 5.06 0 0 1 1.824-1.08 6.3 6.3 0 0 1 2.088-.36c.8 0 1.504.16 2.112.48a4.91 4.91 0 0 1 1.536 1.176c.432.48.752.992.96 1.536.224.528.336 1.024.336 1.488 0 .128-.072.224-.216.288l-6.96 3.048Zm3.576-3.432c0-.768-.184-1.4-.552-1.896-.368-.496-.832-.744-1.392-.744-.656 0-1.176.264-1.56.792-.384.512-.576 1.16-.576 1.944 0 .24.008.536.024.888.032.352.096.672.192.96l3.864-1.944Zm16.899 3.288c0 .576.088 1.096.264 1.56.176.448.56.712 1.152.792.192.016.288.12.288.312v.792c0 .224-.12.336-.36.336-.784 0-1.44.048-1.968.144-.512.08-.96.192-1.344.336-.368.128-.736.272-1.104.432a.387.387 0 0 1-.168.048h-.072c-.032 0-.048-.032-.048-.096s.016-.216.048-.456c.032-.256.064-.536.096-.84l.12-.816c-.08.208-.256.488-.528.84-.256.352-.64.672-1.152.96-.496.272-1.152.408-1.968.408-.544 0-1.128-.112-1.752-.336-.608-.224-1.184-.584-1.728-1.08-.544-.496-.992-1.144-1.344-1.944-.336-.816-.504-1.808-.504-2.976 0-1.488.264-2.688.792-3.6.544-.928 1.24-1.608 2.088-2.04a6.038 6.038 0 0 1 2.736-.648c.784 0 1.504.12 2.16.36a5.23 5.23 0 0 1 1.728 1.032 18.69 18.69 0 0 0 1.056-.48c.304-.16.56-.32.768-.48l.24-.192c.096-.064.2-.128.312-.192a.233.233 0 0 1 .12-.048h.024c.032 0 .048.016.048.048v7.824Zm-3.36-3.768a3.591 3.591 0 0 0-.36-1.056 2.483 2.483 0 0 0-.816-1.008c-.368-.288-.864-.432-1.488-.432-.768 0-1.368.192-1.8.576-.432.368-.736.848-.912 1.44a7.241 7.241 0 0 0-.24 1.896c0 1.536.304 2.752.912 3.648.624.896 1.424 1.344 2.4 1.344.576 0 1.024-.12 1.344-.36.336-.256.576-.512.72-.768.144-.256.224-.408.24-.456v-4.824Zm8.442-3.984c0-.72.088-1.48.264-2.28a8 8 0 0 1 .864-2.28 5.11 5.11 0 0 1 1.656-1.752c.704-.464 1.584-.696 2.64-.696 1.28 0 2.224.248 2.832.744.624.48.936 1.08.936 1.8 0 .416-.08.816-.24 1.2a.76.76 0 0 1-.216.288c-.08.08-.208.136-.384.168-.288.064-.632.144-1.032.24-.384.08-.736.152-1.056.216-.304.064-.48.096-.528.096-.096 0-.144-.072-.144-.216 0-.08.024-.168.072-.264.304-.608.456-1.136.456-1.584 0-.448-.12-.784-.36-1.008-.224-.24-.48-.36-.768-.36-.384 0-.72.176-1.008.528-.304.352-.512.84-.624 1.464-.096.624-.144 1.392-.144 2.304V135h3.216c.24 0 .36.12.36.36v1.032c0 .24-.12.36-.36.36h-3.216v6.528c0 .64.144 1.184.432 1.632.304.432.752.648 1.344.648.24 0 .36.12.36.36v.72c0 .24-.12.36-.36.36h-6.768c-.24 0-.36-.12-.36-.36v-.72c0-.24.12-.36.36-.36.592 0 1.032-.216 1.32-.648.288-.448.432-.992.432-1.632v-4.104c0-.432-.024-.856-.072-1.272-.048-.432-.2-.784-.456-1.056-.24-.272-.648-.408-1.224-.408-.24 0-.36-.12-.36-.36v-.72c0-.24.12-.36.36-.36h1.776v-.192ZM41.424 175.864c.144.08.216.168.216.264a.566.566 0 0 1-.072.24l-2.256 4.752c-.064.144-.16.216-.288.216a.298.298 0 0 1-.216-.096l-.12-.12c-.08-.08-.24-.12-.48-.12H25.08c-.24 0-.36-.12-.36-.36v-.72c0-.24.12-.36.36-.36h.048c1.152 0 1.728-.76 1.728-2.28v-10.536c0-1.52-.584-2.28-1.752-2.28h-.024c-.24 0-.36-.12-.36-.36v-.72c0-.256.12-.384.36-.384h12.024c.208 0 .36-.04.456-.12l.144-.12a.26.26 0 0 1 .192-.072c.128 0 .232.064.312.192l1.896 3.264a.351.351 0 0 1 .072.216c0 .112-.064.208-.192.288l-.96.528a.59.59 0 0 1-.264.096c-.112 0-.208-.072-.288-.216l-.072-.12c-.496-.832-1.032-1.408-1.608-1.728-.56-.336-1.304-.504-2.232-.504h-3.888v5.64h2.112c.72 0 1.28-.136 1.68-.408.4-.272.6-.672.6-1.2v-.168c0-.24.12-.36.36-.36h.72c.24 0 .36.12.36.36v5.448c0 .24-.12.36-.36.36h-.72c-.24 0-.36-.12-.36-.36v-.144c0-.544-.2-.944-.6-1.2-.384-.272-.944-.408-1.68-.408h-2.112v4.752c0 1.52.552 2.28 1.656 2.28h1.56c1.184 0 2.144-.112 2.88-.336.752-.224 1.376-.6 1.872-1.128.512-.528.992-1.24 1.44-2.136l.072-.144c.08-.128.184-.192.312-.192.08 0 .144.016.192.048l.768.456Zm.519 3.696c.496 0 .888-.12 1.176-.36.304-.24.656-.616 1.056-1.128l2.592-3.312-2.328-2.808c-.832-1.008-1.536-1.512-2.112-1.512h-.048c-.24 0-.36-.12-.36-.36v-.72c0-.24.12-.36.36-.36h6.024c.24 0 .36.12.36.36v.72c0 .24-.12.36-.36.36h-.048c-.592 0-.888.112-.888.336 0 .176.144.432.432.768l1.608 1.968 1.2-1.56c.224-.288.4-.536.528-.744.128-.208.192-.368.192-.48 0-.192-.192-.288-.576-.288h-.24c-.24 0-.36-.12-.36-.36v-.72c0-.24.12-.36.36-.36h4.392c.24 0 .36.12.36.36v.72c0 .24-.12.36-.36.36h-.336c-.496 0-.872.112-1.128.336-.256.224-.592.608-1.008 1.152l-2.088 2.712 2.808 3.408c.816 1.008 1.52 1.512 2.112 1.512h.048c.24 0 .36.12.36.36v.72c0 .24-.12.36-.36.36h-6.144c-.24 0-.36-.12-.36-.36v-.72c0-.24.12-.36.36-.36h.048c.16 0 .344-.032.552-.096.224-.064.336-.2.336-.408 0-.16-.12-.392-.36-.696l-2.064-2.496-1.68 2.184a46.75 46.75 0 0 0-.528.744c-.128.192-.192.352-.192.48 0 .192.2.288.6.288h.456c.24 0 .36.12.36.36v.72c0 .24-.12.36-.36.36h-4.392c-.24 0-.36-.12-.36-.36v-.72c0-.24.12-.36.36-.36Zm19.357-8.688c.096-.224.272-.504.528-.84.256-.352.64-.664 1.152-.936.512-.272 1.176-.408 1.992-.408.544 0 1.12.112 1.728.336.608.224 1.184.584 1.728 1.08.544.496.984 1.144 1.32 1.944.352.8.528 1.784.528 2.952 0 1.472-.264 2.68-.792 3.624-.528.928-1.216 1.608-2.064 2.04a5.942 5.942 0 0 1-2.736.648c-1.216 0-2.256-.384-3.12-1.152v1.92c0 .64.144 1.176.432 1.608.288.448.728.672 1.32.672.24 0 .36.12.36.36v.72c0 .24-.12.36-.36.36h-6.864c-.24 0-.36-.12-.36-.36v-.72c0-.24.128-.36.384-.36.592 0 1.024-.224 1.296-.672.288-.432.432-.968.432-1.608v-8.256c0-.432-.024-.848-.072-1.248-.048-.4-.176-.736-.384-1.008-.192-.288-.512-.456-.96-.504-.112-.016-.184-.048-.216-.096a.476.476 0 0 1-.048-.216v-.816c0-.208.112-.312.336-.312.8 0 1.456-.032 1.968-.096.512-.08.952-.192 1.32-.336.384-.144.76-.304 1.128-.48a.233.233 0 0 1 .12-.048h.12c.032 0 .048.024.048.072a.722.722 0 0 1-.024.12c0 .064-.016.248-.048.552-.032.288-.096.776-.192 1.464Zm.264 5.856c.064.496.2.976.408 1.44.224.464.528.84.912 1.128.384.288.84.432 1.368.432.768 0 1.368-.192 1.8-.576.432-.384.728-.88.888-1.488.176-.608.264-1.24.264-1.896 0-1.536-.312-2.752-.936-3.648-.608-.896-1.408-1.344-2.4-1.344-.64 0-1.16.184-1.56.552-.384.352-.632.696-.744 1.032v4.368Zm13.628-.024c.272.672.704 1.272 1.296 1.8.608.528 1.376.792 2.304.792.512 0 1.048-.144 1.608-.432.56-.288 1.048-.736 1.464-1.344.048-.08.112-.12.192-.12s.16.024.24.072c.096.048.336.184.72.408a.228.228 0 0 1 .096.192c0 .112-.048.248-.144.408a5.74 5.74 0 0 1-1.824 2.04c-.768.528-1.768.792-3 .792-1.328 0-2.472-.296-3.432-.888a6.175 6.175 0 0 1-2.232-2.352 6.766 6.766 0 0 1-.768-3.192c0-1.104.16-2.048.48-2.832.336-.8.776-1.44 1.32-1.92a5.06 5.06 0 0 1 1.824-1.08 6.3 6.3 0 0 1 2.088-.36c.8 0 1.504.16 2.112.48a4.91 4.91 0 0 1 1.536 1.176c.432.48.752.992.96 1.536.224.528.336 1.024.336 1.488 0 .128-.072.224-.216.288l-6.96 3.048Zm3.576-3.432c0-.768-.184-1.4-.552-1.896-.368-.496-.832-.744-1.392-.744-.656 0-1.176.264-1.56.792-.384.512-.576 1.16-.576 1.944 0 .24.008.536.024.888.032.352.096.672.192.96l3.864-1.944Zm10.12-1.752c.432-.928 1.032-1.632 1.8-2.112.768-.48 1.576-.72 2.424-.72.752 0 1.392.208 1.92.624.528.416.792 1.032.792 1.848 0 .352-.032.664-.096.936s-.24.472-.528.6l-2.256.912a.762.762 0 0 1-.216.048c-.144 0-.216-.072-.216-.216 0-.048.016-.12.048-.216.096-.224.152-.44.168-.648a3.68 3.68 0 0 0 .048-.552c0-.432-.112-.744-.336-.936a1.073 1.073 0 0 0-.792-.312c-.368 0-.712.112-1.032.336-.32.224-.6.496-.84.816-.24.32-.416.632-.528.936v4.416c0 .64.144 1.184.432 1.632.288.432.728.648 1.32.648h.048c.24 0 .36.12.36.36v.72c0 .24-.12.36-.36.36h-6.984c-.24 0-.36-.12-.36-.36v-.72c0-.24.12-.36.36-.36h.048c.592 0 1.032-.216 1.32-.648.288-.448.432-.992.432-1.632v-3.024c0-.432-.032-.848-.096-1.248-.048-.4-.168-.736-.36-1.008-.192-.288-.512-.456-.96-.504-.192-.016-.288-.12-.288-.312v-.816c0-.16.12-.264.36-.312 1.136-.176 2.128-.456 2.976-.84.864-.384 1.448-.688 1.752-.912a.233.233 0 0 1 .12-.048h.048c.032 0 .048.016.048.048a5.8 5.8 0 0 1-.072.36 24 24 0 0 1-.144.864c-.048.336-.112.688-.192 1.056l-.168.936Zm14.79 8.04c.24 0 .36.12.36.36v.72c0 .24-.136.36-.408.36h-6.792c-.272 0-.408-.12-.408-.36v-.72c0-.24.12-.36.36-.36h.048c.592 0 1.024-.216 1.296-.648.288-.448.432-.992.432-1.632v-2.544c0-.368-.032-.736-.096-1.104a2.109 2.109 0 0 0-.36-.96c-.192-.272-.512-.432-.96-.48-.192-.016-.288-.12-.288-.312v-.816c0-.096.032-.16.096-.192a.813.813 0 0 1 .264-.12c1.264-.416 2.232-.84 2.904-1.272.688-.448 1.192-.84 1.512-1.176.032-.032.064-.048.096-.048h.072c.032 0 .048.016.048.048v8.952c0 .64.144 1.184.432 1.632.288.448.728.672 1.32.672h.072Zm-3.432-16.32c.416 0 .824.2 1.224.6.4.4.6.8.6 1.2 0 .4-.2.8-.6 1.2-.4.4-.808.6-1.224.6-.384 0-.784-.2-1.2-.6-.4-.384-.6-.784-.6-1.2 0-.4.2-.8.6-1.2.4-.4.8-.6 1.2-.6Zm7.782 13.464c.272.672.704 1.272 1.296 1.8.608.528 1.376.792 2.304.792.512 0 1.048-.144 1.608-.432.56-.288 1.048-.736 1.464-1.344.048-.08.112-.12.192-.12s.16.024.24.072c.096.048.336.184.72.408a.228.228 0 0 1 .096.192c0 .112-.048.248-.144.408a5.74 5.74 0 0 1-1.824 2.04c-.768.528-1.768.792-3 .792-1.328 0-2.472-.296-3.432-.888a6.175 6.175 0 0 1-2.232-2.352 6.766 6.766 0 0 1-.768-3.192c0-1.104.16-2.048.48-2.832.336-.8.776-1.44 1.32-1.92a5.06 5.06 0 0 1 1.824-1.08 6.3 6.3 0 0 1 2.088-.36c.8 0 1.504.16 2.112.48a4.91 4.91 0 0 1 1.536 1.176c.432.48.752.992.96 1.536.224.528.336 1.024.336 1.488 0 .128-.072.224-.216.288l-6.96 3.048Zm3.576-3.432c0-.768-.184-1.4-.552-1.896-.368-.496-.832-.744-1.392-.744-.656 0-1.176.264-1.56.792-.384.512-.576 1.16-.576 1.944 0 .24.008.536.024.888.032.352.096.672.192.96l3.864-1.944Zm18.472-.096v4.104c0 .88.136 1.48.408 1.8.288.32.664.48 1.128.48h.192c.24 0 .36.12.36.36v.72c0 .24-.12.36-.36.36h-6.384c-.24 0-.36-.12-.36-.36v-.72c0-.24.12-.36.36-.36h.168c.336 0 .608-.16.816-.48.208-.32.312-.92.312-1.8v-4.104c0-.768-.12-1.352-.36-1.752-.24-.416-.696-.624-1.368-.624-.4 0-.8.104-1.2.312-.4.192-.752.448-1.056.768a3 3 0 0 0-.672.984v4.416c0 .64.136 1.184.408 1.632.288.432.664.648 1.128.648h.048c.24 0 .36.12.36.36v.72c0 .24-.12.36-.36.36H116.9c-.24 0-.36-.12-.36-.36v-.72c0-.24.12-.36.36-.36h.048c.592 0 1.032-.216 1.32-.648.288-.448.432-.992.432-1.632v-3.024c0-.432-.032-.848-.096-1.248-.048-.4-.176-.736-.384-1.008-.192-.288-.512-.456-.96-.504-.176-.016-.264-.12-.264-.312v-.816c0-.16.112-.264.336-.312 1.152-.176 2.136-.448 2.952-.816.832-.368 1.408-.664 1.728-.888.08-.064.144-.096.192-.096h.024c.032 0 .048.016.048.048s-.008.096-.024.192l-.408 2.952a8.4 8.4 0 0 1 .888-1.176c.368-.432.824-.8 1.368-1.104.544-.32 1.176-.48 1.896-.48.864 0 1.568.128 2.112.384s.952.6 1.224 1.032c.288.432.48.912.576 1.44.112.528.168 1.072.168 1.632Zm12.83 4.584c.128.096.192.2.192.312a.786.786 0 0 1-.048.192c-.464 1.024-1.152 1.792-2.064 2.304a5.993 5.993 0 0 1-2.952.744c-.896 0-1.712-.192-2.448-.576a5.957 5.957 0 0 1-1.872-1.584 6.564 6.564 0 0 1-1.128-2.208 7.02 7.02 0 0 1-.264-2.52c.112-1.328.48-2.416 1.104-3.264.624-.848 1.376-1.472 2.256-1.872.896-.4 1.792-.6 2.688-.6 1.056 0 1.912.16 2.568.48.656.32 1.16.736 1.512 1.248.352.512.592 1.048.72 1.608.016.064.024.12.024.168 0 .128-.096.216-.288.264l-2.76.72a.762.762 0 0 1-.216.048c-.112 0-.168-.056-.168-.168v-.192a1.14 1.14 0 0 0 .024-.264c0-.512-.16-.968-.48-1.368-.32-.4-.816-.6-1.488-.6-.608 0-1.088.192-1.44.576-.352.384-.608.88-.768 1.488a7.896 7.896 0 0 0-.216 1.872c0 .784.104 1.528.312 2.232.208.704.544 1.28 1.008 1.728.48.432 1.128.648 1.944.648a3.58 3.58 0 0 0 1.776-.456 4 4 0 0 0 1.344-1.296.311.311 0 0 1 .288-.168c.08 0 .152.024.216.072l.624.432Zm4.802-1.056c.272.672.704 1.272 1.296 1.8.608.528 1.376.792 2.304.792.512 0 1.048-.144 1.608-.432.56-.288 1.048-.736 1.464-1.344.048-.08.112-.12.192-.12s.16.024.24.072c.096.048.336.184.72.408a.228.228 0 0 1 .096.192c0 .112-.048.248-.144.408a5.74 5.74 0 0 1-1.824 2.04c-.768.528-1.768.792-3 .792-1.328 0-2.472-.296-3.432-.888a6.175 6.175 0 0 1-2.232-2.352 6.766 6.766 0 0 1-.768-3.192c0-1.104.16-2.048.48-2.832.336-.8.776-1.44 1.32-1.92a5.06 5.06 0 0 1 1.824-1.08 6.3 6.3 0 0 1 2.088-.36c.8 0 1.504.16 2.112.48a4.91 4.91 0 0 1 1.536 1.176c.432.48.752.992.96 1.536.224.528.336 1.024.336 1.488 0 .128-.072.224-.216.288l-6.96 3.048Zm3.576-3.432c0-.768-.184-1.4-.552-1.896-.368-.496-.832-.744-1.392-.744-.656 0-1.176.264-1.56.792-.384.512-.576 1.16-.576 1.944 0 .24.008.536.024.888.032.352.096.672.192.96l3.864-1.944Z"/><g filter="url(#b)"><rect width="280.915" height="117.048" x="205" y="77" fill="url(#c)" rx="4.682"/><rect width="280.447" height="116.58" x="205.234" y="77.234" stroke="url(#d)" stroke-width=".468" rx="4.448"/><g stroke="#F1F2F3" stroke-linecap="round" stroke-linejoin="round" stroke-width=".293" clip-path="url(#e)"><path d="M427.609 85.779a1.756 1.756 0 1 0 0-3.511 1.756 1.756 0 0 0 0 3.511Z"/><path d="M427.609 82.999v1.024h1.025"/></g><path fill="#F1F2F3" d="M431.538 85.523v-2.51l.12.128h-.738v-.24h.888v2.622h-.27Zm1.942.022a.954.954 0 0 1-.54-.157 1.08 1.08 0 0 1-.37-.457c-.09-.2-.135-.44-.135-.719 0-.28.045-.518.135-.715.09-.2.213-.353.37-.457a.938.938 0 0 1 .54-.161c.202 0 .382.053.539.16.158.105.281.258.371.458.092.197.139.435.139.715 0 .28-.047.52-.139.72-.09.196-.213.349-.371.456a.948.948 0 0 1-.539.157Zm0-.247c.155 0 .29-.041.404-.123a.831.831 0 0 0 .27-.367c.065-.163.097-.361.097-.596s-.032-.432-.097-.592a.804.804 0 0 0-.27-.367.658.658 0 0 0-.404-.127.666.666 0 0 0-.401.127.795.795 0 0 0-.273.367c-.065.16-.098.357-.098.592s.033.433.098.596a.82.82 0 0 0 .273.367.68.68 0 0 0 .401.123Zm1.637-1.352a.194.194 0 0 1-.142-.06.203.203 0 0 1-.056-.146c0-.06.018-.108.056-.146a.2.2 0 0 1 .142-.056.19.19 0 0 1 .139.056c.04.038.06.086.06.146 0 .058-.02.106-.06.146a.184.184 0 0 1-.139.06Zm0 1.596a.194.194 0 0 1-.142-.06.203.203 0 0 1-.056-.146c0-.06.018-.109.056-.146a.2.2 0 0 1 .142-.057.19.19 0 0 1 .139.057.19.19 0 0 1 .06.146.2.2 0 0 1-.06.146.184.184 0 0 1-.139.06Zm1.374.003c-.189 0-.369-.03-.539-.09a1.122 1.122 0 0 1-.405-.247l.132-.213c.084.087.198.16.34.217.145.057.303.086.472.086.218 0 .384-.047.499-.142a.467.467 0 0 0 .176-.382.47.47 0 0 0-.173-.382c-.112-.095-.291-.142-.535-.142h-.188v-.199l.809-1.015.038.105h-1.461v-.24h1.686v.191l-.809 1.015-.132-.086h.102c.314 0 .549.07.704.21a.69.69 0 0 1 .236.54.76.76 0 0 1-.105.396.71.71 0 0 1-.319.277 1.21 1.21 0 0 1-.528.101Zm1.265-.022v-.191l1.09-1.067c.1-.098.174-.183.224-.255a.745.745 0 0 0 .102-.21.727.727 0 0 0 .026-.183.443.443 0 0 0-.158-.36c-.102-.088-.254-.131-.457-.131-.154 0-.292.023-.412.071a.777.777 0 0 0-.303.221l-.191-.165c.102-.12.234-.212.393-.277.16-.065.339-.097.536-.097.177 0 .331.028.461.086a.656.656 0 0 1 .408.622.86.86 0 0 1-.038.25.87.87 0 0 1-.127.263c-.06.09-.148.192-.266.307l-1 .981-.075-.105h1.626v.24h-1.839Zm3.39 0V82.9h.981c.222 0 .413.036.573.109.16.07.282.172.367.307a.853.853 0 0 1 .131.483.857.857 0 0 1-.131.48.828.828 0 0 1-.367.307c-.16.072-.351.108-.573.108h-.828l.124-.13v.958h-.277Zm.277-.936-.124-.135h.821c.262 0 .46-.056.595-.169a.596.596 0 0 0 .206-.483c0-.21-.069-.372-.206-.487-.135-.115-.333-.172-.595-.172h-.821l.124-.131v1.577Zm2.375.936V82.9h.228l1.199 2.045h-.12l1.187-2.045h.229v2.622h-.266v-2.206h.063l-1.093 1.873h-.131l-1.102-1.873h.072v2.206h-.266Z"/><g stroke="#E5F8FF" stroke-linecap="round" stroke-linejoin="round" stroke-width=".293" clip-path="url(#f)"><path d="M454.658 84.223a1.173 1.173 0 0 1-.683-.815 1.169 1.169 0 0 0 1.387-.818c.055-.19.061-.392.016-.586a1.168 1.168 0 0 1 .908 1.141l-.001.055"/><path d="M455.408 84.316a1.245 1.245 0 1 1 1.244 1.316h-1.463a.805.805 0 1 1 .259-1.566"/></g><path fill="#F1F2F3" d="M460.395 85.545c-.232 0-.429-.05-.588-.153a.979.979 0 0 1-.364-.45 1.84 1.84 0 0 1-.123-.707c0-.298.05-.546.15-.746.102-.202.243-.355.423-.457.18-.102.388-.153.625-.153.118 0 .23.01.337.033a.895.895 0 0 1 .285.109l-.109.217a.631.631 0 0 0-.232-.094c-.087-.02-.18-.03-.277-.03-.282 0-.508.09-.678.27-.167.18-.251.448-.251.805 0 .056.003.124.008.207.007.08.022.16.045.24l-.094-.072a.7.7 0 0 1 .161-.33.76.76 0 0 1 .3-.21 1.06 1.06 0 0 1 .393-.07c.175 0 .328.032.461.097a.756.756 0 0 1 .311.273.763.763 0 0 1 .112.416.785.785 0 0 1-.116.427.791.791 0 0 1-.322.281 1.04 1.04 0 0 1-.457.097Zm-.012-.228a.763.763 0 0 0 .33-.067.558.558 0 0 0 .229-.199.557.557 0 0 0 .082-.303c0-.173-.06-.31-.18-.412-.117-.103-.277-.154-.479-.154a.777.777 0 0 0-.352.075.59.59 0 0 0-.236.206.527.527 0 0 0-.008.566c.053.084.13.154.232.21a.85.85 0 0 0 .382.078Zm2.216.228c-.21 0-.391-.03-.544-.09a.777.777 0 0 1-.348-.258.69.69 0 0 1-.12-.404.63.63 0 0 1 .116-.383.753.753 0 0 1 .345-.247c.152-.057.336-.086.551-.086.212 0 .394.029.546.086a.75.75 0 0 1 .349.248.601.601 0 0 1 .123.382c0 .154-.041.29-.123.404a.779.779 0 0 1-.352.258c-.153.06-.334.09-.543.09Zm0-.228c.232 0 .413-.047.543-.142a.45.45 0 0 0 .198-.386.441.441 0 0 0-.198-.382c-.13-.095-.311-.142-.543-.142-.233 0-.414.047-.544.142a.445.445 0 0 0-.194.382c0 .162.065.29.194.386.13.094.311.142.544.142Zm0-1.086c-.195 0-.361-.026-.499-.079a.693.693 0 0 1-.311-.225.592.592 0 0 1-.108-.356.61.61 0 0 1 .112-.37.726.726 0 0 1 .322-.24c.138-.055.299-.082.484-.082a1.3 1.3 0 0 1 .483.082c.14.055.248.135.326.24a.6.6 0 0 1 .116.37.593.593 0 0 1-.109.356.679.679 0 0 1-.318.225 1.405 1.405 0 0 1-.498.079Zm0-.18c.204 0 .364-.043.479-.127a.402.402 0 0 0 .172-.341.4.4 0 0 0-.18-.349c-.117-.084-.274-.127-.471-.127-.198 0-.355.043-.472.127a.396.396 0 0 0-.176.345c0 .145.056.26.168.345.115.084.275.127.48.127Zm1.98.019a.607.607 0 0 1-.304-.079.586.586 0 0 1-.292-.517.579.579 0 0 1 .292-.513.608.608 0 0 1 .304-.079.591.591 0 0 1 .52.892.595.595 0 0 1-.52.296Zm.004-.158c.079 0 .152-.02.217-.06a.43.43 0 0 0 .213-.378.428.428 0 0 0-.213-.378.429.429 0 0 0-.217-.056.409.409 0 0 0-.379.214.438.438 0 0 0-.056.22.46.46 0 0 0 .056.225.447.447 0 0 0 .154.157.454.454 0 0 0 .225.056Zm1.456.259h1.386v.24h-1.386v-.24Zm.03 1.352h-.277V82.9h1.798v.24h-1.521v2.382Zm-128.804 62.441c-1.916 0-3.553-.422-4.913-1.266-1.36-.845-2.4-2.06-3.121-3.647-.7-1.607-1.051-3.564-1.051-5.871 0-2.451.433-4.522 1.298-6.211.866-1.689 2.071-2.966 3.616-3.832 1.545-.865 3.316-1.297 5.315-1.297 1.03 0 2.008.103 2.935.309.948.206 1.762.525 2.441.958l-1.174 2.41a4.988 4.988 0 0 0-1.916-.804c-.7-.144-1.442-.216-2.225-.216-2.204 0-3.955.69-5.253 2.07-1.298 1.36-1.946 3.389-1.946 6.088 0 .432.02.947.061 1.545.042.597.145 1.184.309 1.761l-1.05-1.05c.309-.948.793-1.741 1.452-2.38a6.256 6.256 0 0 1 2.41-1.452 9.243 9.243 0 0 1 3.059-.494c1.443 0 2.72.267 3.832.803 1.113.536 1.988 1.298 2.627 2.287.638.968.958 2.121.958 3.46 0 1.381-.34 2.586-1.02 3.616-.68 1.03-1.597 1.823-2.75 2.379-1.154.556-2.452.834-3.894.834Zm-.123-2.502c.947 0 1.771-.176 2.472-.526.721-.35 1.287-.834 1.699-1.452.412-.639.618-1.38.618-2.225 0-1.277-.443-2.287-1.328-3.028-.886-.762-2.091-1.144-3.616-1.144-.989 0-1.854.186-2.595.557-.742.37-1.329.875-1.762 1.514-.412.618-.618 1.329-.618 2.132 0 .742.196 1.432.587 2.07.392.618.969 1.123 1.731 1.514.762.392 1.699.588 2.812.588Zm17.094 2.502c-1.525 0-3.008-.236-4.45-.71-1.422-.474-2.586-1.113-3.492-1.916l1.421-2.441c.722.68 1.659 1.236 2.812 1.668 1.154.433 2.38.649 3.678.649 1.648 0 2.915-.35 3.8-1.05.886-.701 1.329-1.638 1.329-2.812 0-.804-.196-1.504-.587-2.101-.391-.598-1.071-1.051-2.039-1.36-.948-.33-2.256-.495-3.925-.495h-4.913l1.143-11.309h12.206v2.688h-11.062l1.606-1.514-.896 8.93-1.606-1.483h4.171c2.163 0 3.904.278 5.222.834 1.319.557 2.277 1.329 2.874 2.318.597.968.896 2.091.896 3.368a6.657 6.657 0 0 1-.896 3.399c-.597 1.01-1.504 1.823-2.719 2.441-1.195.598-2.719.896-4.573.896Z"/><path fill="#ADB3B8" d="M352.646 152.052c.28 0 .522.055.728.164.209.105.371.267.485.485.118.219.177.494.177.826v1.999h-.466v-1.953c0-.363-.087-.636-.262-.819-.17-.188-.413-.282-.727-.282-.236 0-.442.05-.617.151a.993.993 0 0 0-.399.426 1.476 1.476 0 0 0-.138.668v1.809h-.466v-1.953c0-.363-.087-.636-.262-.819-.174-.188-.419-.282-.734-.282-.231 0-.435.05-.609.151a.981.981 0 0 0-.407.426 1.476 1.476 0 0 0-.137.668v1.809h-.466v-3.441h.446v.931l-.072-.164c.105-.249.273-.443.505-.583.235-.145.513-.217.832-.217.336 0 .623.086.859.256.236.166.389.417.458.754l-.183-.072c.1-.28.277-.505.531-.675.258-.175.566-.263.924-.263Zm4.428 3.507c-.297 0-.566-.068-.806-.203a1.542 1.542 0 0 1-.577-.597c-.14-.262-.21-.581-.21-.957 0-.375.07-.692.21-.95.14-.262.33-.461.57-.596.241-.136.512-.204.813-.204.328 0 .621.075.878.223.263.144.468.35.617.616.148.263.222.566.222.911 0 .35-.074.656-.222.918a1.602 1.602 0 0 1-.617.616c-.257.149-.55.223-.878.223Zm-1.776 1.239v-4.713h.445v1.036l-.045.688.065.695v2.294h-.465Zm1.743-1.652c.245 0 .463-.054.656-.164.192-.113.345-.271.459-.472.113-.205.17-.441.17-.708 0-.266-.057-.5-.17-.701a1.261 1.261 0 0 0-.459-.472 1.273 1.273 0 0 0-.656-.17c-.244 0-.465.057-.662.17a1.261 1.261 0 0 0-.459.472 1.449 1.449 0 0 0-.163.701c0 .267.054.503.163.708.114.201.267.359.459.472.197.11.418.164.662.164Zm4.456-3.094c.279 0 .524.055.734.164.214.105.38.267.498.485.122.219.184.494.184.826v1.999h-.466v-1.953c0-.363-.092-.636-.275-.819-.179-.188-.433-.282-.76-.282-.245 0-.459.05-.643.151a1.007 1.007 0 0 0-.419.426 1.424 1.424 0 0 0-.145.668v1.809h-.465v-4.863h.465v2.366l-.091-.177c.109-.249.284-.443.524-.583.24-.145.527-.217.859-.217Z"/><path fill="#767F87" d="m365.689 117.861-1.268-2.353h-46.325l-9.997 11.172 1.03 1.87 9.975-10.689h46.585Z" opacity=".5"/><path fill="url(#g)" d="m336.814 117.861-1.261-2.354h-17.165l1.009 2.354h17.417Z"/><path fill="#F1F2F3" d="M335.318 115.154h.648l1.684 3.047h-.645l-1.687-3.047Z"/><path fill="#0C0D0E" d="M317.584 115.154h.647l1.685 3.047h-.646l-1.686-3.047Zm27.324 0h.648l1.684 3.047h-.646l-1.686-3.047Z"/><g clip-path="url(#h)"><path stroke="#F1F2F3" stroke-linecap="round" stroke-linejoin="round" stroke-width=".293" d="m319.806 108.896-.292 1.463 1.17.439-2.048 2.194.292-1.463-1.17-.439 2.048-2.194Z"/></g><path fill="#F1F2F3" d="M322.646 112.444v-.191l1.09-1.068c.1-.097.175-.182.225-.254a.74.74 0 0 0 .101-.21.728.728 0 0 0 .026-.184.441.441 0 0 0-.157-.359c-.103-.088-.255-.131-.457-.131-.155 0-.292.023-.412.071a.768.768 0 0 0-.304.221l-.191-.165c.103-.12.234-.212.394-.277.16-.065.338-.097.535-.097.178 0 .331.028.461.086a.65.65 0 0 1 .408.621.905.905 0 0 1-.165.514 2.019 2.019 0 0 1-.265.307l-1.001.981-.074-.105h1.625v.24h-1.839Zm2.416.019a.194.194 0 0 1-.142-.06.208.208 0 0 1-.056-.146c0-.06.019-.109.056-.147a.202.202 0 0 1 .142-.056.19.19 0 0 1 .139.056c.04.038.06.087.06.147a.2.2 0 0 1-.06.146.182.182 0 0 1-.139.06Zm1.411.003c-.189 0-.369-.03-.539-.09a1.108 1.108 0 0 1-.405-.247l.131-.213c.085.087.199.16.341.217.145.057.302.086.472.086.218 0 .384-.047.498-.142a.464.464 0 0 0 .176-.382.47.47 0 0 0-.172-.382c-.112-.095-.291-.143-.535-.143h-.188v-.198l.809-1.015.038.105h-1.461v-.24h1.686v.191l-.81 1.015-.131-.086h.102c.314 0 .549.07.704.21a.688.688 0 0 1 .236.539.76.76 0 0 1-.105.397.71.71 0 0 1-.319.277 1.2 1.2 0 0 1-.528.101Zm4.945-2.007a.88.88 0 0 1 .416.093.62.62 0 0 1 .277.278.987.987 0 0 1 .101.471v1.143h-.266v-1.116c0-.208-.05-.364-.15-.469-.097-.107-.236-.161-.415-.161a.692.692 0 0 0-.353.087.571.571 0 0 0-.228.243.853.853 0 0 0-.079.382v1.034h-.266v-1.116c0-.208-.05-.364-.149-.469a.547.547 0 0 0-.42-.161.681.681 0 0 0-.348.087.557.557 0 0 0-.232.243.84.84 0 0 0-.079.382v1.034h-.266v-1.967h.255v.532l-.042-.093a.698.698 0 0 1 .289-.334.897.897 0 0 1 .476-.123.81.81 0 0 1 .49.146.665.665 0 0 1 .262.431l-.104-.042a.764.764 0 0 1 .303-.385c.147-.1.323-.15.528-.15Zm1.515 1.985v-1.967h.266v1.967h-.266Zm.135-2.401a.188.188 0 0 1-.138-.056.185.185 0 0 1-.057-.135c0-.052.019-.096.057-.131a.184.184 0 0 1 .138-.056c.055 0 .101.017.139.052a.174.174 0 0 1 .056.131.192.192 0 0 1-.195.195Zm.407 2.775 1.236-3.528h.243l-1.236 3.528h-.243Zm1.929-.884.007-.34 1.225-1.117h.326l-.866.828-.149.128-.543.501Zm-.21.51v-2.779h.266v2.779h-.266Zm1.524 0-.82-1.023.172-.206.974 1.229h-.326Zm1.337 0-.884-2.622h.284l.828 2.468h-.142l.854-2.468h.255l.842 2.468h-.135l.836-2.468h.266l-.884 2.622h-.292l-.806-2.341h.075l-.809 2.341h-.288Zm4.514-1.985c.16 0 .3.031.42.093.122.06.217.153.285.278a.963.963 0 0 1 .104.471v1.143h-.266v-1.116c0-.208-.052-.364-.157-.469-.102-.107-.247-.161-.434-.161a.743.743 0 0 0-.367.087.574.574 0 0 0-.24.243.814.814 0 0 0-.083.382v1.034h-.265v-2.779h.265v1.352l-.052-.101a.7.7 0 0 1 .3-.334.938.938 0 0 1 .49-.123Z"/><path fill="#767F87" d="m344.029 154.033-1.218 1.419h-24.343l-4.144-4.508 1.049-1.211 4.054 4.3h24.602Z" opacity=".5"/><path fill="url(#i)" d="m333.676 154.033-1.133 1.419h-14.074l-4.145-4.509 1.053-1.207 4.052 4.297h14.247Z"/><path fill="#F1F2F3" d="M334.161 153.73h-.368l-1.75 2.033h.366l1.752-2.033Z"/><path fill="#0C0D0E" d="M336.462 153.73h-.369l-1.749 2.033h.366l1.752-2.033Zm-8.201 0h-.369l-1.749 2.033h.366l1.752-2.033Zm-8.199 0h-.369l-1.75 2.033h.367l1.752-2.033Z"/><g stroke="#F1F2F3" stroke-linecap="round" stroke-linejoin="round" stroke-width=".293" clip-path="url(#j)"><path d="m319.461 160.709.292-.732h-.585l.293-.731"/><path d="M318.438 161.586v-2.926c0-.077.03-.152.085-.207a.297.297 0 0 1 .207-.085h1.463a.294.294 0 0 1 .293.292v2.926m-2.488 0h2.926"/><path d="M320.484 159.684h.439a.292.292 0 0 1 .293.293v.731a.292.292 0 1 0 .585 0v-1.488a.29.29 0 0 0-.086-.207l-.353-.353"/></g><path fill="#F1F2F3" d="M324.009 161.5c-.19 0-.37-.03-.54-.09a1.11 1.11 0 0 1-.404-.248l.131-.213c.085.087.199.16.341.217.145.058.302.086.472.086.217 0 .383-.047.498-.142a.467.467 0 0 0 .176-.382.47.47 0 0 0-.172-.382c-.113-.095-.291-.142-.536-.142h-.187v-.199l.809-1.015.037.105h-1.46v-.24h1.685v.191l-.809 1.015-.131-.086h.101c.315 0 .549.07.704.21.158.14.236.319.236.539a.707.707 0 0 1-.423.674c-.14.068-.316.102-.528.102Zm2.122 0c-.187 0-.365-.03-.535-.09a1.073 1.073 0 0 1-.405-.248l.131-.213c.083.087.195.16.337.217.145.058.301.086.469.086.222 0 .39-.048.505-.146a.484.484 0 0 0 .176-.389.497.497 0 0 0-.082-.289.506.506 0 0 0-.27-.191 1.626 1.626 0 0 0-.524-.067h-.558l.135-1.315h1.434v.24h-1.326l.139-.131-.116 1.101-.139-.135h.491c.264 0 .477.033.637.098a.68.68 0 0 1 .453.677.73.73 0 0 1-.42.69c-.14.07-.317.105-.532.105Zm2.339 0a.948.948 0 0 1-.539-.158 1.068 1.068 0 0 1-.371-.457 1.74 1.74 0 0 1-.135-.719c0-.28.045-.518.135-.715.09-.2.213-.352.371-.457a.928.928 0 0 1 .539-.161c.202 0 .382.053.539.161.158.105.281.257.371.457.093.197.139.435.139.715 0 .28-.046.519-.139.719-.09.198-.213.35-.371.457a.948.948 0 0 1-.539.158Zm0-.248a.68.68 0 0 0 .405-.123.842.842 0 0 0 .269-.367 1.61 1.61 0 0 0 .098-.596c0-.235-.033-.432-.098-.592a.814.814 0 0 0-.269-.367.662.662 0 0 0-.405-.127.667.667 0 0 0-.401.127.8.8 0 0 0-.273.367c-.065.16-.097.357-.097.592s.032.433.097.596a.826.826 0 0 0 .273.367.684.684 0 0 0 .401.123Zm5.048-1.76c.16 0 .299.031.416.094.12.059.212.152.277.277a.98.98 0 0 1 .101.472v1.142h-.265v-1.116c0-.207-.05-.363-.15-.468-.098-.108-.236-.161-.416-.161a.688.688 0 0 0-.352.086.573.573 0 0 0-.229.243.853.853 0 0 0-.078.382v1.034h-.266v-1.116c0-.207-.05-.363-.15-.468-.1-.108-.24-.161-.419-.161a.682.682 0 0 0-.349.086.562.562 0 0 0-.232.243.853.853 0 0 0-.079.382v1.034h-.266v-1.966h.255v.532l-.041-.094a.693.693 0 0 1 .288-.333.891.891 0 0 1 .476-.124.82.82 0 0 1 .491.146.67.67 0 0 1 .262.431l-.105-.041a.763.763 0 0 1 .303-.386.92.92 0 0 1 .528-.15Zm1.516 1.985v-1.966h.266v1.966h-.266Zm.135-2.401a.19.19 0 0 1-.139-.056.18.18 0 0 1-.056-.135.17.17 0 0 1 .056-.131.19.19 0 0 1 .139-.056c.054 0 .101.017.138.052a.17.17 0 0 1 .056.131.186.186 0 0 1-.056.139.182.182 0 0 1-.138.056Z"/><path fill="#ADB3B8" d="M223.005 191.1v-2.622h.981c.223 0 .414.036.574.109.159.07.282.172.367.307a.859.859 0 0 1 .131.483.867.867 0 0 1-.131.48.84.84 0 0 1-.367.307 1.39 1.39 0 0 1-.574.108h-.827l.123-.131v.959h-.277Zm.277-.936-.123-.135h.82c.262 0 .461-.056.595-.169.138-.115.206-.276.206-.483 0-.21-.068-.372-.206-.487-.134-.115-.333-.172-.595-.172h-.82l.123-.131v1.577Zm4.17.936v-2.622h.982c.222 0 .413.036.573.109.16.07.282.172.367.307a.859.859 0 0 1 .131.483.867.867 0 0 1-.131.48.834.834 0 0 1-.367.307c-.16.07-.351.105-.573.105h-.828l.124-.128v.959h-.278Zm1.791 0-.674-.951h.299l.678.951h-.303Zm-1.513-.936-.124-.131h.82c.262 0 .461-.058.596-.173a.596.596 0 0 0 .206-.483c0-.21-.069-.372-.206-.487-.135-.115-.334-.172-.596-.172h-.82l.124-.131v1.577Zm3.789.936v-2.622h.228l1.809 2.278h-.12v-2.278h.274v2.622h-.229l-1.805-2.277h.12v2.277h-.277Zm10.681 0v-2.622h1.132c.292 0 .518.059.678.176a.58.58 0 0 1 .243.498.619.619 0 0 1-.101.36.609.609 0 0 1-.27.221.901.901 0 0 1-.371.075l.064-.09c.167 0 .311.026.431.079a.603.603 0 0 1 .386.603.608.608 0 0 1-.248.517c-.162.122-.408.183-.738.183H242.2Zm.278-.228h.925c.229 0 .406-.039.528-.116.122-.08.183-.206.183-.379 0-.17-.061-.293-.183-.371-.122-.08-.299-.119-.528-.119h-.955v-.229h.865c.21 0 .372-.04.487-.12a.403.403 0 0 0 .176-.356c0-.159-.059-.278-.176-.355-.115-.08-.277-.12-.487-.12h-.835v2.165Z"/><path fill="#F1F2F3" d="M236.682 191.1v-3.277h1.433c.356 0 .668.068.936.206.269.137.478.327.628.571.15.243.224.531.224.861 0 .328-.074.615-.224.862-.15.243-.359.434-.628.571a2.03 2.03 0 0 1-.936.206h-1.433Zm.609-.515h.796c.246 0 .459-.047.637-.14a.99.99 0 0 0 .416-.394c.1-.168.15-.365.15-.59 0-.227-.05-.424-.15-.589a.99.99 0 0 0-.416-.394 1.36 1.36 0 0 0-.637-.14h-.796v2.247Z"/><path fill="#66EB78" d="M253.664 189.651h1.386v.236h-1.386v-.236Zm.03 1.209h1.577v.24h-1.854v-2.622h1.798v.24h-1.521v2.142Zm3.36.263c-.197 0-.379-.033-.547-.098a1.305 1.305 0 0 1-.723-.704 1.381 1.381 0 0 1-.101-.532c0-.192.034-.369.101-.532a1.31 1.31 0 0 1 .289-.423c.125-.12.271-.212.438-.277.167-.068.35-.101.547-.101.19 0 .368.032.535.097.168.063.309.157.424.285l-.176.176a.952.952 0 0 0-.356-.236 1.16 1.16 0 0 0-.42-.075 1.15 1.15 0 0 0-.438.082 1.06 1.06 0 0 0-.588.573c-.055.13-.082.274-.082.431 0 .157.027.302.082.435a1.076 1.076 0 0 0 1.026.651c.15 0 .29-.025.42-.075a.985.985 0 0 0 .356-.239l.176.176a1.095 1.095 0 0 1-.424.288 1.474 1.474 0 0 1-.539.098Zm2.645 0c-.197 0-.381-.033-.551-.098a1.354 1.354 0 0 1-.438-.281 1.368 1.368 0 0 1-.288-.423 1.363 1.363 0 0 1-.102-.532c0-.192.034-.368.102-.528a1.276 1.276 0 0 1 .726-.704c.168-.068.351-.101.551-.101.197 0 .379.033.547.101.167.065.312.157.434.277.125.12.221.261.289.423.069.163.104.34.104.532s-.035.37-.104.532a1.305 1.305 0 0 1-.723.704c-.168.065-.35.098-.547.098Zm0-.248c.157 0 .302-.026.434-.078a1.043 1.043 0 0 0 .581-.573c.055-.133.082-.278.082-.435 0-.157-.027-.301-.082-.431a1.02 1.02 0 0 0-.232-.344.986.986 0 0 0-.349-.229 1.118 1.118 0 0 0-.434-.082c-.157 0-.304.027-.438.082a1.007 1.007 0 0 0-.352.229 1.1 1.1 0 0 0-.233.344c-.055.13-.082.274-.082.431 0 .155.027.299.082.431.058.132.135.248.233.348.099.098.217.174.352.229.134.052.281.078.438.078Z"/><path fill="#0872FD" d="M266.005 191.119c-.205 0-.385-.043-.539-.128a.962.962 0 0 1-.364-.355 1.034 1.034 0 0 1-.131-.521c0-.195.041-.367.124-.517a.93.93 0 0 1 .344-.352.956.956 0 0 1 .495-.131c.185 0 .348.042.49.127.145.083.259.2.341.352a1.06 1.06 0 0 1 .12.562v.041h-1.712v-.198h1.57l-.105.079a.748.748 0 0 0-.341-.641.7.7 0 0 0-.363-.094.718.718 0 0 0-.364.094.66.66 0 0 0-.251.262.82.82 0 0 0-.089.386v.041c0 .15.032.282.097.397.067.113.16.201.277.266.12.063.256.094.408.094.12 0 .231-.021.334-.064a.674.674 0 0 0 .269-.195l.15.173a.836.836 0 0 1-.329.239c-.13.055-.274.083-.431.083Zm1.316-.918v-.232h.981v.232h-.981Zm1.632.899v-2.622h.981c.223 0 .414.036.573.109a.8.8 0 0 1 .368.307.859.859 0 0 1 .131.483.867.867 0 0 1-.131.48.837.837 0 0 1-.368.307c-.159.072-.35.108-.573.108h-.827l.123-.131v.959h-.277Zm.277-.936-.123-.135h.82c.262 0 .461-.056.595-.169.138-.115.206-.276.206-.483 0-.21-.068-.372-.206-.487-.134-.115-.333-.172-.595-.172h-.82l.123-.131v1.577Zm2.622-.513h1.386v.236h-1.386v-.236Zm.03 1.209h1.577v.24h-1.854v-2.622h1.798v.24h-1.521v2.142Zm2.228.24v-2.622h1.068c.28 0 .524.056.734.169.212.11.377.263.494.46.118.198.177.425.177.682 0 .257-.059.485-.177.682a1.23 1.23 0 0 1-.494.464c-.21.11-.454.165-.734.165h-1.068Zm.278-.24h.775c.232 0 .433-.045.603-.134.172-.093.306-.219.401-.379.095-.162.142-.348.142-.558 0-.212-.047-.398-.142-.558a.98.98 0 0 0-.401-.374 1.238 1.238 0 0 0-.603-.139h-.775v2.142Zm2.361.24 1.198-2.622h.274l1.198 2.622h-.292l-1.101-2.461h.112l-1.101 2.461h-.288Zm.472-.7.082-.225h1.525l.082.225h-1.689Zm2.632.7v-2.622h.277v2.382h1.469v.24h-1.746Z"/><path fill="#ADB3B8" d="M445.775 191.1v-2.509l.12.127h-.738v-.24h.887v2.622h-.269Zm.847 0v-.191l1.09-1.067c.1-.098.175-.183.225-.255a.713.713 0 0 0 .128-.393.443.443 0 0 0-.158-.36c-.102-.087-.254-.131-.457-.131-.155 0-.292.024-.412.071a.782.782 0 0 0-.303.221l-.191-.165a.997.997 0 0 1 .393-.277 1.41 1.41 0 0 1 .536-.097c.177 0 .331.028.46.086a.65.65 0 0 1 .409.622.907.907 0 0 1-.165.513c-.06.09-.149.192-.266.307l-1 .981-.075-.105h1.626v.24h-1.84Zm2.23.547.164-.693.03.161a.208.208 0 0 1-.146-.056.2.2 0 0 1-.056-.146c0-.06.019-.109.056-.146a.2.2 0 0 1 .143-.056c.057 0 .103.02.138.059a.2.2 0 0 1 .056.143l-.003.06a.557.557 0 0 1-.015.067 4.71 4.71 0 0 1-.03.09l-.158.517h-.179Zm1.598-.524c-.19 0-.37-.03-.54-.09a1.11 1.11 0 0 1-.404-.248l.131-.213c.085.087.198.16.341.217.145.058.302.086.472.086.217 0 .383-.047.498-.142a.467.467 0 0 0 .176-.382.472.472 0 0 0-.172-.382c-.113-.095-.291-.142-.536-.142h-.187v-.199l.809-1.015.037.105h-1.461v-.24h1.686v.191l-.809 1.015-.131-.086h.101c.315 0 .549.07.704.21a.69.69 0 0 1 .236.539.707.707 0 0 1-.423.674c-.14.068-.316.102-.528.102Zm1.286-.712v-.195l1.39-1.738h.299l-1.378 1.738-.146-.045h2.109v.24h-2.274Zm1.48.689v-.689l.007-.24v-.607h.262v1.536h-.269Zm1.862.023a1.6 1.6 0 0 1-.536-.09 1.069 1.069 0 0 1-.404-.248l.131-.213c.082.087.195.16.337.217.145.058.301.086.468.086.222 0 .391-.048.506-.146a.487.487 0 0 0 .176-.389.497.497 0 0 0-.083-.289.503.503 0 0 0-.269-.191 1.633 1.633 0 0 0-.525-.067h-.558l.135-1.315h1.435v.24h-1.326l.138-.131-.116 1.101-.138-.135h.49c.265 0 .477.033.637.098a.678.678 0 0 1 .453.678.734.734 0 0 1-.419.689c-.14.07-.317.105-.532.105Zm4.907-2.008c.16 0 .298.031.416.094.12.06.212.152.277.277a.99.99 0 0 1 .101.472v1.142h-.266v-1.116c0-.207-.05-.363-.15-.468-.097-.108-.236-.161-.416-.161a.69.69 0 0 0-.352.086.571.571 0 0 0-.228.243.842.842 0 0 0-.079.382v1.034h-.266v-1.116c0-.207-.05-.363-.15-.468-.099-.108-.239-.161-.419-.161a.68.68 0 0 0-.348.086.564.564 0 0 0-.233.243.856.856 0 0 0-.078.382v1.034h-.266v-1.966h.255v.532l-.042-.094a.69.69 0 0 1 .289-.333.888.888 0 0 1 .475-.124c.193 0 .356.049.491.146a.668.668 0 0 1 .262.431l-.105-.041a.77.77 0 0 1 .304-.386c.147-.1.323-.15.528-.15Zm1.515 1.985v-1.966h.266v1.966h-.266Zm.135-2.401a.192.192 0 0 1-.195-.191c0-.052.019-.096.056-.131a.192.192 0 0 1 .139-.056c.055 0 .101.017.139.052a.174.174 0 0 1 .056.131.19.19 0 0 1-.056.139.184.184 0 0 1-.139.056Zm.871 2.401v-2.779h.266v2.779h-.266Zm1.841.019c-.205 0-.384-.043-.539-.128a.962.962 0 0 1-.364-.355 1.034 1.034 0 0 1-.131-.521c0-.195.042-.367.124-.517a.953.953 0 0 1 .839-.483.94.94 0 0 1 .491.127c.144.083.258.2.341.352a1.07 1.07 0 0 1 .119.562v.041h-1.711v-.198h1.569l-.105.079a.758.758 0 0 0-.093-.379.666.666 0 0 0-.611-.356.711.711 0 0 0-.363.094.653.653 0 0 0-.251.262.809.809 0 0 0-.09.386v.041c0 .15.032.282.097.397a.73.73 0 0 0 .277.266c.12.063.256.094.409.094.12 0 .231-.021.333-.064a.684.684 0 0 0 .27-.195l.15.173a.847.847 0 0 1-.33.239c-.13.055-.274.083-.431.083Zm1.954 0c-.163 0-.316-.023-.461-.068a.997.997 0 0 1-.341-.176l.12-.209a1.226 1.226 0 0 0 .7.221c.188 0 .322-.029.405-.087a.277.277 0 0 0 .123-.236.206.206 0 0 0-.071-.168.406.406 0 0 0-.18-.094 2.007 2.007 0 0 0-.251-.056 5.599 5.599 0 0 1-.277-.052 1.09 1.09 0 0 1-.247-.086.511.511 0 0 1-.183-.162.476.476 0 0 1-.068-.269c0-.108.03-.204.09-.289a.577.577 0 0 1 .262-.198c.118-.05.26-.075.427-.075.128 0 .255.017.382.052.128.033.232.077.315.131l-.116.214a.867.867 0 0 0-.281-.127c-.1-.028-.2-.042-.3-.042-.177 0-.308.032-.393.094a.276.276 0 0 0-.124.232.23.23 0 0 0 .068.176.487.487 0 0 0 .183.101c.078.023.161.042.251.057.093.015.184.033.274.056.092.02.176.049.251.086a.424.424 0 0 1 .254.412.48.48 0 0 1-.097.3.62.62 0 0 1-.277.194c-.12.045-.266.068-.438.068Z"/></g><defs><linearGradient id="a" x1="510" x2="0" y1="127" y2="127" gradientUnits="userSpaceOnUse"><stop stop-color="#0FBBFF"/><stop offset=".693" stop-color="#034F6F"/><stop offset="1" stop-color="#00344B"/></linearGradient><linearGradient id="c" x1="345.457" x2="345.457" y1="77" y2="194.048" gradientUnits="userSpaceOnUse"><stop stop-color="#0C0D0E"/><stop offset="1" stop-color="#19191B"/></linearGradient><linearGradient id="d" x1="485.915" x2="205" y1="94.44" y2="178.832" gradientUnits="userSpaceOnUse"><stop stop-color="#D8D8D8"/><stop offset=".198" stop-color="#A6A6A6" stop-opacity=".5"/><stop offset=".355" stop-color="#606060" stop-opacity=".5"/><stop offset=".64" stop-color="#303030" stop-opacity=".5"/><stop offset=".756" stop-color="#A6A6A6" stop-opacity=".5"/><stop offset="1" stop-color="#D8D8D8"/></linearGradient><linearGradient id="g" x1="334.236" x2="318.842" y1="116.684" y2="116.684" gradientUnits="userSpaceOnUse"><stop stop-color="#0FBBFF"/><stop offset="1" stop-color="#001219"/></linearGradient><linearGradient id="i" x1="332.968" x2="316.372" y1="154.698" y2="150.372" gradientUnits="userSpaceOnUse"><stop stop-color="#0FBBFF"/><stop offset="1" stop-color="#001219"/></linearGradient><clipPath id="e"><path fill="#fff" d="M425.268 81.682h4.682v4.682h-4.682z"/></clipPath><clipPath id="f"><path fill="#fff" d="M453.506 81.682h4.682v4.682h-4.682z"/></clipPath><clipPath id="h"><path fill="#fff" d="M316.881 108.603h4.682v4.682h-4.682z"/></clipPath><clipPath id="j"><path fill="#fff" d="M317.412 157.636h4.682v4.682h-4.682z"/></clipPath><filter id="b" width="290.278" height="126.412" x="205" y="77" color-interpolation-filters="sRGB" filterUnits="userSpaceOnUse"><feFlood flood-opacity="0" result="BackgroundImageFix"/><feColorMatrix in="SourceAlpha" result="hardAlpha" values="0 0 0 0 0 0 0 0 0 0 0 0 0 0 0 0 0 0 127 0"/><feOffset dx="4.682" dy="4.682"/><feGaussianBlur stdDeviation="2.341"/><feComposite in2="hardAlpha" operator="out"/><feColorMatrix values="0 0 0 0 0 0 0 0 0 0.0705882 0 0 0 0 0.0980392 0 0 0 0.3 0"/><feBlend in2="BackgroundImageFix" result="effect1_dropShadow_40000489_60656"/><feBlend in="SourceGraphic" in2="effect1_dropShadow_40000489_60656" result="shape"/></filter></defs></svg>