<svg xmlns="http://www.w3.org/2000/svg" width="618" height="150" fill="none"><rect width="150" height="150" fill="#2E48B8" rx="6"/><path fill="#fff" d="m24.62 84 6.147-18.004h3.738L40.44 84h-3.15l-1.33-4.088h-6.818L27.799 84H24.62Zm5.293-6.356h5.334l-2.66-8.064-2.674 8.064Zm22.913-7.224h2.982V84h-2.982V70.42Zm-9.38 0h2.996v8.344c0 .952.233 1.67.7 2.156.466.476 1.12.714 1.96.714.7 0 1.33-.182 1.89-.546.57-.373 1.017-.91 1.344-1.61.326-.7.49-1.55.49-2.548h.868c0 1.615-.215 2.968-.644 4.06-.43 1.083-1.027 1.9-1.792 2.45-.766.541-1.657.812-2.674.812-.97 0-1.848-.177-2.632-.532a4.057 4.057 0 0 1-1.834-1.666c-.448-.765-.672-1.764-.672-2.996V70.42Zm22.738 13.958a5.946 5.946 0 0 1-3.136-.882c-.961-.588-1.74-1.419-2.338-2.492-.588-1.073-.882-2.333-.882-3.78 0-1.53.294-2.823.882-3.878.598-1.064 1.377-1.871 2.338-2.422a6.25 6.25 0 0 1 3.136-.826c.85 0 1.601.135 2.254.406.663.27 1.228.635 1.694 1.092.467.457.836.97 1.106 1.54.28.56.467 1.134.56 1.722l-3.038.112c-.168-.644-.476-1.167-.924-1.568-.438-.41-.998-.616-1.68-.616a2.97 2.97 0 0 0-1.61.476c-.494.308-.9.789-1.218 1.442-.308.653-.462 1.493-.462 2.52 0 .961.145 1.773.434 2.436.29.653.682 1.153 1.176 1.498a2.963 2.963 0 0 0 1.68.504c.887 0 1.54-.215 1.96-.644.43-.439.644-1.027.644-1.764h3.038c0 .952-.219 1.815-.658 2.59-.438.775-1.078 1.39-1.918 1.848-.83.457-1.843.686-3.038.686Zm14.137 0c-.784 0-1.498-.145-2.142-.434a3.602 3.602 0 0 1-1.526-1.344c-.382-.607-.574-1.367-.574-2.282V66.836h2.982V80.22c0 1.185.565 1.778 1.694 1.778.346 0 .686-.037 1.022-.112a8.434 8.434 0 0 0 1.134-.35l.434 2.114a14.28 14.28 0 0 1-1.498.518c-.485.14-.994.21-1.526.21Zm-6.216-11.9v-2.002h8.806v2.002h-8.806Zm14.41-4.676c-.588 0-1.05-.159-1.386-.476-.336-.327-.504-.765-.504-1.316 0-.541.168-.97.504-1.288.337-.317.798-.476 1.386-.476.58 0 1.037.159 1.373.476.335.317.503.747.503 1.288 0 .55-.168.99-.504 1.316-.335.317-.793.476-1.371.476ZM87.017 84V70.42h2.996V84h-2.996Zm13.898.378c-1.223 0-2.329-.266-3.318-.798-.98-.532-1.76-1.325-2.338-2.38-.579-1.055-.868-2.37-.868-3.948 0-1.605.29-2.935.868-3.99.579-1.055 1.358-1.843 2.338-2.366.99-.532 2.095-.798 3.318-.798 1.223 0 2.319.266 3.29.798.98.523 1.755 1.311 2.324 2.366.579 1.055.868 2.385.868 3.99 0 1.577-.289 2.893-.868 3.948-.569 1.055-1.344 1.848-2.324 2.38-.971.532-2.067.798-3.29.798Zm-.084-2.618c.709 0 1.33-.173 1.862-.518.541-.345.961-.854 1.26-1.526.299-.672.448-1.493.448-2.464 0-1.484-.299-2.613-.896-3.388-.588-.784-1.419-1.176-2.492-1.176-.719 0-1.349.173-1.89.518-.532.345-.948.859-1.246 1.54-.299.681-.448 1.517-.448 2.506 0 1.456.299 2.571.896 3.346.597.775 1.432 1.162 2.506 1.162ZM120.782 84v-7.924c0-1.083-.261-1.9-.784-2.45-.513-.56-1.199-.84-2.058-.84-.7 0-1.316.191-1.848.574-.532.383-.947.952-1.246 1.708-.298.756-.448 1.685-.448 2.786h-1.022c0-1.708.215-3.136.644-4.284.439-1.148 1.055-2.011 1.848-2.59.803-.588 1.75-.882 2.842-.882 1.102 0 2.026.247 2.772.742.756.495 1.326 1.19 1.708 2.086.392.896.588 1.946.588 3.15V84h-2.996Zm-9.38 0V70.476h2.618l.378 2.8V84h-2.996Zm63.504-13.384h2.492l4.2 11.508h-.308l4.2-11.508h2.492L182.634 84h-2.38l-5.348-13.384Zm21.922 13.72c-1.298 0-2.38-.182-3.248-.546-.868-.373-1.526-.882-1.974-1.526-.448-.653-.686-1.4-.714-2.24h2.1c.046.85.387 1.489 1.022 1.918.644.42 1.516.63 2.618.63.578 0 1.11-.093 1.596-.28.485-.187.872-.443 1.162-.77.289-.327.434-.695.434-1.106 0-.523-.192-.933-.574-1.232-.383-.299-.994-.56-1.834-.784l-2.604-.84c-1.13-.355-1.998-.84-2.604-1.456a3.127 3.127 0 0 1-.896-2.24c0-1.083.476-1.95 1.428-2.604.952-.653 2.202-.98 3.752-.98 1.642 0 2.916.336 3.822 1.008.905.672 1.376 1.512 1.414 2.52h-2.156a1.754 1.754 0 0 0-.896-1.33c-.514-.308-1.242-.462-2.184-.462-.906 0-1.615.205-2.128.616-.504.401-.756.85-.756 1.344 0 .924.793 1.605 2.38 2.044l2.66.896c1.148.345 2.025.798 2.632 1.358.616.56.924 1.274.924 2.142 0 .672-.22 1.307-.658 1.904-.439.597-1.06 1.083-1.862 1.456-.803.373-1.755.56-2.856.56Zm8.607-1.638c0-.439.154-.817.462-1.134.308-.317.695-.476 1.162-.476.466 0 .863.159 1.19.476.326.317.49.695.49 1.134 0 .439-.164.807-.49 1.106a1.702 1.702 0 0 1-1.19.448c-.467 0-.854-.15-1.162-.448a1.509 1.509 0 0 1-.462-1.106Z"/><rect width="150" height="150" x="234" fill="#1C7373" rx="6"/><path fill="#fff" d="M264.978 84.378c-1.568 0-2.958-.35-4.172-1.05-1.213-.7-2.165-1.745-2.856-3.136-.69-1.39-1.036-3.122-1.036-5.194 0-2.11.346-3.855 1.036-5.236.691-1.381 1.643-2.413 2.856-3.094 1.214-.681 2.604-1.022 4.172-1.022 1.578 0 2.973.35 4.186 1.05 1.223.69 2.175 1.731 2.856 3.122.691 1.381 1.036 3.108 1.036 5.18 0 2.09-.345 3.836-1.036 5.236-.681 1.39-1.633 2.431-2.856 3.122-1.213.681-2.608 1.022-4.186 1.022Zm0-2.73c1.531 0 2.744-.57 3.64-1.708.896-1.148 1.344-2.805 1.344-4.97 0-2.11-.448-3.743-1.344-4.9-.896-1.157-2.109-1.736-3.64-1.736-1.502 0-2.706.583-3.612 1.75-.896 1.157-1.344 2.795-1.344 4.914 0 2.156.448 3.803 1.344 4.942.906 1.139 2.11 1.708 3.612 1.708ZM277.84 84V68.712c0-.961.187-1.74.56-2.338a3.34 3.34 0 0 1 1.484-1.33 4.683 4.683 0 0 1 2.016-.434c.429 0 .873.033 1.33.098a12.4 12.4 0 0 1 1.358.238l-.574 2.324a4.495 4.495 0 0 0-.77-.21 3.412 3.412 0 0 0-.742-.084c-.271 0-.532.051-.784.154a1.285 1.285 0 0 0-.616.546c-.159.252-.238.611-.238 1.078V84h-3.024Zm-2.058-11.522v-2.002h7.644v2.002h-7.644ZM287.93 84V68.712c0-.961.187-1.74.56-2.338a3.34 3.34 0 0 1 1.484-1.33 4.683 4.683 0 0 1 2.016-.434c.429 0 .873.033 1.33.098a12.4 12.4 0 0 1 1.358.238l-.574 2.324a4.495 4.495 0 0 0-.77-.21 3.412 3.412 0 0 0-.742-.084c-.271 0-.532.051-.784.154a1.285 1.285 0 0 0-.616.546c-.159.252-.238.611-.238 1.078V84h-3.024Zm-2.058-11.522v-2.002h7.644v2.002h-7.644Zm16.334 11.9a5.834 5.834 0 0 1-3.164-.896c-.943-.597-1.699-1.433-2.268-2.506-.56-1.073-.84-2.32-.84-3.738 0-1.493.28-2.772.84-3.836.56-1.064 1.311-1.88 2.254-2.45.952-.57 2.011-.854 3.178-.854 1.073 0 1.993.215 2.758.644a5.16 5.16 0 0 1 1.848 1.736c.476.728.798 1.554.966 2.478.168.915.187 1.862.056 2.842h-9.506v-1.666h7.42l-.644.42a6.642 6.642 0 0 0-.07-1.428 3.968 3.968 0 0 0-.434-1.302 2.437 2.437 0 0 0-.882-.966c-.383-.243-.868-.364-1.456-.364-.728 0-1.344.182-1.848.546-.495.364-.868.854-1.12 1.47-.252.616-.378 1.302-.378 2.058v1.204c0 .812.121 1.53.364 2.156.243.625.607 1.12 1.092 1.484.485.364 1.097.546 1.834.546.709 0 1.297-.163 1.764-.49.476-.336.775-.835.896-1.498h3.038a4.992 4.992 0 0 1-.98 2.31 5.247 5.247 0 0 1-1.974 1.554c-.803.364-1.717.546-2.744.546Zm9.755-.378V70.42h2.996V84h-2.996Zm2.226-5.992c0-1.755.191-3.206.574-4.354.382-1.157.905-2.016 1.568-2.576.662-.57 1.418-.854 2.268-.854.252 0 .48.019.686.056.214.028.429.075.644.14l-.084 2.982a6.62 6.62 0 0 0-.812-.154 4.712 4.712 0 0 0-.77-.07c-.738 0-1.354.191-1.848.574-.486.373-.85.92-1.092 1.638-.243.719-.364 1.591-.364 2.618h-.77Zm10.27-10.206c-.588 0-1.05-.159-1.386-.476-.336-.327-.504-.765-.504-1.316 0-.541.168-.97.504-1.288.336-.317.798-.476 1.386-.476.579 0 1.036.159 1.372.476.336.317.504.747.504 1.288 0 .55-.168.99-.504 1.316-.336.317-.793.476-1.372.476ZM322.959 84V70.42h2.996V84h-2.996Zm18.069 0v-7.924c0-1.083-.261-1.9-.784-2.45-.513-.56-1.199-.84-2.058-.84-.7 0-1.316.191-1.848.574-.532.383-.947.952-1.246 1.708-.298.756-.448 1.685-.448 2.786h-1.022c0-1.708.215-3.136.644-4.284.439-1.148 1.055-2.011 1.848-2.59.803-.588 1.75-.882 2.842-.882 1.102 0 2.026.247 2.772.742.756.495 1.326 1.19 1.708 2.086.392.896.588 1.946.588 3.15V84h-2.996Zm-9.38 0V70.476h2.618l.378 2.8V84h-2.996Zm22.378 6.986c-1.503 0-2.796-.21-3.878-.63-1.074-.41-1.9-.961-2.478-1.652-.579-.681-.868-1.423-.868-2.226 0-.98.354-1.736 1.064-2.268.718-.532 1.628-.798 2.73-.798l2.086.854c-.943 0-1.671.182-2.184.546-.504.373-.756.882-.756 1.526 0 .672.373 1.213 1.12 1.624.756.42 1.81.63 3.164.63.998 0 1.862-.145 2.59-.434.737-.29 1.306-.672 1.708-1.148.401-.467.602-.961.602-1.484 0-.355-.126-.653-.378-.896-.243-.243-.621-.364-1.134-.364h-4.732c-.915 0-1.736-.145-2.464-.434-.719-.29-1.288-.677-1.708-1.162-.42-.485-.63-1.022-.63-1.61 0-.57.158-1.055.476-1.456.317-.41.742-.723 1.274-.938a4.64 4.64 0 0 1 1.792-.336l.728 1.008c-.28 0-.551.056-.812.168-.252.112-.462.28-.63.504-.168.215-.252.485-.252.812 0 .383.163.7.49.952.336.252.914.378 1.736.378h4.732c1.4 0 2.496.266 3.29.798.802.523 1.204 1.316 1.204 2.38 0 .952-.322 1.857-.966 2.716-.635.868-1.54 1.573-2.716 2.114-1.176.55-2.576.826-4.2.826Zm.238-11.102c-1.064 0-2.035-.2-2.912-.602-.868-.41-1.564-.98-2.086-1.708-.514-.737-.77-1.596-.77-2.576 0-.99.256-1.853.77-2.59.522-.737 1.218-1.307 2.086-1.708.877-.401 1.848-.602 2.912-.602 1.036 0 1.988.2 2.856.602.868.401 1.563.97 2.086 1.708.522.737.784 1.6.784 2.59 0 .98-.262 1.839-.784 2.576-.523.728-1.218 1.297-2.086 1.708-.868.401-1.82.602-2.856.602Zm.014-2.1c.905 0 1.591-.266 2.058-.798.476-.532.714-1.195.714-1.988 0-.84-.238-1.517-.714-2.03-.467-.513-1.158-.77-2.072-.77-.887 0-1.573.257-2.058.77-.486.513-.728 1.19-.728 2.03 0 .793.242 1.456.728 1.988.485.532 1.176.798 2.072.798Zm4.69-5.516-1.386-.742c0-.812.177-1.517.532-2.114a3.82 3.82 0 0 1 1.47-1.414c.616-.336 1.306-.504 2.072-.504l-.168 2.884c-.822 0-1.447.154-1.876.462-.43.308-.644.784-.644 1.428Zm49.938-1.652h2.492l4.2 11.508h-.308l4.2-11.508h2.492L416.634 84h-2.38l-5.348-13.384Zm21.922 13.72c-1.298 0-2.38-.182-3.248-.546-.868-.373-1.526-.882-1.974-1.526-.448-.653-.686-1.4-.714-2.24h2.1c.046.85.387 1.489 1.022 1.918.644.42 1.516.63 2.618.63.578 0 1.11-.093 1.596-.28.485-.187.872-.443 1.162-.77.289-.327.434-.695.434-1.106 0-.523-.192-.933-.574-1.232-.383-.299-.994-.56-1.834-.784l-2.604-.84c-1.13-.355-1.998-.84-2.604-1.456a3.127 3.127 0 0 1-.896-2.24c0-1.083.476-1.95 1.428-2.604.952-.653 2.202-.98 3.752-.98 1.642 0 2.916.336 3.822 1.008.905.672 1.376 1.512 1.414 2.52h-2.156a1.754 1.754 0 0 0-.896-1.33c-.514-.308-1.242-.462-2.184-.462-.906 0-1.615.205-2.128.616-.504.401-.756.85-.756 1.344 0 .924.793 1.605 2.38 2.044l2.66.896c1.148.345 2.025.798 2.632 1.358.616.56.924 1.274.924 2.142 0 .672-.22 1.307-.658 1.904-.439.597-1.06 1.083-1.862 1.456-.803.373-1.755.56-2.856.56Zm8.607-1.638c0-.439.154-.817.462-1.134.308-.317.695-.476 1.162-.476.466 0 .863.159 1.19.476.326.317.49.695.49 1.134 0 .439-.164.807-.49 1.106a1.702 1.702 0 0 1-1.19.448c-.467 0-.854-.15-1.162-.448a1.509 1.509 0 0 1-.462-1.106Z"/><rect width="150" height="150" x="468" fill="#D56E18" rx="6"/><path fill="#fff" d="M495.157 84.378c-1.577 0-2.949-.383-4.116-1.148-1.166-.765-2.072-1.853-2.716-3.262-.634-1.41-.952-3.09-.952-5.04 0-2.025.336-3.724 1.008-5.096.672-1.381 1.596-2.422 2.772-3.122 1.176-.71 2.511-1.064 4.004-1.064 2.054 0 3.668.504 4.844 1.512 1.186.999 1.956 2.296 2.31 3.892l-3.206.602c-.308-.99-.802-1.787-1.484-2.394-.672-.607-1.493-.91-2.464-.91-.84 0-1.605.247-2.296.742-.69.485-1.241 1.218-1.652 2.198-.401.97-.602 2.184-.602 3.64 0 1.363.173 2.548.518 3.556.355.999.868 1.773 1.54 2.324.682.55 1.512.826 2.492.826 1.242 0 2.208-.331 2.898-.994.7-.663 1.05-1.512 1.05-2.548h3.22c0 1.325-.294 2.455-.882 3.388-.578.933-1.404 1.652-2.478 2.156-1.064.495-2.333.742-3.808.742Zm16.322 0c-1.222 0-2.328-.266-3.318-.798-.98-.532-1.759-1.325-2.338-2.38-.578-1.055-.868-2.37-.868-3.948 0-1.605.29-2.935.868-3.99.579-1.055 1.358-1.843 2.338-2.366.99-.532 2.096-.798 3.318-.798 1.223 0 2.32.266 3.29.798.98.523 1.755 1.311 2.324 2.366.579 1.055.868 2.385.868 3.99 0 1.577-.289 2.893-.868 3.948-.569 1.055-1.344 1.848-2.324 2.38-.97.532-2.067.798-3.29.798Zm-.084-2.618c.71 0 1.33-.173 1.862-.518.542-.345.962-.854 1.26-1.526.299-.672.448-1.493.448-2.464 0-1.484-.298-2.613-.896-3.388-.588-.784-1.418-1.176-2.492-1.176-.718 0-1.348.173-1.89.518-.532.345-.947.859-1.246 1.54-.298.681-.448 1.517-.448 2.506 0 1.456.299 2.571.896 3.346.598.775 1.433 1.162 2.506 1.162ZM531.347 84v-7.924c0-1.083-.262-1.9-.784-2.45-.514-.56-1.2-.84-2.058-.84-.7 0-1.316.191-1.848.574-.532.383-.948.952-1.246 1.708-.299.756-.448 1.685-.448 2.786h-1.022c0-1.708.214-3.136.644-4.284.438-1.148 1.054-2.011 1.848-2.59.802-.588 1.75-.882 2.842-.882 1.101 0 2.025.247 2.772.742.756.495 1.325 1.19 1.708 2.086.392.896.588 1.946.588 3.15V84h-2.996Zm-9.38 0V70.476h2.618l.378 2.8V84h-2.996Zm21.747.378c-.784 0-1.498-.145-2.142-.434a3.602 3.602 0 0 1-1.526-1.344c-.383-.607-.574-1.367-.574-2.282V66.836h2.982V80.22c0 1.185.565 1.778 1.694 1.778.345 0 .686-.037 1.022-.112a8.434 8.434 0 0 0 1.134-.35l.434 2.114c-.504.205-1.003.378-1.498.518-.485.14-.994.21-1.526.21Zm-6.216-11.9v-2.002h8.806v2.002h-8.806ZM550.158 84V70.42h2.996V84h-2.996Zm2.226-5.992c0-1.755.191-3.206.574-4.354.383-1.157.905-2.016 1.568-2.576.663-.57 1.419-.854 2.268-.854.252 0 .481.019.686.056.215.028.429.075.644.14l-.084 2.982a6.62 6.62 0 0 0-.812-.154 4.712 4.712 0 0 0-.77-.07c-.737 0-1.353.191-1.848.574-.485.373-.849.92-1.092 1.638-.243.719-.364 1.591-.364 2.618h-.77ZM569.458 84l-.378-3.206v-5.53c0-1.027-.21-1.778-.63-2.254-.42-.476-1.106-.714-2.058-.714-.551 0-1.031.08-1.442.238a2.103 2.103 0 0 0-.966.714c-.224.308-.336.69-.336 1.148h-3.29c0-1.017.243-1.839.728-2.464.495-.635 1.19-1.097 2.086-1.386.905-.299 1.979-.448 3.22-.448 1.129 0 2.119.187 2.968.56a4.22 4.22 0 0 1 2.002 1.708c.476.775.714 1.773.714 2.996V84h-2.618Zm-4.48.378c-1.148 0-2.105-.2-2.87-.602-.756-.401-1.325-.929-1.708-1.582a4.108 4.108 0 0 1-.574-2.114c0-.868.224-1.591.672-2.17.457-.579 1.092-1.008 1.904-1.288.821-.29 1.778-.434 2.87-.434.728 0 1.423.06 2.086.182.672.112 1.339.27 2.002.476v1.778a10.2 10.2 0 0 0-1.75-.434 10.906 10.906 0 0 0-1.764-.154c-.812 0-1.489.159-2.03.476-.532.308-.798.83-.798 1.568 0 .55.215 1.022.644 1.414.429.392 1.111.588 2.044.588.691 0 1.288-.154 1.792-.462.504-.317.891-.71 1.162-1.176.28-.467.42-.929.42-1.386h.714c0 .952-.187 1.834-.56 2.646a4.645 4.645 0 0 1-1.624 1.946c-.709.485-1.587.728-2.632.728Zm17.072 0a5.945 5.945 0 0 1-3.136-.882c-.962-.588-1.741-1.419-2.338-2.492-.588-1.073-.882-2.333-.882-3.78 0-1.53.294-2.823.882-3.878.597-1.064 1.376-1.871 2.338-2.422a6.25 6.25 0 0 1 3.136-.826c.849 0 1.6.135 2.254.406.662.27 1.227.635 1.694 1.092.466.457.835.97 1.106 1.54.28.56.466 1.134.56 1.722l-3.038.112c-.168-.644-.476-1.167-.924-1.568-.439-.41-.999-.616-1.68-.616a2.97 2.97 0 0 0-1.61.476c-.495.308-.901.789-1.218 1.442-.308.653-.462 1.493-.462 2.52 0 .961.144 1.773.434 2.436.289.653.681 1.153 1.176 1.498a2.963 2.963 0 0 0 1.68.504c.886 0 1.54-.215 1.96-.644.429-.439.644-1.027.644-1.764h3.038c0 .952-.22 1.815-.658 2.59-.439.775-1.078 1.39-1.918 1.848-.831.457-1.844.686-3.038.686Zm14.137 0c-.784 0-1.498-.145-2.142-.434a3.596 3.596 0 0 1-1.526-1.344c-.383-.607-.574-1.367-.574-2.282V66.836h2.982V80.22c0 1.185.564 1.778 1.694 1.778.345 0 .686-.037 1.022-.112a8.434 8.434 0 0 0 1.134-.35l.434 2.114c-.504.205-1.004.378-1.498.518-.486.14-.994.21-1.526.21Zm-6.216-11.9v-2.002h8.806v2.002h-8.806Z"/></svg>