<svg xmlns="http://www.w3.org/2000/svg" width="598" height="506" fill="none"><g clip-path="url(#a)"><rect width="598" height="506" fill="#0C0D0E" rx="20"/><path fill="#D9D9D9" d="M44.52 51V40.712h6.432v1.472h-4.72v2.904h4.336v1.464h-4.336V51H44.52Zm8.64 0V40.712h1.713V51H53.16Zm4.742-10.288h1.904l4.824 7.64h-.136v-7.64h1.712V51h-1.768l-5.096-8.048h.272V51h-1.712V40.712ZM68.102 51l3.512-10.288h2.136L77.142 51h-1.8l-.76-2.336h-3.896L69.918 51h-1.816Zm3.024-3.632h3.048l-1.52-4.608-1.528 4.608Zm9.622-6.656v8.792h4.336V51h-6.048V40.712h1.712Zm10.069 0h3.248c1.045 0 1.957.21 2.736.632a4.485 4.485 0 0 1 1.824 1.784c.437.768.656 1.68.656 2.736 0 1.035-.219 1.939-.656 2.712a4.538 4.538 0 0 1-1.824 1.792c-.779.421-1.69.632-2.736.632h-3.248V40.712Zm1.712 1.544v7.216h1.536c.693 0 1.29-.157 1.792-.472a3.135 3.135 0 0 0 1.168-1.288c.277-.544.416-1.16.416-1.848 0-.704-.139-1.325-.416-1.864a3.081 3.081 0 0 0-1.168-1.28c-.501-.31-1.099-.464-1.792-.464h-1.536ZM101.676 51V40.712h6.544v1.472h-4.832v2.912h4.544v1.48h-4.544v2.928h4.832V51h-6.544Zm12.794.216c-.71 0-1.36-.123-1.952-.368a3.388 3.388 0 0 1-1.44-1.128c-.368-.507-.563-1.141-.585-1.904h1.681c0 .421.104.768.312 1.04.208.267.482.467.824.6.346.128.728.192 1.144.192.41 0 .773-.059 1.088-.176.32-.117.568-.28.744-.488.181-.208.272-.448.272-.72 0-.368-.112-.659-.336-.872-.224-.219-.576-.41-1.056-.576l-1.968-.76c-.811-.31-1.43-.667-1.856-1.072-.427-.41-.64-.976-.64-1.696 0-.821.322-1.488.968-2 .65-.517 1.56-.776 2.728-.776 1.125 0 1.997.261 2.616.784.618.523.97 1.243 1.055 2.16h-1.679a1.59 1.59 0 0 0-.592-1.016c-.315-.25-.782-.376-1.4-.376-.571 0-1.019.12-1.344.36-.32.24-.48.544-.48.912 0 .31.101.555.304.736.208.181.528.352.96.512l2.216.832c.757.283 1.341.65 1.752 1.104.416.448.624 1.013.624 1.696 0 .597-.155 1.123-.464 1.576-.304.448-.752.797-1.344 1.048-.587.25-1.304.376-2.152.376Zm6.55-.216V40.712h1.712V51h-1.712Zm8.494.216a4.097 4.097 0 0 1-2.272-.656c-.672-.443-1.208-1.059-1.608-1.848-.4-.795-.6-1.723-.6-2.784 0-.853.122-1.616.368-2.288.25-.672.597-1.24 1.04-1.704a4.422 4.422 0 0 1 1.544-1.056 4.944 4.944 0 0 1 1.912-.368c.917 0 1.696.197 2.336.592.64.395 1.152 1.016 1.536 1.864l-1.728.44c-.294-.443-.627-.776-1-1a2.283 2.283 0 0 0-1.232-.344c-.534 0-1.024.157-1.472.472-.443.31-.798.752-1.064 1.328-.267.576-.4 1.264-.4 2.064 0 .736.114 1.384.344 1.944.229.555.552.99.968 1.304.416.315.904.472 1.464.472.458 0 .869-.101 1.232-.304a2.2 2.2 0 0 0 .856-.904c.213-.4.32-.885.32-1.456h.408c0 .859-.104 1.605-.312 2.24-.203.635-.523 1.125-.96 1.472-.432.347-.992.52-1.68.52Zm2.8-.216-.256-2.312v-1.76l-2.392-.056v-1.104h4.04V51h-1.392Zm4.135-10.288h1.904l4.824 7.64h-.136v-7.64h1.712V51h-1.768l-5.096-8.048h.272V51h-1.712V40.712Z"/><path fill="#fff" d="M45.384 317.936h2.672c.917 0 1.693.208 2.328.624.635.416 1.101 1 1.4 1.752.299.752.4 1.635.304 2.648-.096 1.019-.365 1.907-.808 2.664a4.798 4.798 0 0 1-1.736 1.752c-.715.416-1.53.624-2.448.624H44.44l.944-10.064Zm1.024 1.12-.736 7.84h1.536c.677 0 1.277-.171 1.8-.512a3.755 3.755 0 0 0 1.272-1.4c.325-.592.523-1.267.592-2.024.07-.752-.003-1.421-.216-2.008-.208-.592-.544-1.056-1.008-1.392-.459-.336-1.027-.504-1.704-.504h-1.536ZM53.956 328l.72-7.664h1.136l-.144 1.456c.24-.544.525-.944.856-1.2a1.85 1.85 0 0 1 1.152-.384c.112 0 .234.011.368.032.133.016.264.053.392.112l-.176 1.232a3.099 3.099 0 0 0-.448-.112 2.096 2.096 0 0 0-.44-.048 1.41 1.41 0 0 0-1.016.392c-.272.256-.486.619-.64 1.088a7.127 7.127 0 0 0-.312 1.64L55.092 328h-1.136Zm7.5.176c-.533 0-.973-.112-1.32-.336a1.953 1.953 0 0 1-.752-.864 2.294 2.294 0 0 1-.168-1.12c.053-.517.213-.941.48-1.272.267-.331.61-.576 1.032-.736a3.764 3.764 0 0 1 1.384-.248c.336 0 .672.037 1.008.112a4.6 4.6 0 0 1 .96.304l.096-.976c.075-.688-.008-1.181-.248-1.48-.24-.304-.621-.456-1.144-.456-.299 0-.573.048-.824.144-.25.096-.456.245-.616.448-.155.197-.245.453-.272.768h-1.264c.053-.571.224-1.024.512-1.36a2.442 2.442 0 0 1 1.088-.72 4.237 4.237 0 0 1 1.376-.224c.87 0 1.528.232 1.976.696.453.459.632 1.197.536 2.216L64.832 328h-.976c0-.219.003-.432.008-.64.005-.213.008-.427.008-.64-.261.491-.603.856-1.024 1.096-.421.24-.885.36-1.392.36Zm.216-.976c.39 0 .76-.096 1.112-.288.352-.197.64-.475.864-.832.23-.357.347-.779.352-1.264a7.183 7.183 0 0 0-.912-.232 4.866 4.866 0 0 0-.896-.088c-.464 0-.864.101-1.2.304-.336.197-.528.549-.576 1.056-.032.373.053.691.256.952.208.261.541.392 1 .392Zm7.895 4.736c-.7 0-1.3-.109-1.8-.328-.502-.213-.88-.507-1.136-.88a1.869 1.869 0 0 1-.32-1.24c.037-.437.191-.808.463-1.112a2.147 2.147 0 0 1 1.049-.616 1.463 1.463 0 0 1-.584-.584 1.432 1.432 0 0 1-.153-.776c.032-.373.171-.685.416-.936.251-.251.55-.419.897-.504a2.519 2.519 0 0 1-.48-.88 3.022 3.022 0 0 1-.096-1.136 3.13 3.13 0 0 1 .512-1.464 2.898 2.898 0 0 1 1.088-.976 3.105 3.105 0 0 1 1.448-.344c.34 0 .656.051.944.152.293.096.546.237.76.424a2.68 2.68 0 0 1 .407-.976 2.062 2.062 0 0 1 1.737-.896l-.24 1.248c-.406 0-.731.093-.977.28-.24.181-.389.477-.447.888.138.224.24.475.303.752.064.277.08.581.048.912a3.008 3.008 0 0 1-.512 1.472 3.066 3.066 0 0 1-1.112.992 3.201 3.201 0 0 1-1.495.352c-.246 0-.486-.032-.72-.096a2.473 2.473 0 0 1-.64-.272 1.017 1.017 0 0 0-.537.296c-.16.16-.258.371-.296.632a.678.678 0 0 0 .2.608c.171.16.5.24.984.24h2.672c.64 0 1.134.152 1.48.456.347.299.5.723.456 1.272-.037.512-.242 1-.615 1.464-.368.464-.87.843-1.505 1.136-.634.293-1.368.44-2.2.44Zm.024-1.008c.597 0 1.128-.093 1.592-.28.463-.187.831-.429 1.103-.728.278-.293.43-.608.457-.944.02-.261-.04-.477-.184-.648-.144-.165-.374-.248-.688-.248h-2.8c-.47 0-.854.131-1.153.392-.293.267-.45.589-.472.968-.02.427.15.781.513 1.064.367.283.912.424 1.632.424Zm.848-6.08c.352 0 .66-.083.928-.248a1.9 1.9 0 0 0 .64-.688 2.34 2.34 0 0 0 .295-.968c.054-.555-.056-1.005-.328-1.352-.266-.347-.658-.52-1.175-.52-.523 0-.953.173-1.289.52-.33.347-.52.797-.568 1.352-.053.539.051.992.313 1.36.266.363.66.544 1.184.544Zm7.253 7.088c-.7 0-1.3-.109-1.8-.328-.502-.213-.88-.507-1.136-.88a1.869 1.869 0 0 1-.32-1.24c.037-.437.191-.808.463-1.112a2.147 2.147 0 0 1 1.049-.616 1.463 1.463 0 0 1-.584-.584 1.432 1.432 0 0 1-.153-.776c.032-.373.171-.685.416-.936.251-.251.55-.419.897-.504a2.519 2.519 0 0 1-.48-.88 3.022 3.022 0 0 1-.096-1.136 3.13 3.13 0 0 1 .512-1.464 2.898 2.898 0 0 1 1.088-.976 3.105 3.105 0 0 1 1.448-.344c.34 0 .656.051.944.152.293.096.546.237.76.424a2.68 2.68 0 0 1 .407-.976 2.062 2.062 0 0 1 1.737-.896l-.24 1.248c-.406 0-.731.093-.977.28-.24.181-.389.477-.447.888.138.224.24.475.303.752.064.277.08.581.048.912a3.008 3.008 0 0 1-.512 1.472 3.066 3.066 0 0 1-1.112.992 3.201 3.201 0 0 1-1.495.352c-.246 0-.486-.032-.72-.096a2.473 2.473 0 0 1-.64-.272 1.017 1.017 0 0 0-.537.296c-.16.16-.258.371-.296.632a.678.678 0 0 0 .2.608c.171.16.5.24.984.24h2.672c.64 0 1.134.152 1.48.456.347.299.5.723.456 1.272-.037.512-.242 1-.615 1.464-.368.464-.87.843-1.505 1.136-.634.293-1.368.44-2.2.44Zm.024-1.008c.597 0 1.128-.093 1.592-.28.463-.187.831-.429 1.103-.728.278-.293.43-.608.457-.944.02-.261-.04-.477-.184-.648-.144-.165-.374-.248-.688-.248h-2.8c-.47 0-.854.131-1.153.392-.293.267-.45.589-.472.968-.02.427.15.781.513 1.064.367.283.912.424 1.632.424Zm.848-6.08c.352 0 .66-.083.928-.248a1.9 1.9 0 0 0 .64-.688 2.34 2.34 0 0 0 .295-.968c.054-.555-.056-1.005-.328-1.352-.266-.347-.658-.52-1.175-.52-.523 0-.953.173-1.289.52-.33.347-.52.797-.568 1.352-.053.539.051.992.313 1.36.266.363.66.544 1.184.544Zm6.733-6.304c-.23 0-.403-.072-.52-.216-.118-.144-.168-.333-.153-.568a.954.954 0 0 1 .24-.56.737.737 0 0 1 .576-.24c.235 0 .411.075.529.224.122.149.173.341.152.576-.022.245-.11.437-.264.576a.79.79 0 0 1-.56.208ZM83.831 328l.72-7.664h1.136l-.72 7.664h-1.136Zm4.217 0 .72-7.648h.976l-.016 1.488c.272-.544.616-.96 1.032-1.248a2.478 2.478 0 0 1 1.432-.432c.544 0 .998.133 1.36.4.368.267.632.651.792 1.152.16.496.206 1.093.136 1.792L94.065 328h-1.12l.416-4.496c.075-.736-.032-1.291-.32-1.664-.288-.373-.685-.56-1.192-.56-.645 0-1.173.277-1.584.832-.405.549-.653 1.307-.744 2.272L89.185 328H88.05Zm10.752 3.936c-.699 0-1.299-.109-1.8-.328-.502-.213-.88-.507-1.136-.88a1.868 1.868 0 0 1-.32-1.24c.037-.437.192-.808.464-1.112a2.146 2.146 0 0 1 1.048-.616 1.462 1.462 0 0 1-.584-.584 1.431 1.431 0 0 1-.152-.776c.032-.373.17-.685.416-.936.25-.251.55-.419.896-.504a2.515 2.515 0 0 1-.48-.88 3.018 3.018 0 0 1-.096-1.136 3.14 3.14 0 0 1 .512-1.464 2.897 2.897 0 0 1 1.088-.976 3.105 3.105 0 0 1 1.448-.344c.341 0 .656.051.944.152.293.096.547.237.76.424.08-.373.216-.699.408-.976a2.062 2.062 0 0 1 1.736-.896l-.24 1.248c-.405 0-.731.093-.976.28-.24.181-.389.477-.448.888.139.224.24.475.304.752s.08.581.048.912a3.011 3.011 0 0 1-.512 1.472 3.068 3.068 0 0 1-1.112.992 3.2 3.2 0 0 1-1.496.352c-.246 0-.486-.032-.72-.096a2.473 2.473 0 0 1-.64-.272 1.016 1.016 0 0 0-.536.296 1.08 1.08 0 0 0-.296.632.678.678 0 0 0 .2.608c.17.16.499.24.984.24h2.672c.64 0 1.133.152 1.48.456.347.299.499.723.456 1.272-.037.512-.243 1-.616 1.464-.368.464-.869.843-1.504 1.136-.635.293-1.368.44-2.2.44Zm.024-1.008c.597 0 1.128-.093 1.592-.28.464-.187.832-.429 1.104-.728.277-.293.429-.608.456-.944.021-.261-.04-.477-.184-.648-.144-.165-.373-.248-.688-.248h-2.8c-.47 0-.854.131-1.152.392-.294.267-.45.589-.472.968-.022.427.15.781.512 1.064.368.283.912.424 1.632.424Zm.848-6.08c.352 0 .661-.083.928-.248.267-.171.48-.4.64-.688.165-.288.264-.611.296-.968.053-.555-.056-1.005-.328-1.352-.267-.347-.659-.52-1.176-.52-.523 0-.952.173-1.288.52-.33.347-.52.797-.568 1.352-.053.539.05.992.312 1.36.266.363.661.544 1.184.544Zm10.155-6.304c-.23 0-.403-.072-.52-.216-.118-.144-.168-.333-.152-.568a.95.95 0 0 1 .24-.56.737.737 0 0 1 .576-.24c.234 0 .41.075.528.224.122.149.173.341.152.576-.022.245-.11.437-.264.576a.791.791 0 0 1-.56.208ZM108.364 328l.72-7.664h1.136L109.5 328h-1.136Zm4.217 0 .72-7.648h.976l-.016 1.488c.272-.544.616-.96 1.032-1.248a2.476 2.476 0 0 1 1.432-.432c.544 0 .997.133 1.36.4.368.267.632.651.792 1.152.16.496.205 1.093.136 1.792l-.416 4.496h-1.12l.416-4.496c.074-.736-.032-1.291-.32-1.664-.288-.373-.686-.56-1.192-.56-.646 0-1.174.277-1.584.832-.406.549-.654 1.307-.744 2.272l-.336 3.616h-1.136Zm10.799.176c-.379 0-.709-.077-.992-.232a1.43 1.43 0 0 1-.632-.712c-.133-.32-.179-.725-.136-1.216l.464-5.064.328.248h-1.48l.112-.848h1.448l-.4.36.248-2.488h1.136l-.248 2.488-.32-.36h2.52l-.096.848h-2.52l.392-.248-.48 5.048c-.037.389.021.683.176.88.155.192.395.288.72.288.181 0 .368-.024.56-.072a4.31 4.31 0 0 0 .64-.216l.08.896a4.395 4.395 0 0 1-.768.296 2.763 2.763 0 0 1-.752.104Zm5.678 0c-.602 0-1.125-.16-1.568-.48-.442-.32-.77-.776-.984-1.368-.213-.597-.28-1.309-.2-2.136.08-.837.283-1.557.608-2.16.326-.603.736-1.064 1.232-1.384a2.972 2.972 0 0 1 1.648-.488c.443 0 .824.085 1.144.256.326.165.59.397.792.696.208.293.358.632.448 1.016a4.2 4.2 0 0 1 .096 1.232 4.702 4.702 0 0 1-.048.528 4.966 4.966 0 0 1-.096.56h-5.08l.392-.264a4.886 4.886 0 0 0 .04 1.512c.091.448.272.803.544 1.064.278.261.656.392 1.136.392.432 0 .803-.117 1.112-.352.31-.24.518-.587.624-1.04h1.168c-.122.512-.33.949-.624 1.312a2.918 2.918 0 0 1-1.048.824c-.41.187-.856.28-1.336.28Zm-1.592-4.352-.304-.184h4.4l-.392.144c.064-.453.067-.877.008-1.272-.058-.4-.202-.723-.432-.968-.224-.251-.562-.376-1.016-.376-.437 0-.816.123-1.136.368-.314.24-.568.563-.76.968-.186.4-.309.84-.368 1.32Zm6.615 4.176.72-7.664h1.136l-.144 1.456c.24-.544.525-.944.856-1.2a1.85 1.85 0 0 1 1.152-.384c.112 0 .234.011.368.032.133.016.264.053.392.112l-.176 1.232a3.122 3.122 0 0 0-.448-.112 2.1 2.1 0 0 0-.44-.048 1.41 1.41 0 0 0-1.016.392c-.272.256-.486.619-.64 1.088a7.085 7.085 0 0 0-.312 1.64l-.312 3.456h-1.136Zm7.5.176c-.533 0-.973-.112-1.32-.336a1.953 1.953 0 0 1-.752-.864 2.301 2.301 0 0 1-.168-1.12c.053-.517.213-.941.48-1.272a2.385 2.385 0 0 1 1.032-.736 3.764 3.764 0 0 1 1.384-.248c.336 0 .672.037 1.008.112a4.6 4.6 0 0 1 .96.304l.096-.976c.075-.688-.008-1.181-.248-1.48-.24-.304-.621-.456-1.144-.456-.299 0-.573.048-.824.144a1.407 1.407 0 0 0-.616.448c-.155.197-.245.453-.272.768h-1.264c.053-.571.224-1.024.512-1.36a2.44 2.44 0 0 1 1.088-.72 4.236 4.236 0 0 1 1.376-.224c.869 0 1.528.232 1.976.696.453.459.632 1.197.536 2.216l-.464 4.928h-.976c0-.219.003-.432.008-.64.005-.213.008-.427.008-.64-.261.491-.603.856-1.024 1.096-.421.24-.885.36-1.392.36Zm.216-.976c.389 0 .76-.096 1.112-.288.352-.197.64-.475.864-.832.229-.357.347-.779.352-1.264a7.158 7.158 0 0 0-.912-.232 4.866 4.866 0 0 0-.896-.088c-.464 0-.864.101-1.2.304-.336.197-.528.549-.576 1.056-.032.373.053.691.256.952.208.261.541.392 1 .392Zm8.263.976c-.566 0-1.075-.16-1.528-.48-.454-.325-.798-.789-1.032-1.392-.235-.603-.315-1.317-.24-2.144.08-.848.293-1.568.64-2.16.346-.597.773-1.053 1.28-1.368a3.048 3.048 0 0 1 1.624-.472c.378 0 .714.067 1.008.2.293.128.544.304.752.528.213.224.381.483.504.776.122.293.202.603.24.928l-1.152.112c-.08-.437-.248-.784-.504-1.04a1.313 1.313 0 0 0-.968-.384c-.358 0-.696.109-1.016.328-.32.219-.592.541-.816.968-.224.427-.366.955-.424 1.584-.054.587-.019 1.099.104 1.536.128.432.333.768.616 1.008.282.235.626.352 1.032.352.48 0 .874-.141 1.184-.424.309-.288.482-.691.52-1.208h1.168c-.043.528-.2 1-.472 1.416a2.884 2.884 0 0 1-1.056.984c-.432.235-.92.352-1.464.352Zm7.086 0c-.379 0-.71-.077-.992-.232a1.426 1.426 0 0 1-.632-.712c-.134-.32-.179-.725-.136-1.216l.464-5.064.328.248h-1.48l.112-.848h1.448l-.4.36.248-2.488h1.136l-.248 2.488-.32-.36h2.52l-.096.848h-2.52l.392-.248-.48 5.048c-.038.389.021.683.176.88.154.192.394.288.72.288.181 0 .368-.024.56-.072.197-.048.41-.12.64-.216l.08.896a4.456 4.456 0 0 1-.768.296 2.768 2.768 0 0 1-.752.104Zm4.838-9.632c-.229 0-.403-.072-.52-.216-.117-.144-.168-.333-.152-.568a.95.95 0 0 1 .24-.56.737.737 0 0 1 .576-.24c.235 0 .411.075.528.224.123.149.173.341.152.576-.021.245-.109.437-.264.576a.79.79 0 0 1-.56.208ZM160.52 328l.72-7.664h1.136l-.72 7.664h-1.136Zm6.689.176c-.624 0-1.165-.152-1.624-.456-.459-.304-.797-.752-1.016-1.344-.219-.597-.285-1.331-.2-2.2.085-.88.293-1.616.624-2.208.336-.597.76-1.048 1.272-1.352a3.3 3.3 0 0 1 1.704-.456c.624 0 1.163.155 1.616.464.453.309.789.763 1.008 1.36.224.592.293 1.323.208 2.192-.085.869-.296 1.603-.632 2.2-.331.592-.752 1.04-1.264 1.344a3.234 3.234 0 0 1-1.696.456Zm.056-1.088c.667 0 1.208-.259 1.624-.776.416-.523.669-1.235.76-2.136.091-.912-.016-1.627-.32-2.144-.299-.523-.781-.784-1.448-.784-.661 0-1.195.259-1.6.776-.4.512-.645 1.229-.736 2.152-.059.592-.035 1.107.072 1.544.107.437.296.776.568 1.016.277.235.637.352 1.08.352Zm5.331.912.72-7.648h.976l-.016 1.488c.272-.544.616-.96 1.032-1.248a2.48 2.48 0 0 1 1.432-.432c.544 0 .998.133 1.36.4.368.267.632.651.792 1.152.16.496.206 1.093.136 1.792l-.416 4.496h-1.12l.416-4.496c.075-.736-.032-1.291-.32-1.664-.288-.373-.685-.56-1.192-.56-.645 0-1.173.277-1.584.832-.405.549-.653 1.307-.744 2.272l-.336 3.616h-1.136Zm11.646-7.648h1.184l1.104 6.08 2.16-5.712h.96l1.088 5.792 2.256-6.16h1.136L191.154 328h-1.104l-1.088-5.36-2.048 5.36h-1.104l-1.568-7.648Zm12.445-1.808c-.229 0-.403-.072-.52-.216-.117-.144-.168-.333-.152-.568a.95.95 0 0 1 .24-.56.737.737 0 0 1 .576-.24c.235 0 .411.075.528.224.123.149.173.341.152.576-.021.245-.109.437-.264.576a.79.79 0 0 1-.56.208ZM195.223 328l.72-7.664h1.136l-.72 7.664h-1.136Zm6.329.176c-.379 0-.709-.077-.992-.232a1.43 1.43 0 0 1-.632-.712c-.133-.32-.179-.725-.136-1.216l.464-5.064.328.248h-1.48l.112-.848h1.448l-.4.36.248-2.488h1.136l-.248 2.488-.32-.36h2.52l-.096.848h-2.52l.392-.248-.48 5.048c-.037.389.021.683.176.88.155.192.395.288.72.288.181 0 .368-.024.56-.072a4.31 4.31 0 0 0 .64-.216l.08.896a4.395 4.395 0 0 1-.768.296 2.763 2.763 0 0 1-.752.104Zm3.31-.176 1.024-10.896h1.136l-.448 4.656c.272-.507.614-.899 1.024-1.176a2.446 2.446 0 0 1 1.408-.424c.544 0 .998.136 1.36.408.363.267.624.651.784 1.152.166.496.216 1.091.152 1.784l-.424 4.496h-1.12l.416-4.496c.075-.731-.029-1.283-.312-1.656-.282-.379-.682-.568-1.2-.568-.432 0-.81.125-1.136.376-.325.245-.589.6-.792 1.064-.202.464-.336 1.019-.4 1.664l-.336 3.616h-1.136Zm-157.99 19.176c-.565 0-1.075-.16-1.528-.48-.453-.325-.797-.789-1.032-1.392-.235-.603-.315-1.317-.24-2.144.08-.848.293-1.568.64-2.16.347-.597.773-1.053 1.28-1.368a3.05 3.05 0 0 1 1.624-.472c.379 0 .715.067 1.008.2.293.128.544.304.752.528.213.224.381.483.504.776.123.293.203.603.24.928l-1.152.112c-.08-.437-.248-.784-.504-1.04a1.312 1.312 0 0 0-.968-.384 1.77 1.77 0 0 0-1.016.328c-.32.219-.592.541-.816.968-.224.427-.365.955-.424 1.584-.053.587-.019 1.099.104 1.536.128.432.333.768.616 1.008.283.235.627.352 1.032.352.48 0 .875-.141 1.184-.424.31-.288.483-.691.52-1.208h1.168a2.982 2.982 0 0 1-1.528 2.4c-.432.235-.92.352-1.464.352Zm4.99-.176 1.024-10.896h1.136l-.448 4.656c.272-.507.614-.899 1.024-1.176a2.445 2.445 0 0 1 1.408-.424c.544 0 .998.136 1.36.408.363.267.624.651.784 1.152.166.496.216 1.091.152 1.784L57.878 347h-1.12l.416-4.496c.075-.731-.03-1.283-.312-1.656-.282-.379-.682-.568-1.2-.568-.432 0-.81.125-1.136.376-.325.245-.59.6-.792 1.064-.202.464-.336 1.019-.4 1.664L52.998 347h-1.136Zm10.703.176c-.533 0-.973-.112-1.32-.336a1.953 1.953 0 0 1-.752-.864 2.292 2.292 0 0 1-.168-1.12c.054-.517.214-.941.48-1.272a2.38 2.38 0 0 1 1.032-.736 3.763 3.763 0 0 1 1.384-.248c.336 0 .672.037 1.008.112.342.069.662.171.96.304l.096-.976c.075-.688-.008-1.181-.248-1.48-.24-.304-.621-.456-1.144-.456a2.29 2.29 0 0 0-.824.144c-.25.096-.456.245-.616.448-.154.197-.245.453-.272.768h-1.264c.054-.571.224-1.024.512-1.36a2.442 2.442 0 0 1 1.088-.72 4.237 4.237 0 0 1 1.376-.224c.87 0 1.528.232 1.976.696.454.459.632 1.197.536 2.216L65.941 347h-.976c0-.219.003-.432.008-.64.006-.213.008-.427.008-.64-.261.491-.602.856-1.024 1.096-.421.24-.885.36-1.392.36Zm.216-.976c.39 0 .76-.096 1.112-.288.352-.197.64-.475.864-.832.23-.357.347-.779.352-1.264a7.192 7.192 0 0 0-.912-.232 4.867 4.867 0 0 0-.896-.088c-.464 0-.864.101-1.2.304-.336.197-.528.549-.576 1.056-.032.373.054.691.256.952.208.261.542.392 1 .392Zm5.83.8.72-7.648h.977l-.016 1.488c.272-.544.616-.96 1.032-1.248a2.478 2.478 0 0 1 1.432-.432c.544 0 .997.133 1.36.4.368.267.632.651.792 1.152.16.496.205 1.093.136 1.792L74.628 347h-1.12l.416-4.496c.075-.736-.032-1.291-.32-1.664-.288-.373-.686-.56-1.192-.56-.646 0-1.174.277-1.584.832-.406.549-.654 1.307-.744 2.272L69.748 347h-1.136Zm10.752 3.936c-.698 0-1.298-.109-1.8-.328-.501-.213-.88-.507-1.136-.88a1.868 1.868 0 0 1-.32-1.24 1.86 1.86 0 0 1 .464-1.112 2.146 2.146 0 0 1 1.048-.616 1.462 1.462 0 0 1-.584-.584 1.431 1.431 0 0 1-.152-.776c.032-.373.171-.685.416-.936.251-.251.55-.419.896-.504a2.515 2.515 0 0 1-.48-.88 3.018 3.018 0 0 1-.096-1.136 3.14 3.14 0 0 1 .512-1.464 2.897 2.897 0 0 1 1.088-.976 3.104 3.104 0 0 1 1.448-.344c.342 0 .656.051.944.152.294.096.547.237.76.424.08-.373.216-.699.408-.976a2.061 2.061 0 0 1 1.736-.896l-.24 1.248c-.405 0-.73.093-.976.28-.24.181-.389.477-.448.888.139.224.24.475.304.752s.08.581.048.912a3.008 3.008 0 0 1-.512 1.472 3.066 3.066 0 0 1-1.112.992 3.201 3.201 0 0 1-1.496.352c-.245 0-.485-.032-.72-.096a2.473 2.473 0 0 1-.64-.272 1.016 1.016 0 0 0-.536.296c-.16.16-.258.371-.296.632a.678.678 0 0 0 .2.608c.171.16.499.24.984.24h2.672c.64 0 1.134.152 1.48.456.347.299.499.723.456 1.272-.037.512-.242 1-.616 1.464-.368.464-.869.843-1.504 1.136-.634.293-1.368.44-2.2.44Zm.024-1.008c.598 0 1.128-.093 1.592-.28.464-.187.832-.429 1.104-.728.278-.293.43-.608.456-.944.022-.261-.04-.477-.184-.648-.144-.165-.373-.248-.688-.248h-2.8c-.469 0-.853.131-1.152.392-.293.267-.45.589-.472.968-.021.427.15.781.512 1.064.368.283.912.424 1.632.424Zm.848-6.08c.352 0 .662-.083.928-.248.267-.171.48-.4.64-.688a2.34 2.34 0 0 0 .296-.968c.054-.555-.056-1.005-.328-1.352-.266-.347-.658-.52-1.176-.52-.522 0-.952.173-1.288.52-.33.347-.52.797-.568 1.352-.053.539.051.992.312 1.36.267.363.662.544 1.184.544Zm6.733-6.304c-.229 0-.402-.072-.52-.216-.117-.144-.168-.333-.152-.568a.954.954 0 0 1 .24-.56.737.737 0 0 1 .576-.24c.235 0 .411.075.528.224.123.149.174.341.152.576-.021.245-.109.437-.264.576a.79.79 0 0 1-.56.208ZM85.504 347l.72-7.664h1.136L86.64 347h-1.136Zm4.217 0 .72-7.648h.976l-.016 1.488c.272-.544.616-.96 1.032-1.248a2.478 2.478 0 0 1 1.432-.432c.544 0 .998.133 1.36.4.368.267.632.651.792 1.152.16.496.206 1.093.136 1.792L95.737 347h-1.12l.416-4.496c.075-.736-.032-1.291-.32-1.664-.288-.373-.685-.56-1.192-.56-.645 0-1.173.277-1.584.832-.405.549-.653 1.307-.744 2.272L90.857 347h-1.136Zm10.752 3.936c-.699 0-1.299-.109-1.8-.328-.502-.213-.88-.507-1.136-.88a1.868 1.868 0 0 1-.32-1.24c.037-.437.192-.808.464-1.112a2.146 2.146 0 0 1 1.048-.616 1.463 1.463 0 0 1-.584-.584 1.432 1.432 0 0 1-.152-.776c.032-.373.17-.685.416-.936.25-.251.55-.419.896-.504a2.515 2.515 0 0 1-.48-.88 3.018 3.018 0 0 1-.096-1.136 3.14 3.14 0 0 1 .512-1.464 2.896 2.896 0 0 1 1.088-.976 3.102 3.102 0 0 1 1.448-.344c.341 0 .656.051.944.152.293.096.546.237.76.424.08-.373.216-.699.408-.976.197-.283.442-.501.736-.656.293-.16.626-.24 1-.24l-.24 1.248c-.406 0-.731.093-.976.28-.24.181-.39.477-.448.888.138.224.24.475.304.752s.08.581.048.912a3.011 3.011 0 0 1-.512 1.472 3.068 3.068 0 0 1-1.112.992 3.203 3.203 0 0 1-1.496.352c-.246 0-.486-.032-.72-.096a2.473 2.473 0 0 1-.64-.272 1.016 1.016 0 0 0-.536.296 1.08 1.08 0 0 0-.296.632.678.678 0 0 0 .2.608c.17.16.498.24.984.24h2.672c.64 0 1.133.152 1.48.456.346.299.498.723.456 1.272-.038.512-.243 1-.616 1.464-.368.464-.87.843-1.504 1.136-.635.293-1.368.44-2.2.44Zm.024-1.008c.597 0 1.128-.093 1.592-.28.464-.187.832-.429 1.104-.728.277-.293.429-.608.456-.944.021-.261-.04-.477-.184-.648-.144-.165-.374-.248-.688-.248h-2.8c-.47 0-.854.131-1.152.392-.294.267-.45.589-.472.968-.022.427.15.781.512 1.064.368.283.912.424 1.632.424Zm.848-6.08c.352 0 .661-.083.928-.248a1.9 1.9 0 0 0 .64-.688c.165-.288.264-.611.296-.968.053-.555-.056-1.005-.328-1.352-.267-.347-.659-.52-1.176-.52-.523 0-.952.173-1.288.52-.331.347-.52.797-.568 1.352-.054.539.05.992.312 1.36.266.363.661.544 1.184.544Zm11.083 3.328a2.43 2.43 0 0 1-1.4-.424c-.411-.283-.736-.68-.976-1.192-.235-.512-.352-1.107-.352-1.784 0-.523.072-1.053.216-1.592a5.57 5.57 0 0 1 .64-1.496 3.558 3.558 0 0 1 1.064-1.104c.421-.283.909-.424 1.464-.424.474 0 .877.112 1.208.336.336.224.597.549.784.976l.416-4.368h1.136L115.604 347h-.928l-.032-1.28c-.262.48-.59.843-.984 1.088-.39.245-.8.368-1.232.368Zm.24-1.12c.298 0 .6-.085.904-.256a2.34 2.34 0 0 0 .784-.736c.224-.325.357-.72.4-1.184l.144-1.568c.005-.048.008-.083.008-.104a.497.497 0 0 0 .008-.104c0-.405-.083-.741-.248-1.008a1.581 1.581 0 0 0-.648-.608 1.749 1.749 0 0 0-.832-.208c-.416 0-.771.109-1.064.328a2.451 2.451 0 0 0-.712.848 4.376 4.376 0 0 0-.4 1.104 5.055 5.055 0 0 0-.128 1.088c0 .736.168 1.323.504 1.76.336.432.762.648 1.28.648Zm7.394-8.512c-.229 0-.403-.072-.52-.216-.117-.144-.168-.333-.152-.568a.95.95 0 0 1 .24-.56.737.737 0 0 1 .576-.24c.235 0 .411.075.528.224.123.149.173.341.152.576-.021.245-.109.437-.264.576a.79.79 0 0 1-.56.208ZM118.598 347l.72-7.664h1.136l-.72 7.664h-1.136Zm4.217 0 .72-7.664h1.136l-.144 1.456c.24-.544.525-.944.856-1.2a1.85 1.85 0 0 1 1.152-.384c.112 0 .235.011.368.032.133.016.264.053.392.112l-.176 1.232a3.09 3.09 0 0 0-.448-.112 2.094 2.094 0 0 0-.44-.048 1.41 1.41 0 0 0-1.016.392c-.272.256-.485.619-.64 1.088a7.085 7.085 0 0 0-.312 1.64l-.312 3.456h-1.136Zm7.868.176c-.602 0-1.125-.16-1.568-.48-.442-.32-.77-.776-.984-1.368-.213-.597-.28-1.309-.2-2.136.08-.837.283-1.557.608-2.16.326-.603.736-1.064 1.232-1.384a2.972 2.972 0 0 1 1.648-.488c.443 0 .824.085 1.144.256.326.165.59.397.792.696.208.293.358.632.448 1.016a4.2 4.2 0 0 1 .096 1.232 4.702 4.702 0 0 1-.048.528 4.966 4.966 0 0 1-.096.56h-5.08l.392-.264a4.886 4.886 0 0 0 .04 1.512c.091.448.272.803.544 1.064.278.261.656.392 1.136.392.432 0 .803-.117 1.112-.352.31-.24.518-.587.624-1.04h1.168c-.122.512-.33.949-.624 1.312a2.918 2.918 0 0 1-1.048.824c-.41.187-.856.28-1.336.28Zm-1.592-4.352-.304-.184h4.4l-.392.144c.064-.453.067-.877.008-1.272-.058-.4-.202-.723-.432-.968-.224-.251-.562-.376-1.016-.376-.437 0-.816.123-1.136.368-.314.24-.568.563-.76.968-.186.4-.309.84-.368 1.32Zm9.047 4.352c-.566 0-1.075-.16-1.528-.48-.454-.325-.798-.789-1.032-1.392-.235-.603-.315-1.317-.24-2.144.08-.848.293-1.568.64-2.16.346-.597.773-1.053 1.28-1.368a3.048 3.048 0 0 1 1.624-.472c.378 0 .714.067 1.008.2.293.128.544.304.752.528.213.224.381.483.504.776.122.293.202.603.24.928l-1.152.112c-.08-.437-.248-.784-.504-1.04a1.313 1.313 0 0 0-.968-.384c-.358 0-.696.109-1.016.328-.32.219-.592.541-.816.968-.224.427-.366.955-.424 1.584-.054.587-.019 1.099.104 1.536.128.432.333.768.616 1.008.282.235.626.352 1.032.352.48 0 .874-.141 1.184-.424.309-.288.482-.691.52-1.208h1.168c-.043.528-.2 1-.472 1.416a2.884 2.884 0 0 1-1.056.984c-.432.235-.92.352-1.464.352Zm7.086 0c-.379 0-.709-.077-.992-.232a1.43 1.43 0 0 1-.632-.712c-.133-.32-.179-.725-.136-1.216l.464-5.064.328.248h-1.48l.112-.848h1.448l-.4.36.248-2.488h1.136l-.248 2.488-.32-.36h2.52l-.096.848h-2.52l.392-.248-.48 5.048c-.037.389.021.683.176.88.155.192.395.288.72.288.181 0 .368-.024.56-.072a4.31 4.31 0 0 0 .64-.216l.08.896a4.395 4.395 0 0 1-.768.296 2.763 2.763 0 0 1-.752.104Zm4.838-9.632c-.229 0-.403-.072-.52-.216-.117-.144-.168-.333-.152-.568a.95.95 0 0 1 .24-.56.737.737 0 0 1 .576-.24c.235 0 .411.075.528.224.123.149.173.341.152.576-.021.245-.109.437-.264.576a.79.79 0 0 1-.56.208ZM148.598 347l.72-7.664h1.136l-.72 7.664h-1.136Zm6.689.176c-.624 0-1.165-.152-1.624-.456-.459-.304-.797-.752-1.016-1.344-.219-.597-.285-1.331-.2-2.2.085-.88.293-1.616.624-2.208.336-.597.76-1.048 1.272-1.352a3.3 3.3 0 0 1 1.704-.456c.624 0 1.163.155 1.616.464.453.309.789.763 1.008 1.36.224.592.293 1.323.208 2.192-.085.869-.296 1.603-.632 2.2-.331.592-.752 1.04-1.264 1.344a3.234 3.234 0 0 1-1.696.456Zm.056-1.088c.667 0 1.208-.259 1.624-.776.416-.523.669-1.235.76-2.136.091-.912-.016-1.627-.32-2.144-.299-.523-.781-.784-1.448-.784-.661 0-1.195.259-1.6.776-.4.512-.645 1.229-.736 2.152-.059.592-.035 1.107.072 1.544.107.437.296.776.568 1.016.277.235.637.352 1.08.352Zm5.331.912.72-7.648h.976l-.016 1.488c.272-.544.616-.96 1.032-1.248a2.48 2.48 0 0 1 1.432-.432c.544 0 .998.133 1.36.4.368.267.632.651.792 1.152.16.496.206 1.093.136 1.792L166.69 347h-1.12l.416-4.496c.075-.736-.032-1.291-.32-1.664-.288-.373-.685-.56-1.192-.56-.645 0-1.173.277-1.584.832-.405.549-.653 1.307-.744 2.272L161.81 347h-1.136Zm11.048.176c-.597 0-1.107-.104-1.528-.312a2.2 2.2 0 0 1-.944-.856c-.208-.368-.293-.789-.256-1.264h1.088c-.032.453.109.808.424 1.064.315.251.728.376 1.24.376.507 0 .925-.115 1.256-.344.336-.235.525-.531.568-.888.037-.309-.051-.547-.264-.712-.208-.165-.493-.312-.856-.44l-1.296-.496c-.549-.203-.965-.475-1.248-.816-.283-.341-.397-.763-.344-1.264.043-.416.187-.779.432-1.088.245-.309.576-.549.992-.72.416-.171.896-.256 1.44-.256.837 0 1.469.192 1.896.576.427.384.624.869.592 1.456h-1.104c-.011-.341-.144-.6-.4-.776-.256-.176-.597-.264-1.024-.264-.357 0-.653.056-.888.168a1.319 1.319 0 0 0-.528.416 1.147 1.147 0 0 0-.224.52.808.808 0 0 0 .248.728c.208.187.491.339.848.456l1.328.512c.539.181.957.435 1.256.76.304.32.429.733.376 1.24a2.135 2.135 0 0 1-.44 1.088c-.251.336-.6.611-1.048.824-.443.208-.973.312-1.592.312ZM44.44 366l.72-7.664h1.136l-.144 1.456c.24-.544.525-.944.856-1.2a1.85 1.85 0 0 1 1.152-.384c.112 0 .235.011.368.032.133.016.264.053.392.112l-.176 1.232a3.099 3.099 0 0 0-.448-.112 2.096 2.096 0 0 0-.44-.048 1.41 1.41 0 0 0-1.016.392c-.272.256-.485.619-.64 1.088a7.117 7.117 0 0 0-.312 1.64L45.576 366H44.44Zm7.868.176c-.602 0-1.125-.16-1.568-.48-.442-.32-.77-.776-.984-1.368-.213-.597-.28-1.309-.2-2.136.08-.837.283-1.557.608-2.16.326-.603.736-1.064 1.232-1.384a2.969 2.969 0 0 1 1.648-.488c.443 0 .824.085 1.144.256.326.165.59.397.792.696.208.293.358.632.448 1.016a4.2 4.2 0 0 1 .096 1.232 4.898 4.898 0 0 1-.048.528 5.154 5.154 0 0 1-.096.56H50.3l.392-.264a4.865 4.865 0 0 0 .04 1.512c.091.448.272.803.544 1.064.278.261.656.392 1.136.392.432 0 .803-.117 1.112-.352.31-.24.518-.587.624-1.04h1.168c-.122.512-.33.949-.624 1.312a2.922 2.922 0 0 1-1.048.824c-.41.187-.856.28-1.336.28Zm-1.592-4.352-.304-.184h4.4l-.392.144a4.43 4.43 0 0 0 .008-1.272c-.058-.4-.202-.723-.432-.968-.224-.251-.562-.376-1.016-.376-.437 0-.816.123-1.136.368a2.58 2.58 0 0 0-.76.968c-.186.4-.309.84-.368 1.32Zm12.439 8.112c-.656-.203-1.099-.515-1.328-.936-.23-.416-.304-1.011-.224-1.784l.224-2.448a2.75 2.75 0 0 1-.88 1.032 2.126 2.126 0 0 1-1.24.376c-.544 0-1.038-.16-1.48-.48-.443-.325-.782-.787-1.016-1.384-.23-.603-.307-1.32-.232-2.152.08-.837.293-1.555.64-2.152.346-.597.768-1.053 1.264-1.368.501-.32 1.018-.48 1.552-.48.453 0 .856.125 1.208.376.352.245.61.605.776 1.08l.368-1.264h.784l-.848 8.944c-.032.357-.03.637.008.84a.799.799 0 0 0 .264.488c.138.117.341.229.608.336l-.448.976Zm-3.2-4.88c.314 0 .621-.083.92-.248.298-.171.549-.416.752-.736.208-.325.333-.717.376-1.176l.16-1.584c-.011-.448-.094-.821-.248-1.12a1.597 1.597 0 0 0-.616-.68 1.55 1.55 0 0 0-.832-.232 1.85 1.85 0 0 0-1.056.336c-.326.224-.6.549-.824.976-.224.427-.368.949-.432 1.568-.064.645-.016 1.184.144 1.616.16.427.389.747.688.96.298.213.621.32.968.32Zm8.181 1.088c-.517 0-.96-.107-1.328-.32-.368-.213-.64-.536-.816-.968-.175-.437-.234-.989-.175-1.656l.464-4.864h1.135l-.447 4.768c-.064.64.026 1.123.272 1.448.25.325.64.488 1.168.488.426 0 .81-.128 1.151-.384.342-.256.622-.608.84-1.056.22-.448.355-.96.408-1.536l.352-3.728h1.136l-.72 7.664h-1.135l.144-1.52c-.278.533-.627.944-1.048 1.232a2.426 2.426 0 0 1-1.4.432Zm7.88-9.6c-.23 0-.403-.072-.52-.216-.118-.144-.169-.333-.153-.568a.954.954 0 0 1 .24-.56.737.737 0 0 1 .576-.24c.235 0 .41.075.528.224.123.149.174.341.152.576a.84.84 0 0 1-.264.576.79.79 0 0 1-.56.208ZM74.55 366l.72-7.664h1.136l-.72 7.664H74.55Zm4.217 0 .72-7.664h1.136l-.144 1.456c.24-.544.525-.944.856-1.2a1.85 1.85 0 0 1 1.152-.384c.112 0 .235.011.368.032.134.016.264.053.392.112l-.176 1.232a3.099 3.099 0 0 0-.448-.112 2.096 2.096 0 0 0-.44-.048 1.41 1.41 0 0 0-1.016.392c-.272.256-.485.619-.64 1.088a7.127 7.127 0 0 0-.312 1.64L79.904 366h-1.136Zm7.868.176c-.602 0-1.125-.16-1.567-.48-.443-.32-.771-.776-.984-1.368-.214-.597-.28-1.309-.2-2.136.08-.837.282-1.557.608-2.16.325-.603.736-1.064 1.232-1.384a2.97 2.97 0 0 1 1.648-.488c.442 0 .823.085 1.143.256.326.165.59.397.792.696.208.293.358.632.448 1.016.091.384.123.795.097 1.232a4.848 4.848 0 0 1-.048.528 5.105 5.105 0 0 1-.097.56h-5.08l.392-.264a4.865 4.865 0 0 0 .04 1.512c.091.448.272.803.544 1.064.278.261.656.392 1.136.392.433 0 .803-.117 1.113-.352.309-.24.517-.587.624-1.04h1.167c-.122.512-.33.949-.624 1.312a2.92 2.92 0 0 1-1.047.824c-.411.187-.856.28-1.337.28Zm-1.591-4.352-.305-.184h4.4l-.391.144c.064-.453.066-.877.008-1.272-.06-.4-.203-.723-.433-.968-.224-.251-.562-.376-1.016-.376-.437 0-.816.123-1.136.368a2.58 2.58 0 0 0-.76.968c-.186.4-.309.84-.368 1.32Zm8.974 4.352c-.598 0-1.107-.104-1.528-.312a2.202 2.202 0 0 1-.944-.856c-.208-.368-.294-.789-.256-1.264h1.088c-.032.453.11.808.424 1.064.314.251.728.376 1.24.376.506 0 .925-.115 1.256-.344.336-.235.525-.531.568-.888.037-.309-.05-.547-.264-.712-.208-.165-.494-.312-.856-.44l-1.296-.496c-.55-.203-.966-.475-1.248-.816-.283-.341-.398-.763-.344-1.264.042-.416.186-.779.432-1.088a2.4 2.4 0 0 1 .992-.72c.416-.171.896-.256 1.44-.256.837 0 1.47.192 1.896.576.426.384.624.869.592 1.456h-1.104c-.01-.341-.144-.6-.4-.776-.256-.176-.598-.264-1.024-.264-.358 0-.654.056-.888.168-.23.107-.406.245-.528.416a1.146 1.146 0 0 0-.224.52.807.807 0 0 0 .248.728c.208.187.49.339.848.456l1.328.512c.538.181.957.435 1.256.76.304.32.43.733.376 1.24a2.138 2.138 0 0 1-.44 1.088c-.25.336-.6.611-1.048.824-.443.208-.974.312-1.592.312Zm11.008-.032c-.517 0-.96-.107-1.328-.32-.368-.213-.64-.536-.816-.968-.176-.437-.235-.989-.176-1.656l.464-4.864h1.136l-.448 4.768c-.064.64.027 1.123.272 1.448.251.325.64.488 1.168.488a1.87 1.87 0 0 0 1.152-.384c.341-.256.621-.608.84-1.056.219-.448.355-.96.408-1.536l.352-3.728h1.136l-.72 7.664h-1.136l.144-1.52c-.277.533-.627.944-1.048 1.232a2.426 2.426 0 0 1-1.4.432Zm8.695.032c-.597 0-1.107-.104-1.528-.312a2.2 2.2 0 0 1-.944-.856c-.208-.368-.293-.789-.256-1.264h1.088c-.032.453.109.808.424 1.064.315.251.728.376 1.24.376.507 0 .925-.115 1.256-.344.336-.235.525-.531.568-.888.037-.309-.051-.547-.264-.712-.208-.165-.493-.312-.856-.44l-1.296-.496c-.549-.203-.965-.475-1.248-.816-.283-.341-.397-.763-.344-1.264.043-.416.187-.779.432-1.088.245-.309.576-.549.992-.72.416-.171.896-.256 1.44-.256.837 0 1.469.192 1.896.576.427.384.624.869.592 1.456h-1.104c-.011-.341-.144-.6-.4-.776-.256-.176-.597-.264-1.024-.264-.357 0-.653.056-.888.168a1.319 1.319 0 0 0-.528.416 1.147 1.147 0 0 0-.224.52.808.808 0 0 0 .248.728c.208.187.491.339.848.456l1.328.512c.539.181.957.435 1.256.76.304.32.429.733.376 1.24a2.135 2.135 0 0 1-.44 1.088c-.251.336-.6.611-1.048.824-.443.208-.973.312-1.592.312Zm7.586 0c-.602 0-1.125-.16-1.568-.48-.442-.32-.77-.776-.984-1.368-.213-.597-.28-1.309-.2-2.136.08-.837.283-1.557.608-2.16.326-.603.736-1.064 1.232-1.384a2.972 2.972 0 0 1 1.648-.488c.443 0 .824.085 1.144.256.326.165.59.397.792.696.208.293.358.632.448 1.016a4.2 4.2 0 0 1 .096 1.232 4.702 4.702 0 0 1-.048.528 4.966 4.966 0 0 1-.096.56h-5.08l.392-.264a4.886 4.886 0 0 0 .04 1.512c.091.448.272.803.544 1.064.278.261.656.392 1.136.392.432 0 .803-.117 1.112-.352.31-.24.518-.587.624-1.04h1.168c-.122.512-.33.949-.624 1.312a2.918 2.918 0 0 1-1.048.824c-.41.187-.856.28-1.336.28Zm-1.592-4.352-.304-.184h4.4l-.392.144c.064-.453.067-.877.008-1.272-.058-.4-.202-.723-.432-.968-.224-.251-.562-.376-1.016-.376-.437 0-.816.123-1.136.368-.314.24-.568.563-.76.968-.186.4-.309.84-.368 1.32ZM126.33 366l.72-7.664h1.136l-.144 1.456c.24-.544.525-.944.856-1.2a1.85 1.85 0 0 1 1.152-.384c.112 0 .234.011.368.032.133.016.264.053.392.112l-.176 1.232a3.122 3.122 0 0 0-.448-.112 2.1 2.1 0 0 0-.44-.048 1.41 1.41 0 0 0-1.016.392c-.272.256-.486.619-.64 1.088a7.085 7.085 0 0 0-.312 1.64l-.312 3.456h-1.136Zm7.844.176c-.597 0-1.107-.104-1.528-.312a2.2 2.2 0 0 1-.944-.856c-.208-.368-.293-.789-.256-1.264h1.088c-.032.453.109.808.424 1.064.315.251.728.376 1.24.376.507 0 .925-.115 1.256-.344.336-.235.525-.531.568-.888.037-.309-.051-.547-.264-.712-.208-.165-.493-.312-.856-.44l-1.296-.496c-.549-.203-.965-.475-1.248-.816-.283-.341-.397-.763-.344-1.264.043-.416.187-.779.432-1.088.245-.309.576-.549.992-.72.416-.171.896-.256 1.44-.256.837 0 1.469.192 1.896.576.427.384.624.869.592 1.456h-1.104c-.011-.341-.144-.6-.4-.776-.256-.176-.597-.264-1.024-.264-.357 0-.653.056-.888.168a1.319 1.319 0 0 0-.528.416 1.147 1.147 0 0 0-.224.52.808.808 0 0 0 .248.728c.208.187.491.339.848.456l1.328.512c.539.181.957.435 1.256.76.304.32.429.733.376 1.24a2.135 2.135 0 0 1-.44 1.088c-.251.336-.6.611-1.048.824-.443.208-.973.312-1.592.312Zm10.736 0c-.378 0-.709-.077-.992-.232a1.436 1.436 0 0 1-.632-.712c-.133-.32-.178-.725-.136-1.216l.464-5.064.328.248h-1.48l.112-.848h1.448l-.4.36.248-2.488h1.136l-.248 2.488-.32-.36h2.52l-.096.848h-2.52l.392-.248-.48 5.048c-.037.389.022.683.176.88.155.192.395.288.72.288.182 0 .368-.024.56-.072.198-.048.411-.12.64-.216l.08.896a4.395 4.395 0 0 1-.768.296 2.763 2.763 0 0 1-.752.104Zm5.767 0c-.624 0-1.166-.152-1.624-.456-.459-.304-.798-.752-1.016-1.344-.219-.597-.286-1.331-.2-2.2.085-.88.293-1.616.624-2.208.336-.597.76-1.048 1.272-1.352a3.3 3.3 0 0 1 1.704-.456c.624 0 1.162.155 1.616.464.453.309.789.763 1.008 1.36.224.592.293 1.323.208 2.192-.086.869-.296 1.603-.632 2.2-.331.592-.752 1.04-1.264 1.344a3.234 3.234 0 0 1-1.696.456Zm.056-1.088c.666 0 1.208-.259 1.624-.776.416-.523.669-1.235.76-2.136.09-.912-.016-1.627-.32-2.144-.299-.523-.782-.784-1.448-.784-.662 0-1.195.259-1.6.776-.4.512-.646 1.229-.736 2.152-.059.592-.035 1.107.072 1.544.106.437.296.776.568 1.016.277.235.637.352 1.08.352Zm-104.75 10.456c-.23 0-.403-.072-.52-.216-.117-.144-.168-.333-.152-.568a.954.954 0 0 1 .24-.56.737.737 0 0 1 .576-.24c.235 0 .41.075.528.224.123.149.173.341.152.576a.84.84 0 0 1-.264.576.79.79 0 0 1-.56.208ZM44.52 385l.72-7.664h1.136l-.72 7.664H44.52Zm4.217 0 .72-7.648h.976l-.016 1.488c.272-.544.616-.96 1.032-1.248a2.478 2.478 0 0 1 1.432-.432c.544 0 .997.133 1.36.4.368.267.632.651.792 1.152.16.496.205 1.093.136 1.792L54.753 385h-1.12l.416-4.496c.075-.736-.032-1.291-.32-1.664-.288-.373-.685-.56-1.192-.56-.645 0-1.173.277-1.584.832-.406.549-.654 1.307-.744 2.272L49.873 385h-1.136Zm10.8.176a2.03 2.03 0 0 1-.993-.232 1.43 1.43 0 0 1-.632-.712c-.133-.32-.178-.725-.136-1.216l.464-5.064.328.248h-1.48l.112-.848h1.448l-.4.36.248-2.488h1.136l-.248 2.488-.32-.36h2.52l-.096.848h-2.52l.392-.248-.48 5.048c-.037.389.022.683.176.88.155.192.395.288.72.288.182 0 .368-.024.56-.072.198-.048.411-.12.64-.216l.08.896a4.42 4.42 0 0 1-.768.296 2.765 2.765 0 0 1-.752.104Zm5.678 0c-.603 0-1.126-.16-1.568-.48-.443-.32-.771-.776-.984-1.368-.214-.597-.28-1.309-.2-2.136.08-.837.282-1.557.608-2.16.325-.603.736-1.064 1.232-1.384a2.97 2.97 0 0 1 1.648-.488c.442 0 .824.085 1.144.256.325.165.589.397.792.696.208.293.357.632.448 1.016.09.384.122.795.096 1.232a4.848 4.848 0 0 1-.048.528 5.105 5.105 0 0 1-.096.56h-5.08l.392-.264a4.868 4.868 0 0 0 .04 1.512c.09.448.272.803.544 1.064.277.261.656.392 1.136.392.432 0 .802-.117 1.112-.352.309-.24.517-.587.624-1.04h1.168a3.272 3.272 0 0 1-.624 1.312 2.92 2.92 0 0 1-1.048.824c-.411.187-.856.28-1.336.28Zm-1.592-4.352-.304-.184h4.4l-.392.144c.064-.453.066-.877.008-1.272-.059-.4-.203-.723-.432-.968-.224-.251-.563-.376-1.016-.376-.438 0-.816.123-1.136.368a2.58 2.58 0 0 0-.76.968c-.187.4-.31.84-.368 1.32ZM70.237 385l.72-7.648h.976l-.016 1.488c.272-.544.616-.96 1.032-1.248a2.478 2.478 0 0 1 1.432-.432c.544 0 .997.133 1.36.4.368.267.632.651.792 1.152.16.496.205 1.093.136 1.792L76.253 385h-1.12l.416-4.496c.075-.736-.032-1.291-.32-1.664-.288-.373-.686-.56-1.192-.56-.646 0-1.174.277-1.584.832-.406.549-.654 1.307-.744 2.272L71.373 385h-1.136Zm10.8.176a2.03 2.03 0 0 1-.993-.232 1.43 1.43 0 0 1-.632-.712c-.133-.32-.178-.725-.136-1.216l.464-5.064.328.248h-1.48l.112-.848h1.448l-.4.36.248-2.488h1.136l-.248 2.488-.32-.36h2.52l-.096.848h-2.52l.392-.248-.48 5.048c-.037.389.022.683.176.88.155.192.395.288.72.288.182 0 .368-.024.56-.072.198-.048.411-.12.64-.216l.08.896a4.42 4.42 0 0 1-.768.296 2.765 2.765 0 0 1-.752.104Zm4.838-9.632c-.23 0-.403-.072-.52-.216-.118-.144-.168-.333-.152-.568a.955.955 0 0 1 .24-.56.737.737 0 0 1 .576-.24c.234 0 .41.075.528.224.122.149.173.341.152.576-.022.245-.11.437-.264.576a.79.79 0 0 1-.56.208ZM84.41 385l.72-7.664h1.136l-.72 7.664H84.41Zm6.689.176c-.624 0-1.166-.152-1.624-.456-.46-.304-.798-.752-1.016-1.344-.22-.597-.286-1.331-.2-2.2.085-.88.293-1.616.623-2.208.337-.597.76-1.048 1.273-1.352a3.302 3.302 0 0 1 1.703-.456c.625 0 1.163.155 1.617.464.453.309.789.763 1.008 1.36.224.592.293 1.323.208 2.192-.086.869-.296 1.603-.632 2.2-.331.592-.752 1.04-1.264 1.344a3.233 3.233 0 0 1-1.697.456Zm.056-1.088c.666 0 1.207-.259 1.623-.776.416-.523.67-1.235.76-2.136.091-.912-.016-1.627-.32-2.144-.298-.523-.78-.784-1.447-.784-.662 0-1.195.259-1.6.776-.4.512-.646 1.229-.736 2.152-.06.592-.035 1.107.071 1.544.107.437.296.776.569 1.016.277.235.637.352 1.08.352Zm5.33.912.72-7.648h.977l-.016 1.488c.272-.544.616-.96 1.032-1.248a2.48 2.48 0 0 1 1.432-.432c.544 0 .997.133 1.36.4.368.267.632.651.792 1.152.16.496.205 1.093.136 1.792l-.416 4.496h-1.12l.416-4.496c.075-.736-.032-1.291-.32-1.664-.288-.373-.685-.56-1.192-.56-.646 0-1.174.277-1.584.832-.406.549-.654 1.307-.744 2.272L97.623 385h-1.136Zm10.704.176c-.533 0-.973-.112-1.32-.336a1.96 1.96 0 0 1-.752-.864 2.301 2.301 0 0 1-.168-1.12c.054-.517.214-.941.48-1.272a2.385 2.385 0 0 1 1.032-.736 3.767 3.767 0 0 1 1.384-.248c.336 0 .672.037 1.008.112.342.069.662.171.96.304l.096-.976c.075-.688-.008-1.181-.248-1.48-.24-.304-.621-.456-1.144-.456a2.29 2.29 0 0 0-.824.144c-.25.096-.456.245-.616.448-.154.197-.245.453-.272.768h-1.264c.054-.571.224-1.024.512-1.36a2.446 2.446 0 0 1 1.088-.72 4.24 4.24 0 0 1 1.376-.224c.87 0 1.528.232 1.976.696.454.459.632 1.197.536 2.216l-.464 4.928h-.976c0-.219.003-.432.008-.64.006-.213.008-.427.008-.64-.261.491-.602.856-1.024 1.096-.421.24-.885.36-1.392.36Zm.216-.976c.39 0 .76-.096 1.112-.288.352-.197.64-.475.864-.832.23-.357.347-.779.352-1.264a7.158 7.158 0 0 0-.912-.232 4.858 4.858 0 0 0-.896-.088c-.464 0-.864.101-1.2.304-.336.197-.528.549-.576 1.056-.032.373.054.691.256.952.208.261.542.392 1 .392Zm5.847.8 1.024-10.896h1.136L114.389 385h-1.136Zm4.031 0 1.024-10.896h1.136L118.42 385h-1.136Zm3.967 3.936c-.293 0-.573-.048-.84-.144a3.69 3.69 0 0 1-.792-.416l.112-1.152c.224.213.451.368.68.464.23.096.472.144.728.144.288 0 .539-.101.752-.304.219-.197.406-.453.56-.768a7.21 7.21 0 0 0 .416-.976l.288-.784-2.096-7.648h1.264l1.504 6.08 2.208-6.08h1.152l-3.44 9.168a6.213 6.213 0 0 1-.664 1.312c-.245.363-.52.637-.824.824-.298.187-.634.28-1.008.28ZM131.706 385l1.024-10.896h1.136L132.842 385h-1.136Zm6.487.176c-.624 0-1.165-.152-1.624-.456-.458-.304-.797-.752-1.016-1.344-.218-.597-.285-1.331-.2-2.2.086-.88.294-1.616.624-2.208.336-.597.76-1.048 1.272-1.352a3.306 3.306 0 0 1 1.704-.456c.624 0 1.163.155 1.616.464.454.309.79.763 1.008 1.36.224.592.294 1.323.208 2.192-.085.869-.296 1.603-.632 2.2-.33.592-.752 1.04-1.264 1.344a3.231 3.231 0 0 1-1.696.456Zm.056-1.088c.667 0 1.208-.259 1.624-.776.416-.523.67-1.235.76-2.136.091-.912-.016-1.627-.32-2.144-.298-.523-.781-.784-1.448-.784-.661 0-1.194.259-1.6.776-.4.512-.645 1.229-.736 2.152-.058.592-.034 1.107.072 1.544.107.437.296.776.568 1.016.278.235.638.352 1.08.352Zm7.396 4.848c-.699 0-1.299-.109-1.8-.328-.502-.213-.88-.507-1.136-.88a1.863 1.863 0 0 1-.32-1.24c.037-.437.192-.808.464-1.112a2.142 2.142 0 0 1 1.048-.616 1.457 1.457 0 0 1-.584-.584 1.423 1.423 0 0 1-.152-.776c.032-.373.17-.685.416-.936.25-.251.549-.419.896-.504a2.496 2.496 0 0 1-.48-.88 2.993 2.993 0 0 1-.096-1.136 3.13 3.13 0 0 1 .512-1.464 2.89 2.89 0 0 1 1.088-.976 3.102 3.102 0 0 1 1.448-.344c.341 0 .656.051.944.152.293.096.546.237.76.424.08-.373.216-.699.408-.976.197-.283.442-.501.736-.656.293-.16.626-.24 1-.24l-.24 1.248c-.406 0-.731.093-.976.28-.24.181-.39.477-.448.888.138.224.24.475.304.752s.08.581.048.912a3.011 3.011 0 0 1-.512 1.472 3.068 3.068 0 0 1-1.112.992 3.203 3.203 0 0 1-1.496.352c-.246 0-.486-.032-.72-.096a2.469 2.469 0 0 1-.64-.272 1.014 1.014 0 0 0-.536.296 1.08 1.08 0 0 0-.296.632.676.676 0 0 0 .2.608c.17.16.498.24.984.24h2.672c.64 0 1.133.152 1.48.456.346.299.498.723.456 1.272-.038.512-.243 1-.616 1.464-.368.464-.87.843-1.504 1.136-.635.293-1.368.44-2.2.44Zm.024-1.008c.597 0 1.128-.093 1.592-.28.464-.187.832-.429 1.104-.728.277-.293.429-.608.456-.944.021-.261-.04-.477-.184-.648-.144-.165-.374-.248-.688-.248h-2.8c-.47 0-.854.131-1.152.392a1.368 1.368 0 0 0-.472.968c-.022.427.149.781.512 1.064.368.283.912.424 1.632.424Zm.848-6.08c.352 0 .661-.083.928-.248a1.9 1.9 0 0 0 .64-.688c.165-.288.264-.611.296-.968.053-.555-.056-1.005-.328-1.352-.267-.347-.659-.52-1.176-.52-.523 0-.952.173-1.288.52-.331.347-.52.797-.568 1.352-.054.539.05.992.312 1.36.266.363.661.544 1.184.544Zm10.723 3.328c-.379 0-.71-.077-.992-.232a1.426 1.426 0 0 1-.632-.712c-.134-.32-.179-.725-.136-1.216l.464-5.064.328.248h-1.48l.112-.848h1.448l-.4.36.248-2.488h1.136l-.248 2.488-.32-.36h2.52l-.096.848h-2.52l.392-.248-.48 5.048c-.038.389.021.683.176.88.154.192.394.288.72.288.181 0 .368-.024.56-.072.197-.048.41-.12.64-.216l.08.896a4.456 4.456 0 0 1-.768.296 2.768 2.768 0 0 1-.752.104Zm3.31-.176 1.024-10.896h1.136l-.448 4.656c.272-.507.613-.899 1.024-1.176a2.444 2.444 0 0 1 1.408-.424c.544 0 .997.136 1.36.408.362.267.624.651.784 1.152.165.496.216 1.091.152 1.784l-.424 4.496h-1.12l.416-4.496c.074-.731-.03-1.283-.312-1.656-.283-.379-.683-.568-1.2-.568-.432 0-.811.125-1.136.376-.326.245-.59.6-.792 1.064-.203.464-.336 1.019-.4 1.664l-.336 3.616h-1.136Zm11.071.176c-.603 0-1.125-.16-1.568-.48-.443-.32-.771-.776-.984-1.368-.213-.597-.28-1.309-.2-2.136.08-.837.283-1.557.608-2.16.325-.603.736-1.064 1.232-1.384a2.97 2.97 0 0 1 1.648-.488c.443 0 .824.085 1.144.256.325.165.589.397.792.696.208.293.357.632.448 1.016a4.2 4.2 0 0 1 .096 1.232 4.702 4.702 0 0 1-.048.528 4.966 4.966 0 0 1-.096.56h-5.08l.392-.264a4.856 4.856 0 0 0 .04 1.512c.091.448.272.803.544 1.064.277.261.656.392 1.136.392.432 0 .803-.117 1.112-.352.309-.24.517-.587.624-1.04h1.168a3.272 3.272 0 0 1-.624 1.312 2.918 2.918 0 0 1-1.048.824c-.411.187-.856.28-1.336.28Zm-1.592-4.352-.304-.184h4.4l-.392.144c.064-.453.067-.877.008-1.272-.059-.4-.203-.723-.432-.968-.224-.251-.563-.376-1.016-.376-.437 0-.816.123-1.136.368-.315.24-.568.563-.76.968-.187.4-.309.84-.368 1.32Zm8.158-5.28c-.229 0-.403-.072-.52-.216-.117-.144-.168-.333-.152-.568a.95.95 0 0 1 .24-.56.737.737 0 0 1 .576-.24c.235 0 .411.075.528.224.123.149.173.341.152.576-.021.245-.109.437-.264.576a.79.79 0 0 1-.56.208ZM176.723 385l.72-7.664h1.136l-.72 7.664h-1.136Zm4.217 0 .72-7.664h1.136l-.144 1.456c.24-.544.525-.944.856-1.2a1.85 1.85 0 0 1 1.152-.384c.112 0 .235.011.368.032.133.016.264.053.392.112l-.176 1.232a3.09 3.09 0 0 0-.448-.112 2.094 2.094 0 0 0-.44-.048 1.41 1.41 0 0 0-1.016.392c-.272.256-.485.619-.64 1.088a7.085 7.085 0 0 0-.312 1.64l-.312 3.456h-1.136Zm11.378.176c-.517 0-.984-.141-1.4-.424-.41-.283-.736-.68-.976-1.192-.234-.512-.352-1.107-.352-1.784 0-.523.072-1.053.216-1.592a5.603 5.603 0 0 1 .64-1.496 3.57 3.57 0 0 1 1.064-1.104c.422-.283.91-.424 1.464-.424.475 0 .878.112 1.208.336.336.224.598.549.784.976l.416-4.368h1.136L195.494 385h-.928l-.032-1.28c-.261.48-.589.843-.984 1.088-.389.245-.8.368-1.232.368Zm.24-1.12c.299 0 .6-.085.904-.256.304-.171.566-.416.784-.736.224-.325.358-.72.4-1.184l.144-1.568a.892.892 0 0 0 .008-.104.436.436 0 0 0 .008-.104c0-.405-.082-.741-.248-1.008a1.57 1.57 0 0 0-.648-.608 1.743 1.743 0 0 0-.832-.208c-.416 0-.77.109-1.064.328-.293.219-.53.501-.712.848a4.455 4.455 0 0 0-.4 1.104 5.12 5.12 0 0 0-.128 1.088c0 .736.168 1.323.504 1.76.336.432.763.648 1.28.648Zm8.323 1.12c-.624 0-1.166-.152-1.624-.456-.459-.304-.798-.752-1.016-1.344-.219-.597-.286-1.331-.2-2.2.085-.88.293-1.616.624-2.208.336-.597.76-1.048 1.272-1.352a3.3 3.3 0 0 1 1.704-.456c.624 0 1.162.155 1.616.464.453.309.789.763 1.008 1.36.224.592.293 1.323.208 2.192-.086.869-.296 1.603-.632 2.2-.331.592-.752 1.04-1.264 1.344a3.234 3.234 0 0 1-1.696.456Zm.056-1.088c.666 0 1.208-.259 1.624-.776.416-.523.669-1.235.76-2.136.09-.912-.016-1.627-.32-2.144-.299-.523-.782-.784-1.448-.784-.662 0-1.195.259-1.6.776-.4.512-.646 1.229-.736 2.152-.059.592-.035 1.107.072 1.544.106.437.296.776.568 1.016.277.235.637.352 1.08.352Zm7.691 1.088c-.597 0-1.107-.104-1.528-.312a2.2 2.2 0 0 1-.944-.856c-.208-.368-.293-.789-.256-1.264h1.088c-.032.453.109.808.424 1.064.315.251.728.376 1.24.376.507 0 .925-.115 1.256-.344.336-.235.525-.531.568-.888.037-.309-.051-.547-.264-.712-.208-.165-.493-.312-.856-.44l-1.296-.496c-.549-.203-.965-.475-1.248-.816-.283-.341-.397-.763-.344-1.264.043-.416.187-.779.432-1.088.245-.309.576-.549.992-.72.416-.171.896-.256 1.44-.256.837 0 1.469.192 1.896.576.427.384.624.869.592 1.456h-1.104c-.011-.341-.144-.6-.4-.776-.256-.176-.597-.264-1.024-.264-.357 0-.653.056-.888.168a1.319 1.319 0 0 0-.528.416 1.147 1.147 0 0 0-.224.52.808.808 0 0 0 .248.728c.208.187.491.339.848.456l1.328.512c.539.181.957.435 1.256.76.304.32.429.733.376 1.24a2.135 2.135 0 0 1-.44 1.088c-.251.336-.6.611-1.048.824-.443.208-.973.312-1.592.312Zm7.587 0c-.603 0-1.126-.16-1.568-.48-.443-.32-.771-.776-.984-1.368-.214-.597-.28-1.309-.2-2.136.08-.837.282-1.557.608-2.16.325-.603.736-1.064 1.232-1.384a2.967 2.967 0 0 1 1.648-.488c.442 0 .824.085 1.144.256.325.165.589.397.792.696.208.293.357.632.448 1.016.09.384.122.795.096 1.232a5.224 5.224 0 0 1-.048.528 5.462 5.462 0 0 1-.096.56h-5.08l.392-.264a4.856 4.856 0 0 0 .04 1.512c.09.448.272.803.544 1.064.277.261.656.392 1.136.392.432 0 .802-.117 1.112-.352.309-.24.517-.587.624-1.04h1.168a3.272 3.272 0 0 1-.624 1.312 2.927 2.927 0 0 1-1.048.824c-.411.187-.856.28-1.336.28Zm-1.592-4.352-.304-.184h4.4l-.392.144c.064-.453.066-.877.008-1.272-.059-.4-.203-.723-.432-.968-.224-.251-.563-.376-1.016-.376-.438 0-.816.123-1.136.368-.315.24-.568.563-.76.968-.187.4-.31.84-.368 1.32Zm8.974 4.352c-.597 0-1.107-.104-1.528-.312a2.2 2.2 0 0 1-.944-.856c-.208-.368-.293-.789-.256-1.264h1.088c-.032.453.109.808.424 1.064.315.251.728.376 1.24.376.507 0 .925-.115 1.256-.344.336-.235.525-.531.568-.888.037-.309-.051-.547-.264-.712-.208-.165-.493-.312-.856-.44l-1.296-.496c-.549-.203-.965-.475-1.248-.816-.283-.341-.397-.763-.344-1.264.043-.416.187-.779.432-1.088.245-.309.576-.549.992-.72.416-.171.896-.256 1.44-.256.837 0 1.469.192 1.896.576.427.384.624.869.592 1.456h-1.104c-.011-.341-.144-.6-.4-.776-.256-.176-.597-.264-1.024-.264-.357 0-.653.056-.888.168a1.319 1.319 0 0 0-.528.416 1.147 1.147 0 0 0-.224.52.808.808 0 0 0 .248.728c.208.187.491.339.848.456l1.328.512c.539.181.957.435 1.256.76.304.32.429.733.376 1.24a2.135 2.135 0 0 1-.44 1.088c-.251.336-.6.611-1.048.824-.443.208-.973.312-1.592.312Z"/><path fill="#D9D9D9" d="M126.5 304a.5.5 0 0 0 1 0h-1Zm.5-120.441v-.5a.5.5 0 0 0-.5.5h.5Zm112.333 0a2.667 2.667 0 1 0 5.333-.001 2.667 2.667 0 0 0-5.333.001ZM127 304h.5V183.559h-1V304h.5Zm0-120.441v.5h115v-1H127v.5Z"/><rect width="292.372" height="626.467" x="261.54" y="-202.913" stroke="#C2C2C2" stroke-width="7.825" rx="32.367"/><g clip-path="url(#b)"><rect width="284.547" height="618.642" x="265.453" y="-199" fill="#fff" rx="28.455"/><g clip-path="url(#c)"><rect width="256.91" height="273.188" x="279.609" y="32.045" fill="#E6F8F8" rx="8.535"/><circle cx="321.366" cy="187.747" r="22.648" fill="#006966"/><rect width="26.82" height="14.304" x="307.062" y="192.408" fill="#fff" rx="7.152" transform="rotate(-45 307.062 192.408)"/><path fill="#006966" d="M351.091 187.04a.708.708 0 0 0 0 1.416v-1.416Zm94.13.708-7.078-4.086v8.172l7.078-4.086Zm-94.13 0v.708h87.76v-1.416h-87.76v.708Zm166.409.406c0 17.589-14.259 31.848-31.848 31.848s-31.848-14.259-31.848-31.848 14.259-31.848 31.848-31.848 31.848 14.259 31.848 31.848Zm-60.511 0c0 15.83 12.833 28.663 28.663 28.663s28.664-12.833 28.664-28.663-12.834-28.664-28.664-28.664c-15.83 0-28.663 12.834-28.663 28.664Z"/><path fill="#222429" d="M331.618 276.43v-.816h2.186c.679 0 1.264-.136 1.755-.407.491-.28.868-.668 1.132-1.167.265-.498.397-1.075.397-1.732 0-.649-.132-1.216-.397-1.699a2.742 2.742 0 0 0-1.132-1.121c-.483-.264-1.068-.396-1.755-.396h-2.186v-.815h2.186c.853 0 1.597.169 2.231.509a3.55 3.55 0 0 1 1.472 1.416c.355.604.532 1.313.532 2.128 0 .816-.177 1.533-.532 2.152a3.781 3.781 0 0 1-1.484 1.438c-.626.34-1.362.51-2.208.51h-2.197Zm-.555 0v-8.153h.929v8.153h-.929Zm8.448 0v-5.775h.849v1.472h.056v4.303h-.905Zm.905-3.012-.147-1.371c.136-.49.378-.864.725-1.121a1.969 1.969 0 0 1 1.2-.385c.189 0 .317.015.385.046v.872a.415.415 0 0 0-.158-.023 2.207 2.207 0 0 0-.249-.011c-.574 0-1.012.173-1.314.52-.294.34-.442.831-.442 1.473Zm6.719 3.012a3.262 3.262 0 0 1-.067-.442 13.631 13.631 0 0 1-.012-.634H347v-2.763c0-.438-.102-.759-.306-.963-.196-.211-.517-.317-.963-.317-.438 0-.789.091-1.053.272a.965.965 0 0 0-.43.747h-.872c.038-.558.272-.996.702-1.313.43-.317.993-.476 1.687-.476.717 0 1.25.17 1.597.51.347.34.521.849.521 1.529v2.774c0 .166.011.34.034.521a9.6 9.6 0 0 0 .09.555h-.872Zm-1.981.113c-.597 0-1.072-.144-1.427-.43-.347-.295-.521-.695-.521-1.201 0-.506.174-.898.521-1.177.347-.28.853-.476 1.517-.589l2.016-.34v.747l-1.88.295c-.422.068-.743.181-.962.34-.219.158-.329.388-.329.69 0 .295.099.517.295.668.204.151.502.227.894.227.506 0 .918-.113 1.235-.34.324-.234.487-.536.487-.906l.147.804a1.557 1.557 0 0 1-.714.895c-.347.211-.773.317-1.279.317Zm6.774 2.321c-.687 0-1.261-.162-1.721-.487a1.926 1.926 0 0 1-.827-1.268h.861c.083.302.268.54.554.714.295.181.691.271 1.189.271.589 0 1.035-.162 1.337-.487.302-.317.453-.785.453-1.404v-1.234l.113.023a1.898 1.898 0 0 1-.77 1.053c-.385.256-.842.385-1.37.385-.506 0-.952-.121-1.337-.363a2.476 2.476 0 0 1-.894-1.03c-.212-.438-.317-.948-.317-1.529 0-.589.109-1.106.328-1.551.219-.446.525-.789.917-1.031.4-.249.865-.373 1.393-.373.544 0 .997.132 1.359.396.37.264.615.642.736 1.132l-.102.012v-1.438h.849v5.548c0 .823-.245 1.472-.736 1.948-.49.476-1.162.713-2.015.713Zm.045-3.216c.566 0 1.015-.196 1.348-.588.332-.393.498-.925.498-1.597 0-.657-.166-1.174-.498-1.552-.333-.385-.782-.577-1.348-.577-.574 0-1.027.192-1.359.577-.324.385-.487.914-.487 1.586 0 .657.166 1.181.499 1.574.332.385.781.577 1.347.577Zm9.1.884c-.641 0-1.109-.144-1.404-.431-.287-.294-.43-.717-.43-1.268v-5.526l.906-.34v5.855c0 .324.083.562.249.713.166.151.438.227.815.227.151 0 .28-.008.385-.023.113-.023.204-.049.272-.079v.77c-.075.03-.185.053-.328.068a2.927 2.927 0 0 1-.465.034Zm-3.023-5.107v-.77h3.816v.77h-3.816Zm4.982 5.005v-8.153h.906v8.153h-.906Zm4.133 0v-3.782c0-.438-.109-.767-.328-.986-.219-.219-.544-.328-.974-.328-.378 0-.714.083-1.008.249a1.803 1.803 0 0 0-.679.691 2.134 2.134 0 0 0-.238 1.03l-.147-1.37c.196-.43.494-.77.894-1.019a2.598 2.598 0 0 1 1.382-.374c.604 0 1.087.174 1.449.521.37.34.555.789.555 1.348v4.02h-.906Zm5.012.113c-.551 0-1.038-.128-1.46-.385a2.795 2.795 0 0 1-.997-1.076c-.241-.453-.362-.974-.362-1.563 0-.588.117-1.106.351-1.551a2.597 2.597 0 0 1 1.008-1.053c.43-.249.924-.374 1.483-.374.536 0 1 .117 1.393.351.4.234.706.563.917.986.219.422.328.921.328 1.494 0 .076-.003.147-.011.215 0 .068-.007.144-.023.227h-4.767v-.759h4.213l-.295.419c0-.694-.155-1.227-.464-1.596-.302-.378-.732-.567-1.291-.567-.574 0-1.038.2-1.393.6-.347.393-.521.925-.521 1.597 0 .687.174 1.238.521 1.653.355.408.827.612 1.416.612.37 0 .694-.079.974-.238.279-.166.483-.4.611-.702h.861a2.526 2.526 0 0 1-.952 1.257c-.437.302-.951.453-1.54.453Zm6.292-.113v-5.775h.906v5.775h-.906Zm-.068-7.089v-1.064h1.042v1.064h-1.042Zm5.054 7.202c-.528 0-1-.128-1.415-.385a2.848 2.848 0 0 1-.974-1.076c-.234-.46-.351-.981-.351-1.563 0-.581.117-1.094.351-1.54.241-.445.566-.796.974-1.053a2.62 2.62 0 0 1 1.404-.385c.43 0 .815.083 1.155.249.347.166.63.404.849.714.227.302.37.657.43 1.064h-.838a1.575 1.575 0 0 0-.52-.906c-.272-.234-.623-.351-1.054-.351-.369 0-.69.091-.962.272a1.785 1.785 0 0 0-.634.77c-.151.332-.227.721-.227 1.166 0 .446.076.838.227 1.178.151.34.362.604.634.793.279.189.604.283.974.283.415 0 .762-.113 1.042-.34.279-.234.456-.536.532-.906h.838a2.41 2.41 0 0 1-.453 1.065c-.227.302-.51.536-.85.702a2.541 2.541 0 0 1-1.132.249Zm6.129 0c-.566 0-1.064-.132-1.495-.396a2.767 2.767 0 0 1-1.007-1.076 3.379 3.379 0 0 1-.351-1.552c0-.581.12-1.094.362-1.54.241-.445.574-.796.996-1.053.431-.256.929-.385 1.495-.385.574 0 1.072.129 1.495.385.43.257.762.608.996 1.053.242.446.363.959.363 1.54 0 .574-.121 1.091-.363 1.552a2.69 2.69 0 0 1-.996 1.076c-.423.264-.921.396-1.495.396Zm0-.77c.393 0 .732-.094 1.019-.283a1.94 1.94 0 0 0 .668-.804 2.75 2.75 0 0 0 .238-1.178c0-.664-.177-1.196-.532-1.597-.347-.4-.812-.6-1.393-.6-.574 0-1.038.2-1.393.6-.355.401-.532.933-.532 1.597 0 .446.079.838.238 1.178.158.34.381.608.668.804.294.189.634.283 1.019.283Zm4.212.657v-5.775h.85v1.358h.056v4.417h-.906Zm4.134 0v-3.782c0-.438-.11-.767-.329-.986-.219-.219-.543-.328-.974-.328-.377 0-.713.083-1.007.249a1.806 1.806 0 0 0-.68.691 2.146 2.146 0 0 0-.238 1.03l-.147-1.37a2.3 2.3 0 0 1 .895-1.019 2.595 2.595 0 0 1 1.381-.374c.604 0 1.087.174 1.45.521.37.34.555.789.555 1.348v4.02h-.906Zm7.222.102c-.641 0-1.109-.144-1.404-.431-.287-.294-.43-.717-.43-1.268v-5.526l.906-.34v5.855c0 .324.083.562.249.713.166.151.438.227.815.227.151 0 .28-.008.385-.023.113-.023.204-.049.272-.079v.77c-.076.03-.185.053-.328.068a2.927 2.927 0 0 1-.465.034Zm-3.023-5.107v-.77h3.816v.77h-3.816Zm7.25 5.118c-.566 0-1.065-.132-1.495-.396a2.777 2.777 0 0 1-1.008-1.076 3.379 3.379 0 0 1-.351-1.552c0-.581.121-1.094.363-1.54.241-.445.573-.796.996-1.053.43-.256.929-.385 1.495-.385.573 0 1.072.129 1.494.385.431.257.763.608.997 1.053.242.446.362.959.362 1.54 0 .574-.12 1.091-.362 1.552a2.685 2.685 0 0 1-.997 1.076c-.422.264-.921.396-1.494.396Zm0-.77a1.81 1.81 0 0 0 1.019-.283c.287-.196.509-.464.668-.804a2.75 2.75 0 0 0 .238-1.178c0-.664-.178-1.196-.532-1.597-.348-.4-.812-.6-1.393-.6-.574 0-1.038.2-1.393.6-.355.401-.532.933-.532 1.597 0 .446.079.838.237 1.178.159.34.382.608.669.804.294.189.634.283 1.019.283Zm6.479.657v-8.153h.906v8.153h-.906Zm5.121.113c-.566 0-1.064-.132-1.495-.396a2.777 2.777 0 0 1-1.008-1.076 3.379 3.379 0 0 1-.351-1.552c0-.581.121-1.094.363-1.54.241-.445.574-.796.996-1.053.431-.256.929-.385 1.495-.385.574 0 1.072.129 1.495.385.43.257.762.608.996 1.053.242.446.363.959.363 1.54 0 .574-.121 1.091-.363 1.552a2.69 2.69 0 0 1-.996 1.076c-.423.264-.921.396-1.495.396Zm0-.77c.393 0 .732-.094 1.019-.283a1.94 1.94 0 0 0 .668-.804 2.75 2.75 0 0 0 .238-1.178c0-.664-.177-1.196-.532-1.597-.347-.4-.812-.6-1.393-.6-.574 0-1.038.2-1.393.6-.355.401-.532.933-.532 1.597 0 .446.079.838.238 1.178.158.34.381.608.668.804.294.189.634.283 1.019.283Zm6.511 3.091c-.687 0-1.261-.162-1.721-.487a1.926 1.926 0 0 1-.827-1.268h.861c.083.302.268.54.555.714.294.181.69.271 1.189.271.589 0 1.034-.162 1.336-.487.302-.317.453-.785.453-1.404v-1.234l.113.023a1.894 1.894 0 0 1-.77 1.053c-.385.256-.842.385-1.37.385-.506 0-.951-.121-1.336-.363a2.478 2.478 0 0 1-.895-1.03c-.211-.438-.317-.948-.317-1.529 0-.589.109-1.106.328-1.551a2.44 2.44 0 0 1 .918-1.031c.4-.249.864-.373 1.392-.373.544 0 .997.132 1.359.396.37.264.616.642.736 1.132l-.102.012v-1.438h.85v5.548c0 .823-.246 1.472-.736 1.948-.491.476-1.163.713-2.016.713Zm.045-3.216c.567 0 1.016-.196 1.348-.588.332-.393.498-.925.498-1.597 0-.657-.166-1.174-.498-1.552-.332-.385-.781-.577-1.348-.577-.573 0-1.026.192-1.358.577-.325.385-.487.914-.487 1.586 0 .657.166 1.181.498 1.574.332.385.781.577 1.347.577Zm7.289 3.103 1.291-3.001.204-.317 1.891-4.778h.928l-3.352 8.096h-.962Zm1.393-2.265-2.593-5.831h.996l2.231 5.22-.634.611Zm6.293.057c-.566 0-1.065-.132-1.495-.396a2.777 2.777 0 0 1-1.008-1.076 3.379 3.379 0 0 1-.351-1.552c0-.581.121-1.094.363-1.54.241-.445.573-.796.996-1.053.43-.256.929-.385 1.495-.385.574 0 1.072.129 1.495.385.43.257.762.608.996 1.053.242.446.362.959.362 1.54 0 .574-.12 1.091-.362 1.552a2.69 2.69 0 0 1-.996 1.076c-.423.264-.921.396-1.495.396Zm0-.77a1.81 1.81 0 0 0 1.019-.283 1.94 1.94 0 0 0 .668-.804 2.75 2.75 0 0 0 .238-1.178c0-.664-.178-1.196-.532-1.597-.348-.4-.812-.6-1.393-.6-.574 0-1.038.2-1.393.6-.355.401-.532.933-.532 1.597 0 .446.079.838.238 1.178.158.34.381.608.668.804.294.189.634.283 1.019.283Zm6.092.77c-.378 0-.714-.076-1.008-.227a1.753 1.753 0 0 1-.691-.656 1.934 1.934 0 0 1-.249-.986v-4.019h.906v3.782c0 .438.106.766.317.985.219.219.529.328.929.328.362 0 .683-.083.962-.249a1.75 1.75 0 0 0 .657-.691c.166-.302.249-.645.249-1.03l.147 1.37c-.188.43-.483.77-.883 1.019-.4.249-.845.374-1.336.374Zm2.129-.113v-1.359h-.057v-4.416h.906v5.775h-.849Zm2.659 0v-5.775h.85v1.472h.056v4.303h-.906Zm.906-3.012-.147-1.371c.136-.49.378-.864.725-1.121a1.969 1.969 0 0 1 1.2-.385c.189 0 .317.015.385.046v.872a.419.419 0 0 0-.158-.023 2.214 2.214 0 0 0-.25-.011c-.573 0-1.011.173-1.313.52-.295.34-.442.831-.442 1.473Zm9.809 3.012v-1.348l.113.034a1.946 1.946 0 0 1-.792 1.042c-.378.257-.831.385-1.359.385-.521 0-.978-.125-1.371-.374a2.534 2.534 0 0 1-.905-1.042c-.212-.445-.318-.966-.318-1.562 0-.604.11-1.133.329-1.586.219-.453.525-.804.917-1.053.393-.249.853-.373 1.382-.373.543 0 1 .132 1.37.396.37.264.623.638.759 1.121l-.182.023v-3.816h.906v8.153h-.849Zm-1.868-.68c.581 0 1.034-.196 1.358-.589.333-.4.499-.943.499-1.63 0-.672-.166-1.204-.499-1.597-.332-.392-.785-.589-1.358-.589-.574 0-1.023.197-1.348.589-.325.393-.487.936-.487 1.631 0 .679.162 1.215.487 1.608.325.385.774.577 1.348.577Zm6.935.793c-.566 0-1.065-.132-1.495-.396a2.777 2.777 0 0 1-1.008-1.076 3.379 3.379 0 0 1-.351-1.552c0-.581.121-1.094.362-1.54.242-.445.574-.796.997-1.053.43-.256.929-.385 1.495-.385.573 0 1.072.129 1.494.385.431.257.763.608.997 1.053.242.446.362.959.362 1.54 0 .574-.12 1.091-.362 1.552a2.685 2.685 0 0 1-.997 1.076c-.422.264-.921.396-1.494.396Zm0-.77a1.81 1.81 0 0 0 1.019-.283c.287-.196.509-.464.668-.804a2.75 2.75 0 0 0 .238-1.178c0-.664-.178-1.196-.532-1.597-.348-.4-.812-.6-1.393-.6-.574 0-1.038.2-1.393.6-.355.401-.532.933-.532 1.597 0 .446.079.838.237 1.178.159.34.382.608.669.804.294.189.634.283 1.019.283Zm6.171.77c-.71 0-1.276-.162-1.699-.487-.422-.332-.664-.8-.724-1.404h.872c.053.37.215.653.487.849.271.196.634.295 1.087.295.4 0 .713-.076.94-.227a.73.73 0 0 0 .339-.645.74.74 0 0 0-.192-.51c-.129-.151-.385-.276-.77-.374l-.929-.237c-.528-.136-.925-.344-1.189-.623a1.456 1.456 0 0 1-.396-1.019c0-.499.185-.891.555-1.178.37-.295.872-.442 1.506-.442.626 0 1.136.151 1.529.453.392.302.615.721.668 1.257h-.872a1.053 1.053 0 0 0-.431-.713c-.234-.166-.543-.249-.928-.249-.37 0-.657.071-.861.215a.664.664 0 0 0-.306.589c0 .196.072.366.216.509.151.144.4.264.747.363l.906.249c.536.143.94.362 1.212.656.271.295.407.65.407 1.065 0 .506-.192.902-.577 1.189-.385.279-.918.419-1.597.419Zm5.959 0c-.551 0-1.038-.128-1.461-.385a2.792 2.792 0 0 1-.996-1.076c-.242-.453-.363-.974-.363-1.563 0-.588.117-1.106.351-1.551a2.61 2.61 0 0 1 1.008-1.053c.431-.249.925-.374 1.484-.374.536 0 1 .117 1.393.351.4.234.705.563.917.986.219.422.328.921.328 1.494 0 .076-.004.147-.011.215 0 .068-.008.144-.023.227h-4.767v-.759h4.212l-.294.419c0-.694-.155-1.227-.464-1.596-.302-.378-.733-.567-1.291-.567-.574 0-1.038.2-1.393.6-.347.393-.521.925-.521 1.597 0 .687.174 1.238.521 1.653.355.408.826.612 1.415.612.37 0 .695-.079.974-.238.28-.166.483-.4.612-.702h.86a2.524 2.524 0 0 1-.951 1.257c-.438.302-.951.453-1.54.453Z"/><path fill="#006966" d="M312.684 99.249v-10.48h-4.06v-1.75h10.327v1.75h-4.059v10.48h-2.208Zm11.276 0a6.469 6.469 0 0 1-.135-.747 11.97 11.97 0 0 1-.034-.986h-.068v-4.11c0-.453-.131-.793-.391-1.02-.249-.237-.634-.356-1.155-.356-.51 0-.917.096-1.223.289a1.154 1.154 0 0 0-.544.798h-2.055c.091-.804.476-1.455 1.155-1.953.68-.499 1.591-.748 2.735-.748 1.189 0 2.089.272 2.701.816.611.532.917 1.319.917 2.36v3.924c0 .272.017.55.051.833.045.283.107.583.187.9h-2.141Zm-3.006.17c-.872 0-1.568-.215-2.089-.646-.51-.441-.765-1.03-.765-1.766 0-.793.289-1.421.867-1.886.577-.464 1.392-.775 2.446-.934l2.7-.407v1.358l-2.344.357c-.509.08-.894.221-1.155.425-.249.204-.373.487-.373.85 0 .328.118.582.356.764.238.17.566.254.985.254.612 0 1.122-.153 1.529-.458.408-.306.612-.68.612-1.121l.237 1.307c-.226.623-.6 1.099-1.121 1.427-.509.317-1.138.476-1.885.476Zm7.077-.17V86.9h2.14v12.35h-2.14Zm5.588 0-3.941-4.501 3.822-4.162h2.582l-4.416 4.552.118-.798 4.468 4.909h-2.633Zm7.176.17c-.918 0-1.722-.193-2.412-.578a4.157 4.157 0 0 1-1.597-1.596c-.374-.68-.56-1.461-.56-2.344 0-.884.186-1.66.56-2.327a4.04 4.04 0 0 1 1.597-1.58c.679-.385 1.472-.578 2.378-.578.86 0 1.608.182 2.242.544.634.351 1.127.85 1.478 1.495.351.645.526 1.398.526 2.259a4.73 4.73 0 0 1-.068.85h-7.389v-1.496h5.742l-.442.408c0-.815-.187-1.427-.561-1.834-.373-.408-.894-.612-1.562-.612-.725 0-1.302.25-1.733.747-.419.499-.628 1.218-.628 2.158 0 .928.209 1.642.628 2.14.431.487 1.036.73 1.818.73.453 0 .849-.085 1.189-.255.339-.17.589-.43.747-.78h2.021a3.838 3.838 0 0 1-1.443 1.936c-.669.475-1.512.713-2.531.713Zm12.801-.17v-5.147l-4.586-7.083h2.667l3.736 6.268h-1.189l3.72-6.268h2.446l-4.586 7.083v5.147h-2.208Zm10.306.17c-.917 0-1.726-.193-2.428-.578a4.127 4.127 0 0 1-1.614-1.596c-.385-.691-.578-1.478-.578-2.361 0-.884.193-1.66.578-2.327a4.044 4.044 0 0 1 1.614-1.563c.702-.385 1.511-.578 2.428-.578.929 0 1.739.193 2.429.578a4.044 4.044 0 0 1 1.614 1.563c.385.668.578 1.443.578 2.327 0 .883-.199 1.67-.595 2.36a4.127 4.127 0 0 1-1.614 1.597c-.69.385-1.494.578-2.412.578Zm0-1.716c.453 0 .861-.113 1.223-.34.363-.237.646-.566.85-.985.204-.43.306-.934.306-1.511 0-.85-.227-1.518-.68-2.005-.442-.487-1.008-.73-1.699-.73-.69 0-1.262.243-1.715.73-.453.487-.679 1.155-.679 2.005 0 .577.101 1.081.305 1.511.215.42.498.748.85.986.362.226.775.34 1.239.34Zm8.998 1.716c-.601 0-1.122-.125-1.563-.374a2.711 2.711 0 0 1-1.002-1.053 3.222 3.222 0 0 1-.34-1.495v-5.91h2.14v5.469c0 .532.13.934.391 1.206.272.272.651.407 1.138.407.442 0 .827-.102 1.155-.305.34-.204.606-.487.798-.85a2.58 2.58 0 0 0 .306-1.257l.221 2.073a3.573 3.573 0 0 1-1.274 1.528c-.555.374-1.212.56-1.97.56Zm3.091-.17v-2.038h-.068v-6.625h2.157v8.663h-2.089Zm4.357 0v-8.663h2.089v2.09h.051v6.573h-2.14Zm2.14-4.518-.221-2.055c.204-.737.55-1.297 1.037-1.682.486-.385 1.07-.578 1.749-.578.238 0 .408.023.51.068v2.022a.663.663 0 0 0-.238-.034 3.48 3.48 0 0 0-.374-.017c-.826 0-1.444.18-1.851.543-.408.363-.612.94-.612 1.733Zm7.678 4.518v-12.23h3.431l3.737 11.788h-1.206l3.737-11.788h3.448v12.23h-2.174v-11.5h.356l-3.635 11.5h-2.361l-3.601-11.397h.34v11.397h-2.072Zm19.286.17c-.917 0-1.727-.193-2.429-.578a4.124 4.124 0 0 1-1.613-1.596c-.385-.691-.578-1.478-.578-2.361 0-.884.193-1.66.578-2.327a4.041 4.041 0 0 1 1.613-1.563c.702-.385 1.512-.578 2.429-.578.929 0 1.738.193 2.429.578a4.044 4.044 0 0 1 1.614 1.563c.385.668.577 1.443.577 2.327 0 .883-.198 1.67-.594 2.36a4.127 4.127 0 0 1-1.614 1.597c-.691.385-1.495.578-2.412.578Zm0-1.716c.453 0 .861-.113 1.223-.34.363-.237.646-.566.849-.985.204-.43.306-.934.306-1.511 0-.85-.226-1.518-.679-2.005-.442-.487-1.008-.73-1.699-.73-.691 0-1.262.243-1.715.73-.453.487-.68 1.155-.68 2.005 0 .577.102 1.081.306 1.511.215.42.498.748.849.986.363.226.776.34 1.24.34Zm6.195 1.546v-8.663h2.089v2.09h.051v6.573h-2.14Zm2.14-4.518-.221-2.055c.204-.737.549-1.297 1.036-1.682s1.07-.578 1.75-.578c.237 0 .407.023.509.068v2.022a.659.659 0 0 0-.238-.034 3.46 3.46 0 0 0-.373-.017c-.827 0-1.444.18-1.852.543-.407.363-.611.94-.611 1.733Zm4.478 4.518v-8.663h2.089v2.039h.051v6.624h-2.14Zm6.081 0v-5.47c0-.532-.136-.934-.408-1.205-.271-.272-.668-.408-1.189-.408-.453 0-.86.102-1.223.306a2.222 2.222 0 0 0-.832.849 2.645 2.645 0 0 0-.289 1.257l-.221-2.072a3.58 3.58 0 0 1 1.291-1.512c.567-.385 1.246-.578 2.039-.578.94 0 1.67.267 2.191.799.532.532.798 1.24.798 2.123v5.911h-2.157Zm4.253 0v-8.663h2.14v8.663h-2.14Zm-.102-10.09V86.8h2.327v2.36h-2.327Zm4.514 10.09v-8.663h2.09v2.039h.051v6.624h-2.141Zm6.081 0v-5.47c0-.532-.135-.934-.407-1.205-.272-.272-.668-.408-1.189-.408a2.45 2.45 0 0 0-1.223.306 2.224 2.224 0 0 0-.833.849c-.192.362-.288.781-.288 1.257l-.221-2.072a3.574 3.574 0 0 1 1.291-1.512c.566-.385 1.245-.578 2.038-.578.94 0 1.67.267 2.191.799.532.532.799 1.24.799 2.123v5.911h-2.158Zm8.108 3.652c-1.144 0-2.083-.249-2.819-.747-.725-.499-1.155-1.172-1.291-2.022h2.038c.102.295.323.521.662.68.351.17.804.255 1.359.255.804 0 1.399-.182 1.784-.544.385-.351.577-.889.577-1.614v-1.868l.153.034c-.136.634-.481 1.144-1.036 1.529-.555.373-1.234.56-2.038.56-.77 0-1.444-.181-2.022-.543a3.68 3.68 0 0 1-1.325-1.512c-.317-.657-.475-1.421-.475-2.293 0-.883.164-1.654.492-2.31a3.685 3.685 0 0 1 1.376-1.529c.6-.374 1.297-.56 2.09-.56.815 0 1.483.198 2.004.594.532.385.861.923.985 1.614l-.136.017v-2.056h2.089v8.306c0 1.235-.402 2.208-1.206 2.922-.792.725-1.879 1.087-3.261 1.087Zm.085-5.435c.691 0 1.24-.233 1.648-.697.419-.476.628-1.138.628-1.987 0-.85-.209-1.506-.628-1.97-.419-.465-.974-.697-1.665-.697-.679 0-1.229.238-1.647.713-.419.465-.629 1.121-.629 1.97 0 .85.21 1.507.629 1.971.418.464.973.697 1.664.697Zm9.605 1.783V97.72l6.896-9.835.594.884h-7.286v-1.75h8.9v1.529l-6.828 9.75-.578-.799h7.508v1.75h-9.206Zm14.332.17c-.917 0-1.727-.193-2.429-.578a4.131 4.131 0 0 1-1.613-1.596c-.385-.691-.578-1.478-.578-2.361 0-.884.193-1.66.578-2.327a4.048 4.048 0 0 1 1.613-1.563c.702-.385 1.512-.578 2.429-.578.929 0 1.739.193 2.429.578a4.044 4.044 0 0 1 1.614 1.563c.385.668.577 1.443.577 2.327 0 .883-.198 1.67-.594 2.36a4.127 4.127 0 0 1-1.614 1.597c-.69.385-1.494.578-2.412.578Zm0-1.716c.453 0 .861-.113 1.223-.34.363-.237.646-.566.85-.985.203-.43.305-.934.305-1.511 0-.85-.226-1.518-.679-2.005-.442-.487-1.008-.73-1.699-.73-.69 0-1.262.243-1.715.73-.453.487-.68 1.155-.68 2.005 0 .577.102 1.081.306 1.511.215.42.498.748.849.986.363.226.776.34 1.24.34Zm6.195 1.546v-12.23h2.14v12.23h-2.14Zm8.353.17c-.918 0-1.727-.193-2.429-.578a4.127 4.127 0 0 1-1.614-1.596c-.385-.691-.577-1.478-.577-2.361 0-.884.192-1.66.577-2.327a4.044 4.044 0 0 1 1.614-1.563c.702-.385 1.511-.578 2.429-.578.928 0 1.738.193 2.429.578.69.374 1.228.894 1.613 1.563.385.668.578 1.443.578 2.327 0 .883-.198 1.67-.595 2.36a4.131 4.131 0 0 1-1.613 1.597c-.691.385-1.495.578-2.412.578Zm0-1.716c.453 0 .86-.113 1.223-.34.362-.237.645-.566.849-.985.204-.43.306-.934.306-1.511 0-.85-.227-1.518-.68-2.005-.441-.487-1.008-.73-1.698-.73-.691 0-1.263.243-1.716.73-.453.487-.679 1.155-.679 2.005 0 .577.102 1.081.305 1.511.216.42.499.748.85.986.362.226.775.34 1.24.34Zm6.741 1.546v-9.461c0-.951.26-1.676.781-2.174.532-.51 1.325-.765 2.378-.765.238 0 .436.012.595.034.158.023.311.057.458.102v1.665a1.016 1.016 0 0 0-.305-.068 2.396 2.396 0 0 0-.425-.034c-.453 0-.793.113-1.019.34-.215.215-.323.532-.323.95v9.411h-2.14Zm-1.563-6.981v-1.682h5.588v1.682h-5.588Zm11.159 7.15c-1.064 0-1.851-.248-2.361-.747-.498-.51-.747-1.268-.747-2.276v-7.78l2.157-.797v8.628c0 .42.113.73.34.935.226.203.583.305 1.07.305.192 0 .362-.011.51-.034.158-.034.305-.073.441-.118v1.664a1.903 1.903 0 0 1-.577.153c-.25.045-.527.068-.833.068Zm-4.773-7.15v-1.682h6.183v1.682h-6.183ZM357.37 115.742v-6.851l.215.136a2.038 2.038 0 0 1-.499.646c-.226.196-.49.366-.792.509a3.728 3.728 0 0 1-.974.306v-1.416c.302-.045.608-.143.917-.294.31-.151.589-.328.838-.532.249-.212.427-.431.532-.657h1.201v8.153h-1.438Zm7.587.113c-.581 0-1.094-.128-1.54-.385a2.815 2.815 0 0 1-1.041-1.064 3.222 3.222 0 0 1-.374-1.563c0-.581.124-1.094.374-1.54a2.815 2.815 0 0 1 1.041-1.064c.446-.257.959-.385 1.54-.385.476 0 .906.09 1.291.272a2.443 2.443 0 0 1 1.427 1.857h-1.37a1.285 1.285 0 0 0-.476-.725 1.383 1.383 0 0 0-.849-.261c-.309 0-.577.076-.804.227a1.46 1.46 0 0 0-.509.645c-.121.28-.182.604-.182.974 0 .378.061.706.182.985.12.28.294.499.52.657.227.151.491.227.793.227.332 0 .615-.087.849-.261.234-.173.393-.415.476-.724h1.37c-.068.422-.23.796-.487 1.121a2.588 2.588 0 0 1-.951.747c-.377.174-.804.26-1.28.26Zm7.269-.113a4.463 4.463 0 0 1-.09-.498 8.105 8.105 0 0 1-.023-.657h-.045v-2.74c0-.302-.087-.529-.261-.68-.166-.158-.422-.237-.77-.237-.339 0-.611.064-.815.192a.768.768 0 0 0-.362.532h-1.37c.06-.536.317-.97.77-1.302.453-.332 1.06-.498 1.823-.498.792 0 1.393.181 1.8.543.408.355.612.88.612 1.574v2.616c0 .181.011.366.034.555.03.189.071.389.124.6h-1.427Zm-2.004.113c-.581 0-1.045-.143-1.393-.43-.339-.294-.509-.687-.509-1.178 0-.528.192-.947.577-1.257.385-.309.929-.517 1.631-.622l1.8-.272v.906l-1.562.238c-.34.052-.597.147-.77.283-.166.136-.249.324-.249.566 0 .219.079.389.237.509.159.114.378.17.657.17.408 0 .748-.102 1.019-.305.272-.204.408-.453.408-.748l.158.872c-.151.415-.4.732-.747.951-.34.212-.759.317-1.257.317Zm8.013 0c-.551 0-1-.128-1.347-.385-.34-.264-.552-.626-.635-1.087l.114-.011v3.692h-1.427v-8.097h1.393v1.302l-.114-.022c.106-.431.348-.77.725-1.02.378-.249.838-.373 1.382-.373.513 0 .958.124 1.336.373.385.242.683.586.894 1.031.212.445.318.97.318 1.574 0 .611-.11 1.144-.329 1.597a2.506 2.506 0 0 1-.917 1.053c-.393.249-.857.373-1.393.373Zm-.362-1.177c.46 0 .826-.159 1.098-.476.272-.324.408-.777.408-1.359 0-.581-.14-1.03-.419-1.347-.272-.317-.638-.476-1.099-.476-.453 0-.819.162-1.098.487-.279.317-.419.766-.419 1.348 0 .581.14 1.03.419 1.347.279.317.649.476 1.11.476Zm6.33 1.177c-.8 0-1.438-.166-1.913-.498-.476-.34-.736-.808-.782-1.404h1.302a.882.882 0 0 0 .419.668c.242.151.567.227.974.227.37 0 .646-.057.827-.17a.573.573 0 0 0 .283-.51.5.5 0 0 0-.159-.385c-.105-.106-.305-.192-.6-.26l-.928-.215c-.634-.136-1.106-.348-1.416-.635a1.47 1.47 0 0 1-.453-1.098c0-.536.204-.955.612-1.257.415-.309.985-.464 1.71-.464.717 0 1.291.155 1.721.464.438.302.679.721.725 1.257h-1.303a.722.722 0 0 0-.362-.532c-.196-.121-.468-.181-.815-.181-.325 0-.57.052-.736.158a.48.48 0 0 0-.249.442c0 .151.064.279.192.385.128.098.344.185.646.26l.996.227c.566.128.993.351 1.28.668.294.317.441.691.441 1.121 0 .551-.211.978-.634 1.279-.423.302-1.015.453-1.778.453Zm5.3 0c-.4 0-.747-.083-1.041-.249a1.806 1.806 0 0 1-.669-.702 2.148 2.148 0 0 1-.226-.996v-3.941h1.427v3.646c0 .355.087.623.26.804.181.181.434.272.759.272a1.43 1.43 0 0 0 1.302-.77c.136-.249.204-.528.204-.838l.147 1.382a2.385 2.385 0 0 1-.849 1.019c-.37.249-.808.373-1.314.373Zm2.061-.113v-1.359h-.045v-4.416h1.438v5.775h-1.393Zm2.905 0v-8.153h1.427v8.153h-1.427Zm5.535.113c-.612 0-1.148-.128-1.608-.385a2.77 2.77 0 0 1-1.065-1.064c-.249-.453-.373-.974-.373-1.563s.124-1.106.373-1.551a2.696 2.696 0 0 1 1.065-1.053c.453-.257.981-.385 1.585-.385.574 0 1.072.121 1.495.362.423.234.751.566.985.997.234.43.351.932.351 1.506a3.607 3.607 0 0 1-.045.566h-4.926v-.997h3.827l-.294.272c0-.543-.125-.951-.374-1.223-.249-.272-.596-.407-1.042-.407-.483 0-.868.166-1.155.498-.279.332-.419.811-.419 1.438 0 .619.14 1.095.419 1.427.287.324.691.487 1.212.487.302 0 .566-.057.793-.17.226-.113.392-.287.498-.521h1.348c-.189.543-.51.974-.963 1.291-.445.317-1.008.475-1.687.475Zm7.254-.113-1.766-5.775h1.495l1.041 4.337h-.102l1.28-4.337h1.302l1.303 4.337h-.114l1.031-4.337h1.461l-1.767 5.775h-1.336l-1.302-4.292h.113l-1.302 4.292h-1.337Zm7.78 0v-5.775h1.427v5.775h-1.427Zm-.068-6.726v-1.574h1.551v1.574h-1.551Zm5.536 6.839c-.71 0-1.234-.166-1.574-.498-.332-.34-.498-.845-.498-1.517v-5.187l1.438-.532v5.753c0 .279.075.487.226.623.151.135.389.203.714.203.128 0 .241-.007.34-.022.105-.023.203-.049.294-.08v1.11a1.264 1.264 0 0 1-.385.102c-.166.03-.351.045-.555.045Zm-3.182-4.767v-1.121h4.122v1.121h-4.122Zm5.189 4.654v-8.153h1.427v8.153h-1.427Zm4.054 0v-3.646c0-.355-.09-.623-.272-.804-.181-.181-.445-.272-.792-.272-.302 0-.574.068-.816.204a1.477 1.477 0 0 0-.554.566 1.754 1.754 0 0 0-.193.838l-.147-1.381c.196-.423.483-.759.86-1.008.378-.257.831-.385 1.359-.385.627 0 1.114.177 1.461.532.355.355.532.827.532 1.415v3.941h-1.438Zm6.258 0-1.766-5.775h1.495l1.042 4.337h-.102l1.279-4.337h1.302l1.303 4.337h-.114l1.031-4.337h1.461l-1.767 5.775h-1.336l-1.302-4.292h.113l-1.302 4.292h-1.337Zm11.226 0a4.237 4.237 0 0 1-.091-.498 8.157 8.157 0 0 1-.022-.657h-.045v-2.74c0-.302-.087-.529-.261-.68-.166-.158-.423-.237-.77-.237-.34 0-.611.064-.815.192a.77.77 0 0 0-.363.532h-1.37c.061-.536.317-.97.77-1.302.453-.332 1.061-.498 1.823-.498.793 0 1.393.181 1.801.543.407.355.611.88.611 1.574v2.616c0 .181.012.366.034.555.03.189.072.389.125.6h-1.427Zm-2.004.113c-.582 0-1.046-.143-1.393-.43-.34-.294-.51-.687-.51-1.178 0-.528.193-.947.578-1.257.385-.309.928-.517 1.63-.622l1.801-.272v.906l-1.563.238c-.339.052-.596.147-.77.283-.166.136-.249.324-.249.566a.6.6 0 0 0 .238.509c.158.114.377.17.657.17.407 0 .747-.102 1.019-.305.272-.204.408-.453.408-.748l.158.872c-.151.415-.4.732-.747.951-.34.212-.759.317-1.257.317Zm7.001 0c-.71 0-1.234-.166-1.574-.498-.332-.34-.498-.845-.498-1.517v-5.187l1.438-.532v5.753c0 .279.075.487.226.623.151.135.389.203.714.203.128 0 .241-.007.339-.022.106-.023.204-.049.295-.08v1.11a1.264 1.264 0 0 1-.385.102c-.166.03-.351.045-.555.045Zm-3.182-4.767v-1.121h4.122v1.121h-4.122Zm7.605 4.767c-.611 0-1.147-.128-1.608-.385a2.768 2.768 0 0 1-1.064-1.064c-.249-.453-.374-.974-.374-1.563s.125-1.106.374-1.551a2.694 2.694 0 0 1 1.064-1.053c.453-.257.982-.385 1.586-.385.573 0 1.072.121 1.494.362.423.234.752.566.986.997.234.43.351.932.351 1.506a3.35 3.35 0 0 1-.046.566h-4.926v-.997h3.828l-.294.272c0-.543-.125-.951-.374-1.223-.249-.272-.597-.407-1.042-.407-.483 0-.868.166-1.155.498-.279.332-.419.811-.419 1.438 0 .619.14 1.095.419 1.427.287.324.691.487 1.212.487.302 0 .566-.057.792-.17.227-.113.393-.287.499-.521h1.347a2.557 2.557 0 0 1-.962 1.291c-.446.317-1.008.475-1.688.475Zm3.876-.113v-5.775h1.393v1.393h.034v4.382h-1.427Zm1.427-3.012-.147-1.37c.136-.491.366-.865.691-1.121.324-.257.713-.385 1.166-.385.159 0 .272.015.34.045v1.348a.446.446 0 0 0-.159-.023 2.207 2.207 0 0 0-.249-.011c-.551 0-.962.12-1.234.362s-.408.627-.408 1.155Z"/><path fill="#222429" d="M355.129 70.496c-.689 0-1.284-.127-1.784-.382a2.948 2.948 0 0 1-1.189-1.09c-.292-.472-.481-1.029-.566-1.67h1.868c.057.575.231 1 .524 1.274.293.273.694.41 1.203.41.359 0 .665-.07.92-.212.255-.151.463-.378.623-.68.16-.311.274-.712.34-1.203.075-.49.113-1.08.113-1.77v-.92l.495.03c-.094.443-.278.83-.552 1.16a2.84 2.84 0 0 1-1.033.778c-.415.18-.878.27-1.387.27-.642 0-1.208-.138-1.699-.411a3.07 3.07 0 0 1-1.146-1.133c-.274-.48-.411-1.033-.411-1.656 0-.66.156-1.231.467-1.712a3.153 3.153 0 0 1 1.303-1.147c.556-.274 1.203-.41 1.939-.41 1.312 0 2.312.438 3.001 1.316.698.868 1.047 2.137 1.047 3.807 0 1.124-.16 2.086-.481 2.888-.312.793-.774 1.401-1.387 1.826-.604.425-1.34.637-2.208.637Zm.155-5.435c.566 0 1.01-.156 1.331-.468.321-.31.481-.726.481-1.245 0-.359-.075-.68-.226-.963a1.576 1.576 0 0 0-.623-.665c-.274-.16-.599-.24-.977-.24-.557 0-.995.17-1.316.509-.321.33-.482.76-.482 1.288 0 .52.156.948.468 1.288.32.33.769.496 1.344.496Zm5.174 5.293v-2.038h2.053v2.038h-2.053Zm0-4.855v-2.038h2.053V65.5h-2.053Zm7.887 4.856v-2.69l.085-.283v-5.818l.708.312-4.19 5.62-.807-.666h7.191v1.458h-7.983v-1.401l5.053-6.724h1.826v10.192h-1.883Zm5.787 0V61.79l.269.17a2.55 2.55 0 0 1-.623.806 4.341 4.341 0 0 1-.991.637c-.377.18-.783.307-1.217.383v-1.77a3.96 3.96 0 0 0 1.147-.368c.386-.188.736-.41 1.047-.665.311-.264.533-.538.665-.821h1.501v10.192h-1.798Zm7.983 0a5.447 5.447 0 0 1-.114-.623 10.54 10.54 0 0 1-.028-.821h-.056v-3.426c0-.377-.109-.66-.326-.849-.208-.198-.528-.297-.963-.297-.424 0-.764.08-1.019.24a.963.963 0 0 0-.453.666h-1.712c.075-.67.396-1.213.962-1.628.566-.415 1.326-.623 2.279-.623.991 0 1.741.227 2.251.68.509.443.764 1.099.764 1.967v3.27c0 .226.014.457.042.693.038.236.09.486.156.75h-1.783Zm-2.506.141c-.726 0-1.307-.18-1.741-.538-.424-.368-.637-.859-.637-1.472 0-.66.241-1.184.722-1.571s1.161-.647 2.038-.779l2.251-.34v1.133l-1.953.297c-.425.066-.746.184-.963.354-.207.17-.311.406-.311.708 0 .274.099.486.297.637.198.141.472.212.821.212.51 0 .934-.127 1.274-.382.34-.255.51-.566.51-.934l.198 1.09c-.189.519-.5.915-.935 1.189-.424.264-.948.396-1.571.396Zm5.897-.141v-7.22h1.741v1.7h.043v5.52h-1.784Zm4.856 0v-4.657c0-.425-.109-.736-.326-.935-.208-.207-.505-.311-.892-.311-.34 0-.651.08-.934.24a1.8 1.8 0 0 0-.679.68 2.08 2.08 0 0 0-.241 1.02l-.184-1.657a3.009 3.009 0 0 1 1.062-1.26c.462-.32 1-.481 1.613-.481.736 0 1.317.212 1.741.637.425.415.637.953.637 1.614v5.11h-1.797Zm4.855 0v-4.657c0-.425-.104-.736-.312-.935-.207-.207-.505-.311-.892-.311-.349 0-.665.08-.948.24a1.713 1.713 0 0 0-.665.68 2.08 2.08 0 0 0-.241 1.02l-.311-1.657a2.85 2.85 0 0 1 1.076-1.26c.481-.32 1.038-.481 1.67-.481.755 0 1.345.217 1.769.651.434.425.651.991.651 1.699v5.01h-1.797Zm6.352-3.1v-1.5h5.081v1.5h-5.081Zm11.572 3.1V61.79l.269.17a2.55 2.55 0 0 1-.623.806 4.363 4.363 0 0 1-.991.637c-.377.18-.783.307-1.217.383v-1.77a3.927 3.927 0 0 0 1.146-.368c.387-.188.736-.41 1.048-.665.311-.264.533-.538.665-.821h1.5v10.192h-1.797Zm7.455.141c-.83 0-1.566-.222-2.208-.665-.642-.453-1.146-1.076-1.514-1.869-.359-.802-.538-1.717-.538-2.746 0-1.028.179-1.93.538-2.703.358-.783.858-1.392 1.5-1.826.651-.444 1.392-.665 2.222-.665.84 0 1.581.221 2.223.665.641.434 1.141 1.043 1.5 1.826.368.773.552 1.675.552 2.703 0 1.038-.184 1.954-.552 2.746-.359.793-.859 1.416-1.5 1.869-.642.443-1.383.665-2.223.665Zm0-1.543c.519 0 .949-.165 1.288-.495.34-.33.595-.779.765-1.345.179-.566.269-1.203.269-1.91 0-.709-.085-1.336-.255-1.883-.17-.548-.429-.977-.779-1.288-.339-.312-.769-.468-1.288-.468-.509 0-.939.16-1.288.482-.339.311-.594.74-.764 1.288-.17.547-.255 1.17-.255 1.868 0 .717.085 1.359.255 1.925.17.566.429 1.015.778 1.345.35.32.774.481 1.274.481Zm5.48 1.401v-2.038h2.053v2.038h-2.053Zm0-4.855v-2.038h2.053V65.5h-2.053Zm7.887 4.856v-2.69l.085-.283v-5.818l.708.312-4.19 5.62-.807-.666h7.191v1.458h-7.983v-1.401l5.053-6.724h1.826v10.192h-1.883Zm5.787 0V61.79l.269.17a2.55 2.55 0 0 1-.623.806 4.341 4.341 0 0 1-.991.637c-.377.18-.783.307-1.217.383v-1.77a3.95 3.95 0 0 0 1.147-.368c.386-.188.736-.41 1.047-.665.311-.264.533-.538.665-.821h1.501v10.192h-1.798Zm7.983 0a5.447 5.447 0 0 1-.114-.623 10.54 10.54 0 0 1-.028-.821h-.056v-3.426c0-.377-.109-.66-.326-.849-.208-.198-.528-.297-.963-.297-.424 0-.764.08-1.019.24a.963.963 0 0 0-.453.666h-1.712c.075-.67.396-1.213.962-1.628.566-.415 1.326-.623 2.279-.623.991 0 1.741.227 2.251.68.509.443.764 1.099.764 1.967v3.27c0 .226.014.457.043.693.037.236.089.486.155.75h-1.783Zm-2.506.141c-.726 0-1.307-.18-1.741-.538-.424-.368-.637-.859-.637-1.472 0-.66.241-1.184.722-1.571s1.161-.647 2.038-.779l2.251-.34v1.133l-1.953.297c-.425.066-.746.184-.963.354-.207.17-.311.406-.311.708 0 .274.099.486.297.637.198.141.472.212.821.212.51 0 .934-.127 1.274-.382.34-.255.51-.566.51-.934l.198 1.09c-.189.519-.5.915-.935 1.189-.424.264-.948.396-1.571.396Zm5.897-.141v-7.22h1.741v1.7h.043v5.52h-1.784Zm4.856 0v-4.657c0-.425-.109-.736-.326-.935-.208-.207-.505-.311-.892-.311-.339 0-.651.08-.934.24a1.8 1.8 0 0 0-.679.68 2.08 2.08 0 0 0-.241 1.02l-.184-1.657a3.009 3.009 0 0 1 1.062-1.26c.462-.32 1-.481 1.613-.481.736 0 1.317.212 1.741.637.425.415.637.953.637 1.614v5.11h-1.797Zm4.855 0v-4.657c0-.425-.104-.736-.312-.935-.207-.207-.505-.311-.892-.311-.349 0-.665.08-.948.24a1.713 1.713 0 0 0-.665.68 2.08 2.08 0 0 0-.241 1.02l-.311-1.657a2.85 2.85 0 0 1 1.076-1.26c.481-.32 1.038-.481 1.67-.481.755 0 1.345.217 1.769.651.434.425.651.991.651 1.699v5.01h-1.797Z"/></g><mask id="d" fill="#fff"><path d="M265.453 345.32h284.511v74.313H265.453V345.32Z"/></mask><path fill="#fff" d="M265.453 345.32h284.511v74.313H265.453V345.32Z"/><path fill="#00A29D" d="M265.453 345.32v.708h284.511v-1.415H265.453v.707Z" mask="url(#d)"/><g clip-path="url(#e)"><path stroke="#00A29D" stroke-linecap="round" stroke-linejoin="round" stroke-width="1.415" d="M309.687 381.04v-5.662h4.246v5.662h5.662v-8.493a.7.7 0 0 0-.207-.5l-7.077-7.078a.696.696 0 0 0-.501-.207.7.7 0 0 0-.501.207l-7.077 7.078a.71.71 0 0 0-.207.5v8.493h5.662Z"/></g><path fill="#00A29D" d="M296.68 393.994v-8.153h1.2v8.153h-1.2Zm5.401 0v-8.153h1.2v8.153h-1.2Zm-4.812-4.744h5.344v.996h-5.344v-.996Zm10.196 4.857c-.589 0-1.106-.128-1.551-.385a2.788 2.788 0 0 1-1.042-1.075 3.236 3.236 0 0 1-.374-1.563c0-.589.125-1.106.374-1.551a2.751 2.751 0 0 1 1.042-1.042c.445-.257.962-.385 1.551-.385.596 0 1.117.128 1.562.385.446.249.789.596 1.031 1.042.249.445.374.962.374 1.551 0 .581-.125 1.102-.374 1.563a2.712 2.712 0 0 1-1.031 1.075c-.445.257-.966.385-1.562.385Zm0-.962c.355 0 .66-.087.917-.261.264-.173.472-.415.623-.724.151-.31.226-.672.226-1.087 0-.619-.166-1.106-.498-1.461-.325-.362-.747-.544-1.268-.544-.513 0-.936.182-1.268.544-.325.362-.487.849-.487 1.461 0 .415.071.777.215 1.087.151.309.358.551.623.724.271.174.577.261.917.261Zm4.176.849v-5.775h1.121v1.359h.057v4.416h-1.178Zm3.896 0v-3.771c0-.392-.091-.679-.272-.86-.181-.181-.442-.272-.782-.272-.317 0-.604.076-.86.227a1.528 1.528 0 0 0-.589.611 1.856 1.856 0 0 0-.215.917l-.147-1.347c.188-.431.471-.77.849-1.019.385-.25.815-.374 1.291-.374.574 0 1.03.166 1.37.498.347.332.521.77.521 1.314v4.076h-1.166Zm3.895 0v-3.771c0-.392-.095-.679-.283-.86-.181-.181-.442-.272-.782-.272a1.646 1.646 0 0 0-1.449.838 1.856 1.856 0 0 0-.215.917l-.238-1.347c.196-.431.491-.77.883-1.019.4-.25.846-.374 1.336-.374.582 0 1.046.17 1.393.509.348.333.521.778.521 1.337v4.042h-1.166Zm5.239.113c-.581 0-1.095-.128-1.54-.385a2.733 2.733 0 0 1-1.031-1.064c-.249-.453-.373-.974-.373-1.563 0-.596.12-1.117.362-1.562a2.633 2.633 0 0 1 1.042-1.053c.445-.25.955-.374 1.528-.374.559 0 1.042.121 1.45.362.415.234.732.563.951.985.227.423.34.925.34 1.506 0 .091-.004.178-.012.261 0 .075-.007.155-.022.238h-4.847v-.884h4.02l-.294.351c0-.619-.14-1.09-.419-1.415-.279-.325-.668-.487-1.167-.487-.535 0-.962.185-1.279.555-.31.362-.464.868-.464 1.517 0 .657.154 1.17.464 1.54.317.37.755.555 1.313.555.34 0 .635-.068.884-.204.249-.143.434-.351.555-.622h1.109c-.188.543-.509.97-.962 1.279-.446.31-.982.464-1.608.464Z"/><g stroke="#919499" stroke-linecap="round" stroke-linejoin="round" stroke-width="1.062" clip-path="url(#f)"><path d="m377.401 365.935-8.979 8.979a4.005 4.005 0 0 0 0 5.662h.001a4.002 4.002 0 0 0 5.661 0l8.979-8.979a4.002 4.002 0 0 0 0-5.661v-.001a4.005 4.005 0 0 0-5.662 0Zm-4.49 4.489 5.662 5.662m0-4.247 2.123-2.123"/></g><path fill="#919499" d="M362.279 393.994v-8.153h1.427l2.944 7.859h-.43l2.922-7.859h1.449v8.153h-.917v-7.666h.124l-2.842 7.666h-1.11l-2.842-7.598h.125v7.598h-.85Zm12.561.113c-.551 0-1.038-.128-1.46-.385a2.792 2.792 0 0 1-.997-1.075c-.242-.453-.362-.974-.362-1.563s.117-1.106.351-1.551a2.606 2.606 0 0 1 1.008-1.054c.43-.249.924-.373 1.483-.373.536 0 1 .117 1.393.351.4.234.706.562.917.985.219.423.328.921.328 1.495 0 .075-.003.147-.011.215 0 .068-.007.143-.023.226H372.7v-.758h4.213l-.295.419c0-.695-.155-1.227-.464-1.597-.302-.378-.732-.566-1.291-.566-.574 0-1.038.2-1.393.6-.347.392-.521.925-.521 1.597 0 .687.174 1.238.521 1.653.355.408.827.611 1.416.611.37 0 .694-.079.973-.237.28-.167.484-.401.612-.703h.861a2.517 2.517 0 0 1-.952 1.257c-.437.302-.951.453-1.54.453Zm8.227-.113v-1.347l.113.034a1.95 1.95 0 0 1-.793 1.041c-.377.257-.83.385-1.359.385-.521 0-.977-.124-1.37-.373a2.55 2.55 0 0 1-.906-1.042c-.211-.446-.317-.966-.317-1.563 0-.604.11-1.132.329-1.585.218-.453.524-.804.917-1.053.392-.249.853-.374 1.381-.374.544 0 1.001.132 1.37.396.37.265.623.638.759 1.121l-.181.023v-3.816h.906v8.153h-.849Zm-1.869-.679c.581 0 1.034-.197 1.359-.589.332-.4.498-.944.498-1.631 0-.672-.166-1.204-.498-1.596-.332-.393-.785-.589-1.359-.589s-1.023.196-1.347.589c-.325.392-.487.936-.487 1.63 0 .68.162 1.216.487 1.608.324.385.773.578 1.347.578Zm6.494.792c-.71 0-1.276-.162-1.699-.487-.423-.332-.664-.8-.725-1.404h.872c.053.37.216.653.487.85.272.196.634.294 1.087.294.401 0 .714-.075.94-.226a.73.73 0 0 0 .34-.646.739.739 0 0 0-.193-.51c-.128-.15-.385-.275-.77-.373l-.928-.238c-.529-.136-.925-.343-1.189-.623a1.454 1.454 0 0 1-.396-1.019c0-.498.185-.891.554-1.178.37-.294.872-.441 1.507-.441.626 0 1.136.151 1.528.453.393.302.615.721.668 1.257h-.872a1.048 1.048 0 0 0-.43-.714c-.234-.166-.543-.249-.928-.249-.37 0-.657.072-.861.215a.664.664 0 0 0-.306.589.7.7 0 0 0 .215.51c.151.143.4.264.748.362l.906.249c.536.144.94.363 1.211.657.272.294.408.649.408 1.064 0 .506-.193.903-.578 1.189-.385.28-.917.419-1.596.419Z"/><g stroke="#919499" stroke-linecap="round" stroke-linejoin="round" stroke-width="1.062" clip-path="url(#g)"><path d="M436.844 381.748h5.662m-2.831-3.539v3.539m-6.193-8.493h-.884a2.83 2.83 0 0 1-2.831-2.831v-1.415a.708.708 0 0 1 .707-.708h2.831m12.563 4.954h.884a2.83 2.83 0 0 0 2.831-2.831v-1.415a.708.708 0 0 0-.707-.708h-2.831"/><path d="M433.305 366.178h12.74v5.582c0 3.512-2.809 6.423-6.321 6.449a6.375 6.375 0 0 1-5.929-3.92 6.376 6.376 0 0 1-.49-2.449v-5.662Z"/></g><path fill="#919499" d="M418.532 393.994v-8.153h3.012c.581 0 1.076.094 1.483.283.408.189.718.453.929.793.219.332.328.728.328 1.189 0 .46-.109.864-.328 1.211-.211.34-.521.608-.929.804-.407.189-.902.283-1.483.283h-2.333v-.815h2.299c.604 0 1.061-.132 1.37-.396.317-.264.476-.627.476-1.087 0-.453-.155-.808-.464-1.065-.31-.256-.77-.385-1.382-.385h-2.05v7.338h-.928Zm4.779 0-4.337-4.042h1.268l4.473 4.042h-1.404Zm4.608.113c-.551 0-1.038-.128-1.461-.385a2.79 2.79 0 0 1-.996-1.075c-.242-.453-.363-.974-.363-1.563s.117-1.106.351-1.551a2.619 2.619 0 0 1 1.008-1.054c.431-.249.925-.373 1.484-.373.536 0 1 .117 1.393.351.4.234.705.562.917.985.219.423.328.921.328 1.495 0 .075-.004.147-.011.215 0 .068-.008.143-.023.226h-4.767v-.758h4.212l-.294.419c0-.695-.155-1.227-.464-1.597-.302-.378-.733-.566-1.291-.566-.574 0-1.038.2-1.393.6-.347.392-.521.925-.521 1.597 0 .687.174 1.238.521 1.653.355.408.827.611 1.415.611.37 0 .695-.079.974-.237.28-.167.483-.401.612-.703h.86a2.51 2.51 0 0 1-.951 1.257c-.438.302-.951.453-1.54.453Zm5.103-.113-1.766-5.775h.917l1.359 4.948h-.227l1.631-4.948h.736l1.642 4.948h-.226l1.347-4.948h.872l-1.766 5.775h-.736l-1.631-4.835h.238l-1.654 4.835h-.736Zm10.904 0a3.212 3.212 0 0 1-.068-.441 15.535 15.535 0 0 1-.011-.635h-.057v-2.763c0-.437-.102-.758-.305-.962-.197-.212-.518-.317-.963-.317-.438 0-.789.09-1.053.272a.96.96 0 0 0-.43.747h-.872c.037-.559.271-.997.702-1.314.43-.317.992-.475 1.687-.475.717 0 1.249.17 1.597.509.347.34.521.85.521 1.529v2.774c0 .166.011.34.033.521.023.174.053.359.091.555h-.872Zm-1.982.113c-.596 0-1.072-.143-1.426-.43-.348-.294-.521-.694-.521-1.2s.173-.899.521-1.178c.347-.279.853-.476 1.517-.589l2.016-.339v.747l-1.88.294c-.423.068-.744.181-.963.34-.219.159-.328.389-.328.691 0 .294.098.517.294.668.204.151.502.226.895.226.506 0 .917-.113 1.234-.339.325-.234.487-.536.487-.906l.147.804c-.12.385-.358.683-.713.894-.347.212-.774.317-1.28.317Zm4.476-.113v-5.775h.849v1.472h.057v4.303h-.906Zm.906-3.012-.148-1.37c.136-.491.378-.865.725-1.121a1.962 1.962 0 0 1 1.2-.385c.189 0 .318.015.385.045v.872a.436.436 0 0 0-.158-.023 2.471 2.471 0 0 0-.249-.011c-.574 0-1.012.174-1.314.521-.294.34-.441.83-.441 1.472Zm7.353 3.012v-1.347l.114.034a1.95 1.95 0 0 1-.793 1.041c-.378.257-.831.385-1.359.385-.521 0-.978-.124-1.37-.373a2.55 2.55 0 0 1-.906-1.042c-.211-.446-.317-.966-.317-1.563 0-.604.109-1.132.328-1.585.219-.453.525-.804.917-1.053.393-.249.854-.374 1.382-.374.544 0 1 .132 1.37.396.37.265.623.638.759 1.121l-.181.023v-3.816h.906v8.153h-.85Zm-1.868-.679c.581 0 1.034-.197 1.359-.589.332-.4.498-.944.498-1.631 0-.672-.166-1.204-.498-1.596-.332-.393-.785-.589-1.359-.589s-1.023.196-1.348.589c-.324.392-.487.936-.487 1.63 0 .68.163 1.216.487 1.608.325.385.774.578 1.348.578Zm6.493.792c-.709 0-1.275-.162-1.698-.487-.423-.332-.664-.8-.725-1.404h.872c.053.37.215.653.487.85.272.196.634.294 1.087.294.4 0 .714-.075.94-.226a.733.733 0 0 0 .34-.646.739.739 0 0 0-.193-.51c-.128-.15-.385-.275-.77-.373l-.928-.238c-.529-.136-.925-.343-1.189-.623a1.45 1.45 0 0 1-.397-1.019c0-.498.185-.891.555-1.178.37-.294.872-.441 1.506-.441.627 0 1.136.151 1.529.453.392.302.615.721.668 1.257h-.872a1.052 1.052 0 0 0-.43-.714c-.234-.166-.544-.249-.929-.249-.37 0-.657.072-.86.215a.664.664 0 0 0-.306.589.7.7 0 0 0 .215.51c.151.143.4.264.747.362l.906.249c.536.144.94.363 1.212.657.272.294.408.649.408 1.064 0 .506-.193.903-.578 1.189-.385.28-.917.419-1.597.419Z"/><g stroke="#919499" stroke-linecap="round" stroke-linejoin="round" stroke-width="1.062" clip-path="url(#h)"><path d="M503.607 376.086a5.662 5.662 0 1 0 0-11.324 5.662 5.662 0 0 0 0 11.324Zm-8.492 4.954c1.713-2.961 4.825-4.954 8.492-4.954 3.667 0 6.78 1.993 8.493 4.954"/></g><path fill="#919499" d="M487.54 393.994v-8.153h3.239c.581 0 1.076.094 1.483.283.408.189.717.461.929.815.219.355.328.782.328 1.28s-.109.929-.328 1.291c-.212.355-.521.63-.929.827-.407.196-.902.294-1.483.294h-2.559v-.815h2.525c.604 0 1.061-.136 1.37-.408.317-.279.476-.676.476-1.189s-.155-.902-.465-1.166c-.309-.265-.77-.397-1.381-.397h-2.276v7.338h-.929Zm7.364 0v-5.775h.849v1.472h.056v4.303h-.905Zm.905-3.012-.147-1.37c.136-.491.378-.865.725-1.121a1.962 1.962 0 0 1 1.2-.385c.189 0 .317.015.385.045v.872a.436.436 0 0 0-.158-.023 2.471 2.471 0 0 0-.249-.011c-.574 0-1.012.174-1.314.521-.294.34-.442.83-.442 1.472Zm5.742 3.125c-.567 0-1.065-.132-1.495-.396a2.77 2.77 0 0 1-1.008-1.076 3.372 3.372 0 0 1-.351-1.551c0-.581.121-1.095.362-1.54.242-.446.574-.797.997-1.053.43-.257.928-.385 1.495-.385.573 0 1.072.128 1.494.385.431.256.763.607.997 1.053.241.445.362.959.362 1.54 0 .574-.121 1.091-.362 1.551a2.679 2.679 0 0 1-.997 1.076c-.422.264-.921.396-1.494.396Zm0-.77a1.81 1.81 0 0 0 1.019-.283c.287-.196.509-.464.668-.804a2.76 2.76 0 0 0 .238-1.177c0-.665-.178-1.197-.533-1.597-.347-.4-.811-.6-1.392-.6-.574 0-1.038.2-1.393.6-.355.4-.532.932-.532 1.597 0 .445.079.838.237 1.177.159.34.382.608.668.804.295.189.635.283 1.02.283Zm4.632.657v-6.59c0-.529.151-.94.453-1.235.31-.294.778-.441 1.404-.441.151 0 .268.007.351.022.091.015.166.034.227.057v.713a1.955 1.955 0 0 0-.227-.045 1.79 1.79 0 0 0-.294-.023c-.347 0-.604.087-.77.261-.159.174-.238.419-.238.736v6.545h-.906Zm3.647 0v-5.775h.905v5.775h-.905Zm-4.836-5.005v-.77h5.345v.77h-5.345Zm4.768-2.084v-1.064h1.041v1.064h-1.041Zm2.68 7.089v-8.153h.906v8.153h-.906Zm5.087.113c-.551 0-1.038-.128-1.46-.385a2.792 2.792 0 0 1-.997-1.075c-.242-.453-.362-.974-.362-1.563s.117-1.106.351-1.551a2.606 2.606 0 0 1 1.008-1.054c.43-.249.924-.373 1.483-.373.536 0 1 .117 1.393.351.4.234.706.562.917.985.219.423.328.921.328 1.495 0 .075-.003.147-.011.215 0 .068-.007.143-.023.226h-4.767v-.758h4.213l-.295.419c0-.695-.155-1.227-.464-1.597-.302-.378-.732-.566-1.291-.566-.574 0-1.038.2-1.393.6-.347.392-.521.925-.521 1.597 0 .687.174 1.238.521 1.653.355.408.827.611 1.416.611.37 0 .694-.079.973-.237.28-.167.484-.401.612-.703h.861a2.517 2.517 0 0 1-.952 1.257c-.438.302-.951.453-1.54.453Z"/></g><rect width="290.238" height="624.333" x="262.607" y="-201.845" stroke="#000" stroke-width="5.691" rx="31.3"/></g><rect width="597" height="505" x=".5" y=".5" stroke="#767F87" rx="19.5"/><defs><clipPath id="a"><rect width="598" height="506" fill="#fff" rx="20"/></clipPath><clipPath id="b"><rect width="284.547" height="618.642" x="265.453" y="-199" fill="#fff" rx="28.455"/></clipPath><clipPath id="c"><rect width="256.91" height="273.188" x="279.609" y="32.045" fill="#fff" rx="8.535"/></clipPath><clipPath id="e"><path fill="#fff" d="M300.486 361.931h22.648v22.648h-22.648z"/></clipPath><clipPath id="f"><path fill="#fff" d="M364.418 361.931h22.648v22.648h-22.648z"/></clipPath><clipPath id="g"><path fill="#fff" d="M428.351 361.931h22.648v22.648h-22.648z"/></clipPath><clipPath id="h"><path fill="#fff" d="M492.284 361.931h22.648v22.648h-22.648z"/></clipPath></defs></svg>