<svg xmlns="http://www.w3.org/2000/svg" width="510" height="328" fill="none"><path fill="#fff" d="M0 0h510v328H0z"/><path fill="#FF7B00" d="M202.295 133.132c-15.971-35.822-63.883-37.583-86.242-27.188-19.165 11.194-31.943 27.188-24.757 68.768 7.188 41.58 46.316 47.177 75.863 45.578 29.546-1.6 55.1-42.38 35.136-87.158Z"/><path fill="#000" d="m146.133 219.94-2.959-53.905h9.926l3.918 54.484c-4.25-.079-6.634-.217-10.885-.579Zm15.344-71.917-3.496-1.507s2.452-10.199 5.876-15.839c3.309-5.451 10.884-12.174 10.884-12.174l3.276 2.142c-11.062 7.381-14.575 14.243-16.54 27.378Zm19.887-4.143-1.353-3.559s9.027-5.343 15.459-6.813c6.217-1.422 16.317-.668 16.317-.668l.744 3.843c-13.001-2.799-20.372-.541-31.167 7.197Zm-6.065 23.108 1.252-3.596s10.349 1.715 16.22 4.725c5.675 2.91 12.924 9.983 12.924 9.983l-1.902 3.421c-8.155-10.504-15.251-13.516-28.494-14.533Z"/><path fill="#000" d="m147.798 158.41 2.112 3.168s-7.611 7.219-13.553 10.085c-5.744 2.771-15.758 4.284-15.758 4.284l-1.582-3.58c13.298-.167 19.981-4.009 28.781-13.957Z"/><path fill="#000" d="m159.276 160.692-.844 3.713s-10.476-.552-16.645-2.89c-5.964-2.26-13.955-8.483-13.955-8.483l1.51-3.611c9.274 9.531 16.661 11.734 29.934 11.271Z"/><path fill="#000" d="m144.895 151.573 3.714.835s-.526 10.477-2.849 16.652c-2.245 5.969-8.448 13.975-8.448 13.975l-3.616-1.5c9.509-9.297 11.694-16.69 11.199-29.962Z"/><path fill="#000" d="m146.749 159.519.002 3.807s-10.337 1.79-16.871.881c-6.317-.878-15.491-5.169-15.491-5.169l.669-3.857c11.16 7.232 18.852 7.739 31.691 4.338Z"/><path fill="#000" d="m153.217 161.768-3.203 2.059s-7.09-7.731-9.856-13.721c-2.673-5.79-4.018-15.828-4.018-15.828l3.607-1.521c-.057 13.299 3.672 20.045 13.47 29.011Z"/><path fill="#000" d="M161.504 154.628c-3.583-8.038-14.334-8.434-19.351-6.101-4.301 2.512-7.168 6.101-5.556 15.431 1.613 9.33 10.393 10.586 17.023 10.227 6.63-.359 12.364-9.51 7.884-19.557Zm22.211-36.107c.559-3.47-2.948-5.952-5.135-6.269-1.987-.1-3.73.473-5.23 3.944-1.5 3.471 1.16 5.81 3.454 7.139 2.295 1.329 6.212-.476 6.911-4.814Zm34.307 20.77c2.879-2.015 2.218-6.26.923-8.05-1.312-1.496-2.937-2.348-6.472-1.007-3.536 1.341-3.362 4.879-2.718 7.451.644 2.572 4.667 4.126 8.267 1.606Zm-11.701 47.76c3.501.308 5.725-3.368 5.884-5.572-.042-1.988-.738-3.685-4.308-4.933-3.57-1.247-5.712 1.574-6.873 3.958-1.161 2.384.92 6.161 5.297 6.547Zm-93.238-16.004c-2.359 2.606-.769 6.597.893 8.054 1.611 1.166 3.385 1.634 6.534-.46 3.148-2.094 2.191-5.505.99-7.869-1.201-2.364-5.469-2.983-8.417.275Zm13.132-26.841c-3.514.083-5.315 3.984-5.228 6.192.263 1.971 1.144 3.581 4.831 4.423 3.686.842 5.501-2.2 6.39-4.698.888-2.498-1.601-6.02-5.993-5.917Zm2.275 40.468c.092 3.514 3.997 5.306 6.205 5.213 1.971-.268 3.578-1.153 4.411-4.841.833-3.689-2.213-5.496-4.714-6.379-2.5-.882-6.016 1.615-5.902 6.007Zm-17.64-33.882c-3.408.862-4.297 5.065-3.722 7.199.695 1.863 1.912 3.236 5.693 3.239 3.782.002 4.875-3.368 5.186-6.001.312-2.633-2.898-5.514-7.157-4.437Zm30.317-23.947c-2.566-2.402-6.584-.879-8.069.758-1.192 1.591-1.691 3.357.35 6.54s5.467 2.283 7.852 1.122c2.384-1.16 3.074-5.417-.133-8.42Zm107.692 1.503c7.351 0 12.444 1.225 15.279 3.675 2.834 2.402 4.252 6.222 4.252 11.459 0 5.189-1.033 9.105-3.099 11.747 3.027 2.499 4.54 6.703 4.54 12.612 0 11.339-6.51 17.008-19.53 17.008-1.538 0-6.559-.384-15.063-1.153v-54.195c4.997-.769 9.537-1.153 13.621-1.153Zm8.648 45.907c.961-1.057 1.442-3.219 1.442-6.486s-.361-5.237-1.081-5.909c-.721-.673-2.595-1.009-5.622-1.009-2.978 0-4.876.048-5.693.144-.769.096-1.153.384-1.153.865v12.9c0 .528.312.841.937.937.672.096 2.474.144 5.405.144s4.853-.529 5.765-1.586Zm-10.81-22.341c4.18 0 7.015-.504 8.504-1.513 1.538-1.009 2.306-3.243 2.306-6.703 0-1.97-.432-3.579-1.297-4.828-.817-1.298-1.705-1.946-2.666-1.946-4.084 0-6.559.264-7.423.793-.289.192-.529.48-.721.864v12.18c0 .577.096.913.288 1.009.336.096.673.144 1.009.144Zm28.869 30.053v-52.466c4.9-.769 9.152-1.153 12.756-1.153 6.678 0 11.29 1.249 13.837 3.747 2.546 2.499 3.82 6.631 3.82 12.396 0 8.072-2.259 13.453-6.775 16.143l9.081 20.54c.528 1.201.792 1.994.792 2.378 0 .336-.048.553-.144.649-.192.432-1.009.648-2.45.648-4.66 0-7.399-.912-8.216-2.738l-8.216-19.026c-1.201.096-3.002.144-5.405.144v18.594c0 1.345-.144 2.186-.432 2.522-.24.336-1.057.504-2.451.504-4.131 0-6.197-.961-6.197-2.882Zm10.233-28.612c3.844 0 6.438-.528 7.784-1.585 1.345-1.105 2.018-3.555 2.018-7.351 0-2.306-.385-4.132-1.153-5.477-.721-1.346-1.538-2.018-2.451-2.018-3.411 0-5.501.072-6.27.216-.72.144-1.081.625-1.081 1.441v13.693c0 .625.12.961.361 1.009.24.048.504.072.792.072Zm52.122-2.45c1.922 0 2.883.865 2.883 2.595 0 2.354-.144 3.963-.432 4.828-.289.865-1.033 1.297-2.235 1.297h-14.125v15.351h16.648c1.153.048 1.946.288 2.378.721.432.384.649.985.649 1.801 0 2.355-.217 3.988-.649 4.901-.432.865-1.297 1.297-2.594 1.297h-25.369l-1.153-1.153v-53.042h25.585c2.066.048 3.099.817 3.099 2.306-.048 1.297-.12 2.33-.217 3.099-.096.721-.408 1.441-.936 2.162-.481.721-1.202 1.081-2.163 1.081h-16.071l.793 12.756h13.909Zm34.838 0c1.922 0 2.883.865 2.883 2.595 0 2.354-.144 3.963-.433 4.828-.288.865-1.033 1.297-2.234 1.297H358.85v15.351h16.648c1.153.048 1.945.288 2.378.721.432.384.648.985.648 1.801 0 2.355-.216 3.988-.648 4.901-.433.865-1.297 1.297-2.595 1.297h-25.368l-1.153-1.153v-53.042h25.585c2.065.048 3.098.817 3.098 2.306-.048 1.297-.12 2.33-.216 3.099-.096.721-.408 1.441-.937 2.162-.48.721-1.201 1.081-2.162 1.081h-16.071l.793 12.756h13.909Zm40.027 32.791h-28.107l-1.153-1.153v-7.639l20.467-36.755h-18.449c-1.249-.048-2.066-.336-2.45-.865-.385-.672-.577-1.778-.577-3.315 0-1.585.168-2.715.504-3.387.337-.721 1.057-1.081 2.162-1.081h28.972l1.153 1.153v6.342l-19.963 37.98h17.08c1.586.048 2.643.264 3.171.649.577.336.865.888.865 1.657-.096 4.276-1.321 6.414-3.675 6.414ZM238.82 204.632l-3.473-9.913h1.209l3.051 8.929h-.492l3.108-8.929h.928l3.066 8.929h-.436l3.065-8.929h1.153l-3.473 9.913h-1.027l-2.981-8.578h.31l-3.01 8.578h-.998Zm12.65 0v-9.913h1.139v4.598h-.183c.197-.544.516-.952.956-1.224.45-.281.966-.421 1.547-.421.544 0 .994.098 1.35.295.366.197.638.497.816.9.178.394.267.895.267 1.504v4.261h-1.139v-4.19c0-.422-.056-.769-.169-1.041a1.119 1.119 0 0 0-.506-.604c-.225-.132-.52-.197-.886-.197-.412 0-.773.089-1.083.267a1.831 1.831 0 0 0-.717.745c-.169.319-.253.694-.253 1.125v3.895h-1.139Zm11.072.127c-.722 0-1.345-.141-1.87-.422a3.101 3.101 0 0 1-1.21-1.223c-.281-.525-.421-1.153-.421-1.885 0-.712.14-1.331.421-1.856a3.176 3.176 0 0 1 1.153-1.251c.497-.3 1.069-.45 1.716-.45.619 0 1.148.135 1.589.407a2.65 2.65 0 0 1 1.013 1.153c.243.497.365 1.093.365 1.786v.436h-5.386v-.745h4.627l-.225.183c0-.75-.169-1.331-.506-1.744-.329-.422-.811-.633-1.449-.633-.478 0-.886.113-1.223.338-.328.215-.577.52-.746.914-.168.384-.253.834-.253 1.35v.084c0 .572.089 1.055.268 1.449.187.393.464.693.829.9.366.196.802.295 1.308.295.403 0 .792-.061 1.167-.183a3.27 3.27 0 0 0 1.083-.633l.394.802c-.31.281-.703.506-1.182.675a4.354 4.354 0 0 1-1.462.253Zm4.405-.127v-6.834h1.111v1.617h-.141c.159-.553.436-.97.83-1.251.393-.291.914-.46 1.56-.507l.408-.042.085.985-.718.084c-.637.056-1.129.263-1.476.619-.338.347-.506.825-.506 1.434v3.895h-1.153Zm8.037.127c-.722 0-1.346-.141-1.871-.422a3.105 3.105 0 0 1-1.209-1.223c-.281-.525-.422-1.153-.422-1.885 0-.712.141-1.331.422-1.856a3.17 3.17 0 0 1 1.153-1.251c.497-.3 1.069-.45 1.716-.45.618 0 1.148.135 1.589.407.44.272.778.657 1.012 1.153.244.497.366 1.093.366 1.786v.436h-5.386v-.745h4.627l-.225.183c0-.75-.169-1.331-.507-1.744-.328-.422-.811-.633-1.448-.633-.478 0-.886.113-1.224.338-.328.215-.576.52-.745.914-.169.384-.253.834-.253 1.35v.084c0 .572.089 1.055.267 1.449.188.393.464.693.83.9.366.196.801.295 1.308.295.403 0 .792-.061 1.167-.183a3.28 3.28 0 0 0 1.083-.633l.393.802c-.309.281-.703.506-1.181.675a4.354 4.354 0 0 1-1.462.253Zm12.46 0c-.975 0-1.81-.206-2.503-.619a4.102 4.102 0 0 1-1.604-1.758c-.365-.759-.548-1.664-.548-2.714s.183-1.95.548-2.7a4.105 4.105 0 0 1 1.604-1.757c.693-.413 1.528-.619 2.503-.619a5.43 5.43 0 0 1 1.898.323 3.82 3.82 0 0 1 1.462.943l-.45.942c-.431-.403-.881-.694-1.349-.872a4.017 4.017 0 0 0-1.533-.281c-1.116 0-1.969.351-2.56 1.054-.59.703-.885 1.692-.885 2.967 0 1.275.295 2.269.885 2.982.591.703 1.444 1.054 2.56 1.054.562 0 1.073-.089 1.533-.267a4.353 4.353 0 0 0 1.349-.886l.45.942a4.054 4.054 0 0 1-1.462.942 5.407 5.407 0 0 1-1.898.324Zm7.364 0c-.666 0-1.242-.145-1.73-.436a2.998 2.998 0 0 1-1.139-1.223c-.262-.535-.394-1.163-.394-1.885s.132-1.345.394-1.87a2.983 2.983 0 0 1 1.139-1.238c.488-.29 1.064-.435 1.73-.435.666 0 1.242.145 1.73.435.487.291.862.704 1.125 1.238.271.525.407 1.148.407 1.87 0 .722-.136 1.35-.407 1.885a2.908 2.908 0 0 1-1.125 1.223c-.488.291-1.064.436-1.73.436Zm0-.914c.647 0 1.158-.225 1.533-.675.384-.46.576-1.116.576-1.969 0-.844-.192-1.49-.576-1.94-.375-.45-.886-.675-1.533-.675-.638 0-1.148.225-1.533.675-.384.45-.576 1.096-.576 1.94 0 .853.192 1.509.576 1.969.385.45.895.675 1.533.675Zm4.973.787v-6.834h1.111v1.519h-.155c.197-.544.516-.952.957-1.224.45-.281.965-.421 1.546-.421.544 0 .994.098 1.35.295.366.187.638.483.816.886.178.403.267.909.267 1.518v4.261h-1.139v-4.19c0-.422-.056-.769-.169-1.041a1.115 1.115 0 0 0-.506-.604c-.225-.132-.52-.197-.886-.197a2.13 2.13 0 0 0-1.082.267c-.31.178-.549.426-.718.745-.168.319-.253.694-.253 1.125v3.895h-1.139Zm7.993 0v-6.834h1.11v1.519h-.154c.197-.544.515-.952.956-1.224.45-.281.966-.421 1.547-.421.544 0 .994.098 1.35.295.365.187.637.483.815.886.179.403.268.909.268 1.518v4.261h-1.139v-4.19c0-.422-.057-.769-.169-1.041a1.119 1.119 0 0 0-.506-.604c-.225-.132-.521-.197-.886-.197-.413 0-.774.089-1.083.267-.31.178-.549.426-.717.745-.169.319-.253.694-.253 1.125v3.895h-1.139Zm11.072.127c-.722 0-1.346-.141-1.871-.422a3.105 3.105 0 0 1-1.209-1.223c-.281-.525-.422-1.153-.422-1.885 0-.712.141-1.331.422-1.856a3.17 3.17 0 0 1 1.153-1.251c.497-.3 1.069-.45 1.716-.45.618 0 1.148.135 1.589.407.44.272.778.657 1.012 1.153.244.497.366 1.093.366 1.786v.436h-5.386v-.745h4.626l-.225.183c0-.75-.168-1.331-.506-1.744-.328-.422-.811-.633-1.448-.633-.478 0-.886.113-1.224.338-.328.215-.576.52-.745.914-.169.384-.253.834-.253 1.35v.084c0 .572.089 1.055.267 1.449.188.393.464.693.83.9.365.196.801.295 1.308.295.403 0 .792-.061 1.167-.183a3.265 3.265 0 0 0 1.082-.633l.394.802c-.309.281-.703.506-1.181.675a4.359 4.359 0 0 1-1.462.253Zm7.301 0c-.684 0-1.275-.15-1.772-.45a3.035 3.035 0 0 1-1.153-1.252c-.262-.543-.394-1.171-.394-1.884 0-.722.132-1.345.394-1.87a2.879 2.879 0 0 1 1.153-1.21c.497-.281 1.088-.421 1.772-.421.422 0 .839.075 1.251.225.413.15.755.36 1.027.632l-.394.83a2.6 2.6 0 0 0-.9-.577 2.57 2.57 0 0 0-.914-.182c-.712 0-1.261.225-1.645.675-.384.44-.577 1.078-.577 1.912 0 .816.193 1.463.577 1.941.384.468.933.703 1.645.703.291 0 .596-.061.914-.183.328-.122.628-.319.9-.591l.394.83a2.887 2.887 0 0 1-1.041.647c-.412.15-.825.225-1.237.225Zm6.355 0c-.807 0-1.411-.216-1.815-.647-.403-.431-.604-1.045-.604-1.842v-3.586h-1.336v-.886h1.336v-2.095h1.139v2.095h2.165v.886h-2.165v3.473c0 .535.112.943.337 1.224.225.272.591.408 1.097.408.15 0 .3-.019.45-.057.15-.037.286-.075.408-.112l.197.872c-.122.065-.3.126-.535.183a2.897 2.897 0 0 1-.674.084Zm2.033-8.662v-1.28h1.406v1.28h-1.406Zm.141 8.535v-6.834h1.139v6.834h-1.139Zm6.109.127c-.666 0-1.243-.145-1.73-.436a2.991 2.991 0 0 1-1.139-1.223c-.263-.535-.394-1.163-.394-1.885s.131-1.345.394-1.87a2.976 2.976 0 0 1 1.139-1.238c.487-.29 1.064-.435 1.73-.435.665 0 1.242.145 1.729.435.488.291.863.704 1.125 1.238.272.525.408 1.148.408 1.87 0 .722-.136 1.35-.408 1.885a2.895 2.895 0 0 1-1.125 1.223c-.487.291-1.064.436-1.729.436Zm0-.914c.646 0 1.157-.225 1.532-.675.385-.46.577-1.116.577-1.969 0-.844-.192-1.49-.577-1.94-.375-.45-.886-.675-1.532-.675-.638 0-1.149.225-1.533.675-.385.45-.577 1.096-.577 1.94 0 .853.192 1.509.577 1.969.384.45.895.675 1.533.675Zm4.973.787v-6.834h1.111v1.519h-.155c.197-.544.516-.952.956-1.224.45-.281.966-.421 1.547-.421.544 0 .994.098 1.35.295.366.187.638.483.816.886.178.403.267.909.267 1.518v4.261h-1.139v-4.19c0-.422-.056-.769-.169-1.041a1.119 1.119 0 0 0-.506-.604c-.225-.132-.52-.197-.886-.197-.413 0-.773.089-1.083.267a1.831 1.831 0 0 0-.717.745c-.169.319-.253.694-.253 1.125v3.895h-1.139Zm10.298.127c-.356 0-.703-.038-1.04-.113a4.79 4.79 0 0 1-.928-.281 3.147 3.147 0 0 1-.732-.464l.366-.801c.225.178.469.328.731.45a4.1 4.1 0 0 0 1.632.337c.534 0 .937-.098 1.209-.295a.938.938 0 0 0 .408-.802c0-.262-.089-.469-.268-.619-.178-.159-.459-.281-.843-.365l-1.28-.281c-.591-.122-1.031-.333-1.322-.633-.281-.3-.422-.689-.422-1.167 0-.422.108-.783.324-1.083.225-.31.539-.549.942-.717.403-.169.872-.253 1.406-.253.319 0 .624.032.914.098.291.066.563.164.816.295.262.122.487.277.675.464l-.38.802a2.504 2.504 0 0 0-.605-.422 2.767 2.767 0 0 0-.703-.267 2.629 2.629 0 0 0-.717-.099c-.525 0-.923.104-1.195.31a.974.974 0 0 0-.408.815c0 .263.084.478.253.647.169.169.431.291.788.366l1.279.267c.61.131 1.064.342 1.364.633.31.281.464.665.464 1.153 0 .412-.112.773-.337 1.083-.225.3-.544.534-.956.703-.403.159-.882.239-1.435.239Zm8.231-.127v-9.913h3.965c1.013 0 1.8.225 2.363.674.562.45.843 1.088.843 1.913 0 .619-.182 1.134-.548 1.547-.356.412-.844.684-1.462.815v-.196c.468.056.871.192 1.209.407.337.207.595.483.773.83.178.337.267.736.267 1.195 0 .591-.131 1.092-.393 1.505-.253.403-.624.708-1.111.914-.488.206-1.078.309-1.772.309h-4.134Zm1.125-.928h2.896c.3 0 .568-.023.802-.07.244-.047.455-.117.633-.211.178-.103.328-.225.45-.366a1.3 1.3 0 0 0 .267-.506c.066-.197.098-.417.098-.661 0-.253-.032-.473-.098-.661a1.306 1.306 0 0 0-.267-.506 1.438 1.438 0 0 0-.45-.366 2.306 2.306 0 0 0-.633-.211 4.185 4.185 0 0 0-.802-.07h-2.896v3.628Zm0-4.556h2.671c.732 0 1.285-.15 1.66-.45.384-.3.576-.731.576-1.294 0-.581-.192-1.017-.576-1.307-.375-.3-.928-.45-1.66-.45h-2.671v3.501Zm10.318 5.611c-.694 0-1.219-.206-1.575-.619-.347-.412-.52-1.003-.52-1.772v-7.649h1.139v7.565c0 .328.042.605.127.83.093.225.229.393.407.506.178.112.399.169.661.169.113 0 .221-.005.324-.014.112-.019.215-.043.309-.071l-.028.956c-.15.029-.295.052-.436.071a2.842 2.842 0 0 1-.408.028Zm4.838 0c-.666 0-1.242-.145-1.73-.436a2.998 2.998 0 0 1-1.139-1.223c-.262-.535-.394-1.163-.394-1.885s.132-1.345.394-1.87a2.983 2.983 0 0 1 1.139-1.238c.488-.29 1.064-.435 1.73-.435.665 0 1.242.145 1.729.435.488.291.863.704 1.125 1.238.272.525.408 1.148.408 1.87 0 .722-.136 1.35-.408 1.885a2.895 2.895 0 0 1-1.125 1.223c-.487.291-1.064.436-1.729.436Zm0-.914c.647 0 1.158-.225 1.533-.675.384-.46.576-1.116.576-1.969 0-.844-.192-1.49-.576-1.94-.375-.45-.886-.675-1.533-.675-.638 0-1.149.225-1.533.675-.384.45-.577 1.096-.577 1.94 0 .853.193 1.509.577 1.969.384.45.895.675 1.533.675Zm7.279.914c-.356 0-.703-.038-1.04-.113a4.79 4.79 0 0 1-.928-.281 3.147 3.147 0 0 1-.732-.464l.366-.801c.225.178.469.328.731.45a4.098 4.098 0 0 0 1.631.337c.535 0 .938-.098 1.21-.295a.938.938 0 0 0 .408-.802c0-.262-.09-.469-.268-.619-.178-.159-.459-.281-.843-.365l-1.28-.281c-.591-.122-1.031-.333-1.322-.633-.281-.3-.422-.689-.422-1.167 0-.422.108-.783.324-1.083.225-.31.539-.549.942-.717.403-.169.872-.253 1.406-.253.319 0 .624.032.914.098.291.066.563.164.816.295.262.122.487.277.675.464l-.38.802a2.504 2.504 0 0 0-.605-.422 2.767 2.767 0 0 0-.703-.267 2.629 2.629 0 0 0-.717-.099c-.525 0-.923.104-1.195.31a.974.974 0 0 0-.408.815c0 .263.084.478.253.647.169.169.431.291.788.366l1.279.267c.61.131 1.064.342 1.364.633.31.281.464.665.464 1.153 0 .412-.112.773-.337 1.083-.225.3-.544.534-.956.703-.403.159-.882.239-1.435.239Zm6.77 0c-.356 0-.703-.038-1.04-.113a4.79 4.79 0 0 1-.928-.281 3.12 3.12 0 0 1-.731-.464l.365-.801c.225.178.469.328.731.45a4.1 4.1 0 0 0 1.632.337c.534 0 .937-.098 1.209-.295a.938.938 0 0 0 .408-.802c0-.262-.089-.469-.267-.619-.179-.159-.46-.281-.844-.365l-1.28-.281c-.59-.122-1.031-.333-1.322-.633-.281-.3-.422-.689-.422-1.167 0-.422.108-.783.324-1.083.225-.31.539-.549.942-.717.403-.169.872-.253 1.406-.253.319 0 .624.032.914.098.291.066.563.164.816.295.262.122.487.277.675.464l-.38.802a2.499 2.499 0 0 0-.604-.422 2.773 2.773 0 0 0-.704-.267 2.629 2.629 0 0 0-.717-.099c-.525 0-.923.104-1.195.31a.974.974 0 0 0-.408.815c0 .263.085.478.253.647.169.169.432.291.788.366l1.279.267c.61.131 1.064.342 1.364.633.31.281.464.665.464 1.153 0 .412-.112.773-.337 1.083-.225.3-.544.534-.956.703-.403.159-.881.239-1.435.239Zm7.305 0c-.666 0-1.242-.145-1.73-.436a2.998 2.998 0 0 1-1.139-1.223c-.262-.535-.393-1.163-.393-1.885s.131-1.345.393-1.87a2.983 2.983 0 0 1 1.139-1.238c.488-.29 1.064-.435 1.73-.435.666 0 1.242.145 1.73.435.487.291.862.704 1.125 1.238.271.525.407 1.148.407 1.87 0 .722-.136 1.35-.407 1.885a2.908 2.908 0 0 1-1.125 1.223c-.488.291-1.064.436-1.73.436Zm0-.914c.647 0 1.158-.225 1.533-.675.384-.46.576-1.116.576-1.969 0-.844-.192-1.49-.576-1.94-.375-.45-.886-.675-1.533-.675-.638 0-1.148.225-1.533.675-.384.45-.576 1.096-.576 1.94 0 .853.192 1.509.576 1.969.385.45.895.675 1.533.675Zm5.001.787v-6.834h1.111v1.519h-.154c.112-.347.276-.642.492-.886.225-.253.487-.441.787-.563.31-.131.647-.196 1.013-.196.581 0 1.05.14 1.406.421.366.272.609.699.731 1.28h-.211a2.33 2.33 0 0 1 .9-1.237c.441-.31.952-.464 1.533-.464.516 0 .937.098 1.266.295.337.197.59.497.759.9.169.394.253.895.253 1.504v4.261h-1.139v-4.204c0-.628-.108-1.088-.323-1.378-.216-.3-.582-.45-1.097-.45-.366 0-.689.089-.971.267a1.755 1.755 0 0 0-.632.759c-.141.319-.211.699-.211 1.139v3.867h-1.139v-4.204c0-.628-.113-1.088-.338-1.378-.215-.3-.576-.45-1.083-.45a1.73 1.73 0 0 0-.97.267 1.75 1.75 0 0 0-.633.759c-.14.319-.211.699-.211 1.139v3.867h-1.139Z"/><path stroke="#B3B6BA" stroke-dasharray="7.03 7.03" stroke-width="1.172" d="M88.189 99.919h329.543v128.12H88.189z"/><path stroke="#B3B6BA" stroke-dasharray="7.03 7.03" stroke-width="1.172" d="M55.249 66.973h395.419v193.943H55.249z"/><path fill="#B3B6BA" d="M85.087 191.044H56.98l-1.153-1.153v-7.64l20.467-36.754h-18.45c-1.248-.049-2.065-.337-2.45-.865-.384-.673-.576-1.778-.576-3.315 0-1.586.168-2.715.504-3.388.337-.72 1.057-1.081 2.162-1.081h28.972l1.153 1.153v6.342l-19.963 37.981h17.08c1.586.048 2.643.264 3.171.648.577.336.865.889.865 1.658-.096 4.276-1.321 6.414-3.675 6.414Zm362.478 0h-28.107l-1.153-1.153v-7.639l20.468-36.755h-18.45c-1.249-.048-2.066-.337-2.45-.865-.385-.673-.577-1.778-.577-3.315 0-1.586.168-2.715.505-3.388.336-.72 1.057-1.081 2.162-1.081h28.971l1.153 1.154v6.342l-19.963 37.98h17.081c1.585.048 2.642.264 3.171.648.576.337.864.889.864 1.658-.096 4.276-1.321 6.414-3.675 6.414ZM280.026 70.08v28.107l-1.153 1.153h-7.639l-36.755-20.467v18.45c-.048 1.248-.336 2.065-.865 2.45-.672.384-1.777.576-3.315.576-1.585 0-2.714-.168-3.387-.504-.721-.337-1.081-1.057-1.081-2.162V68.71l1.153-1.153h6.342l37.98 19.963V70.44c.048-1.586.264-2.643.649-3.171.336-.577.889-.865 1.657-.865 4.276.096 6.414 1.321 6.414 3.675Zm-54.127 187.733v-28.107l1.153-1.153h7.64l36.755 20.468v-18.45c.048-1.249.336-2.066.864-2.45.673-.385 1.778-.577 3.316-.577 1.585 0 2.714.168 3.387.505.72.336 1.081 1.057 1.081 2.162v28.971l-1.153 1.153H272.6l-37.98-19.963v17.081c-.048 1.585-.265 2.642-.649 3.171-.336.576-.889.865-1.658.865-4.276-.097-6.414-1.322-6.414-3.676Z"/></svg>