<svg xmlns="http://www.w3.org/2000/svg" width="1040" height="600" fill="none"><path fill="#fff" d="M0 0h1040v600H0z"/><path fill="#FF7B00" d="M642.249 229.184c-41.579-93.259-166.31-97.843-224.52-70.781-49.894 29.143-83.16 70.781-64.45 179.028 18.71 108.247 120.577 122.819 197.497 118.655 76.92-4.163 143.446-110.329 91.473-226.902Z"/><path fill="#000" d="m496.039 455.176-7.705-140.334h25.842l10.201 141.842c-11.064-.205-17.271-.564-28.338-1.508Zm39.946-187.225-9.103-3.923s6.385-26.553 15.298-41.235c8.616-14.193 28.336-31.694 28.336-31.694l8.529 5.577c-28.801 19.215-37.946 37.078-43.06 71.275Zm51.775-10.787-3.524-9.264s23.502-13.911 40.245-17.739c16.185-3.701 42.479-1.737 42.479-1.737l1.937 10.004c-33.846-7.287-53.035-1.409-81.137 18.736Zm-15.792 60.158 3.26-9.36s26.943 4.463 42.227 12.3c14.774 7.575 33.645 25.989 33.645 25.989l-4.951 8.907c-21.232-27.348-39.705-35.188-74.181-37.836Z"/><path fill="#000" d="m500.373 294.99 5.498 8.247s-19.813 18.795-35.284 26.256c-14.954 7.212-41.025 11.154-41.025 11.154l-4.116-9.322c34.619-.434 52.017-10.437 74.927-36.335Z"/><path fill="#000" d="m530.255 300.933-2.198 9.665s-27.272-1.437-43.333-7.524c-15.525-5.884-36.329-22.083-36.329-22.083l3.929-9.403c24.143 24.815 43.375 30.55 77.931 29.345Z"/><path fill="#000" d="m492.816 277.192 9.67 2.174s-1.37 27.276-7.417 43.352c-5.846 15.539-21.995 36.382-21.995 36.382l-9.411-3.906c24.755-24.204 30.443-43.449 29.153-78.002Z"/><path fill="#000" d="m497.641 297.877.005 9.912s-26.91 4.659-43.922 2.293c-16.444-2.286-40.327-13.458-40.327-13.458l1.741-10.04c29.054 18.829 49.079 20.147 82.503 11.293Z"/><path fill="#000" d="m514.481 303.734-8.338 5.359s-18.459-20.127-25.659-35.721c-6.959-15.073-10.461-41.206-10.461-41.206l9.389-3.959c-.148 34.621 9.561 52.184 35.069 75.527Z"/><path fill="#000" d="M536.057 285.145c-9.33-20.927-37.318-21.955-50.38-15.883-11.196 6.54-18.66 15.883-14.462 40.172 4.199 24.29 27.057 27.56 44.317 26.625 17.26-.934 32.187-24.756 20.525-50.914Zm57.82-93.999c1.455-9.034-7.675-15.496-13.368-16.321-5.172-.261-9.709 1.23-13.615 10.266-3.906 9.037 3.02 15.126 8.993 18.586 5.973 3.461 16.17-1.239 17.99-12.531Zm89.315 54.073c7.497-5.247 5.775-16.299 2.403-20.959-3.414-3.894-7.644-6.111-16.849-2.621-9.205 3.49-8.752 12.7-7.075 19.397 1.676 6.697 12.15 10.741 21.521 4.183Zm-30.464 124.334c9.115.804 14.905-8.766 15.32-14.504-.111-5.177-1.923-9.596-11.217-12.843-9.293-3.248-14.87 4.097-17.893 10.303-3.023 6.206 2.396 16.039 13.79 17.044Zm-242.73-41.664c-6.14 6.784-2 17.175 2.325 20.968 4.196 3.035 8.813 4.255 17.01-1.198 8.196-5.452 5.703-14.331 2.578-20.486-3.126-6.155-14.238-7.765-21.913.716Zm34.187-69.876c-9.148.216-13.837 10.371-13.61 16.119.685 5.133 2.979 9.322 12.576 11.515 9.597 2.193 14.322-5.726 16.635-12.23 2.314-6.504-4.166-15.673-15.601-15.404Zm5.922 105.354c.238 9.148 10.405 13.811 16.153 13.571 5.13-.698 9.314-3.002 11.484-12.604 2.169-9.603-5.762-14.308-12.271-16.606-6.51-2.297-15.663 4.205-15.366 15.639Zm-45.923-88.208c-8.871 2.243-11.186 13.186-9.688 18.74 1.809 4.852 4.976 8.427 14.821 8.433 9.844.005 12.691-8.766 13.501-15.622.81-6.855-7.545-14.355-18.634-11.551Zm78.926-62.344c-6.681-6.253-17.14-2.289-21.005 1.973-3.105 4.143-4.402 8.74.911 17.027 5.314 8.287 14.233 5.944 20.44 2.922 6.207-3.022 8.004-14.105-.346-21.922Z"/></svg>