<svg xmlns="http://www.w3.org/2000/svg" width="598" height="545" fill="none"><rect width="597" height="544" x=".5" y=".5" fill="#0C0D0E" rx="19.5"/><rect width="597" height="544" x=".5" y=".5" stroke="#767F87" rx="19.5"/><g clip-path="url(#a)"><rect width="200" height="433.067" x="339" y="76" fill="#fff" rx="20"/><path stroke="#007AFF" stroke-linejoin="round" stroke-width="5.333" d="M439.267 352.266V319.2"/><circle cx="439.267" cy="352.266" r="31.733" fill="#fff" stroke="#000" stroke-width="2.667"/><path fill="#000" d="M391.202 115.896v10.237h-1.927v-10.237h1.927Zm3.178 0v1.526h-8.248v-1.526h8.248Zm4.338 8.62v-3.508c0-.258-.045-.481-.134-.668a.965.965 0 0 0-.407-.436c-.183-.104-.415-.155-.697-.155-.248 0-.466.042-.653.126a.964.964 0 0 0-.422.359.923.923 0 0 0-.148.52h-1.863c0-.314.075-.611.225-.893.15-.286.363-.539.64-.759a3.137 3.137 0 0 1 1.005-.527c.394-.127.834-.19 1.322-.19.576 0 1.09.098 1.54.295.454.192.811.483 1.068.872.263.389.394.879.394 1.47v3.318c0 .38.024.706.071.978.051.267.126.499.225.696v.119h-1.892a2.81 2.81 0 0 1-.204-.731c-.047-.3-.07-.595-.07-.886Zm.26-3.016.014 1.104h-1.174c-.291 0-.546.03-.766.091a1.42 1.42 0 0 0-.542.253 1.019 1.019 0 0 0-.316.394c-.071.15-.106.321-.106.513 0 .188.042.356.127.506.089.15.215.27.379.359.169.084.366.127.591.127.328 0 .614-.066.858-.197.244-.136.434-.3.569-.492.136-.193.209-.375.218-.549l.535.802a3.112 3.112 0 0 1-.296.611c-.131.216-.3.418-.506.605a2.56 2.56 0 0 1-.745.464 2.602 2.602 0 0 1-1.013.183c-.492 0-.932-.099-1.321-.295a2.343 2.343 0 0 1-.922-.809 2.075 2.075 0 0 1-.337-1.167c0-.403.075-.76.225-1.069.15-.309.373-.569.668-.78a3.1 3.1 0 0 1 1.097-.486c.44-.112.944-.168 1.512-.168h1.251Zm5.14-6.174v10.807h-1.856v-10.807h1.856Zm4.767 3.199-3.312 3.72-1.793 1.821-.59-1.441 1.385-1.744 2.067-2.356h2.243Zm-1.898 7.608-2.356-3.543 1.238-1.203 3.269 4.746h-2.151Zm6.159.141a4.09 4.09 0 0 1-1.554-.281 3.416 3.416 0 0 1-1.174-.781 3.573 3.573 0 0 1-.738-1.174 4.086 4.086 0 0 1-.253-1.448v-.282c0-.586.084-1.118.253-1.596.168-.483.407-.897.717-1.244.309-.347.68-.614 1.111-.802a3.549 3.549 0 0 1 1.427-.281c.539 0 1.015.091 1.427.274a2.76 2.76 0 0 1 1.034.759c.277.329.485.722.626 1.182.14.454.211.958.211 1.511v.781h-5.963v-1.28h4.135v-.14a2.257 2.257 0 0 0-.169-.809 1.302 1.302 0 0 0-.478-.591c-.216-.15-.495-.225-.837-.225-.277 0-.518.061-.724.183a1.45 1.45 0 0 0-.506.506c-.132.216-.23.474-.296.774-.065.3-.098.633-.098.998v.282c0 .318.042.614.126.885.089.272.218.509.387.711.174.197.38.351.619.464.244.108.52.161.83.161.389 0 .74-.075 1.054-.225.319-.154.596-.382.83-.682l.935.971a3.108 3.108 0 0 1-.647.675 3.31 3.31 0 0 1-.97.527c-.38.131-.818.197-1.315.197Zm9.253-10.378 2.25 4.774 2.264-4.774h2.124l-3.403 6.49v3.747h-1.962v-3.747l-3.41-6.49h2.137Zm6.729 6.511v-.148c0-.558.08-1.071.239-1.54.16-.473.392-.883.696-1.23a3.139 3.139 0 0 1 1.118-.809c.441-.197.942-.295 1.505-.295.572 0 1.078.098 1.519.295.445.192.82.462 1.125.809.304.347.536.757.696 1.23.159.469.239.982.239 1.54v.148c0 .553-.08 1.066-.239 1.54-.16.468-.392.878-.696 1.23a3.151 3.151 0 0 1-1.118.809c-.441.192-.945.288-1.512.288a3.786 3.786 0 0 1-1.512-.288 3.134 3.134 0 0 1-1.125-.809 3.682 3.682 0 0 1-.696-1.23 4.812 4.812 0 0 1-.239-1.54Zm1.856-.148v.148c0 .333.033.644.099.935.065.291.166.546.302.766.136.221.312.394.527.521.221.121.483.182.788.182.3 0 .558-.061.773-.182.216-.127.392-.3.528-.521.14-.22.243-.475.309-.766.066-.291.099-.602.099-.935v-.148a4.09 4.09 0 0 0-.099-.921 2.404 2.404 0 0 0-.309-.766 1.479 1.479 0 0 0-1.315-.725c-.3 0-.558.066-.774.197a1.506 1.506 0 0 0-.527.528c-.136.22-.237.475-.302.766a4.09 4.09 0 0 0-.099.921Zm11.159 2.067v-5.801h1.87v7.608h-1.758l-.112-1.807Zm.239-1.575.577-.014c0 .511-.057.982-.169 1.413a3.178 3.178 0 0 1-.528 1.125 2.436 2.436 0 0 1-.893.739c-.36.173-.787.26-1.279.26a3.24 3.24 0 0 1-1.027-.155 2.092 2.092 0 0 1-.801-.499 2.342 2.342 0 0 1-.514-.879c-.121-.361-.182-.794-.182-1.301v-4.915h1.856v4.929c0 .254.028.464.084.633.061.169.143.307.246.415a.985.985 0 0 0 .373.225c.145.042.3.063.464.063.45 0 .804-.089 1.062-.267.262-.183.45-.426.562-.731.113-.309.169-.656.169-1.041Zm5.133-2.672v6.054h-1.856v-7.608h1.757l.099 1.554Zm2.313-1.603-.028 1.73a4.528 4.528 0 0 0-.71-.056c-.286 0-.537.04-.753.119a1.398 1.398 0 0 0-.541.331 1.448 1.448 0 0 0-.323.534 2.28 2.28 0 0 0-.127.703l-.401-.049c0-.483.049-.93.148-1.343.098-.412.241-.773.429-1.083.187-.309.422-.548.703-.717.286-.173.614-.26.984-.26.103 0 .214.009.331.028.122.014.218.035.288.063Zm12.031 6.139v1.518h-7.186v-1.518h7.186Zm-.134-7.587-6.258 9.105h-1.329v-1.16l6.286-9.077h1.301v1.132Zm-.689-1.132v1.526h-6.877v-1.526h6.877Zm1.631 6.511v-.148c0-.558.08-1.071.239-1.54.16-.473.392-.883.696-1.23a3.139 3.139 0 0 1 1.118-.809c.441-.197.942-.295 1.505-.295.572 0 1.078.098 1.519.295.445.192.82.462 1.125.809.304.347.536.757.696 1.23.159.469.239.982.239 1.54v.148c0 .553-.08 1.066-.239 1.54-.16.468-.392.878-.696 1.23a3.151 3.151 0 0 1-1.118.809c-.441.192-.945.288-1.512.288a3.789 3.789 0 0 1-1.512-.288 3.134 3.134 0 0 1-1.125-.809 3.682 3.682 0 0 1-.696-1.23 4.812 4.812 0 0 1-.239-1.54Zm1.856-.148v.148c0 .333.033.644.099.935.065.291.166.546.302.766.136.221.312.394.528.521.22.121.482.182.787.182.3 0 .558-.061.773-.182.216-.127.392-.3.528-.521.14-.22.244-.475.309-.766.066-.291.099-.602.099-.935v-.148a4.09 4.09 0 0 0-.099-.921 2.381 2.381 0 0 0-.309-.766 1.479 1.479 0 0 0-1.315-.725 1.459 1.459 0 0 0-1.301.725c-.136.22-.237.475-.302.766a4.09 4.09 0 0 0-.099.921Zm8.6-6.926v10.8h-1.864v-10.8h1.864Zm1.441 7.074v-.148c0-.558.08-1.071.239-1.54.159-.473.391-.883.696-1.23a3.139 3.139 0 0 1 1.118-.809c.441-.197.942-.295 1.505-.295.572 0 1.078.098 1.519.295.445.192.82.462 1.125.809.304.347.536.757.696 1.23.159.469.239.982.239 1.54v.148c0 .553-.08 1.066-.239 1.54-.16.468-.392.878-.696 1.23a3.151 3.151 0 0 1-1.118.809c-.441.192-.945.288-1.512.288a3.782 3.782 0 0 1-1.512-.288 3.134 3.134 0 0 1-1.125-.809 3.648 3.648 0 0 1-.696-1.23 4.812 4.812 0 0 1-.239-1.54Zm1.856-.148v.148c0 .333.033.644.099.935.065.291.166.546.302.766.136.221.312.394.527.521.221.121.483.182.788.182.3 0 .558-.061.773-.182.216-.127.392-.3.528-.521.14-.22.243-.475.309-.766.066-.291.098-.602.098-.935v-.148a4.09 4.09 0 0 0-.098-.921 2.404 2.404 0 0 0-.309-.766 1.479 1.479 0 0 0-1.315-.725c-.3 0-.558.066-.774.197a1.506 1.506 0 0 0-.527.528c-.136.22-.237.475-.302.766a4.09 4.09 0 0 0-.099.921Zm9.064 3.874h-1.871v-8.311c0-.572.11-1.052.331-1.441a2.14 2.14 0 0 1 .942-.893c.408-.202.888-.302 1.441-.302.183 0 .357.011.521.035.168.023.335.056.499.098l-.035 1.414a1.77 1.77 0 0 0-.296-.05 3.972 3.972 0 0 0-.344-.014c-.253 0-.469.045-.647.134a.92.92 0 0 0-.408.394 1.326 1.326 0 0 0-.133.625v8.311Zm1.539-7.608v1.336h-4.556v-1.336h4.556Zm4.746 0v1.336h-4.359v-1.336h4.359Zm-3.192-1.87h1.864v7.285c0 .225.03.398.091.52a.47.47 0 0 0 .274.246c.122.042.267.063.436.063.122 0 .235-.007.338-.021.103-.014.189-.028.26-.042l.007 1.392a3.47 3.47 0 0 1-.528.127c-.192.033-.41.049-.653.049-.418 0-.783-.07-1.097-.211a1.57 1.57 0 0 1-.732-.696c-.173-.324-.26-.75-.26-1.28v-7.432Zm-103.533 21.328v9.15h-1.157v-7.706l-2.331.85v-1.044l3.306-1.25h.182Zm9.406 8.325c.275 0 .529-.056.762-.168a1.57 1.57 0 0 0 .575-.463c.15-.2.236-.427.257-.681h1.1c-.021.4-.157.773-.407 1.119a2.775 2.775 0 0 1-2.287 1.143c-.508 0-.952-.089-1.331-.268a2.645 2.645 0 0 1-.938-.738 3.288 3.288 0 0 1-.556-1.075 4.531 4.531 0 0 1-.181-1.294v-.262c0-.454.06-.884.181-1.288.125-.408.31-.768.556-1.081.25-.312.563-.558.938-.737.379-.18.823-.269 1.331-.269.529 0 .992.108 1.387.325.396.212.707.504.932.875.229.366.354.783.375 1.25h-1.1a1.662 1.662 0 0 0-.238-.756 1.472 1.472 0 0 0-.55-.538 1.541 1.541 0 0 0-.806-.206c-.354 0-.652.071-.894.212a1.575 1.575 0 0 0-.569.563 2.654 2.654 0 0 0-.3.781 4.32 4.32 0 0 0-.087.869v.262c0 .296.029.588.087.875.059.288.157.548.294.782.142.233.331.42.569.562.242.138.542.206.9.206Zm7.981-.331v-3.481c0-.267-.054-.498-.162-.694a1.062 1.062 0 0 0-.475-.462c-.213-.109-.475-.163-.788-.163-.291 0-.548.05-.769.15-.216.1-.387.231-.512.394a.86.86 0 0 0-.181.525h-1.157c0-.242.063-.481.188-.719.125-.237.304-.452.537-.644a2.68 2.68 0 0 1 .85-.462 3.35 3.35 0 0 1 1.113-.175c.492 0 .925.083 1.3.25.379.166.675.419.887.756.217.333.325.752.325 1.256v3.15c0 .225.019.465.057.719.041.254.102.473.181.656v.1h-1.206a2.15 2.15 0 0 1-.138-.531 4.328 4.328 0 0 1-.05-.625Zm.2-2.944.013.813h-1.169c-.329 0-.623.027-.881.081-.259.05-.475.127-.65.231a1.04 1.04 0 0 0-.538.938c0 .212.048.406.144.581.096.175.24.315.431.419.196.1.436.15.719.15a1.9 1.9 0 0 0 .937-.225c.271-.15.486-.334.644-.55.163-.217.25-.427.263-.631l.493.556a1.672 1.672 0 0 1-.237.581 2.798 2.798 0 0 1-1.281 1.094 2.487 2.487 0 0 1-.988.187c-.458 0-.86-.089-1.206-.268a2.07 2.07 0 0 1-.8-.719 1.898 1.898 0 0 1-.281-1.019c0-.362.071-.681.212-.956.142-.279.346-.511.613-.694.266-.187.587-.329.962-.425a5.07 5.07 0 0 1 1.256-.144h1.344Zm3.931-1.362v8.062H405.4v-9.362h1.062l.1 1.3Zm4.557 2.025v.131c0 .492-.059.948-.175 1.369a3.373 3.373 0 0 1-.513 1.087 2.33 2.33 0 0 1-.819.719 2.363 2.363 0 0 1-1.118.256 2.87 2.87 0 0 1-1.138-.212 2.244 2.244 0 0 1-.837-.619 3.158 3.158 0 0 1-.55-.975 5.603 5.603 0 0 1-.275-1.281v-.7c.05-.5.143-.948.281-1.344a3.33 3.33 0 0 1 .544-1.012c.229-.284.506-.498.831-.644.325-.15.7-.225 1.125-.225.425 0 .802.083 1.131.25.329.162.606.396.831.7.225.304.394.669.507 1.094.116.42.175.889.175 1.406Zm-1.163.131v-.131a4.06 4.06 0 0 0-.106-.95 2.406 2.406 0 0 0-.331-.788 1.58 1.58 0 0 0-.563-.537 1.593 1.593 0 0 0-.819-.2c-.291 0-.545.05-.762.15-.213.1-.394.235-.544.406a2.16 2.16 0 0 0-.369.575c-.091.213-.16.433-.206.663v1.618c.084.292.2.567.35.825.15.254.35.461.6.619.25.154.565.231.944.231.312 0 .581-.064.806-.193.229-.134.417-.315.563-.544.15-.229.26-.492.331-.788.071-.3.106-.618.106-.956Zm6.575 1.513a.975.975 0 0 0-.112-.463c-.071-.146-.219-.277-.444-.394-.221-.121-.554-.225-1-.312a7.947 7.947 0 0 1-1.019-.281 3.13 3.13 0 0 1-.769-.394 1.663 1.663 0 0 1-.481-.544 1.52 1.52 0 0 1-.169-.731c0-.267.059-.519.175-.756.121-.238.29-.448.507-.632.221-.183.485-.327.793-.431a3.222 3.222 0 0 1 1.032-.156c.541 0 1.004.096 1.387.287.384.192.677.448.881.769.205.317.307.669.307 1.056h-1.157a.994.994 0 0 0-.168-.543 1.238 1.238 0 0 0-.482-.444c-.208-.117-.464-.175-.768-.175-.321 0-.582.05-.782.15a1.01 1.01 0 0 0-.431.369.932.932 0 0 0-.069.812.747.747 0 0 0 .238.269c.112.079.271.154.475.225.204.071.465.141.781.212.554.125 1.011.275 1.369.45.358.175.625.39.8.644.175.254.262.563.262.925 0 .296-.062.567-.187.813a1.81 1.81 0 0 1-.531.637 2.637 2.637 0 0 1-.825.413 3.718 3.718 0 0 1-1.069.143c-.596 0-1.1-.106-1.513-.318-.412-.213-.725-.488-.937-.825a1.972 1.972 0 0 1-.319-1.069h1.163c.016.316.108.569.275.756.166.183.371.315.612.394.242.075.481.112.719.112.317 0 .581-.041.794-.125.216-.083.381-.198.493-.343a.795.795 0 0 0 .169-.5Zm6.813.231v-5.2h1.162v6.762H423.4l-.056-1.562Zm.218-1.425.482-.013c0 .45-.048.867-.144 1.25a2.698 2.698 0 0 1-.45.988 2.121 2.121 0 0 1-.819.656c-.337.154-.748.231-1.231.231-.329 0-.631-.048-.906-.143a1.813 1.813 0 0 1-.7-.444 2.032 2.032 0 0 1-.457-.781c-.104-.321-.156-.707-.156-1.157v-4.362h1.156v4.375c0 .304.034.556.1.756.071.196.165.352.282.469.121.112.254.191.4.237.15.046.304.069.462.069.492 0 .881-.094 1.169-.281.287-.192.494-.448.619-.769.129-.325.193-.685.193-1.081Zm3.963-6.613v9.6h-1.163v-9.6h1.163Zm4.662 9.725c-.47 0-.897-.079-1.281-.237a2.921 2.921 0 0 1-.981-.681 3.036 3.036 0 0 1-.625-1.038 3.798 3.798 0 0 1-.219-1.312v-.263c0-.55.081-1.04.244-1.469.162-.433.383-.8.662-1.1.28-.3.596-.527.95-.681a2.735 2.735 0 0 1 1.1-.231c.484 0 .9.083 1.25.25.355.166.644.4.869.7.225.296.392.646.5 1.05.109.4.163.837.163 1.312v.519h-5.05v-.944h3.893v-.087a2.871 2.871 0 0 0-.187-.875 1.568 1.568 0 0 0-.5-.7c-.229-.184-.542-.275-.938-.275a1.57 1.57 0 0 0-1.293.656 2.43 2.43 0 0 0-.369.794 4.001 4.001 0 0 0-.131 1.081v.263c0 .32.043.622.131.906.092.279.223.525.394.737.175.213.385.379.631.5.25.121.533.182.85.182.408 0 .754-.084 1.037-.25.284-.167.532-.39.744-.669l.7.556a3.233 3.233 0 0 1-.556.631c-.225.2-.502.363-.831.488-.325.125-.711.187-1.157.187Zm8.869-1.325 1.738-5.562h.762l-.15 1.106-1.769 5.656h-.743l.162-1.2Zm-1.169-5.562 1.482 5.625.106 1.137h-.781l-1.963-6.762h1.156Zm5.332 5.581 1.412-5.581h1.15l-1.962 6.762h-.775l.175-1.181Zm-1.494-5.581 1.7 5.469.194 1.293h-.738l-1.819-5.668-.15-1.094h.813Zm6.5 0v6.762h-1.163v-6.762h1.163Zm-1.25-1.794c0-.187.056-.346.169-.475.116-.129.287-.194.512-.194.221 0 .39.065.506.194a.67.67 0 0 1 .182.475.656.656 0 0 1-.182.463c-.116.125-.285.187-.506.187-.225 0-.396-.062-.512-.187a.682.682 0 0 1-.169-.463Zm5.937 1.794v.887h-3.656v-.887h3.656Zm-2.418-1.644h1.156v6.731c0 .229.035.402.106.519a.506.506 0 0 0 .275.231c.113.038.234.057.363.057.096 0 .196-.009.3-.025a9.65 9.65 0 0 0 .243-.05l.007.943a2.736 2.736 0 0 1-.363.082 2.777 2.777 0 0 1-.531.043c-.283 0-.544-.056-.781-.168a1.258 1.258 0 0 1-.569-.563c-.138-.267-.206-.625-.206-1.075v-6.725Zm4.931-1.194v9.6h-1.156v-9.6h1.156Zm-.275 5.963-.481-.019a4.07 4.07 0 0 1 .206-1.281c.133-.396.321-.74.562-1.031a2.506 2.506 0 0 1 1.982-.919c.333 0 .633.046.9.137.266.088.493.229.681.425.192.196.337.45.437.763.1.308.15.685.15 1.131v4.431h-1.162v-4.443c0-.355-.052-.638-.156-.85a.961.961 0 0 0-.457-.469c-.2-.1-.445-.15-.737-.15-.288 0-.55.06-.788.181a1.897 1.897 0 0 0-.606.5 2.541 2.541 0 0 0-.531 1.594Zm11.056 2.437 1.738-5.562h.762l-.15 1.106-1.769 5.656h-.743l.162-1.2Zm-1.169-5.562 1.482 5.625.106 1.137h-.781l-1.963-6.762h1.156Zm5.332 5.581 1.412-5.581h1.15l-1.962 6.762h-.775l.175-1.181Zm-1.494-5.581 1.7 5.469.194 1.293h-.738l-1.819-5.668-.15-1.094h.813Zm9.231 5.606v-3.481c0-.267-.054-.498-.162-.694a1.062 1.062 0 0 0-.475-.462c-.213-.109-.475-.163-.788-.163-.291 0-.548.05-.769.15-.216.1-.387.231-.512.394a.86.86 0 0 0-.181.525h-1.157c0-.242.063-.481.188-.719.125-.237.304-.452.537-.644a2.68 2.68 0 0 1 .85-.462 3.35 3.35 0 0 1 1.113-.175c.492 0 .925.083 1.3.25.379.166.675.419.887.756.217.333.325.752.325 1.256v3.15c0 .225.019.465.057.719.041.254.102.473.181.656v.1h-1.206a2.15 2.15 0 0 1-.138-.531 4.328 4.328 0 0 1-.05-.625Zm.2-2.944.013.813h-1.169c-.329 0-.623.027-.881.081-.259.05-.475.127-.65.231a1.04 1.04 0 0 0-.538.938c0 .212.048.406.144.581.096.175.24.315.431.419.196.1.436.15.719.15a1.9 1.9 0 0 0 .937-.225c.271-.15.486-.334.644-.55.163-.217.25-.427.263-.631l.493.556a1.672 1.672 0 0 1-.237.581 2.798 2.798 0 0 1-1.281 1.094 2.487 2.487 0 0 1-.988.187c-.458 0-.86-.089-1.206-.268a2.07 2.07 0 0 1-.8-.719 1.898 1.898 0 0 1-.281-1.019c0-.362.071-.681.212-.956.142-.279.346-.511.613-.694.266-.187.587-.329.962-.425a5.07 5.07 0 0 1 1.256-.144h1.344Zm5.606-2.662v.887h-3.656v-.887h3.656Zm-2.418-1.644h1.156v6.731c0 .229.035.402.106.519a.506.506 0 0 0 .275.231c.113.038.234.057.363.057.096 0 .196-.009.3-.025a9.65 9.65 0 0 0 .243-.05l.007.943a2.736 2.736 0 0 1-.363.082 2.777 2.777 0 0 1-.531.043c-.283 0-.544-.056-.781-.168a1.258 1.258 0 0 1-.569-.563c-.138-.267-.206-.625-.206-1.075v-6.725Zm6.581 8.531a3.33 3.33 0 0 1-1.281-.237 2.925 2.925 0 0 1-.982-.681 3.051 3.051 0 0 1-.625-1.038 3.822 3.822 0 0 1-.218-1.312v-.263c0-.55.081-1.04.243-1.469.163-.433.384-.8.663-1.1.279-.3.596-.527.95-.681a2.731 2.731 0 0 1 1.1-.231c.483 0 .9.083 1.25.25.354.166.644.4.869.7.225.296.391.646.5 1.05.108.4.162.837.162 1.312v.519h-5.05v-.944h3.894v-.087a2.872 2.872 0 0 0-.188-.875 1.56 1.56 0 0 0-.5-.7c-.229-.184-.541-.275-.937-.275a1.567 1.567 0 0 0-1.294.656 2.472 2.472 0 0 0-.369.794 4.041 4.041 0 0 0-.131 1.081v.263c0 .32.044.622.131.906.092.279.223.525.394.737.175.213.386.379.631.5.25.121.534.182.85.182.409 0 .755-.084 1.038-.25.283-.167.531-.39.744-.669l.7.556a3.24 3.24 0 0 1-.557.631c-.225.2-.502.363-.831.488-.325.125-.71.187-1.156.187Zm5.137-5.825v5.7h-1.156v-6.762h1.125l.031 1.062Zm2.113-1.1-.006 1.075a1.642 1.642 0 0 0-.275-.037 2.729 2.729 0 0 0-.288-.013c-.266 0-.502.042-.706.125-.204.084-.377.2-.519.35-.141.15-.254.329-.337.538a2.587 2.587 0 0 0-.157.675l-.325.187c0-.408.04-.791.119-1.15.084-.358.211-.675.381-.95.171-.279.388-.496.65-.65a1.833 1.833 0 0 1 1.238-.206.87.87 0 0 1 .225.056Z"/><rect width="136" height="26.933" x="371" y="429.467" fill="#787878" fill-opacity=".2" rx="6.4"/><path fill="#000" d="M401.244 439.35h2.828c.58 0 1.078.087 1.495.261.42.173.743.43.968.771.226.34.339.758.339 1.255 0 .406-.07.755-.208 1.047a1.975 1.975 0 0 1-.579.724 3.001 3.001 0 0 1-.869.458l-.495.26h-2.458l-.011-1.218h1.828c.275 0 .502-.049.683-.146a.96.96 0 0 0 .406-.407c.094-.173.14-.375.14-.604 0-.243-.045-.453-.135-.63a.913.913 0 0 0-.411-.406c-.184-.094-.415-.141-.693-.141h-1.266v6.36h-1.562v-7.584Zm4.239 7.584-1.729-3.381 1.651-.01 1.75 3.318v.073h-1.672Zm4.881.104c-.438 0-.83-.07-1.177-.209a2.573 2.573 0 0 1-.886-.588 2.632 2.632 0 0 1-.552-.87 2.935 2.935 0 0 1-.193-1.062v-.209c0-.427.061-.817.183-1.172.121-.354.295-.661.521-.921.229-.261.507-.461.833-.599a2.721 2.721 0 0 1 1.104-.214c.399 0 .754.066 1.063.198.309.132.567.319.776.562.211.243.371.535.479.875.107.337.161.712.161 1.125v.625h-4.479v-1h3.005v-.114c0-.208-.038-.394-.114-.557a.88.88 0 0 0-.334-.396c-.149-.098-.34-.146-.573-.146a.96.96 0 0 0-.51.13 1.005 1.005 0 0 0-.349.365c-.087.156-.153.34-.198.552a3.48 3.48 0 0 0-.062.687v.209c0 .225.031.434.093.625.066.191.158.355.276.494.122.139.268.247.438.323.174.077.37.115.588.115.271 0 .523-.052.756-.156.236-.108.439-.269.609-.485l.729.792c-.118.17-.279.333-.484.49a2.618 2.618 0 0 1-.729.385c-.285.097-.61.146-.974.146Zm4.453-4.573v4.469h-1.505v-5.636h1.411l.094 1.167Zm-.208 1.453h-.417c0-.392.047-.754.141-1.083.097-.334.238-.622.422-.865.187-.246.418-.437.692-.573.275-.135.592-.203.953-.203.25 0 .48.038.688.115.208.073.387.189.536.349.153.156.271.361.355.614.083.25.125.55.125.901v3.761h-1.5v-3.594c0-.257-.035-.455-.105-.594a.59.59 0 0 0-.297-.292 1.12 1.12 0 0 0-.453-.083c-.194 0-.364.04-.51.12-.142.08-.26.191-.354.333a1.502 1.502 0 0 0-.209.49 2.582 2.582 0 0 0-.067.604Zm3.354-.172-.537.068c0-.368.046-.71.136-1.026.094-.316.231-.594.411-.834.184-.239.412-.425.683-.557.27-.135.583-.203.937-.203.271 0 .517.04.74.12.222.076.411.199.567.37.16.166.282.385.365.656.087.271.13.602.13.995v3.599h-1.505v-3.599c0-.261-.035-.459-.104-.594a.55.55 0 0 0-.292-.287 1.106 1.106 0 0 0-.448-.083.999.999 0 0 0-.474.109.95.95 0 0 0-.338.292 1.318 1.318 0 0 0-.203.438 1.971 1.971 0 0 0-.068.536Zm5.964-2.448v5.636h-1.506v-5.636h1.506Zm-1.599-1.469c0-.218.076-.399.229-.541.153-.143.357-.214.614-.214.254 0 .457.071.61.214a.7.7 0 0 1 .234.541c0 .219-.078.4-.234.542-.153.142-.356.214-.61.214-.257 0-.461-.072-.614-.214a.707.707 0 0 1-.229-.542Zm4.094 2.672v4.433h-1.5v-5.636h1.406l.094 1.203Zm-.219 1.417h-.406c0-.417.053-.792.161-1.125.108-.337.259-.623.453-.859.195-.24.426-.422.693-.547.271-.129.573-.193.906-.193.264 0 .505.038.724.115.219.076.406.198.563.364.159.167.281.387.364.662.087.274.13.609.13 1.005v3.594h-1.51v-3.599c0-.25-.035-.445-.104-.584a.584.584 0 0 0-.307-.291 1.202 1.202 0 0 0-.49-.089c-.201 0-.377.04-.526.12-.146.08-.267.191-.365.333a1.574 1.574 0 0 0-.213.49 2.38 2.38 0 0 0-.073.604Zm7.844 1.786v-6.77h1.51v8h-1.359l-.151-1.23Zm-3.563-1.52v-.11c0-.43.049-.821.146-1.172.097-.354.24-.658.427-.911a1.95 1.95 0 0 1 .693-.589c.274-.139.587-.208.937-.208.33 0 .619.069.865.208.25.139.462.337.635.594.178.254.32.554.428.901.107.344.185.721.234 1.13v.24a6.123 6.123 0 0 1-.234 1.094c-.108.336-.25.632-.428.885-.173.25-.385.445-.635.583-.25.139-.542.209-.875.209-.351 0-.663-.071-.937-.214a1.99 1.99 0 0 1-.688-.599 2.868 2.868 0 0 1-.422-.906 4.208 4.208 0 0 1-.146-1.135Zm1.5-.11v.11c0 .232.018.449.052.651.039.201.099.38.183.536.087.153.198.273.333.359a.958.958 0 0 0 .505.125c.257 0 .469-.057.636-.171.166-.118.293-.28.38-.485.09-.205.142-.441.156-.708v-.682a2.445 2.445 0 0 0-.094-.589 1.274 1.274 0 0 0-.218-.453.97.97 0 0 0-.355-.292 1.094 1.094 0 0 0-.494-.104.89.89 0 0 0-.5.136.985.985 0 0 0-.339.359 1.896 1.896 0 0 0-.187.542 3.56 3.56 0 0 0-.058.666Zm7.782-4.724h1.323l1.948 5.568 1.948-5.568h1.323l-2.74 7.584h-1.062l-2.74-7.584Zm-.714 0h1.318l.24 5.427v2.157h-1.558v-7.584Zm6.652 0h1.322v7.584h-1.562v-2.157l.24-5.427Zm4.979 7.688c-.438 0-.83-.07-1.177-.209a2.582 2.582 0 0 1-.886-.588 2.632 2.632 0 0 1-.552-.87 2.934 2.934 0 0 1-.192-1.062v-.209c0-.427.06-.817.182-1.172.121-.354.295-.661.521-.921.229-.261.507-.461.833-.599a2.725 2.725 0 0 1 1.104-.214c.4 0 .754.066 1.063.198.309.132.567.319.776.562.212.243.371.535.479.875.108.337.161.712.161 1.125v.625h-4.479v-1h3.005v-.114c0-.208-.038-.394-.114-.557a.884.884 0 0 0-.333-.396c-.15-.098-.341-.146-.573-.146a.963.963 0 0 0-.511.13 1.013 1.013 0 0 0-.349.365c-.087.156-.153.34-.198.552a3.558 3.558 0 0 0-.062.687v.209c0 .225.031.434.094.625.066.191.158.355.276.494.121.139.267.247.437.323.174.077.37.115.589.115.27 0 .522-.052.755-.156.236-.108.439-.269.609-.485l.729.792c-.118.17-.279.333-.484.49a2.59 2.59 0 0 1-.729.385c-.285.097-.61.146-.974.146Zm10.365-1.323v1.219h-3.818v-1.219h3.818Zm-3.313-6.365v7.584h-1.562v-7.584h1.562Zm6.943 6.313v-2.511c0-.18-.029-.335-.088-.463a.654.654 0 0 0-.276-.307.914.914 0 0 0-.474-.11.984.984 0 0 0-.433.089.627.627 0 0 0-.281.244.68.68 0 0 0-.099.37h-1.5c0-.239.056-.467.167-.682a1.71 1.71 0 0 1 .484-.568c.212-.166.464-.297.756-.39a3.25 3.25 0 0 1 .989-.141c.438 0 .826.073 1.167.219.34.146.607.364.802.656.198.292.297.656.297 1.094v2.411c0 .309.019.563.057.761.038.194.094.364.167.51v.089h-1.516a2.199 2.199 0 0 1-.167-.573 4.833 4.833 0 0 1-.052-.698Zm.198-2.162.011.849h-.839c-.198 0-.37.023-.516.068a.955.955 0 0 0-.359.193.737.737 0 0 0-.208.281.969.969 0 0 0-.063.354.63.63 0 0 0 .344.589.87.87 0 0 0 .391.083c.225 0 .422-.045.588-.135.167-.091.295-.202.386-.334a.693.693 0 0 0 .145-.375l.396.636a2.528 2.528 0 0 1-.588.875 1.857 1.857 0 0 1-.526.328 1.937 1.937 0 0 1-.729.125 2.18 2.18 0 0 1-.974-.214 1.768 1.768 0 0 1-.688-.599 1.568 1.568 0 0 1-.25-.875c0-.295.056-.557.167-.786.111-.229.274-.422.489-.578.219-.16.492-.28.818-.36a4.63 4.63 0 0 1 1.135-.125h.87Zm5.016-2.203v1.063h-3.281v-1.063h3.281Zm-2.469-1.39h1.5v5.328c0 .163.021.288.063.375a.378.378 0 0 0 .198.182.986.986 0 0 0 .328.047c.094 0 .177-.004.25-.011.076-.01.14-.02.193-.031l.005 1.104a3.006 3.006 0 0 1-.912.136c-.33 0-.618-.054-.864-.162a1.192 1.192 0 0 1-.563-.531c-.132-.243-.198-.562-.198-.958v-5.479Zm5.704 7.13c-.438 0-.83-.07-1.177-.209a2.573 2.573 0 0 1-.886-.588 2.632 2.632 0 0 1-.552-.87 2.935 2.935 0 0 1-.193-1.062v-.209c0-.427.061-.817.183-1.172a2.75 2.75 0 0 1 .52-.921c.23-.261.507-.461.834-.599a2.721 2.721 0 0 1 1.104-.214c.399 0 .753.066 1.062.198.31.132.568.319.777.562.211.243.371.535.479.875.107.337.161.712.161 1.125v.625h-4.479v-1h3.005v-.114c0-.208-.038-.394-.114-.557a.88.88 0 0 0-.334-.396c-.149-.098-.34-.146-.573-.146a.957.957 0 0 0-.51.13 1.005 1.005 0 0 0-.349.365c-.087.156-.153.34-.198.552a3.48 3.48 0 0 0-.062.687v.209c0 .225.031.434.093.625.066.191.158.355.276.494.122.139.268.247.438.323.173.077.37.115.588.115.271 0 .523-.052.756-.156.236-.108.439-.269.609-.485l.729.792c-.118.17-.279.333-.484.49a2.618 2.618 0 0 1-.729.385c-.285.097-.61.146-.974.146Zm4.453-4.511v4.407h-1.5v-5.636h1.411l.089 1.229Zm1.698-1.265-.026 1.39a3.94 3.94 0 0 0-.266-.026 2.79 2.79 0 0 0-.276-.015c-.212 0-.396.027-.552.083a.98.98 0 0 0-.385.234 1.022 1.022 0 0 0-.229.381 1.85 1.85 0 0 0-.084.51l-.302-.094c0-.364.037-.699.109-1.005.073-.309.179-.578.318-.807.143-.229.316-.406.521-.531.205-.125.439-.188.703-.188.083 0 .169.007.255.021.087.01.158.026.214.047ZM391.532 204.4h-1.583l.01-.818h1.573c.542 0 .993-.113 1.354-.338.362-.23.632-.549.813-.959.184-.413.276-.896.276-1.448v-.463c0-.434-.052-.82-.156-1.156a2.33 2.33 0 0 0-.459-.86 1.931 1.931 0 0 0-.739-.536 2.534 2.534 0 0 0-.995-.183h-1.708v-.822h1.708c.497 0 .95.083 1.359.25.41.163.763.401 1.058.713.298.309.527.684.687 1.125.16.438.24.931.24 1.479v.453c0 .549-.08 1.044-.24 1.485-.16.437-.39.811-.693 1.12a3.017 3.017 0 0 1-1.083.713c-.42.163-.894.245-1.422.245Zm-1.047-7.583v7.583h-1.005v-7.583h1.005Zm6.813 2.833v4.75h-.964v-5.636h.938l.026.886Zm1.76-.917-.005.896a1.378 1.378 0 0 0-.229-.031 2.41 2.41 0 0 0-.24-.011c-.222 0-.418.035-.588.105-.17.069-.314.166-.432.291a1.405 1.405 0 0 0-.282.448 2.16 2.16 0 0 0-.13.563l-.271.156c0-.34.033-.66.099-.958.07-.299.176-.563.318-.792.142-.233.323-.413.542-.542a1.52 1.52 0 0 1 1.031-.172.72.72 0 0 1 .187.047Zm4.006 4.703v-2.901c0-.222-.046-.415-.136-.578a.89.89 0 0 0-.396-.385 1.425 1.425 0 0 0-.656-.136c-.243 0-.457.042-.641.125-.18.084-.323.193-.427.328a.727.727 0 0 0-.151.438h-.963c0-.201.052-.401.156-.599.104-.198.253-.377.448-.536.198-.164.434-.292.708-.386a2.8 2.8 0 0 1 .927-.146c.41 0 .771.07 1.084.209.316.139.562.349.739.63.181.278.271.627.271 1.047v2.625c0 .187.016.387.047.599.035.211.085.394.151.547v.083h-1.005a1.792 1.792 0 0 1-.115-.443 3.528 3.528 0 0 1-.041-.521Zm.166-2.453.011.677h-.974c-.275 0-.519.023-.735.068a1.674 1.674 0 0 0-.541.193.922.922 0 0 0-.334.328.87.87 0 0 0-.114.453c0 .177.04.339.119.484.08.146.2.263.36.349.163.084.363.125.599.125a1.622 1.622 0 0 0 1.318-.646c.135-.18.208-.355.218-.526l.412.464a1.423 1.423 0 0 1-.198.484 2.34 2.34 0 0 1-1.068.912 2.072 2.072 0 0 1-.823.156c-.382 0-.717-.075-1.005-.224a1.717 1.717 0 0 1-.667-.599 1.585 1.585 0 0 1-.234-.849c0-.302.059-.568.177-.797.118-.232.288-.425.51-.578a2.44 2.44 0 0 1 .803-.354c.312-.08.661-.12 1.046-.12h1.12Zm5.964-2.219h.875v5.516c0 .497-.101.92-.302 1.271a1.973 1.973 0 0 1-.844.797c-.358.184-.771.276-1.24.276-.194 0-.423-.031-.687-.094a2.754 2.754 0 0 1-.771-.307 1.93 1.93 0 0 1-.63-.578l.505-.573c.236.284.483.482.74.594.26.111.517.166.77.166.306 0 .57-.057.792-.172.222-.114.394-.284.516-.51.125-.222.187-.497.187-.823v-4.323l.089-1.24Zm-3.88 2.881v-.11c0-.43.05-.821.151-1.172.104-.354.251-.658.442-.911a1.994 1.994 0 0 1 1.63-.792c.355 0 .664.063.928.188.267.121.493.3.677.536.187.233.335.514.442.844.108.33.183.703.224 1.12v.479a4.91 4.91 0 0 1-.224 1.115 2.624 2.624 0 0 1-.442.843c-.184.233-.41.412-.677.537-.268.121-.58.182-.938.182-.337 0-.642-.071-.917-.213a2.108 2.108 0 0 1-.698-.599 2.838 2.838 0 0 1-.447-.907 4.103 4.103 0 0 1-.151-1.14Zm.963-.11v.11c0 .281.028.545.083.791.059.247.148.464.266.651.122.188.276.335.464.443.187.104.411.156.671.156.32 0 .584-.067.792-.203.208-.135.373-.314.495-.536.125-.222.222-.464.292-.724v-1.255a2.597 2.597 0 0 0-.178-.552 1.69 1.69 0 0 0-.302-.48 1.296 1.296 0 0 0-.453-.338 1.49 1.49 0 0 0-.635-.125c-.264 0-.491.055-.682.166a1.333 1.333 0 0 0-.464.448 2.16 2.16 0 0 0-.266.657c-.055.246-.083.51-.083.791Zm10.26-2.771v.74h-3.046v-.74h3.046Zm-2.015-1.369h.963v5.609c0 .191.03.335.089.432a.418.418 0 0 0 .229.193.96.96 0 0 0 .302.047c.08 0 .163-.007.25-.021a4.3 4.3 0 0 0 .203-.042l.006.787a2.365 2.365 0 0 1-.303.068 2.318 2.318 0 0 1-.442.036c-.236 0-.453-.047-.651-.141a1.045 1.045 0 0 1-.474-.468c-.115-.223-.172-.521-.172-.896v-5.604Zm2.786 4.25v-.12c0-.406.059-.783.177-1.13a2.69 2.69 0 0 1 .511-.912c.222-.26.491-.462.807-.604.316-.146.67-.219 1.063-.219.395 0 .751.073 1.067.219.32.142.591.344.813.604.226.257.397.561.515.912.118.347.178.724.178 1.13v.12c0 .406-.06.783-.178 1.13a2.693 2.693 0 0 1-.515.911 2.372 2.372 0 0 1-.807.605 2.545 2.545 0 0 1-1.063.213c-.396 0-.752-.071-1.068-.213a2.42 2.42 0 0 1-.812-.605 2.753 2.753 0 0 1-.511-.911 3.49 3.49 0 0 1-.177-1.13Zm.964-.12v.12c0 .281.033.547.099.797.066.246.165.465.297.656a1.5 1.5 0 0 0 .505.453c.201.108.436.161.703.161.264 0 .495-.053.693-.161.201-.111.368-.262.5-.453s.231-.41.297-.656c.069-.25.104-.516.104-.797v-.12c0-.278-.035-.54-.104-.787a2.032 2.032 0 0 0-.302-.661 1.442 1.442 0 0 0-.5-.458 1.405 1.405 0 0 0-.698-.167c-.264 0-.497.056-.698.167a1.496 1.496 0 0 0-.5.458 2.089 2.089 0 0 0-.297.661 3.036 3.036 0 0 0-.099.787Zm9.068-5.125v8h-.969v-8h.969Zm1.291 5.245v-.12c0-.406.059-.783.177-1.13a2.69 2.69 0 0 1 .511-.912c.222-.26.491-.462.807-.604.316-.146.67-.219 1.063-.219.395 0 .751.073 1.067.219.32.142.591.344.813.604.225.257.397.561.515.912.118.347.177.724.177 1.13v.12c0 .406-.059.783-.177 1.13a2.71 2.71 0 0 1-.515.911 2.366 2.366 0 0 1-.808.605 2.537 2.537 0 0 1-1.062.213c-.396 0-.752-.071-1.068-.213a2.41 2.41 0 0 1-.812-.605 2.753 2.753 0 0 1-.511-.911 3.49 3.49 0 0 1-.177-1.13Zm.964-.12v.12c0 .281.033.547.099.797.066.246.165.465.297.656.135.191.303.342.505.453.201.108.436.161.703.161.264 0 .495-.053.693-.161.201-.111.368-.262.5-.453s.231-.41.297-.656c.069-.25.104-.516.104-.797v-.12c0-.278-.035-.54-.104-.787a2.013 2.013 0 0 0-.303-.661 1.399 1.399 0 0 0-1.197-.625c-.264 0-.497.056-.698.167a1.496 1.496 0 0 0-.5.458 2.089 2.089 0 0 0-.297.661 3.036 3.036 0 0 0-.099.787Zm9.026-2.761h.875v5.516c0 .497-.101.92-.302 1.271a1.973 1.973 0 0 1-.844.797c-.358.184-.771.276-1.24.276-.194 0-.423-.031-.687-.094a2.766 2.766 0 0 1-.771-.307 1.93 1.93 0 0 1-.63-.578l.505-.573c.236.284.483.482.74.594.26.111.517.166.77.166.306 0 .57-.057.792-.172.222-.114.394-.284.516-.51.125-.222.187-.497.187-.823v-4.323l.089-1.24Zm-3.88 2.881v-.11c0-.43.05-.821.151-1.172.104-.354.251-.658.442-.911a1.994 1.994 0 0 1 1.631-.792c.354 0 .663.063.927.188.267.121.493.3.677.536.187.233.335.514.442.844.108.33.183.703.224 1.12v.479a4.857 4.857 0 0 1-.224 1.115 2.624 2.624 0 0 1-.442.843c-.184.233-.41.412-.677.537-.268.121-.58.182-.938.182-.337 0-.642-.071-.917-.213a2.095 2.095 0 0 1-.697-.599 2.819 2.819 0 0 1-.448-.907 4.103 4.103 0 0 1-.151-1.14Zm.963-.11v.11c0 .281.028.545.083.791.06.247.148.464.266.651.122.188.276.335.464.443.187.104.411.156.672.156.319 0 .583-.067.791-.203.209-.135.373-.314.495-.536.125-.222.222-.464.292-.724v-1.255a2.652 2.652 0 0 0-.177-.552 1.716 1.716 0 0 0-.303-.48 1.296 1.296 0 0 0-.453-.338 1.49 1.49 0 0 0-.635-.125c-.264 0-.491.055-.682.166a1.333 1.333 0 0 0-.464.448 2.185 2.185 0 0 0-.266.657c-.055.246-.083.51-.083.791Zm9.485 2.282 1.567-5.053h1.031l-2.26 6.506a3.546 3.546 0 0 1-.208.448 2.172 2.172 0 0 1-.323.463 1.536 1.536 0 0 1-.479.354 1.44 1.44 0 0 1-.662.141c-.076 0-.173-.01-.291-.031a3.138 3.138 0 0 1-.25-.052l-.006-.782c.028.004.071.007.131.011a1.554 1.554 0 0 0 .687-.078.84.84 0 0 0 .385-.287c.108-.132.2-.314.276-.547l.402-1.093Zm-1.152-5.053 1.464 4.375.25 1.016-.693.354-2.073-5.745h1.052Zm4.282 2.881v-.12c0-.406.059-.783.177-1.13.118-.351.288-.655.51-.912.222-.26.492-.462.808-.604a2.5 2.5 0 0 1 1.062-.219c.396 0 .752.073 1.068.219.319.142.59.344.812.604.226.257.398.561.516.912.118.347.177.724.177 1.13v.12c0 .406-.059.783-.177 1.13-.118.347-.29.651-.516.911a2.362 2.362 0 0 1-.807.605 2.545 2.545 0 0 1-1.063.213c-.395 0-.751-.071-1.067-.213a2.424 2.424 0 0 1-.813-.605 2.751 2.751 0 0 1-.51-.911 3.49 3.49 0 0 1-.177-1.13Zm.963-.12v.12c0 .281.033.547.099.797.066.246.165.465.297.656.136.191.304.342.505.453.202.108.436.161.703.161.264 0 .495-.053.693-.161.202-.111.368-.262.5-.453s.231-.41.297-.656c.069-.25.104-.516.104-.797v-.12c0-.278-.035-.54-.104-.787a2.032 2.032 0 0 0-.302-.661 1.442 1.442 0 0 0-.5-.458 1.405 1.405 0 0 0-.698-.167c-.264 0-.497.056-.698.167a1.506 1.506 0 0 0-.5.458 2.089 2.089 0 0 0-.297.661 3.036 3.036 0 0 0-.099.787Zm8.823 1.573v-4.334h.969v5.636h-.922l-.047-1.302Zm.182-1.188.402-.01c0 .375-.04.722-.12 1.042-.077.316-.202.59-.375.822a1.77 1.77 0 0 1-.683.547c-.281.129-.623.193-1.026.193-.274 0-.526-.04-.755-.12a1.502 1.502 0 0 1-.583-.37 1.672 1.672 0 0 1-.38-.651 3.127 3.127 0 0 1-.131-.963v-3.636h.964v3.646c0 .254.028.464.083.631.059.163.137.293.235.39.1.094.211.16.333.198.125.038.253.057.385.057.41 0 .735-.078.974-.234.24-.16.412-.373.516-.641.108-.27.161-.571.161-.901Zm3.219-2.26v4.75h-.963v-5.636h.937l.026.886Zm1.761-.917-.006.896a1.364 1.364 0 0 0-.229-.031 2.39 2.39 0 0 0-.239-.011c-.223 0-.419.035-.589.105-.17.069-.314.166-.432.291a1.403 1.403 0 0 0-.281.448 2.16 2.16 0 0 0-.131.563l-.27.156c0-.34.033-.66.099-.958.069-.299.175-.563.317-.792.143-.233.323-.413.542-.542a1.522 1.522 0 0 1 1.031-.172c.09.014.153.03.188.047Zm7.088 4.573V196.4h.969v8h-.885l-.084-1.094Zm-3.791-1.661v-.11c0-.43.052-.821.156-1.172.107-.354.258-.658.453-.911a1.999 1.999 0 0 1 1.62-.792c.354 0 .663.063.927.188.267.121.493.3.677.536.187.233.335.514.443.844.107.33.182.703.224 1.12v.479a4.966 4.966 0 0 1-.224 1.115 2.645 2.645 0 0 1-.443.843c-.184.233-.41.412-.677.537-.268.121-.58.182-.938.182a1.94 1.94 0 0 1-.906-.213 2.145 2.145 0 0 1-.703-.599 2.89 2.89 0 0 1-.453-.907 3.992 3.992 0 0 1-.156-1.14Zm.968-.11v.11c0 .281.028.545.084.791.059.247.149.464.27.651.122.188.276.335.464.443.187.104.411.156.672.156.319 0 .581-.067.786-.203.209-.135.375-.314.5-.536.125-.222.223-.464.292-.724v-1.255a2.79 2.79 0 0 0-.182-.552 1.713 1.713 0 0 0-.302-.48 1.309 1.309 0 0 0-.454-.338 1.457 1.457 0 0 0-.63-.125c-.264 0-.491.055-.682.166a1.333 1.333 0 0 0-.464.448 2.091 2.091 0 0 0-.27.657 3.56 3.56 0 0 0-.084.791Zm5.037.11v-.12c0-.406.059-.783.177-1.13.118-.351.288-.655.51-.912.222-.26.492-.462.808-.604a2.5 2.5 0 0 1 1.062-.219c.396 0 .752.073 1.068.219.319.142.59.344.812.604.226.257.398.561.516.912.118.347.177.724.177 1.13v.12c0 .406-.059.783-.177 1.13-.118.347-.29.651-.516.911a2.362 2.362 0 0 1-.807.605 2.545 2.545 0 0 1-1.063.213c-.395 0-.751-.071-1.067-.213a2.424 2.424 0 0 1-.813-.605 2.751 2.751 0 0 1-.51-.911 3.49 3.49 0 0 1-.177-1.13Zm.963-.12v.12c0 .281.033.547.099.797.066.246.165.465.297.656.136.191.304.342.505.453.202.108.436.161.703.161.264 0 .495-.053.693-.161.202-.111.368-.262.5-.453s.231-.41.297-.656c.069-.25.104-.516.104-.797v-.12c0-.278-.035-.54-.104-.787a2.032 2.032 0 0 0-.302-.661 1.442 1.442 0 0 0-.5-.458 1.405 1.405 0 0 0-.698-.167c-.264 0-.497.056-.698.167a1.506 1.506 0 0 0-.5.458 2.089 2.089 0 0 0-.297.661 3.036 3.036 0 0 0-.099.787Zm8.657 1.38a.815.815 0 0 0-.094-.385c-.059-.122-.183-.231-.37-.328-.184-.101-.462-.188-.833-.261a6.61 6.61 0 0 1-.849-.234c-.25-.091-.464-.2-.641-.328a1.386 1.386 0 0 1-.401-.453 1.263 1.263 0 0 1-.141-.61c0-.222.049-.432.146-.63.101-.198.242-.373.422-.526.184-.153.405-.273.662-.359.257-.087.543-.131.859-.131.451 0 .837.08 1.156.24.32.16.564.373.735.641.17.263.255.557.255.88h-.964a.828.828 0 0 0-.14-.453 1.037 1.037 0 0 0-.401-.37 1.3 1.3 0 0 0-.641-.146c-.267 0-.484.042-.651.125a.834.834 0 0 0-.359.307.774.774 0 0 0-.058.677c.038.08.104.155.198.224.094.066.226.129.396.188s.387.118.651.177c.462.104.842.229 1.141.375.298.146.52.325.666.536.146.212.219.469.219.771a1.507 1.507 0 0 1-.599 1.209c-.191.145-.42.26-.687.343-.264.08-.561.12-.891.12-.497 0-.917-.088-1.26-.266a1.95 1.95 0 0 1-.782-.687 1.644 1.644 0 0 1-.265-.891h.968c.014.264.091.474.23.631.138.152.309.262.51.328.201.062.401.093.599.093.264 0 .484-.034.661-.104a.922.922 0 0 0 .412-.286.665.665 0 0 0 .141-.417Zm4.567 1.599c-.392 0-.748-.066-1.067-.198a2.416 2.416 0 0 1-.818-.568 2.528 2.528 0 0 1-.521-.864 3.16 3.16 0 0 1-.182-1.094v-.219c0-.458.067-.866.203-1.224.135-.361.319-.666.552-.916.233-.25.496-.44.792-.568.295-.128.6-.193.916-.193.403 0 .75.07 1.042.209.295.139.536.333.724.583.187.247.326.538.417.875.09.333.135.698.135 1.094v.432h-4.208v-.786h3.244v-.073a2.395 2.395 0 0 0-.156-.73 1.314 1.314 0 0 0-.417-.583c-.19-.153-.451-.229-.781-.229a1.307 1.307 0 0 0-1.078.547c-.132.18-.234.401-.307.661-.073.261-.11.561-.11.901v.219c0 .267.037.519.11.755.076.233.186.438.328.615.146.177.321.316.526.417.208.1.444.151.708.151.341 0 .629-.07.865-.209.236-.139.443-.324.62-.557l.583.464a2.708 2.708 0 0 1-.464.526 2.215 2.215 0 0 1-.692.406 2.687 2.687 0 0 1-.964.156Z"/><path fill="#333" fill-rule="evenodd" stroke="#333" stroke-width="1.067" d="m425.517 245.36 7.134-5.986 7.133-5.986c4.355-3.654 10.847-3.086 14.501 1.269 3.654 4.354 3.085 10.846-1.269 14.5l-7.134 5.986-7.133 5.986c-4.355 3.654-10.847 3.086-14.501-1.269-3.653-4.354-3.085-10.846 1.269-14.5Z" clip-rule="evenodd"/><path stroke="#fff" stroke-linecap="round" stroke-linejoin="round" stroke-width="1.067" d="m435.04 245.163 5.625 6.702"/><path fill="#A6A6A6" fill-opacity=".36" fill-rule="evenodd" stroke="#A6A6A6" stroke-opacity=".36" stroke-width="1.067" d="m425.517 350.426 7.134-5.986 7.133-5.985c4.355-3.654 10.847-3.086 14.501 1.268 3.654 4.355 3.085 10.847-1.269 14.501l-7.134 5.985-7.133 5.986c-4.355 3.654-10.847 3.086-14.501-1.268-3.653-4.355-3.085-10.847 1.269-14.501Z" clip-rule="evenodd"/><path stroke="#fff" stroke-linecap="round" stroke-linejoin="round" stroke-width="1.067" d="m435.04 350.229 5.625 6.703"/><path fill="#000" d="M438.89 310.511a.534.534 0 0 0 .754 0l3.394-3.395a.534.534 0 0 0-.754-.754l-3.017 3.017-3.017-3.017a.535.535 0 0 0-.755.754l3.395 3.395Zm.377-32.911h-.534v1.017h1.067V277.6h-.533Zm0 3.05h-.534v2.033h1.067v-2.033h-.533Zm0 4.067h-.534v2.033h1.067v-2.033h-.533Zm0 4.066h-.534v2.034h1.067v-2.034h-.533Zm0 4.067h-.534v2.033h1.067v-2.033h-.533Zm0 4.067h-.534v2.033h1.067v-2.033h-.533Zm0 4.066h-.534v2.034h1.067v-2.034h-.533Zm0 4.067h-.534v2.033h1.067v-2.033h-.533Zm0 4.067h-.534v1.016h1.067v-1.016h-.533Zm-.377 1.394a.534.534 0 0 0 .754 0l3.394-3.395a.534.534 0 0 0-.754-.754l-3.017 3.017-3.017-3.017a.535.535 0 0 0-.755.754l3.395 3.395Zm.377-32.911h-.534v1.017h1.067V277.6h-.533Zm0 3.05h-.534v2.033h1.067v-2.033h-.533Zm0 4.067h-.534v2.033h1.067v-2.033h-.533Zm0 4.066h-.534v2.034h1.067v-2.034h-.533Zm0 4.067h-.534v2.033h1.067v-2.033h-.533Zm0 4.067h-.534v2.033h1.067v-2.033h-.533Zm0 4.066h-.534v2.034h1.067v-2.034h-.533Zm0 4.067h-.534v2.033h1.067v-2.033h-.533Zm0 4.067h-.534v1.016h1.067v-1.016h-.533Z"/></g><g clip-path="url(#b)"><rect width="200" height="433.067" x="59" y="76" fill="#fff" rx="20"/><path stroke="#007AFF" stroke-linejoin="round" stroke-width="5.333" d="M159.267 292.533v-33.066"/><circle cx="159.267" cy="292.533" r="31.733" fill="#fff" stroke="#000" stroke-width="2.667"/><path fill="#333" fill-rule="evenodd" stroke="#333" stroke-width="1.067" d="m145.648 290.765 7.133-5.986 7.134-5.986c4.354-3.654 10.846-3.086 14.5 1.269 3.654 4.354 3.086 10.846-1.268 14.5l-7.134 5.986-7.134 5.986c-4.354 3.653-10.846 3.086-14.5-1.269-3.654-4.355-3.086-10.847 1.269-14.5Z" clip-rule="evenodd"/><path stroke="#fff" stroke-linecap="round" stroke-linejoin="round" stroke-width="1.067" d="m155.171 290.567 5.624 6.703"/><path fill="#000" d="M111.202 115.896v10.237h-1.927v-10.237h1.927Zm3.178 0v1.526h-8.248v-1.526h8.248Zm4.338 8.62v-3.508c0-.258-.045-.481-.134-.668a.965.965 0 0 0-.407-.436c-.183-.104-.415-.155-.697-.155-.248 0-.466.042-.653.126a.964.964 0 0 0-.422.359.923.923 0 0 0-.148.52h-1.863c0-.314.075-.611.225-.893.15-.286.363-.539.64-.759a3.137 3.137 0 0 1 1.005-.527c.394-.127.834-.19 1.322-.19.576 0 1.09.098 1.54.295.454.192.811.483 1.068.872.263.389.394.879.394 1.47v3.318c0 .38.024.706.071.978.051.267.126.499.225.696v.119h-1.892a2.81 2.81 0 0 1-.204-.731c-.047-.3-.07-.595-.07-.886Zm.26-3.016.014 1.104h-1.174c-.291 0-.546.03-.766.091a1.42 1.42 0 0 0-.542.253 1.019 1.019 0 0 0-.316.394c-.071.15-.106.321-.106.513 0 .188.042.356.127.506.089.15.215.27.379.359.169.084.366.127.591.127.328 0 .614-.066.858-.197.244-.136.434-.3.569-.492.136-.193.209-.375.218-.549l.535.802a3.112 3.112 0 0 1-.296.611c-.131.216-.3.418-.506.605a2.56 2.56 0 0 1-.745.464 2.602 2.602 0 0 1-1.013.183c-.492 0-.932-.099-1.321-.295a2.343 2.343 0 0 1-.922-.809 2.075 2.075 0 0 1-.337-1.167c0-.403.075-.76.225-1.069.15-.309.373-.569.668-.78a3.1 3.1 0 0 1 1.097-.486c.44-.112.944-.168 1.512-.168h1.251Zm5.14-6.174v10.807h-1.856v-10.807h1.856Zm4.767 3.199-3.312 3.72-1.793 1.821-.59-1.441 1.385-1.744 2.067-2.356h2.243Zm-1.898 7.608-2.356-3.543 1.238-1.203 3.269 4.746h-2.151Zm6.159.141a4.09 4.09 0 0 1-1.554-.281 3.416 3.416 0 0 1-1.174-.781 3.573 3.573 0 0 1-.738-1.174 4.086 4.086 0 0 1-.253-1.448v-.282c0-.586.084-1.118.253-1.596.168-.483.407-.897.717-1.244.309-.347.68-.614 1.111-.802a3.549 3.549 0 0 1 1.427-.281c.539 0 1.015.091 1.427.274a2.76 2.76 0 0 1 1.034.759c.277.329.485.722.626 1.182.14.454.211.958.211 1.511v.781h-5.963v-1.28h4.135v-.14a2.257 2.257 0 0 0-.169-.809 1.302 1.302 0 0 0-.478-.591c-.216-.15-.495-.225-.837-.225-.277 0-.518.061-.724.183a1.45 1.45 0 0 0-.506.506c-.132.216-.23.474-.296.774-.065.3-.098.633-.098.998v.282c0 .318.042.614.126.885.089.272.218.509.387.711.174.197.38.351.619.464.244.108.52.161.83.161.389 0 .74-.075 1.054-.225.319-.154.596-.382.83-.682l.935.971a3.108 3.108 0 0 1-.647.675 3.31 3.31 0 0 1-.97.527c-.38.131-.818.197-1.315.197Zm9.253-10.378 2.25 4.774 2.264-4.774h2.124l-3.403 6.49v3.747h-1.962v-3.747l-3.41-6.49h2.137Zm6.729 6.511v-.148c0-.558.08-1.071.239-1.54.16-.473.392-.883.696-1.23a3.139 3.139 0 0 1 1.118-.809c.441-.197.942-.295 1.505-.295.572 0 1.078.098 1.519.295.445.192.82.462 1.125.809.304.347.536.757.696 1.23.159.469.239.982.239 1.54v.148c0 .553-.08 1.066-.239 1.54-.16.468-.392.878-.696 1.23a3.151 3.151 0 0 1-1.118.809c-.441.192-.945.288-1.512.288a3.786 3.786 0 0 1-1.512-.288 3.134 3.134 0 0 1-1.125-.809 3.682 3.682 0 0 1-.696-1.23 4.812 4.812 0 0 1-.239-1.54Zm1.856-.148v.148c0 .333.033.644.099.935.065.291.166.546.302.766.136.221.312.394.527.521.221.121.483.182.788.182.3 0 .558-.061.773-.182.216-.127.392-.3.528-.521.14-.22.243-.475.309-.766.066-.291.099-.602.099-.935v-.148a4.09 4.09 0 0 0-.099-.921 2.404 2.404 0 0 0-.309-.766 1.479 1.479 0 0 0-1.315-.725c-.3 0-.558.066-.774.197a1.506 1.506 0 0 0-.527.528c-.136.22-.237.475-.302.766a4.09 4.09 0 0 0-.099.921Zm11.159 2.067v-5.801h1.87v7.608h-1.758l-.112-1.807Zm.239-1.575.577-.014c0 .511-.057.982-.169 1.413a3.178 3.178 0 0 1-.528 1.125 2.436 2.436 0 0 1-.893.739c-.36.173-.787.26-1.279.26a3.24 3.24 0 0 1-1.027-.155 2.092 2.092 0 0 1-.801-.499 2.342 2.342 0 0 1-.514-.879c-.121-.361-.182-.794-.182-1.301v-4.915h1.856v4.929c0 .254.028.464.084.633.061.169.143.307.246.415a.985.985 0 0 0 .373.225c.145.042.3.063.464.063.45 0 .804-.089 1.062-.267.262-.183.45-.426.562-.731.113-.309.169-.656.169-1.041Zm5.133-2.672v6.054h-1.856v-7.608h1.757l.099 1.554Zm2.313-1.603-.028 1.73a4.528 4.528 0 0 0-.71-.056c-.286 0-.537.04-.753.119a1.398 1.398 0 0 0-.541.331 1.448 1.448 0 0 0-.323.534 2.28 2.28 0 0 0-.127.703l-.401-.049c0-.483.049-.93.148-1.343.098-.412.241-.773.429-1.083.187-.309.422-.548.703-.717.286-.173.614-.26.984-.26.103 0 .214.009.331.028.122.014.218.035.288.063Zm12.031 6.139v1.518h-7.186v-1.518h7.186Zm-.134-7.587-6.258 9.105h-1.329v-1.16l6.286-9.077h1.301v1.132Zm-.689-1.132v1.526h-6.877v-1.526h6.877Zm1.631 6.511v-.148c0-.558.08-1.071.239-1.54.16-.473.392-.883.696-1.23a3.139 3.139 0 0 1 1.118-.809c.441-.197.942-.295 1.505-.295.572 0 1.078.098 1.519.295.445.192.82.462 1.125.809.304.347.536.757.696 1.23.159.469.239.982.239 1.54v.148c0 .553-.08 1.066-.239 1.54-.16.468-.392.878-.696 1.23a3.151 3.151 0 0 1-1.118.809c-.441.192-.945.288-1.512.288a3.789 3.789 0 0 1-1.512-.288 3.134 3.134 0 0 1-1.125-.809 3.682 3.682 0 0 1-.696-1.23 4.812 4.812 0 0 1-.239-1.54Zm1.856-.148v.148c0 .333.033.644.099.935.065.291.166.546.302.766.136.221.312.394.528.521.22.121.482.182.787.182.3 0 .558-.061.773-.182.216-.127.392-.3.528-.521.14-.22.244-.475.309-.766.066-.291.099-.602.099-.935v-.148a4.09 4.09 0 0 0-.099-.921 2.381 2.381 0 0 0-.309-.766 1.479 1.479 0 0 0-1.315-.725 1.459 1.459 0 0 0-1.301.725c-.136.22-.237.475-.302.766a4.09 4.09 0 0 0-.099.921Zm8.6-6.926v10.8h-1.864v-10.8h1.864Zm1.441 7.074v-.148c0-.558.08-1.071.239-1.54.159-.473.391-.883.696-1.23a3.139 3.139 0 0 1 1.118-.809c.441-.197.942-.295 1.505-.295.572 0 1.078.098 1.519.295.445.192.82.462 1.125.809.304.347.536.757.696 1.23.159.469.239.982.239 1.54v.148c0 .553-.08 1.066-.239 1.54-.16.468-.392.878-.696 1.23a3.151 3.151 0 0 1-1.118.809c-.441.192-.945.288-1.512.288a3.782 3.782 0 0 1-1.512-.288 3.134 3.134 0 0 1-1.125-.809 3.648 3.648 0 0 1-.696-1.23 4.812 4.812 0 0 1-.239-1.54Zm1.856-.148v.148c0 .333.033.644.099.935.065.291.166.546.302.766.136.221.312.394.527.521.221.121.483.182.788.182.3 0 .558-.061.773-.182.216-.127.392-.3.528-.521.14-.22.243-.475.309-.766.066-.291.098-.602.098-.935v-.148a4.09 4.09 0 0 0-.098-.921 2.404 2.404 0 0 0-.309-.766 1.479 1.479 0 0 0-1.315-.725c-.3 0-.558.066-.774.197a1.506 1.506 0 0 0-.527.528c-.136.22-.237.475-.302.766a4.09 4.09 0 0 0-.099.921Zm9.064 3.874h-1.871v-8.311c0-.572.11-1.052.331-1.441a2.14 2.14 0 0 1 .942-.893c.408-.202.888-.302 1.441-.302.183 0 .357.011.521.035.168.023.335.056.499.098l-.035 1.414a1.77 1.77 0 0 0-.296-.05 3.972 3.972 0 0 0-.344-.014c-.253 0-.469.045-.647.134a.92.92 0 0 0-.408.394 1.326 1.326 0 0 0-.133.625v8.311Zm1.539-7.608v1.336h-4.556v-1.336h4.556Zm4.746 0v1.336h-4.359v-1.336h4.359Zm-3.192-1.87h1.864v7.285c0 .225.03.398.091.52a.47.47 0 0 0 .274.246c.122.042.267.063.436.063.122 0 .235-.007.338-.021.103-.014.189-.028.26-.042l.007 1.392a3.47 3.47 0 0 1-.528.127c-.192.033-.41.049-.653.049-.418 0-.783-.07-1.097-.211a1.57 1.57 0 0 1-.732-.696c-.173-.324-.26-.75-.26-1.28v-7.432Zm-103.533 21.328v9.15h-1.157v-7.706l-2.331.85v-1.044l3.306-1.25h.182Zm9.406 8.325c.275 0 .529-.056.762-.168a1.57 1.57 0 0 0 .575-.463c.15-.2.236-.427.257-.681h1.1c-.021.4-.157.773-.407 1.119a2.775 2.775 0 0 1-2.287 1.143c-.508 0-.952-.089-1.331-.268a2.645 2.645 0 0 1-.938-.738 3.288 3.288 0 0 1-.556-1.075 4.531 4.531 0 0 1-.181-1.294v-.262c0-.454.06-.884.181-1.288.125-.408.31-.768.556-1.081.25-.312.563-.558.938-.737.379-.18.823-.269 1.331-.269.529 0 .992.108 1.387.325.396.212.707.504.932.875.229.366.354.783.375 1.25h-1.1a1.662 1.662 0 0 0-.238-.756 1.472 1.472 0 0 0-.55-.538 1.541 1.541 0 0 0-.806-.206c-.354 0-.652.071-.894.212a1.575 1.575 0 0 0-.569.563 2.654 2.654 0 0 0-.3.781 4.32 4.32 0 0 0-.087.869v.262c0 .296.029.588.087.875.059.288.157.548.294.782.142.233.331.42.569.562.242.138.542.206.9.206Zm7.981-.331v-3.481c0-.267-.054-.498-.162-.694a1.062 1.062 0 0 0-.475-.462c-.213-.109-.475-.163-.788-.163-.291 0-.548.05-.769.15-.216.1-.387.231-.512.394a.86.86 0 0 0-.181.525h-1.157c0-.242.063-.481.188-.719.125-.237.304-.452.537-.644a2.68 2.68 0 0 1 .85-.462 3.35 3.35 0 0 1 1.113-.175c.492 0 .925.083 1.3.25.379.166.675.419.887.756.217.333.325.752.325 1.256v3.15c0 .225.019.465.057.719.041.254.102.473.181.656v.1h-1.206a2.15 2.15 0 0 1-.138-.531 4.328 4.328 0 0 1-.05-.625Zm.2-2.944.013.813h-1.169c-.329 0-.623.027-.881.081-.259.05-.475.127-.65.231a1.04 1.04 0 0 0-.538.938c0 .212.048.406.144.581.096.175.24.315.431.419.196.1.436.15.719.15a1.9 1.9 0 0 0 .937-.225c.271-.15.486-.334.644-.55.163-.217.25-.427.263-.631l.493.556a1.672 1.672 0 0 1-.237.581 2.798 2.798 0 0 1-1.281 1.094 2.487 2.487 0 0 1-.988.187c-.458 0-.86-.089-1.206-.268a2.07 2.07 0 0 1-.8-.719 1.898 1.898 0 0 1-.281-1.019c0-.362.071-.681.212-.956.142-.279.346-.511.613-.694.266-.187.587-.329.962-.425a5.07 5.07 0 0 1 1.256-.144h1.344Zm3.931-1.362v8.062H125.4v-9.362h1.062l.1 1.3Zm4.557 2.025v.131c0 .492-.059.948-.175 1.369a3.373 3.373 0 0 1-.513 1.087 2.33 2.33 0 0 1-.819.719 2.363 2.363 0 0 1-1.118.256 2.87 2.87 0 0 1-1.138-.212 2.244 2.244 0 0 1-.837-.619 3.158 3.158 0 0 1-.55-.975 5.603 5.603 0 0 1-.275-1.281v-.7c.05-.5.143-.948.281-1.344a3.33 3.33 0 0 1 .544-1.012c.229-.284.506-.498.831-.644.325-.15.7-.225 1.125-.225.425 0 .802.083 1.131.25.329.162.606.396.831.7.225.304.394.669.507 1.094.116.42.175.889.175 1.406Zm-1.163.131v-.131a4.06 4.06 0 0 0-.106-.95 2.406 2.406 0 0 0-.331-.788 1.58 1.58 0 0 0-.563-.537 1.593 1.593 0 0 0-.819-.2c-.291 0-.545.05-.762.15-.213.1-.394.235-.544.406a2.16 2.16 0 0 0-.369.575c-.091.213-.16.433-.206.663v1.618c.084.292.2.567.35.825.15.254.35.461.6.619.25.154.565.231.944.231.312 0 .581-.064.806-.193.229-.134.417-.315.563-.544.15-.229.26-.492.331-.788.071-.3.106-.618.106-.956Zm6.575 1.513a.975.975 0 0 0-.112-.463c-.071-.146-.219-.277-.444-.394-.221-.121-.554-.225-1-.312a7.947 7.947 0 0 1-1.019-.281 3.13 3.13 0 0 1-.769-.394 1.663 1.663 0 0 1-.481-.544 1.52 1.52 0 0 1-.169-.731c0-.267.059-.519.175-.756.121-.238.29-.448.507-.632.221-.183.485-.327.793-.431a3.222 3.222 0 0 1 1.032-.156c.541 0 1.004.096 1.387.287.384.192.677.448.881.769.205.317.307.669.307 1.056h-1.157a.994.994 0 0 0-.168-.543 1.238 1.238 0 0 0-.482-.444c-.208-.117-.464-.175-.768-.175-.321 0-.582.05-.782.15a1.01 1.01 0 0 0-.431.369.932.932 0 0 0-.069.812.747.747 0 0 0 .238.269c.112.079.271.154.475.225.204.071.465.141.781.212.554.125 1.011.275 1.369.45.358.175.625.39.8.644.175.254.262.563.262.925 0 .296-.062.567-.187.813a1.81 1.81 0 0 1-.531.637 2.637 2.637 0 0 1-.825.413 3.718 3.718 0 0 1-1.069.143c-.596 0-1.1-.106-1.513-.318-.412-.213-.725-.488-.937-.825a1.972 1.972 0 0 1-.319-1.069h1.163c.016.316.108.569.275.756.166.183.371.315.612.394.242.075.481.112.719.112.317 0 .581-.041.794-.125.216-.083.381-.198.493-.343a.795.795 0 0 0 .169-.5Zm6.813.231v-5.2h1.162v6.762H143.4l-.056-1.562Zm.218-1.425.482-.013c0 .45-.048.867-.144 1.25a2.698 2.698 0 0 1-.45.988 2.121 2.121 0 0 1-.819.656c-.337.154-.748.231-1.231.231-.329 0-.631-.048-.906-.143a1.813 1.813 0 0 1-.7-.444 2.032 2.032 0 0 1-.457-.781c-.104-.321-.156-.707-.156-1.157v-4.362h1.156v4.375c0 .304.034.556.1.756.071.196.165.352.282.469.121.112.254.191.4.237.15.046.304.069.462.069.492 0 .881-.094 1.169-.281.287-.192.494-.448.619-.769.129-.325.193-.685.193-1.081Zm3.963-6.613v9.6h-1.163v-9.6h1.163Zm4.662 9.725c-.47 0-.897-.079-1.281-.237a2.921 2.921 0 0 1-.981-.681 3.036 3.036 0 0 1-.625-1.038 3.798 3.798 0 0 1-.219-1.312v-.263c0-.55.081-1.04.244-1.469.162-.433.383-.8.662-1.1.28-.3.596-.527.95-.681a2.735 2.735 0 0 1 1.1-.231c.484 0 .9.083 1.25.25.355.166.644.4.869.7.225.296.392.646.5 1.05.109.4.163.837.163 1.312v.519h-5.05v-.944h3.893v-.087a2.871 2.871 0 0 0-.187-.875 1.568 1.568 0 0 0-.5-.7c-.229-.184-.542-.275-.938-.275a1.57 1.57 0 0 0-1.293.656 2.43 2.43 0 0 0-.369.794 4.001 4.001 0 0 0-.131 1.081v.263c0 .32.043.622.131.906.092.279.223.525.394.737.175.213.385.379.631.5.25.121.533.182.85.182.408 0 .754-.084 1.037-.25.284-.167.532-.39.744-.669l.7.556a3.233 3.233 0 0 1-.556.631c-.225.2-.502.363-.831.488-.325.125-.711.187-1.157.187Zm8.869-1.325 1.738-5.562h.762l-.15 1.106-1.769 5.656h-.743l.162-1.2Zm-1.169-5.562 1.482 5.625.106 1.137h-.781l-1.963-6.762h1.156Zm5.332 5.581 1.412-5.581h1.15l-1.962 6.762h-.775l.175-1.181Zm-1.494-5.581 1.7 5.469.194 1.293h-.738l-1.819-5.668-.15-1.094h.813Zm6.5 0v6.762h-1.163v-6.762h1.163Zm-1.25-1.794c0-.187.056-.346.169-.475.116-.129.287-.194.512-.194.221 0 .39.065.506.194a.67.67 0 0 1 .182.475.656.656 0 0 1-.182.463c-.116.125-.285.187-.506.187-.225 0-.396-.062-.512-.187a.682.682 0 0 1-.169-.463Zm5.937 1.794v.887h-3.656v-.887h3.656Zm-2.418-1.644h1.156v6.731c0 .229.035.402.106.519a.506.506 0 0 0 .275.231c.113.038.234.057.363.057.096 0 .196-.009.3-.025a9.65 9.65 0 0 0 .243-.05l.007.943a2.736 2.736 0 0 1-.363.082 2.777 2.777 0 0 1-.531.043c-.283 0-.544-.056-.781-.168a1.258 1.258 0 0 1-.569-.563c-.138-.267-.206-.625-.206-1.075v-6.725Zm4.931-1.194v9.6h-1.156v-9.6h1.156Zm-.275 5.963-.481-.019a4.07 4.07 0 0 1 .206-1.281c.133-.396.321-.74.562-1.031a2.506 2.506 0 0 1 1.982-.919c.333 0 .633.046.9.137.266.088.493.229.681.425.192.196.337.45.437.763.1.308.15.685.15 1.131v4.431h-1.162v-4.443c0-.355-.052-.638-.156-.85a.961.961 0 0 0-.457-.469c-.2-.1-.445-.15-.737-.15-.288 0-.55.06-.788.181a1.897 1.897 0 0 0-.606.5 2.541 2.541 0 0 0-.531 1.594Zm11.056 2.437 1.738-5.562h.762l-.15 1.106-1.769 5.656h-.743l.162-1.2Zm-1.169-5.562 1.482 5.625.106 1.137h-.781l-1.963-6.762h1.156Zm5.332 5.581 1.412-5.581h1.15l-1.962 6.762h-.775l.175-1.181Zm-1.494-5.581 1.7 5.469.194 1.293h-.738l-1.819-5.668-.15-1.094h.813Zm9.231 5.606v-3.481c0-.267-.054-.498-.162-.694a1.062 1.062 0 0 0-.475-.462c-.213-.109-.475-.163-.788-.163-.291 0-.548.05-.769.15-.216.1-.387.231-.512.394a.86.86 0 0 0-.181.525h-1.157c0-.242.063-.481.188-.719.125-.237.304-.452.537-.644a2.68 2.68 0 0 1 .85-.462 3.35 3.35 0 0 1 1.113-.175c.492 0 .925.083 1.3.25.379.166.675.419.887.756.217.333.325.752.325 1.256v3.15c0 .225.019.465.057.719.041.254.102.473.181.656v.1h-1.206a2.15 2.15 0 0 1-.138-.531 4.328 4.328 0 0 1-.05-.625Zm.2-2.944.013.813h-1.169c-.329 0-.623.027-.881.081-.259.05-.475.127-.65.231a1.04 1.04 0 0 0-.538.938c0 .212.048.406.144.581.096.175.24.315.431.419.196.1.436.15.719.15a1.9 1.9 0 0 0 .937-.225c.271-.15.486-.334.644-.55.163-.217.25-.427.263-.631l.493.556a1.672 1.672 0 0 1-.237.581 2.798 2.798 0 0 1-1.281 1.094 2.487 2.487 0 0 1-.988.187c-.458 0-.86-.089-1.206-.268a2.07 2.07 0 0 1-.8-.719 1.898 1.898 0 0 1-.281-1.019c0-.362.071-.681.212-.956.142-.279.346-.511.613-.694.266-.187.587-.329.962-.425a5.07 5.07 0 0 1 1.256-.144h1.344Zm5.606-2.662v.887h-3.656v-.887h3.656Zm-2.418-1.644h1.156v6.731c0 .229.035.402.106.519a.506.506 0 0 0 .275.231c.113.038.234.057.363.057.096 0 .196-.009.3-.025a9.65 9.65 0 0 0 .243-.05l.007.943a2.736 2.736 0 0 1-.363.082 2.777 2.777 0 0 1-.531.043c-.283 0-.544-.056-.781-.168a1.258 1.258 0 0 1-.569-.563c-.138-.267-.206-.625-.206-1.075v-6.725Zm6.581 8.531a3.33 3.33 0 0 1-1.281-.237 2.925 2.925 0 0 1-.982-.681 3.051 3.051 0 0 1-.625-1.038 3.822 3.822 0 0 1-.218-1.312v-.263c0-.55.081-1.04.243-1.469.163-.433.384-.8.663-1.1.279-.3.596-.527.95-.681a2.731 2.731 0 0 1 1.1-.231c.483 0 .9.083 1.25.25.354.166.644.4.869.7.225.296.391.646.5 1.05.108.4.162.837.162 1.312v.519h-5.05v-.944h3.894v-.087a2.872 2.872 0 0 0-.188-.875 1.56 1.56 0 0 0-.5-.7c-.229-.184-.541-.275-.937-.275a1.567 1.567 0 0 0-1.294.656 2.472 2.472 0 0 0-.369.794 4.041 4.041 0 0 0-.131 1.081v.263c0 .32.044.622.131.906.092.279.223.525.394.737.175.213.386.379.631.5.25.121.534.182.85.182.409 0 .755-.084 1.038-.25.283-.167.531-.39.744-.669l.7.556a3.24 3.24 0 0 1-.557.631c-.225.2-.502.363-.831.488-.325.125-.71.187-1.156.187Zm5.137-5.825v5.7h-1.156v-6.762h1.125l.031 1.062Zm2.113-1.1-.006 1.075a1.642 1.642 0 0 0-.275-.037 2.729 2.729 0 0 0-.288-.013c-.266 0-.502.042-.706.125-.204.084-.377.2-.519.35-.141.15-.254.329-.337.538a2.587 2.587 0 0 0-.157.675l-.325.187c0-.408.04-.791.119-1.15.084-.358.211-.675.381-.95.171-.279.388-.496.65-.65a1.833 1.833 0 0 1 1.238-.206.87.87 0 0 1 .225.056Zm-134.092 92.81v.818H79.13v-.818h4.104Zm-3.948-3.26v7.583H78.28v-7.583h1.005Zm4.823 0v7.583h-1v-7.583h1Zm1.386 4.828v-.12c0-.406.059-.783.177-1.13a2.68 2.68 0 0 1 .51-.911 2.28 2.28 0 0 1 .808-.605c.316-.145.67-.218 1.062-.218.396 0 .752.073 1.068.218.32.143.59.344.812.605.226.257.398.56.516.911.118.347.177.724.177 1.13v.12c0 .406-.059.783-.177 1.13a2.7 2.7 0 0 1-.516.912 2.363 2.363 0 0 1-.807.604 2.541 2.541 0 0 1-1.063.213c-.395 0-.751-.071-1.067-.213a2.417 2.417 0 0 1-.813-.604 2.753 2.753 0 0 1-.51-.912 3.487 3.487 0 0 1-.177-1.13Zm.963-.12v.12c0 .281.033.547.1.797.065.247.164.465.296.656.136.191.304.342.505.453.202.108.436.162.703.162.264 0 .495-.054.693-.162.202-.111.368-.262.5-.453s.231-.409.297-.656c.07-.25.104-.516.104-.797v-.12c0-.277-.034-.54-.104-.786a2.03 2.03 0 0 0-.302-.662 1.438 1.438 0 0 0-.5-.458 1.404 1.404 0 0 0-.698-.167c-.264 0-.496.056-.698.167a1.502 1.502 0 0 0-.5.458c-.132.191-.23.412-.297.662a3.028 3.028 0 0 0-.099.786Zm6.422-5.125v8h-.969v-8h.97Zm5.1 6.907v-6.907h.968v8h-.886l-.083-1.093Zm-3.793-1.662v-.109c0-.431.053-.821.157-1.172.107-.354.258-.658.453-.912a2.05 2.05 0 0 1 .703-.583c.274-.139.58-.208.917-.208.354 0 .663.062.927.187.267.122.493.301.677.537.187.232.335.514.443.843.107.33.182.704.224 1.12v.479a4.905 4.905 0 0 1-.224 1.115 2.65 2.65 0 0 1-.443.844 1.86 1.86 0 0 1-.677.536 2.24 2.24 0 0 1-.938.182 1.94 1.94 0 0 1-.906-.213 2.134 2.134 0 0 1-.703-.599 2.921 2.921 0 0 1-.453-.906 3.995 3.995 0 0 1-.157-1.141Zm.97-.109v.109c0 .281.027.545.083.792.059.246.149.463.27.651.122.187.276.335.464.443.187.104.411.156.672.156.32 0 .581-.068.786-.203.209-.136.375-.315.5-.537.125-.222.222-.463.292-.724v-1.255a2.778 2.778 0 0 0-.182-.552 1.695 1.695 0 0 0-.302-.479 1.308 1.308 0 0 0-.454-.339 1.473 1.473 0 0 0-.63-.125c-.264 0-.491.056-.682.167a1.332 1.332 0 0 0-.464.448 2.065 2.065 0 0 0-.27.656 3.57 3.57 0 0 0-.084.792Zm9.374 2.864h-.963v-6.229c0-.406.073-.748.218-1.026.15-.281.363-.493.641-.635.278-.146.608-.219.99-.219a2.659 2.659 0 0 1 .666.083l-.052.787a1.523 1.523 0 0 0-.25-.037c-.09-.007-.18-.01-.271-.01-.204 0-.382.042-.531.125a.783.783 0 0 0-.333.354 1.3 1.3 0 0 0-.115.578v6.229Zm1.198-5.635v.739h-3.052v-.739h3.052Zm.818 2.88v-.12c0-.406.059-.783.177-1.13.118-.351.288-.654.51-.911a2.29 2.29 0 0 1 .808-.605c.316-.145.67-.218 1.062-.218.396 0 .752.073 1.068.218.319.143.59.344.812.605.226.257.398.56.516.911.118.347.177.724.177 1.13v.12c0 .406-.059.783-.177 1.13a2.7 2.7 0 0 1-.516.912 2.36 2.36 0 0 1-.807.604 2.54 2.54 0 0 1-1.062.213c-.396 0-.752-.071-1.068-.213a2.422 2.422 0 0 1-.813-.604 2.756 2.756 0 0 1-.51-.912 3.49 3.49 0 0 1-.177-1.13Zm.963-.12v.12c0 .281.033.547.099.797.066.247.165.465.297.656.136.191.304.342.505.453.202.108.436.162.704.162.263 0 .494-.054.692-.162.202-.111.368-.262.5-.453s.231-.409.297-.656c.07-.25.104-.516.104-.797v-.12c0-.277-.034-.54-.104-.786a2.037 2.037 0 0 0-.302-.662 1.442 1.442 0 0 0-.5-.458 1.403 1.403 0 0 0-.698-.167c-.264 0-.496.056-.698.167a1.506 1.506 0 0 0-.5.458 2.094 2.094 0 0 0-.297.662 3.028 3.028 0 0 0-.099.786Zm6.339-1.875v4.75h-.964v-5.635h.938l.026.885Zm1.76-.916-.005.895a2.422 2.422 0 0 0-.469-.041c-.222 0-.418.035-.588.104-.17.069-.314.167-.432.292a1.412 1.412 0 0 0-.282.448c-.066.17-.109.357-.13.562l-.271.156c0-.34.033-.659.099-.958.07-.299.176-.563.318-.792a1.55 1.55 0 0 1 .542-.541 1.52 1.52 0 0 1 1.031-.172.68.68 0 0 1 .187.047Zm4.839 1.401h.687c.337 0 .615-.056.834-.167a1.15 1.15 0 0 0 .495-.464c.111-.197.166-.42.166-.666 0-.292-.048-.537-.146-.735a.975.975 0 0 0-.437-.447c-.195-.101-.441-.152-.74-.152-.271 0-.51.054-.718.162a1.178 1.178 0 0 0-.485.448 1.332 1.332 0 0 0-.172.687h-.963c0-.385.097-.736.291-1.052.195-.316.467-.567.818-.755a2.594 2.594 0 0 1 1.229-.281c.459 0 .86.081 1.203.245.344.159.612.399.802.718.191.316.287.71.287 1.183a1.803 1.803 0 0 1-.547 1.218 2.127 2.127 0 0 1-.719.464c-.295.118-.649.177-1.062.177h-.823v-.583Zm0 .791v-.578h.823c.482 0 .882.058 1.198.172.316.115.564.267.745.458.184.191.312.401.385.631.076.225.115.451.115.677 0 .354-.061.668-.183.942a1.912 1.912 0 0 1-.505.698 2.175 2.175 0 0 1-.76.433 3.01 3.01 0 0 1-.954.145c-.329 0-.64-.046-.932-.14a2.417 2.417 0 0 1-.765-.406 1.894 1.894 0 0 1-.521-.662 2.08 2.08 0 0 1-.188-.901h.964c0 .264.057.495.172.693.118.198.284.352.5.463.218.108.475.162.77.162.296 0 .549-.051.761-.151.215-.104.38-.261.495-.469.118-.208.177-.47.177-.786 0-.316-.066-.575-.198-.776a1.168 1.168 0 0 0-.563-.454 2.19 2.19 0 0 0-.849-.151h-.687Zm10.625 1.98a.807.807 0 0 0-.094-.386c-.059-.121-.182-.231-.37-.328-.184-.101-.461-.188-.833-.26a6.696 6.696 0 0 1-.849-.235 2.566 2.566 0 0 1-.641-.328 1.377 1.377 0 0 1-.401-.453 1.273 1.273 0 0 1-.14-.609c0-.223.048-.433.146-.631.1-.198.241-.373.421-.526.185-.152.405-.272.662-.359.257-.087.543-.13.859-.13.452 0 .837.08 1.157.239.319.16.564.374.734.641.17.264.255.557.255.88h-.963a.826.826 0 0 0-.141-.453 1.037 1.037 0 0 0-.401-.37 1.298 1.298 0 0 0-.641-.146c-.267 0-.484.042-.651.125a.836.836 0 0 0-.359.308.773.773 0 0 0-.057.677.62.62 0 0 0 .198.224c.093.066.225.128.395.187s.388.118.651.177c.462.104.842.229 1.141.375.299.146.521.325.667.537.146.212.218.469.218.771a1.495 1.495 0 0 1-.599 1.208c-.19.146-.42.26-.687.344a3.07 3.07 0 0 1-.891.119c-.496 0-.916-.088-1.26-.265a1.941 1.941 0 0 1-.781-.688 1.645 1.645 0 0 1-.266-.89h.969c.014.264.09.474.229.63.139.153.309.262.51.328a2 2 0 0 0 .599.094c.264 0 .485-.035.662-.104a.92.92 0 0 0 .411-.287.66.66 0 0 0 .141-.416Zm4.568 1.598c-.393 0-.749-.065-1.068-.197a2.43 2.43 0 0 1-.818-.568 2.523 2.523 0 0 1-.521-.865 3.181 3.181 0 0 1-.182-1.093v-.219c0-.459.068-.867.203-1.224a2.76 2.76 0 0 1 .552-.917 2.38 2.38 0 0 1 .792-.568c.295-.128.601-.192.917-.192.402 0 .75.069 1.041.208.295.139.537.333.724.583.188.247.327.539.417.875.09.334.135.698.135 1.094v.432h-4.208v-.786h3.245v-.073a2.413 2.413 0 0 0-.156-.729 1.308 1.308 0 0 0-.417-.583c-.191-.153-.452-.23-.781-.23a1.311 1.311 0 0 0-1.079.547 2.069 2.069 0 0 0-.307.662c-.073.26-.109.56-.109.901v.219c0 .267.036.519.109.755.077.232.186.437.328.614.146.177.321.316.526.417.209.101.445.151.709.151.34 0 .628-.069.864-.208.236-.139.443-.325.62-.558l.583.464a2.702 2.702 0 0 1-.463.526 2.213 2.213 0 0 1-.693.406 2.685 2.685 0 0 1-.963.156Zm5.573-.791c.229 0 .44-.047.635-.141.194-.094.354-.222.479-.385a1.08 1.08 0 0 0 .214-.568h.916c-.017.333-.13.644-.338.932a2.334 2.334 0 0 1-1.906.953c-.424 0-.794-.074-1.11-.223a2.213 2.213 0 0 1-.781-.615 2.755 2.755 0 0 1-.464-.896c-.1-.34-.151-.7-.151-1.078v-.219c0-.378.051-.736.151-1.073.105-.34.259-.64.464-.901a2.2 2.2 0 0 1 .781-.614c.316-.15.686-.224 1.11-.224.44 0 .826.09 1.156.271.33.177.588.42.776.729.191.305.295.653.312 1.041h-.916a1.407 1.407 0 0 0-.198-.63 1.234 1.234 0 0 0-.459-.448 1.286 1.286 0 0 0-.671-.172c-.296 0-.544.059-.745.177a1.307 1.307 0 0 0-.474.469 2.186 2.186 0 0 0-.25.651 3.557 3.557 0 0 0-.073.724v.219c0 .247.024.49.073.729.048.24.13.457.245.651.118.195.276.351.474.469.201.115.451.172.75.172Zm3.072-2.068v-.12c0-.406.059-.783.178-1.13.118-.351.288-.654.51-.911.222-.261.491-.462.807-.605.316-.145.67-.218 1.063-.218.396 0 .751.073 1.067.218.32.143.591.344.813.605.226.257.398.56.516.911.118.347.177.724.177 1.13v.12c0 .406-.059.783-.177 1.13a2.7 2.7 0 0 1-.516.912 2.36 2.36 0 0 1-.807.604 2.545 2.545 0 0 1-1.063.213c-.396 0-.752-.071-1.068-.213a2.418 2.418 0 0 1-.812-.604 2.756 2.756 0 0 1-.51-.912 3.463 3.463 0 0 1-.178-1.13Zm.964-.12v.12c0 .281.033.547.099.797.066.247.165.465.297.656a1.5 1.5 0 0 0 .505.453c.201.108.436.162.703.162.264 0 .495-.054.693-.162.201-.111.368-.262.5-.453s.231-.409.297-.656c.069-.25.104-.516.104-.797v-.12c0-.277-.035-.54-.104-.786a2.037 2.037 0 0 0-.302-.662 1.442 1.442 0 0 0-.5-.458 1.405 1.405 0 0 0-.698-.167c-.264 0-.497.056-.698.167a1.496 1.496 0 0 0-.5.458 2.094 2.094 0 0 0-.297.662 3.028 3.028 0 0 0-.099.786Zm6.339-1.557v4.432h-.964v-5.635h.911l.053 1.203Zm-.23 1.401-.401-.016c.004-.385.061-.741.172-1.067.111-.33.268-.617.469-.86.201-.243.441-.43.719-.562.281-.136.592-.203.932-.203.278 0 .528.038.75.114.222.073.411.191.568.354.159.164.281.375.364.636.084.257.125.571.125.943v3.692h-.968v-3.703c0-.295-.044-.531-.131-.708a.795.795 0 0 0-.38-.391 1.368 1.368 0 0 0-.614-.125c-.24 0-.459.051-.657.151-.194.101-.363.24-.505.417-.139.177-.248.38-.328.609a2.243 2.243 0 0 0-.115.719Zm8.714 1.938v-6.907h.969v8h-.886l-.083-1.093Zm-3.792-1.662v-.109c0-.431.052-.821.156-1.172.108-.354.259-.658.454-.912.198-.253.432-.448.703-.583.274-.139.58-.208.916-.208.355 0 .664.062.927.187.268.122.494.301.678.537.187.232.335.514.442.843.108.33.183.704.224 1.12v.479a4.9 4.9 0 0 1-.224 1.115 2.63 2.63 0 0 1-.442.844c-.184.232-.41.411-.678.536a2.235 2.235 0 0 1-.937.182 1.94 1.94 0 0 1-.906-.213 2.133 2.133 0 0 1-.703-.599 2.918 2.918 0 0 1-.454-.906 3.999 3.999 0 0 1-.156-1.141Zm.969-.109v.109c0 .281.028.545.083.792.059.246.15.463.271.651.122.187.276.335.464.443.187.104.411.156.672.156.319 0 .581-.068.786-.203.208-.136.375-.315.5-.537.125-.222.222-.463.292-.724v-1.255a2.793 2.793 0 0 0-.183-.552 1.686 1.686 0 0 0-.302-.479 1.298 1.298 0 0 0-.453-.339 1.472 1.472 0 0 0-.63-.125c-.264 0-.491.056-.682.167a1.333 1.333 0 0 0-.464.448 2.077 2.077 0 0 0-.271.656c-.055.247-.083.51-.083.792Zm10.297-2.771v.739h-3.047v-.739h3.047Zm-2.016-1.37h.964v5.609c0 .191.029.336.088.433a.424.424 0 0 0 .229.192.934.934 0 0 0 .303.047 1.703 1.703 0 0 0 .453-.062l.005.786a2.153 2.153 0 0 1-.302.068 2.33 2.33 0 0 1-.443.036c-.236 0-.453-.046-.651-.14a1.047 1.047 0 0 1-.474-.469c-.114-.222-.172-.521-.172-.896v-5.604Zm2.787 4.25v-.12c0-.406.059-.783.177-1.13.118-.351.288-.654.51-.911.222-.261.492-.462.807-.605a2.522 2.522 0 0 1 1.063-.218c.396 0 .752.073 1.068.218.319.143.59.344.812.605.226.257.398.56.516.911.118.347.177.724.177 1.13v.12c0 .406-.059.783-.177 1.13a2.7 2.7 0 0 1-.516.912 2.36 2.36 0 0 1-.807.604 2.545 2.545 0 0 1-1.063.213c-.395 0-.751-.071-1.067-.213a2.422 2.422 0 0 1-.813-.604 2.756 2.756 0 0 1-.51-.912 3.49 3.49 0 0 1-.177-1.13Zm.963-.12v.12c0 .281.033.547.099.797.066.247.165.465.297.656a1.5 1.5 0 0 0 .505.453c.202.108.436.162.703.162.264 0 .495-.054.693-.162.201-.111.368-.262.5-.453s.231-.409.297-.656c.069-.25.104-.516.104-.797v-.12c0-.277-.035-.54-.104-.786a2.037 2.037 0 0 0-.302-.662 1.442 1.442 0 0 0-.5-.458 1.405 1.405 0 0 0-.698-.167c-.264 0-.497.056-.698.167a1.496 1.496 0 0 0-.5.458 2.094 2.094 0 0 0-.297.662 3.028 3.028 0 0 0-.099.786Zm9.068-5.125v8h-.969v-8h.969Zm1.292 5.245v-.12c0-.406.059-.783.177-1.13.118-.351.288-.654.51-.911.222-.261.491-.462.807-.605a2.522 2.522 0 0 1 1.063-.218c.396 0 .752.073 1.068.218.319.143.59.344.812.605.226.257.398.56.516.911.118.347.177.724.177 1.13v.12c0 .406-.059.783-.177 1.13a2.7 2.7 0 0 1-.516.912 2.36 2.36 0 0 1-.807.604 2.545 2.545 0 0 1-1.063.213c-.396 0-.751-.071-1.067-.213a2.422 2.422 0 0 1-.813-.604 2.756 2.756 0 0 1-.51-.912 3.49 3.49 0 0 1-.177-1.13Zm.963-.12v.12c0 .281.033.547.099.797.066.247.165.465.297.656a1.5 1.5 0 0 0 .505.453c.202.108.436.162.703.162.264 0 .495-.054.693-.162.201-.111.368-.262.5-.453s.231-.409.297-.656c.069-.25.104-.516.104-.797v-.12c0-.277-.035-.54-.104-.786a2.037 2.037 0 0 0-.302-.662 1.442 1.442 0 0 0-.5-.458 1.405 1.405 0 0 0-.698-.167c-.264 0-.497.056-.698.167a1.496 1.496 0 0 0-.5.458 2.094 2.094 0 0 0-.297.662 3.028 3.028 0 0 0-.099.786Zm9.026-2.76h.875v5.516c0 .496-.101.92-.302 1.27a1.962 1.962 0 0 1-.844.797c-.357.184-.77.276-1.239.276-.195 0-.424-.031-.688-.093a2.813 2.813 0 0 1-.771-.308 1.92 1.92 0 0 1-.63-.578l.505-.573c.237.285.483.483.74.594.26.111.517.167.771.167.305 0 .569-.058.792-.172.222-.115.394-.285.515-.511.125-.222.188-.496.188-.823v-4.323l.088-1.239Zm-3.88 2.88v-.109c0-.431.05-.821.151-1.172.104-.354.252-.658.443-.912a1.986 1.986 0 0 1 1.63-.791c.354 0 .663.062.927.187.267.122.493.301.677.537.188.232.335.514.443.843.107.33.182.704.224 1.12v.479a4.9 4.9 0 0 1-.224 1.115 2.63 2.63 0 0 1-.443.844 1.86 1.86 0 0 1-.677.536c-.267.122-.58.182-.937.182-.337 0-.643-.071-.917-.213a2.078 2.078 0 0 1-.698-.599 2.824 2.824 0 0 1-.448-.906 4.11 4.11 0 0 1-.151-1.141Zm.964-.109v.109c0 .281.027.545.083.792.059.246.147.463.265.651.122.187.277.335.464.443.188.104.411.156.672.156.319 0 .583-.068.792-.203.208-.136.373-.315.494-.537.125-.222.223-.463.292-.724v-1.255a2.539 2.539 0 0 0-.177-.552 1.686 1.686 0 0 0-.302-.479 1.317 1.317 0 0 0-.453-.339 1.513 1.513 0 0 0-.636-.125c-.264 0-.491.056-.682.167a1.342 1.342 0 0 0-.464.448 2.142 2.142 0 0 0-.265.656 3.57 3.57 0 0 0-.083.792Zm9.484 2.281 1.568-5.052h1.031l-2.261 6.505a3.546 3.546 0 0 1-.208.448 2.143 2.143 0 0 1-.323.464 1.556 1.556 0 0 1-.479.354 1.45 1.45 0 0 1-.661.14 2.897 2.897 0 0 1-.542-.083l-.005-.781c.027.003.071.007.13.01a1.545 1.545 0 0 0 .687-.078.84.84 0 0 0 .386-.286 1.74 1.74 0 0 0 .276-.547l.401-1.094Zm-1.151-5.052 1.463 4.375.25 1.016-.692.354-2.073-5.745h1.052Zm4.281 2.88v-.12c0-.406.059-.783.177-1.13.118-.351.288-.654.511-.911.222-.261.491-.462.807-.605.316-.145.67-.218 1.062-.218.396 0 .752.073 1.068.218.32.143.59.344.813.605.225.257.397.56.515.911.118.347.177.724.177 1.13v.12c0 .406-.059.783-.177 1.13-.118.348-.29.651-.515.912a2.373 2.373 0 0 1-.808.604 2.537 2.537 0 0 1-1.062.213c-.396 0-.752-.071-1.068-.213a2.408 2.408 0 0 1-.812-.604 2.74 2.74 0 0 1-.511-.912 3.49 3.49 0 0 1-.177-1.13Zm.964-.12v.12c0 .281.033.547.099.797.066.247.165.465.296.656.136.191.304.342.506.453.201.108.435.162.703.162.264 0 .495-.054.693-.162.201-.111.368-.262.5-.453.131-.191.23-.409.296-.656.07-.25.105-.516.105-.797v-.12c0-.277-.035-.54-.105-.786a2.017 2.017 0 0 0-.302-.662 1.433 1.433 0 0 0-.5-.458 1.403 1.403 0 0 0-.698-.167c-.263 0-.496.056-.698.167a1.516 1.516 0 0 0-.5.458c-.131.191-.23.412-.296.662a3.028 3.028 0 0 0-.099.786Zm8.823 1.573v-4.333h.968v5.635h-.922l-.046-1.302Zm.182-1.187.401-.011c0 .375-.04.723-.12 1.042-.076.316-.201.59-.375.823a1.775 1.775 0 0 1-.682.547c-.281.128-.623.192-1.026.192-.275 0-.526-.039-.755-.119a1.506 1.506 0 0 1-.584-.37 1.687 1.687 0 0 1-.38-.651 3.14 3.14 0 0 1-.13-.964v-3.635h.963v3.646c0 .253.028.463.084.63.059.163.137.293.234.391a.878.878 0 0 0 .333.197c.125.039.254.058.386.058.41 0 .734-.078.974-.235.239-.159.411-.373.515-.64.108-.271.162-.571.162-.901Zm3.219-2.261v4.75h-.964v-5.635h.938l.026.885Zm1.76-.916-.005.895a2.45 2.45 0 0 0-.469-.041c-.222 0-.418.035-.588.104a1.21 1.21 0 0 0-.433.292 1.392 1.392 0 0 0-.281.448c-.066.17-.109.357-.13.562l-.271.156c0-.34.033-.659.099-.958.069-.299.175-.563.318-.792.142-.232.323-.413.541-.541a1.524 1.524 0 0 1 1.032-.172.69.69 0 0 1 .187.047Zm7.089 4.573v-6.907h.968v8h-.885l-.083-1.093Zm-3.792-1.662v-.109c0-.431.052-.821.156-1.172.108-.354.259-.658.453-.912.198-.253.433-.448.703-.583.275-.139.58-.208.917-.208.354 0 .663.062.927.187.268.122.493.301.677.537.188.232.335.514.443.843.108.33.182.704.224 1.12v.479a4.9 4.9 0 0 1-.224 1.115 2.63 2.63 0 0 1-.443.844 1.853 1.853 0 0 1-.677.536c-.267.122-.58.182-.937.182-.33 0-.632-.071-.907-.213a2.143 2.143 0 0 1-.703-.599 2.938 2.938 0 0 1-.453-.906 3.999 3.999 0 0 1-.156-1.141Zm.969-.109v.109c0 .281.027.545.083.792.059.246.149.463.271.651.121.187.276.335.463.443.188.104.412.156.672.156.32 0 .582-.068.787-.203.208-.136.375-.315.5-.537.125-.222.222-.463.291-.724v-1.255a2.726 2.726 0 0 0-.182-.552 1.686 1.686 0 0 0-.302-.479 1.317 1.317 0 0 0-.453-.339 1.472 1.472 0 0 0-.63-.125c-.264 0-.492.056-.683.167a1.33 1.33 0 0 0-.463.448 2.054 2.054 0 0 0-.271.656 3.57 3.57 0 0 0-.083.792Zm5.036.109v-.12c0-.406.059-.783.177-1.13.118-.351.288-.654.511-.911.222-.261.491-.462.807-.605.316-.145.67-.218 1.062-.218.396 0 .752.073 1.068.218.32.143.59.344.813.605.225.257.397.56.515.911.118.347.177.724.177 1.13v.12c0 .406-.059.783-.177 1.13-.118.348-.29.651-.515.912a2.373 2.373 0 0 1-.808.604 2.537 2.537 0 0 1-1.062.213c-.396 0-.752-.071-1.068-.213a2.408 2.408 0 0 1-.812-.604 2.74 2.74 0 0 1-.511-.912 3.49 3.49 0 0 1-.177-1.13Zm.964-.12v.12c0 .281.033.547.099.797.066.247.165.465.296.656.136.191.304.342.506.453.201.108.435.162.703.162.264 0 .495-.054.693-.162.201-.111.368-.262.5-.453.131-.191.23-.409.296-.656.07-.25.105-.516.105-.797v-.12c0-.277-.035-.54-.105-.786a2.017 2.017 0 0 0-.302-.662 1.433 1.433 0 0 0-.5-.458 1.403 1.403 0 0 0-.698-.167c-.263 0-.496.056-.698.167a1.516 1.516 0 0 0-.5.458c-.131.191-.23.412-.296.662a3.028 3.028 0 0 0-.099.786Zm8.656 1.381a.807.807 0 0 0-.094-.386c-.059-.121-.182-.231-.37-.328-.184-.101-.461-.188-.833-.26a6.696 6.696 0 0 1-.849-.235 2.566 2.566 0 0 1-.641-.328 1.377 1.377 0 0 1-.401-.453 1.273 1.273 0 0 1-.14-.609c0-.223.048-.433.146-.631.1-.198.241-.373.421-.526.185-.152.405-.272.662-.359.257-.087.543-.13.859-.13.452 0 .837.08 1.157.239.319.16.564.374.734.641.17.264.255.557.255.88h-.963a.826.826 0 0 0-.141-.453 1.037 1.037 0 0 0-.401-.37 1.298 1.298 0 0 0-.641-.146c-.267 0-.484.042-.651.125a.836.836 0 0 0-.359.308.773.773 0 0 0-.057.677.62.62 0 0 0 .198.224c.093.066.225.128.395.187s.388.118.651.177c.462.104.842.229 1.141.375.299.146.521.325.667.537.146.212.218.469.218.771a1.495 1.495 0 0 1-.599 1.208c-.19.146-.42.26-.687.344a3.07 3.07 0 0 1-.891.119c-.496 0-.916-.088-1.26-.265a1.941 1.941 0 0 1-.781-.688 1.645 1.645 0 0 1-.266-.89h.969c.014.264.09.474.229.63.139.153.309.262.51.328a2 2 0 0 0 .599.094c.264 0 .485-.035.662-.104a.92.92 0 0 0 .411-.287.66.66 0 0 0 .141-.416Zm4.568 1.598c-.393 0-.749-.065-1.068-.197a2.43 2.43 0 0 1-.818-.568 2.539 2.539 0 0 1-.521-.865 3.181 3.181 0 0 1-.182-1.093v-.219c0-.459.068-.867.203-1.224a2.76 2.76 0 0 1 .552-.917 2.38 2.38 0 0 1 .792-.568c.295-.128.601-.192.917-.192.402 0 .75.069 1.041.208.295.139.537.333.724.583.188.247.327.539.417.875.09.334.135.698.135 1.094v.432h-4.208v-.786h3.245v-.073a2.413 2.413 0 0 0-.156-.729 1.308 1.308 0 0 0-.417-.583c-.191-.153-.452-.23-.781-.23a1.311 1.311 0 0 0-1.079.547 2.069 2.069 0 0 0-.307.662c-.073.26-.109.56-.109.901v.219c0 .267.036.519.109.755.077.232.186.437.328.614.146.177.322.316.526.417.209.101.445.151.709.151.34 0 .628-.069.864-.208.236-.139.443-.325.62-.558l.583.464a2.702 2.702 0 0 1-.463.526 2.213 2.213 0 0 1-.693.406 2.685 2.685 0 0 1-.963.156Z"/><rect width="136" height="26.933" x="92.6" y="429.467" fill="#787878" fill-opacity=".2" rx="6.4"/><path fill="#000" d="M122.844 439.35h2.828c.58 0 1.078.087 1.495.261.42.173.743.43.968.771.226.34.339.758.339 1.255 0 .406-.07.755-.208 1.047a1.975 1.975 0 0 1-.579.724 3.001 3.001 0 0 1-.869.458l-.495.26h-2.458l-.011-1.218h1.828c.275 0 .502-.049.683-.146a.96.96 0 0 0 .406-.407c.094-.173.14-.375.14-.604 0-.243-.045-.453-.135-.63a.913.913 0 0 0-.411-.406c-.184-.094-.415-.141-.693-.141h-1.266v6.36h-1.562v-7.584Zm4.239 7.584-1.729-3.381 1.651-.01 1.75 3.318v.073h-1.672Zm4.881.104c-.438 0-.83-.07-1.177-.209a2.573 2.573 0 0 1-.886-.588 2.632 2.632 0 0 1-.552-.87 2.935 2.935 0 0 1-.193-1.062v-.209c0-.427.061-.817.183-1.172.121-.354.295-.661.521-.921.229-.261.506-.461.833-.599a2.721 2.721 0 0 1 1.104-.214c.399 0 .754.066 1.063.198.309.132.567.319.776.562.211.243.371.535.479.875.107.337.161.712.161 1.125v.625h-4.479v-1h3.005v-.114c0-.208-.038-.394-.114-.557a.88.88 0 0 0-.334-.396c-.149-.098-.34-.146-.573-.146a.96.96 0 0 0-.51.13 1.005 1.005 0 0 0-.349.365c-.087.156-.153.34-.198.552a3.48 3.48 0 0 0-.062.687v.209c0 .225.031.434.093.625.066.191.158.355.276.494.122.139.268.247.438.323.174.077.37.115.588.115.271 0 .523-.052.756-.156.236-.108.439-.269.609-.485l.729.792c-.118.17-.279.333-.484.49a2.618 2.618 0 0 1-.729.385c-.285.097-.61.146-.974.146Zm4.453-4.573v4.469h-1.505v-5.636h1.411l.094 1.167Zm-.208 1.453h-.417c0-.392.047-.754.141-1.083.097-.334.238-.622.422-.865.187-.246.418-.437.692-.573.275-.135.592-.203.953-.203.25 0 .48.038.688.115.208.073.387.189.536.349.153.156.271.361.355.614.083.25.125.55.125.901v3.761h-1.5v-3.594c0-.257-.035-.455-.105-.594a.59.59 0 0 0-.297-.292 1.12 1.12 0 0 0-.453-.083c-.194 0-.364.04-.51.12-.142.08-.26.191-.354.333a1.502 1.502 0 0 0-.209.49 2.582 2.582 0 0 0-.067.604Zm3.354-.172-.537.068c0-.368.046-.71.136-1.026.094-.316.231-.594.411-.834.184-.239.412-.425.683-.557.27-.135.583-.203.937-.203.271 0 .517.04.74.12.222.076.411.199.567.37.16.166.282.385.365.656.087.271.13.602.13.995v3.599h-1.505v-3.599c0-.261-.035-.459-.104-.594a.55.55 0 0 0-.292-.287 1.106 1.106 0 0 0-.448-.083.999.999 0 0 0-.474.109.95.95 0 0 0-.338.292 1.318 1.318 0 0 0-.203.438 1.971 1.971 0 0 0-.068.536Zm5.964-2.448v5.636h-1.506v-5.636h1.506Zm-1.599-1.469c0-.218.076-.399.229-.541.153-.143.357-.214.614-.214.254 0 .457.071.61.214a.7.7 0 0 1 .234.541c0 .219-.078.4-.234.542-.153.142-.356.214-.61.214-.257 0-.461-.072-.614-.214a.707.707 0 0 1-.229-.542Zm4.094 2.672v4.433h-1.5v-5.636h1.406l.094 1.203Zm-.219 1.417h-.406c0-.417.053-.792.161-1.125.108-.337.259-.623.453-.859.195-.24.426-.422.693-.547.271-.129.573-.193.906-.193.264 0 .505.038.724.115.219.076.406.198.563.364.159.167.281.387.364.662.087.274.13.609.13 1.005v3.594h-1.51v-3.599c0-.25-.035-.445-.104-.584a.584.584 0 0 0-.307-.291 1.202 1.202 0 0 0-.49-.089c-.201 0-.377.04-.526.12-.146.08-.267.191-.365.333a1.574 1.574 0 0 0-.213.49 2.38 2.38 0 0 0-.073.604Zm7.844 1.786v-6.77h1.51v8h-1.359l-.151-1.23Zm-3.563-1.52v-.11c0-.43.049-.821.146-1.172.097-.354.24-.658.427-.911a1.95 1.95 0 0 1 .693-.589c.274-.139.587-.208.937-.208.33 0 .619.069.865.208.25.139.462.337.635.594.178.254.32.554.428.901.107.344.185.721.234 1.13v.24a6.123 6.123 0 0 1-.234 1.094c-.108.336-.25.632-.428.885-.173.25-.385.445-.635.583-.25.139-.542.209-.875.209-.351 0-.663-.071-.937-.214a1.99 1.99 0 0 1-.688-.599 2.868 2.868 0 0 1-.422-.906 4.208 4.208 0 0 1-.146-1.135Zm1.5-.11v.11c0 .232.018.449.052.651.039.201.099.38.183.536.087.153.198.273.333.359a.958.958 0 0 0 .505.125c.257 0 .469-.057.636-.171.166-.118.293-.28.38-.485.09-.205.142-.441.156-.708v-.682a2.445 2.445 0 0 0-.094-.589 1.274 1.274 0 0 0-.218-.453.97.97 0 0 0-.355-.292 1.094 1.094 0 0 0-.494-.104.89.89 0 0 0-.5.136.985.985 0 0 0-.339.359 1.896 1.896 0 0 0-.187.542 3.56 3.56 0 0 0-.058.666Zm7.782-4.724h1.323l1.948 5.568 1.948-5.568h1.323l-2.74 7.584h-1.062l-2.74-7.584Zm-.714 0h1.318l.24 5.427v2.157h-1.558v-7.584Zm6.652 0h1.322v7.584h-1.562v-2.157l.24-5.427Zm4.979 7.688c-.438 0-.83-.07-1.177-.209a2.582 2.582 0 0 1-.886-.588 2.632 2.632 0 0 1-.552-.87 2.934 2.934 0 0 1-.192-1.062v-.209c0-.427.06-.817.182-1.172.121-.354.295-.661.521-.921.229-.261.507-.461.833-.599a2.721 2.721 0 0 1 1.104-.214c.4 0 .754.066 1.063.198.309.132.567.319.776.562.212.243.371.535.479.875.108.337.161.712.161 1.125v.625h-4.479v-1h3.005v-.114c0-.208-.038-.394-.114-.557a.884.884 0 0 0-.333-.396c-.15-.098-.341-.146-.573-.146a.963.963 0 0 0-.511.13 1.005 1.005 0 0 0-.349.365c-.087.156-.153.34-.198.552a3.558 3.558 0 0 0-.062.687v.209c0 .225.031.434.094.625.066.191.158.355.276.494.121.139.267.247.437.323.174.077.37.115.589.115.27 0 .522-.052.755-.156.236-.108.439-.269.609-.485l.729.792c-.118.17-.279.333-.484.49a2.59 2.59 0 0 1-.729.385c-.285.097-.61.146-.974.146Zm10.365-1.323v1.219h-3.818v-1.219h3.818Zm-3.313-6.365v7.584h-1.562v-7.584h1.562Zm6.943 6.313v-2.511c0-.18-.029-.335-.088-.463a.654.654 0 0 0-.276-.307.914.914 0 0 0-.474-.11.984.984 0 0 0-.433.089.627.627 0 0 0-.281.244.68.68 0 0 0-.099.37h-1.5c0-.239.056-.467.167-.682.111-.215.272-.405.484-.568.212-.166.464-.297.756-.39a3.25 3.25 0 0 1 .989-.141c.438 0 .826.073 1.167.219.34.146.607.364.802.656.198.292.297.656.297 1.094v2.411c0 .309.019.563.057.761.038.194.094.364.167.51v.089h-1.516a2.199 2.199 0 0 1-.167-.573 4.833 4.833 0 0 1-.052-.698Zm.198-2.162.011.849h-.839c-.198 0-.37.023-.516.068a.955.955 0 0 0-.359.193.737.737 0 0 0-.208.281.969.969 0 0 0-.063.354.63.63 0 0 0 .344.589.87.87 0 0 0 .391.083c.225 0 .422-.045.588-.135.167-.091.295-.202.386-.334a.693.693 0 0 0 .145-.375l.396.636a2.528 2.528 0 0 1-.588.875 1.857 1.857 0 0 1-.526.328 1.937 1.937 0 0 1-.729.125 2.18 2.18 0 0 1-.974-.214 1.768 1.768 0 0 1-.688-.599 1.568 1.568 0 0 1-.25-.875c0-.295.056-.557.167-.786.111-.229.274-.422.489-.578.219-.16.492-.28.818-.36a4.63 4.63 0 0 1 1.135-.125h.87Zm5.016-2.203v1.063h-3.281v-1.063h3.281Zm-2.469-1.39h1.5v5.328c0 .163.021.288.063.375a.378.378 0 0 0 .198.182.986.986 0 0 0 .328.047c.094 0 .177-.004.25-.011.076-.01.14-.02.193-.031l.005 1.104a3.006 3.006 0 0 1-.912.136c-.33 0-.618-.054-.864-.162a1.192 1.192 0 0 1-.563-.531c-.132-.243-.198-.562-.198-.958v-5.479Zm5.704 7.13c-.438 0-.83-.07-1.177-.209a2.573 2.573 0 0 1-.886-.588 2.632 2.632 0 0 1-.552-.87 2.935 2.935 0 0 1-.193-1.062v-.209c0-.427.061-.817.183-1.172a2.75 2.75 0 0 1 .52-.921c.23-.261.507-.461.834-.599a2.721 2.721 0 0 1 1.104-.214c.399 0 .753.066 1.062.198.309.132.568.319.777.562.211.243.371.535.479.875.107.337.161.712.161 1.125v.625h-4.479v-1h3.005v-.114c0-.208-.038-.394-.114-.557a.88.88 0 0 0-.334-.396c-.149-.098-.34-.146-.573-.146a.957.957 0 0 0-.51.13 1.005 1.005 0 0 0-.349.365c-.087.156-.153.34-.198.552a3.48 3.48 0 0 0-.062.687v.209c0 .225.031.434.093.625.066.191.158.355.276.494.122.139.268.247.438.323.173.077.37.115.588.115.271 0 .523-.052.756-.156.236-.108.439-.269.609-.485l.729.792c-.118.17-.279.333-.484.49a2.618 2.618 0 0 1-.729.385c-.285.097-.61.146-.974.146Zm4.453-4.511v4.407h-1.5v-5.636h1.411l.089 1.229Zm1.698-1.265-.026 1.39a3.94 3.94 0 0 0-.266-.026 2.79 2.79 0 0 0-.276-.015c-.212 0-.396.027-.552.083a.98.98 0 0 0-.385.234 1.022 1.022 0 0 0-.229.381 1.85 1.85 0 0 0-.084.51l-.302-.094c0-.364.037-.699.109-1.005.073-.309.179-.578.318-.807.143-.229.316-.406.521-.531.205-.125.439-.188.703-.188.083 0 .169.007.255.021.087.01.158.026.214.047Z"/></g><path fill="#D9D9D9" d="M62.232 38.712v8.792h4.336V49H60.52V38.712h1.712Zm9.94 10.504c-.895 0-1.69-.2-2.383-.6-.694-.4-1.237-.997-1.632-1.792-.395-.795-.592-1.784-.592-2.968 0-1.205.197-2.203.592-2.992.395-.79.939-1.379 1.632-1.768.693-.39 1.488-.584 2.384-.584.901 0 1.698.2 2.392.6.698.395 1.243.99 1.632 1.784.394.79.592 1.776.592 2.96 0 1.195-.198 2.192-.592 2.992-.39.795-.934 1.39-1.632 1.784-.694.39-1.49.584-2.392.584Zm0-1.56c.876 0 1.569-.325 2.08-.976.513-.656.769-1.603.769-2.84 0-1.205-.256-2.139-.768-2.8s-1.206-.992-2.08-.992c-.859 0-1.547.333-2.064 1-.512.661-.768 1.597-.768 2.808 0 1.232.256 2.173.768 2.824.517.65 1.205.976 2.064.976Zm6.886-8.944h1.904l4.825 7.64h-.137v-7.64h1.712V49h-1.767l-5.096-8.048h.272V49h-1.713V38.712Zm15.08 10.504a4.1 4.1 0 0 1-2.271-.656c-.672-.443-1.208-1.059-1.608-1.848-.4-.795-.6-1.723-.6-2.784 0-.853.122-1.616.368-2.288.25-.672.597-1.24 1.04-1.704a4.433 4.433 0 0 1 1.544-1.056 4.945 4.945 0 0 1 1.912-.368c.917 0 1.696.197 2.336.592.64.395 1.152 1.016 1.536 1.864l-1.728.44c-.294-.443-.627-.776-1-1a2.282 2.282 0 0 0-1.232-.344c-.534 0-1.024.157-1.472.472-.443.31-.798.752-1.064 1.328-.267.576-.4 1.264-.4 2.064 0 .736.114 1.384.344 1.944.229.555.552.99.968 1.304.416.315.904.472 1.464.472.458 0 .869-.101 1.232-.304a2.19 2.19 0 0 0 .856-.904c.213-.4.32-.885.32-1.456h.408c0 .859-.104 1.605-.312 2.24-.203.635-.523 1.125-.96 1.472-.432.347-.992.52-1.68.52Zm2.8-.216-.255-2.312v-1.76l-2.392-.056v-1.104h4.04V49h-1.392Zm3.344-4.032v-1.496h4.456v1.496h-4.456ZM106.918 49V38.712h3.544c1.152 0 2.045.285 2.68.856.634.57.952 1.368.952 2.392 0 1.019-.318 1.813-.952 2.384-.635.57-1.528.856-2.68.856h-1.816V49h-1.728Zm1.728-5.296h1.816c.618 0 1.085-.16 1.4-.48.314-.325.472-.747.472-1.264 0-.523-.158-.95-.472-1.28-.315-.33-.782-.496-1.4-.496h-1.816v3.52ZM116.129 49V38.712h3.752c1.216 0 2.144.285 2.784.856.646.57.968 1.325.968 2.264 0 .928-.322 1.677-.968 2.248-.64.57-1.568.856-2.784.856h-2.04V49h-1.712Zm5.624 0-2.784-4.784h1.832L123.985 49h-2.232Zm-3.912-5.224h1.872c.71 0 1.248-.165 1.616-.496.368-.336.552-.768.552-1.296 0-.544-.17-.979-.512-1.304-.336-.33-.832-.496-1.488-.496h-2.04v3.592ZM126.27 49V38.712h6.544v1.472h-4.832v2.912h4.544v1.48h-4.544v2.928h4.832V49h-6.544Zm12.793.216c-.709 0-1.36-.123-1.952-.368a3.388 3.388 0 0 1-1.44-1.128c-.368-.507-.562-1.141-.584-1.904h1.68c0 .421.104.768.312 1.04.208.267.483.467.824.6.347.128.728.192 1.144.192a3.1 3.1 0 0 0 1.088-.176c.32-.117.568-.28.744-.488a1.06 1.06 0 0 0 .272-.72c0-.368-.112-.659-.336-.872-.224-.219-.576-.41-1.056-.576l-1.968-.76c-.81-.31-1.429-.667-1.856-1.072-.426-.41-.64-.976-.64-1.696 0-.821.323-1.488.968-2 .651-.517 1.56-.776 2.728-.776 1.126 0 1.998.261 2.616.784.619.523.971 1.243 1.056 2.16h-1.68a1.586 1.586 0 0 0-.592-1.016c-.314-.25-.781-.376-1.4-.376-.57 0-1.018.12-1.344.36-.32.24-.48.544-.48.912 0 .31.102.555.304.736.208.181.528.352.96.512l2.216.832c.758.283 1.342.65 1.752 1.104.416.448.624 1.013.624 1.696 0 .597-.154 1.123-.464 1.576-.304.448-.752.797-1.344 1.048-.586.25-1.304.376-2.152.376Zm10.063 0c-.71 0-1.36-.123-1.952-.368a3.388 3.388 0 0 1-1.44-1.128c-.368-.507-.563-1.141-.584-1.904h1.68c0 .421.104.768.312 1.04.208.267.482.467.824.6.346.128.728.192 1.144.192.41 0 .773-.059 1.088-.176.32-.117.568-.28.744-.488.181-.208.272-.448.272-.72 0-.368-.112-.659-.336-.872-.224-.219-.576-.41-1.056-.576l-1.968-.76c-.811-.31-1.43-.667-1.856-1.072-.427-.41-.64-.976-.64-1.696 0-.821.322-1.488.968-2 .65-.517 1.56-.776 2.728-.776 1.125 0 1.997.261 2.616.784.618.523.97 1.243 1.056 2.16h-1.68a1.59 1.59 0 0 0-.592-1.016c-.315-.25-.782-.376-1.4-.376-.571 0-1.019.12-1.344.36-.32.24-.48.544-.48.912 0 .31.101.555.304.736.208.181.528.352.96.512l2.216.832c.757.283 1.341.65 1.752 1.104.416.448.624 1.013.624 1.696 0 .597-.155 1.123-.464 1.576-.304.448-.752.797-1.344 1.048-.587.25-1.304.376-2.152.376ZM159.661 49V38.712h1.712V49h-1.712Zm4.741-10.288h1.904l4.824 7.64h-.136v-7.64h1.712V49h-1.768l-5.096-8.048h.272V49h-1.712V38.712Zm9.928 1.472v-1.472h8.184v1.472h-3.624l.384-.392V49h-1.712v-9.208l.384.392h-3.616ZM184.113 49V38.712h6.544v1.472h-4.832v2.912h4.544v1.48h-4.544v2.928h4.832V49h-6.544Zm9.282 0V38.712h3.752c1.216 0 2.144.285 2.784.856.645.57.968 1.325.968 2.264 0 .928-.323 1.677-.968 2.248-.64.57-1.568.856-2.784.856h-2.04V49h-1.712Zm5.624 0-2.784-4.784h1.832L201.251 49h-2.232Zm-3.912-5.224h1.872c.709 0 1.248-.165 1.616-.496.368-.336.552-.768.552-1.296 0-.544-.171-.979-.512-1.304-.336-.33-.832-.496-1.488-.496h-2.04v3.592ZM202.399 49l3.512-10.288h2.136L211.439 49h-1.8l-.76-2.336h-3.896L204.215 49h-1.816Zm3.024-3.632h3.048l-1.52-4.608-1.528 4.608Zm11.606 3.848c-.902 0-1.686-.219-2.352-.656-.667-.437-1.184-1.059-1.552-1.864-.363-.805-.544-1.765-.544-2.88 0-1.157.192-2.128.576-2.912.384-.79.912-1.384 1.584-1.784.672-.405 1.434-.608 2.288-.608 1.173 0 2.096.288 2.768.864.677.57 1.117 1.312 1.32 2.224l-1.832.344c-.176-.565-.459-1.021-.848-1.368-.384-.347-.854-.52-1.408-.52a2.2 2.2 0 0 0-1.312.424c-.395.277-.71.696-.944 1.256-.23.555-.344 1.248-.344 2.08 0 .779.098 1.456.296 2.032.202.57.496 1.013.88 1.328.389.315.864.472 1.424.472.709 0 1.261-.19 1.656-.568.4-.379.6-.864.6-1.456h1.84c0 .757-.168 1.403-.504 1.936-.331.533-.803.944-1.416 1.232-.608.283-1.334.424-2.176.424Zm4.926-9.032v-1.472h8.184v1.472h-3.624l.384-.392V49h-1.712v-9.208l.384.392h-3.616ZM231.754 49V38.712h1.712V49h-1.712Zm8.622.216c-.896 0-1.691-.2-2.384-.6-.693-.4-1.237-.997-1.632-1.792-.395-.795-.592-1.784-.592-2.968 0-1.205.197-2.203.592-2.992.395-.79.939-1.379 1.632-1.768.693-.39 1.488-.584 2.384-.584.901 0 1.699.2 2.392.6.699.395 1.243.99 1.632 1.784.395.79.592 1.776.592 2.96 0 1.195-.197 2.192-.592 2.992-.389.795-.933 1.39-1.632 1.784-.693.39-1.491.584-2.392.584Zm0-1.56c.875 0 1.568-.325 2.08-.976.512-.656.768-1.603.768-2.84 0-1.205-.256-2.139-.768-2.8s-1.205-.992-2.08-.992c-.859 0-1.547.333-2.064 1-.512.661-.768 1.597-.768 2.808 0 1.232.256 2.173.768 2.824.517.65 1.205.976 2.064.976Zm6.886-8.944h1.904l4.824 7.64h-.136v-7.64h1.712V49h-1.768l-5.096-8.048h.272V49h-1.712V38.712Zm93.258 0h3.248c1.045 0 1.957.21 2.736.632a4.485 4.485 0 0 1 1.824 1.784c.437.768.656 1.68.656 2.736 0 1.035-.219 1.939-.656 2.712a4.538 4.538 0 0 1-1.824 1.792c-.779.421-1.691.632-2.736.632h-3.248V38.712Zm1.712 1.544v7.216h1.536c.693 0 1.291-.157 1.792-.472a3.133 3.133 0 0 0 1.168-1.288c.277-.544.416-1.16.416-1.848 0-.704-.139-1.325-.416-1.864a3.079 3.079 0 0 0-1.168-1.28c-.501-.31-1.099-.464-1.792-.464h-1.536ZM351.395 49V38.712h3.752c1.216 0 2.144.285 2.784.856.645.57.968 1.325.968 2.264 0 .928-.323 1.677-.968 2.248-.64.57-1.568.856-2.784.856h-2.04V49h-1.712Zm5.624 0-2.784-4.784h1.832L359.251 49h-2.232Zm-3.912-5.224h1.872c.709 0 1.248-.165 1.616-.496.368-.336.552-.768.552-1.296 0-.544-.171-.979-.512-1.304-.336-.33-.832-.496-1.488-.496h-2.04v3.592ZM360.399 49l3.512-10.288h2.136L369.439 49h-1.8l-.76-2.336h-3.896L362.215 49h-1.816Zm3.024-3.632h3.048l-1.52-4.608-1.528 4.608Zm11.638 3.848a4.097 4.097 0 0 1-2.272-.656c-.672-.443-1.208-1.059-1.608-1.848-.4-.795-.6-1.723-.6-2.784 0-.853.122-1.616.368-2.288.25-.672.597-1.24 1.04-1.704a4.422 4.422 0 0 1 1.544-1.056 4.944 4.944 0 0 1 1.912-.368c.917 0 1.696.197 2.336.592.64.395 1.152 1.016 1.536 1.864l-1.728.44c-.294-.443-.627-.776-1-1a2.283 2.283 0 0 0-1.232-.344c-.534 0-1.024.157-1.472.472-.443.31-.798.752-1.064 1.328-.267.576-.4 1.264-.4 2.064 0 .736.114 1.384.344 1.944.229.555.552.99.968 1.304.416.315.904.472 1.464.472.458 0 .869-.101 1.232-.304a2.2 2.2 0 0 0 .856-.904c.213-.4.32-.885.32-1.456h.408c0 .859-.104 1.605-.312 2.24-.203.635-.523 1.125-.96 1.472-.432.347-.992.52-1.68.52Zm2.8-.216-.256-2.312v-1.76l-2.392-.056v-1.104h4.04V49h-1.392Zm7.887.216a4.1 4.1 0 0 1-2.272-.656c-.672-.443-1.208-1.059-1.608-1.848-.4-.795-.6-1.723-.6-2.784 0-.853.123-1.616.368-2.288.251-.672.597-1.24 1.04-1.704a4.432 4.432 0 0 1 1.544-1.056 4.944 4.944 0 0 1 1.912-.368c.917 0 1.696.197 2.336.592.64.395 1.152 1.016 1.536 1.864l-1.728.44c-.293-.443-.627-.776-1-1a2.283 2.283 0 0 0-1.232-.344c-.533 0-1.024.157-1.472.472-.443.31-.797.752-1.064 1.328-.267.576-.4 1.264-.4 2.064 0 .736.115 1.384.344 1.944.229.555.552.99.968 1.304.416.315.904.472 1.464.472.459 0 .869-.101 1.232-.304a2.19 2.19 0 0 0 .856-.904c.213-.4.32-.885.32-1.456h.408c0 .859-.104 1.605-.312 2.24-.203.635-.523 1.125-.96 1.472-.432.347-.992.52-1.68.52Zm2.8-.216-.256-2.312v-1.76l-2.392-.056v-1.104h4.04V49h-1.392Zm4.16 0V38.712h1.712V49h-1.712Zm4.741-10.288h1.904l4.824 7.64h-.136v-7.64h1.712V49h-1.768l-5.096-8.048h.272V49h-1.712V38.712Zm15.08 10.504a4.102 4.102 0 0 1-2.272-.656c-.672-.443-1.208-1.059-1.608-1.848-.4-.795-.6-1.723-.6-2.784 0-.853.123-1.616.368-2.288a4.942 4.942 0 0 1 1.04-1.704 4.44 4.44 0 0 1 1.544-1.056 4.947 4.947 0 0 1 1.912-.368c.918 0 1.696.197 2.336.592.64.395 1.152 1.016 1.536 1.864l-1.728.44c-.293-.443-.626-.776-1-1a2.28 2.28 0 0 0-1.232-.344c-.533 0-1.024.157-1.472.472-.442.31-.797.752-1.064 1.328-.266.576-.4 1.264-.4 2.064 0 .736.115 1.384.344 1.944.23.555.552.99.968 1.304.416.315.904.472 1.464.472.459 0 .87-.101 1.232-.304a2.19 2.19 0 0 0 .856-.904c.214-.4.32-.885.32-1.456h.408c0 .859-.104 1.605-.312 2.24-.202.635-.522 1.125-.96 1.472-.432.347-.992.52-1.68.52Zm2.8-.216-.256-2.312v-1.76l-2.392-.056v-1.104h4.04V49h-1.392Zm8.144 0V38.712h1.712V49h-1.712Zm4.742-10.288h1.904l4.824 7.64h-.136v-7.64h1.712V49h-1.768l-5.096-8.048h.272V49h-1.712V38.712Zm9.928 1.472v-1.472h8.184v1.472h-3.624l.384-.392V49h-1.712v-9.208l.384.392h-3.616ZM447.926 49V38.712h6.544v1.472h-4.832v2.912h4.544v1.48h-4.544v2.928h4.832V49h-6.544Zm9.282 0V38.712h3.752c1.216 0 2.144.285 2.784.856.645.57.968 1.325.968 2.264 0 .928-.323 1.677-.968 2.248-.64.57-1.568.856-2.784.856h-2.04V49h-1.712Zm5.624 0-2.784-4.784h1.832L465.064 49h-2.232Zm-3.912-5.224h1.872c.709 0 1.248-.165 1.616-.496.368-.336.552-.768.552-1.296 0-.544-.171-.979-.512-1.304-.336-.33-.832-.496-1.488-.496h-2.04v3.592ZM466.212 49l3.512-10.288h2.136L475.252 49h-1.8l-.76-2.336h-3.896L468.028 49h-1.816Zm3.024-3.632h3.048l-1.52-4.608-1.528 4.608Zm11.605 3.848c-.901 0-1.685-.219-2.352-.656-.667-.437-1.184-1.059-1.552-1.864-.363-.805-.544-1.765-.544-2.88 0-1.157.192-2.128.576-2.912.384-.79.912-1.384 1.584-1.784.672-.405 1.435-.608 2.288-.608 1.173 0 2.096.288 2.768.864.677.57 1.117 1.312 1.32 2.224l-1.832.344c-.176-.565-.459-1.021-.848-1.368-.384-.347-.853-.52-1.408-.52a2.2 2.2 0 0 0-1.312.424c-.395.277-.709.696-.944 1.256-.229.555-.344 1.248-.344 2.08 0 .779.099 1.456.296 2.032.203.57.496 1.013.88 1.328.389.315.864.472 1.424.472.709 0 1.261-.19 1.656-.568.4-.379.6-.864.6-1.456h1.84c0 .757-.168 1.403-.504 1.936-.331.533-.803.944-1.416 1.232-.608.283-1.333.424-2.176.424Zm4.927-9.032v-1.472h8.184v1.472h-3.624l.384-.392V49H489v-9.208l.384.392h-3.616ZM495.567 49V38.712h1.712V49h-1.712Zm8.622.216c-.896 0-1.691-.2-2.384-.6-.694-.4-1.238-.997-1.632-1.792-.395-.795-.592-1.784-.592-2.968 0-1.205.197-2.203.592-2.992.394-.79.938-1.379 1.632-1.768.693-.39 1.488-.584 2.384-.584.901 0 1.698.2 2.392.6.698.395 1.242.99 1.632 1.784.394.79.592 1.776.592 2.96 0 1.195-.198 2.192-.592 2.992-.39.795-.934 1.39-1.632 1.784-.694.39-1.491.584-2.392.584Zm0-1.56c.874 0 1.568-.325 2.08-.976.512-.656.767-1.603.767-2.84 0-1.205-.255-2.139-.767-2.8s-1.206-.992-2.08-.992c-.859 0-1.547.333-2.064 1-.512.661-.768 1.597-.768 2.808 0 1.232.256 2.173.768 2.824.517.65 1.205.976 2.064.976Zm6.885-8.944h1.904l4.824 7.64h-.136v-7.64h1.712V49h-1.768l-5.096-8.048h.272V49h-1.712V38.712Z"/><defs><clipPath id="a"><rect width="200" height="433.067" x="339" y="76" fill="#fff" rx="20"/></clipPath><clipPath id="b"><rect width="200" height="433.067" x="59" y="76" fill="#fff" rx="20"/></clipPath></defs></svg>