<svg xmlns="http://www.w3.org/2000/svg" width="598" height="392" fill="none"><path fill="#fff" d="M0 0h598v392H0z"/><path fill="#FF7B00" d="M52.211 296.017c2.617 6.324 7.336 8.603 16.676 11.274l.134-.119c6.146-5.449 8.987-7.968 9.358-17.93.374-10.034-10.984-15.191-16.801-13.527-5.818 1.665-11.983 13.979-9.367 20.302Z"/><path fill="#FF7B00" d="M66.903 326.241c4.168-5.428 3.783-10.654 1.425-20.079l-.17-.057c-7.792-2.597-11.394-3.798-20.207.861-8.877 4.694-7.664 17.108-3.314 21.314 4.35 4.206 18.098 3.388 22.266-2.039Z"/><path fill="#FF7B00" d="M85.165 297.694c-6.785-.896-11.119 2.051-18.102 8.805l.037.176c1.646 8.046 2.407 11.766 10.848 17.068 8.503 5.341 18.648-1.916 20.115-7.787 1.468-5.87-6.114-17.367-12.898-18.262Z"/><path fill="#000" fill-rule="evenodd" d="M74.206 330.905c3.288-.533 6.014-.975-2.47-7.235-.968 2.799-2.162 8.227.806 7.542a25.822 25.822 0 0 1 1.664-.307Z" clip-rule="evenodd"/><path fill="#02B9BF" fill-rule="evenodd" d="M44.18 299.67c-1.458 2.996-2.666 5.479 7.337 2.147-1.732-2.404-5.483-6.505-6.63-3.684a25.91 25.91 0 0 1-.708 1.537Z" clip-rule="evenodd"/><path fill="#FF0404" fill-rule="evenodd" d="M86.841 289.446c-1.878-2.751-3.435-5.032-5.504 5.306 2.946-.311 8.367-1.533 6.487-3.93a25.55 25.55 0 0 1-.983-1.376Z" clip-rule="evenodd"/><path fill="#000" d="M229.938 88.575a.543.543 0 0 0-.324-1.036l.162.518.162.518Zm3.867 16.388a2.894 2.894 0 1 0 5.789 0 2.894 2.894 0 0 0-5.789 0Zm-4.029-16.906-.162-.518c-1.276.398-2.618 1.1-3.627 2.103-1.017 1.01-1.713 2.346-1.617 3.971.096 1.611.964 3.407 2.857 5.364 1.895 1.958 4.852 4.117 9.215 6.464l.257-.478.257-.478c-4.309-2.318-7.16-4.414-8.949-6.263-1.789-1.85-2.479-3.413-2.553-4.673-.074-1.246.447-2.292 1.298-3.137.857-.852 2.033-1.477 3.186-1.837l-.162-.518Z"/><path fill="#000" d="M222.075 81.103a.542.542 0 1 0-.998.427l.499-.214.499-.213Zm11.728 23.678a2.894 2.894 0 1 0 5.789 0 2.894 2.894 0 0 0-5.789 0Zm-12.227-23.465-.499.214c.24.558.376 1.287.451 2.178.076.888.088 1.894.101 2.998.025 2.188.052 4.73.625 7.216.576 2.5 1.708 4.966 3.953 7.005 2.242 2.036 5.549 3.604 10.404 4.39l.086-.536.087-.536c-4.709-.762-7.802-2.264-9.847-4.121-2.042-1.855-3.085-4.104-3.625-6.446-.543-2.354-.572-4.78-.598-6.985-.013-1.093-.025-2.141-.104-3.077-.079-.931-.227-1.796-.535-2.513l-.499.213Z"/><path fill="#000" d="M215.918 90.338a.543.543 0 0 0-1.072.175l.536-.088.536-.087Zm17.703 14.625a2.894 2.894 0 1 0 5.788 0 2.894 2.894 0 0 0-5.788 0Zm-18.239-14.538-.536.088c.502 3.069 2.295 7.618 5.788 11.005 3.52 3.413 8.746 5.62 16.001 3.974l-.12-.529-.12-.529c-6.882 1.561-11.737-.526-15.006-3.695-3.296-3.196-5.001-7.519-5.471-10.401l-.536.087Z"/><path fill="#FF7B00" d="M194.814 66.016c2.044-1.8 7.232-4.526 12.799-2.394-.027.38-.037.708-.037.972.007 2.88 3.47 11.396 9.3 16.005.745.588 1.441 1.017 2.096 1.316a5.727 5.727 0 0 1-.188 1.047c-.775 2.658-.584 6.208-2.809 8.175 8.124-1.209 5.277 1.033 3.928 3.182-1.08 1.72-3.069-1.405-3.928-3.182-1.009.891-2.515 1.457-4.833 1.466-7.432.03-15.449-4.47-17.249-6.72-1.94-2.422-8.268-12.757.921-19.867Zm39.351-3.426c3.878-2.663 9.95-4.854 15.937.385 2.368 1.822 6.558 7.141 4.372 13.845-2.733 8.38-12.389 13.3-16.397 12.935-2.757-.25-6.205.62-8.562-1.187 2.747 7.74 0 5.377-2.368 4.466-1.895-.729.789-3.28 2.368-4.466-1.069-.819-1.914-2.187-2.368-4.46-.294-1.47-.411-3-.396-4.522.707-.633 1.4-1.262 2.112-1.764 2.605-1.836 5.763-8.492 5.302-15.232ZM220.68 49.63c2.984-.146 9.623 1.194 12.299 7.719.695 1.695 1.065 3.471 1.186 5.24-1.786 1.227-3.107 2.554-3.739 3.3-1.485 1.756-3.616 7.674-3.675 13.697-1.54 1.38-3.148 2.775-5.181 2.878 7.106 4.119 3.482 4.097 1.087 4.936-1.915.672-1.523-3.01-1.087-4.936-.795.04-1.653-.118-2.598-.549.431-4.445-2.647-13.581-9.731-17.53a12.545 12.545 0 0 0-1.628-.763c.284-4.087 2.436-14.145 13.067-13.992ZM67.172 205.37h7.563c7-13.78 6.421-18.923 8.103-33.492.54-8.103-6.68-21.92-13.114-20.961-6.434.958-9.925 10.3-10.982 26.445l8.43 28.008Z"/><path fill="#FF7B00" d="m75.488 205.241 3.724-.001c6.999-13.78 15.45-19.874 17.132-34.443-2.667-12.591-18.466-21.941-20.527-19.987-2.062 1.953 15.102 10.324 14.045 26.469l-14.374 27.962Zm-8.713.131-7.562-1.081c-6.999-13.78-12.918-18.511-14.6-33.08 2.667-12.591 18.536-21.943 20.598-19.99 2.061 1.953-15.196 10.953-14.14 27.098l15.704 27.053Z"/><path fill="#000" d="m58.709 223.575.276-14.281 21.858.42-.415 13.861h-21.72Zm148.669-2.231.379-19.689 29.912.579-.568 19.11h-29.723Z"/><path fill="#000" d="m207.378 221.344.379-19.689 29.912.579-.568 19.11h-29.723Z"/><path fill="#FF7B00" d="M255.085 173.094c0 13.083-32.183 26.29-32.183 26.29s-32.941-13.207-32.941-26.29c0-13.083 14.578-23.69 32.562-23.69 17.984 0 32.562 10.607 32.562 23.69Z"/><path fill="#000" d="M245.242 173.094c0 13.083-22.34 26.29-22.34 26.29s-23.096-13.207-23.096-26.29c0-13.083 10.171-23.69 22.718-23.69 12.546 0 22.718 10.607 22.718 23.69Z"/><path fill="#FF7B00" d="M233.882 173.492c0 12.886-10.98 25.892-10.98 25.892s-10.981-13.006-10.981-25.892c0-12.885 4.916-23.33 10.981-23.33 6.064 0 10.98 10.445 10.98 23.33Z"/><path fill="#FF7B00" d="M255.085 173.094c0 13.083-32.183 26.29-32.183 26.29s-32.941-13.207-32.941-26.29c0-13.083 14.578-23.69 32.562-23.69 17.984 0 32.562 10.607 32.562 23.69Z"/><path fill="#fff" d="M245.242 173.094c0 13.083-22.34 26.29-22.34 26.29s-23.096-13.207-23.096-26.29c0-13.083 10.171-23.69 22.718-23.69 12.546 0 22.718 10.607 22.718 23.69Z"/><path fill="#FF7B00" d="M233.882 173.492c0 12.886-10.98 25.892-10.98 25.892s-10.981-13.006-10.981-25.892c0-12.885 4.916-23.33 10.981-23.33 6.064 0 10.98 10.445 10.98 23.33Z"/><path fill="#000" d="m359.415 221.34.376-19.441 29.756.572-.565 18.869h-29.567Z"/><path fill="#000" d="m359.415 221.34.376-19.441 29.756.572-.565 18.869h-29.567Z"/><path fill="#FF7B00" d="M407.044 173.1c0 13.083-32.184 26.29-32.184 26.29s-32.941-13.207-32.941-26.29c0-13.084 14.579-23.69 32.562-23.69 17.984 0 32.563 10.606 32.563 23.69Z"/><path fill="#000" d="M397.198 173.1c0 13.083-22.34 26.29-22.34 26.29s-23.096-13.207-23.096-26.29c0-13.084 10.171-23.69 22.718-23.69s22.718 10.606 22.718 23.69Z"/><path fill="#FF7B00" d="M385.84 173.499c0 12.885-10.98 25.891-10.98 25.891s-10.981-13.006-10.981-25.891c0-12.886 4.916-23.331 10.981-23.331 6.064 0 10.98 10.445 10.98 23.331Z"/><path fill="#FF7B00" d="M407.044 173.1c0 13.083-32.184 26.29-32.184 26.29s-32.941-13.207-32.941-26.29c0-13.084 14.579-23.69 32.562-23.69 17.984 0 32.563 10.606 32.563 23.69Z"/><path fill="#000" d="M397.198 173.1c0 13.083-22.34 26.29-22.34 26.29s-23.096-13.207-23.096-26.29c0-13.084 10.171-23.69 22.718-23.69s22.718 10.606 22.718 23.69Z"/><path fill="#FF7B00" d="M385.84 173.499c0 12.885-10.98 25.891-10.98 25.891s-10.981-13.006-10.981-25.891c0-12.886 4.916-23.331 10.981-23.331 6.064 0 10.98 10.445 10.98 23.331Zm9.371-90.566c5.127.258 11.644 4.36 11.386 9.488-.258 5.127-7.009 8.534-12.136 8.276 0 0 .168-3.883.426-9.01s.324-8.754.324-8.754ZM374.21 54.992c3.161-4.045 10.267-7.015 14.312-3.854 4.045 3.161 2.947 10.643-.214 14.688 0 0-3.079-2.371-7.124-5.532s-6.974-5.302-6.974-5.302Zm-15.608 10.413c-8.077 4.047-9.906 12.048-9.442 19.094.439 6.663 3.663 13.61 9.758 16.336 3.605 1.612 8.855 2.174 17.509.235 17.263-3.866 10.914-23.07 8.919-27.704-2.292-5.322-11.175-15.761-26.744-7.96ZM513.943 46.47 493.878 45l1.201 62.394 17.149 1.47 1.715-62.393Zm6.002 63.655V45.63l9.947-.63 1.715 63.864-11.662 1.261Zm17.664-1.261L535.551 45h6.174l2.572 63.864h-6.688Z"/><path fill="#E74F0C" d="M394.251 297.238c5.518-10.993-.322-21.26-3.932-25.019-13.087-15.476-30.62-3.664-34.693-.102-3.783 3.307-11.019 17.617-10.405 30.565.191 4.04 1.291 6.621 2.921 8.312 3.595 3.729 9.768 3.127 14.459 4.278 6.817 1.673 24.752-4.293 31.65-18.034Z"/><path fill="#FF7B00" d="M385.622 336.536c9.816-2.091 13.378-11.046 13.932-15.263 3.184-16.227-13.281-21.372-17.627-22.151-4.035-.722-16.84 1.965-24.775 8.959-2.475 2.182-3.559 4.199-3.805 6.099-.542 4.192 2.99 7.816 4.648 11.391 2.411 5.196 15.357 13.578 27.627 10.965Z"/><path fill="#02B9BF" d="M356.385 308.661c-2.044-4.585-8.178-4.811-11.04-3.48-2.453 1.433-4.089 3.48-3.169 8.803.92 5.322 5.929 6.039 9.711 5.834 3.782-.205 7.054-5.425 4.498-11.157Z"/><path fill="#000" d="M525.047 306.027c12.455-1.683 35.3-7.533 27.031-17.467-10.336-12.418-18.265-34.089-27.031 17.467Z"/><path fill="#FF7B00" d="M525.54 310.158c8.851-1.337 25.637-1.9 21.968 6.543-4.586 10.553-5.678 26.952-21.968-6.543Zm-4.164-3.825c-9.121.764-26.284.2-21.969-8.164 5.395-10.456 7.621-27.113 21.969 8.164Zm.458 4.12c-9.072 1.219-25.711 5.465-19.695 12.704 7.52 9.049 13.281 24.835 19.695-12.704ZM220.397 296.76c-.579 13.672 1.32 39.273 13.549 32.312 15.285-8.702 40.028-13.053-13.549-32.312Z"/><path fill="#FF7B00" d="M221.958 309.054c12.299-5.998 33.911-19.853 21.969-27.294-14.928-9.302-30.531-28.992-21.969 27.294Z"/><path fill="#FF7B00" d="M230.795 303.978c-9.643-9.708-29.727-25.698-32.92-11.994-3.991 17.13-17.598 38.249 32.92 11.994Z"/><path fill="#02B9BF" d="M229.363 300.545c-1.259-2.823-5.034-2.961-6.796-2.142-1.51.882-2.517 2.142-1.951 5.418.567 3.277 3.65 3.718 5.978 3.592 2.328-.126 4.342-3.34 2.769-6.868Z"/><path fill="#FF7B00" d="M100.481 57.814c-5.963-13.376-23.852-14.033-32.2-10.152-7.156 4.18-11.927 10.152-9.244 25.677 2.684 15.525 17.294 17.614 28.325 17.017 11.032-.597 20.573-15.823 13.119-32.542Z"/><path fill="#E74F0C" d="m76.758 104.791 8.479-5.281 11.988-7.118c1.447-.86 3.279.184 3.279 1.866v13.03a2.17 2.17 0 0 1-2.24 2.169l-20.427-.653c-2.146-.069-2.9-2.878-1.079-4.013Zm-12.948 1.798 13.476-8.188c1.702-1.035 1.23-3.624-.728-3.99l-18.375-3.434a2.17 2.17 0 0 1-1.758-1.883L51.602 47.66a2.17 2.17 0 0 0-2.31-1.914l-9.158.654a2.17 2.17 0 0 0-2.013 2.285l3.108 56.17a2.171 2.171 0 0 0 2.168 2.051h19.285c.398 0 .787-.11 1.127-.316Z"/><path fill="#000" d="m520.447 191.334-1.031 1.63 4.029 8.828 9.504 15.241 3.201-.985-8.244-12.565-1.291-4.198-6.168-7.951Z"/><path fill="#FF7B00" fill-rule="evenodd" d="m532.859 221.593-1.535-32.535h4.911v36.832l-3.376-4.297Z" clip-rule="evenodd"/><path fill="#000" stroke="#000" stroke-width=".543" d="M517.087 171.996c1.136 8.662 6.202 13.032 16.838 19.411l.205-.102c9.377-4.689 13.713-6.856 17.462-19.017 3.776-12.25-8.524-22.361-16.248-22.231-7.723.13-19.394 13.278-18.257 21.939Z"/><path fill="#FF7B00" d="M499.596 194.171c6.018 6.332 12.686 6.882 25.038 5.777l.105-.203c4.821-9.311 7.049-13.615 2.921-25.653-4.159-12.125-20.055-13.057-26.222-8.405-6.167 4.653-7.86 22.151-1.842 28.484Z"/><path fill="#02B9BF" d="m542.015 203.055-9.262 3.004 6.154 3.478 3.108-6.482Z"/></svg>