<svg xmlns="http://www.w3.org/2000/svg" width="511" height="451" fill="none"><rect width="510" height="449.565" x=".5" y=".906" fill="#0C0D0E" rx="19.5"/><rect width="510" height="449.565" x=".5" y=".906" stroke="#767F87" rx="19.5"/><path fill="#fff" d="M236.161 346.327c-7.637 0-13.53-2.766-17.679-8.299-4.089-5.592-6.134-13.65-6.134-24.174 0-7.276.962-13.47 2.887-18.581 1.984-5.112 4.81-8.991 8.479-11.637 3.668-2.706 8.028-4.059 13.079-4.059 5.532 0 10.102 1.594 13.711 4.781 3.608 3.187 5.803 7.577 6.584 13.17h-7.937c-.542-3.729-1.925-6.555-4.15-8.479-2.165-1.985-4.931-2.977-8.298-2.977-5.352 0-9.411 2.285-12.178 6.855-2.706 4.571-4.059 11.426-4.059 20.566v5.863l-2.074-.811c.541-2.827 1.744-5.292 3.608-7.397 1.864-2.105 4.179-3.728 6.945-4.871 2.766-1.203 5.743-1.804 8.93-1.804 4.089 0 7.637.902 10.644 2.706 3.067 1.744 5.442 4.21 7.126 7.397 1.744 3.127 2.616 6.795 2.616 11.004 0 4.15-.932 7.788-2.796 10.915-1.865 3.127-4.45 5.562-7.758 7.306-3.307 1.684-7.156 2.526-11.546 2.526Zm.271-6.495c4.089 0 7.397-1.293 9.922-3.878 2.526-2.586 3.789-6.074 3.789-10.464 0-4.57-1.233-8.148-3.699-10.734-2.405-2.646-5.803-3.969-10.192-3.969-4.21 0-7.728 1.233-10.554 3.699-2.766 2.465-4.149 5.863-4.149 10.192 0 3.007.631 5.653 1.894 7.938 1.323 2.285 3.097 4.059 5.322 5.322 2.285 1.263 4.841 1.894 7.667 1.894Zm51.743 6.495c-6.435 0-11.576-1.714-15.425-5.142-3.848-3.487-6.194-7.998-7.035-13.53h7.937c.782 3.909 2.436 6.916 4.961 9.02 2.586 2.105 5.713 3.157 9.381 3.157 3.849 0 7.096-1.202 9.742-3.608 2.706-2.405 4.059-6.224 4.059-11.455 0-5.232-1.353-9.141-4.059-11.727-2.646-2.646-6.013-3.969-10.102-3.969-2.947 0-5.503.602-7.668 1.804-2.164 1.203-3.608 2.616-4.329 4.24h-6.675l2.976-34.638h34.277v6.495h-29.857l2.526-2.706-2.075 26.158-1.713-.631c1.082-1.804 2.826-3.368 5.231-4.69 2.406-1.323 5.352-1.985 8.84-1.985 4.029 0 7.577.872 10.644 2.616 3.127 1.744 5.562 4.239 7.306 7.487 1.804 3.187 2.706 7.035 2.706 11.546 0 4.51-.902 8.388-2.706 11.636-1.744 3.187-4.239 5.652-7.487 7.396-3.187 1.684-7.005 2.526-11.455 2.526Zm-11.683 20.554v-9.305h1.368v2.189h.091v7.116h-1.459Zm6.276 0v-6.167c0-.705-.158-1.222-.474-1.551-.317-.328-.773-.492-1.369-.492-.559 0-1.064.134-1.514.401-.45.268-.809.639-1.076 1.113-.256.474-.384 1.028-.384 1.66l-.237-2.207a3.735 3.735 0 0 1 1.423-1.642 3.771 3.771 0 0 1 2.062-.602c.9 0 1.63.267 2.189.802.56.523.84 1.235.84 2.135v6.55h-1.46Zm6.276 0v-6.167c0-.705-.158-1.222-.474-1.551-.316-.328-.772-.492-1.368-.492-.56 0-1.065.134-1.515.401-.45.268-.809.639-1.076 1.113-.256.474-.383 1.028-.383 1.66l-.365-2.207a3.668 3.668 0 0 1 1.459-1.642 3.985 3.985 0 0 1 2.117-.602c.9 0 1.636.267 2.207.802.572.523.858 1.235.858 2.135v6.55h-1.46Zm8.865.164c-.876 0-1.612-.213-2.208-.639-.596-.425-1.003-1.027-1.222-1.806l.292-.036v6.057h-1.46v-13.045h1.369v2.171l-.201-.055a3.005 3.005 0 0 1 1.314-1.678c.644-.414 1.392-.62 2.244-.62.827 0 1.544.2 2.153.602.62.401 1.1.961 1.441 1.678.34.718.511 1.557.511 2.518 0 .973-.177 1.824-.529 2.554-.353.73-.846 1.296-1.478 1.697-.633.401-1.375.602-2.226.602Zm-.219-1.277c.924 0 1.648-.316 2.171-.949.523-.644.785-1.52.785-2.627 0-1.095-.262-1.952-.785-2.573-.523-.632-1.247-.948-2.171-.948-.924 0-1.654.322-2.189.967-.536.632-.803 1.502-.803 2.609 0 1.082.267 1.94.803 2.572.535.633 1.265.949 2.189.949Zm6.686 1.113v-13.136h1.459v13.136h-1.459Zm6.659 0v-6.094c0-.705-.176-1.234-.529-1.587-.353-.353-.876-.529-1.569-.529-.608 0-1.15.134-1.624.401a2.927 2.927 0 0 0-1.095 1.113c-.255.474-.383 1.028-.383 1.66l-.237-2.207a3.7 3.7 0 0 1 1.441-1.642c.657-.402 1.399-.602 2.226-.602.973 0 1.752.279 2.336.839.596.547.894 1.271.894 2.171v6.477h-1.46Z"/><path fill="#2A2A2A" d="m415.559 409.658-3.397 4.273h-91.279l-18.725-20.071h5.711l14.58 15.798h93.11Z"/><path fill="#8A8A8A" d="m361.897 409.66-3.619 4.272-37.394.001-18.602-19.941h5.713l14.677 15.669 39.225-.001Z"/><path fill="#fff" d="M328.451 425.365a.438.438 0 0 1 .045.411l-.881 2.202a.442.442 0 0 1-.815.009.44.44 0 0 1-.003-.338l.639-1.596h-1.111a.446.446 0 0 1-.439-.394.451.451 0 0 1 .03-.212l.881-2.202a.418.418 0 0 1 .094-.144.46.46 0 0 1 .142-.097.445.445 0 0 1 .579.234c.022.053.034.11.035.168a.461.461 0 0 1-.032.169l-.639 1.597h1.111c.072 0 .142.018.206.051a.45.45 0 0 1 .158.142Zm6.242-2.03v4.48a1.32 1.32 0 0 1-2.642 0v-2.203a.444.444 0 0 0-.441-.44h-.881v4.845h.881a.44.44 0 1 1 0 .881h-8.809a.444.444 0 0 1-.44-.441.44.44 0 0 1 .44-.44h.881v-8.369a1.32 1.32 0 0 1 1.322-1.321h4.404a1.32 1.32 0 0 1 1.321 1.321v2.643h.881a1.317 1.317 0 0 1 1.321 1.321v2.203a.444.444 0 0 0 .441.44.44.44 0 0 0 .44-.44v-4.48a.436.436 0 0 0-.129-.31l-1.063-1.065a.44.44 0 1 1 .623-.623l1.065 1.064a1.302 1.302 0 0 1 .385.934Zm-4.845 6.682v-8.369a.44.44 0 0 0-.44-.44h-4.404a.44.44 0 0 0-.441.44v8.369h5.285Zm13.85-.569a2.76 2.76 0 0 1-1.193-.244 2.115 2.115 0 0 1-.827-.733c-.206-.319-.335-.704-.385-1.155h.808c.069.469.241.83.517 1.08.275.251.639.376 1.09.376.426 0 .761-.113 1.005-.338.244-.226.367-.533.367-.921 0-.407-.119-.736-.357-.987-.238-.257-.558-.385-.959-.385h-.845v-.658h.817c.363 0 .651-.103.864-.31.22-.213.329-.495.329-.845 0-.37-.116-.655-.347-.855-.226-.201-.533-.301-.921-.301-.382 0-.708.113-.977.338-.27.219-.429.536-.48.949h-.817c.038-.401.157-.745.357-1.033.2-.295.467-.523.799-.686a2.584 2.584 0 0 1 1.137-.245c.407 0 .767.072 1.08.216a1.7 1.7 0 0 1 .733.621c.175.263.263.573.263.93 0 .319-.072.601-.216.845a1.526 1.526 0 0 1-.592.574 1.699 1.699 0 0 1-.846.206l-.056-.197c.382 0 .711.081.987.244.282.157.498.373.648.649a1.9 1.9 0 0 1 .235.958c0 .376-.094.708-.282.996a1.918 1.918 0 0 1-.78.677 2.69 2.69 0 0 1-1.156.234Zm5.358 0c-.67 0-1.206-.178-1.607-.535-.4-.363-.645-.833-.732-1.41h.826c.082.408.254.721.517.94a1.5 1.5 0 0 0 .977.329c.401 0 .74-.125 1.015-.376.282-.25.423-.648.423-1.193s-.141-.952-.423-1.222c-.275-.275-.626-.413-1.052-.413-.307 0-.573.063-.799.188-.225.125-.376.272-.451.441h-.695l.31-3.608h3.57v.677h-3.11l.263-.282-.216 2.725-.178-.066c.113-.188.294-.351.545-.489.25-.137.557-.206.921-.206.419 0 .789.091 1.108.272a1.9 1.9 0 0 1 .761.78c.188.332.282.733.282 1.203 0 .47-.094.874-.282 1.212a1.874 1.874 0 0 1-.78.77c-.332.176-.729.263-1.193.263Zm5.781 0c-.533 0-.999-.147-1.4-.441-.395-.301-.705-.714-.93-1.24-.22-.533-.329-1.14-.329-1.823s.109-1.281.329-1.795c.219-.52.529-.924.93-1.212a2.304 2.304 0 0 1 1.4-.442c.532 0 .996.148 1.39.442.401.288.711.692.931 1.212.225.514.338 1.112.338 1.795 0 .689-.113 1.296-.338 1.823-.22.526-.53.939-.931 1.24-.394.294-.858.441-1.39.441Zm0-.676c.382 0 .708-.113.977-.338.269-.232.476-.558.62-.978.144-.425.216-.933.216-1.522 0-.582-.072-1.08-.216-1.494-.138-.413-.341-.726-.611-.939-.269-.219-.598-.329-.986-.329-.389 0-.717.11-.987.329-.269.219-.476.535-.62.949-.138.407-.207.902-.207 1.484 0 .589.072 1.097.216 1.522.145.426.351.752.621.978.269.225.595.338.977.338Zm5.762.582v-4.791h.704v1.127h.047v3.664h-.751Zm3.232 0v-3.175c0-.364-.082-.63-.244-.799-.163-.169-.398-.254-.705-.254a1.497 1.497 0 0 0-1.334.78 1.77 1.77 0 0 0-.198.855l-.122-1.137a1.92 1.92 0 0 1 .733-.845c.326-.207.68-.31 1.062-.31.463 0 .839.137 1.127.413.288.269.432.636.432 1.099v3.373h-.751Zm3.232 0v-3.175c0-.364-.081-.63-.244-.799-.163-.169-.398-.254-.705-.254a1.497 1.497 0 0 0-1.334.78 1.77 1.77 0 0 0-.198.855l-.187-1.137a1.88 1.88 0 0 1 .751-.845c.339-.207.702-.31 1.09-.31.464 0 .843.137 1.137.413.295.269.442.636.442 1.099v3.373h-.752Zm2.198 0v-4.791h.751v4.791h-.751Zm-.057-5.881v-.884h.865v.884h-.865Z"/><path fill="#2A2A2A" d="m282.425 407.735-3.818 7.083H141.429l-35.722-39.26h8.73l30.029 32.176 137.959.001Z"/><path fill="#8A8A8A" d="m196.898 407.739-3.818 7.084-51.652.001 3.037-7.084 52.433-.001Z"/><path stroke="#fff" stroke-width=".705" d="m192.308 415.901 5.716-10.289"/><g clip-path="url(#a)"><path fill="#fff" d="M152.913 425.755a.436.436 0 0 0-.275-.312l-3.172-1.19.807-4.037a.434.434 0 0 0-.231-.476.443.443 0 0 0-.522.091l-6.167 6.606a.438.438 0 0 0-.109.403.442.442 0 0 0 .275.313l3.172 1.19-.804 4.033a.444.444 0 0 0 .508.518.44.44 0 0 0 .245-.133l6.166-6.607a.435.435 0 0 0 .107-.399Zm-5.859 5.276.577-2.884a.44.44 0 0 0-.276-.499l-2.909-1.093 4.659-4.991-.576 2.884a.444.444 0 0 0 .275.498l2.907 1.09-4.657 4.995Z"/></g><path fill="#fff" d="M158.028 429.796v-.658a37.219 37.219 0 0 0 1.691-1.466c.458-.419.821-.792 1.09-1.118.276-.325.47-.623.583-.892a2.03 2.03 0 0 0 .178-.808c0-.389-.115-.693-.347-.912-.232-.219-.551-.329-.959-.329-.419 0-.758.119-1.014.357-.257.238-.414.58-.47 1.025h-.808c.062-.614.297-1.109.704-1.485.414-.382.962-.573 1.645-.573.632 0 1.137.169 1.512.507.376.338.564.802.564 1.391 0 .319-.062.639-.188.958-.119.32-.319.655-.601 1.006-.276.35-.642.739-1.099 1.165-.451.419-1.012.895-1.682 1.428l-.179-.273h3.862v.677h-4.482Zm5.33 0v-.968h.968v.968h-.968Zm4.012.094c-.451 0-.848-.082-1.193-.244a2.13 2.13 0 0 1-.827-.733c-.206-.32-.335-.705-.385-1.156h.808c.069.47.241.83.517 1.081.275.25.639.375 1.09.375.426 0 .761-.112 1.005-.338.244-.225.367-.532.367-.921 0-.407-.119-.736-.357-.986-.238-.257-.558-.386-.959-.386h-.845v-.657h.817c.363 0 .651-.104.864-.31.22-.213.329-.495.329-.846 0-.37-.116-.655-.347-.855-.226-.2-.533-.301-.921-.301-.382 0-.708.113-.977.339-.27.219-.429.535-.48.949h-.817c.038-.401.157-.746.357-1.034.2-.294.467-.523.799-.686a2.584 2.584 0 0 1 1.137-.244c.407 0 .767.072 1.08.216.313.144.558.351.733.62.175.263.263.573.263.93 0 .32-.072.602-.216.846a1.53 1.53 0 0 1-.592.573 1.689 1.689 0 0 1-.846.207l-.056-.198c.382 0 .711.082.987.245.282.156.498.372.648.648.157.276.235.595.235.958 0 .376-.094.708-.282.996a1.91 1.91 0 0 1-.78.677c-.332.157-.717.235-1.156.235Zm5.247-.094v-4.792h.705v1.127h.047v3.665h-.752Zm3.233 0v-3.176c0-.363-.082-.629-.245-.799-.163-.169-.398-.253-.704-.253a1.5 1.5 0 0 0-.78.206 1.523 1.523 0 0 0-.555.574 1.781 1.781 0 0 0-.197.855l-.122-1.137c.163-.357.407-.639.733-.846.325-.207.679-.31 1.061-.31.464 0 .84.138 1.128.413.288.27.432.636.432 1.1v3.373h-.751Zm3.232 0v-3.176c0-.363-.082-.629-.245-.799-.162-.169-.397-.253-.704-.253-.288 0-.548.069-.78.206a1.514 1.514 0 0 0-.554.574 1.77 1.77 0 0 0-.198.855l-.188-1.137c.163-.357.414-.639.752-.846.338-.207.702-.31 1.09-.31.463 0 .842.138 1.137.413.294.27.441.636.441 1.1v3.373h-.751Zm2.197 0v-4.792h.752v4.792h-.752Zm-.056-5.882v-.883h.864v.883h-.864ZM183 430.36l2.377-7.611h.658l-2.377 7.611H183Zm4.354-.564v-6.953h.751v6.953h-.751Zm3.129 0-2.547-2.49 2.453-2.302h1.033l-2.753 2.518.047-.442 2.8 2.716h-1.033Zm3.224 0-2.001-6.765h.789l1.794 6.248h-.14l1.757-6.248h.939l1.767 6.248h-.141l1.785-6.248h.742l-2.001 6.765h-.94l-1.757-6.061h.113l-1.767 6.061h-.939Zm8.511 0v-6.765h.752v6.765h-.752Zm3.43 0v-3.138c0-.364-.091-.636-.272-.818-.182-.181-.451-.272-.809-.272-.313 0-.591.069-.836.206a1.503 1.503 0 0 0-.564.574 1.781 1.781 0 0 0-.197.855l-.122-1.137a1.91 1.91 0 0 1 .742-.846c.339-.207.721-.31 1.147-.31.501 0 .902.144 1.202.432.307.282.461.655.461 1.118v3.336h-.752Z"/><path stroke="#191919" stroke-width="2.114" d="m139.851 415.954 6.532-10.145"/><path fill="#fff" d="M391.546 151.648c-7.638 0-13.531-2.766-17.68-8.298-4.089-5.593-6.134-13.651-6.134-24.175 0-7.276.962-13.47 2.887-18.581 1.984-5.112 4.81-8.99 8.479-11.636 3.668-2.706 8.028-4.06 13.079-4.06 5.532 0 10.103 1.594 13.711 4.781 3.608 3.188 5.803 7.577 6.584 13.17h-7.937c-.542-3.728-1.925-6.555-4.15-8.48-2.165-1.984-4.931-2.976-8.298-2.976-5.352 0-9.411 2.285-12.178 6.856-2.706 4.57-4.059 11.425-4.059 20.566v5.863l-2.074-.812c.541-2.826 1.744-5.292 3.608-7.397 1.864-2.104 4.179-3.728 6.945-4.871 2.767-1.202 5.743-1.804 8.93-1.804 4.09 0 7.637.902 10.644 2.706 3.067 1.744 5.442 4.21 7.126 7.397 1.744 3.127 2.616 6.795 2.616 11.005 0 4.149-.932 7.787-2.796 10.914-1.864 3.127-4.45 5.563-7.758 7.306-3.307 1.684-7.156 2.526-11.545 2.526Zm.27-6.494c4.089 0 7.397-1.293 9.922-3.879 2.526-2.586 3.789-6.074 3.789-10.464 0-4.57-1.233-8.148-3.698-10.734-2.406-2.645-5.803-3.968-10.193-3.968-4.21 0-7.728 1.232-10.554 3.698-2.766 2.465-4.149 5.863-4.149 10.193 0 3.006.631 5.652 1.894 7.937 1.323 2.286 3.097 4.06 5.322 5.322 2.285 1.263 4.841 1.895 7.667 1.895Zm51.743 6.494c-6.434 0-11.576-1.714-15.425-5.141-3.848-3.488-6.193-7.998-7.035-13.531h7.937c.782 3.909 2.436 6.916 4.962 9.021 2.585 2.104 5.712 3.157 9.381 3.157 3.848 0 7.095-1.203 9.741-3.609 2.706-2.405 4.059-6.223 4.059-11.455s-1.353-9.141-4.059-11.726c-2.646-2.646-6.013-3.969-10.102-3.969-2.947 0-5.503.601-7.667 1.804-2.165 1.202-3.609 2.616-4.33 4.239h-6.675l2.977-34.637h34.276v6.494h-29.857l2.526-2.706-2.075 26.159-1.713-.632c1.082-1.804 2.826-3.367 5.231-4.69 2.406-1.323 5.352-1.985 8.84-1.985 4.029 0 7.577.872 10.644 2.616 3.127 1.744 5.562 4.24 7.306 7.487 1.804 3.187 2.706 7.036 2.706 11.546s-.902 8.389-2.706 11.636c-1.744 3.187-4.239 5.653-7.486 7.396-3.188 1.684-7.006 2.526-11.456 2.526Zm-11.683 20.554v-9.305h1.368v2.19h.092v7.115h-1.46Zm6.276 0v-6.167c0-.705-.158-1.222-.474-1.55-.316-.329-.773-.493-1.369-.493-.559 0-1.064.134-1.514.401-.45.268-.809.639-1.076 1.113-.256.475-.383 1.028-.383 1.661l-.238-2.208a3.746 3.746 0 0 1 1.423-1.642 3.78 3.78 0 0 1 2.062-.602c.9 0 1.63.267 2.189.803.56.523.84 1.234.84 2.134v6.55h-1.46Zm6.276 0v-6.167c0-.705-.158-1.222-.474-1.55-.316-.329-.772-.493-1.368-.493-.56 0-1.065.134-1.515.401-.45.268-.809.639-1.076 1.113-.256.475-.383 1.028-.383 1.661l-.365-2.208a3.673 3.673 0 0 1 1.459-1.642 3.994 3.994 0 0 1 2.117-.602c.9 0 1.636.267 2.207.803.572.523.858 1.234.858 2.134v6.55h-1.46Zm8.865.164c-.876 0-1.612-.213-2.208-.638-.596-.426-1.003-1.028-1.222-1.806l.292-.037v6.057h-1.46v-13.045h1.369v2.171l-.201-.054a3.007 3.007 0 0 1 1.314-1.679c.644-.413 1.392-.62 2.244-.62.827 0 1.544.201 2.153.602.62.401 1.1.961 1.441 1.678.341.718.511 1.557.511 2.518 0 .973-.177 1.825-.529 2.555-.353.729-.846 1.295-1.478 1.696-.633.402-1.375.602-2.226.602Zm-.219-1.277c.924 0 1.648-.316 2.171-.949.523-.644.785-1.52.785-2.627 0-1.094-.262-1.952-.785-2.572-.523-.633-1.247-.949-2.171-.949-.924 0-1.654.322-2.189.967-.535.632-.803 1.502-.803 2.609 0 1.083.268 1.94.803 2.572.535.633 1.265.949 2.189.949Zm6.686 1.113v-13.136h1.459v13.136h-1.459Zm6.659 0v-6.094c0-.705-.176-1.234-.529-1.587-.353-.353-.876-.529-1.569-.529-.608 0-1.149.134-1.624.401a2.927 2.927 0 0 0-1.095 1.113c-.255.475-.383 1.028-.383 1.661l-.237-2.208a3.701 3.701 0 0 1 1.442-1.642c.656-.401 1.398-.602 2.225-.602.973 0 1.752.28 2.336.839.596.547.894 1.271.894 2.171v6.477h-1.46Z"/><path fill="#2A2A2A" d="m447.673 39.124-3.397-4.272h-91.279l-18.726 20.07h5.711l14.58-15.798h93.111Z"/><path fill="#8A8A8A" d="m394.01 39.122-3.62-4.271-37.394-.001-18.601 19.94h5.712l14.678-15.669 39.225.001Z"/><path fill="#2A2A2A" d="m493.372 204.601-3.818 7.084-137.179-.001-35.721-39.26h8.73l30.029 32.176 137.959.001Z"/><path fill="#8A8A8A" d="m407.844 204.599-3.818 7.084-51.651.002 3.037-7.084 52.432-.002Z"/><path stroke="#fff" stroke-width=".705" d="m403.254 212.763 5.716-10.289"/><g clip-path="url(#b)"><path fill="#fff" d="M360.009 24.592a.448.448 0 0 1 .044.41l-.881 2.203a.437.437 0 0 1-.573.244.443.443 0 0 1-.245-.573l.64-1.597h-1.111a.443.443 0 0 1-.366-.194.436.436 0 0 1-.044-.412l.881-2.201a.441.441 0 0 1 .818.33l-.639 1.596h1.111a.446.446 0 0 1 .365.194Zm6.242-2.03v4.48a1.32 1.32 0 1 1-2.643 0v-2.203a.439.439 0 0 0-.44-.44h-.881v4.844h.881a.438.438 0 0 1 .44.44.439.439 0 0 1-.44.441h-8.809a.438.438 0 0 1-.44-.44.439.439 0 0 1 .44-.44h.881v-8.369a1.32 1.32 0 0 1 1.321-1.321h4.405a1.322 1.322 0 0 1 1.321 1.321v2.643h.881a1.322 1.322 0 0 1 1.321 1.321v2.202a.443.443 0 0 0 .441.44.442.442 0 0 0 .44-.44v-4.48a.44.44 0 0 0-.129-.31l-1.063-1.064a.44.44 0 1 1 .623-.624l1.064 1.064a1.309 1.309 0 0 1 .386.934Zm-4.845 6.681v-8.368a.439.439 0 0 0-.44-.44h-4.405a.438.438 0 0 0-.44.44v8.368h5.285Z"/></g><path fill="#fff" d="M375.256 28.675c-.451 0-.849-.081-1.193-.244a2.119 2.119 0 0 1-.827-.733c-.207-.32-.335-.705-.385-1.156h.808c.069.47.241.83.517 1.08.275.251.639.377 1.09.377.425 0 .761-.113 1.005-.339.244-.225.366-.532.366-.92 0-.408-.119-.737-.357-.987-.238-.257-.557-.385-.958-.385h-.846v-.658h.818c.363 0 .651-.104.864-.31.219-.213.329-.495.329-.846 0-.37-.116-.654-.348-.855-.225-.2-.532-.3-.92-.3a1.47 1.47 0 0 0-.978.338c-.269.219-.429.535-.479.949h-.817c.037-.401.156-.746.357-1.034.2-.294.466-.523.798-.686a2.593 2.593 0 0 1 1.137-.244c.408 0 .768.072 1.081.216.313.144.557.35.733.62.175.263.263.573.263.93 0 .32-.072.602-.216.846a1.535 1.535 0 0 1-.592.573 1.69 1.69 0 0 1-.846.207l-.056-.197c.382 0 .711.081.986.244.282.156.498.373.649.648.156.276.235.595.235.959 0 .375-.094.707-.282.996a1.916 1.916 0 0 1-.78.676 2.681 2.681 0 0 1-1.156.235Zm5.358 0c-.67 0-1.206-.178-1.607-.536-.401-.363-.645-.833-.733-1.409h.827c.082.407.254.72.517.94.269.219.595.328.977.328.401 0 .739-.125 1.015-.375.282-.25.423-.649.423-1.194 0-.545-.141-.952-.423-1.221-.276-.276-.626-.413-1.052-.413-.307 0-.574.062-.799.187-.226.126-.376.273-.451.442h-.695l.31-3.608h3.57v.676h-3.11l.263-.282-.216 2.725-.178-.065c.112-.188.294-.351.544-.489.251-.138.558-.207.921-.207.42 0 .79.091 1.109.273.326.181.579.441.761.78.188.332.282.733.282 1.202 0 .47-.094.874-.282 1.213a1.89 1.89 0 0 1-.78.77c-.332.175-.73.263-1.193.263Zm5.781 0c-.533 0-1-.147-1.4-.442-.395-.3-.705-.714-.931-1.24-.219-.532-.329-1.14-.329-1.823s.11-1.28.329-1.794c.22-.52.53-.924.931-1.212.4-.295.867-.442 1.4-.442.532 0 .996.147 1.39.442.401.288.711.692.93 1.212.226.513.339 1.111.339 1.794 0 .69-.113 1.297-.339 1.823-.219.526-.529.94-.93 1.24-.394.295-.858.442-1.39.442Zm0-.677c.382 0 .707-.112.977-.338.269-.232.476-.557.62-.977.144-.426.216-.933.216-1.522 0-.583-.072-1.08-.216-1.494-.138-.414-.342-.727-.611-.94-.269-.219-.598-.329-.986-.329-.389 0-.718.11-.987.33-.269.219-.476.535-.62.948-.138.408-.207.902-.207 1.485 0 .589.072 1.096.216 1.522.144.426.351.752.62.977.27.226.595.338.978.338Zm5.761.583V23.79h.705v1.128h.047v3.664h-.752Zm3.233 0v-3.176c0-.363-.082-.63-.245-.799-.163-.169-.398-.253-.704-.253a1.492 1.492 0 0 0-1.335.78 1.781 1.781 0 0 0-.197.855l-.122-1.137c.163-.357.407-.64.733-.846a1.94 1.94 0 0 1 1.061-.31c.464 0 .84.138 1.128.413.288.27.432.636.432 1.1v3.373h-.751Zm3.232 0v-3.176c0-.363-.082-.63-.245-.799-.162-.169-.397-.253-.704-.253a1.497 1.497 0 0 0-1.334.78 1.77 1.77 0 0 0-.198.855l-.188-1.137c.163-.357.414-.64.752-.846a2.06 2.06 0 0 1 1.09-.31c.463 0 .842.138 1.137.413.294.27.441.636.441 1.1v3.373h-.751Zm2.197 0V23.79h.752v4.792h-.752Zm-.056-5.882v-.883h.864v.883h-.864Z"/><g clip-path="url(#c)"><path fill="#fff" d="M363.86 222.621a.449.449 0 0 0-.275-.312l-3.172-1.19.807-4.037a.441.441 0 0 0-.754-.385l-6.166 6.606a.444.444 0 0 0-.012.594.434.434 0 0 0 .177.122l3.173 1.19-.805 4.033a.441.441 0 0 0 .754.385l6.166-6.606a.436.436 0 0 0 .107-.4Zm-5.859 5.276.576-2.884a.438.438 0 0 0-.275-.499l-2.909-1.093 4.659-4.991-.576 2.884a.442.442 0 0 0 .275.499l2.907 1.09-4.657 4.994Z"/></g><path fill="#fff" d="M368.975 226.662v-.658a38.492 38.492 0 0 0 1.691-1.465c.457-.42.821-.793 1.09-1.119.276-.325.47-.623.583-.892a2.03 2.03 0 0 0 .178-.808c0-.389-.116-.692-.348-.912-.231-.219-.551-.328-.958-.328-.42 0-.758.119-1.015.357-.257.238-.413.579-.47 1.024h-.808c.063-.614.298-1.109.705-1.485.414-.382.962-.573 1.644-.573.633 0 1.137.169 1.513.507.376.339.564.802.564 1.391 0 .319-.063.639-.188.958-.119.32-.319.655-.601 1.006-.276.351-.642.739-1.1 1.165-.451.42-1.011.896-1.682 1.428l-.178-.272h3.862v.676h-4.482Zm5.33 0v-.968h.967v.968h-.967Zm4.012.094c-.451 0-.849-.081-1.193-.244a2.122 2.122 0 0 1-.827-.733c-.207-.32-.335-.705-.385-1.156h.808c.069.47.241.83.517 1.081.275.25.638.376 1.089.376.426 0 .762-.113 1.006-.339.244-.225.366-.532.366-.921 0-.407-.119-.736-.357-.986-.238-.257-.557-.385-.958-.385h-.846v-.658h.818c.363 0 .651-.103.864-.31.219-.213.329-.495.329-.846 0-.369-.116-.654-.348-.855-.225-.2-.532-.3-.921-.3a1.47 1.47 0 0 0-.977.338c-.269.219-.429.535-.479.949h-.817c.037-.401.156-.746.357-1.034.2-.294.466-.523.798-.686a2.59 2.59 0 0 1 1.137-.244c.407 0 .768.072 1.081.216.313.144.557.351.733.62.175.263.263.573.263.93 0 .32-.072.602-.216.846a1.538 1.538 0 0 1-.592.573 1.691 1.691 0 0 1-.846.207l-.056-.197c.382 0 .711.081.986.244.282.157.498.373.649.648.156.276.235.595.235.959 0 .376-.094.708-.282.996a1.916 1.916 0 0 1-.78.676c-.332.157-.717.235-1.156.235Zm5.247-.094v-4.792h.705v1.128h.047v3.664h-.752Zm3.232 0v-3.176c0-.363-.081-.629-.244-.798-.163-.17-.398-.254-.705-.254a1.497 1.497 0 0 0-1.334.78 1.77 1.77 0 0 0-.197.855l-.123-1.137c.163-.357.408-.639.733-.846.326-.206.68-.31 1.062-.31.464 0 .84.138 1.128.414.288.269.432.635.432 1.099v3.373h-.752Zm3.232 0v-3.176c0-.363-.081-.629-.244-.798-.163-.17-.398-.254-.705-.254a1.49 1.49 0 0 0-1.334.78 1.781 1.781 0 0 0-.197.855l-.188-1.137a1.89 1.89 0 0 1 .752-.846c.338-.206.701-.31 1.09-.31.463 0 .842.138 1.136.414.295.269.442.635.442 1.099v3.373h-.752Zm2.198 0v-4.792h.752v4.792h-.752Zm-.056-5.882v-.883h.864v.883h-.864Zm1.777 6.446 2.377-7.611h.657l-2.377 7.611h-.657Zm4.353-.564v-6.953h.752v6.953h-.752Zm3.129 0-2.546-2.49 2.452-2.302h1.034l-2.753 2.518.047-.441 2.8 2.715h-1.034Zm3.225 0-2.002-6.765h.789l1.795 6.248h-.141l1.757-6.248h.94l1.766 6.248h-.141l1.786-6.248h.742l-2.001 6.765h-.94l-1.757-6.06h.113l-1.767 6.06h-.939Zm8.511 0v-6.765h.752v6.765h-.752Zm3.43 0v-3.138c0-.363-.091-.636-.273-.818-.181-.181-.451-.272-.808-.272a1.67 1.67 0 0 0-.836.207 1.493 1.493 0 0 0-.564.573 1.781 1.781 0 0 0-.197.855l-.122-1.137a1.91 1.91 0 0 1 .742-.846c.338-.206.72-.31 1.146-.31.501 0 .902.144 1.203.432.307.282.46.655.46 1.119v3.335h-.751Z"/><path stroke="#191919" stroke-width="2.114" d="m350.797 212.815 6.533-10.144"/><path fill="#fff" d="M109.433 151.657c-7.637 0-13.53-2.766-17.68-8.299-4.09-5.592-6.134-13.65-6.134-24.174 0-7.276.963-13.47 2.887-18.581 1.984-5.112 4.81-8.99 8.479-11.636 3.668-2.707 8.028-4.06 13.079-4.06 5.532 0 10.103 1.594 13.711 4.781 3.608 3.187 5.803 7.577 6.585 13.17h-7.938c-.541-3.729-1.925-6.555-4.15-8.48-2.164-1.984-4.931-2.976-8.298-2.976-5.352 0-9.411 2.285-12.177 6.855-2.706 4.571-4.06 11.426-4.06 20.566v5.864l-2.074-.812c.541-2.827 1.744-5.292 3.608-7.397 1.864-2.105 4.18-3.728 6.946-4.871 2.766-1.202 5.742-1.804 8.93-1.804 4.089 0 7.637.902 10.643 2.706 3.067 1.744 5.443 4.21 7.126 7.397 1.744 3.127 2.616 6.795 2.616 11.004 0 4.15-.932 7.788-2.796 10.915-1.864 3.127-4.45 5.562-7.757 7.306-3.308 1.684-7.157 2.526-11.546 2.526Zm.27-6.495c4.089 0 7.397-1.293 9.922-3.878 2.526-2.586 3.789-6.074 3.789-10.464 0-4.57-1.233-8.148-3.698-10.734-2.406-2.646-5.803-3.969-10.193-3.969-4.21 0-7.727 1.233-10.554 3.699-2.766 2.465-4.15 5.863-4.15 10.192 0 3.007.632 5.653 1.895 7.938 1.323 2.285 3.097 4.059 5.322 5.322 2.285 1.263 4.841 1.894 7.667 1.894Zm51.743 6.495c-6.434 0-11.576-1.714-15.424-5.142-3.849-3.487-6.194-7.998-7.036-13.53h7.938c.781 3.909 2.435 6.916 4.961 9.02 2.585 2.105 5.712 3.157 9.381 3.157 3.848 0 7.096-1.202 9.741-3.608 2.707-2.405 4.06-6.224 4.06-11.455 0-5.232-1.353-9.141-4.06-11.727-2.645-2.646-6.013-3.969-10.102-3.969-2.947 0-5.502.602-7.667 1.805-2.165 1.202-3.608 2.615-4.33 4.239h-6.675l2.977-34.638h34.276v6.495H149.63l2.525-2.706-2.074 26.159-1.714-.632c1.082-1.804 2.826-3.367 5.231-4.69 2.406-1.323 5.352-1.985 8.84-1.985 4.029 0 7.577.872 10.644 2.616 3.127 1.744 5.563 4.24 7.306 7.487 1.805 3.187 2.707 7.036 2.707 11.546s-.902 8.388-2.707 11.636c-1.743 3.187-4.239 5.652-7.486 7.396-3.187 1.684-7.006 2.526-11.456 2.526Zm-11.877 20.554v-9.305h1.368v2.189h.091v7.116h-1.459Zm6.276 0v-6.167c0-.705-.158-1.222-.474-1.551-.317-.328-.773-.492-1.369-.492-.559 0-1.064.134-1.514.401-.45.268-.809.639-1.076 1.113-.256.474-.384 1.028-.384 1.66l-.237-2.207a3.735 3.735 0 0 1 1.423-1.642 3.771 3.771 0 0 1 2.062-.602c.9 0 1.63.267 2.189.802.56.523.84 1.235.84 2.135v6.55h-1.46Zm6.276 0v-6.167c0-.705-.158-1.222-.474-1.551-.316-.328-.773-.492-1.368-.492-.56 0-1.065.134-1.515.401-.45.268-.809.639-1.076 1.113-.256.474-.383 1.028-.383 1.66l-.365-2.207a3.662 3.662 0 0 1 1.459-1.642 3.985 3.985 0 0 1 2.117-.602c.9 0 1.636.267 2.207.802.572.523.858 1.235.858 2.135v6.55h-1.46Zm8.865.164c-.876 0-1.612-.213-2.208-.638-.596-.426-1.003-1.028-1.222-1.807l.292-.036v6.057h-1.46v-13.045h1.369v2.171l-.201-.054a3.006 3.006 0 0 1 1.313-1.679c.645-.414 1.393-.62 2.245-.62.827 0 1.544.2 2.152.602.621.401 1.101.961 1.442 1.678.34.718.511 1.557.511 2.518 0 .973-.177 1.825-.529 2.554-.353.73-.846 1.296-1.478 1.697-.633.401-1.375.602-2.226.602Zm-.219-1.277c.924 0 1.648-.316 2.171-.949.523-.644.785-1.52.785-2.627 0-1.095-.262-1.952-.785-2.572-.523-.633-1.247-.949-2.171-.949-.924 0-1.654.322-2.189.967-.536.632-.803 1.502-.803 2.609 0 1.082.267 1.94.803 2.572.535.633 1.265.949 2.189.949Zm6.686 1.113v-13.136h1.459v13.136h-1.459Zm6.659 0v-6.094c0-.705-.176-1.234-.529-1.587-.353-.353-.876-.529-1.569-.529-.608 0-1.15.134-1.624.401a2.927 2.927 0 0 0-1.095 1.113c-.255.474-.383 1.028-.383 1.66l-.237-2.207a3.7 3.7 0 0 1 1.441-1.642c.657-.402 1.399-.602 2.226-.602.973 0 1.752.279 2.336.839.596.547.894 1.271.894 2.171v6.477h-1.46Z"/><path fill="#2A2A2A" d="m147.943 192.96-3.398 4.272H53.266l-18.725-20.07h5.71l14.58 15.798h93.112Z"/><path fill="#8A8A8A" d="m94.28 192.96-3.62 4.271-37.394.001-18.602-19.941h5.713l14.677 15.67 39.226-.001Z"/><path fill="#2A2A2A" d="m194.346 51.872-3.818-7.084H53.35l-35.722 39.26h8.73l30.029-32.176h137.959Z"/><path fill="#8A8A8A" d="M108.818 51.873 105 44.79H53.349l3.037 7.083 52.432.001Z"/><path stroke="#fff" stroke-width=".705" d="m104.228 43.707 5.716 10.289"/><path stroke="#191919" stroke-width="2.114" d="m58.803 53.106-6.532-10.144"/><path fill="#fff" d="M59.221 208.889a.437.437 0 0 1 .045.41l-.881 2.203a.443.443 0 0 1-.573.244.437.437 0 0 1-.245-.573l.64-1.597h-1.112a.44.44 0 0 1-.409-.605l.88-2.203a.441.441 0 0 1 .819.331l-.64 1.596h1.112a.437.437 0 0 1 .364.194Zm6.242-2.031v4.48a1.32 1.32 0 0 1-2.255.934 1.32 1.32 0 0 1-.387-.934v-2.202a.442.442 0 0 0-.44-.441h-.882v4.845h.881a.443.443 0 0 1 .44.441.44.44 0 0 1-.44.44h-8.808a.439.439 0 0 1-.44-.44.442.442 0 0 1 .44-.441h.88v-8.368a1.318 1.318 0 0 1 1.322-1.321h4.404a1.32 1.32 0 0 1 1.322 1.321v2.643h.88a1.32 1.32 0 0 1 1.322 1.321v2.202a.438.438 0 0 0 .44.44.439.439 0 0 0 .44-.44v-4.48a.442.442 0 0 0-.128-.31l-1.064-1.064a.442.442 0 0 1 .312-.753.44.44 0 0 1 .311.129l1.065 1.064a1.312 1.312 0 0 1 .385.934Zm-4.844 6.682v-8.368a.442.442 0 0 0-.44-.441h-4.405a.443.443 0 0 0-.44.441v8.368h5.285Zm13.85-.568c-.451 0-.85-.082-1.194-.244a2.128 2.128 0 0 1-.827-.733c-.206-.32-.335-.705-.385-1.156h.808c.07.47.241.83.517 1.081.276.25.639.375 1.09.375.426 0 .761-.112 1.005-.338.245-.225.367-.532.367-.921 0-.407-.12-.736-.357-.986-.238-.257-.558-.386-.959-.386h-.845v-.657h.817c.364 0 .652-.104.865-.31.219-.213.329-.495.329-.846 0-.37-.116-.655-.348-.855-.226-.2-.533-.301-.921-.301a1.47 1.47 0 0 0-.977.339c-.27.219-.43.535-.48.949h-.817c.038-.401.157-.746.357-1.034.2-.294.467-.523.799-.686a2.585 2.585 0 0 1 1.137-.244c.407 0 .767.072 1.08.216.314.144.558.351.733.62.176.263.263.573.263.93 0 .32-.072.602-.216.846a1.534 1.534 0 0 1-.592.573 1.69 1.69 0 0 1-.845.207l-.057-.198c.382 0 .711.082.987.245.282.156.498.372.648.648.157.276.235.595.235.958 0 .376-.094.708-.282.996a1.91 1.91 0 0 1-.78.677 2.675 2.675 0 0 1-1.155.235Zm5.357 0c-.67 0-1.205-.179-1.606-.536-.401-.363-.645-.833-.733-1.409h.827c.081.407.253.72.516.94a1.5 1.5 0 0 0 .978.328c.4 0 .739-.125 1.014-.375.282-.251.423-.649.423-1.194 0-.545-.14-.952-.423-1.221-.275-.276-.626-.414-1.052-.414-.307 0-.573.063-.799.188-.225.126-.376.273-.45.442h-.696l.31-3.608h3.57v.676h-3.11l.264-.282-.216 2.725-.179-.066c.113-.187.294-.35.545-.488.25-.138.557-.207.92-.207.42 0 .79.091 1.11.273.325.181.579.441.76.78.188.332.282.732.282 1.202s-.094.874-.281 1.212a1.89 1.89 0 0 1-.78.771c-.332.175-.73.263-1.194.263Zm5.781 0c-.532 0-1-.147-1.4-.442-.395-.3-.705-.714-.93-1.24-.22-.532-.33-1.14-.33-1.823s.11-1.281.33-1.794c.219-.52.53-.924.93-1.213.4-.294.868-.441 1.4-.441.532 0 .996.147 1.39.441.401.289.712.693.93 1.213.226.513.34 1.111.34 1.794 0 .689-.114 1.297-.34 1.823-.218.526-.529.94-.93 1.24-.394.295-.858.442-1.39.442Zm0-.677c.382 0 .708-.112.977-.338.27-.232.476-.557.62-.977.144-.426.217-.933.217-1.522 0-.583-.073-1.081-.217-1.494-.137-.414-.341-.727-.61-.94-.27-.219-.599-.329-.987-.329s-.717.11-.987.329c-.269.219-.476.536-.62.949-.138.407-.206.902-.206 1.485 0 .589.072 1.096.216 1.522.144.426.35.752.62.977.27.226.595.338.977.338Zm5.762.583v-4.792h.704v1.127h.048v3.665h-.752Zm3.232 0v-3.176c0-.363-.081-.629-.244-.799-.163-.169-.398-.253-.705-.253-.288 0-.548.069-.78.206a1.522 1.522 0 0 0-.554.574 1.774 1.774 0 0 0-.197.855l-.123-1.137c.163-.357.407-.639.733-.846.326-.207.68-.31 1.062-.31.463 0 .84.138 1.127.413.289.27.433.636.433 1.1v3.373H94.6Zm3.232 0v-3.176c0-.363-.081-.629-.244-.799-.163-.169-.398-.253-.705-.253-.288 0-.548.069-.78.206a1.522 1.522 0 0 0-.554.574 1.775 1.775 0 0 0-.197.855l-.188-1.137c.163-.357.413-.639.751-.846.339-.207.702-.31 1.09-.31.464 0 .843.138 1.137.413.295.27.442.636.442 1.1v3.373h-.752Zm2.198 0v-4.792h.751v4.792h-.751Zm-.057-5.882v-.883h.865v.883h-.865ZM65.523 32.471a.44.44 0 0 0-.275-.311l-3.172-1.19.807-4.037a.44.44 0 0 0-.754-.386l-6.166 6.607a.44.44 0 0 0 .166.716l3.172 1.19-.805 4.032a.44.44 0 0 0 .754.386l6.166-6.607a.441.441 0 0 0 .107-.4Zm-5.859 5.276.577-2.883a.44.44 0 0 0-.276-.5l-2.909-1.092 4.659-4.991-.576 2.883a.44.44 0 0 0 .275.5l2.907 1.09-4.657 4.993Zm10.974-1.234v-.658a38.052 38.052 0 0 0 1.691-1.466c.458-.42.82-.792 1.09-1.118.276-.326.47-.623.583-.893a2.03 2.03 0 0 0 .178-.808c0-.388-.116-.692-.347-.911-.232-.22-.552-.329-.959-.329-.42 0-.758.12-1.014.357-.257.238-.414.58-.47 1.024h-.808c.062-.614.297-1.108.704-1.484.414-.382.962-.573 1.645-.573.632 0 1.136.169 1.512.507.376.338.564.802.564 1.39 0 .32-.063.64-.188.959-.119.32-.32.655-.601 1.005-.276.351-.642.74-1.1 1.166-.45.42-1.011.895-1.681 1.428l-.179-.273h3.862v.677h-4.482Zm5.33 0v-.968h.968v.968h-.968Zm4.012.094a2.76 2.76 0 0 1-1.193-.245 2.118 2.118 0 0 1-.827-.733c-.207-.319-.335-.704-.385-1.155h.808c.069.47.241.83.517 1.08.275.25.639.376 1.09.376.426 0 .76-.113 1.005-.338.244-.226.367-.533.367-.92 0-.408-.12-.737-.358-.987-.238-.257-.557-.386-.958-.386H79.2v-.657h.818c.363 0 .651-.104.864-.31.22-.214.33-.495.33-.846 0-.37-.117-.655-.349-.855-.225-.2-.532-.3-.92-.3-.382 0-.708.112-.977.337-.27.22-.43.536-.48.95h-.817c.037-.401.157-.746.357-1.034.2-.295.467-.523.799-.686a2.586 2.586 0 0 1 1.136-.244c.408 0 .768.072 1.081.216.313.144.558.35.733.62.175.263.263.573.263.93 0 .32-.072.601-.216.846a1.531 1.531 0 0 1-.592.573 1.69 1.69 0 0 1-.846.207l-.056-.198c.382 0 .71.082.986.245.282.156.499.372.649.648.157.276.235.595.235.958 0 .376-.094.708-.282.996a1.914 1.914 0 0 1-.78.677 2.681 2.681 0 0 1-1.156.235Zm5.247-.094V31.72h.705v1.127h.047v3.665h-.752Zm3.232 0v-3.176c0-.364-.081-.63-.244-.799-.163-.169-.398-.253-.705-.253a1.497 1.497 0 0 0-1.334.78 1.78 1.78 0 0 0-.197.854l-.122-1.136c.163-.358.407-.64.733-.846a1.94 1.94 0 0 1 1.061-.31c.464 0 .84.138 1.128.413.288.27.432.636.432 1.1v3.373h-.752Zm3.233 0v-3.176c0-.364-.082-.63-.245-.799-.163-.169-.397-.253-.704-.253a1.496 1.496 0 0 0-1.335.78 1.78 1.78 0 0 0-.197.854l-.188-1.136a1.89 1.89 0 0 1 .752-.846 2.05 2.05 0 0 1 1.09-.31c.463 0 .842.138 1.137.413.294.27.441.636.441 1.1v3.373h-.751Zm2.197 0V31.72h.752v4.792h-.752Zm-.056-5.882v-.883h.864v.883h-.864Zm1.777 6.446 2.377-7.611h.658l-2.377 7.61h-.658Zm4.353-.564V29.56h.752v6.953h-.752Zm3.129 0-2.546-2.49 2.452-2.302h1.034l-2.753 2.518.047-.442 2.8 2.716h-1.034Zm3.225 0-2.002-6.765h.79l1.794 6.248h-.141l1.757-6.248h.94l1.767 6.248h-.141l1.785-6.248h.742l-2.001 6.765h-.94l-1.757-6.06h.113l-1.767 6.06h-.939Zm8.511 0v-6.765h.752v6.765h-.752Zm3.43 0v-3.139c0-.363-.091-.635-.273-.817-.181-.182-.451-.273-.808-.273-.313 0-.592.07-.836.207a1.504 1.504 0 0 0-.564.573c-.131.245-.197.53-.197.855l-.122-1.136a1.9 1.9 0 0 1 .742-.846c.338-.207.721-.31 1.146-.31.502 0 .902.144 1.203.432.307.282.461.655.461 1.118v3.336h-.752Z"/><defs><clipPath id="a"><path fill="#fff" d="M140.739 419.249h14.094v14.094h-14.094z"/></clipPath><clipPath id="b"><path fill="#fff" d="M352.743 18.034h14.094v14.094h-14.094z"/></clipPath><clipPath id="c"><path fill="#fff" d="M351.686 216.115h14.094v14.094h-14.094z"/></clipPath></defs></svg>