<svg xmlns="http://www.w3.org/2000/svg" width="510" height="483" fill="none"><rect width="509" height="480.929" x=".5" y=".971" fill="#0C0D0E" rx="11.319"/><rect width="509" height="480.929" x=".5" y=".971" stroke="#767F87" rx="11.319"/><path fill="#fff" d="M23.232 20.375h2.496v8.864h9.952v-8.864h2.464V40.47H35.68v-9.088h-9.952v9.088h-2.496V20.375Zm26.718 20.48c-1.322 0-2.506-.336-3.552-1.008-1.034-.683-1.856-1.627-2.464-2.832-.597-1.206-.896-2.592-.896-4.16 0-1.675.299-3.115.896-4.32.598-1.206 1.414-2.128 2.448-2.768 1.046-.651 2.235-.976 3.568-.976 1.163 0 2.155.234 2.976.704a5.564 5.564 0 0 1 1.984 1.904c.502.8.848 1.706 1.04 2.72a11.17 11.17 0 0 1 .176 3.12H45.054v-1.536h9.424l-.736.48a8.644 8.644 0 0 0-.112-1.888 5.393 5.393 0 0 0-.56-1.728 3.295 3.295 0 0 0-1.168-1.28c-.501-.32-1.141-.48-1.92-.48-.981 0-1.802.25-2.464.752-.661.501-1.157 1.162-1.488 1.984-.33.81-.496 1.69-.496 2.64v1.024c0 1.066.16 2.021.48 2.864.33.842.822 1.509 1.472 2 .65.49 1.472.736 2.464.736s1.808-.24 2.448-.72c.64-.48 1.03-1.19 1.168-2.128h2.592c-.16 1.013-.522 1.888-1.088 2.624a5.62 5.62 0 0 1-2.16 1.68c-.874.394-1.861.592-2.96.592Zm20.598-.384-.32-3.36v-6.56c0-1.376-.294-2.363-.88-2.96-.587-.608-1.467-.912-2.64-.912a5.4 5.4 0 0 0-1.808.288c-.534.192-.96.49-1.28.896-.31.394-.464.906-.464 1.536h-2.784c0-1.11.272-2 .816-2.672.544-.683 1.29-1.174 2.24-1.472.96-.31 2.053-.464 3.28-.464 1.173 0 2.213.197 3.12.592a4.516 4.516 0 0 1 2.128 1.888c.512.853.768 1.968.768 3.344v9.856h-2.176Zm-5.216.384c-1.259 0-2.299-.224-3.12-.672-.822-.448-1.435-1.03-1.84-1.744a4.506 4.506 0 0 1-.608-2.256c0-1.035.256-1.878.768-2.528.522-.651 1.232-1.126 2.128-1.424.896-.31 1.904-.464 3.024-.464.8 0 1.6.08 2.4.24.81.16 1.6.378 2.368.656v1.568a11.45 11.45 0 0 0-2.176-.608c-.8-.15-1.536-.224-2.208-.224-1.024 0-1.888.213-2.592.64-.704.416-1.056 1.13-1.056 2.144 0 .746.266 1.386.8 1.92.544.533 1.408.8 2.592.8.832 0 1.578-.192 2.24-.576.672-.395 1.2-.886 1.584-1.472.394-.587.592-1.174.592-1.76h.608a6.156 6.156 0 0 1-.672 2.848 5.303 5.303 0 0 1-1.888 2.112c-.822.533-1.803.8-2.944.8Zm18.84 0a6.202 6.202 0 0 1-3.407-.992c-1.035-.672-1.862-1.611-2.48-2.816-.619-1.216-.928-2.646-.928-4.288 0-1.632.304-3.046.912-4.24.608-1.195 1.413-2.112 2.416-2.752a6.037 6.037 0 0 1 3.328-.976c1.12 0 2.101.272 2.944.816.853.544 1.514 1.328 1.984 2.352.47 1.024.704 2.261.704 3.712h-.96c0-1.014-.203-1.867-.608-2.56-.395-.694-.912-1.216-1.552-1.568a4.118 4.118 0 0 0-2.064-.544 3.99 3.99 0 0 0-2.288.704c-.683.458-1.232 1.12-1.648 1.984-.406.853-.608 1.877-.608 3.072 0 1.216.202 2.261.608 3.136.416.874.965 1.546 1.648 2.016a4.01 4.01 0 0 0 4.288.16c.65-.363 1.184-.891 1.6-1.584.416-.704.624-1.552.624-2.544h.96c0 1.482-.246 2.741-.736 3.776-.48 1.024-1.136 1.802-1.968 2.336-.822.533-1.744.8-2.768.8Zm4.929-.384-.416-3.584v-18.24h2.496V40.47H89.1Zm9.977-18.912c-.513 0-.918-.144-1.216-.432-.3-.299-.448-.688-.448-1.168 0-.47.149-.843.448-1.12.298-.278.704-.416 1.216-.416.511 0 .917.138 1.216.416.298.277.448.65.448 1.12 0 .48-.15.869-.448 1.168-.3.288-.704.432-1.216.432ZM97.829 40.47V25.143h2.497V40.47H97.83Zm20.252 0v-8.992c0-1.462-.352-2.571-1.056-3.328-.694-.768-1.643-1.152-2.848-1.152-.918 0-1.712.25-2.384.752-.672.501-1.19 1.221-1.552 2.16-.363.928-.544 2.037-.544 3.328h-.96c0-1.782.234-3.302.704-4.56.469-1.259 1.152-2.219 2.048-2.88.906-.672 2.005-1.008 3.296-1.008 1.205 0 2.234.272 3.088.816.864.533 1.525 1.301 1.984 2.304.458 1.002.688 2.192.688 3.568v8.992h-2.464Zm-10.88 0V25.175h2.144l.352 3.52V40.47h-2.496Zm24.72 7.872c-1.568 0-2.928-.224-4.08-.672-1.152-.438-2.048-1.03-2.688-1.776-.629-.736-.944-1.552-.944-2.448 0-1.184.432-2.091 1.296-2.72.875-.619 2-.928 3.376-.928l1.376.864c-1.152 0-2.042.24-2.672.72-.629.48-.944 1.136-.944 1.968 0 .832.448 1.536 1.344 2.112.896.576 2.208.864 3.936.864 1.28 0 2.4-.187 3.36-.56.971-.363 1.723-.843 2.256-1.44.544-.587.816-1.222.816-1.904 0-.48-.176-.896-.528-1.248-.352-.342-.89-.512-1.616-.512h-5.952c-1.034 0-1.93-.155-2.688-.464-.746-.32-1.322-.736-1.728-1.248-.405-.512-.608-1.072-.608-1.68 0-.64.182-1.184.544-1.632.363-.448.832-.79 1.408-1.024a5.037 5.037 0 0 1 1.888-.352l.48.928c-.32 0-.645.074-.976.224-.32.138-.592.352-.816.64-.213.277-.32.629-.32 1.056 0 .49.203.901.608 1.232.406.33 1.142.496 2.208.496h5.952c1.44 0 2.571.304 3.392.912.832.608 1.248 1.456 1.248 2.544 0 1.002-.357 1.962-1.072 2.88-.714.928-1.738 1.685-3.072 2.272-1.333.597-2.928.896-4.784.896Zm.448-12.352c-1.173 0-2.234-.235-3.184-.704a5.656 5.656 0 0 1-2.24-1.968c-.544-.843-.816-1.819-.816-2.928 0-1.12.272-2.102.816-2.944a5.539 5.539 0 0 1 2.24-1.952c.95-.47 2.011-.704 3.184-.704 1.142 0 2.176.234 3.104.704a5.526 5.526 0 0 1 2.24 1.952c.555.842.832 1.824.832 2.944 0 1.109-.277 2.085-.832 2.928a5.643 5.643 0 0 1-2.24 1.968c-.928.469-1.962.704-3.104.704Zm0-1.792c1.174 0 2.086-.363 2.736-1.088.651-.726.976-1.632.976-2.72 0-1.12-.325-2.027-.976-2.72-.65-.704-1.562-1.056-2.736-1.056-1.162 0-2.08.352-2.752 1.056-.661.693-.992 1.6-.992 2.72 0 1.088.331 1.994.992 2.72.672.725 1.59 1.088 2.752 1.088Zm5.024-6.976-1.184-.48c0-.896.176-1.68.528-2.352a3.786 3.786 0 0 1 1.504-1.584c.651-.384 1.424-.576 2.32-.576l-.192 2.464c-.96 0-1.696.208-2.208.624-.512.405-.768 1.04-.768 1.904Zm12.687 13.632c-1.483 0-2.72-.208-3.712-.624-.992-.427-1.744-1.008-2.256-1.744-.512-.747-.784-1.6-.816-2.56h2.4c.053.97.442 1.701 1.168 2.192.736.48 1.733.72 2.992.72a5.05 5.05 0 0 0 1.824-.32c.554-.214.997-.507 1.328-.88.33-.374.496-.795.496-1.264 0-.598-.219-1.067-.656-1.408-.438-.342-1.136-.64-2.096-.896l-2.976-.96c-1.291-.406-2.283-.96-2.976-1.664a3.576 3.576 0 0 1-1.024-2.56c0-1.238.544-2.23 1.632-2.976 1.088-.747 2.517-1.12 4.288-1.12 1.877 0 3.333.384 4.368 1.152 1.034.768 1.573 1.728 1.616 2.88h-2.464a2.005 2.005 0 0 0-1.024-1.52c-.587-.352-1.419-.528-2.496-.528-1.035 0-1.846.234-2.432.704-.576.458-.864.97-.864 1.536 0 1.056.906 1.834 2.72 2.336l3.04 1.024c1.312.394 2.314.912 3.008 1.552.704.64 1.056 1.456 1.056 2.448 0 .768-.251 1.493-.752 2.176-.502.682-1.211 1.237-2.128 1.664-.918.426-2.006.64-3.264.64Z"/><mask id="a" fill="#fff"><path d="M20 88.47h470v15.092H20V88.471Z"/></mask><path fill="#AFAFAF" d="M490 103.562v-.591H20v1.182h470v-.591Z" mask="url(#a)"/><path fill="#AFAFAF" d="M21.212 88.935h.936v3.324h3.732v-3.324h.924v7.536h-.924v-3.408h-3.732v3.408h-.936v-7.536Zm8.015 7.536v-7.536h4.644v.804h-3.708v2.532h3.492v.804h-3.492v2.58h3.708v.816h-4.644Zm5.85 0 2.593-7.536h1.14l2.532 7.536h-.984l-.636-1.932h-3l-.66 1.932h-.984Zm1.885-2.664h2.52l-1.26-3.732-1.26 3.732Zm5.906-4.872h2.208c.76 0 1.42.156 1.98.468.56.308.994.744 1.302 1.308.308.564.462 1.228.462 1.992 0 .756-.154 1.416-.462 1.98a3.307 3.307 0 0 1-1.302 1.32c-.56.312-1.22.468-1.98.468h-2.208v-7.536Zm.936.828v5.892h1.272c.568 0 1.056-.128 1.464-.384.412-.256.728-.606.948-1.05.224-.448.336-.954.336-1.518 0-.568-.112-1.072-.336-1.512a2.495 2.495 0 0 0-.948-1.044c-.408-.256-.896-.384-1.464-.384h-1.272Zm6.986 6.708v-7.536h.936v7.536h-.936Zm3.351-7.536h1.116l3.828 6.204h-.084v-6.204h.936v7.536h-1.044l-3.96-6.408h.144v6.408h-.936v-7.536Zm10.867 7.68c-.6 0-1.145-.156-1.637-.468-.492-.312-.885-.754-1.177-1.326-.291-.572-.438-1.25-.438-2.034 0-.652.094-1.226.282-1.722a3.57 3.57 0 0 1 .775-1.248 3.22 3.22 0 0 1 1.127-.756c.428-.172.88-.258 1.356-.258.588 0 1.104.122 1.548.366.445.24.825.622 1.14 1.146l-.887.312c-.268-.332-.556-.576-.864-.732a2.057 2.057 0 0 0-.973-.24c-.452 0-.868.126-1.248.378s-.685.612-.918 1.08c-.227.468-.342 1.026-.342 1.674 0 .576.094 1.088.282 1.536.188.444.455.794.799 1.05.347.252.76.378 1.236.378.364 0 .69-.084.977-.252.292-.168.522-.42.69-.756.168-.34.252-.768.252-1.284h.288c0 .64-.075 1.196-.227 1.668-.153.472-.397.838-.733 1.098-.332.26-.767.39-1.308.39Zm2.148-.144-.168-1.776v-1.26l-1.895-.06v-.636H67.9v3.732h-.744Zm5.77-7.536h.937v3.324h3.732v-3.324h.924v7.536h-.924v-3.408h-3.732v3.408h-.936v-7.536Zm8.808-.024h.756v7.56h-.936v-6.456a2.298 2.298 0 0 1-1.236.42v-.912c.252-.036.496-.102.732-.198.24-.096.468-.234.684-.414Zm271.478 7.559v-7.535h4.584v.804h-3.648v2.508h3.396v.804h-3.396v3.42h-.936Zm8.029.145c-.516 0-.976-.114-1.38-.342a2.403 2.403 0 0 1-.948-1.014c-.232-.448-.348-1-.348-1.656 0-.66.116-1.212.348-1.656.232-.448.548-.786.948-1.014a2.759 2.759 0 0 1 1.38-.342c.512 0 .968.114 1.368.342.404.228.72.566.948 1.014.232.444.348.996.348 1.656 0 .656-.116 1.208-.348 1.656a2.355 2.355 0 0 1-.948 1.014c-.4.228-.856.342-1.368.342Zm-.024-.816c.372 0 .688-.088.948-.264.26-.18.456-.434.588-.762.136-.328.204-.718.204-1.17 0-.684-.142-1.222-.426-1.614-.284-.396-.706-.594-1.266-.594-.376 0-.694.09-.954.27-.256.176-.452.43-.588.762-.132.328-.198.72-.198 1.176 0 .676.142 1.212.426 1.608.288.392.71.588 1.266.588Zm8.591.672v-3.372c0-.548-.132-.964-.396-1.248-.26-.288-.616-.432-1.068-.432-.344 0-.642.094-.894.282-.252.188-.446.458-.582.81-.136.348-.204.764-.204 1.248h-.36c0-.668.088-1.238.264-1.71.176-.472.432-.832.768-1.08.34-.252.752-.378 1.236-.378.452 0 .838.102 1.158.306.324.2.572.488.744.864.172.376.258.822.258 1.338v3.372h-.924Zm-4.08 0v-5.736h.804l.132 1.32v4.416h-.936Zm9.006.144c-.312 0-.592-.06-.84-.18s-.444-.3-.588-.54c-.144-.24-.216-.54-.216-.9v-5.856h.924v5.832c0 .592.276.888.828.888.164 0 .322-.018.474-.054.156-.036.33-.09.522-.162l.132.672c-.204.088-.408.16-.612.216-.2.056-.408.084-.624.084Zm-2.568-5.232v-.648h3.66v.648h-3.66Zm10.575 5.232c-.504 0-.966-.09-1.386-.27a2.416 2.416 0 0 1-1.014-.81c-.256-.356-.388-.796-.396-1.32h.912c0 .352.086.642.258.87.172.224.4.392.684.504.284.108.594.162.93.162.364 0 .68-.058.948-.174.268-.116.474-.268.618-.456a1.01 1.01 0 0 0 .222-.63c0-.32-.098-.578-.294-.774-.196-.2-.486-.362-.87-.486l-1.332-.468c-.624-.224-1.096-.48-1.416-.768-.32-.288-.48-.692-.48-1.212 0-.584.224-1.06.672-1.428.452-.368 1.092-.552 1.92-.552.768 0 1.368.178 1.8.534.432.352.68.826.744 1.422h-.924a1.205 1.205 0 0 0-.492-.81c-.264-.196-.64-.294-1.128-.294-.496 0-.882.11-1.158.33-.276.22-.414.498-.414.834 0 .276.086.496.258.66.176.16.45.304.822.432l1.56.54c.54.18.966.432 1.278.756.316.324.474.744.474 1.26 0 .4-.108.762-.324 1.086-.212.324-.526.582-.942.774-.416.192-.926.288-1.53.288Zm5.37-7.236c-.192 0-.344-.054-.456-.162a.592.592 0 0 1-.168-.438c0-.176.056-.316.168-.42.112-.104.264-.156.456-.156s.344.052.456.156a.545.545 0 0 1 .168.42c0 .18-.056.326-.168.438-.112.108-.264.162-.456.162Zm-.468 7.092v-5.748h.936v5.748h-.936Zm2.938 0v-.756l3.384-4.224h-3.384v-.756h4.44v.756l-3.336 4.224h3.336v.756h-4.44Zm8.264.144a2.41 2.41 0 0 1-1.332-.378 2.694 2.694 0 0 1-.924-1.062c-.224-.452-.336-.972-.336-1.56 0-.628.112-1.168.336-1.62.224-.452.53-.798.918-1.038a2.48 2.48 0 0 1 1.338-.366c.436 0 .808.088 1.116.264.308.176.556.414.744.714.188.3.318.64.39 1.02.076.376.098.766.066 1.17h-4.152v-.576h3.534l-.276.18a3.24 3.24 0 0 0-.042-.708 2.022 2.022 0 0 0-.21-.648c-.104-.2-.25-.36-.438-.48s-.428-.18-.72-.18c-.368 0-.676.094-.924.282a1.716 1.716 0 0 0-.558.744 2.596 2.596 0 0 0-.186.99v.384c0 .4.06.758.18 1.074.124.316.308.566.552.75.244.184.552.276.924.276s.678-.09.918-.27c.24-.18.386-.446.438-.798h.972a2.13 2.13 0 0 1-.408.984 2.107 2.107 0 0 1-.81.63 2.67 2.67 0 0 1-1.11.222Zm3.632-1.098c0-.188.066-.35.198-.486a.665.665 0 0 1 .498-.204c.2 0 .37.068.51.204.14.136.21.298.21.486s-.07.346-.21.474a.729.729 0 0 1-.51.192.687.687 0 0 1-.498-.192.647.647 0 0 1-.198-.474Zm0-3.672c0-.188.066-.35.198-.486a.665.665 0 0 1 .498-.204c.2 0 .37.068.51.204.14.136.21.298.21.486s-.07.346-.21.474a.729.729 0 0 1-.51.192.687.687 0 0 1-.498-.192.647.647 0 0 1-.198-.474Zm6.933-2.934h.756v7.56h-.936v-6.456a2.298 2.298 0 0 1-1.236.42v-.912c.252-.036.496-.102.732-.198.24-.096.468-.234.684-.414Zm5.533 7.704c-.376 0-.74-.052-1.092-.156a3.194 3.194 0 0 1-.942-.468 2.281 2.281 0 0 1-.654-.768 2.235 2.235 0 0 1-.24-1.056h.96c.008.344.1.634.276.87.176.236.41.414.702.534.296.12.626.18.99.18.56 0 .994-.136 1.302-.408.308-.272.462-.612.462-1.02 0-.26-.064-.49-.192-.69-.128-.2-.332-.356-.612-.468-.276-.116-.64-.174-1.092-.174h-.852v-.744h.576c.584 0 1.044-.116 1.38-.348.336-.232.504-.552.504-.96 0-.36-.136-.664-.408-.912-.272-.248-.66-.372-1.164-.372-.388 0-.734.08-1.038.24-.304.156-.51.444-.618.864h-.96c.064-.468.216-.846.456-1.134a2.03 2.03 0 0 1 .912-.624 3.604 3.604 0 0 1 1.224-.198c.5 0 .946.088 1.338.264.392.176.7.418.924.726.228.308.342.662.342 1.062 0 .396-.114.736-.342 1.02-.224.28-.55.496-.978.648.476.136.864.36 1.164.672.304.312.456.712.456 1.2 0 .432-.114.816-.342 1.152-.224.332-.544.594-.96.786-.416.188-.91.282-1.482.282Zm4.294-.144v-1.116c0-.436.07-.8.21-1.092.144-.292.344-.534.6-.726a4.07 4.07 0 0 1 .918-.498l1.488-.588c.384-.156.672-.356.864-.6.192-.244.288-.548.288-.912 0-.384-.134-.698-.402-.942-.264-.244-.634-.366-1.11-.366-.472 0-.86.102-1.164.306-.3.2-.472.502-.516.906h-1.044c.028-.436.156-.806.384-1.11a2.14 2.14 0 0 1 .942-.69c.396-.16.858-.24 1.386-.24.484 0 .918.094 1.302.282.384.188.686.448.906.78.224.328.336.706.336 1.134 0 .388-.072.726-.216 1.014-.144.288-.35.536-.618.744a3.863 3.863 0 0 1-.942.534l-1.524.612c-.384.148-.672.326-.864.534-.192.208-.288.478-.288.81v.36h4.38v.864h-5.316Zm9.997.144c-.42 0-.786-.096-1.098-.288a1.876 1.876 0 0 1-.714-.84c-.168-.372-.252-.824-.252-1.356h.396c0 .356.074.656.222.9.148.244.34.43.576.558.24.124.494.186.762.186.288 0 .564-.082.828-.246.264-.168.48-.414.648-.738.168-.324.252-.724.252-1.2 0-.456-.078-.846-.234-1.17a1.762 1.762 0 0 0-.618-.744 1.533 1.533 0 0 0-.864-.258 1.57 1.57 0 0 0-.768.198c-.24.132-.434.326-.582.582-.148.252-.222.564-.222.936h-.396c0-.556.092-1.022.276-1.398.184-.38.434-.666.75-.858.316-.192.67-.288 1.062-.288.448 0 .866.12 1.254.36s.702.584.942 1.032c.24.448.36.984.36 1.608 0 .632-.122 1.174-.366 1.626-.24.452-.556.798-.948 1.038-.392.24-.814.36-1.266.36Zm-2.604 2.676v-8.556h.78l.156 1.344v7.212h-.936Zm6.12-2.82 2.172-2.868-2.172-2.88h1.14l1.644 2.172 1.584-2.172h1.14l-2.184 2.88 2.172 2.868h-1.14l-1.644-2.184-1.572 2.184h-1.14Zm9.888 1.464V87.47h.936v10.464h-.936Zm6.211-1.464v-7.536h2.628c.86 0 1.51.206 1.95.618.444.408.666.946.666 1.614 0 .66-.222 1.196-.666 1.608-.44.408-1.09.612-1.95.612h-1.692v3.084h-.936Zm4.224 0-2.16-3.42h1.02l2.352 3.42h-1.212Zm-3.288-3.744h1.62c.564 0 .992-.138 1.284-.414.296-.28.444-.642.444-1.086 0-.456-.142-.818-.426-1.086-.28-.268-.69-.402-1.23-.402h-1.692v2.988Zm8.403 3.888a2.41 2.41 0 0 1-1.332-.378 2.694 2.694 0 0 1-.924-1.062c-.224-.452-.336-.972-.336-1.56 0-.628.112-1.168.336-1.62.224-.452.53-.798.918-1.038a2.48 2.48 0 0 1 1.338-.366c.436 0 .808.088 1.116.264.308.176.556.414.744.714.188.3.318.64.39 1.02.076.376.098.766.066 1.17h-4.152v-.576h3.534l-.276.18a3.24 3.24 0 0 0-.042-.708 2.022 2.022 0 0 0-.21-.648c-.104-.2-.25-.36-.438-.48s-.428-.18-.72-.18c-.368 0-.676.094-.924.282a1.716 1.716 0 0 0-.558.744 2.596 2.596 0 0 0-.186.99v.384c0 .4.06.758.18 1.074.124.316.308.566.552.75.244.184.552.276.924.276s.678-.09.918-.27c.24-.18.386-.446.438-.798h.972a2.13 2.13 0 0 1-.408.984 2.107 2.107 0 0 1-.81.63 2.67 2.67 0 0 1-1.11.222Zm6.2 2.808c-.588 0-1.098-.084-1.53-.252-.432-.164-.768-.386-1.008-.666a1.38 1.38 0 0 1-.354-.918c0-.444.162-.784.486-1.02.328-.232.75-.348 1.266-.348l.516.324c-.432 0-.766.09-1.002.27a.878.878 0 0 0-.354.738c0 .312.168.576.504.792.336.216.828.324 1.476.324.48 0 .9-.07 1.26-.21.364-.136.646-.316.846-.54.204-.22.306-.458.306-.714a.64.64 0 0 0-.198-.468c-.132-.128-.334-.192-.606-.192h-2.232c-.388 0-.724-.058-1.008-.174a1.617 1.617 0 0 1-.648-.468.993.993 0 0 1-.228-.63c0-.24.068-.444.204-.612.136-.168.312-.296.528-.384.22-.088.456-.132.708-.132l.18.348a.885.885 0 0 0-.672.324.63.63 0 0 0-.12.396c0 .184.076.338.228.462.152.124.428.186.828.186h2.232c.54 0 .964.114 1.272.342.312.228.468.546.468.954 0 .376-.134.736-.402 1.08-.268.348-.652.632-1.152.852-.5.224-1.098.336-1.794.336Zm.168-4.632c-.44 0-.838-.088-1.194-.264a2.119 2.119 0 0 1-.84-.738 1.98 1.98 0 0 1-.306-1.098c0-.42.102-.788.306-1.104.208-.316.488-.56.84-.732a2.657 2.657 0 0 1 1.194-.264c.428 0 .816.088 1.164.264.352.172.632.416.84.732.208.316.312.684.312 1.104 0 .416-.104.782-.312 1.098a2.119 2.119 0 0 1-.84.738 2.542 2.542 0 0 1-1.164.264Zm0-.672c.44 0 .782-.136 1.026-.408.244-.272.366-.612.366-1.02 0-.42-.122-.76-.366-1.02-.244-.264-.586-.396-1.026-.396-.436 0-.78.132-1.032.396-.248.26-.372.6-.372 1.02 0 .408.124.748.372 1.02.252.272.596.408 1.032.408Zm1.884-2.616-.444-.18c0-.336.066-.63.198-.882.132-.256.32-.454.564-.594.244-.144.534-.216.87-.216l-.072.924c-.36 0-.636.078-.828.234-.192.152-.288.39-.288.714Zm6.594-.78h.936v5.748h-.936v-5.748Zm-4.068 0h.936v3.576c0 .48.116.844.348 1.092.236.248.572.372 1.008.372.36 0 .672-.096.936-.288.268-.192.474-.456.618-.792a2.89 2.89 0 0 0 .222-1.164h.348c0 .644-.094 1.194-.282 1.65-.184.456-.446.806-.786 1.05a1.99 1.99 0 0 1-1.188.36c-.432 0-.81-.08-1.134-.24a1.72 1.72 0 0 1-.756-.726c-.18-.328-.27-.742-.27-1.242v-3.648Zm7.434 5.748v-8.184h.936v8.184h-.936Zm6.915 0-.12-1.26v-2.46c0-.516-.11-.886-.33-1.11-.22-.228-.55-.342-.99-.342-.248 0-.474.036-.678.108-.2.072-.36.184-.48.336-.116.148-.174.34-.174.576h-1.044c0-.416.102-.75.306-1.002.204-.256.484-.44.84-.552.36-.116.77-.174 1.23-.174.44 0 .83.074 1.17.222.34.148.606.384.798.708.192.32.288.738.288 1.254v3.696h-.816Zm-1.956.144c-.472 0-.862-.084-1.17-.252a1.706 1.706 0 0 1-.69-.654 1.69 1.69 0 0 1-.228-.846c0-.388.096-.704.288-.948.196-.244.462-.422.798-.534a3.462 3.462 0 0 1 1.134-.174c.3 0 .6.03.9.09.304.06.6.142.888.246v.588a4.294 4.294 0 0 0-.816-.228 4.538 4.538 0 0 0-.828-.084c-.384 0-.708.08-.972.24-.264.156-.396.424-.396.804 0 .28.1.52.3.72.204.2.528.3.972.3.312 0 .592-.072.84-.216.252-.148.45-.332.594-.552.148-.22.222-.44.222-.66h.228c0 .384-.084.74-.252 1.068-.164.328-.4.592-.708.792-.308.2-.676.3-1.104.3Zm5.013-.144v-5.748h.936v5.748h-.936Zm.648-2.592c0-.728.07-1.332.21-1.812.14-.484.344-.844.612-1.08.272-.24.602-.36.99-.36.128 0 .244.01.348.03.108.016.216.042.324.078l-.06.924a2.882 2.882 0 0 0-.366-.09 1.726 1.726 0 0 0-.354-.042c-.34 0-.614.098-.822.294-.208.192-.36.464-.456.816a4.948 4.948 0 0 0-.138 1.242h-.288Z"/><path fill="#fff" d="M28.893 179.836v-54.605h4.758l37.678 47.428h-2.497v-47.428h5.695v54.605h-4.759L32.17 132.408h2.496v47.428h-5.772Zm62.287 0v-40.954h5.538v40.954H91.18Zm2.808-50.003c-1.144 0-2.106-.39-2.886-1.17-.78-.78-1.17-1.716-1.17-2.808 0-1.092.39-2.002 1.17-2.73.78-.78 1.742-1.17 2.886-1.17 1.144 0 2.106.364 2.886 1.092.78.728 1.17 1.638 1.17 2.73 0 1.144-.39 2.106-1.17 2.886-.728.78-1.69 1.17-2.886 1.17Zm29.14 50.393c-3.381 0-6.579-.468-9.595-1.404-3.016-.988-5.383-2.21-7.099-3.666l2.496-4.369c1.665 1.248 3.797 2.34 6.397 3.276 2.6.885 5.33 1.327 8.191 1.327 3.9 0 6.708-.599 8.424-1.795 1.717-1.248 2.575-2.886 2.575-4.914 0-1.508-.494-2.678-1.482-3.51-.937-.884-2.185-1.535-3.745-1.951-1.56-.468-3.302-.858-5.226-1.17a112.621 112.621 0 0 1-5.773-1.092c-1.872-.416-3.588-1.014-5.148-1.794-1.56-.832-2.835-1.95-3.823-3.354-.936-1.404-1.404-3.276-1.404-5.617 0-2.236.624-4.238 1.872-6.006 1.249-1.768 3.069-3.147 5.461-4.135 2.444-1.04 5.408-1.56 8.893-1.56 2.652 0 5.304.364 7.956 1.092 2.653.676 4.837 1.586 6.553 2.731l-2.418 4.446a17.999 17.999 0 0 0-5.851-2.652 23.442 23.442 0 0 0-6.24-.858c-3.693 0-6.423.65-8.191 1.95-1.716 1.248-2.574 2.86-2.574 4.836 0 1.56.468 2.783 1.404 3.667.988.884 2.262 1.586 3.822 2.106 1.612.468 3.355.858 5.227 1.17 1.924.312 3.822.702 5.694 1.17 1.924.416 3.667 1.014 5.227 1.794 1.612.728 2.886 1.794 3.822 3.198.988 1.353 1.482 3.147 1.482 5.383 0 2.392-.676 4.472-2.028 6.24-1.3 1.717-3.224 3.069-5.773 4.057-2.496.936-5.538 1.404-9.126 1.404Zm38.089 0c-3.38 0-6.579-.468-9.595-1.404-3.016-.988-5.382-2.21-7.099-3.666l2.497-4.369c1.664 1.248 3.796 2.34 6.396 3.276 2.6.885 5.331 1.327 8.191 1.327 3.9 0 6.709-.599 8.425-1.795 1.716-1.248 2.574-2.886 2.574-4.914 0-1.508-.494-2.678-1.482-3.51-.936-.884-2.184-1.535-3.744-1.951-1.561-.468-3.303-.858-5.227-1.17a112.584 112.584 0 0 1-5.772-1.092c-1.873-.416-3.589-1.014-5.149-1.794-1.56-.832-2.834-1.95-3.822-3.354-.936-1.404-1.404-3.276-1.404-5.617 0-2.236.624-4.238 1.872-6.006 1.248-1.768 3.068-3.147 5.46-4.135 2.444-1.04 5.409-1.56 8.893-1.56 2.652 0 5.305.364 7.957 1.092 2.652.676 4.836 1.586 6.552 2.731l-2.418 4.446a17.994 17.994 0 0 0-5.85-2.652 23.455 23.455 0 0 0-6.241-.858c-3.692 0-6.423.65-8.191 1.95-1.716 1.248-2.574 2.86-2.574 4.836 0 1.56.468 2.783 1.404 3.667.988.884 2.262 1.586 3.823 2.106a45.73 45.73 0 0 0 5.226 1.17c1.924.312 3.822.702 5.695 1.17 1.924.416 3.666 1.014 5.226 1.794 1.612.728 2.886 1.794 3.822 3.198.988 1.353 1.482 3.147 1.482 5.383 0 2.392-.676 4.472-2.028 6.24-1.3 1.717-3.224 3.069-5.772 4.057-2.496.936-5.539 1.404-9.127 1.404Zm52.755-.39v-9.049l-.234-1.482v-15.133c0-3.485-.989-6.163-2.965-8.035-1.924-1.872-4.81-2.808-8.658-2.808-2.653 0-5.175.442-7.567 1.326-2.392.884-4.421 2.054-6.085 3.51l-2.496-4.134c2.08-1.768 4.577-3.121 7.489-4.057 2.912-.988 5.98-1.482 9.205-1.482 5.304 0 9.386 1.326 12.247 3.979 2.912 2.6 4.368 6.578 4.368 11.935v25.43h-5.304Zm-14.12.39c-3.068 0-5.746-.494-8.034-1.482-2.237-1.04-3.953-2.444-5.149-4.213-1.196-1.82-1.794-3.9-1.794-6.24 0-2.132.494-4.056 1.482-5.773 1.04-1.768 2.704-3.172 4.993-4.212 2.34-1.092 5.46-1.638 9.36-1.638h14.12v4.134h-13.964c-3.952 0-6.708.702-8.268 2.106-1.508 1.405-2.263 3.147-2.263 5.227 0 2.34.911 4.212 2.731 5.616 1.82 1.405 4.368 2.107 7.644 2.107 3.121 0 5.799-.702 8.035-2.107 2.288-1.456 3.952-3.536 4.993-6.24l1.248 3.822c-1.04 2.704-2.861 4.863-5.461 6.475-2.548 1.612-5.772 2.418-9.673 2.418Zm55.373-41.734c3.328 0 6.241.65 8.737 1.95 2.548 1.249 4.524 3.173 5.928 5.773 1.457 2.6 2.185 5.876 2.185 9.829v23.792h-5.539V156.59c0-4.317-1.092-7.567-3.276-9.751-2.132-2.236-5.149-3.354-9.049-3.354-2.912 0-5.46.598-7.645 1.794-2.132 1.144-3.796 2.834-4.992 5.07-1.144 2.185-1.716 4.837-1.716 7.957v21.53h-5.539v-40.954h5.305v11.233l-.858-2.106c1.3-2.964 3.38-5.278 6.24-6.943 2.86-1.716 6.267-2.574 10.219-2.574Zm53.396 41.344v-54.605h5.772v49.612h30.579v4.993h-36.351Zm61.552.39c-4.265 0-8.009-.884-11.233-2.652-3.225-1.82-5.747-4.291-7.567-7.411-1.82-3.172-2.73-6.787-2.73-10.843s.858-7.645 2.574-10.765c1.768-3.12 4.16-5.564 7.177-7.333 3.068-1.82 6.5-2.73 10.296-2.73 3.849 0 7.255.884 10.219 2.652 3.017 1.717 5.383 4.161 7.099 7.333 1.716 3.12 2.574 6.735 2.574 10.843 0 .26-.026.546-.078.858v.858h-35.649v-4.134h32.685l-2.184 1.638c0-2.964-.65-5.59-1.95-7.879-1.249-2.34-2.965-4.16-5.149-5.46-2.184-1.3-4.706-1.95-7.567-1.95-2.808 0-5.33.65-7.566 1.95-2.236 1.3-3.979 3.12-5.227 5.46-1.248 2.341-1.872 5.019-1.872 8.035v.858c0 3.12.676 5.877 2.028 8.269 1.404 2.34 3.329 4.186 5.773 5.538 2.496 1.3 5.33 1.951 8.503 1.951 2.496 0 4.81-.443 6.942-1.327 2.184-.884 4.057-2.236 5.617-4.056l3.12 3.588c-1.82 2.185-4.108 3.849-6.865 4.993-2.704 1.144-5.694 1.716-8.97 1.716Zm54.204-.39v-9.049l-.234-1.482v-15.133c0-3.485-.988-6.163-2.964-8.035-1.924-1.872-4.811-2.808-8.659-2.808-2.652 0-5.174.442-7.567 1.326-2.392.884-4.42 2.054-6.084 3.51l-2.496-4.134c2.08-1.768 4.576-3.121 7.488-4.057 2.912-.988 5.981-1.482 9.205-1.482 5.305 0 9.387 1.326 12.247 3.979 2.912 2.6 4.369 6.578 4.369 11.935v25.43h-5.305Zm-14.119.39c-3.068 0-5.747-.494-8.035-1.482-2.236-1.04-3.952-2.444-5.148-4.213-1.196-1.82-1.795-3.9-1.795-6.24 0-2.132.495-4.056 1.483-5.773 1.04-1.768 2.704-3.172 4.992-4.212 2.34-1.092 5.461-1.638 9.361-1.638h14.119v4.134h-13.963c-3.952 0-6.709.702-8.269 2.106-1.508 1.405-2.262 3.147-2.262 5.227 0 2.34.91 4.212 2.73 5.616 1.82 1.405 4.369 2.107 7.645 2.107 3.12 0 5.798-.702 8.035-2.107 2.288-1.456 3.952-3.536 4.992-6.24l1.248 3.822c-1.04 2.704-2.86 4.863-5.46 6.475-2.549 1.612-5.773 2.418-9.673 2.418Zm35.403-.39v-46.102c0-3.64 1.066-6.579 3.198-8.815 2.132-2.236 5.201-3.354 9.205-3.354 1.56 0 3.068.208 4.524.624 1.456.416 2.679 1.066 3.667 1.95l-1.873 4.134a7.327 7.327 0 0 0-2.73-1.482 10.083 10.083 0 0 0-3.354-.546c-2.34 0-4.134.65-5.383 1.95-1.248 1.3-1.872 3.225-1.872 5.773v6.24l.156 2.575v37.053h-5.538Zm-7.333-36.351v-4.603h25.352v4.603h-25.352Z"/><mask id="b" fill="#fff"><path d="M20 217.658h470v15.092H20v-15.092Z"/></mask><path fill="#AFAFAF" d="M490 232.75v-.591H20v1.182h470v-.591Z" mask="url(#b)"/><path fill="#AFAFAF" d="M21.212 218.122h.936v3.324h3.732v-3.324h.924v7.536h-.924v-3.408h-3.732v3.408h-.936v-7.536Zm8.015 7.536v-7.536h4.644v.804h-3.708v2.532h3.492v.804h-3.492v2.58h3.708v.816h-4.644Zm5.85 0 2.593-7.536h1.14l2.532 7.536h-.984l-.636-1.932h-3l-.66 1.932h-.984Zm1.885-2.664h2.52l-1.26-3.732-1.26 3.732Zm5.906-4.872h2.208c.76 0 1.42.156 1.98.468.56.308.994.744 1.302 1.308.308.564.462 1.228.462 1.992 0 .756-.154 1.416-.462 1.98a3.307 3.307 0 0 1-1.302 1.32c-.56.312-1.22.468-1.98.468h-2.208v-7.536Zm.936.828v5.892h1.272c.568 0 1.056-.128 1.464-.384.412-.256.728-.606.948-1.05.224-.448.336-.954.336-1.518 0-.568-.112-1.072-.336-1.512a2.495 2.495 0 0 0-.948-1.044c-.408-.256-.896-.384-1.464-.384h-1.272Zm6.986 6.708v-7.536h.936v7.536h-.936Zm3.351-7.536h1.116l3.828 6.204h-.084v-6.204h.936v7.536h-1.044l-3.96-6.408h.144v6.408h-.936v-7.536Zm10.867 7.68c-.6 0-1.145-.156-1.637-.468-.492-.312-.885-.754-1.177-1.326-.291-.572-.438-1.25-.438-2.034 0-.652.094-1.226.282-1.722a3.57 3.57 0 0 1 .775-1.248 3.22 3.22 0 0 1 1.127-.756c.428-.172.88-.258 1.356-.258.588 0 1.104.122 1.548.366.445.24.825.622 1.14 1.146l-.887.312c-.268-.332-.556-.576-.864-.732a2.057 2.057 0 0 0-.973-.24c-.452 0-.868.126-1.248.378s-.685.612-.918 1.08c-.227.468-.342 1.026-.342 1.674 0 .576.094 1.088.282 1.536.188.444.455.794.799 1.05.347.252.76.378 1.236.378.364 0 .69-.084.977-.252.292-.168.522-.42.69-.756.168-.34.252-.768.252-1.284h.288c0 .64-.075 1.196-.227 1.668-.153.472-.397.838-.733 1.098-.332.26-.767.39-1.308.39Zm2.148-.144-.168-1.776v-1.26l-1.895-.06v-.636H67.9v3.732h-.744Zm5.77-7.536h.937v3.324h3.732v-3.324h.924v7.536h-.924v-3.408h-3.732v3.408h-.936v-7.536Zm7.584 7.536v-1.116c0-.436.07-.8.21-1.092.144-.292.344-.534.6-.726a4.07 4.07 0 0 1 .918-.498l1.488-.588c.384-.156.672-.356.864-.6.192-.244.288-.548.288-.912 0-.384-.134-.698-.402-.942-.264-.244-.634-.366-1.11-.366-.472 0-.86.102-1.164.306-.3.2-.472.502-.516.906h-1.044c.028-.436.156-.806.384-1.11a2.14 2.14 0 0 1 .942-.69c.396-.16.858-.24 1.386-.24.484 0 .918.094 1.302.282.384.188.686.448.906.78.224.328.336.706.336 1.134 0 .388-.072.726-.216 1.014-.144.288-.35.536-.618.744a3.863 3.863 0 0 1-.942.534l-1.524.612c-.384.148-.672.326-.864.534-.192.208-.288.478-.288.81v.36h4.38v.864H80.51Zm274.702 0v-7.536h4.584v.804h-3.648v2.508h3.396v.804h-3.396v3.42h-.936Zm8.029.144c-.516 0-.976-.114-1.38-.342a2.403 2.403 0 0 1-.948-1.014c-.232-.448-.348-1-.348-1.656 0-.66.116-1.212.348-1.656.232-.448.548-.786.948-1.014a2.759 2.759 0 0 1 1.38-.342c.512 0 .968.114 1.368.342.404.228.72.566.948 1.014.232.444.348.996.348 1.656 0 .656-.116 1.208-.348 1.656a2.355 2.355 0 0 1-.948 1.014c-.4.228-.856.342-1.368.342Zm-.024-.816c.372 0 .688-.088.948-.264.26-.18.456-.434.588-.762.136-.328.204-.718.204-1.17 0-.684-.142-1.222-.426-1.614-.284-.396-.706-.594-1.266-.594-.376 0-.694.09-.954.27-.256.176-.452.43-.588.762-.132.328-.198.72-.198 1.176 0 .676.142 1.212.426 1.608.288.392.71.588 1.266.588Zm8.591.672v-3.372c0-.548-.132-.964-.396-1.248-.26-.288-.616-.432-1.068-.432-.344 0-.642.094-.894.282-.252.188-.446.458-.582.81-.136.348-.204.764-.204 1.248h-.36c0-.668.088-1.238.264-1.71.176-.472.432-.832.768-1.08.34-.252.752-.378 1.236-.378.452 0 .838.102 1.158.306.324.2.572.488.744.864.172.376.258.822.258 1.338v3.372h-.924Zm-4.08 0v-5.736h.804l.132 1.32v4.416h-.936Zm9.006.144c-.312 0-.592-.06-.84-.18s-.444-.3-.588-.54c-.144-.24-.216-.54-.216-.9v-5.856h.924v5.832c0 .592.276.888.828.888.164 0 .322-.018.474-.054.156-.036.33-.09.522-.162l.132.672c-.204.088-.408.16-.612.216-.2.056-.408.084-.624.084Zm-2.568-5.232v-.648h3.66v.648h-3.66Zm10.575 5.232c-.504 0-.966-.09-1.386-.27a2.416 2.416 0 0 1-1.014-.81c-.256-.356-.388-.796-.396-1.32h.912c0 .352.086.642.258.87.172.224.4.392.684.504.284.108.594.162.93.162.364 0 .68-.058.948-.174.268-.116.474-.268.618-.456a1.01 1.01 0 0 0 .222-.63c0-.32-.098-.578-.294-.774-.196-.2-.486-.362-.87-.486l-1.332-.468c-.624-.224-1.096-.48-1.416-.768-.32-.288-.48-.692-.48-1.212 0-.584.224-1.06.672-1.428.452-.368 1.092-.552 1.92-.552.768 0 1.368.178 1.8.534.432.352.68.826.744 1.422h-.924a1.205 1.205 0 0 0-.492-.81c-.264-.196-.64-.294-1.128-.294-.496 0-.882.11-1.158.33-.276.22-.414.498-.414.834 0 .276.086.496.258.66.176.16.45.304.822.432l1.56.54c.54.18.966.432 1.278.756.316.324.474.744.474 1.26 0 .4-.108.762-.324 1.086-.212.324-.526.582-.942.774-.416.192-.926.288-1.53.288Zm5.37-7.236c-.192 0-.344-.054-.456-.162a.592.592 0 0 1-.168-.438c0-.176.056-.316.168-.42.112-.104.264-.156.456-.156s.344.052.456.156a.545.545 0 0 1 .168.42c0 .18-.056.326-.168.438-.112.108-.264.162-.456.162Zm-.468 7.092v-5.748h.936v5.748h-.936Zm2.938 0v-.756l3.384-4.224h-3.384v-.756h4.44v.756l-3.336 4.224h3.336v.756h-4.44Zm8.264.144a2.41 2.41 0 0 1-1.332-.378 2.694 2.694 0 0 1-.924-1.062c-.224-.452-.336-.972-.336-1.56 0-.628.112-1.168.336-1.62.224-.452.53-.798.918-1.038a2.48 2.48 0 0 1 1.338-.366c.436 0 .808.088 1.116.264.308.176.556.414.744.714.188.3.318.64.39 1.02.076.376.098.766.066 1.17h-4.152v-.576h3.534l-.276.18a3.24 3.24 0 0 0-.042-.708 2.022 2.022 0 0 0-.21-.648c-.104-.2-.25-.36-.438-.48s-.428-.18-.72-.18c-.368 0-.676.094-.924.282a1.716 1.716 0 0 0-.558.744 2.596 2.596 0 0 0-.186.99v.384c0 .4.06.758.18 1.074.124.316.308.566.552.75.244.184.552.276.924.276s.678-.09.918-.27c.24-.18.386-.446.438-.798h.972a2.13 2.13 0 0 1-.408.984 2.107 2.107 0 0 1-.81.63 2.67 2.67 0 0 1-1.11.222Zm3.632-1.098c0-.188.066-.35.198-.486a.665.665 0 0 1 .498-.204c.2 0 .37.068.51.204.14.136.21.298.21.486s-.07.346-.21.474a.729.729 0 0 1-.51.192.687.687 0 0 1-.498-.192.647.647 0 0 1-.198-.474Zm0-3.672c0-.188.066-.35.198-.486a.665.665 0 0 1 .498-.204c.2 0 .37.068.51.204.14.136.21.298.21.486s-.07.346-.21.474a.729.729 0 0 1-.51.192.687.687 0 0 1-.498-.192.647.647 0 0 1-.198-.474Zm5.649 4.626 3.612-6.648h-4.032v-.888h5.136v.864l-3.468 6.672h-1.248Zm5.697 0v-1.116c0-.436.07-.8.21-1.092.144-.292.344-.534.6-.726a4.07 4.07 0 0 1 .918-.498l1.488-.588c.384-.156.672-.356.864-.6.192-.244.288-.548.288-.912 0-.384-.134-.698-.402-.942-.264-.244-.634-.366-1.11-.366-.472 0-.86.102-1.164.306-.3.2-.472.502-.516.906h-1.044c.028-.436.156-.806.384-1.11a2.14 2.14 0 0 1 .942-.69c.396-.16.858-.24 1.386-.24.484 0 .918.094 1.302.282.384.188.686.448.906.78.224.328.336.706.336 1.134 0 .388-.072.726-.216 1.014-.144.288-.35.536-.618.744a3.863 3.863 0 0 1-.942.534l-1.524.612c-.384.148-.672.326-.864.534-.192.208-.288.478-.288.81v.36h4.38v.864h-5.316Zm9.997.144c-.42 0-.786-.096-1.098-.288a1.876 1.876 0 0 1-.714-.84c-.168-.372-.252-.824-.252-1.356h.396c0 .356.074.656.222.9.148.244.34.43.576.558.24.124.494.186.762.186.288 0 .564-.082.828-.246.264-.168.48-.414.648-.738.168-.324.252-.724.252-1.2 0-.456-.078-.846-.234-1.17a1.762 1.762 0 0 0-.618-.744 1.533 1.533 0 0 0-.864-.258 1.57 1.57 0 0 0-.768.198c-.24.132-.434.326-.582.582-.148.252-.222.564-.222.936h-.396c0-.556.092-1.022.276-1.398.184-.38.434-.666.75-.858.316-.192.67-.288 1.062-.288.448 0 .866.12 1.254.36s.702.584.942 1.032c.24.448.36.984.36 1.608 0 .632-.122 1.174-.366 1.626-.24.452-.556.798-.948 1.038-.392.24-.814.36-1.266.36Zm-2.604 2.676v-8.556h.78l.156 1.344v7.212h-.936Zm6.119-2.82 2.172-2.868-2.172-2.88h1.14l1.644 2.172 1.584-2.172h1.14l-2.184 2.88 2.172 2.868h-1.14l-1.644-2.184-1.572 2.184h-1.14Zm9.889 1.464v-10.464h.936v10.464h-.936Zm6.211-9h1.344l2.592 5.208h-.096l2.592-5.208h1.308v7.536h-.948v-6.564h.168l-2.76 5.616h-.624l-2.748-5.58h.108v6.528h-.936v-7.536Zm12.152 7.68a2.41 2.41 0 0 1-1.332-.378 2.694 2.694 0 0 1-.924-1.062c-.224-.452-.336-.972-.336-1.56 0-.628.112-1.168.336-1.62.224-.452.53-.798.918-1.038a2.48 2.48 0 0 1 1.338-.366c.436 0 .808.088 1.116.264.308.176.556.414.744.714.188.3.318.64.39 1.02.076.376.098.766.066 1.17h-4.152v-.576h3.534l-.276.18a3.24 3.24 0 0 0-.042-.708 2.022 2.022 0 0 0-.21-.648c-.104-.2-.25-.36-.438-.48s-.428-.18-.72-.18c-.368 0-.676.094-.924.282a1.716 1.716 0 0 0-.558.744 2.596 2.596 0 0 0-.186.99v.384c0 .4.06.758.18 1.074.124.316.308.566.552.75.244.184.552.276.924.276s.678-.09.918-.27c.24-.18.386-.446.438-.798h.972a2.13 2.13 0 0 1-.408.984 2.107 2.107 0 0 1-.81.63 2.67 2.67 0 0 1-1.11.222Zm6.224 0c-.464 0-.89-.124-1.278-.372a2.693 2.693 0 0 1-.93-1.056c-.232-.456-.348-.992-.348-1.608 0-.612.114-1.142.342-1.59.228-.448.53-.792.906-1.032.38-.244.796-.366 1.248-.366.42 0 .788.102 1.104.306.32.204.568.498.744.882.176.384.264.848.264 1.392h-.36c0-.38-.076-.7-.228-.96a1.544 1.544 0 0 0-1.356-.792c-.312 0-.598.088-.858.264-.256.172-.462.42-.618.744-.152.32-.228.704-.228 1.152 0 .456.076.848.228 1.176.156.328.362.58.618.756a1.498 1.498 0 0 0 1.608.06c.244-.136.444-.334.6-.594.156-.264.234-.582.234-.954h.36c0 .556-.092 1.028-.276 1.416-.18.384-.426.676-.738.876-.308.2-.654.3-1.038.3Zm1.848-.144-.156-1.344v-6.84h.936v8.184h-.78Zm3.741-7.092c-.192 0-.344-.054-.456-.162a.592.592 0 0 1-.168-.438c0-.176.056-.316.168-.42.112-.104.264-.156.456-.156s.344.052.456.156a.545.545 0 0 1 .168.42c0 .18-.056.326-.168.438-.112.108-.264.162-.456.162Zm-.468 7.092v-5.748h.936v5.748h-.936Zm7.414-5.748h.936v5.748h-.936v-5.748Zm-4.068 0h.936v3.576c0 .48.116.844.348 1.092.236.248.572.372 1.008.372.36 0 .672-.096.936-.288.268-.192.474-.456.618-.792a2.89 2.89 0 0 0 .222-1.164h.348c0 .644-.094 1.194-.282 1.65-.184.456-.446.806-.786 1.05a1.99 1.99 0 0 1-1.188.36c-.432 0-.81-.08-1.134-.24a1.72 1.72 0 0 1-.756-.726c-.18-.328-.27-.742-.27-1.242v-3.648Zm15.498 5.748v-3.372c0-.548-.132-.964-.396-1.248-.26-.288-.612-.432-1.056-.432-.52 0-.918.202-1.194.606-.276.4-.414.954-.414 1.662h-.432c0-.516.05-.968.15-1.356.104-.388.254-.71.45-.966.196-.26.434-.454.714-.582a2.27 2.27 0 0 1 .954-.192c.452 0 .838.102 1.158.306.324.2.572.488.744.864.172.376.258.822.258 1.338v3.372h-.936Zm-8.064 0v-5.736h.804l.108 1.152c.18-.416.432-.736.756-.96.328-.224.72-.336 1.176-.336.452 0 .838.102 1.158.306.324.2.572.488.744.864.172.376.258.822.258 1.338v3.372h-.924v-3.372c0-.548-.132-.964-.396-1.248-.26-.288-.616-.432-1.068-.432-.344 0-.642.094-.894.282-.252.188-.446.458-.582.81-.136.348-.204.764-.204 1.248v2.712h-.936Z"/><path fill="#fff" d="M24.468 284.023v-29.784h3.489l19.7 24.466h-1.83v-24.466h4.255v29.784h-3.489l-19.7-24.465h1.83v24.465h-4.255Zm33.934 0v-22.551h4.084v22.551h-4.084Zm2.042-26.891c-.794 0-1.46-.255-2-.766-.51-.51-.766-1.134-.766-1.872 0-.766.256-1.404.766-1.914.54-.511 1.206-.766 2-.766s1.447.255 1.957.766c.54.482.809 1.092.809 1.829 0 .766-.255 1.418-.766 1.957-.51.511-1.177.766-2 .766Zm16.31 27.147a18.58 18.58 0 0 1-5.362-.766c-1.674-.511-2.993-1.135-3.957-1.872l1.702-3.234c.964.652 2.156 1.205 3.574 1.659 1.418.454 2.865.681 4.34.681 1.9 0 3.262-.269 4.085-.808.85-.539 1.276-1.291 1.276-2.255 0-.71-.255-1.263-.766-1.66-.51-.397-1.191-.695-2.042-.893a28.578 28.578 0 0 0-2.766-.511 58.042 58.042 0 0 1-3.063-.596 13.628 13.628 0 0 1-2.809-1.021 5.547 5.547 0 0 1-2.042-1.829c-.51-.795-.766-1.844-.766-3.149 0-1.362.383-2.553 1.149-3.574s1.844-1.801 3.234-2.34c1.418-.568 3.092-.851 5.02-.851 1.475 0 2.965.184 4.468.553 1.532.34 2.78.837 3.745 1.489l-1.745 3.234c-1.021-.681-2.085-1.149-3.191-1.404a14.677 14.677 0 0 0-3.32-.383c-1.786 0-3.12.297-3.999.893-.879.567-1.319 1.305-1.319 2.213 0 .766.256 1.361.766 1.787.54.397 1.22.709 2.043.936.85.227 1.787.425 2.808.596a29.03 29.03 0 0 1 3.063.595c1.022.227 1.943.553 2.766.979a5.196 5.196 0 0 1 2.042 1.787c.54.766.809 1.787.809 3.064 0 1.361-.397 2.538-1.192 3.531-.794.993-1.914 1.773-3.36 2.34-1.448.539-3.178.809-5.192.809Zm21.315 0a18.58 18.58 0 0 1-5.361-.766c-1.674-.511-2.993-1.135-3.957-1.872l1.702-3.234c.964.652 2.156 1.205 3.574 1.659 1.418.454 2.865.681 4.34.681 1.901 0 3.262-.269 4.085-.808.851-.539 1.276-1.291 1.276-2.255 0-.71-.255-1.263-.766-1.66-.51-.397-1.191-.695-2.042-.893a28.589 28.589 0 0 0-2.766-.511 58.039 58.039 0 0 1-3.063-.596 13.631 13.631 0 0 1-2.808-1.021 5.546 5.546 0 0 1-2.043-1.829c-.51-.795-.766-1.844-.766-3.149 0-1.362.383-2.553 1.15-3.574.765-1.021 1.843-1.801 3.233-2.34 1.418-.568 3.092-.851 5.02-.851 1.476 0 2.965.184 4.468.553 1.532.34 2.78.837 3.745 1.489l-1.745 3.234c-1.021-.681-2.085-1.149-3.191-1.404a14.675 14.675 0 0 0-3.319-.383c-1.787 0-3.12.297-4 .893-.879.567-1.319 1.305-1.319 2.213 0 .766.256 1.361.766 1.787.54.397 1.22.709 2.043.936.85.227 1.787.425 2.808.596 1.021.141 2.042.34 3.064.595 1.021.227 1.943.553 2.765.979a5.2 5.2 0 0 1 2.043 1.787c.539.766.808 1.787.808 3.064 0 1.361-.397 2.538-1.191 3.531-.795.993-1.915 1.773-3.362 2.34-1.446.539-3.177.809-5.19.809Zm28.848-.256v-4.765l-.213-.894v-8.127c0-1.73-.511-3.063-1.532-3.999-.993-.965-2.496-1.447-4.51-1.447-1.333 0-2.638.227-3.915.681-1.276.425-2.354 1.007-3.233 1.744l-1.702-3.063c1.163-.936 2.553-1.645 4.169-2.128a17.296 17.296 0 0 1 5.149-.765c3.092 0 5.475.751 7.148 2.255 1.674 1.503 2.511 3.801 2.511 6.893v13.615h-3.872Zm-7.404.256c-1.674 0-3.149-.284-4.425-.851-1.248-.568-2.213-1.348-2.893-2.34-.681-1.022-1.022-2.17-1.022-3.447 0-1.22.284-2.326.851-3.319.596-.993 1.546-1.787 2.851-2.383 1.333-.595 3.12-.893 5.361-.893h7.149v2.936h-6.978c-2.043 0-3.419.34-4.128 1.021-.709.681-1.063 1.503-1.063 2.468 0 1.106.439 2 1.319 2.68.879.653 2.099.979 3.659.979 1.532 0 2.865-.34 3.999-1.021 1.163-.681 2-1.674 2.511-2.979l.808 2.809c-.539 1.333-1.489 2.397-2.85 3.191-1.362.766-3.078 1.149-5.149 1.149Zm30.876-23.019c1.844 0 3.461.354 4.851 1.063 1.418.709 2.524 1.787 3.319 3.234.794 1.447 1.191 3.276 1.191 5.489v12.977h-4.085v-12.509c0-2.184-.539-3.829-1.617-4.936-1.049-1.106-2.538-1.659-4.467-1.659-1.447 0-2.709.283-3.787.851-1.078.567-1.915 1.404-2.511 2.51-.567 1.106-.851 2.482-.851 4.127v11.616h-4.084v-22.551h3.914v6.085l-.638-1.617c.738-1.475 1.872-2.624 3.404-3.446 1.532-.823 3.319-1.234 5.361-1.234Zm28.943 22.763v-29.784h4.255v26.083h16.126v3.701h-20.381Zm34.419.256c-2.411 0-4.539-.497-6.383-1.489-1.815-.993-3.233-2.355-4.255-4.085-.992-1.731-1.489-3.716-1.489-5.957 0-2.241.482-4.227 1.447-5.957.993-1.73 2.34-3.078 4.042-4.042 1.73-.993 3.673-1.489 5.829-1.489 2.184 0 4.113.482 5.787 1.446 1.674.965 2.978 2.326 3.914 4.085.965 1.73 1.447 3.759 1.447 6.085 0 .17-.014.368-.042.595 0 .227-.015.44-.043.638h-19.19v-2.935h17.063l-1.66 1.021c.029-1.447-.269-2.738-.893-3.872a6.636 6.636 0 0 0-2.596-2.638c-1.078-.653-2.34-.979-3.787-.979-1.418 0-2.68.326-3.787.979-1.106.624-1.971 1.517-2.595 2.68-.624 1.135-.936 2.44-.936 3.915v.681c0 1.503.34 2.85 1.021 4.042.709 1.163 1.688 2.071 2.936 2.723 1.248.652 2.68.979 4.297.979 1.334 0 2.539-.227 3.617-.681a7.92 7.92 0 0 0 2.893-2.043l2.255 2.638c-1.021 1.192-2.297 2.1-3.829 2.724-1.503.624-3.191.936-5.063.936Zm29.387-.256v-4.765l-.213-.894v-8.127c0-1.73-.511-3.063-1.532-3.999-.993-.965-2.496-1.447-4.51-1.447-1.333 0-2.638.227-3.915.681-1.276.425-2.354 1.007-3.233 1.744l-1.702-3.063c1.163-.936 2.553-1.645 4.169-2.128a17.296 17.296 0 0 1 5.149-.765c3.092 0 5.475.751 7.148 2.255 1.674 1.503 2.511 3.801 2.511 6.893v13.615h-3.872Zm-7.404.256c-1.674 0-3.149-.284-4.425-.851-1.248-.568-2.213-1.348-2.893-2.34-.681-1.022-1.022-2.17-1.022-3.447 0-1.22.284-2.326.851-3.319.596-.993 1.546-1.787 2.851-2.383 1.333-.595 3.12-.893 5.361-.893h7.149v2.936h-6.978c-2.043 0-3.419.34-4.128 1.021-.709.681-1.063 1.503-1.063 2.468 0 1.106.439 2 1.319 2.68.879.653 2.099.979 3.659.979 1.532 0 2.865-.34 3.999-1.021 1.163-.681 2-1.674 2.511-2.979l.808 2.809c-.539 1.333-1.489 2.397-2.851 3.191-1.361.766-3.077 1.149-5.148 1.149Zm19.43-.256v-24.55c0-2.213.639-3.972 1.915-5.277 1.305-1.333 3.149-1.999 5.531-1.999.88 0 1.717.113 2.511.34.823.199 1.517.525 2.085.979l-1.234 3.106a4.418 4.418 0 0 0-1.447-.766 4.873 4.873 0 0 0-1.702-.298c-1.191 0-2.099.34-2.723 1.021-.624.653-.936 1.631-.936 2.936v3.021l.085 1.872v19.615h-4.085Zm-3.829-19.189v-3.362h14.382v3.362h-14.382Z"/><mask id="c" fill="#fff"><path d="M20 321.846h470v15.091H20v-15.091Z"/></mask><path fill="#AFAFAF" d="M490 336.937v-.591H20v1.182h470v-.591Z" mask="url(#c)"/><path fill="#AFAFAF" d="M21.212 322.31h.936v3.324h3.732v-3.324h.924v7.536h-.924v-3.408h-3.732v3.408h-.936v-7.536Zm8.015 7.536v-7.536h4.644v.804h-3.708v2.532h3.492v.804h-3.492v2.58h3.708v.816h-4.644Zm5.85 0 2.593-7.536h1.14l2.532 7.536h-.984l-.636-1.932h-3l-.66 1.932h-.984Zm1.885-2.664h2.52l-1.26-3.732-1.26 3.732Zm5.906-4.872h2.208c.76 0 1.42.156 1.98.468.56.308.994.744 1.302 1.308.308.564.462 1.228.462 1.992 0 .756-.154 1.416-.462 1.98a3.307 3.307 0 0 1-1.302 1.32c-.56.312-1.22.468-1.98.468h-2.208v-7.536Zm.936.828v5.892h1.272c.568 0 1.056-.128 1.464-.384.412-.256.728-.606.948-1.05.224-.448.336-.954.336-1.518 0-.568-.112-1.072-.336-1.512a2.495 2.495 0 0 0-.948-1.044c-.408-.256-.896-.384-1.464-.384h-1.272Zm6.986 6.708v-7.536h.936v7.536h-.936Zm3.351-7.536h1.116l3.828 6.204h-.084v-6.204h.936v7.536h-1.044l-3.96-6.408h.144v6.408h-.936v-7.536Zm10.867 7.68c-.6 0-1.145-.156-1.637-.468-.492-.312-.885-.754-1.177-1.326-.291-.572-.438-1.25-.438-2.034 0-.652.094-1.226.282-1.722a3.57 3.57 0 0 1 .775-1.248 3.22 3.22 0 0 1 1.127-.756c.428-.172.88-.258 1.356-.258.588 0 1.104.122 1.548.366.445.24.825.622 1.14 1.146l-.887.312c-.268-.332-.556-.576-.864-.732a2.057 2.057 0 0 0-.973-.24c-.452 0-.868.126-1.248.378s-.685.612-.918 1.08c-.227.468-.342 1.026-.342 1.674 0 .576.094 1.088.282 1.536.188.444.455.794.799 1.05.347.252.76.378 1.236.378.364 0 .69-.084.977-.252.292-.168.522-.42.69-.756.168-.34.252-.768.252-1.284h.288c0 .64-.075 1.196-.227 1.668-.153.472-.397.838-.733 1.098-.332.26-.767.39-1.308.39Zm2.148-.144-.168-1.776v-1.26l-1.895-.06v-.636H67.9v3.732h-.744Zm5.77-7.536h.937v3.324h3.732v-3.324h.924v7.536h-.924v-3.408h-3.732v3.408h-.936v-7.536Zm10.38 7.68c-.376 0-.74-.052-1.092-.156a3.194 3.194 0 0 1-.942-.468 2.281 2.281 0 0 1-.654-.768 2.235 2.235 0 0 1-.24-1.056h.96c.008.344.1.634.276.87.176.236.41.414.702.534.296.12.626.18.99.18.56 0 .994-.136 1.302-.408.308-.272.462-.612.462-1.02 0-.26-.064-.49-.192-.69-.128-.2-.332-.356-.612-.468-.276-.116-.64-.174-1.092-.174h-.852v-.744h.576c.584 0 1.044-.116 1.38-.348.336-.232.504-.552.504-.96 0-.36-.136-.664-.408-.912-.272-.248-.66-.372-1.164-.372-.388 0-.734.08-1.038.24-.304.156-.51.444-.618.864h-.96c.064-.468.216-.846.456-1.134a2.03 2.03 0 0 1 .912-.624 3.604 3.604 0 0 1 1.224-.198c.5 0 .946.088 1.338.264.392.176.7.418.924.726.228.308.342.662.342 1.062 0 .396-.114.736-.342 1.02-.224.28-.55.496-.978.648.476.136.864.36 1.164.672.304.312.456.712.456 1.2 0 .432-.114.816-.342 1.152-.224.332-.544.594-.96.786-.416.188-.91.282-1.482.282Zm274.906-.144v-7.536h4.584v.804h-3.648v2.508h3.396v.804h-3.396v3.42h-.936Zm8.029.144c-.516 0-.976-.114-1.38-.342a2.403 2.403 0 0 1-.948-1.014c-.232-.448-.348-1-.348-1.656 0-.66.116-1.212.348-1.656.232-.448.548-.786.948-1.014a2.759 2.759 0 0 1 1.38-.342c.512 0 .968.114 1.368.342.404.228.72.566.948 1.014.232.444.348.996.348 1.656 0 .656-.116 1.208-.348 1.656a2.355 2.355 0 0 1-.948 1.014c-.4.228-.856.342-1.368.342Zm-.024-.816c.372 0 .688-.088.948-.264.26-.18.456-.434.588-.762.136-.328.204-.718.204-1.17 0-.684-.142-1.222-.426-1.614-.284-.396-.706-.594-1.266-.594-.376 0-.694.09-.954.27-.256.176-.452.43-.588.762-.132.328-.198.72-.198 1.176 0 .676.142 1.212.426 1.608.288.392.71.588 1.266.588Zm8.591.672v-3.372c0-.548-.132-.964-.396-1.248-.26-.288-.616-.432-1.068-.432-.344 0-.642.094-.894.282-.252.188-.446.458-.582.81-.136.348-.204.764-.204 1.248h-.36c0-.668.088-1.238.264-1.71.176-.472.432-.832.768-1.08.34-.252.752-.378 1.236-.378.452 0 .838.102 1.158.306.324.2.572.488.744.864.172.376.258.822.258 1.338v3.372h-.924Zm-4.08 0v-5.736h.804l.132 1.32v4.416h-.936Zm9.006.144c-.312 0-.592-.06-.84-.18s-.444-.3-.588-.54c-.144-.24-.216-.54-.216-.9v-5.856h.924v5.832c0 .592.276.888.828.888.164 0 .322-.018.474-.054.156-.036.33-.09.522-.162l.132.672c-.204.088-.408.16-.612.216-.2.056-.408.084-.624.084Zm-2.568-5.232v-.648h3.66v.648h-3.66Zm10.575 5.232c-.504 0-.966-.09-1.386-.27a2.416 2.416 0 0 1-1.014-.81c-.256-.356-.388-.796-.396-1.32h.912c0 .352.086.642.258.87.172.224.4.392.684.504.284.108.594.162.93.162.364 0 .68-.058.948-.174.268-.116.474-.268.618-.456a1.01 1.01 0 0 0 .222-.63c0-.32-.098-.578-.294-.774-.196-.2-.486-.362-.87-.486l-1.332-.468c-.624-.224-1.096-.48-1.416-.768-.32-.288-.48-.692-.48-1.212 0-.584.224-1.06.672-1.428.452-.368 1.092-.552 1.92-.552.768 0 1.368.178 1.8.534.432.352.68.826.744 1.422h-.924a1.205 1.205 0 0 0-.492-.81c-.264-.196-.64-.294-1.128-.294-.496 0-.882.11-1.158.33-.276.22-.414.498-.414.834 0 .276.086.496.258.66.176.16.45.304.822.432l1.56.54c.54.18.966.432 1.278.756.316.324.474.744.474 1.26 0 .4-.108.762-.324 1.086-.212.324-.526.582-.942.774-.416.192-.926.288-1.53.288Zm5.37-7.236c-.192 0-.344-.054-.456-.162a.592.592 0 0 1-.168-.438c0-.176.056-.316.168-.42.112-.104.264-.156.456-.156s.344.052.456.156a.545.545 0 0 1 .168.42c0 .18-.056.326-.168.438-.112.108-.264.162-.456.162Zm-.468 7.092v-5.748h.936v5.748h-.936Zm2.938 0v-.756l3.384-4.224h-3.384v-.756h4.44v.756l-3.336 4.224h3.336v.756h-4.44Zm8.264.144a2.41 2.41 0 0 1-1.332-.378 2.694 2.694 0 0 1-.924-1.062c-.224-.452-.336-.972-.336-1.56 0-.628.112-1.168.336-1.62.224-.452.53-.798.918-1.038a2.48 2.48 0 0 1 1.338-.366c.436 0 .808.088 1.116.264.308.176.556.414.744.714.188.3.318.64.39 1.02.076.376.098.766.066 1.17h-4.152v-.576h3.534l-.276.18a3.24 3.24 0 0 0-.042-.708 2.022 2.022 0 0 0-.21-.648c-.104-.2-.25-.36-.438-.48s-.428-.18-.72-.18c-.368 0-.676.094-.924.282a1.716 1.716 0 0 0-.558.744 2.596 2.596 0 0 0-.186.99v.384c0 .4.06.758.18 1.074.124.316.308.566.552.75.244.184.552.276.924.276s.678-.09.918-.27c.24-.18.386-.446.438-.798h.972a2.13 2.13 0 0 1-.408.984 2.107 2.107 0 0 1-.81.63 2.67 2.67 0 0 1-1.11.222Zm3.632-1.098c0-.188.066-.35.198-.486a.665.665 0 0 1 .498-.204c.2 0 .37.068.51.204.14.136.21.298.21.486s-.07.346-.21.474a.729.729 0 0 1-.51.192.687.687 0 0 1-.498-.192.647.647 0 0 1-.198-.474Zm0-3.672c0-.188.066-.35.198-.486a.665.665 0 0 1 .498-.204c.2 0 .37.068.51.204.14.136.21.298.21.486s-.07.346-.21.474a.729.729 0 0 1-.51.192.687.687 0 0 1-.498-.192.647.647 0 0 1-.198-.474Zm9.201-3.018h.876v5.016h1.308v.792h-1.308v1.836h-.924v-1.836h-3.9v-.72l3.948-5.088Zm-.012 1.476-2.82 3.612h2.82v-3.612Zm6.715-1.476h.876v5.016h1.308v.792h-1.308v1.836h-.924v-1.836h-3.9v-.72l3.948-5.088Zm-.012 1.476-2.82 3.612h2.82v-3.612Zm6.271 6.312c-.42 0-.786-.096-1.098-.288a1.876 1.876 0 0 1-.714-.84c-.168-.372-.252-.824-.252-1.356h.396c0 .356.074.656.222.9.148.244.34.43.576.558.24.124.494.186.762.186.288 0 .564-.082.828-.246.264-.168.48-.414.648-.738.168-.324.252-.724.252-1.2 0-.456-.078-.846-.234-1.17a1.762 1.762 0 0 0-.618-.744 1.533 1.533 0 0 0-.864-.258 1.57 1.57 0 0 0-.768.198c-.24.132-.434.326-.582.582-.148.252-.222.564-.222.936h-.396c0-.556.092-1.022.276-1.398.184-.38.434-.666.75-.858.316-.192.67-.288 1.062-.288.448 0 .866.12 1.254.36s.702.584.942 1.032c.24.448.36.984.36 1.608 0 .632-.122 1.174-.366 1.626-.24.452-.556.798-.948 1.038-.392.24-.814.36-1.266.36Zm-2.604 2.676v-8.556h.78l.156 1.344v7.212h-.936Zm6.12-2.82 2.172-2.868-2.172-2.88h1.14l1.644 2.172 1.584-2.172h1.14l-2.184 2.88 2.172 2.868h-1.14l-1.644-2.184-1.572 2.184h-1.14Zm9.888 1.464v-10.464h.936v10.464h-.936Zm6.211-1.464v-7.536h2.628c.86 0 1.51.206 1.95.618.444.408.666.946.666 1.614 0 .66-.222 1.196-.666 1.608-.44.408-1.09.612-1.95.612h-1.692v3.084h-.936Zm4.224 0-2.16-3.42h1.02l2.352 3.42h-1.212Zm-3.288-3.744h1.62c.564 0 .992-.138 1.284-.414.296-.28.444-.642.444-1.086 0-.456-.142-.818-.426-1.086-.28-.268-.69-.402-1.23-.402h-1.692v2.988Zm8.404 3.888a2.41 2.41 0 0 1-1.332-.378 2.694 2.694 0 0 1-.924-1.062c-.224-.452-.336-.972-.336-1.56 0-.628.112-1.168.336-1.62.224-.452.53-.798.918-1.038a2.48 2.48 0 0 1 1.338-.366c.436 0 .808.088 1.116.264.308.176.556.414.744.714.188.3.318.64.39 1.02.076.376.098.766.066 1.17h-4.152v-.576h3.534l-.276.18a3.24 3.24 0 0 0-.042-.708 2.022 2.022 0 0 0-.21-.648c-.104-.2-.25-.36-.438-.48s-.428-.18-.72-.18c-.368 0-.676.094-.924.282a1.716 1.716 0 0 0-.558.744 2.596 2.596 0 0 0-.186.99v.384c0 .4.06.758.18 1.074.124.316.308.566.552.75.244.184.552.276.924.276s.678-.09.918-.27c.24-.18.386-.446.438-.798h.972a2.13 2.13 0 0 1-.408.984 2.107 2.107 0 0 1-.81.63 2.67 2.67 0 0 1-1.11.222Zm6.2 2.808c-.588 0-1.098-.084-1.53-.252-.432-.164-.768-.386-1.008-.666a1.38 1.38 0 0 1-.354-.918c0-.444.162-.784.486-1.02.328-.232.75-.348 1.266-.348l.516.324c-.432 0-.766.09-1.002.27a.878.878 0 0 0-.354.738c0 .312.168.576.504.792.336.216.828.324 1.476.324.48 0 .9-.07 1.26-.21.364-.136.646-.316.846-.54.204-.22.306-.458.306-.714a.64.64 0 0 0-.198-.468c-.132-.128-.334-.192-.606-.192h-2.232c-.388 0-.724-.058-1.008-.174a1.617 1.617 0 0 1-.648-.468.993.993 0 0 1-.228-.63c0-.24.068-.444.204-.612.136-.168.312-.296.528-.384.22-.088.456-.132.708-.132l.18.348a.885.885 0 0 0-.672.324.63.63 0 0 0-.12.396c0 .184.076.338.228.462.152.124.428.186.828.186h2.232c.54 0 .964.114 1.272.342.312.228.468.546.468.954 0 .376-.134.736-.402 1.08-.268.348-.652.632-1.152.852-.5.224-1.098.336-1.794.336Zm.168-4.632c-.44 0-.838-.088-1.194-.264a2.119 2.119 0 0 1-.84-.738 1.98 1.98 0 0 1-.306-1.098c0-.42.102-.788.306-1.104.208-.316.488-.56.84-.732a2.657 2.657 0 0 1 1.194-.264c.428 0 .816.088 1.164.264.352.172.632.416.84.732.208.316.312.684.312 1.104 0 .416-.104.782-.312 1.098a2.119 2.119 0 0 1-.84.738 2.542 2.542 0 0 1-1.164.264Zm0-.672c.44 0 .782-.136 1.026-.408.244-.272.366-.612.366-1.02 0-.42-.122-.76-.366-1.02-.244-.264-.586-.396-1.026-.396-.436 0-.78.132-1.032.396-.248.26-.372.6-.372 1.02 0 .408.124.748.372 1.02.252.272.596.408 1.032.408Zm1.884-2.616-.444-.18c0-.336.066-.63.198-.882.132-.256.32-.454.564-.594.244-.144.534-.216.87-.216l-.072.924c-.36 0-.636.078-.828.234-.192.152-.288.39-.288.714Zm6.593-.78h.936v5.748h-.936v-5.748Zm-4.068 0h.936v3.576c0 .48.116.844.348 1.092.236.248.572.372 1.008.372.36 0 .672-.096.936-.288.268-.192.474-.456.618-.792a2.89 2.89 0 0 0 .222-1.164h.348c0 .644-.094 1.194-.282 1.65-.184.456-.446.806-.786 1.05a1.99 1.99 0 0 1-1.188.36c-.432 0-.81-.08-1.134-.24a1.72 1.72 0 0 1-.756-.726c-.18-.328-.27-.742-.27-1.242v-3.648Zm7.434 5.748v-8.184h.936v8.184h-.936Zm6.915 0-.12-1.26v-2.46c0-.516-.11-.886-.33-1.11-.22-.228-.55-.342-.99-.342-.248 0-.474.036-.678.108-.2.072-.36.184-.48.336-.116.148-.174.34-.174.576h-1.044c0-.416.102-.75.306-1.002.204-.256.484-.44.84-.552.36-.116.77-.174 1.23-.174.44 0 .83.074 1.17.222.34.148.606.384.798.708.192.32.288.738.288 1.254v3.696h-.816Zm-1.956.144c-.472 0-.862-.084-1.17-.252a1.706 1.706 0 0 1-.69-.654 1.69 1.69 0 0 1-.228-.846c0-.388.096-.704.288-.948.196-.244.462-.422.798-.534a3.462 3.462 0 0 1 1.134-.174c.3 0 .6.03.9.09.304.06.6.142.888.246v.588a4.294 4.294 0 0 0-.816-.228 4.538 4.538 0 0 0-.828-.084c-.384 0-.708.08-.972.24-.264.156-.396.424-.396.804 0 .28.1.52.3.72.204.2.528.3.972.3.312 0 .592-.072.84-.216.252-.148.45-.332.594-.552.148-.22.222-.44.222-.66h.228c0 .384-.084.74-.252 1.068-.164.328-.4.592-.708.792-.308.2-.676.3-1.104.3Zm5.013-.144v-5.748h.936v5.748h-.936Zm.648-2.592c0-.728.07-1.332.21-1.812.14-.484.344-.844.612-1.08.272-.24.602-.36.99-.36.128 0 .244.01.348.03.108.016.216.042.324.078l-.06.924a2.882 2.882 0 0 0-.366-.09 1.726 1.726 0 0 0-.354-.042c-.34 0-.614.098-.822.294-.208.192-.36.464-.456.816a4.948 4.948 0 0 0-.138 1.242h-.288Z"/><path fill="#fff" d="M22.964 376.211v-18.202h1.586l12.56 15.81h-.832v-15.81h1.898v18.202h-1.587l-12.533-15.809h.832v15.809h-1.924Zm20.763 0V362.56h1.846v13.651h-1.846Zm.936-16.668c-.382 0-.702-.13-.962-.39s-.39-.572-.39-.936c0-.364.13-.667.39-.91.26-.26.58-.39.962-.39.381 0 .702.122.962.364.26.243.39.546.39.91 0 .382-.13.702-.39.962-.243.26-.564.39-.962.39Zm9.713 16.798c-1.127 0-2.193-.156-3.198-.468-1.006-.329-1.795-.737-2.367-1.222l.833-1.456c.554.416 1.265.78 2.132 1.092a8.442 8.442 0 0 0 2.73.442c1.3 0 2.236-.2 2.808-.598.572-.416.858-.962.858-1.638 0-.503-.164-.893-.494-1.17-.312-.295-.728-.512-1.248-.651a13.71 13.71 0 0 0-1.742-.39 37.178 37.178 0 0 1-1.924-.364 7.391 7.391 0 0 1-1.716-.598 3.605 3.605 0 0 1-1.275-1.118c-.312-.468-.468-1.092-.468-1.872 0-.745.208-1.413.624-2.002.416-.59 1.023-1.049 1.82-1.378.815-.347 1.803-.52 2.965-.52.884 0 1.768.121 2.652.364.884.225 1.612.528 2.184.91l-.806 1.482a5.993 5.993 0 0 0-1.95-.884 7.802 7.802 0 0 0-2.08-.286c-1.23 0-2.141.217-2.73.65-.572.416-.858.953-.858 1.612 0 .52.156.927.468 1.222.329.295.754.529 1.274.702.537.156 1.118.286 1.742.39.641.104 1.274.234 1.898.39a7.372 7.372 0 0 1 1.742.598c.538.243.962.598 1.274 1.066.33.451.494 1.049.494 1.795 0 .797-.225 1.49-.676 2.08-.433.572-1.074 1.023-1.924 1.352-.832.312-1.846.468-3.042.468Zm12.696 0c-1.126 0-2.193-.156-3.198-.468-1.005-.329-1.794-.737-2.366-1.222l.832-1.456c.555.416 1.265.78 2.132 1.092a8.441 8.441 0 0 0 2.73.442c1.3 0 2.237-.2 2.809-.598.572-.416.858-.962.858-1.638 0-.503-.165-.893-.494-1.17-.312-.295-.728-.512-1.249-.651a13.71 13.71 0 0 0-1.742-.39 37.195 37.195 0 0 1-1.924-.364 7.392 7.392 0 0 1-1.716-.598 3.607 3.607 0 0 1-1.274-1.118c-.312-.468-.468-1.092-.468-1.872 0-.745.208-1.413.624-2.002.416-.59 1.023-1.049 1.82-1.378.815-.347 1.803-.52 2.964-.52.884 0 1.769.121 2.653.364.884.225 1.612.528 2.184.91l-.806 1.482a5.992 5.992 0 0 0-1.95-.884 7.802 7.802 0 0 0-2.08-.286c-1.231 0-2.142.217-2.73.65-.573.416-.859.953-.859 1.612 0 .52.156.927.468 1.222.33.295.754.529 1.274.702.538.156 1.118.286 1.742.39.642.104 1.275.234 1.898.39a7.374 7.374 0 0 1 1.743.598 2.96 2.96 0 0 1 1.274 1.066c.33.451.494 1.049.494 1.795 0 .797-.225 1.49-.676 2.08-.434.572-1.075 1.023-1.924 1.352-.832.312-1.847.468-3.043.468Zm17.585-.13v-3.016l-.078-.494v-5.045c0-1.161-.33-2.054-.988-2.678-.641-.624-1.603-.936-2.886-.936a7.21 7.21 0 0 0-2.522.442c-.798.295-1.474.685-2.029 1.17l-.832-1.378c.694-.59 1.526-1.04 2.497-1.352a9.467 9.467 0 0 1 3.068-.494c1.768 0 3.129.442 4.082 1.326.971.867 1.456 2.193 1.456 3.978v8.477h-1.768Zm-4.706.13c-1.023 0-1.916-.165-2.678-.494-.746-.347-1.318-.815-1.717-1.404-.398-.607-.598-1.3-.598-2.08 0-.711.165-1.353.494-1.925.347-.589.902-1.057 1.665-1.404.78-.364 1.82-.546 3.12-.546h4.706v1.378H80.29c-1.318 0-2.236.234-2.756.702a2.285 2.285 0 0 0-.755 1.743c0 .78.304 1.404.91 1.872.607.468 1.457.702 2.549.702 1.04 0 1.933-.234 2.678-.702.763-.486 1.317-1.179 1.664-2.08l.416 1.274c-.347.901-.953 1.62-1.82 2.158-.85.537-1.924.806-3.224.806Zm18.457-13.911c1.11 0 2.081.216 2.913.65.849.416 1.508 1.057 1.976 1.924.485.867.728 1.959.728 3.276v7.931h-1.846v-7.749c0-1.439-.364-2.522-1.092-3.25-.711-.745-1.717-1.118-3.017-1.118-.97 0-1.82.199-2.548.598a4.014 4.014 0 0 0-1.664 1.69c-.381.728-.572 1.612-.572 2.652v7.177H91.44V362.56h1.768v3.744l-.286-.702a4.898 4.898 0 0 1 2.08-2.314c.954-.572 2.089-.858 3.406-.858Zm17.799 13.781v-18.202h1.924v16.538h10.193v1.664h-12.117Zm20.517.13c-1.421 0-2.669-.295-3.744-.884a6.635 6.635 0 0 1-2.522-2.47c-.607-1.058-.91-2.263-.91-3.615 0-1.352.286-2.548.858-3.588a6.47 6.47 0 0 1 2.392-2.444c1.023-.607 2.167-.91 3.432-.91 1.283 0 2.418.294 3.406.884 1.006.572 1.795 1.387 2.367 2.444.572 1.04.858 2.245.858 3.614 0 .087-.009.182-.026.286v.286h-11.883v-1.378h10.895l-.728.546c0-.988-.217-1.863-.65-2.626a4.58 4.58 0 0 0-1.717-1.82c-.728-.433-1.568-.65-2.522-.65-.936 0-1.777.217-2.522.65a4.519 4.519 0 0 0-1.742 1.82c-.416.78-.624 1.673-.624 2.678v.286c0 1.04.225 1.959.676 2.757a5.05 5.05 0 0 0 1.924 1.846c.832.433 1.777.65 2.834.65.832 0 1.604-.148 2.314-.442a4.827 4.827 0 0 0 1.873-1.352l1.04 1.196a5.838 5.838 0 0 1-2.289 1.664c-.901.381-1.898.572-2.99.572Zm18.068-.13v-3.016l-.078-.494v-5.045c0-1.161-.329-2.054-.988-2.678-.641-.624-1.603-.936-2.886-.936-.884 0-1.725.147-2.522.442-.798.295-1.474.685-2.028 1.17l-.832-1.378c.693-.59 1.525-1.04 2.496-1.352a9.466 9.466 0 0 1 3.068-.494c1.768 0 3.129.442 4.082 1.326.971.867 1.457 2.193 1.457 3.978v8.477h-1.769Zm-4.706.13c-1.023 0-1.916-.165-2.678-.494-.746-.347-1.318-.815-1.716-1.404-.399-.607-.599-1.3-.599-2.08 0-.711.165-1.353.495-1.925.346-.589.901-1.057 1.664-1.404.78-.364 1.82-.546 3.12-.546h4.706v1.378h-4.654c-1.317 0-2.236.234-2.756.702a2.284 2.284 0 0 0-.754 1.743c0 .78.303 1.404.91 1.872.606.468 1.456.702 2.548.702 1.04 0 1.933-.234 2.678-.702.763-.486 1.318-1.179 1.664-2.08l.416 1.274c-.346.901-.953 1.62-1.82 2.158-.849.537-1.924.806-3.224.806Zm11.801-.13v-15.367c0-1.214.355-2.193 1.066-2.939.711-.745 1.734-1.118 3.068-1.118.52 0 1.023.07 1.508.208a3.08 3.08 0 0 1 1.223.65l-.625 1.378a2.444 2.444 0 0 0-.91-.494 3.365 3.365 0 0 0-1.118-.182c-.78 0-1.378.217-1.794.65-.416.434-.624 1.075-.624 1.925v2.08l.052.858v12.351h-1.846Zm-2.444-12.117v-1.534h8.45v1.534h-8.45Z"/><mask id="d" fill="#fff"><path d="M20 414.033h470v15.092H20v-15.092Z"/></mask><path fill="#AFAFAF" d="M490 429.125v-.591H20v1.182h470v-.591Z" mask="url(#d)"/><path fill="#AFAFAF" d="M21.212 414.497h.936v3.324h3.732v-3.324h.924v7.536h-.924v-3.408h-3.732v3.408h-.936v-7.536Zm8.015 7.536v-7.536h4.644v.804h-3.708v2.532h3.492v.804h-3.492v2.58h3.708v.816h-4.644Zm5.85 0 2.593-7.536h1.14l2.532 7.536h-.984l-.636-1.932h-3l-.66 1.932h-.984Zm1.885-2.664h2.52l-1.26-3.732-1.26 3.732Zm5.906-4.872h2.208c.76 0 1.42.156 1.98.468.56.308.994.744 1.302 1.308.308.564.462 1.228.462 1.992 0 .756-.154 1.416-.462 1.98a3.307 3.307 0 0 1-1.302 1.32c-.56.312-1.22.468-1.98.468h-2.208v-7.536Zm.936.828v5.892h1.272c.568 0 1.056-.128 1.464-.384.412-.256.728-.606.948-1.05.224-.448.336-.954.336-1.518 0-.568-.112-1.072-.336-1.512a2.495 2.495 0 0 0-.948-1.044c-.408-.256-.896-.384-1.464-.384h-1.272Zm6.986 6.708v-7.536h.936v7.536h-.936Zm3.351-7.536h1.116l3.828 6.204h-.084v-6.204h.936v7.536h-1.044l-3.96-6.408h.144v6.408h-.936v-7.536Zm10.867 7.68c-.6 0-1.145-.156-1.637-.468-.492-.312-.885-.754-1.177-1.326-.291-.572-.438-1.25-.438-2.034 0-.652.094-1.226.282-1.722a3.57 3.57 0 0 1 .775-1.248 3.22 3.22 0 0 1 1.127-.756c.428-.172.88-.258 1.356-.258.588 0 1.104.122 1.548.366.445.24.825.622 1.14 1.146l-.887.312c-.268-.332-.556-.576-.864-.732a2.057 2.057 0 0 0-.973-.24c-.452 0-.868.126-1.248.378s-.685.612-.918 1.08c-.227.468-.342 1.026-.342 1.674 0 .576.094 1.088.282 1.536.188.444.455.794.799 1.05.347.252.76.378 1.236.378.364 0 .69-.084.977-.252.292-.168.522-.42.69-.756.168-.34.252-.768.252-1.284h.288c0 .64-.075 1.196-.227 1.668-.153.472-.397.838-.733 1.098-.332.26-.767.39-1.308.39Zm2.148-.144-.168-1.776v-1.26l-1.895-.06v-.636H67.9v3.732h-.744Zm5.77-7.536h.937v3.324h3.732v-3.324h.924v7.536h-.924v-3.408h-3.732v3.408h-.936v-7.536Zm11.076-.108h.876v5.016h1.308v.792h-1.308v1.836h-.924v-1.836h-3.9v-.72l3.948-5.088Zm-.012 1.476-2.82 3.612h2.82v-3.612Zm273.222 6.168v-7.536h4.584v.804h-3.648v2.508h3.396v.804h-3.396v3.42h-.936Zm8.029.144c-.516 0-.976-.114-1.38-.342a2.403 2.403 0 0 1-.948-1.014c-.232-.448-.348-1-.348-1.656 0-.66.116-1.212.348-1.656.232-.448.548-.786.948-1.014a2.759 2.759 0 0 1 1.38-.342c.512 0 .968.114 1.368.342.404.228.72.566.948 1.014.232.444.348.996.348 1.656 0 .656-.116 1.208-.348 1.656a2.355 2.355 0 0 1-.948 1.014c-.4.228-.856.342-1.368.342Zm-.024-.816c.372 0 .688-.088.948-.264.26-.18.456-.434.588-.762.136-.328.204-.718.204-1.17 0-.684-.142-1.222-.426-1.614-.284-.396-.706-.594-1.266-.594-.376 0-.694.09-.954.27-.256.176-.452.43-.588.762-.132.328-.198.72-.198 1.176 0 .676.142 1.212.426 1.608.288.392.71.588 1.266.588Zm8.591.672v-3.372c0-.548-.132-.964-.396-1.248-.26-.288-.616-.432-1.068-.432-.344 0-.642.094-.894.282-.252.188-.446.458-.582.81-.136.348-.204.764-.204 1.248h-.36c0-.668.088-1.238.264-1.71.176-.472.432-.832.768-1.08.34-.252.752-.378 1.236-.378.452 0 .838.102 1.158.306.324.2.572.488.744.864.172.376.258.822.258 1.338v3.372h-.924Zm-4.08 0v-5.736h.804l.132 1.32v4.416h-.936Zm9.006.144c-.312 0-.592-.06-.84-.18s-.444-.3-.588-.54c-.144-.24-.216-.54-.216-.9v-5.856h.924v5.832c0 .592.276.888.828.888.164 0 .322-.018.474-.054.156-.036.33-.09.522-.162l.132.672c-.204.088-.408.16-.612.216-.2.056-.408.084-.624.084Zm-2.568-5.232v-.648h3.66v.648h-3.66Zm10.575 5.232c-.504 0-.966-.09-1.386-.27a2.416 2.416 0 0 1-1.014-.81c-.256-.356-.388-.796-.396-1.32h.912c0 .352.086.642.258.87.172.224.4.392.684.504.284.108.594.162.93.162.364 0 .68-.058.948-.174.268-.116.474-.268.618-.456a1.01 1.01 0 0 0 .222-.63c0-.32-.098-.578-.294-.774-.196-.2-.486-.362-.87-.486l-1.332-.468c-.624-.224-1.096-.48-1.416-.768-.32-.288-.48-.692-.48-1.212 0-.584.224-1.06.672-1.428.452-.368 1.092-.552 1.92-.552.768 0 1.368.178 1.8.534.432.352.68.826.744 1.422h-.924a1.205 1.205 0 0 0-.492-.81c-.264-.196-.64-.294-1.128-.294-.496 0-.882.11-1.158.33-.276.22-.414.498-.414.834 0 .276.086.496.258.66.176.16.45.304.822.432l1.56.54c.54.18.966.432 1.278.756.316.324.474.744.474 1.26 0 .4-.108.762-.324 1.086-.212.324-.526.582-.942.774-.416.192-.926.288-1.53.288Zm5.37-7.236c-.192 0-.344-.054-.456-.162a.592.592 0 0 1-.168-.438c0-.176.056-.316.168-.42.112-.104.264-.156.456-.156s.344.052.456.156a.545.545 0 0 1 .168.42c0 .18-.056.326-.168.438-.112.108-.264.162-.456.162Zm-.468 7.092v-5.748h.936v5.748h-.936Zm2.938 0v-.756l3.384-4.224h-3.384v-.756h4.44v.756l-3.336 4.224h3.336v.756h-4.44Zm8.264.144a2.41 2.41 0 0 1-1.332-.378 2.694 2.694 0 0 1-.924-1.062c-.224-.452-.336-.972-.336-1.56 0-.628.112-1.168.336-1.62.224-.452.53-.798.918-1.038a2.48 2.48 0 0 1 1.338-.366c.436 0 .808.088 1.116.264.308.176.556.414.744.714.188.3.318.64.39 1.02.076.376.098.766.066 1.17h-4.152v-.576h3.534l-.276.18a3.24 3.24 0 0 0-.042-.708 2.022 2.022 0 0 0-.21-.648c-.104-.2-.25-.36-.438-.48s-.428-.18-.72-.18c-.368 0-.676.094-.924.282a1.716 1.716 0 0 0-.558.744 2.596 2.596 0 0 0-.186.99v.384c0 .4.06.758.18 1.074.124.316.308.566.552.75.244.184.552.276.924.276s.678-.09.918-.27c.24-.18.386-.446.438-.798h.972a2.13 2.13 0 0 1-.408.984 2.107 2.107 0 0 1-.81.63 2.67 2.67 0 0 1-1.11.222Zm3.632-1.098c0-.188.066-.35.198-.486a.665.665 0 0 1 .498-.204c.2 0 .37.068.51.204.14.136.21.298.21.486s-.07.346-.21.474a.729.729 0 0 1-.51.192.687.687 0 0 1-.498-.192.647.647 0 0 1-.198-.474Zm0-3.672c0-.188.066-.35.198-.486a.665.665 0 0 1 .498-.204c.2 0 .37.068.51.204.14.136.21.298.21.486s-.07.346-.21.474a.729.729 0 0 1-.51.192.687.687 0 0 1-.498-.192.647.647 0 0 1-.198-.474Zm5.709 4.626v-1.116c0-.436.07-.8.21-1.092.144-.292.344-.534.6-.726a4.07 4.07 0 0 1 .918-.498l1.488-.588c.384-.156.672-.356.864-.6.192-.244.288-.548.288-.912 0-.384-.134-.698-.402-.942-.264-.244-.634-.366-1.11-.366-.472 0-.86.102-1.164.306-.3.2-.472.502-.516.906h-1.044c.028-.436.156-.806.384-1.11a2.14 2.14 0 0 1 .942-.69c.396-.16.858-.24 1.386-.24.484 0 .918.094 1.302.282.384.188.686.448.906.78.224.328.336.706.336 1.134 0 .388-.072.726-.216 1.014-.144.288-.35.536-.618.744a3.863 3.863 0 0 1-.942.534l-1.524.612c-.384.148-.672.326-.864.534-.192.208-.288.478-.288.81v.36h4.38v.864h-5.316Zm9.865.144c-.592 0-1.116-.094-1.572-.282-.452-.188-.808-.446-1.068-.774a1.766 1.766 0 0 1-.384-1.116c0-.38.098-.706.294-.978.2-.272.472-.48.816-.624a2.994 2.994 0 0 1 1.182-.222 2.508 2.508 0 0 1 .684.084v.276c-.4 0-.75.066-1.05.198-.3.128-.534.298-.702.51a1.08 1.08 0 0 0-.252.684c0 .296.09.548.27.756.18.204.424.36.732.468a3.31 3.31 0 0 0 1.05.156c.648 0 1.152-.104 1.512-.312.36-.208.54-.48.54-.816a.872.872 0 0 0-.288-.672c-.188-.176-.448-.324-.78-.444l-2.076-.792a4.132 4.132 0 0 1-.768-.396 2.369 2.369 0 0 1-.648-.63 1.522 1.522 0 0 1-.264-.894c0-.388.11-.732.33-1.032.22-.3.536-.534.948-.702.416-.172.914-.258 1.494-.258.532 0 1.004.092 1.416.276.416.18.742.428.978.744.236.312.354.668.354 1.068 0 .312-.08.602-.24.87a1.724 1.724 0 0 1-.696.642c-.304.16-.68.24-1.128.24-.108 0-.212-.006-.312-.018a2.67 2.67 0 0 1-.324-.078v-.3c.324 0 .616-.054.876-.162.26-.112.466-.266.618-.462.156-.196.234-.424.234-.684 0-.248-.076-.468-.228-.66a1.428 1.428 0 0 0-.624-.456 2.352 2.352 0 0 0-.924-.168c-.34 0-.646.054-.918.162-.268.104-.48.246-.636.426a.865.865 0 0 0-.234.588c0 .268.09.484.27.648.184.16.438.3.762.42l2.076.792c.552.208.976.454 1.272.738.296.284.444.67.444 1.158 0 .396-.12.748-.36 1.056-.24.304-.586.542-1.038.714-.452.172-.998.258-1.638.258Zm7.503 0c-.42 0-.786-.096-1.098-.288a1.876 1.876 0 0 1-.714-.84c-.168-.372-.252-.824-.252-1.356h.396c0 .356.074.656.222.9.148.244.34.43.576.558.24.124.494.186.762.186.288 0 .564-.082.828-.246.264-.168.48-.414.648-.738.168-.324.252-.724.252-1.2 0-.456-.078-.846-.234-1.17a1.762 1.762 0 0 0-.618-.744 1.533 1.533 0 0 0-.864-.258 1.57 1.57 0 0 0-.768.198c-.24.132-.434.326-.582.582-.148.252-.222.564-.222.936h-.396c0-.556.092-1.022.276-1.398.184-.38.434-.666.75-.858.316-.192.67-.288 1.062-.288.448 0 .866.12 1.254.36s.702.584.942 1.032c.24.448.36.984.36 1.608 0 .632-.122 1.174-.366 1.626-.24.452-.556.798-.948 1.038-.392.24-.814.36-1.266.36Zm-2.604 2.676v-8.556h.78l.156 1.344v7.212h-.936Zm6.12-2.82 2.172-2.868-2.172-2.88h1.14l1.644 2.172 1.584-2.172h1.14l-2.184 2.88 2.172 2.868h-1.14l-1.644-2.184-1.572 2.184h-1.14Zm9.888 1.464v-10.464h.936v10.464h-.936Zm6.211-1.464v-7.536h2.628c.86 0 1.51.206 1.95.618.444.408.666.946.666 1.614 0 .66-.222 1.196-.666 1.608-.44.408-1.09.612-1.95.612h-1.692v3.084h-.936Zm4.224 0-2.16-3.42h1.02l2.352 3.42h-1.212Zm-3.288-3.744h1.62c.564 0 .992-.138 1.284-.414.296-.28.444-.642.444-1.086 0-.456-.142-.818-.426-1.086-.28-.268-.69-.402-1.23-.402h-1.692v2.988Zm8.404 3.888a2.41 2.41 0 0 1-1.332-.378 2.694 2.694 0 0 1-.924-1.062c-.224-.452-.336-.972-.336-1.56 0-.628.112-1.168.336-1.62.224-.452.53-.798.918-1.038a2.48 2.48 0 0 1 1.338-.366c.436 0 .808.088 1.116.264.308.176.556.414.744.714.188.3.318.64.39 1.02.076.376.098.766.066 1.17h-4.152v-.576h3.534l-.276.18a3.24 3.24 0 0 0-.042-.708 2.022 2.022 0 0 0-.21-.648c-.104-.2-.25-.36-.438-.48s-.428-.18-.72-.18c-.368 0-.676.094-.924.282a1.716 1.716 0 0 0-.558.744 2.596 2.596 0 0 0-.186.99v.384c0 .4.06.758.18 1.074.124.316.308.566.552.75.244.184.552.276.924.276s.678-.09.918-.27c.24-.18.386-.446.438-.798h.972a2.13 2.13 0 0 1-.408.984 2.107 2.107 0 0 1-.81.63 2.67 2.67 0 0 1-1.11.222Zm6.2 2.808c-.588 0-1.098-.084-1.53-.252-.432-.164-.768-.386-1.008-.666a1.38 1.38 0 0 1-.354-.918c0-.444.162-.784.486-1.02.328-.232.75-.348 1.266-.348l.516.324c-.432 0-.766.09-1.002.27a.878.878 0 0 0-.354.738c0 .312.168.576.504.792.336.216.828.324 1.476.324.48 0 .9-.07 1.26-.21.364-.136.646-.316.846-.54.204-.22.306-.458.306-.714a.64.64 0 0 0-.198-.468c-.132-.128-.334-.192-.606-.192h-2.232c-.388 0-.724-.058-1.008-.174a1.617 1.617 0 0 1-.648-.468.993.993 0 0 1-.228-.63c0-.24.068-.444.204-.612.136-.168.312-.296.528-.384.22-.088.456-.132.708-.132l.18.348a.885.885 0 0 0-.672.324.63.63 0 0 0-.12.396c0 .184.076.338.228.462.152.124.428.186.828.186h2.232c.54 0 .964.114 1.272.342.312.228.468.546.468.954 0 .376-.134.736-.402 1.08-.268.348-.652.632-1.152.852-.5.224-1.098.336-1.794.336Zm.168-4.632c-.44 0-.838-.088-1.194-.264a2.119 2.119 0 0 1-.84-.738 1.98 1.98 0 0 1-.306-1.098c0-.42.102-.788.306-1.104.208-.316.488-.56.84-.732a2.657 2.657 0 0 1 1.194-.264c.428 0 .816.088 1.164.264.352.172.632.416.84.732.208.316.312.684.312 1.104 0 .416-.104.782-.312 1.098a2.119 2.119 0 0 1-.84.738 2.542 2.542 0 0 1-1.164.264Zm0-.672c.44 0 .782-.136 1.026-.408.244-.272.366-.612.366-1.02 0-.42-.122-.76-.366-1.02-.244-.264-.586-.396-1.026-.396-.436 0-.78.132-1.032.396-.248.26-.372.6-.372 1.02 0 .408.124.748.372 1.02.252.272.596.408 1.032.408Zm1.884-2.616-.444-.18c0-.336.066-.63.198-.882.132-.256.32-.454.564-.594.244-.144.534-.216.87-.216l-.072.924c-.36 0-.636.078-.828.234-.192.152-.288.39-.288.714Zm6.593-.78h.936v5.748h-.936v-5.748Zm-4.068 0h.936v3.576c0 .48.116.844.348 1.092.236.248.572.372 1.008.372.36 0 .672-.096.936-.288.268-.192.474-.456.618-.792a2.89 2.89 0 0 0 .222-1.164h.348c0 .644-.094 1.194-.282 1.65-.184.456-.446.806-.786 1.05a1.99 1.99 0 0 1-1.188.36c-.432 0-.81-.08-1.134-.24a1.72 1.72 0 0 1-.756-.726c-.18-.328-.27-.742-.27-1.242v-3.648Zm7.434 5.748v-8.184h.936v8.184h-.936Zm6.915 0-.12-1.26v-2.46c0-.516-.11-.886-.33-1.11-.22-.228-.55-.342-.99-.342-.248 0-.474.036-.678.108-.2.072-.36.184-.48.336-.116.148-.174.34-.174.576h-1.044c0-.416.102-.75.306-1.002.204-.256.484-.44.84-.552.36-.116.77-.174 1.23-.174.44 0 .83.074 1.17.222.34.148.606.384.798.708.192.32.288.738.288 1.254v3.696h-.816Zm-1.956.144c-.472 0-.862-.084-1.17-.252a1.706 1.706 0 0 1-.69-.654 1.69 1.69 0 0 1-.228-.846c0-.388.096-.704.288-.948.196-.244.462-.422.798-.534a3.462 3.462 0 0 1 1.134-.174c.3 0 .6.03.9.09.304.06.6.142.888.246v.588a4.294 4.294 0 0 0-.816-.228 4.538 4.538 0 0 0-.828-.084c-.384 0-.708.08-.972.24-.264.156-.396.424-.396.804 0 .28.1.52.3.72.204.2.528.3.972.3.312 0 .592-.072.84-.216.252-.148.45-.332.594-.552.148-.22.222-.44.222-.66h.228c0 .384-.084.74-.252 1.068-.164.328-.4.592-.708.792-.308.2-.676.3-1.104.3Zm5.013-.144v-5.748h.936v5.748h-.936Zm.648-2.592c0-.728.07-1.332.21-1.812.14-.484.344-.844.612-1.08.272-.24.602-.36.99-.36.128 0 .244.01.348.03.108.016.216.042.324.078l-.06.924a2.882 2.882 0 0 0-.366-.09 1.726 1.726 0 0 0-.354-.042c-.34 0-.614.098-.822.294-.208.192-.36.464-.456.816a4.948 4.948 0 0 0-.138 1.242h-.288Z"/><path fill="#fff" d="M21.886 462.398v-11.582h1.01l7.992 10.06h-.53v-10.06h1.208v11.582h-1.01l-7.975-10.06h.53v10.06h-1.225Zm13.213 0v-8.687h1.175v8.687h-1.175Zm.595-10.606a.834.834 0 0 1-.612-.248.814.814 0 0 1-.248-.596.76.76 0 0 1 .248-.579.83.83 0 0 1 .612-.248c.243 0 .447.077.613.231a.76.76 0 0 1 .248.579.834.834 0 0 1-.248.613.8.8 0 0 1-.613.248Zm6.182 10.689a6.815 6.815 0 0 1-2.036-.298c-.64-.209-1.142-.469-1.506-.777l.53-.927c.353.265.805.496 1.357.695.551.187 1.13.281 1.737.281.828 0 1.423-.127 1.787-.38.364-.265.546-.613.546-1.043 0-.32-.104-.568-.314-.744-.198-.188-.463-.326-.794-.414a8.762 8.762 0 0 0-1.109-.248 23.977 23.977 0 0 1-1.224-.232 4.734 4.734 0 0 1-1.093-.38 2.302 2.302 0 0 1-.81-.712c-.199-.298-.298-.695-.298-1.191 0-.475.132-.899.397-1.275.265-.375.65-.667 1.158-.876.519-.221 1.148-.331 1.887-.331.562 0 1.125.077 1.688.231.562.144 1.025.337 1.39.579l-.514.944a3.806 3.806 0 0 0-1.24-.563 4.987 4.987 0 0 0-1.324-.182c-.784 0-1.363.138-1.738.414-.364.264-.546.606-.546 1.026 0 .33.1.59.298.777.21.188.48.337.81.447.343.099.712.182 1.11.248.408.066.81.149 1.207.248.409.089.778.216 1.109.381.342.154.612.381.81.678.21.287.315.668.315 1.142 0 .508-.143.949-.43 1.324-.276.364-.684.651-1.224.86-.53.199-1.175.298-1.936.298Zm8.08 0a6.816 6.816 0 0 1-2.036-.298c-.64-.209-1.142-.469-1.506-.777l.53-.927c.353.265.805.496 1.356.695a5.379 5.379 0 0 0 1.738.281c.827 0 1.423-.127 1.787-.38.364-.265.546-.613.546-1.043 0-.32-.105-.568-.314-.744-.199-.188-.464-.326-.795-.414a8.76 8.76 0 0 0-1.108-.248 23.956 23.956 0 0 1-1.225-.232 4.732 4.732 0 0 1-1.092-.38 2.302 2.302 0 0 1-.81-.712c-.2-.298-.299-.695-.299-1.191 0-.475.133-.899.398-1.275.264-.375.65-.667 1.158-.876.518-.221 1.147-.331 1.886-.331a6.37 6.37 0 0 1 1.688.231c.563.144 1.026.337 1.39.579l-.513.944a3.807 3.807 0 0 0-1.241-.563 4.987 4.987 0 0 0-1.324-.182c-.783 0-1.362.138-1.737.414-.364.264-.546.606-.546 1.026 0 .33.099.59.298.777.21.188.48.337.81.447.342.099.712.182 1.109.248.408.066.81.149 1.208.248.408.089.778.216 1.109.381.342.154.612.381.81.678.21.287.315.668.315 1.142 0 .508-.144.949-.43 1.324-.276.364-.684.651-1.225.86-.53.199-1.175.298-1.936.298Zm11.19-.083v-1.919l-.05-.314v-3.211c0-.739-.21-1.307-.629-1.704-.408-.397-1.02-.596-1.837-.596-.562 0-1.097.094-1.605.282a4.095 4.095 0 0 0-1.29.744l-.53-.877c.441-.375.97-.661 1.589-.86a6.025 6.025 0 0 1 1.952-.314c1.125 0 1.991.281 2.598.843.618.552.927 1.396.927 2.532v5.394h-1.126Zm-2.995.083c-.651 0-1.22-.105-1.705-.314-.474-.221-.838-.519-1.092-.894a2.354 2.354 0 0 1-.38-1.324c0-.452.104-.86.314-1.224.22-.375.574-.673 1.059-.894.496-.231 1.158-.347 1.986-.347h2.995v.877h-2.962c-.839 0-1.423.149-1.754.447-.32.298-.48.667-.48 1.108 0 .497.193.894.579 1.192.386.298.927.447 1.622.447.661 0 1.23-.149 1.704-.447.485-.309.838-.75 1.059-1.324l.265.811a2.75 2.75 0 0 1-1.159 1.373c-.54.342-1.224.513-2.051.513Zm11.745-8.852c.706 0 1.324.137 1.853.413.541.265.96.673 1.258 1.225.309.551.463 1.246.463 2.085v5.046h-1.174v-4.931c0-.915-.232-1.605-.695-2.068-.453-.474-1.093-.711-1.92-.711-.618 0-1.158.126-1.621.38a2.554 2.554 0 0 0-1.06 1.076c-.242.463-.364 1.026-.364 1.687v4.567h-1.174v-8.687h1.125v2.383l-.182-.447a3.12 3.12 0 0 1 1.324-1.472c.606-.364 1.329-.546 2.167-.546Zm11.327 8.769v-11.582h1.224v10.523h6.486v1.059h-7.71Zm13.056.083c-.904 0-1.699-.187-2.383-.562a4.238 4.238 0 0 1-1.605-1.572c-.386-.673-.579-1.44-.579-2.3 0-.861.182-1.622.546-2.284a4.121 4.121 0 0 1 1.522-1.555 4.2 4.2 0 0 1 2.185-.579c.816 0 1.538.187 2.167.562a3.86 3.86 0 0 1 1.506 1.556c.364.661.546 1.428.546 2.3 0 .055-.005.115-.016.182v.182h-7.562v-.877h6.933l-.463.347c0-.629-.138-1.186-.414-1.671a2.901 2.901 0 0 0-1.092-1.158c-.464-.276-.999-.414-1.605-.414a3.13 3.13 0 0 0-1.605.414 2.867 2.867 0 0 0-1.11 1.158c-.264.496-.396 1.064-.396 1.704v.182c0 .662.143 1.247.43 1.754.298.497.706.888 1.224 1.175.53.276 1.131.414 1.804.414.53 0 1.02-.094 1.473-.282a3.06 3.06 0 0 0 1.191-.86l.662.761a3.721 3.721 0 0 1-1.456 1.059 4.83 4.83 0 0 1-1.903.364Zm11.498-.083v-1.919l-.05-.314v-3.211c0-.739-.209-1.307-.628-1.704-.409-.397-1.021-.596-1.837-.596-.563 0-1.098.094-1.605.282a4.09 4.09 0 0 0-1.291.744l-.53-.877a4.602 4.602 0 0 1 1.589-.86 6.028 6.028 0 0 1 1.953-.314c1.125 0 1.991.281 2.598.843.617.552.926 1.396.926 2.532v5.394h-1.125Zm-2.995.083c-.651 0-1.219-.105-1.704-.314-.475-.221-.839-.519-1.093-.894a2.355 2.355 0 0 1-.38-1.324c0-.452.105-.86.314-1.224.221-.375.574-.673 1.059-.894.497-.231 1.159-.347 1.986-.347h2.995v.877h-2.962c-.838 0-1.423.149-1.754.447-.32.298-.48.667-.48 1.108 0 .497.193.894.579 1.192.386.298.927.447 1.622.447.662 0 1.23-.149 1.704-.447.486-.309.839-.75 1.059-1.324l.265.811a2.755 2.755 0 0 1-1.158 1.373c-.541.342-1.225.513-2.052.513Zm7.51-.083v-9.779c0-.772.226-1.395.678-1.87.452-.474 1.103-.711 1.953-.711.331 0 .65.044.959.132.309.089.568.226.778.414l-.397.877a1.565 1.565 0 0 0-.579-.314 2.122 2.122 0 0 0-.712-.116c-.496 0-.877.138-1.141.413-.265.276-.398.684-.398 1.225v1.324l.034.546v7.859h-1.175Zm-1.556-7.71v-.977h5.378v.977h-5.378Z"/></svg>