<svg xmlns="http://www.w3.org/2000/svg" width="464" height="312" fill="none"><g filter="url(#a)"><g clip-path="url(#b)"><path fill="#fff" d="M32 1h400v21.875H32z"/><path fill="#ED6A5E" fill-rule="evenodd" d="M43.719 14.281a2.344 2.344 0 1 0 0-4.687 2.344 2.344 0 0 0 0 4.687Z" clip-rule="evenodd"/><path fill="#F4BF4F" fill-rule="evenodd" d="M51.531 14.281a2.344 2.344 0 1 0 0-4.687 2.344 2.344 0 0 0 0 4.687Z" clip-rule="evenodd"/><path fill="#61C554" fill-rule="evenodd" d="M59.344 14.281a2.344 2.344 0 1 0 0-4.687 2.344 2.344 0 0 0 0 4.687Z" clip-rule="evenodd"/><g clip-path="url(#c)"><path fill="#8C8C8C" fill-rule="evenodd" d="M76.607 8.835a.245.245 0 0 1 0 .346l-2.757 2.756 2.757 2.757a.244.244 0 0 1-.346.346l-2.93-2.93a.245.245 0 0 1 0-.345l2.93-2.93a.244.244 0 0 1 .346 0Z" clip-rule="evenodd"/></g><g clip-path="url(#d)"><path fill="#000" fill-opacity=".1" fill-rule="evenodd" d="M85.832 8.835a.244.244 0 0 1 .345 0l2.93 2.93a.245.245 0 0 1 0 .345l-2.93 2.93a.245.245 0 0 1-.346-.346l2.758-2.757-2.757-2.756a.245.245 0 0 1 0-.346Z" clip-rule="evenodd"/><path stroke="#000" stroke-opacity=".1" stroke-width=".024" d="M86.004 8.776a.233.233 0 0 1 .165.067l2.93 2.93a.232.232 0 0 1 .05.253.234.234 0 0 1-.05.076l-2.93 2.93a.233.233 0 0 1-.33-.33l2.759-2.756.008-.009-.008-.008-2.758-2.757a.234.234 0 0 1-.05-.254.234.234 0 0 1 .125-.125.234.234 0 0 1 .089-.017Z"/></g><path fill="#F1F1F1" d="M151.531 11.469c0-1.75 0-2.625.341-3.294a3.123 3.123 0 0 1 1.366-1.366c.668-.34 1.543-.34 3.293-.34h177.5c1.75 0 2.625 0 3.294.34a3.13 3.13 0 0 1 1.366 1.366c.34.668.34 1.544.34 3.294v.937c0 1.75 0 2.625-.34 3.294a3.128 3.128 0 0 1-1.366 1.366c-.669.34-1.544.34-3.294.34h-177.5c-1.75 0-2.625 0-3.293-.34a3.122 3.122 0 0 1-1.366-1.366c-.341-.668-.341-1.544-.341-3.294v-.937Z"/><path fill="#151515" d="M227.076 13.938v-3.694h.426v1.364h.036a3.22 3.22 0 0 1 .13-.184.758.758 0 0 1 .241-.202.87.87 0 0 1 .429-.09 1.096 1.096 0 0 1 1.034.67c.1.214.149.467.149.758a1.8 1.8 0 0 1-.149.763c-.1.214-.238.38-.415.497a1.086 1.086 0 0 1-.611.175.888.888 0 0 1-.428-.088.796.796 0 0 1-.247-.204 2.872 2.872 0 0 1-.133-.191h-.051v.425h-.411Zm.418-1.385c0 .209.031.393.092.553a.84.84 0 0 0 .269.373.698.698 0 0 0 .433.134.696.696 0 0 0 .445-.14.854.854 0 0 0 .271-.383c.061-.161.092-.34.092-.537 0-.195-.03-.37-.09-.527a.817.817 0 0 0-.269-.373.71.71 0 0 0-.449-.14.707.707 0 0 0-.436.133.788.788 0 0 0-.267.364c-.06.155-.091.336-.091.543Zm4.64-.765-.382.108a.703.703 0 0 0-.106-.186.516.516 0 0 0-.188-.151.682.682 0 0 0-.305-.06c-.169 0-.31.04-.423.118-.112.077-.168.175-.168.294 0 .105.038.189.115.25a.97.97 0 0 0 .361.154l.411.1c.248.06.432.153.554.276a.649.649 0 0 1 .182.475c0 .158-.046.3-.137.425a.91.91 0 0 1-.379.296 1.382 1.382 0 0 1-.566.108c-.283 0-.516-.061-.702-.184a.815.815 0 0 1-.351-.537l.404-.101a.56.56 0 0 0 .218.335.732.732 0 0 0 .424.112c.198 0 .356-.042.472-.126.118-.085.177-.188.177-.307a.323.323 0 0 0-.101-.241.645.645 0 0 0-.31-.148l-.462-.108c-.254-.06-.44-.154-.559-.28a.676.676 0 0 1-.177-.478c0-.156.044-.294.132-.415a.9.9 0 0 1 .362-.283c.154-.068.329-.102.523-.102.275 0 .49.06.646.18.157.12.269.279.335.476Zm1.896-.62v.36h-1.435v-.36h1.435Zm-1.017-.664h.426v2.64c0 .12.017.21.052.27a.272.272 0 0 0 .137.12.56.56 0 0 0 .179.028.757.757 0 0 0 .115-.007l.072-.014.087.382a.886.886 0 0 1-.318.05.854.854 0 0 1-.353-.077.705.705 0 0 1-.285-.236.675.675 0 0 1-.112-.4v-2.756Zm2.753 3.491c-.25 0-.47-.06-.658-.178a1.204 1.204 0 0 1-.44-.5 1.684 1.684 0 0 1-.157-.75c0-.289.052-.54.157-.756.105-.215.252-.382.44-.5.188-.12.408-.18.658-.18.25 0 .469.06.656.18.189.118.336.285.44.5.106.216.159.467.159.756 0 .286-.053.536-.159.75a1.19 1.19 0 0 1-.44.5 1.196 1.196 0 0 1-.656.178Zm0-.382c.19 0 .346-.049.469-.146a.866.866 0 0 0 .272-.384c.059-.159.088-.33.088-.516 0-.185-.029-.358-.088-.518a.877.877 0 0 0-.272-.387.726.726 0 0 0-.469-.148c-.19 0-.346.05-.469.148a.87.87 0 0 0-.272.387c-.059.16-.089.333-.089.518s.03.357.089.516a.858.858 0 0 0 .272.384.732.732 0 0 0 .469.146Zm3.03.382a1.2 1.2 0 0 1-.671-.184 1.197 1.197 0 0 1-.433-.506 1.716 1.716 0 0 1-.151-.738c0-.281.051-.53.155-.745a1.22 1.22 0 0 1 .436-.506c.188-.123.407-.184.657-.184.194 0 .37.036.526.108.156.072.285.173.384.303.1.13.162.281.186.454h-.426a.648.648 0 0 0-.663-.483.749.749 0 0 0-.437.13.853.853 0 0 0-.29.362 1.351 1.351 0 0 0-.103.547c0 .213.034.4.101.559a.859.859 0 0 0 .289.37.747.747 0 0 0 .44.13.76.76 0 0 0 .301-.057.619.619 0 0 0 .362-.425h.426a.996.996 0 0 1-.178.441.992.992 0 0 1-.374.31 1.203 1.203 0 0 1-.537.114Zm2.108-1.067-.007-.527h.086l1.212-1.233h.527l-1.292 1.305h-.036l-.49.455Zm-.397 1.01v-3.694h.426v3.694h-.426Zm1.76 0-1.082-1.371.303-.296 1.32 1.666h-.541Zm1.313.028a.311.311 0 0 1-.229-.095.312.312 0 0 1-.096-.23.31.31 0 0 1 .096-.228.311.311 0 0 1 .229-.096c.089 0 .165.032.229.096.063.063.095.14.095.229a.34.34 0 0 1-.162.281.309.309 0 0 1-.162.043Zm2.213.03a1.2 1.2 0 0 1-.671-.185 1.202 1.202 0 0 1-.432-.506 1.717 1.717 0 0 1-.152-.738c0-.281.052-.53.155-.745.105-.216.25-.385.437-.506a1.17 1.17 0 0 1 .656-.184c.195 0 .37.036.527.108a.951.951 0 0 1 .569.757h-.425a.664.664 0 0 0-.217-.335c-.11-.099-.259-.148-.447-.148a.746.746 0 0 0-.436.13.847.847 0 0 0-.291.362 1.352 1.352 0 0 0-.102.547c0 .213.033.4.101.559a.85.85 0 0 0 .288.37.747.747 0 0 0 .44.13.748.748 0 0 0 .301-.057.619.619 0 0 0 .363-.425h.425a.984.984 0 0 1-.551.752 1.205 1.205 0 0 1-.538.113Zm2.837 0c-.25 0-.47-.06-.658-.18a1.204 1.204 0 0 1-.44-.499 1.684 1.684 0 0 1-.157-.75c0-.289.052-.54.157-.756.105-.215.252-.382.44-.5.188-.12.408-.18.658-.18.25 0 .469.06.656.18.189.118.336.285.44.5.106.216.159.467.159.756 0 .286-.053.536-.159.75a1.19 1.19 0 0 1-.44.5 1.196 1.196 0 0 1-.656.178Zm0-.383c.19 0 .346-.049.469-.146a.866.866 0 0 0 .272-.384c.059-.159.088-.33.088-.516 0-.185-.029-.358-.088-.518a.877.877 0 0 0-.272-.387.726.726 0 0 0-.469-.148c-.19 0-.346.05-.469.148a.87.87 0 0 0-.272.387c-.059.16-.089.333-.089.518s.03.357.089.516a.858.858 0 0 0 .272.384.732.732 0 0 0 .469.146Zm1.905.325v-2.77h.411v.432h.036a.694.694 0 0 1 .279-.344.838.838 0 0 1 .464-.124.79.79 0 0 1 .456.124.814.814 0 0 1 .287.344h.029a.8.8 0 0 1 .319-.34.971.971 0 0 1 .51-.128.83.83 0 0 1 .608.232c.157.154.236.394.236.72v1.854h-.426v-1.854c0-.205-.056-.35-.167-.438a.622.622 0 0 0-.395-.132c-.195 0-.346.059-.453.177a.63.63 0 0 0-.16.443v1.803h-.433V12.04a.499.499 0 0 0-.153-.38.55.55 0 0 0-.395-.146.587.587 0 0 0-.311.088.666.666 0 0 0-.23.245.721.721 0 0 0-.087.36v1.73h-.425Z"/><g fill="#8C8C8C" fill-rule="evenodd" clip-path="url(#e)" clip-rule="evenodd"><path d="M330.895 11.432a1.95 1.95 0 0 1 2.774-1.234.198.198 0 0 0 .216-.026.21.21 0 0 0 .047-.06.189.189 0 0 0 .012-.149.193.193 0 0 0-.038-.066.194.194 0 0 0-.059-.048 2.346 2.346 0 0 0-3.405 2.234 2.347 2.347 0 0 0 2.094 2.185 2.345 2.345 0 0 0 2.376-3.307.195.195 0 1 0-.355.163 1.96 1.96 0 0 1-.733 2.465 1.954 1.954 0 0 1-2.929-2.157Z"/><path d="M332.839 8.87a.194.194 0 0 1 .276 0l.976.976a.193.193 0 0 1 0 .277l-.976.976a.194.194 0 0 1-.138.057.197.197 0 0 1-.196-.195.192.192 0 0 1 .058-.138l.838-.838-.838-.839a.193.193 0 0 1 0-.277Z"/></g><g fill="#8C8C8C" fill-rule="evenodd" clip-path="url(#f)" clip-rule="evenodd"><path d="M401.456 10.157a.25.25 0 0 0 .173.072.248.248 0 0 0 .173-.072l1.292-1.292 1.292 1.292a.25.25 0 0 0 .267.053.254.254 0 0 0 .079-.053.236.236 0 0 0 .071-.173.236.236 0 0 0-.071-.173l-1.465-1.464a.248.248 0 0 0-.266-.053.247.247 0 0 0-.08.053l-1.465 1.464a.269.269 0 0 0-.053.08.25.25 0 0 0 .053.266Z"/><path d="M403.094 13.646a.244.244 0 0 0 .244-.244V9.008a.244.244 0 0 0-.488 0v4.394a.243.243 0 0 0 .244.245Z"/><path d="M400.408 14.867a.73.73 0 0 0 .733.733h3.906a.734.734 0 0 0 .732-.733V11.45a.734.734 0 0 0-.732-.732h-.733a.244.244 0 0 0 0 .488h.733a.245.245 0 0 1 .244.244v3.418a.245.245 0 0 1-.244.244h-3.906a.245.245 0 0 1-.245-.244V11.45a.244.244 0 0 1 .245-.244h.732a.245.245 0 0 0 .244-.244.245.245 0 0 0-.244-.244h-.732a.73.73 0 0 0-.733.732v3.418Z"/></g><path fill="#8C8C8C" d="M418.719 9.3a.294.294 0 0 1 .293.294v2.05h2.05c.078 0 .153.031.208.086a.296.296 0 0 1 0 .415.294.294 0 0 1-.208.085h-2.05v2.051a.293.293 0 0 1-.586 0v-2.05h-2.051a.292.292 0 0 1-.207-.5.292.292 0 0 1 .207-.086h2.051V9.594a.293.293 0 0 1 .293-.293Z"/><path stroke="#000" stroke-opacity=".1" stroke-width=".391" d="M32 22.68h400"/><path fill="url(#g)" d="M0 0h400v249.351H0z" transform="translate(32 22.875)"/><path fill="#fff" d="M97.193 117.456h266.473v60.733H97.193z"/><path fill="#284D99" d="M102.637 117.617c.085 0 13.448.034 52.309.034v22.994l.827 1.437c1.453 1.606 3.076 3.053 4.81 4.734l-.004.003.003.003c-.704.692-4.743 4.719-4.859 4.848a4.083 4.083 0 0 0-.777 1.327v24.949h-.001l-52.309-.113c-.01 0-.133.007-.338.004l-.079-.002a6.494 6.494 0 0 1-.311-.014l-.109-.008-.13-.012a5.756 5.756 0 0 1-.265-.032 6.391 6.391 0 0 1-1.662-.449c-.019-.008-.037-.018-.056-.027a4.232 4.232 0 0 1-.244-.116l-.088-.046a4.432 4.432 0 0 1-.222-.128l-.099-.06-.053-.035a4.48 4.48 0 0 1-.218-.154l-.02-.016a4.483 4.483 0 0 1-.21-.172l-.034-.031a4.31 4.31 0 0 1-.175-.168l-.05-.052a3.9 3.9 0 0 1-.536-.711c-.427-.724-.688-1.679-.642-2.943v-49.633s-.822-5.411 5.542-5.411Z"/><path fill="#0E2954" d="M249.288 125.247c6.865-2.345 13.854-2.351 20.611.442 4.539 1.874 7 5.4 6.893 10.555-.023.982-.034 1.959-.04 2.941-.017 2.941.022 5.882.022 8.822 0 2.936-.033 5.883-.027 8.824.006.982.017 1.958.039 2.94.118 5.28-2.382 8.875-7.084 10.72-7.09 2.782-14.332 2.798-21.416-.04-4.657-1.862-7.011-5.49-6.977-10.657.05-7.647.01-15.289.01-22.931 0-6.018 2.31-9.686 7.969-11.616Zm42.401-.171c6.189-2.022 12.497-2.021 18.68.086 4.961 1.686 7.489 5.319 7.709 10.622.214 5.098.158 5.195-4.849 5.195-1.379 0-2.758.033-4.132-.018-1.588-.062-2.186-.607-2.158-2.191.034-2.106-.219-4.059-2.393-4.968-2.506-1.05-5.08-1.09-7.501.313-1.132.653-1.712 1.76-1.712 3.099-.011 7.188-.017 14.382 0 21.576.006 1.776.913 3.009 2.523 3.656 1.937.783 3.931.805 5.918.192 2.101-.647 3.104-2.044 3.143-4.298.073-4.212.073-4.213 4.274-4.213 1.622 0 3.255-.084 4.866.052.613.051 1.503.494 1.712.999 1.914 4.553-.457 12.098-4.798 14.438-2.326 1.254-5.001 2.101-7.614 2.509-4.229.659-8.515.466-12.693-.749-5.034-1.459-9.061-5.024-8.83-11.707.13-3.86.022-7.739.022-11.605v-11.758c0-5.723 2.427-9.465 7.833-11.23Zm-116.722.114c6.543-2.203 13.16-2.294 19.568.426 5.998 2.543 6.972 7.88 6.24 13.342-.067.499-1.059 1.214-1.65 1.249-2.5.141-5.018.084-7.523.05-1.104-.017-1.639-.595-1.718-1.77-.321-4.894-2.697-6.609-7.563-5.542-2.19.482-3.272 1.749-3.429 4.014-.164 2.328.518 3.339 2.878 4.167 3.378 1.181 6.757 2.368 10.159 3.492 8.413 2.776 10.096 7.534 9.702 15.29-.411 7.96-5.249 10.685-10.565 11.792-5.67 1.181-11.33 1.175-16.826-.903-4.747-1.794-7.405-5.234-7.512-10.452-.04-1.68.057-3.367.113-5.048.034-1.039.62-1.504 1.622-1.499h7.827c.957 0 1.458.511 1.492 1.459.034 1.09.012 2.181.051 3.271.096 2.617 1.222 4.087 3.784 4.536 1.425.25 2.951.324 4.37.091 3.283-.545 4.437-1.987 4.184-5.291-.079-.999-.726-2.164-1.475-2.845-.918-.829-2.179-1.317-3.356-1.788-3.097-1.238-6.189-2.521-9.365-3.537-6.865-2.192-8.729-7.37-8.346-13.604.051-.789.119-1.583.254-2.361.721-4.218 3.057-7.182 7.084-8.539Zm177.051-.92c2.1.165 4.229.017 6.346.04 1.774.017 2.134.613 1.183 2.174-2.906 4.769-5.862 9.515-8.802 14.267-1.143 1.851-2.241 3.731-3.463 5.531-.642.942-.682 1.612.005 2.611a1616.754 1616.754 0 0 1 13.369 19.792c.49.738.705 1.664 1.048 2.504-.912.221-1.819.596-2.737.63-2.36.091-4.73-.063-7.084.062-1.988.103-3.199-.812-4.207-2.413-3.34-5.319-6.74-10.6-10.136-15.88-.27-.425-.693-.749-1.042-1.118-.129.074-.259.154-.389.228v1.589c0 5.064.006 10.123-.005 15.187-.006 1.913-.44 2.345-2.366 2.362-2.213.017-4.431.017-6.644 0-1.875-.017-2.36-.5-2.445-2.362-.016-.295-.005-.591-.005-.891 0-13.694 0-27.395.005-41.094 0-.545.017-1.09.084-1.629.136-1.039.705-1.567 1.786-1.556 2.41.023 4.826-.011 7.236 0 1.965.012 2.343.375 2.349 2.333.011 5.309.005 10.623.005 15.932v1.561c.141.057.287.108.428.159.332-.409.721-.783.991-1.232 3.148-5.263 6.33-10.503 9.388-15.817 1.183-2.061 2.646-3.163 5.102-2.97Zm-145.775.018c9.737.034 19.479.011 29.221.022 1.723.006 1.999.301 2.027 1.987.023 1.686.023 3.373.006 5.059-.017 1.862-.321 2.197-2.135 2.22-2.455.028-4.922.056-7.377-.012-1.092-.034-1.446.313-1.435 1.431.05 5.808.022 11.61.022 17.413 0 5.456.006 10.912 0 16.368 0 2.85-.225 3.066-2.99 3.066-2.022 0-4.038.017-6.054-.006-1.813-.022-2.275-.443-2.348-2.271-.068-1.635-.023-3.276-.023-4.911v-29.165c0-1.902-.005-1.902-1.948-1.902-2.314 0-4.629-.04-6.938.011-1.452.029-2.089-.709-2.123-2.055a122.133 122.133 0 0 1-.005-5.207c.022-1.356.636-2.054 2.1-2.048Zm56.543 9.532c-2.072-.903-4.223-.932-6.357-.393-2.63.665-3.638 2.079-3.638 4.81v9.827c0 3.429.022 6.853-.006 10.276-.017 1.993.936 3.31 2.693 4.026 2.376.965 4.809.942 7.185-.006 1.706-.681 2.691-1.976 2.691-3.883.012-6.949.012-13.898 0-20.848-.005-1.828-.918-3.088-2.568-3.809Z"/><path fill="#0E2954" d="M372.067 120.677c-.012-1.528-.676-3.22-1.504-4.531-1.723-2.731-4.544-3.401-7.591-3.401-87.117.006-174.24.006-261.357.006-.394 0-.788-.017-1.183.005-4.91.267-8.12 3.43-8.137 8.363-.056 17.765-.034 35.53-.011 53.295.005 5.513 4.426 8.306 8.436 8.301 43.857-.074 87.708-.046 131.565-.046h131.864c4.449 0 7.974-3.406 7.98-7.801.011-18.071.039-36.131-.062-54.191Zm-4.658 9.742v43.024c0 3.316-1.16 4.508-4.403 4.508-68.861 0-137.721-.159-206.581-.125h-53.779s-5.744.415-5.542-5.172v-49.633s-.822-5.41 5.542-5.41c0 0 131.886.034 170.866.034h88.897c.343 0 .687-.006 1.036 0 2.771.045 3.953 1.215 3.97 3.991.011 2.93-.006 5.859-.006 8.783Z"/><path fill="#fff" d="M155.777 142.047c1.452 1.607 3.074 3.055 4.809 4.735a1016.3 1016.3 0 0 0-4.86 4.849 4.06 4.06 0 0 0-.777 1.328v24.987l208.056.011c3.244 0 4.404-1.192 4.404-4.508v-43.024c0-2.929.011-5.853-.006-8.783-.017-2.771-1.199-3.94-3.97-3.991-.344-.006-.687 0-1.036 0H273.5c-38.986 0-79.577.011-118.562-.034v22.999l.839 1.431Zm45.85 17.856c-.411 7.96-5.248 10.685-10.564 11.792-5.671 1.181-11.331 1.175-16.827-.903-4.741-1.794-7.405-5.234-7.512-10.452-.034-1.681.062-3.367.113-5.047.033-1.039.619-1.505 1.621-1.499 1.279.005 2.557 0 3.841 0 1.329 0 2.658 0 3.987.005.957 0 1.458.511 1.492 1.46.04 1.09.012 2.18.051 3.27.096 2.611 1.222 4.082 3.784 4.536 1.425.25 2.951.324 4.37.091 3.283-.545 4.438-1.987 4.184-5.291-.079-1-.721-2.169-1.475-2.845-.912-.829-2.179-1.317-3.356-1.788-3.103-1.238-6.195-2.521-9.365-3.537-6.865-2.192-8.729-7.37-8.346-13.604.051-.789.118-1.584.253-2.362.721-4.224 3.058-7.182 7.085-8.539 6.549-2.208 13.166-2.299 19.569.426 5.997 2.55 6.966 7.886 6.239 13.342-.067.5-1.053 1.215-1.65 1.25-2.5.141-5.017.079-7.523.051-1.104-.012-1.639-.591-1.718-1.772-.321-4.894-2.697-6.608-7.563-5.541-2.19.483-3.272 1.743-3.429 4.014-.164 2.328.512 3.338 2.877 4.167 3.379 1.181 6.758 2.368 10.159 3.492 8.419 2.776 10.103 7.534 9.703 15.284Zm35.866-28.547c-.017 1.862-.321 2.197-2.134 2.22-2.461.029-4.922.057-7.377-.011-1.093-.029-1.447.318-1.436 1.431.051 5.802.022 11.604.022 17.412 0 5.457.006 10.913 0 16.369-.005 2.85-.225 3.066-2.99 3.066-2.016 0-4.032.017-6.054-.006-1.813-.023-2.275-.443-2.348-2.271-.062-1.635-.022-3.276-.022-4.911v-29.166c0-1.901-.006-1.901-1.949-1.901-2.314 0-4.623-.04-6.938.011-1.453.034-2.089-.704-2.123-2.055a134.914 134.914 0 0 1-.005-5.207c.022-1.357.636-2.055 2.1-2.049 9.742.034 19.485.011 29.221.022 1.723 0 1.999.296 2.022 1.988.028 1.686.022 3.372.011 5.058Zm32.217 39.13c-7.09 2.782-14.332 2.799-21.416-.04-4.657-1.868-7.017-5.496-6.977-10.657.051-7.642.011-15.284.011-22.931 0-6.018 2.309-9.68 7.969-11.616 6.864-2.345 13.853-2.351 20.61.442 4.539 1.874 7 5.405 6.893 10.555-.022.982-.034 1.959-.039 2.941-.017 2.941.022 5.882.022 8.823 0 2.941-.039 5.882-.022 8.823.005.982.017 1.958.039 2.941.113 5.28-2.388 8.873-7.09 10.719Zm43.266-.875c-2.326 1.255-5.001 2.101-7.614 2.51-4.229.664-8.52.465-12.693-.75-5.034-1.464-9.061-5.024-8.83-11.707.135-3.866.023-7.738.023-11.604v-11.759c0-5.723 2.433-9.464 7.833-11.23 6.183-2.021 12.496-2.015 18.679.085 4.956 1.687 7.484 5.326 7.71 10.623.214 5.098.157 5.195-4.849 5.195-1.38 0-2.754.04-4.133-.017-1.589-.063-2.185-.608-2.157-2.192.034-2.106-.22-4.065-2.394-4.967-2.511-1.051-5.079-1.09-7.501.312-1.131.653-1.711 1.76-1.711 3.1-.012 7.193-.012 14.387 0 21.574.005 1.777.912 3.009 2.522 3.657 1.938.783 3.931.806 5.919.193 2.1-.648 3.103-2.044 3.142-4.298.073-4.213.073-4.213 4.274-4.213 1.622 0 3.255-.091 4.866.051.608.051 1.503.494 1.712.994 1.914 4.559-.456 12.104-4.798 14.443Zm45.997 2.203c-2.36.091-4.731-.062-7.084.063-1.988.108-3.199-.812-4.207-2.413-3.345-5.314-6.741-10.595-10.136-15.88-.271-.42-.693-.75-1.042-1.119-.13.074-.259.154-.389.227v1.59c0 5.064.006 10.123-.005 15.187-.006 1.919-.44 2.345-2.366 2.362-2.213.023-4.432.017-6.645 0-1.875-.017-2.359-.499-2.444-2.362-.011-.295-.005-.596-.005-.891 0-13.7 0-27.4.005-41.094 0-.545.017-1.09.085-1.629.135-1.034.704-1.567 1.785-1.556 2.41.023 4.826-.011 7.236 0 1.966.006 2.349.375 2.349 2.334.011 5.308.005 10.622.005 15.931v1.561c.141.051.287.102.428.159.332-.409.727-.784.991-1.232 3.148-5.263 6.33-10.503 9.388-15.818 1.182-2.055 2.646-3.156 5.102-2.969 2.106.165 4.229.017 6.346.04 1.78.017 2.135.613 1.183 2.174-2.906 4.775-5.862 9.516-8.802 14.268-1.143 1.851-2.247 3.73-3.463 5.53-.642.948-.682 1.612.005 2.611 4.511 6.558 8.954 13.167 13.375 19.787.495.738.709 1.663 1.047 2.503-.918.227-1.819.602-2.742.636Z"/><path fill="#FCFCFC" d="M137.846 147.242c-.242-.13-.478-.272-.692-.391 1.019-1.255 2.128-2.362 2.934-3.657 1.475-2.378 1.222-5.109 1.16-7.766-.09-4.026-1.887-7.063-5.378-9.016-3.047-1.704-6.398-2.362-9.827-2.436-5.063-.108-10.131-.028-15.199-.028-2.551 0-3.131.567-3.131 3.094v41.962c0 2.555.771 3.327 3.362 3.333 4.725.011 9.449.097 14.168-.045 2.625-.08 5.277-.352 7.839-.897 4.212-.892 7.867-2.816 9.59-7.131 1.256-3.146 1.16-6.461.755-9.771-.434-3.52-2.636-5.678-5.581-7.251Zm-17.834-13.427c2.027 0 4.049-.255 5.98.063 2.788.448 3.948 2.748 3.12 5.524-.681 2.282-2.207 3.509-4.606 3.599-1.42.057-2.844.012-4.494.012v-9.198Zm11.6 23.749c-.107 2.782-1.689 4.429-4.432 4.781-.726.09-1.469.039-2.207.039-1.611.006-3.216 0-4.956 0v-9.816c2.709 0 5.232-.244 7.687.062 3.221.404 3.998 2.663 3.908 4.934Z"/></g><rect width="400" height="271.484" x="32" y="1" stroke="#000" stroke-opacity=".1" stroke-width=".391" rx="6.25"/></g><defs><clipPath id="b"><rect width="400" height="271.484" x="32" y="1" fill="#fff" rx="6.25"/></clipPath><clipPath id="c"><path fill="#fff" d="M71.063 8.031h7.813v7.813h-7.814z"/></clipPath><clipPath id="d"><path fill="#fff" d="M83.563 8.031h7.813v7.813h-7.814z"/></clipPath><clipPath id="e"><path fill="#fff" d="M329.656 8.813h6.25v6.25h-6.25z"/></clipPath><clipPath id="f"><path fill="#fff" d="M399.188 8.031h7.813v7.813h-7.813z"/></clipPath><linearGradient id="g" x1="308.008" x2="138.983" y1="-27.344" y2="282.103" gradientUnits="userSpaceOnUse"><stop stop-color="#9DB5F6"/><stop offset="1" stop-color="#4684EF"/></linearGradient><filter id="a" width="462.891" height="342.188" x=".555" y=".805" color-interpolation-filters="sRGB" filterUnits="userSpaceOnUse"><feFlood flood-opacity="0" result="BackgroundImageFix"/><feColorMatrix in="SourceAlpha" result="hardAlpha" values="0 0 0 0 0 0 0 0 0 0 0 0 0 0 0 0 0 0 127 0"/><feOffset dy="1.081"/><feGaussianBlur stdDeviation=".432"/><feColorMatrix values="0 0 0 0 0 0 0 0 0 0 0 0 0 0 0 0 0 0 0.0196802 0"/><feBlend in2="BackgroundImageFix" result="effect1_dropShadow_40000441_33646"/><feColorMatrix in="SourceAlpha" result="hardAlpha" values="0 0 0 0 0 0 0 0 0 0 0 0 0 0 0 0 0 0 127 0"/><feOffset dy="2.598"/><feGaussianBlur stdDeviation="1.039"/><feColorMatrix values="0 0 0 0 0 0 0 0 0 0 0 0 0 0 0 0 0 0 0.0282725 0"/><feBlend in2="effect1_dropShadow_40000441_33646" result="effect2_dropShadow_40000441_33646"/><feColorMatrix in="SourceAlpha" result="hardAlpha" values="0 0 0 0 0 0 0 0 0 0 0 0 0 0 0 0 0 0 127 0"/><feOffset dy="4.891"/><feGaussianBlur stdDeviation="1.956"/><feColorMatrix values="0 0 0 0 0 0 0 0 0 0 0 0 0 0 0 0 0 0 0.035 0"/><feBlend in2="effect2_dropShadow_40000441_33646" result="effect3_dropShadow_40000441_33646"/><feColorMatrix in="SourceAlpha" result="hardAlpha" values="0 0 0 0 0 0 0 0 0 0 0 0 0 0 0 0 0 0 127 0"/><feOffset dy="8.725"/><feGaussianBlur stdDeviation="3.49"/><feColorMatrix values="0 0 0 0 0 0 0 0 0 0 0 0 0 0 0 0 0 0 0.0417275 0"/><feBlend in2="effect3_dropShadow_40000441_33646" result="effect4_dropShadow_40000441_33646"/><feColorMatrix in="SourceAlpha" result="hardAlpha" values="0 0 0 0 0 0 0 0 0 0 0 0 0 0 0 0 0 0 127 0"/><feOffset dy="16.319"/><feGaussianBlur stdDeviation="6.528"/><feColorMatrix values="0 0 0 0 0 0 0 0 0 0 0 0 0 0 0 0 0 0 0.0503198 0"/><feBlend in2="effect4_dropShadow_40000441_33646" result="effect5_dropShadow_40000441_33646"/><feColorMatrix in="SourceAlpha" result="hardAlpha" values="0 0 0 0 0 0 0 0 0 0 0 0 0 0 0 0 0 0 127 0"/><feOffset dy="39.063"/><feGaussianBlur stdDeviation="15.625"/><feColorMatrix values="0 0 0 0 0 0 0 0 0 0 0 0 0 0 0 0 0 0 0.07 0"/><feBlend in2="effect5_dropShadow_40000441_33646" result="effect6_dropShadow_40000441_33646"/><feBlend in="SourceGraphic" in2="effect6_dropShadow_40000441_33646" result="shape"/></filter></defs></svg>