<svg xmlns="http://www.w3.org/2000/svg" width="497" height="278" fill="none"><path fill="#EBEBEB" d="M87.334 275.11c-.474 0-.885-.118-1.235-.355-.35-.237-.622-.592-.815-1.065-.194-.477-.29-1.07-.29-1.78s.097-1.3.29-1.77c.193-.473.465-.827.815-1.06.35-.237.761-.355 1.235-.355.473 0 .885.118 1.235.355.35.233.621.587.815 1.06.197.47.295 1.06.295 1.77s-.099 1.303-.295 1.78c-.194.473-.465.828-.815 1.065-.35.237-.762.355-1.235.355Zm0-.54c.576 0 1.01-.232 1.3-.695.293-.467.44-1.122.44-1.965s-.147-1.497-.44-1.96c-.29-.463-.724-.695-1.3-.695-.567 0-.999.232-1.295.695-.293.463-.44 1.117-.44 1.96s.147 1.498.44 1.965c.296.463.728.695 1.295.695Zm6.217.43v-6.175h3.685v.495h-3.105v2.28h2.915v.5h-2.915v2.9h-.58Zm5.127 0v-6.8h.58v6.8h-.58Zm2.991-5.995a.392.392 0 0 1-.415-.405.34.34 0 0 1 .115-.27.425.425 0 0 1 .3-.105c.13 0 .231.035.305.105.073.067.11.157.11.27a.404.404 0 0 1-.11.29.402.402 0 0 1-.305.115Zm-.29 5.995v-4.75h.58V275h-.58Zm4.407 2.435c-.457 0-.857-.067-1.2-.2-.344-.13-.612-.307-.805-.53a1.122 1.122 0 0 1-.285-.745c0-.383.14-.675.42-.875.283-.197.651-.295 1.105-.295l.22.245c-.377 0-.669.082-.875.245a.801.801 0 0 0-.31.665c0 .277.143.515.43.715.29.2.723.3 1.3.3.433 0 .813-.062 1.14-.185.33-.12.586-.28.77-.48.186-.197.28-.41.28-.64a.59.59 0 0 0-.19-.435c-.124-.123-.314-.185-.57-.185h-1.975c-.324 0-.594-.047-.81-.14a1.171 1.171 0 0 1-.495-.37.826.826 0 0 1-.165-.49c0-.2.055-.367.165-.5.113-.137.258-.24.435-.31.176-.07.361-.105.555-.105l.075.24a.734.734 0 0 0-.315.075.705.705 0 0 0-.275.215.56.56 0 0 0-.11.36c0 .163.066.302.2.415.133.113.38.17.74.17h1.975c.42 0 .748.095.985.285.24.19.36.442.36.755 0 .293-.11.578-.33.855-.22.277-.537.503-.95.68-.414.177-.912.265-1.495.265Zm.18-3.785c-.36 0-.682-.073-.965-.22a1.727 1.727 0 0 1-.665-.62 1.712 1.712 0 0 1-.245-.915c0-.347.081-.652.245-.915.163-.263.385-.468.665-.615.283-.147.605-.22.965-.22.35 0 .663.073.94.22.28.147.501.352.665.615.163.263.245.568.245.915 0 .343-.082.648-.245.915-.164.263-.385.47-.665.62-.277.147-.59.22-.94.22Zm-.005-.43c.396 0 .708-.125.935-.375.23-.253.345-.57.345-.95 0-.383-.115-.697-.345-.94-.227-.243-.537-.365-.93-.365-.397 0-.712.122-.945.365-.23.243-.345.557-.345.94 0 .38.115.697.345.95.233.25.546.375.94.375Zm1.5-2.325-.285-.07c0-.277.048-.518.145-.725.1-.21.245-.373.435-.49.193-.117.431-.175.715-.175l-.06.59c-.307 0-.542.072-.705.215-.164.14-.245.358-.245.655Zm5.716 4.105v-2.795c0-.503-.121-.888-.365-1.155-.24-.267-.571-.4-.995-.4-.31 0-.578.085-.805.255a1.61 1.61 0 0 0-.515.715 3.032 3.032 0 0 0-.175 1.075h-.255c0-.52.07-.97.21-1.35.144-.383.354-.678.63-.885.28-.21.627-.315 1.04-.315.367 0 .684.082.95.245.27.163.479.4.625.71.147.307.22.675.22 1.105V275h-.565Zm-3.435 0v-6.8h.58v6.8h-.58Zm7.323.11a1.45 1.45 0 0 1-.66-.145c-.19-.097-.34-.24-.45-.43-.107-.19-.16-.425-.16-.705v-4.925h.565v4.915c0 .54.25.81.75.81.147 0 .287-.017.42-.05s.283-.08.45-.14l.08.425a3.199 3.199 0 0 1-.49.175c-.163.047-.332.07-.505.07Zm-2.085-4.435v-.42h2.985v.42h-2.985Zm6.037 4.435c-.46 0-.84-.067-1.14-.2a1.52 1.52 0 0 1-.67-.54 1.477 1.477 0 0 1-.245-.76h.58c.02.337.155.592.405.765.253.17.598.255 1.035.255.227 0 .437-.037.63-.11a1.22 1.22 0 0 0 .465-.31.654.654 0 0 0 .18-.45.594.594 0 0 0-.235-.5c-.157-.12-.405-.223-.745-.31l-.865-.26c-.417-.12-.735-.29-.955-.51a1.1 1.1 0 0 1-.33-.8c0-.373.162-.672.485-.895.323-.227.745-.34 1.265-.34.567 0 1.008.112 1.325.335.317.223.483.502.5.835h-.6a.687.687 0 0 0-.365-.525c-.207-.117-.493-.175-.86-.175-.363 0-.645.083-.845.25-.2.167-.3.348-.3.545 0 .38.327.658.98.835l.85.265c.427.12.752.28.975.48.227.2.34.457.34.77 0 .23-.075.448-.225.655a1.577 1.577 0 0 1-.635.505c-.277.127-.61.19-1 .19Zm49.3-6.295h.5V275h-.58v-5.51c-.153.127-.32.223-.5.29-.176.063-.353.1-.53.11v-.575c.204-.033.4-.09.59-.17.19-.08.364-.19.52-.33Zm1.894 3.58v-.505h2.675v.505h-2.675Zm5.909 2.715c-.3 0-.59-.042-.87-.125a2.429 2.429 0 0 1-.745-.38 1.855 1.855 0 0 1-.515-.615 1.844 1.844 0 0 1-.19-.85h.58c.004.317.084.582.24.795.16.21.37.368.63.475.264.107.554.16.87.16.497 0 .88-.123 1.15-.37.27-.247.405-.553.405-.92 0-.233-.056-.44-.17-.62-.113-.183-.295-.328-.545-.435-.25-.107-.583-.16-1-.16h-.635v-.465h.355c.54 0 .965-.103 1.275-.31.314-.21.47-.5.47-.87a1.08 1.08 0 0 0-.37-.825c-.246-.227-.591-.34-1.035-.34-.333 0-.63.068-.89.205-.26.133-.441.387-.545.76h-.58c.057-.363.18-.653.37-.87.19-.22.427-.378.71-.475.284-.1.594-.15.93-.15.39 0 .739.072 1.045.215.307.14.549.337.725.59.177.25.265.535.265.855 0 .33-.096.61-.29.84-.19.23-.465.41-.825.54.4.103.729.285.985.545.26.257.39.592.39 1.005 0 .347-.088.655-.265.925-.173.27-.423.483-.75.64-.326.153-.718.23-1.175.23Zm6.198-.11v-6.175h3.685v.495h-3.105v2.28h2.915v.5h-2.915v2.9h-.58Zm5.127 0v-6.8h.58v6.8h-.58Zm2.99-5.995a.406.406 0 0 1-.3-.115.396.396 0 0 1-.115-.29c0-.113.039-.203.115-.27a.429.429 0 0 1 .3-.105c.13 0 .232.035.305.105.074.067.11.157.11.27a.4.4 0 0 1-.11.29.4.4 0 0 1-.305.115Zm-.29 5.995v-4.75h.58V275h-.58Zm4.407 2.435c-.456 0-.856-.067-1.2-.2-.343-.13-.611-.307-.805-.53a1.122 1.122 0 0 1-.285-.745c0-.383.14-.675.42-.875.284-.197.652-.295 1.105-.295l.22.245c-.376 0-.668.082-.875.245a.804.804 0 0 0-.31.665c0 .277.144.515.43.715.29.2.724.3 1.3.3.434 0 .814-.062 1.14-.185.33-.12.587-.28.77-.48.187-.197.28-.41.28-.64a.586.586 0 0 0-.19-.435c-.123-.123-.313-.185-.57-.185h-1.975c-.323 0-.593-.047-.81-.14a1.184 1.184 0 0 1-.495-.37.826.826 0 0 1-.165-.49c0-.2.055-.367.165-.5.114-.137.259-.24.435-.31.177-.07.362-.105.555-.105l.075.24a.74.74 0 0 0-.315.075.72.72 0 0 0-.275.215.566.566 0 0 0-.11.36c0 .163.067.302.2.415.134.113.38.17.74.17h1.975c.42 0 .749.095.985.285.24.19.36.442.36.755 0 .293-.11.578-.33.855-.22.277-.536.503-.95.68-.413.177-.911.265-1.495.265Zm.18-3.785c-.36 0-.681-.073-.965-.22a1.734 1.734 0 0 1-.665-.62 1.72 1.72 0 0 1-.245-.915c0-.347.082-.652.245-.915.164-.263.385-.468.665-.615.284-.147.605-.22.965-.22.35 0 .664.073.94.22.28.147.502.352.665.615.164.263.245.568.245.915 0 .343-.081.648-.245.915-.163.263-.385.47-.665.62a1.97 1.97 0 0 1-.94.22Zm-.005-.43c.397 0 .709-.125.935-.375.23-.253.345-.57.345-.95 0-.383-.115-.697-.345-.94-.226-.243-.536-.365-.93-.365-.396 0-.711.122-.945.365-.23.243-.345.557-.345.94 0 .38.115.697.345.95.234.25.547.375.94.375Zm1.5-2.325-.285-.07c0-.277.049-.518.145-.725.1-.21.245-.373.435-.49a1.36 1.36 0 0 1 .715-.175l-.06.59c-.306 0-.541.072-.705.215-.163.14-.245.358-.245.655Zm5.717 4.105v-2.795c0-.503-.122-.888-.365-1.155-.24-.267-.572-.4-.995-.4-.31 0-.578.085-.805.255a1.61 1.61 0 0 0-.515.715 3.01 3.01 0 0 0-.175 1.075h-.255c0-.52.07-.97.21-1.35.143-.383.353-.678.63-.885.28-.21.627-.315 1.04-.315.367 0 .683.082.95.245.27.163.478.4.625.71.147.307.22.675.22 1.105V275h-.565Zm-3.435 0v-6.8h.58v6.8h-.58Zm7.322.11c-.246 0-.466-.048-.66-.145-.19-.097-.34-.24-.45-.43a1.43 1.43 0 0 1-.16-.705v-4.925h.565v4.915c0 .54.25.81.75.81.147 0 .287-.017.42-.05.134-.033.284-.08.45-.14l.08.425a3.161 3.161 0 0 1-.49.175c-.163.047-.331.07-.505.07Zm-2.085-4.435v-.42h2.985v.42h-2.985Zm6.038 4.435c-.46 0-.84-.067-1.14-.2a1.52 1.52 0 0 1-.67-.54 1.477 1.477 0 0 1-.245-.76h.58c.02.337.155.592.405.765.253.17.598.255 1.035.255.226 0 .436-.037.63-.11a1.22 1.22 0 0 0 .465-.31.654.654 0 0 0 .18-.45.597.597 0 0 0-.235-.5c-.157-.12-.405-.223-.745-.31l-.865-.26c-.417-.12-.735-.29-.955-.51a1.1 1.1 0 0 1-.33-.8c0-.373.161-.672.485-.895.323-.227.745-.34 1.265-.34.566 0 1.008.112 1.325.335.316.223.483.502.5.835h-.6a.69.69 0 0 0-.365-.525c-.207-.117-.494-.175-.86-.175-.364 0-.645.083-.845.25-.2.167-.3.348-.3.545 0 .38.326.658.98.835l.85.265c.426.12.751.28.975.48.226.2.34.457.34.77 0 .23-.075.448-.225.655a1.584 1.584 0 0 1-.635.505c-.277.127-.61.19-1 .19Zm47.453-6.385h.525v4.215h1.07v.485h-1.07V275h-.57v-1.575h-3.23v-.455l3.275-4.245Zm-.03.97-2.55 3.275h2.55v-3.275Zm2.215 2.7v-.505h2.675v.505h-2.675Zm5.924 2.715c-.483 0-.903-.137-1.26-.41-.353-.273-.628-.643-.825-1.11a4.074 4.074 0 0 1-.29-1.57c0-.683.099-1.272.295-1.765.2-.493.487-.872.86-1.135.377-.263.829-.395 1.355-.395.347 0 .65.067.91.2.264.133.477.318.64.555.164.237.265.512.305.825h-.645c-.056-.32-.18-.575-.37-.765-.19-.19-.466-.285-.83-.285-.603 0-1.075.258-1.415.775-.34.517-.51 1.223-.51 2.12 0 .137.004.297.01.48.007.183.022.353.045.51.017-.46.112-.822.285-1.085.174-.267.392-.455.655-.565.267-.113.55-.17.85-.17.367 0 .699.082.995.245.297.16.532.383.705.67.177.287.265.618.265.995 0 .373-.086.702-.26.985-.17.283-.406.503-.71.66a2.272 2.272 0 0 1-1.06.235Zm0-.54c.414 0 .752-.12 1.015-.36.264-.243.395-.572.395-.985 0-.423-.131-.755-.395-.995-.263-.24-.601-.36-1.015-.36-.27 0-.511.06-.725.18-.21.12-.376.282-.5.485a1.33 1.33 0 0 0-.18.69c0 .413.132.742.395.985.267.24.604.36 1.01.36Zm5.987.43v-6.175h3.685v.495h-3.105v2.28h2.915v.5h-2.915v2.9h-.58Zm5.127 0v-6.8h.58v6.8h-.58Zm2.991-5.995a.392.392 0 0 1-.415-.405.34.34 0 0 1 .115-.27.429.429 0 0 1 .3-.105c.13 0 .232.035.305.105.073.067.11.157.11.27a.404.404 0 0 1-.11.29.4.4 0 0 1-.305.115Zm-.29 5.995v-4.75h.58V275h-.58Zm4.407 2.435c-.457 0-.857-.067-1.2-.2-.343-.13-.612-.307-.805-.53a1.122 1.122 0 0 1-.285-.745c0-.383.14-.675.42-.875.283-.197.652-.295 1.105-.295l.22.245c-.377 0-.668.082-.875.245a.801.801 0 0 0-.31.665c0 .277.143.515.43.715.29.2.723.3 1.3.3.433 0 .813-.062 1.14-.185.33-.12.587-.28.77-.48.187-.197.28-.41.28-.64a.586.586 0 0 0-.19-.435c-.123-.123-.313-.185-.57-.185h-1.975c-.323 0-.593-.047-.81-.14a1.171 1.171 0 0 1-.495-.37.826.826 0 0 1-.165-.49c0-.2.055-.367.165-.5.113-.137.258-.24.435-.31s.362-.105.555-.105l.075.24a.74.74 0 0 0-.315.075.713.713 0 0 0-.275.215.566.566 0 0 0-.11.36c0 .163.067.302.2.415.133.113.38.17.74.17h1.975c.42 0 .748.095.985.285.24.19.36.442.36.755 0 .293-.11.578-.33.855-.22.277-.537.503-.95.68-.413.177-.912.265-1.495.265Zm.18-3.785c-.36 0-.682-.073-.965-.22a1.727 1.727 0 0 1-.665-.62 1.72 1.72 0 0 1-.245-.915c0-.347.082-.652.245-.915.163-.263.385-.468.665-.615.283-.147.605-.22.965-.22.35 0 .663.073.94.22.28.147.502.352.665.615.163.263.245.568.245.915 0 .343-.082.648-.245.915-.163.263-.385.47-.665.62-.277.147-.59.22-.94.22Zm-.005-.43c.397 0 .708-.125.935-.375.23-.253.345-.57.345-.95 0-.383-.115-.697-.345-.94-.227-.243-.537-.365-.93-.365-.397 0-.712.122-.945.365-.23.243-.345.557-.345.94 0 .38.115.697.345.95.233.25.547.375.94.375Zm1.5-2.325-.285-.07c0-.277.048-.518.145-.725.1-.21.245-.373.435-.49.193-.117.432-.175.715-.175l-.06.59c-.307 0-.542.072-.705.215-.163.14-.245.358-.245.655ZM292.96 275v-2.795c0-.503-.122-.888-.365-1.155-.24-.267-.572-.4-.995-.4-.31 0-.579.085-.805.255-.224.17-.395.408-.515.715a3.01 3.01 0 0 0-.175 1.075h-.255c0-.52.07-.97.21-1.35.143-.383.353-.678.63-.885.28-.21.626-.315 1.04-.315.366 0 .683.082.95.245.27.163.478.4.625.71.146.307.22.675.22 1.105V275h-.565Zm-3.435 0v-6.8h.58v6.8h-.58Zm7.322.11a1.45 1.45 0 0 1-.66-.145c-.19-.097-.34-.24-.45-.43-.107-.19-.16-.425-.16-.705v-4.925h.565v4.915c0 .54.25.81.75.81.147 0 .287-.017.42-.05s.283-.08.45-.14l.08.425a3.199 3.199 0 0 1-.49.175c-.163.047-.332.07-.505.07Zm-2.085-4.435v-.42h2.985v.42h-2.985Zm6.037 4.435c-.46 0-.84-.067-1.14-.2a1.525 1.525 0 0 1-.67-.54 1.486 1.486 0 0 1-.245-.76h.58c.02.337.155.592.405.765.254.17.599.255 1.035.255.227 0 .437-.037.63-.11.194-.077.349-.18.465-.31a.654.654 0 0 0 .18-.45.594.594 0 0 0-.235-.5c-.156-.12-.405-.223-.745-.31l-.865-.26c-.416-.12-.735-.29-.955-.51a1.1 1.1 0 0 1-.33-.8c0-.373.162-.672.485-.895.324-.227.745-.34 1.265-.34.567 0 1.009.112 1.325.335.317.223.484.502.5.835h-.6a.685.685 0 0 0-.365-.525c-.206-.117-.493-.175-.86-.175-.363 0-.645.083-.845.25-.2.167-.3.348-.3.545 0 .38.327.658.98.835l.85.265c.427.12.752.28.975.48.227.2.34.457.34.77 0 .23-.075.448-.225.655a1.57 1.57 0 0 1-.635.505c-.276.127-.61.19-1 .19Zm43.919-.11 3.03-5.635h-3.455v-.54h4.14v.515l-2.95 5.66h-.765Zm4.226-2.605v-.505h2.675v.505h-2.675Zm5.794 2.715a2.17 2.17 0 0 1-1.055-.25 1.887 1.887 0 0 1-.715-.695 1.947 1.947 0 0 1-.255-.995h.6c.007.427.133.767.38 1.02s.592.38 1.035.38c.41 0 .742-.118.995-.355.257-.237.445-.572.565-1.005.123-.433.185-.947.185-1.54a4.852 4.852 0 0 0-.055-.815 2.006 2.006 0 0 1-.285.905 1.536 1.536 0 0 1-.62.555c-.257.127-.552.19-.885.19-.357 0-.682-.082-.975-.245a1.947 1.947 0 0 1-.705-.68c-.173-.29-.26-.62-.26-.99 0-.38.083-.708.25-.985.17-.28.407-.497.71-.65.307-.153.662-.23 1.065-.23.347 0 .665.072.955.215.29.14.54.345.75.615.21.267.373.588.49.965.117.373.175.795.175 1.265 0 .68-.083 1.268-.25 1.765-.163.497-.418.882-.765 1.155-.343.27-.787.405-1.33.405Zm-.03-3.155c.27 0 .512-.06.725-.18.213-.123.382-.287.505-.49s.185-.43.185-.68c0-.417-.135-.747-.405-.99s-.605-.365-1.005-.365c-.417 0-.758.122-1.025.365-.263.243-.395.573-.395.99 0 .417.132.747.395.99.267.24.607.36 1.02.36Zm6.254 3.045v-6.175h3.685v.495h-3.105v2.28h2.915v.5h-2.915v2.9h-.58Zm5.127 0v-6.8h.58v6.8h-.58Zm2.991-5.995a.392.392 0 0 1-.415-.405.34.34 0 0 1 .115-.27.429.429 0 0 1 .3-.105c.13 0 .232.035.305.105.073.067.11.157.11.27a.404.404 0 0 1-.11.29.4.4 0 0 1-.305.115Zm-.29 5.995v-4.75h.58V275h-.58Zm4.407 2.435c-.457 0-.857-.067-1.2-.2-.343-.13-.612-.307-.805-.53a1.122 1.122 0 0 1-.285-.745c0-.383.14-.675.42-.875.283-.197.652-.295 1.105-.295l.22.245c-.377 0-.668.082-.875.245a.801.801 0 0 0-.31.665c0 .277.143.515.43.715.29.2.723.3 1.3.3.433 0 .813-.062 1.14-.185.33-.12.587-.28.77-.48.187-.197.28-.41.28-.64a.586.586 0 0 0-.19-.435c-.123-.123-.313-.185-.57-.185h-1.975c-.323 0-.593-.047-.81-.14a1.171 1.171 0 0 1-.495-.37.826.826 0 0 1-.165-.49c0-.2.055-.367.165-.5.113-.137.258-.24.435-.31s.362-.105.555-.105l.075.24a.74.74 0 0 0-.315.075.713.713 0 0 0-.275.215.566.566 0 0 0-.11.36c0 .163.067.302.2.415.133.113.38.17.74.17h1.975c.42 0 .748.095.985.285.24.19.36.442.36.755 0 .293-.11.578-.33.855-.22.277-.537.503-.95.68-.413.177-.912.265-1.495.265Zm.18-3.785c-.36 0-.682-.073-.965-.22a1.727 1.727 0 0 1-.665-.62 1.72 1.72 0 0 1-.245-.915c0-.347.082-.652.245-.915.163-.263.385-.468.665-.615.283-.147.605-.22.965-.22.35 0 .663.073.94.22.28.147.502.352.665.615.163.263.245.568.245.915 0 .343-.082.648-.245.915-.163.263-.385.47-.665.62-.277.147-.59.22-.94.22Zm-.005-.43c.397 0 .708-.125.935-.375.23-.253.345-.57.345-.95 0-.383-.115-.697-.345-.94-.227-.243-.537-.365-.93-.365-.397 0-.712.122-.945.365-.23.243-.345.557-.345.94 0 .38.115.697.345.95.233.25.547.375.94.375Zm1.5-2.325-.285-.07c0-.277.048-.518.145-.725.1-.21.245-.373.435-.49.193-.117.432-.175.715-.175l-.06.59c-.307 0-.542.072-.705.215-.163.14-.245.358-.245.655Zm5.717 4.105v-2.795c0-.503-.122-.888-.365-1.155-.24-.267-.572-.4-.995-.4-.31 0-.579.085-.805.255-.224.17-.395.408-.515.715a3.01 3.01 0 0 0-.175 1.075h-.255c0-.52.07-.97.21-1.35.143-.383.353-.678.63-.885.28-.21.626-.315 1.04-.315.366 0 .683.082.95.245.27.163.478.4.625.71.146.307.22.675.22 1.105V275h-.565Zm-3.435 0v-6.8h.58v6.8h-.58Zm7.322.11a1.45 1.45 0 0 1-.66-.145c-.19-.097-.34-.24-.45-.43-.107-.19-.16-.425-.16-.705v-4.925h.565v4.915c0 .54.25.81.75.81.147 0 .287-.017.42-.05s.283-.08.45-.14l.08.425a3.199 3.199 0 0 1-.49.175c-.163.047-.332.07-.505.07Zm-2.085-4.435v-.42h2.985v.42h-2.985Zm6.037 4.435c-.46 0-.84-.067-1.14-.2a1.52 1.52 0 0 1-.67-.54 1.477 1.477 0 0 1-.245-.76h.58c.02.337.155.592.405.765.253.17.598.255 1.035.255.227 0 .437-.037.63-.11a1.22 1.22 0 0 0 .465-.31.654.654 0 0 0 .18-.45.594.594 0 0 0-.235-.5c-.157-.12-.405-.223-.745-.31l-.865-.26c-.417-.12-.735-.29-.955-.51a1.1 1.1 0 0 1-.33-.8c0-.373.162-.672.485-.895.323-.227.745-.34 1.265-.34.567 0 1.008.112 1.325.335.317.223.483.502.5.835h-.6a.687.687 0 0 0-.365-.525c-.207-.117-.493-.175-.86-.175-.363 0-.645.083-.845.25-.2.167-.3.348-.3.545 0 .38.327.658.98.835l.85.265c.427.12.752.28.975.48.227.2.34.457.34.77 0 .23-.075.448-.225.655a1.577 1.577 0 0 1-.635.505c-.277.127-.61.19-1 .19Zm47.791 0c-.396 0-.748-.083-1.055-.25a1.894 1.894 0 0 1-.715-.695 1.947 1.947 0 0 1-.255-.995h.6c.007.427.134.767.38 1.02.247.253.592.38 1.035.38.41 0 .742-.118.995-.355.257-.237.445-.572.565-1.005.124-.433.185-.947.185-1.54 0-.147-.003-.28-.01-.4a4.16 4.16 0 0 0-.045-.415 2.006 2.006 0 0 1-.285.905 1.53 1.53 0 0 1-.62.555c-.256.127-.551.19-.885.19-.356 0-.681-.082-.975-.245a1.947 1.947 0 0 1-.705-.68c-.173-.29-.26-.62-.26-.99 0-.38.084-.708.25-.985.17-.28.407-.497.71-.65.307-.153.662-.23 1.065-.23.347 0 .665.072.955.215.29.14.54.345.75.615.21.267.374.588.49.965.117.373.175.795.175 1.265 0 .68-.083 1.268-.25 1.765-.163.497-.418.882-.765 1.155-.343.27-.786.405-1.33.405Zm-.03-3.155a1.389 1.389 0 0 0 1.23-.67c.124-.203.185-.43.185-.68 0-.417-.135-.747-.405-.99s-.605-.365-1.005-.365c-.416 0-.758.122-1.025.365-.263.243-.395.573-.395.99 0 .417.132.747.395.99.267.24.607.36 1.02.36Zm5.195-1.94h.565v2.21h2.13v.49h-2.13v2.21h-.565v-2.21h-2.13v-.49h2.13v-2.21Zm6.187 4.985v-6.175h3.685v.495h-3.105v2.28h2.915v.5h-2.915v2.9h-.58Zm5.126 0v-6.8h.58v6.8h-.58Zm2.991-5.995a.406.406 0 0 1-.3-.115.396.396 0 0 1-.115-.29c0-.113.039-.203.115-.27a.429.429 0 0 1 .3-.105c.13 0 .232.035.305.105.074.067.11.157.11.27a.4.4 0 0 1-.11.29.4.4 0 0 1-.305.115Zm-.29 5.995v-4.75h.58V275h-.58Zm4.407 2.435c-.456 0-.856-.067-1.2-.2-.343-.13-.611-.307-.805-.53a1.122 1.122 0 0 1-.285-.745c0-.383.14-.675.42-.875.284-.197.652-.295 1.105-.295l.22.245c-.376 0-.668.082-.875.245a.804.804 0 0 0-.31.665c0 .277.144.515.43.715.29.2.724.3 1.3.3.434 0 .814-.062 1.14-.185.33-.12.587-.28.77-.48.187-.197.28-.41.28-.64a.586.586 0 0 0-.19-.435c-.123-.123-.313-.185-.57-.185h-1.975c-.323 0-.593-.047-.81-.14a1.184 1.184 0 0 1-.495-.37.826.826 0 0 1-.165-.49c0-.2.055-.367.165-.5.114-.137.259-.24.435-.31.177-.07.362-.105.555-.105l.075.24a.74.74 0 0 0-.315.075.72.72 0 0 0-.275.215.566.566 0 0 0-.11.36c0 .163.067.302.2.415.134.113.38.17.74.17h1.975c.42 0 .749.095.985.285.24.19.36.442.36.755 0 .293-.11.578-.33.855-.22.277-.536.503-.95.68-.413.177-.911.265-1.495.265Zm.18-3.785c-.36 0-.681-.073-.965-.22a1.734 1.734 0 0 1-.665-.62 1.72 1.72 0 0 1-.245-.915c0-.347.082-.652.245-.915.164-.263.385-.468.665-.615.284-.147.605-.22.965-.22.35 0 .664.073.94.22.28.147.502.352.665.615.164.263.245.568.245.915 0 .343-.081.648-.245.915-.163.263-.385.47-.665.62a1.97 1.97 0 0 1-.94.22Zm-.005-.43c.397 0 .709-.125.935-.375.23-.253.345-.57.345-.95 0-.383-.115-.697-.345-.94-.226-.243-.536-.365-.93-.365-.396 0-.711.122-.945.365-.23.243-.345.557-.345.94 0 .38.115.697.345.95.234.25.547.375.94.375Zm1.5-2.325-.285-.07c0-.277.049-.518.145-.725.1-.21.245-.373.435-.49a1.36 1.36 0 0 1 .715-.175l-.06.59c-.306 0-.541.072-.705.215-.163.14-.245.358-.245.655Zm5.717 4.105v-2.795c0-.503-.122-.888-.365-1.155-.24-.267-.572-.4-.995-.4-.31 0-.578.085-.805.255a1.61 1.61 0 0 0-.515.715 3.01 3.01 0 0 0-.175 1.075h-.255c0-.52.07-.97.21-1.35.143-.383.353-.678.63-.885.28-.21.627-.315 1.04-.315.367 0 .683.082.95.245.27.163.478.4.625.71.147.307.22.675.22 1.105V275h-.565Zm-3.435 0v-6.8h.58v6.8h-.58Zm7.322.11c-.246 0-.466-.048-.66-.145-.19-.097-.34-.24-.45-.43a1.43 1.43 0 0 1-.16-.705v-4.925h.565v4.915c0 .54.25.81.75.81.147 0 .287-.017.42-.05.134-.033.284-.08.45-.14l.08.425a3.161 3.161 0 0 1-.49.175c-.163.047-.331.07-.505.07Zm-2.085-4.435v-.42h2.985v.42h-2.985Zm6.038 4.435c-.46 0-.84-.067-1.14-.2a1.52 1.52 0 0 1-.67-.54 1.477 1.477 0 0 1-.245-.76h.58c.02.337.155.592.405.765.253.17.598.255 1.035.255.226 0 .436-.037.63-.11a1.22 1.22 0 0 0 .465-.31.654.654 0 0 0 .18-.45.597.597 0 0 0-.235-.5c-.157-.12-.405-.223-.745-.31l-.865-.26c-.417-.12-.735-.29-.955-.51a1.1 1.1 0 0 1-.33-.8c0-.373.161-.672.485-.895.323-.227.745-.34 1.265-.34.566 0 1.008.112 1.325.335.316.223.483.502.5.835h-.6a.69.69 0 0 0-.365-.525c-.207-.117-.494-.175-.86-.175-.364 0-.645.083-.845.25-.2.167-.3.348-.3.545 0 .38.326.658.98.835l.85.265c.426.12.751.28.975.48.226.2.34.457.34.77 0 .23-.075.448-.225.655a1.584 1.584 0 0 1-.635.505c-.277.127-.61.19-1 .19Zm-421.292-259c-.36 0-.697-.067-1.01-.2a1.847 1.847 0 0 1-.76-.595c-.19-.263-.285-.587-.285-.97h.57c0 .4.143.705.43.915.29.207.642.31 1.055.31.493 0 .875-.147 1.145-.44.273-.297.41-.662.41-1.095 0-.877-.557-1.315-1.67-1.315H52.1l.255-2.895h3.275v.525h-2.805l.125-.235-.22 2.32-.1-.08a3.43 3.43 0 0 1 .53-.075 8.21 8.21 0 0 1 .535-.02c.683 0 1.223.147 1.62.44.397.293.595.738.595 1.335 0 .393-.087.747-.26 1.06a1.897 1.897 0 0 1-.75.745c-.323.18-.708.27-1.155.27Z"/><path stroke="#004382" stroke-dasharray="9.74 9.74" stroke-linecap="round" stroke-width="1.948" d="M66.312 14.844h423.639"/><path fill="#EBEBEB" d="M54.555 57.725h.525v4.215h1.07v.485h-1.07V64h-.57v-1.575h-3.23v-.455l3.275-4.245Zm-.03.97-2.55 3.275h2.55v-3.275Z"/><path stroke="#004382" stroke-dasharray="9.74 9.74" stroke-linecap="round" stroke-width="1.948" d="M66.312 63.365h423.639"/><path fill="#EBEBEB" d="M53.89 113.11c-.3 0-.59-.042-.87-.125a2.42 2.42 0 0 1-.745-.38 1.843 1.843 0 0 1-.515-.615 1.835 1.835 0 0 1-.19-.85h.58c.003.317.083.582.24.795.16.21.37.368.63.475.263.107.553.16.87.16.497 0 .88-.123 1.15-.37.27-.247.405-.553.405-.92 0-.233-.057-.44-.17-.62-.113-.183-.295-.328-.545-.435-.25-.107-.583-.16-1-.16h-.635v-.465h.355c.54 0 .965-.103 1.275-.31.313-.21.47-.5.47-.87a1.08 1.08 0 0 0-.37-.825c-.247-.227-.592-.34-1.035-.34-.333 0-.63.068-.89.205-.26.133-.442.387-.545.76h-.58c.057-.363.18-.653.37-.87.19-.22.427-.378.71-.475.283-.1.593-.15.93-.15.39 0 .738.072 1.045.215.307.14.548.337.725.59.177.25.265.535.265.855 0 .33-.097.61-.29.84-.19.23-.465.41-.825.54.4.103.728.285.985.545.26.257.39.592.39 1.005 0 .347-.088.655-.265.925a1.78 1.78 0 0 1-.75.64c-.327.153-.718.23-1.175.23Z"/><path stroke="#004382" stroke-dasharray="9.74 9.74" stroke-linecap="round" stroke-width="1.948" d="M66.312 111.885h423.639"/><path fill="#EBEBEB" d="M51.66 161v-.84c0-.363.06-.663.18-.9.123-.24.292-.437.505-.59.217-.153.462-.285.735-.395l1.195-.48c.337-.14.59-.318.76-.535.17-.217.255-.492.255-.825 0-.353-.122-.64-.365-.86-.24-.22-.573-.33-1-.33-.43 0-.78.087-1.05.26-.267.173-.418.433-.455.78h-.65c.03-.323.133-.602.31-.835.18-.233.423-.412.73-.535.31-.127.68-.19 1.11-.19.387 0 .732.077 1.035.23.303.15.542.358.715.625.173.263.26.565.26.905 0 .317-.06.592-.18.825a1.83 1.83 0 0 1-.495.6 2.85 2.85 0 0 1-.71.415l-1.235.505c-.35.137-.617.305-.8.505-.18.197-.27.453-.27.77v.355h3.62v.54h-4.2Z"/><path stroke="#004382" stroke-dasharray="9.74 9.74" stroke-linecap="round" stroke-width="1.948" d="M66.312 160.406h423.639"/><path fill="#EBEBEB" d="M54.62 203.815h.5V210h-.58v-5.51c-.153.127-.32.223-.5.29-.177.063-.353.1-.53.11v-.575c.203-.033.4-.09.59-.17.19-.08.363-.19.52-.33Z"/><path stroke="#004382" stroke-dasharray="9.74 9.74" stroke-linecap="round" stroke-width="1.948" d="M66.312 208.926h423.639"/><path fill="#EBEBEB" d="M53.444 258.11c-.474 0-.885-.118-1.235-.355-.35-.237-.622-.592-.815-1.065-.194-.477-.29-1.07-.29-1.78s.096-1.3.29-1.77c.193-.473.465-.827.815-1.06.35-.237.761-.355 1.235-.355.473 0 .885.118 1.235.355.35.233.621.587.815 1.06.196.47.295 1.06.295 1.77s-.099 1.303-.295 1.78c-.194.473-.465.828-.815 1.065-.35.237-.762.355-1.235.355Zm0-.54c.576 0 1.01-.232 1.3-.695.293-.467.44-1.122.44-1.965s-.147-1.497-.44-1.96c-.29-.463-.724-.695-1.3-.695-.567 0-.999.232-1.295.695-.294.463-.44 1.117-.44 1.96s.146 1.498.44 1.965c.296.463.728.695 1.295.695Z"/><path stroke="#004382" stroke-dasharray="9.74 9.74" stroke-linecap="round" stroke-width="1.948" d="M66.312 257.447h423.639"/><path fill="#EBEBEB" d="M26.004 244.825h.75l3.31 5.44h-.06v-5.44h.58V251h-.705l-3.38-5.555h.085V251h-.58v-6.175Zm8.325 6.285c-.424 0-.797-.095-1.12-.285a1.976 1.976 0 0 1-.765-.84c-.184-.37-.275-.823-.275-1.36 0-.537.091-.988.275-1.355.186-.37.441-.65.765-.84.323-.19.696-.285 1.12-.285.423 0 .796.095 1.12.285.323.19.576.47.76.84.183.367.275.818.275 1.355s-.092.99-.275 1.36c-.184.37-.437.65-.76.84a2.17 2.17 0 0 1-1.12.285Zm-.01-.505c.35 0 .641-.082.875-.245.233-.167.406-.398.52-.695.116-.297.175-.643.175-1.04 0-.597-.129-1.077-.385-1.44-.254-.363-.642-.545-1.165-.545-.35 0-.642.083-.875.25a1.48 1.48 0 0 0-.52.695c-.114.297-.17.643-.17 1.04 0 .593.126 1.072.38 1.435.256.363.645.545 1.165.545Zm-22.92 12.505c-.402 0-.772-.073-1.11-.22a1.956 1.956 0 0 1-.81-.65c-.202-.287-.304-.635-.304-1.045h.56c0 .313.077.572.23.775.153.203.355.355.605.455.253.097.527.145.82.145.336 0 .625-.055.865-.165.24-.113.423-.26.55-.44a.966.966 0 0 0 .195-.575c0-.297-.09-.537-.27-.72-.177-.183-.434-.327-.77-.43l-1.025-.33c-.53-.183-.928-.39-1.195-.62-.267-.23-.4-.555-.4-.975 0-.467.177-.848.53-1.145.353-.297.862-.445 1.525-.445.597 0 1.065.137 1.405.41.343.273.541.632.595 1.075h-.575a1.025 1.025 0 0 0-.44-.705c-.237-.167-.565-.25-.985-.25-.454 0-.805.103-1.055.31a.965.965 0 0 0-.37.78c0 .257.078.46.235.61.156.147.403.277.74.39l1.24.4c.433.133.781.33 1.045.59.266.257.4.605.4 1.045 0 .303-.085.587-.255.85-.17.263-.42.477-.75.64-.33.16-.739.24-1.225.24Zm5.38 0a1.45 1.45 0 0 1-.66-.145c-.19-.097-.34-.24-.45-.43a1.422 1.422 0 0 1-.16-.705v-4.925h.565v4.915c0 .54.25.81.75.81.146 0 .286-.017.42-.05.133-.033.283-.08.45-.14l.08.425a3.2 3.2 0 0 1-.49.175c-.164.047-.332.07-.505.07Zm-2.085-4.435v-.42h2.985v.42h-2.985ZM19.056 263v-4.75h.58V263h-.58Zm.365-2.175c0-.593.052-1.087.155-1.48.103-.393.263-.688.48-.885.216-.197.493-.295.83-.295a1.666 1.666 0 0 1 .62.105l-.065.565a1.954 1.954 0 0 0-.32-.09 1.375 1.375 0 0 0-.305-.04c-.297 0-.532.09-.705.27-.17.18-.292.43-.365.75-.073.317-.11.683-.11 1.1h-.215Zm4.677 2.285c-.413 0-.778-.105-1.095-.315a2.192 2.192 0 0 1-.74-.875 2.898 2.898 0 0 1-.27-1.275c0-.52.088-.967.265-1.34.18-.373.427-.66.74-.86.317-.2.683-.3 1.1-.3.35 0 .647.072.89.215.247.14.445.332.595.575.15.243.255.518.315.825.063.307.088.623.075.95h-3.505v-.4h3.15l-.23.15a2.98 2.98 0 0 0-.04-.645 1.834 1.834 0 0 0-.195-.595 1.128 1.128 0 0 0-.395-.435c-.17-.11-.388-.165-.655-.165-.34 0-.623.088-.85.265-.227.173-.397.4-.51.68-.11.277-.165.573-.165.89v.245c0 .363.055.69.165.98.113.29.282.52.505.69.227.17.51.255.85.255.35 0 .635-.085.855-.255.223-.173.357-.427.4-.76h.62c-.05.317-.162.587-.335.81-.17.223-.387.395-.65.515a2.17 2.17 0 0 1-.89.175Zm5.139 0c-.46 0-.84-.067-1.14-.2a1.522 1.522 0 0 1-.67-.54 1.48 1.48 0 0 1-.245-.76h.58c.02.337.155.592.405.765.253.17.598.255 1.035.255.226 0 .436-.037.63-.11a1.22 1.22 0 0 0 .465-.31.654.654 0 0 0 .18-.45.595.595 0 0 0-.235-.5c-.157-.12-.405-.223-.745-.31l-.865-.26c-.417-.12-.735-.29-.955-.51a1.1 1.1 0 0 1-.33-.8c0-.373.161-.672.485-.895.323-.227.745-.34 1.265-.34.566 0 1.008.112 1.325.335.316.223.483.502.5.835h-.6a.687.687 0 0 0-.365-.525c-.207-.117-.494-.175-.86-.175-.364 0-.645.083-.845.25-.2.167-.3.348-.3.545 0 .38.326.658.98.835l.85.265c.426.12.751.28.975.48.226.2.34.457.34.77 0 .23-.075.448-.225.655a1.576 1.576 0 0 1-.635.505c-.277.127-.61.19-1 .19Zm5.244 0c-.46 0-.84-.067-1.14-.2a1.521 1.521 0 0 1-.67-.54 1.48 1.48 0 0 1-.245-.76h.58c.02.337.155.592.405.765.253.17.598.255 1.035.255.227 0 .437-.037.63-.11a1.22 1.22 0 0 0 .465-.31.654.654 0 0 0 .18-.45.595.595 0 0 0-.235-.5c-.157-.12-.405-.223-.745-.31l-.865-.26c-.417-.12-.735-.29-.955-.51a1.1 1.1 0 0 1-.33-.8c0-.373.161-.672.485-.895.323-.227.745-.34 1.265-.34.566 0 1.008.112 1.325.335.317.223.483.502.5.835h-.6a.688.688 0 0 0-.365-.525c-.207-.117-.493-.175-.86-.175-.364 0-.645.083-.845.25-.2.167-.3.348-.3.545 0 .38.327.658.98.835l.85.265c.426.12.752.28.975.48.227.2.34.457.34.77 0 .23-.075.448-.225.655a1.578 1.578 0 0 1-.635.505c-.277.127-.61.19-1 .19ZM1.136 9V2.825h3.72v.495h-3.14v2.31h2.96v.495h-2.96v2.37h3.14V9h-3.72Zm4.768 0 1.77-2.375-1.77-2.375h.7l1.46 1.935L9.479 4.25h.705l-1.79 2.375L10.169 9h-.705l-1.45-1.95L6.604 9h-.7Zm7.027.11a1.45 1.45 0 0 1-.66-.145c-.19-.097-.34-.24-.45-.43a1.422 1.422 0 0 1-.16-.705V2.905h.565V7.82c0 .54.25.81.75.81.147 0 .287-.017.42-.05s.283-.08.45-.14l.08.425a3.199 3.199 0 0 1-.49.175c-.163.047-.332.07-.505.07Zm-2.085-4.435v-.42h2.985v.42h-2.985ZM15.208 9V4.25h.58V9h-.58Zm.365-2.175c0-.593.052-1.087.155-1.48.104-.393.264-.688.48-.885.217-.197.494-.295.83-.295a1.666 1.666 0 0 1 .62.105l-.065.565a2.018 2.018 0 0 0-.32-.09 1.394 1.394 0 0 0-.305-.04c-.296 0-.532.09-.705.27-.17.18-.292.43-.365.75-.073.317-.11.683-.11 1.1h-.215ZM20.25 9.11c-.413 0-.778-.105-1.095-.315a2.194 2.194 0 0 1-.74-.875 2.9 2.9 0 0 1-.27-1.275c0-.52.089-.967.265-1.34.18-.373.427-.66.74-.86.317-.2.684-.3 1.1-.3.35 0 .647.072.89.215.247.14.445.332.595.575.15.243.255.518.315.825.064.307.089.623.075.95H18.62v-.4h3.15l-.23.15a2.982 2.982 0 0 0-.04-.645 1.836 1.836 0 0 0-.195-.595 1.128 1.128 0 0 0-.395-.435c-.17-.11-.388-.165-.655-.165-.34 0-.623.088-.85.265-.226.173-.396.4-.51.68-.11.277-.165.573-.165.89V6.7c0 .363.055.69.165.98.114.29.282.52.505.69.227.17.51.255.85.255.35 0 .635-.085.855-.255.224-.173.357-.427.4-.76h.62c-.05.317-.161.587-.335.81-.17.223-.386.395-.65.515-.263.117-.56.175-.89.175ZM30.5 9V6.205c0-.503-.12-.888-.36-1.155s-.57-.4-.986-.4c-.473 0-.832.18-1.075.54-.243.357-.365.833-.365 1.43h-.295c0-.39.04-.738.12-1.045.08-.31.198-.57.355-.78.157-.213.35-.375.58-.485.233-.11.502-.165.805-.165.367 0 .683.082.95.245.27.163.478.4.625.71.147.307.22.675.22 1.105V9H30.5Zm-6.786 0V4.255h.49l.07 1.025c.143-.357.353-.635.63-.835.277-.2.615-.3 1.015-.3.367 0 .683.082.95.245.27.163.478.4.625.71.147.307.22.675.22 1.105V9h-.565V6.205c0-.503-.122-.888-.365-1.155-.24-.267-.572-.4-.995-.4-.31 0-.578.085-.805.255a1.61 1.61 0 0 0-.515.715 3.015 3.015 0 0 0-.175 1.075V9h-.58Zm10.872.11c-.413 0-.778-.105-1.095-.315a2.193 2.193 0 0 1-.74-.875 2.9 2.9 0 0 1-.27-1.275c0-.52.088-.967.265-1.34.18-.373.427-.66.74-.86.317-.2.684-.3 1.1-.3.35 0 .647.072.89.215.247.14.445.332.595.575.15.243.255.518.315.825.063.307.088.623.075.95h-3.505v-.4h3.15l-.23.15a2.989 2.989 0 0 0-.04-.645 1.841 1.841 0 0 0-.195-.595 1.129 1.129 0 0 0-.395-.435c-.17-.11-.388-.165-.655-.165-.34 0-.623.088-.85.265-.227.173-.397.4-.51.68-.11.277-.165.573-.165.89V6.7c0 .363.055.69.165.98.113.29.282.52.505.69.227.17.51.255.85.255.35 0 .635-.085.855-.255.223-.173.357-.427.4-.76h.62c-.05.317-.161.587-.335.81-.17.223-.386.395-.65.515-.263.117-.56.175-.89.175Zm-23.186 12a2.75 2.75 0 0 1-1.11-.22 1.953 1.953 0 0 1-.81-.65c-.203-.287-.305-.635-.305-1.045h.56c0 .313.077.572.23.775.153.203.355.355.605.455.253.097.527.145.82.145.336 0 .625-.055.865-.165.24-.113.423-.26.55-.44A.965.965 0 0 0 13 19.39c0-.297-.09-.537-.27-.72-.177-.183-.434-.327-.77-.43l-1.025-.33c-.53-.183-.928-.39-1.195-.62-.267-.23-.4-.555-.4-.975 0-.467.177-.848.53-1.145.353-.297.862-.445 1.525-.445.597 0 1.065.137 1.405.41.343.273.541.632.595 1.075h-.575a1.026 1.026 0 0 0-.44-.705c-.237-.167-.565-.25-.985-.25-.454 0-.805.103-1.055.31a.966.966 0 0 0-.37.78c0 .257.078.46.235.61.156.147.403.277.74.39l1.24.4c.433.133.781.33 1.045.59.266.257.4.605.4 1.045 0 .303-.085.587-.255.85-.17.263-.42.477-.75.64-.33.16-.739.24-1.225.24Zm5.379 0a1.45 1.45 0 0 1-.66-.145c-.19-.097-.34-.24-.45-.43a1.422 1.422 0 0 1-.16-.705v-4.925h.565v4.915c0 .54.25.81.75.81.146 0 .286-.017.42-.05.133-.033.283-.08.45-.14l.08.425a3.2 3.2 0 0 1-.49.175c-.164.047-.332.07-.505.07Zm-2.085-4.435v-.42h2.985v.42h-2.985ZM19.056 21v-4.75h.58V21h-.58Zm.365-2.175c0-.593.052-1.087.155-1.48.103-.393.263-.688.48-.885.216-.197.493-.295.83-.295a1.666 1.666 0 0 1 .62.105l-.065.565a2.015 2.015 0 0 0-.32-.09 1.393 1.393 0 0 0-.305-.04c-.297 0-.532.09-.705.27-.17.18-.292.43-.365.75-.073.317-.11.683-.11 1.1h-.215Zm4.677 2.285c-.413 0-.778-.105-1.095-.315a2.194 2.194 0 0 1-.74-.875 2.9 2.9 0 0 1-.27-1.275c0-.52.088-.967.265-1.34.18-.373.427-.66.74-.86.317-.2.683-.3 1.1-.3.35 0 .647.072.89.215.247.14.445.332.595.575.15.243.255.518.315.825.063.307.088.623.075.95h-3.505v-.4h3.15l-.23.15a2.982 2.982 0 0 0-.04-.645 1.836 1.836 0 0 0-.195-.595 1.128 1.128 0 0 0-.395-.435c-.17-.11-.388-.165-.655-.165-.34 0-.623.088-.85.265-.227.173-.397.4-.51.68-.11.277-.165.573-.165.89v.245c0 .363.055.69.165.98.113.29.282.52.505.69.227.17.51.255.85.255.35 0 .635-.085.855-.255.223-.173.357-.427.4-.76h.62c-.05.317-.162.587-.335.81-.17.223-.387.395-.65.515-.263.117-.56.175-.89.175Zm5.139 0c-.46 0-.84-.067-1.14-.2a1.526 1.526 0 0 1-.67-.54 1.48 1.48 0 0 1-.245-.76h.58c.02.337.155.592.405.765.253.17.598.255 1.035.255.226 0 .436-.037.63-.11a1.22 1.22 0 0 0 .465-.31.655.655 0 0 0 .18-.45.594.594 0 0 0-.235-.5c-.157-.12-.405-.223-.745-.31l-.865-.26c-.417-.12-.735-.29-.955-.51a1.1 1.1 0 0 1-.33-.8c0-.373.161-.672.485-.895.323-.227.745-.34 1.265-.34.566 0 1.008.112 1.325.335.316.223.483.502.5.835h-.6a.688.688 0 0 0-.365-.525c-.207-.117-.494-.175-.86-.175-.364 0-.645.083-.845.25-.2.167-.3.348-.3.545 0 .38.326.658.98.835l.85.265c.426.12.751.28.975.48.226.2.34.457.34.77 0 .23-.075.448-.225.655a1.579 1.579 0 0 1-.635.505c-.277.127-.61.19-1 .19Zm5.244 0c-.46 0-.84-.067-1.14-.2a1.525 1.525 0 0 1-.67-.54 1.479 1.479 0 0 1-.245-.76h.58c.02.337.155.592.405.765.253.17.598.255 1.035.255.227 0 .437-.037.63-.11a1.22 1.22 0 0 0 .465-.31.655.655 0 0 0 .18-.45.595.595 0 0 0-.235-.5c-.157-.12-.405-.223-.745-.31l-.865-.26c-.417-.12-.735-.29-.955-.51a1.1 1.1 0 0 1-.33-.8c0-.373.161-.672.485-.895.323-.227.745-.34 1.265-.34.566 0 1.008.112 1.325.335.317.223.483.502.5.835h-.6a.689.689 0 0 0-.365-.525c-.207-.117-.493-.175-.86-.175-.364 0-.645.083-.845.25-.2.167-.3.348-.3.545 0 .38.327.658.98.835l.85.265c.426.12.752.28.975.48.227.2.34.457.34.77 0 .23-.075.448-.225.655a1.58 1.58 0 0 1-.635.505c-.277.127-.61.19-1 .19Z"/><rect width="194.776" height="48.79" x="79.603" y="256.701" fill="url(#a)" rx="3.896" transform="rotate(-90 79.603 256.701)"/><path fill="#EBEBEB" d="M96.104 51.719h.949v5.434h1.417v.858h-1.417V60h-1.001v-1.989h-4.225v-.78l4.277-5.512Zm-.013 1.599-3.055 3.913h3.055v-3.913Zm3.05 6.078a.73.73 0 0 1 .214-.527.72.72 0 0 1 .54-.221c.216 0 .4.074.552.221a.707.707 0 0 1 .227.526.667.667 0 0 1-.227.514.79.79 0 0 1-.553.208.744.744 0 0 1-.54-.208.7.7 0 0 1-.214-.514Zm5.794.76c-.642 0-1.203-.156-1.684-.468-.476-.312-.849-.782-1.118-1.41-.264-.629-.396-1.415-.396-2.36 0-.945.132-1.729.396-2.353.269-.628.642-1.096 1.118-1.404.481-.312 1.042-.468 1.684-.468.637 0 1.196.156 1.677.468.481.308.853.776 1.118 1.404.268.624.403 1.408.403 2.353 0 .945-.135 1.731-.403 2.36-.265.628-.637 1.098-1.118 1.41-.481.312-1.04.468-1.677.468Zm0-.936c.702 0 1.235-.286 1.599-.858.364-.576.546-1.391.546-2.444s-.182-1.865-.546-2.438c-.364-.576-.897-.864-1.599-.864-.694 0-1.224.288-1.593.864-.368.573-.552 1.385-.552 2.438 0 1.053.184 1.868.552 2.444.369.572.899.858 1.593.858Zm7.718.936c-.641 0-1.202-.156-1.683-.468-.477-.312-.849-.782-1.118-1.41-.264-.629-.397-1.415-.397-2.36 0-.945.133-1.729.397-2.353.269-.628.641-1.096 1.118-1.404.481-.312 1.042-.468 1.683-.468.637 0 1.196.156 1.677.468.481.308.854.776 1.118 1.404.269.624.403 1.408.403 2.353 0 .945-.134 1.731-.403 2.36-.264.628-.637 1.098-1.118 1.41-.481.312-1.04.468-1.677.468Zm0-.936c.702 0 1.235-.286 1.599-.858.364-.576.546-1.391.546-2.444s-.182-1.865-.546-2.438c-.364-.576-.897-.864-1.599-.864-.693 0-1.224.288-1.592.864-.368.573-.553 1.385-.553 2.438 0 1.053.185 1.868.553 2.444.368.572.899.858 1.592.858Z"/><rect width="190.881" height="48.79" x="167.425" y="256.701" fill="url(#b)" rx="3.896" transform="rotate(-90 167.425 256.701)"/><path fill="#EBEBEB" d="M182.824 64.156c-.407 0-.801-.056-1.183-.169a3.454 3.454 0 0 1-1.02-.507 2.48 2.48 0 0 1-.709-.832c-.173-.33-.26-.71-.26-1.144h1.04c.009.373.109.687.299.943.191.255.445.448.761.578.321.13.678.195 1.072.195.607 0 1.077-.147 1.411-.442.334-.295.5-.663.5-1.105 0-.282-.069-.53-.208-.748-.138-.216-.359-.385-.663-.506-.299-.126-.693-.189-1.183-.189h-.923v-.806h.624c.633 0 1.131-.126 1.495-.377.364-.251.546-.598.546-1.04 0-.39-.147-.72-.442-.988-.294-.269-.715-.403-1.261-.403-.42 0-.795.087-1.124.26-.329.169-.553.481-.67.936h-1.04c.07-.507.234-.916.494-1.228a2.2 2.2 0 0 1 .988-.677 3.907 3.907 0 0 1 1.326-.214c.542 0 1.025.095 1.45.286.425.19.758.453 1.001.787.247.333.37.717.37 1.15 0 .429-.123.797-.37 1.105-.243.303-.596.537-1.06.702.516.147.936.39 1.261.728.33.338.494.771.494 1.3 0 .468-.123.884-.37 1.248-.243.36-.589.643-1.04.851-.451.204-.986.306-1.606.306Zm4.21-.76a.73.73 0 0 1 .215-.527.719.719 0 0 1 .539-.221c.217 0 .401.074.553.221a.71.71 0 0 1 .227.526.67.67 0 0 1-.227.514.79.79 0 0 1-.553.208.742.742 0 0 1-.539-.208.701.701 0 0 1-.215-.514Zm5.625.76c-.537 0-1.016-.11-1.436-.332a2.56 2.56 0 0 1-.988-.91 2.498 2.498 0 0 1-.358-1.332h1.053c.013.498.169.897.468 1.196.304.295.715.442 1.235.442.512 0 .925-.147 1.242-.442.32-.295.554-.71.702-1.248.151-.542.227-1.179.227-1.911 0-.169-.004-.325-.013-.468a5.75 5.75 0 0 0-.052-.494c-.056.468-.19.858-.403 1.17-.212.308-.485.54-.819.696a2.642 2.642 0 0 1-1.118.227c-.485 0-.923-.108-1.313-.325a2.536 2.536 0 0 1-.923-.903 2.57 2.57 0 0 1-.338-1.32c0-.507.115-.949.345-1.326.234-.377.559-.667.975-.871.416-.208.899-.312 1.449-.312a2.932 2.932 0 0 1 2.327 1.111c.291.356.516.783.676 1.281.165.498.247 1.057.247 1.677 0 .897-.115 1.675-.344 2.334-.226.658-.574 1.167-1.047 1.527-.468.355-1.066.533-1.794.533Zm-.065-4.303c.321 0 .611-.072.871-.215.26-.142.466-.335.618-.578a1.52 1.52 0 0 0 .227-.819c0-.503-.167-.9-.5-1.19-.33-.29-.735-.435-1.216-.435-.494 0-.903.145-1.228.435-.325.29-.488.687-.488 1.19 0 .498.163.893.488 1.183.325.286.734.429 1.228.429ZM197.34 64v-1.209c0-.472.076-.867.228-1.183a2.16 2.16 0 0 1 .65-.786c.281-.209.613-.388.994-.54l1.612-.637c.416-.169.728-.386.936-.65.208-.264.312-.594.312-.988 0-.416-.145-.756-.435-1.02-.286-.265-.687-.397-1.203-.397-.511 0-.931.11-1.261.331-.325.217-.511.544-.559.982h-1.131c.031-.472.169-.873.416-1.203a2.325 2.325 0 0 1 1.021-.747c.429-.173.929-.26 1.501-.26.525 0 .995.102 1.411.306.416.203.743.485.981.844.243.356.364.765.364 1.229 0 .42-.078.786-.234 1.098a2.325 2.325 0 0 1-.669.806 4.176 4.176 0 0 1-1.021.579l-1.651.663c-.416.16-.728.353-.936.578-.208.226-.312.518-.312.878v.39h4.745V64h-5.759Z"/><rect width="189.907" height="48.79" x="255.247" y="256.699" fill="url(#c)" rx="3.896" transform="rotate(-90 255.247 256.699)"/><path fill="#EBEBEB" d="M270.729 65.156c-.407 0-.802-.056-1.183-.169a3.454 3.454 0 0 1-1.02-.507 2.469 2.469 0 0 1-.709-.832c-.173-.33-.26-.71-.26-1.144h1.04c.009.373.108.687.299.943.191.255.444.448.761.578.32.13.678.195 1.072.195.607 0 1.077-.147 1.411-.442.333-.295.5-.663.5-1.105 0-.282-.069-.53-.208-.748-.139-.216-.36-.385-.663-.506-.299-.126-.693-.189-1.183-.189h-.923v-.806h.624c.633 0 1.131-.126 1.495-.377.364-.251.546-.598.546-1.04 0-.39-.147-.72-.442-.988-.295-.269-.715-.403-1.261-.403-.42 0-.795.087-1.124.26-.33.169-.553.481-.67.936h-1.04c.069-.507.234-.916.494-1.228.26-.313.589-.538.988-.677a3.907 3.907 0 0 1 1.326-.214c.542 0 1.025.095 1.45.286.424.19.758.453 1.001.787.247.333.37.717.37 1.15 0 .429-.123.797-.37 1.105-.243.303-.596.537-1.06.702.516.147.936.39 1.261.728.329.338.494.771.494 1.3 0 .468-.123.884-.37 1.248-.243.36-.59.643-1.04.851-.451.204-.986.306-1.606.306Zm4.21-.76a.73.73 0 0 1 .214-.527.721.721 0 0 1 .54-.221c.216 0 .401.074.552.221a.708.708 0 0 1 .228.526.668.668 0 0 1-.228.514.788.788 0 0 1-.552.208.744.744 0 0 1-.54-.208.7.7 0 0 1-.214-.514Zm5.625.76c-.537 0-1.016-.11-1.436-.332a2.56 2.56 0 0 1-.988-.91 2.498 2.498 0 0 1-.358-1.332h1.053c.013.498.169.897.468 1.196.303.295.715.442 1.235.442.511 0 .925-.147 1.242-.442.32-.295.554-.71.702-1.248.151-.542.227-1.179.227-1.911a6.18 6.18 0 0 0-.065-.962c-.056.468-.191.858-.403 1.17-.212.308-.485.54-.819.696a2.642 2.642 0 0 1-1.118.227c-.485 0-.923-.108-1.313-.325a2.528 2.528 0 0 1-.923-.903 2.57 2.57 0 0 1-.338-1.32c0-.507.115-.949.345-1.326.234-.377.559-.667.975-.871.416-.208.899-.312 1.449-.312a2.932 2.932 0 0 1 2.327 1.111c.29.356.516.783.676 1.281.165.498.247 1.057.247 1.677 0 .897-.115 1.675-.344 2.334-.226.658-.575 1.167-1.047 1.527-.468.355-1.066.533-1.794.533Zm-.065-4.303c.321 0 .611-.072.871-.215.26-.142.466-.335.618-.578a1.52 1.52 0 0 0 .227-.819c0-.503-.167-.9-.5-1.19-.33-.29-.735-.435-1.216-.435-.494 0-.903.145-1.228.435-.325.29-.488.687-.488 1.19 0 .498.163.893.488 1.183.325.286.734.429 1.228.429Zm7.775 4.303c-.641 0-1.202-.156-1.683-.468-.477-.312-.85-.782-1.118-1.41-.265-.629-.397-1.415-.397-2.36 0-.945.132-1.729.397-2.353.268-.628.641-1.096 1.118-1.404.481-.312 1.042-.468 1.683-.468.637 0 1.196.156 1.677.468.481.308.854.776 1.118 1.404.269.624.403 1.408.403 2.353 0 .945-.134 1.731-.403 2.36-.264.628-.637 1.098-1.118 1.41-.481.312-1.04.468-1.677.468Zm0-.936c.702 0 1.235-.286 1.599-.858.364-.576.546-1.391.546-2.444s-.182-1.865-.546-2.438c-.364-.576-.897-.864-1.599-.864-.693 0-1.224.288-1.592.864-.369.573-.553 1.385-.553 2.438 0 1.053.184 1.868.553 2.444.368.572.899.858 1.592.858Z"/><rect width="233.245" height="48.79" x="343.068" y="256.701" fill="url(#d)" rx="3.896" transform="rotate(-90 343.068 256.701)"/><path fill="#EBEBEB" d="M360.499 12.719h.949v5.434h1.417v.858h-1.417V21h-1.001v-1.989h-4.225v-.78l4.277-5.512Zm-.013 1.599-3.055 3.913h3.055v-3.913Zm3.05 6.077a.73.73 0 0 1 .214-.526.721.721 0 0 1 .54-.221c.216 0 .4.074.552.221a.708.708 0 0 1 .228.526.668.668 0 0 1-.228.514.79.79 0 0 1-.552.208.744.744 0 0 1-.54-.208.7.7 0 0 1-.214-.514Zm2.7.605 3.913-7.202h-4.368v-.962h5.564v.936L367.588 21h-1.352Zm9.031.156c-.537 0-1.016-.11-1.436-.331a2.56 2.56 0 0 1-.988-.91 2.498 2.498 0 0 1-.358-1.333h1.053c.013.498.169.897.468 1.196.304.295.715.442 1.235.442.512 0 .925-.147 1.242-.442.32-.295.554-.71.702-1.248.151-.542.227-1.179.227-1.911 0-.169-.004-.325-.013-.468a5.75 5.75 0 0 0-.052-.494c-.056.468-.19.858-.403 1.17-.212.308-.485.54-.819.695a2.642 2.642 0 0 1-1.118.228c-.485 0-.923-.108-1.313-.325a2.536 2.536 0 0 1-.923-.904 2.57 2.57 0 0 1-.338-1.319c0-.507.115-.949.345-1.326.234-.377.559-.667.975-.871.416-.208.899-.312 1.449-.312.468 0 .899.095 1.294.286.398.19.743.466 1.033.826.291.355.516.782.676 1.28.165.498.247 1.057.247 1.677 0 .897-.115 1.675-.344 2.334-.226.658-.574 1.167-1.047 1.527-.468.355-1.066.533-1.794.533Zm-.065-4.303c.321 0 .611-.072.871-.215.26-.143.466-.335.618-.578a1.52 1.52 0 0 0 .227-.819c0-.503-.167-.9-.5-1.19-.33-.29-.735-.435-1.216-.435-.494 0-.903.145-1.228.436-.325.29-.488.686-.488 1.189 0 .498.163.893.488 1.183.325.286.734.429 1.228.429Z"/><rect width="184.551" height="48.79" x="430.89" y="256.699" fill="url(#e)" rx="3.896" transform="rotate(-90 430.89 256.699)"/><path fill="#EBEBEB" d="M447.535 70.156c-.407 0-.801-.056-1.183-.169a3.454 3.454 0 0 1-1.02-.507 2.48 2.48 0 0 1-.709-.832c-.173-.33-.26-.71-.26-1.144h1.04c.009.373.109.687.299.942.191.256.444.449.761.579.32.13.678.195 1.072.195.607 0 1.077-.147 1.411-.442.333-.295.5-.663.5-1.105 0-.282-.069-.53-.208-.748-.138-.216-.359-.385-.663-.507-.299-.125-.693-.188-1.183-.188h-.923v-.806h.624c.633 0 1.131-.126 1.495-.377.364-.251.546-.598.546-1.04 0-.39-.147-.72-.442-.988-.294-.269-.715-.403-1.261-.403-.42 0-.795.087-1.124.26-.33.169-.553.481-.67.936h-1.04c.07-.507.234-.916.494-1.228a2.2 2.2 0 0 1 .988-.677 3.907 3.907 0 0 1 1.326-.214c.542 0 1.025.095 1.45.286.424.19.758.453 1.001.787.247.333.37.717.37 1.15 0 .429-.123.797-.37 1.105-.243.303-.596.537-1.06.702.516.147.936.39 1.261.728.33.338.494.771.494 1.3 0 .468-.123.884-.37 1.248-.243.36-.59.644-1.04.852-.451.203-.986.305-1.606.305Zm4.21-.76a.73.73 0 0 1 .214-.527.721.721 0 0 1 .54-.221.76.76 0 0 1 .552.221.708.708 0 0 1 .228.526.668.668 0 0 1-.228.514.786.786 0 0 1-.552.208.744.744 0 0 1-.54-.208.7.7 0 0 1-.214-.514Zm2.7.604 3.913-7.202h-4.368v-.962h5.564v.936L455.797 70h-1.352Zm9.032.156c-.538 0-1.016-.11-1.437-.332a2.568 2.568 0 0 1-.988-.91 2.507 2.507 0 0 1-.357-1.332h1.053c.013.498.169.897.468 1.196.303.295.715.442 1.235.442.511 0 .925-.147 1.241-.442.321-.295.555-.71.702-1.248.152-.542.228-1.179.228-1.911a6.18 6.18 0 0 0-.065-.962c-.057.468-.191.858-.403 1.17-.213.308-.486.54-.819.695a2.64 2.64 0 0 1-1.118.228c-.486 0-.923-.108-1.313-.325a2.52 2.52 0 0 1-.923-.903 2.56 2.56 0 0 1-.338-1.32c0-.507.115-.949.344-1.326.234-.377.559-.667.975-.871.416-.208.899-.312 1.45-.312a2.928 2.928 0 0 1 2.327 1.111c.29.356.515.783.676 1.281.164.498.247 1.057.247 1.677 0 .897-.115 1.675-.345 2.334-.225.658-.574 1.167-1.046 1.527-.468.355-1.066.533-1.794.533Zm-.065-4.303c.32 0 .611-.072.871-.215.26-.142.466-.335.617-.578.152-.243.228-.516.228-.819 0-.503-.167-.9-.501-1.19-.329-.29-.734-.435-1.215-.435-.494 0-.904.145-1.229.435-.325.29-.487.687-.487 1.19 0 .498.162.893.487 1.183.325.286.735.429 1.229.429Z"/><defs><linearGradient id="a" x1="79.603" x2="342.895" y1="281.096" y2="281.096" gradientUnits="userSpaceOnUse"><stop stop-color="#004382"/><stop offset="1" stop-color="#79B8F4"/></linearGradient><linearGradient id="b" x1="167.425" x2="429.91" y1="281.096" y2="281.096" gradientUnits="userSpaceOnUse"><stop stop-color="#004382"/><stop offset="1" stop-color="#79B8F4"/></linearGradient><linearGradient id="c" x1="255.247" x2="518.941" y1="281.094" y2="281.094" gradientUnits="userSpaceOnUse"><stop stop-color="#004382"/><stop offset="1" stop-color="#79B8F4"/></linearGradient><linearGradient id="d" x1="343.068" x2="605.553" y1="281.096" y2="281.096" gradientUnits="userSpaceOnUse"><stop stop-color="#004382"/><stop offset="1" stop-color="#79B8F4"/></linearGradient><linearGradient id="e" x1="430.89" x2="694.181" y1="281.094" y2="281.094" gradientUnits="userSpaceOnUse"><stop stop-color="#004382"/><stop offset="1" stop-color="#79B8F4"/></linearGradient></defs></svg>