<svg xmlns="http://www.w3.org/2000/svg" width="1040" height="440" fill="none"><path fill="#fff" d="M5.104 15.448c-.885 0-1.648-.222-2.288-.664-.64-.448-1.133-1.067-1.48-1.856-.347-.795-.52-1.715-.52-2.76 0-1.115.187-2.053.56-2.816.379-.763.89-1.339 1.536-1.728.65-.395 1.381-.592 2.192-.592 1.072 0 1.933.27 2.584.808.656.533 1.107 1.23 1.352 2.088L7.696 8.2c-.208-.624-.541-1.12-1-1.488a2.428 2.428 0 0 0-1.592-.56c-.528 0-1.016.152-1.464.456-.443.299-.8.747-1.072 1.344-.272.597-.408 1.336-.408 2.216 0 .8.107 1.512.32 2.136.219.624.544 1.114.976 1.472.437.357.987.536 1.648.536.795 0 1.424-.213 1.888-.64.47-.427.704-.987.704-1.68h1.36c0 .72-.165 1.338-.496 1.856-.33.512-.795.906-1.392 1.184-.592.277-1.28.416-2.064.416Zm6.324-.192V4.344h1.248v10.912h-1.248Zm9.685-7.664h1.248v7.664h-1.248V7.592Zm-5.424 0h1.248v4.768c0 .64.154 1.125.464 1.456.314.33.762.496 1.344.496.48 0 .896-.128 1.248-.384.357-.256.632-.608.824-1.056.197-.454.296-.97.296-1.552h.464c0 .858-.126 1.592-.376 2.2-.245.608-.595 1.075-1.048 1.4-.448.32-.976.48-1.584.48-.576 0-1.08-.107-1.512-.32a2.294 2.294 0 0 1-1.008-.968c-.24-.438-.36-.99-.36-1.656V7.592Zm12.663 7.856c-.741 0-1.36-.104-1.856-.312-.496-.213-.872-.504-1.128-.872a2.353 2.353 0 0 1-.408-1.28h1.2c.027.485.222.85.584 1.096.368.24.867.36 1.496.36.331 0 .635-.053.912-.16.278-.107.499-.253.664-.44a.928.928 0 0 0 .248-.632c0-.299-.109-.534-.328-.704-.218-.17-.568-.32-1.048-.448l-1.488-.48c-.645-.203-1.141-.48-1.488-.832a1.789 1.789 0 0 1-.512-1.28c0-.619.272-1.115.816-1.488.544-.373 1.259-.56 2.144-.56.939 0 1.667.192 2.184.576.518.384.787.864.808 1.44H29.92a1.002 1.002 0 0 0-.512-.76c-.293-.176-.709-.264-1.248-.264-.517 0-.922.117-1.216.352-.288.23-.432.485-.432.768 0 .528.454.917 1.36 1.168l1.52.512c.656.197 1.158.456 1.504.776.352.32.528.728.528 1.224 0 .384-.125.746-.376 1.088-.25.341-.605.619-1.064.832-.458.213-1.002.32-1.632.32Zm8.007 0c-.416 0-.79-.08-1.12-.24-.331-.16-.592-.4-.784-.72-.192-.32-.288-.72-.288-1.2V5.48h1.232v7.776c0 .79.368 1.184 1.104 1.184.218 0 .429-.024.632-.072.208-.048.44-.12.696-.216l.176.896a6.22 6.22 0 0 1-.816.288 3.073 3.073 0 0 1-.832.112Zm-3.424-6.976v-.864h4.88v.864h-4.88Zm9.743 6.976a3.213 3.213 0 0 1-1.776-.504 3.604 3.604 0 0 1-1.232-1.416c-.298-.603-.448-1.296-.448-2.08 0-.838.15-1.557.448-2.16.299-.603.707-1.064 1.224-1.384.523-.325 1.118-.488 1.784-.488.582 0 1.078.117 1.488.352.41.235.742.552.992.952.25.4.424.853.52 1.36.102.501.13 1.021.088 1.56H40.23v-.768h4.712l-.368.24a4.322 4.322 0 0 0-.056-.944 2.697 2.697 0 0 0-.28-.864 1.648 1.648 0 0 0-.584-.64c-.25-.16-.57-.24-.96-.24-.49 0-.901.125-1.232.376-.33.25-.578.581-.744.992a3.46 3.46 0 0 0-.248 1.32v.512c0 .533.08 1.01.24 1.432.166.421.41.755.736 1s.736.368 1.232.368.904-.12 1.224-.36c.32-.24.515-.595.584-1.064h1.296c-.08.507-.261.944-.544 1.312a2.811 2.811 0 0 1-1.08.84c-.437.197-.93.296-1.48.296Zm5.563-.192V7.592h1.248v7.664h-1.248Zm.864-3.456c0-.97.093-1.776.28-2.416.187-.645.459-1.125.816-1.44.363-.32.803-.48 1.32-.48.17 0 .325.013.464.04.144.021.288.056.432.104l-.08 1.232a3.842 3.842 0 0 0-.488-.12 2.301 2.301 0 0 0-.472-.056c-.453 0-.819.13-1.096.392-.277.256-.48.619-.608 1.088-.123.47-.184 1.021-.184 1.656h-.384Z"/><g clip-path="url(#a)"><path fill="#0C0D0E" d="M0 27.256h437.249v181.766H0z"/><path fill="red" fill-opacity=".4" d="M0 27.256h19.266v181.766H0zm27.991 0h18.92v181.766h-18.92zm27.645 0h19.267v181.766H55.636zm27.992 0h18.902v181.766H83.628zm27.627 0h19.267v181.766h-19.267zm27.992 0h18.902v181.766h-18.902zm27.627 0h19.267v181.766h-19.267zm27.992 0h18.902v181.766h-18.902zm27.627 0h19.267v181.766h-19.267zm27.992 0h18.902v181.766h-18.902zm27.628 0h19.267v181.766h-19.267zm27.992 0h18.902v181.766h-18.902zm27.627 0h19.267v181.766h-19.267zm27.992 0h18.902v181.766h-18.902zm27.627 0h19.267v181.766h-19.267zm27.992 0h18.902v181.766h-18.902z" opacity=".5"/></g><path stroke="#fff" stroke-width=".672" d="M.336 27.592h436.576v181.094H.336z"/><path fill="#fff" d="M2.213 220.625h.84v8.397h-1.04v-7.171a2.538 2.538 0 0 1-1.373.466v-1.013c.28-.04.55-.113.813-.22a2.8 2.8 0 0 0 .76-.459Zm3.04 8.397v-1.239c0-.485.078-.889.233-1.213.16-.325.382-.593.667-.807a4.55 4.55 0 0 1 1.02-.553l1.652-.653c.427-.173.747-.396.96-.667.214-.271.32-.608.32-1.013 0-.426-.149-.775-.446-1.046-.294-.271-.705-.407-1.233-.407-.525 0-.956.114-1.293.34-.334.222-.525.558-.574 1.007H5.4c.032-.485.174-.896.427-1.233a2.374 2.374 0 0 1 1.047-.767c.44-.178.953-.266 1.54-.266.537 0 1.019.104 1.446.313.426.209.762.497 1.006.866.249.365.373.785.373 1.26 0 .431-.08.806-.24 1.126a2.39 2.39 0 0 1-.686.827 4.28 4.28 0 0 1-1.047.593l-1.693.68c-.426.164-.746.362-.96.593-.213.231-.32.531-.32.9v.4h4.866v.959H5.253Zm10.825.16c-.657 0-1.233-.16-1.726-.479-.489-.32-.87-.802-1.146-1.447-.271-.644-.407-1.451-.407-2.419 0-.969.136-1.773.407-2.413.275-.644.657-1.124 1.146-1.44.493-.319 1.069-.479 1.726-.479.654 0 1.227.16 1.72.479.493.316.875.796 1.146 1.44.276.64.414 1.444.414 2.413 0 .968-.138 1.775-.414 2.419-.27.645-.653 1.127-1.146 1.447-.493.319-1.066.479-1.72.479Zm0-.959c.72 0 1.267-.294 1.64-.88.373-.591.56-1.426.56-2.506 0-1.08-.187-1.913-.56-2.5-.373-.59-.92-.886-1.64-.886-.71 0-1.255.296-1.633.886-.377.587-.566 1.42-.566 2.5s.189 1.915.566 2.506c.378.586.922.88 1.633.88Zm7.915.959c-.657 0-1.233-.16-1.726-.479-.489-.32-.871-.802-1.147-1.447-.27-.644-.406-1.451-.406-2.419 0-.969.135-1.773.406-2.413.276-.644.658-1.124 1.147-1.44.493-.319 1.069-.479 1.726-.479.653 0 1.226.16 1.72.479.493.316.875.796 1.146 1.44.275.64.413 1.444.413 2.413 0 .968-.137 1.775-.413 2.419-.271.645-.653 1.127-1.146 1.447-.494.319-1.067.479-1.72.479Zm0-.959c.72 0 1.266-.294 1.64-.88.373-.591.56-1.426.56-2.506 0-1.08-.187-1.913-.56-2.5-.374-.59-.92-.886-1.64-.886-.71 0-1.255.296-1.633.886-.377.587-.566 1.42-.566 2.5s.189 1.915.566 2.506c.378.586.922.88 1.633.88Zm8.195.959c-.467 0-.873-.106-1.22-.319a2.088 2.088 0 0 1-.793-.934c-.187-.413-.28-.915-.28-1.506h.44c0 .396.082.729.246 1 .165.271.378.478.64.62.267.137.549.206.847.206.32 0 .626-.091.92-.273.293-.187.533-.46.72-.82.186-.36.28-.804.28-1.333 0-.506-.087-.94-.26-1.299a1.958 1.958 0 0 0-.687-.827 1.702 1.702 0 0 0-.96-.286 1.75 1.75 0 0 0-.853.219 1.68 1.68 0 0 0-.647.647c-.164.28-.246.626-.246 1.04h-.44c0-.618.102-1.136.306-1.553.205-.422.483-.74.834-.953a2.22 2.22 0 0 1 1.18-.32c.497 0 .961.133 1.392.4.431.266.78.648 1.047 1.146.266.498.4 1.093.4 1.786 0 .702-.136 1.304-.407 1.806-.267.503-.618.887-1.053 1.154a2.65 2.65 0 0 1-1.406.399Zm-2.893 2.973v-9.504h.866l.174 1.493v8.011h-1.04Zm6.798-3.133 2.413-3.185-2.413-3.2h1.266l1.826 2.413 1.76-2.413h1.266l-2.426 3.2 2.413 3.185h-1.266l-1.827-2.426-1.746 2.426h-1.266Zm9.984 0 2.413-3.185-2.413-3.2h1.267l1.826 2.413 1.76-2.413h1.266l-2.426 3.2 2.412 3.185h-1.266l-1.826-2.426-1.746 2.426h-1.267Zm13.397.16c-.528 0-1.01-.095-1.446-.286a2.472 2.472 0 0 1-1.046-.84c-.263-.373-.396-.829-.4-1.366h1.04c0 .506.177.888.533 1.146.36.258.8.387 1.32.387.6 0 1.07-.183 1.412-.547.347-.369.52-.822.52-1.36 0-1.075-.693-1.612-2.08-1.612h-2.239l.36-4.053h4.639v.947h-3.8l.214-.36-.28 2.919-.133-.12c.213-.049.455-.082.727-.1.27-.022.513-.033.726-.033.906 0 1.624.202 2.153.606.528.405.793 1.007.793 1.806a2.94 2.94 0 0 1-.367 1.467 2.67 2.67 0 0 1-1.046 1.026c-.449.249-.982.373-1.6.373Zm7.724 0c-.657 0-1.233-.16-1.726-.479-.489-.32-.87-.802-1.146-1.447-.271-.644-.407-1.451-.407-2.419 0-.969.136-1.773.407-2.413.275-.644.657-1.124 1.146-1.44.493-.319 1.069-.479 1.726-.479.654 0 1.227.16 1.72.479.493.316.875.796 1.146 1.44.276.64.414 1.444.414 2.413 0 .968-.138 1.775-.414 2.419-.27.645-.653 1.127-1.146 1.447-.493.319-1.066.479-1.72.479Zm0-.959c.72 0 1.267-.294 1.64-.88.373-.591.56-1.426.56-2.506 0-1.08-.187-1.913-.56-2.5-.373-.59-.92-.886-1.64-.886-.71 0-1.255.296-1.632.886-.378.587-.567 1.42-.567 2.5s.189 1.915.567 2.506c.377.586.921.88 1.632.88Zm7.915.959c-.657 0-1.233-.16-1.726-.479-.489-.32-.871-.802-1.147-1.447-.27-.644-.406-1.451-.406-2.419 0-.969.135-1.773.406-2.413.276-.644.658-1.124 1.147-1.44.493-.319 1.069-.479 1.726-.479.653 0 1.227.16 1.72.479.493.316.875.796 1.146 1.44.275.64.413 1.444.413 2.413 0 .968-.138 1.775-.413 2.419-.271.645-.653 1.127-1.146 1.447-.493.319-1.067.479-1.72.479Zm0-.959c.72 0 1.266-.294 1.64-.88.373-.591.56-1.426.56-2.506 0-1.08-.187-1.913-.56-2.5-.374-.59-.92-.886-1.64-.886-.71 0-1.255.296-1.633.886-.377.587-.566 1.42-.566 2.5s.189 1.915.566 2.506c.378.586.922.88 1.633.88Zm8.195.959c-.467 0-.873-.106-1.22-.319a2.089 2.089 0 0 1-.793-.934c-.187-.413-.28-.915-.28-1.506h.44c0 .396.082.729.246 1 .165.271.378.478.64.62.267.137.549.206.847.206.32 0 .626-.091.92-.273.293-.187.533-.46.72-.82.186-.36.28-.804.28-1.333 0-.506-.087-.94-.26-1.299a1.958 1.958 0 0 0-.687-.827 1.702 1.702 0 0 0-.96-.286 1.75 1.75 0 0 0-.853.219 1.68 1.68 0 0 0-.647.647c-.164.28-.246.626-.246 1.04h-.44c0-.618.102-1.136.306-1.553.205-.422.483-.74.834-.953a2.22 2.22 0 0 1 1.18-.32c.497 0 .961.133 1.392.4.431.266.78.648 1.047 1.146.266.498.4 1.093.4 1.786 0 .702-.136 1.304-.407 1.806-.266.503-.617.887-1.053 1.154a2.65 2.65 0 0 1-1.406.399Zm-2.893 2.973v-9.504h.867l.173 1.493v8.011h-1.04Zm6.798-3.133 2.413-3.185-2.413-3.2h1.266l1.826 2.413 1.76-2.413h1.266l-2.426 3.2 2.413 3.185h-1.266l-1.827-2.426-1.746 2.426h-1.266Zm-83.254 16.16a4.24 4.24 0 0 1-1.213-.173 3.54 3.54 0 0 1-1.046-.52 2.53 2.53 0 0 1-.727-.853 2.484 2.484 0 0 1-.267-1.173h1.067c.009.382.111.704.306.967.196.262.456.459.78.593.33.133.696.2 1.1.2.622 0 1.104-.151 1.446-.454.342-.302.514-.679.514-1.133a1.39 1.39 0 0 0-.214-.766c-.142-.222-.369-.396-.68-.52-.306-.129-.71-.193-1.213-.193h-.946v-.827h.64c.649 0 1.16-.129 1.533-.386.373-.258.56-.613.56-1.067 0-.4-.151-.737-.454-1.013-.302-.275-.733-.413-1.293-.413-.43 0-.815.089-1.153.267-.337.173-.566.493-.686.959H.946c.072-.519.24-.939.507-1.259.267-.32.604-.551 1.013-.693.409-.147.862-.22 1.36-.22.555 0 1.05.097 1.486.293a2.5 2.5 0 0 1 1.026.806c.254.342.38.736.38 1.18 0 .44-.126.818-.38 1.133-.248.311-.61.551-1.086.72.529.151.96.4 1.293.746.338.347.507.791.507 1.333 0 .48-.127.907-.38 1.28-.25.369-.605.66-1.067.873-.462.209-1.01.313-1.646.313Zm6.13-8.557h.84v8.397h-1.04v-7.171a2.538 2.538 0 0 1-1.373.466v-1.013c.28-.04.55-.113.813-.22.266-.106.52-.259.76-.459Zm2.973 8.397 4.012-7.384h-4.479v-.987h5.706v.96l-3.853 7.411h-1.386Zm5.875-.619c0-.209.073-.389.22-.54a.74.74 0 0 1 .553-.227c.222 0 .411.076.567.227a.727.727 0 0 1 .233.54.685.685 0 0 1-.233.526.81.81 0 0 1-.567.213.763.763 0 0 1-.553-.213.717.717 0 0 1-.22-.526Zm5.741.779c-.528 0-1.01-.095-1.446-.286a2.474 2.474 0 0 1-1.046-.84c-.263-.373-.396-.829-.4-1.366h1.04c0 .506.177.888.533 1.146.36.258.8.387 1.32.387.6 0 1.07-.183 1.412-.547.347-.369.52-.822.52-1.36 0-1.075-.693-1.612-2.08-1.612h-2.239l.36-4.053h4.639v.947h-3.8l.214-.36-.28 2.919-.133-.12c.213-.049.455-.082.726-.1.271-.022.514-.033.727-.033.906 0 1.624.202 2.153.606.529.405.793 1.007.793 1.806a2.94 2.94 0 0 1-.367 1.467 2.67 2.67 0 0 1-1.046 1.026c-.449.249-.982.373-1.6.373Zm14.07-.16v-3.745c0-.609-.147-1.071-.44-1.387-.29-.32-.68-.479-1.173-.479-.578 0-1.02.224-1.327.673-.306.444-.46 1.059-.46 1.846h-.48c0-.573.056-1.075.167-1.506.116-.431.282-.789.5-1.073.218-.289.482-.505.793-.647a2.525 2.525 0 0 1 1.06-.213c.502 0 .93.113 1.286.34.36.222.636.542.827.959.19.418.286.914.286 1.487v3.745h-1.04Zm-8.958 0v-6.371h.893l.12 1.279c.2-.462.48-.817.84-1.066.364-.249.8-.373 1.306-.373.502 0 .93.113 1.286.34.36.222.636.542.827.959.19.418.286.914.286 1.487v3.745h-1.026v-3.745c0-.609-.147-1.071-.44-1.387-.289-.32-.684-.479-1.186-.479-.382 0-.713.104-.993.313-.28.209-.496.509-.647.9-.151.386-.227.848-.227 1.386v3.012h-1.04Zm21.428 0v-3.745c0-.609-.146-1.071-.44-1.387-.288-.32-.68-.479-1.173-.479-.577 0-1.02.224-1.326.673-.307.444-.46 1.059-.46 1.846h-.48c0-.573.056-1.075.167-1.506.115-.431.282-.789.5-1.073.218-.289.482-.505.793-.647a2.525 2.525 0 0 1 1.06-.213c.502 0 .93.113 1.286.34.36.222.635.542.826.959.192.418.287.914.287 1.487v3.745h-1.04Zm-8.957 0v-6.371h.893l.12 1.279c.2-.462.48-.817.84-1.066.364-.249.8-.373 1.306-.373.502 0 .93.113 1.286.34.36.222.636.542.827.959.19.418.286.914.286 1.487v3.745h-1.026v-3.745c0-.609-.147-1.071-.44-1.387-.289-.32-.684-.479-1.187-.479-.382 0-.713.104-.993.313-.28.209-.495.509-.646.9-.151.386-.227.848-.227 1.386v3.012h-1.04Zm14.634 0 2.413-3.185-2.413-3.2h1.266l1.826 2.413 1.76-2.413h1.266l-2.426 3.2L63 245.022h-1.266l-1.827-2.426-1.746 2.426h-1.266Zm11.85-8.397h.84v8.397h-1.04v-7.171a2.538 2.538 0 0 1-1.373.466v-1.013c.28-.04.552-.113.814-.22.266-.106.52-.259.76-.459Zm6.147 8.557a4.24 4.24 0 0 1-1.213-.173 3.54 3.54 0 0 1-1.047-.52 2.53 2.53 0 0 1-.726-.853 2.483 2.483 0 0 1-.267-1.173h1.067c.009.382.11.704.306.967.196.262.456.459.78.593.329.133.695.2 1.1.2.622 0 1.104-.151 1.446-.454.342-.302.513-.679.513-1.133a1.39 1.39 0 0 0-.213-.766c-.142-.222-.369-.396-.68-.52-.306-.129-.71-.193-1.213-.193H73.8v-.827h.64c.648 0 1.16-.129 1.533-.386.373-.258.56-.613.56-1.067 0-.4-.152-.737-.454-1.013-.302-.275-.733-.413-1.293-.413-.43 0-.815.089-1.153.267-.338.173-.566.493-.686.959H71.88c.071-.519.24-.939.507-1.259.266-.32.604-.551 1.013-.693.409-.147.862-.22 1.36-.22.555 0 1.05.097 1.486.293a2.5 2.5 0 0 1 1.026.806c.254.342.38.736.38 1.18 0 .44-.126.818-.38 1.133-.249.311-.61.551-1.086.72.529.151.96.4 1.293.746.338.347.506.791.506 1.333 0 .48-.126.907-.38 1.28-.248.369-.604.66-1.066.873-.462.209-1.01.313-1.646.313Zm4.77-.16v-1.239c0-.485.077-.889.233-1.213.16-.325.382-.593.666-.807a4.548 4.548 0 0 1 1.02-.553l1.653-.653c.427-.173.747-.396.96-.667.213-.271.32-.608.32-1.013 0-.426-.15-.775-.447-1.046-.293-.271-.704-.407-1.233-.407-.524 0-.955.114-1.293.34-.333.222-.524.558-.573 1.007h-1.16c.031-.485.173-.896.427-1.233a2.373 2.373 0 0 1 1.046-.767c.44-.178.953-.266 1.54-.266.537 0 1.02.104 1.446.313.427.209.762.497 1.007.866.248.365.373.785.373 1.26 0 .431-.08.806-.24 1.126-.16.32-.389.596-.687.827a4.281 4.281 0 0 1-1.046.593l-1.693.68c-.427.164-.746.362-.96.593-.213.231-.32.531-.32.9v.4h4.866v.959h-5.905Zm7.266-.619c0-.209.073-.389.22-.54a.74.74 0 0 1 .553-.227c.222 0 .41.076.566.227a.727.727 0 0 1 .234.54.685.685 0 0 1-.234.526.81.81 0 0 1-.566.213.763.763 0 0 1-.553-.213.717.717 0 0 1-.22-.526Zm5.941.779a4.24 4.24 0 0 1-1.213-.173 3.542 3.542 0 0 1-1.046-.52 2.53 2.53 0 0 1-.727-.853 2.484 2.484 0 0 1-.266-1.173h1.066c.009.382.111.704.306.967.196.262.456.459.78.593.33.133.696.2 1.1.2.622 0 1.104-.151 1.446-.454.343-.302.514-.679.514-1.133a1.39 1.39 0 0 0-.214-.766c-.142-.222-.368-.396-.68-.52-.306-.129-.71-.193-1.213-.193h-.946v-.827h.64c.649 0 1.16-.129 1.533-.386.373-.258.56-.613.56-1.067 0-.4-.151-.737-.454-1.013-.302-.275-.733-.413-1.293-.413-.43 0-.815.089-1.153.267-.337.173-.566.493-.686.959h-1.067c.072-.519.24-.939.507-1.259.267-.32.604-.551 1.013-.693.409-.147.862-.22 1.36-.22.555 0 1.05.097 1.486.293a2.5 2.5 0 0 1 1.027.806c.253.342.38.736.38 1.18 0 .44-.127.818-.38 1.133-.25.311-.611.551-1.087.72.529.151.96.4 1.293.746.338.347.507.791.507 1.333 0 .48-.127.907-.38 1.28-.25.369-.605.66-1.067.873-.462.209-1.01.313-1.646.313Zm14.221-.16v-3.745c0-.609-.147-1.071-.44-1.387-.289-.32-.68-.479-1.173-.479-.578 0-1.02.224-1.326.673-.307.444-.46 1.059-.46 1.846h-.48c0-.573.055-1.075.166-1.506.116-.431.283-.789.5-1.073.218-.289.482-.505.793-.647a2.527 2.527 0 0 1 1.06-.213c.502 0 .931.113 1.286.34.36.222.636.542.827.959.191.418.287.914.287 1.487v3.745h-1.04Zm-8.958 0v-6.371h.893l.12 1.279c.2-.462.48-.817.84-1.066.364-.249.8-.373 1.306-.373.502 0 .931.113 1.287.34.359.222.635.542.826.959.191.418.287.914.287 1.487v3.745h-1.027v-3.745c0-.609-.146-1.071-.44-1.387-.288-.32-.684-.479-1.186-.479-.382 0-.713.104-.993.313-.28.209-.496.509-.647.9-.15.386-.226.848-.226 1.386v3.012h-1.04Zm21.429 0v-3.745c0-.609-.147-1.071-.44-1.387-.289-.32-.68-.479-1.173-.479-.578 0-1.02.224-1.327.673-.306.444-.46 1.059-.46 1.846h-.479c0-.573.055-1.075.166-1.506.116-.431.282-.789.5-1.073.218-.289.482-.505.793-.647a2.527 2.527 0 0 1 1.06-.213c.502 0 .931.113 1.286.34.36.222.636.542.827.959.191.418.286.914.286 1.487v3.745h-1.039Zm-8.958 0v-6.371h.893l.12 1.279c.2-.462.48-.817.84-1.066.364-.249.8-.373 1.306-.373.502 0 .931.113 1.286.34.36.222.636.542.827.959.191.418.286.914.286 1.487v3.745h-1.026v-3.745c0-.609-.147-1.071-.44-1.387-.289-.32-.684-.479-1.186-.479-.382 0-.713.104-.993.313-.28.209-.496.509-.647.9-.151.386-.226.848-.226 1.386v3.012h-1.04Zm183.858-24.397h.84v8.397h-1.039v-7.171a2.535 2.535 0 0 1-1.373.466v-1.013c.279-.04.551-.113.813-.22.266-.106.52-.259.759-.459Zm6.2 8.557c-.671 0-1.257-.184-1.76-.553-.497-.369-.884-.868-1.159-1.499-.276-.636-.414-1.351-.414-2.147 0-.937.14-1.739.42-2.406.28-.671.68-1.184 1.2-1.539.52-.356 1.14-.533 1.86-.533.497 0 .935.095 1.313.286.382.187.686.449.913.787.231.337.369.731.413 1.179h-1.133c-.067-.4-.218-.717-.453-.953-.236-.235-.578-.353-1.027-.353-.764 0-1.364.331-1.799.993-.436.658-.653 1.557-.653 2.699 0 .165.004.356.013.574.009.213.027.413.053.599.04-.59.176-1.055.407-1.393.235-.342.529-.584.88-.726a2.94 2.94 0 0 1 1.113-.213c.506 0 .959.111 1.359.333.405.222.722.531.953.926.236.391.354.842.354 1.353 0 .516-.12.969-.36 1.36-.24.387-.576.689-1.007.907-.426.213-.922.319-1.486.319Zm0-.959c.507 0 .926-.149 1.26-.447.333-.298.5-.7.5-1.206 0-.52-.167-.927-.5-1.22-.334-.298-.753-.447-1.26-.447-.333 0-.631.074-.893.22-.262.143-.471.34-.627.594a1.609 1.609 0 0 0-.226.853c0 .506.166.908.5 1.206.333.298.748.447 1.246.447Zm10.365.959c-.511 0-.989-.137-1.433-.413a3.044 3.044 0 0 1-1.066-1.166c-.271-.502-.407-1.095-.407-1.78 0-.702.136-1.302.407-1.799.271-.498.626-.878 1.066-1.14a2.773 2.773 0 0 1 1.433-.393c.36 0 .682.055.966.166.289.107.54.256.754.447.213.191.388.409.526.653.142.24.247.493.313.76l-1.066.093a1.734 1.734 0 0 0-.56-.873c-.258-.218-.573-.326-.946-.326-.316 0-.614.091-.893.273-.276.178-.5.446-.674.806-.173.356-.26.8-.26 1.333 0 .493.078.922.234 1.287.16.36.377.639.653.839.275.2.589.3.94.3.493 0 .866-.12 1.119-.36.258-.244.387-.582.387-1.013h1.066c0 .445-.104.84-.313 1.187-.209.346-.506.62-.893.819-.382.2-.833.3-1.353.3Zm6.94 0c-.573 0-1.084-.126-1.533-.379a2.677 2.677 0 0 1-1.053-1.127c-.258-.498-.387-1.111-.387-1.839 0-.734.129-1.347.387-1.84.258-.498.609-.873 1.053-1.126.449-.254.96-.38 1.533-.38.569 0 1.075.126 1.52.38a2.62 2.62 0 0 1 1.053 1.126c.257.493.386 1.106.386 1.84 0 .728-.129 1.341-.386 1.839a2.628 2.628 0 0 1-1.053 1.127c-.445.253-.951.379-1.52.379Zm-.027-.906c.414 0 .765-.098 1.053-.293.289-.2.507-.482.654-.847.151-.364.226-.797.226-1.299 0-.76-.158-1.358-.473-1.793-.316-.44-.784-.66-1.406-.66-.418 0-.771.1-1.06.3-.285.195-.502.477-.653.846-.147.365-.22.8-.22 1.307 0 .751.157 1.346.473 1.786.32.435.789.653 1.406.653Zm5.011.746v-9.091h1.039v9.091h-1.039Zm8.068-6.385h1.04v6.385h-1.04v-6.385Zm-4.519 0h1.04v3.973c0 .533.129.937.386 1.213.263.275.636.413 1.12.413.4 0 .747-.107 1.04-.32.298-.213.526-.506.686-.88.165-.377.247-.808.247-1.293h.387c0 .716-.105 1.327-.314 1.833-.204.507-.495.895-.873 1.167-.373.266-.813.399-1.319.399-.48 0-.9-.088-1.26-.266a1.914 1.914 0 0 1-.84-.807c-.2-.364-.3-.824-.3-1.379v-4.053Zm17.215 6.385v-3.745c0-.609-.146-1.071-.439-1.387-.289-.32-.68-.479-1.174-.479-.577 0-1.019.224-1.326.673-.306.444-.46 1.059-.46 1.846h-.48c0-.573.056-1.075.167-1.506.116-.431.282-.789.5-1.073.218-.289.482-.505.793-.647a2.524 2.524 0 0 1 1.06-.213c.502 0 .931.113 1.286.34.36.222.635.542.827.959.191.418.286.914.286 1.487v3.745h-1.04Zm-8.957 0v-6.371h.893l.12 1.279c.2-.462.48-.817.84-1.066.364-.249.799-.373 1.306-.373.502 0 .931.113 1.286.34.36.222.636.542.827.959.191.418.286.914.286 1.487v3.745h-1.026v-3.745c0-.609-.147-1.071-.44-1.387-.289-.32-.684-.479-1.186-.479-.383 0-.714.104-.994.313-.279.209-.495.509-.646.9-.151.386-.227.848-.227 1.386v3.012h-1.039Zm17.003 0v-3.745c0-.609-.147-1.071-.44-1.387-.289-.32-.684-.479-1.187-.479-.382 0-.713.104-.993.313-.28.209-.495.509-.646.9-.151.386-.227.848-.227 1.386h-.4c0-.742.098-1.375.294-1.9.195-.524.479-.924.853-1.199.377-.28.835-.42 1.373-.42.502 0 .931.113 1.286.34.36.222.635.542.826.959.192.418.287.914.287 1.487v3.745h-1.026Zm-4.533 0v-6.371h.894l.146 1.466v4.905h-1.04Zm10.338.16c-.618 0-1.133-.086-1.546-.26-.413-.177-.727-.419-.94-.726a1.958 1.958 0 0 1-.34-1.066h1c.022.404.184.708.486.913.307.2.722.3 1.247.3a2.1 2.1 0 0 0 .76-.134c.231-.089.415-.211.553-.366a.772.772 0 0 0 .206-.527.702.702 0 0 0-.273-.586c-.182-.142-.473-.267-.873-.374l-1.24-.399c-.537-.169-.951-.4-1.239-.694a1.486 1.486 0 0 1-.427-1.066c0-.515.227-.929.68-1.24.453-.311 1.049-.466 1.786-.466.782 0 1.389.16 1.82.48.431.32.655.719.673 1.199h-1.027a.834.834 0 0 0-.426-.633c-.245-.146-.591-.22-1.04-.22-.431 0-.769.098-1.013.293-.24.192-.36.405-.36.64 0 .44.378.765 1.133.973l1.267.427c.546.164.964.38 1.253.646.293.267.439.607.439 1.02 0 .32-.104.622-.313.907-.209.284-.504.515-.886.693-.382.178-.836.266-1.36.266Zm4.551 1.293-.787-.386c.254-.129.467-.271.64-.427a1.07 1.07 0 0 0 .347-.573.906.906 0 0 1-.493-.207.574.574 0 0 1-.2-.459c0-.187.068-.347.206-.48a.755.755 0 0 1 .54-.2c.276 0 .498.1.667.3.168.2.253.437.253.713 0 .324-.1.642-.3.953-.196.315-.487.571-.873.766Zm5.616-1.453v-1.239c0-.485.077-.889.233-1.213.16-.325.382-.593.666-.807a4.557 4.557 0 0 1 1.02-.553l1.653-.653c.427-.173.747-.396.96-.667.213-.271.32-.608.32-1.013 0-.426-.149-.775-.447-1.046-.293-.271-.704-.407-1.233-.407-.524 0-.955.114-1.293.34-.333.222-.524.558-.573 1.007h-1.16c.031-.485.174-.896.427-1.233a2.373 2.373 0 0 1 1.046-.767c.44-.178.953-.266 1.54-.266.537 0 1.02.104 1.446.313.427.209.762.497 1.007.866.248.365.373.785.373 1.26 0 .431-.08.806-.24 1.126-.16.32-.389.596-.687.827a4.278 4.278 0 0 1-1.046.593l-1.693.68c-.427.164-.746.362-.96.593-.213.231-.32.531-.32.9v.4h4.866v.959h-5.905Zm11.598-8.491h.973v5.572h1.453v.88h-1.453v2.039h-1.026v-2.039h-4.333v-.8l4.386-5.652Zm-.013 1.64-3.133 4.012h3.133v-4.012Zm6.966 7.011c-.467 0-.873-.106-1.22-.319a2.092 2.092 0 0 1-.793-.934c-.187-.413-.28-.915-.28-1.506h.44c0 .396.082.729.247 1 .164.271.377.478.639.62.267.137.549.206.847.206.32 0 .626-.091.92-.273.293-.187.533-.46.72-.82.186-.36.279-.804.279-1.333 0-.506-.086-.94-.259-1.299a1.959 1.959 0 0 0-.687-.827 1.704 1.704 0 0 0-.96-.286 1.75 1.75 0 0 0-.853.219 1.68 1.68 0 0 0-.646.647c-.165.28-.247.626-.247 1.04h-.44c0-.618.102-1.136.307-1.553.204-.422.482-.74.833-.953a2.22 2.22 0 0 1 1.18-.32c.497 0 .962.133 1.393.4.431.266.779.648 1.046 1.146.267.498.4 1.093.4 1.786 0 .702-.136 1.304-.407 1.806-.266.503-.617.887-1.053 1.154a2.648 2.648 0 0 1-1.406.399Zm-2.893 2.973v-9.504h.867l.173 1.493v8.011h-1.04Zm6.798-3.133 2.413-3.185-2.413-3.2h1.266l1.827 2.413 1.759-2.413h1.267l-2.427 3.2 2.413 3.185h-1.266l-1.826-2.426-1.747 2.426h-1.266Zm13.237 3.28c-.653 0-1.22-.094-1.699-.28-.48-.182-.854-.429-1.12-.74a1.535 1.535 0 0 1-.393-1.02c0-.493.18-.871.539-1.133.365-.258.834-.386 1.407-.386l.573.359c-.48 0-.851.1-1.113.3a.977.977 0 0 0-.393.82c0 .347.186.64.559.88.374.24.92.36 1.64.36.533 0 1-.078 1.4-.233.404-.151.717-.351.939-.6.227-.245.34-.509.34-.793 0-.2-.073-.374-.22-.52-.146-.142-.371-.214-.673-.214h-2.479c-.431 0-.804-.064-1.12-.193-.311-.133-.551-.306-.72-.52a1.106 1.106 0 0 1-.253-.7c0-.266.076-.493.227-.679.151-.187.346-.329.586-.427.245-.098.507-.147.787-.147l.2.387a.986.986 0 0 0-.407.093.862.862 0 0 0-.34.267.698.698 0 0 0-.133.44c0 .204.084.375.253.513.169.138.476.207.92.207h2.479c.6 0 1.071.126 1.413.38.347.253.52.606.52 1.059 0 .418-.149.818-.446 1.2-.298.387-.725.702-1.28.946-.556.249-1.22.374-1.993.374Zm.187-5.146c-.489 0-.931-.097-1.327-.293a2.358 2.358 0 0 1-.933-.82 2.202 2.202 0 0 1-.34-1.219c0-.467.114-.876.34-1.227.231-.351.542-.622.933-.813a2.962 2.962 0 0 1 1.327-.293c.475 0 .906.098 1.293.293.391.191.702.462.933.813.231.351.346.76.346 1.227 0 .462-.115.868-.346 1.219a2.358 2.358 0 0 1-.933.82 2.82 2.82 0 0 1-1.293.293Zm0-.746c.488 0 .868-.151 1.139-.453.271-.303.407-.68.407-1.133 0-.467-.136-.845-.407-1.134-.271-.293-.651-.439-1.139-.439-.485 0-.867.146-1.147.439-.275.289-.413.667-.413 1.134 0 .453.138.83.413 1.133.28.302.662.453 1.147.453Zm2.093-2.906-.494-.2c0-.373.074-.7.22-.98.147-.284.356-.504.627-.66.271-.16.593-.24.966-.24l-.08 1.027c-.4 0-.706.086-.92.26-.213.169-.319.433-.319.793Zm7.324-.867h1.039v6.385h-1.039v-6.385Zm-4.519 0h1.04v3.973c0 .533.128.937.386 1.213.262.275.636.413 1.12.413.4 0 .746-.107 1.04-.32.297-.213.526-.506.686-.88.165-.377.247-.808.247-1.293h.386c0 .716-.104 1.327-.313 1.833-.204.507-.495.895-.873 1.167-.373.266-.813.399-1.32.399-.48 0-.9-.088-1.259-.266a1.914 1.914 0 0 1-.84-.807c-.2-.364-.3-.824-.3-1.379v-4.053Zm10.217 6.545c-.347 0-.658-.066-.933-.2a1.517 1.517 0 0 1-.653-.599c-.16-.267-.24-.6-.24-1v-6.505h1.026v6.478c0 .658.307.987.92.987.182 0 .358-.02.526-.06.174-.04.367-.1.58-.18l.147.746a5.111 5.111 0 0 1-.68.24 2.564 2.564 0 0 1-.693.093Zm-2.853-5.811v-.72h4.066v.72h-4.066Zm7.865 5.811c-.347 0-.658-.066-.933-.2a1.52 1.52 0 0 1-.654-.599c-.16-.267-.24-.6-.24-1v-6.505h1.027v6.478c0 .658.306.987.92.987.182 0 .357-.02.526-.06.173-.04.367-.1.58-.18l.147.746a5.162 5.162 0 0 1-.68.24 2.564 2.564 0 0 1-.693.093Zm-2.853-5.811v-.72h4.066v.72h-4.066Zm8.118 5.811c-.551 0-1.044-.14-1.48-.419a2.996 2.996 0 0 1-1.026-1.18c-.249-.502-.374-1.08-.374-1.733 0-.698.125-1.298.374-1.8.248-.502.588-.886 1.019-1.153a2.756 2.756 0 0 1 1.487-.406c.484 0 .897.098 1.239.293.343.196.618.46.827.793.209.333.353.711.433 1.133.084.418.109.851.073 1.3h-4.612v-.64h3.926l-.307.2a3.58 3.58 0 0 0-.046-.786 2.224 2.224 0 0 0-.234-.72 1.364 1.364 0 0 0-.486-.533c-.209-.134-.476-.2-.8-.2-.409 0-.751.104-1.026.313a1.904 1.904 0 0 0-.62.826 2.883 2.883 0 0 0-.207 1.1v.427c0 .444.067.842.2 1.193.138.351.342.628.613.833.271.204.613.306 1.027.306.413 0 .753-.1 1.019-.3.267-.2.429-.495.487-.886h1.08a2.368 2.368 0 0 1-.454 1.093 2.345 2.345 0 0 1-.899.7 2.977 2.977 0 0 1-1.233.246Zm4.634-.16v-6.385h1.04v6.385h-1.04Zm.72-2.879c0-.809.078-1.479.233-2.013.156-.537.382-.937.68-1.199.302-.267.669-.4 1.1-.4.142 0 .271.011.386.033.12.018.24.047.36.087l-.066 1.026a3.276 3.276 0 0 0-.407-.1 1.924 1.924 0 0 0-.393-.046c-.378 0-.682.108-.913.326-.231.213-.4.516-.507.907a5.5 5.5 0 0 0-.153 1.379h-.32Zm24.507-210.887V5.208h1.248v10.048h-1.248Zm7.972.192c-.885 0-1.648-.222-2.288-.664-.64-.448-1.133-1.067-1.48-1.856-.347-.795-.52-1.715-.52-2.76 0-1.115.187-2.053.56-2.816.379-.763.891-1.339 1.536-1.728.651-.395 1.381-.592 2.192-.592 1.072 0 1.933.27 2.584.808.656.533 1.107 1.23 1.352 2.088l-1.344.272c-.208-.624-.541-1.12-1-1.488a2.428 2.428 0 0 0-1.592-.56c-.528 0-1.016.152-1.464.456-.443.299-.8.747-1.072 1.344-.272.597-.408 1.336-.408 2.216 0 .8.107 1.512.32 2.136.219.624.544 1.114.976 1.472.437.357.987.536 1.648.536.795 0 1.424-.213 1.888-.64.469-.427.704-.987.704-1.68h1.36c0 .72-.165 1.338-.496 1.856-.331.512-.795.906-1.392 1.184-.592.277-1.28.416-2.064.416Zm9.541 0c-.672 0-1.288-.12-1.848-.36a3.22 3.22 0 0 1-1.352-1.08c-.342-.475-.518-1.061-.528-1.76h1.216c0 .47.114.856.344 1.16.229.299.533.523.912.672.378.144.792.216 1.24.216.485 0 .906-.077 1.264-.232.357-.155.632-.357.824-.608.197-.256.296-.536.296-.84 0-.427-.131-.77-.392-1.032-.262-.267-.648-.483-1.16-.648l-1.776-.624c-.832-.299-1.462-.64-1.888-1.024-.427-.384-.64-.923-.64-1.616 0-.779.298-1.413.896-1.904.602-.49 1.456-.736 2.56-.736 1.024 0 1.824.237 2.4.712.576.47.906 1.101.992 1.896h-1.232c-.08-.464-.299-.824-.656-1.08-.352-.261-.854-.392-1.504-.392-.662 0-1.176.147-1.544.44-.368.293-.552.664-.552 1.112 0 .368.114.661.344.88.234.213.6.405 1.096.576l2.08.72c.72.24 1.288.576 1.704 1.008.421.432.632.992.632 1.68 0 .533-.144 1.016-.432 1.448-.283.432-.702.776-1.256 1.032-.555.256-1.235.384-2.04.384Z"/><g clip-path="url(#b)"><path fill="#0C0D0E" d="M457.249 27.256h582v372.256h-582z"/><path fill="red" fill-opacity=".4" d="M457.249 27.256h38.534v372.256h-38.534zm49.44 0h38.534v372.256h-38.534zm49.44 0h38.534v372.256h-38.534zm49.441 0h38.534v372.256H605.57zm49.44 0h38.534v372.256H655.01zm49.44 0h38.534v372.256H704.45zm49.44 0h38.534v372.256H753.89zm49.441 0h38.534v372.256h-38.534zm49.44 0h38.534v372.256h-38.534zm49.44 0h38.534v372.256h-38.534zm49.44 0h38.534v372.256h-38.534zm49.439 0h38.534v372.256h-38.534z" opacity=".5"/></g><path stroke="#fff" stroke-width=".672" d="M457.585 27.592h581.328v371.584H457.585z"/><path fill="#fff" d="M459.461 411.114h.84v8.398h-1.039v-7.172a2.537 2.537 0 0 1-1.373.467v-1.013c.279-.04.551-.114.813-.22.266-.107.52-.26.759-.46Zm6.2 8.558c-.671 0-1.257-.185-1.76-.554-.497-.368-.884-.868-1.159-1.499-.276-.636-.414-1.351-.414-2.146 0-.938.14-1.74.42-2.406.28-.671.68-1.184 1.2-1.54.52-.355 1.14-.533 1.86-.533.497 0 .935.095 1.313.286.382.187.686.449.913.787.231.338.369.731.413 1.18h-1.133c-.067-.4-.218-.718-.453-.953-.236-.236-.578-.354-1.027-.354-.764 0-1.364.331-1.799.993-.436.658-.653 1.558-.653 2.7 0 .164.004.355.013.573.009.213.027.413.053.6.04-.591.176-1.056.407-1.393.235-.342.529-.585.88-.727a2.94 2.94 0 0 1 1.113-.213c.506 0 .959.111 1.359.333.405.222.722.531.953.927.236.391.354.842.354 1.353 0 .515-.12.968-.36 1.359-.24.387-.576.689-1.007.907-.426.213-.922.32-1.486.32Zm0-.96c.507 0 .926-.149 1.26-.447.333-.297.5-.699.5-1.206 0-.52-.167-.926-.5-1.22-.334-.297-.753-.446-1.26-.446-.333 0-.631.073-.893.22-.262.142-.471.34-.627.593a1.611 1.611 0 0 0-.226.853c0 .507.166.909.5 1.206.333.298.748.447 1.246.447Zm7.575.96c-.658 0-1.233-.16-1.726-.48-.489-.32-.871-.802-1.147-1.447-.271-.644-.406-1.45-.406-2.419 0-.969.135-1.773.406-2.413.276-.644.658-1.124 1.147-1.439.493-.32 1.068-.48 1.726-.48.653 0 1.226.16 1.72.48.493.315.875.795 1.146 1.439.275.64.413 1.444.413 2.413 0 .969-.138 1.775-.413 2.419-.271.645-.653 1.127-1.146 1.447-.494.32-1.067.48-1.72.48Zm0-.96c.72 0 1.266-.293 1.64-.88.373-.591.559-1.426.559-2.506 0-1.08-.186-1.913-.559-2.499-.374-.591-.92-.887-1.64-.887-.711 0-1.255.296-1.633.887-.378.586-.566 1.419-.566 2.499s.188 1.915.566 2.506c.378.587.922.88 1.633.88Zm7.915.96c-.658 0-1.233-.16-1.727-.48-.488-.32-.87-.802-1.146-1.447-.271-.644-.407-1.45-.407-2.419 0-.969.136-1.773.407-2.413.276-.644.658-1.124 1.146-1.439.494-.32 1.069-.48 1.727-.48.653 0 1.226.16 1.719.48.493.315.876.795 1.147 1.439.275.64.413 1.444.413 2.413 0 .969-.138 1.775-.413 2.419-.271.645-.654 1.127-1.147 1.447-.493.32-1.066.48-1.719.48Zm0-.96c.719 0 1.266-.293 1.639-.88.373-.591.56-1.426.56-2.506 0-1.08-.187-1.913-.56-2.499-.373-.591-.92-.887-1.639-.887-.711 0-1.256.296-1.633.887-.378.586-.567 1.419-.567 2.499s.189 1.915.567 2.506c.377.587.922.88 1.633.88Zm8.194.96c-.466 0-.873-.107-1.219-.32a2.09 2.09 0 0 1-.794-.933c-.186-.414-.279-.916-.279-1.507h.439c0 .396.083.729.247 1 .164.271.378.478.64.62.266.138.549.207.846.207.32 0 .627-.092.92-.274.293-.186.533-.46.72-.819.187-.36.28-.805.28-1.333 0-.507-.087-.94-.26-1.3a1.959 1.959 0 0 0-.687-.827 1.698 1.698 0 0 0-.959-.286c-.303 0-.587.073-.853.22a1.666 1.666 0 0 0-.647.646c-.164.28-.247.627-.247 1.04h-.439c0-.618.102-1.135.306-1.553.204-.422.482-.74.833-.953a2.23 2.23 0 0 1 1.18-.32c.498 0 .962.133 1.393.4.431.267.78.649 1.046 1.146.267.498.4 1.093.4 1.787 0 .702-.135 1.304-.406 1.806-.267.502-.618.886-1.053 1.153-.436.266-.905.4-1.407.4Zm-2.892 2.972v-9.504h.866l.173 1.493v8.011h-1.039Zm6.797-3.132 2.413-3.186-2.413-3.199h1.267l1.826 2.412 1.76-2.412h1.266l-2.426 3.199 2.413 3.186h-1.267l-1.826-2.426-1.746 2.426h-1.267Zm9.985 0 2.413-3.186-2.413-3.199h1.266l1.826 2.412 1.76-2.412h1.266l-2.426 3.199 2.413 3.186h-1.266l-1.826-2.426-1.747 2.426h-1.266Zm11.851-8.398h.839v8.398h-1.039v-7.172a2.537 2.537 0 0 1-1.373.467v-1.013c.28-.04.551-.114.813-.22.266-.107.52-.26.76-.46Zm6.146 8.558c-.658 0-1.233-.16-1.726-.48-.489-.32-.871-.802-1.147-1.447-.271-.644-.406-1.45-.406-2.419 0-.969.135-1.773.406-2.413.276-.644.658-1.124 1.147-1.439.493-.32 1.068-.48 1.726-.48.653 0 1.226.16 1.719.48.494.315.876.795 1.147 1.439.275.64.413 1.444.413 2.413 0 .969-.138 1.775-.413 2.419-.271.645-.653 1.127-1.147 1.447-.493.32-1.066.48-1.719.48Zm0-.96c.72 0 1.266-.293 1.639-.88.374-.591.56-1.426.56-2.506 0-1.08-.186-1.913-.56-2.499-.373-.591-.919-.887-1.639-.887-.711 0-1.255.296-1.633.887-.378.586-.567 1.419-.567 2.499s.189 1.915.567 2.506c.378.587.922.88 1.633.88Zm4.809.8v-1.24c0-.484.077-.889.233-1.213.16-.324.382-.593.666-.806a4.518 4.518 0 0 1 1.02-.554l1.653-.653c.427-.173.747-.395.96-.666.213-.271.32-.609.32-1.013 0-.427-.149-.776-.447-1.047-.293-.271-.704-.406-1.233-.406-.524 0-.955.113-1.293.34-.333.222-.524.557-.573 1.006h-1.16c.031-.484.174-.895.427-1.233a2.375 2.375 0 0 1 1.046-.767c.44-.177.953-.266 1.54-.266.537 0 1.02.104 1.446.313.427.209.762.498 1.007.867.248.364.373.784.373 1.259 0 .431-.08.807-.24 1.127a2.39 2.39 0 0 1-.687.826 4.278 4.278 0 0 1-1.046.593l-1.693.68c-.427.165-.746.362-.96.593-.213.231-.32.531-.32.9v.4h4.866v.96h-5.905Zm11.598-8.491h.973v5.571h1.453v.88h-1.453v2.04h-1.026v-2.04h-4.333v-.8l4.386-5.651Zm-.013 1.639-3.133 4.012h3.133v-4.012Zm6.966 7.012c-.467 0-.873-.107-1.22-.32a2.094 2.094 0 0 1-.793-.933c-.187-.414-.28-.916-.28-1.507h.44c0 .396.082.729.247 1 .164.271.377.478.639.62.267.138.549.207.847.207.32 0 .626-.092.92-.274.293-.186.533-.46.719-.819.187-.36.28-.805.28-1.333 0-.507-.086-.94-.26-1.3a1.95 1.95 0 0 0-.686-.827 1.704 1.704 0 0 0-.96-.286 1.74 1.74 0 0 0-.853.22 1.67 1.67 0 0 0-.646.646c-.165.28-.247.627-.247 1.04h-.44c0-.618.102-1.135.307-1.553.204-.422.482-.74.833-.953a2.23 2.23 0 0 1 1.18-.32c.497 0 .962.133 1.393.4.431.267.779.649 1.046 1.146.267.498.4 1.093.4 1.787 0 .702-.136 1.304-.407 1.806-.266.502-.617.886-1.053 1.153a2.65 2.65 0 0 1-1.406.4Zm-2.893 2.972v-9.504h.867l.173 1.493v8.011h-1.04Zm6.798-3.132 2.413-3.186-2.413-3.199h1.266l1.827 2.412 1.759-2.412h1.267l-2.427 3.199 2.413 3.186h-1.266l-1.826-2.426-1.747 2.426h-1.266Zm-86.516 7.509h.973v5.571h1.453v.88h-1.453v2.04h-1.026v-2.04h-4.333v-.8l4.386-5.651Zm-.013 1.639-3.133 4.012h3.133v-4.012Zm3.58 6.852v-1.24c0-.484.078-.889.233-1.213.16-.324.382-.593.667-.806a4.489 4.489 0 0 1 1.019-.554l1.653-.653c.427-.173.747-.395.96-.666.213-.271.32-.609.32-1.013 0-.427-.149-.776-.447-1.047-.293-.271-.704-.406-1.233-.406-.524 0-.955.113-1.293.34-.333.222-.524.557-.573 1.006h-1.159c.031-.484.173-.895.426-1.233a2.387 2.387 0 0 1 1.046-.767c.44-.177.954-.266 1.54-.266.538 0 1.02.104 1.446.313.427.209.762.498 1.007.867.249.364.373.784.373 1.259 0 .431-.08.807-.24 1.127-.16.32-.389.595-.686.826a4.285 4.285 0 0 1-1.047.593l-1.693.68c-.426.165-.746.362-.959.593-.214.231-.32.531-.32.9v.4h4.865v.96h-5.905Zm10.825.16c-.417 0-.822-.058-1.213-.174a3.566 3.566 0 0 1-1.046-.519 2.543 2.543 0 0 1-.727-.854 2.487 2.487 0 0 1-.266-1.173h1.066c.009.382.111.705.307.967a1.8 1.8 0 0 0 .779.593c.329.133.696.2 1.1.2.622 0 1.104-.151 1.447-.453a1.45 1.45 0 0 0 .513-1.133c0-.289-.071-.545-.214-.767-.142-.222-.368-.395-.679-.52-.307-.129-.711-.193-1.213-.193h-.947v-.826h.64c.649 0 1.16-.129 1.533-.387s.56-.613.56-1.066c0-.4-.151-.738-.453-1.013-.303-.276-.734-.414-1.293-.414-.431 0-.816.089-1.153.267-.338.173-.567.493-.687.96h-1.066c.071-.52.24-.94.506-1.26.267-.32.604-.551 1.013-.693.409-.147.862-.22 1.36-.22.555 0 1.051.098 1.486.293.436.196.778.464 1.027.807.253.342.38.735.38 1.179 0 .44-.127.818-.38 1.133-.249.311-.611.551-1.087.72.529.151.96.4 1.293.747.338.346.507.791.507 1.333 0 .48-.127.906-.38 1.279-.249.369-.604.66-1.067.873-.462.209-1.01.314-1.646.314Zm4.317-.78c0-.209.073-.389.22-.54a.738.738 0 0 1 .553-.227c.222 0 .411.076.566.227a.726.726 0 0 1 .234.54.683.683 0 0 1-.234.526.805.805 0 0 1-.566.214.759.759 0 0 1-.553-.214.715.715 0 0 1-.22-.526Zm5.941.78a4.24 4.24 0 0 1-1.213-.174 3.554 3.554 0 0 1-1.046-.519 2.543 2.543 0 0 1-.727-.854c-.178-.337-.266-.728-.266-1.173h1.066c.009.382.111.705.307.967a1.8 1.8 0 0 0 .779.593c.329.133.696.2 1.1.2.622 0 1.104-.151 1.446-.453.343-.302.514-.68.514-1.133 0-.289-.072-.545-.214-.767-.142-.222-.369-.395-.68-.52-.306-.129-.71-.193-1.213-.193h-.946v-.826h.64c.649 0 1.16-.129 1.533-.387s.56-.613.56-1.066c0-.4-.151-.738-.454-1.013-.302-.276-.733-.414-1.293-.414-.431 0-.815.089-1.153.267-.337.173-.566.493-.686.96h-1.067c.072-.52.24-.94.507-1.26.267-.32.604-.551 1.013-.693.409-.147.862-.22 1.36-.22.555 0 1.051.098 1.486.293.436.196.778.464 1.026.807.254.342.38.735.38 1.179 0 .44-.126.818-.38 1.133-.248.311-.61.551-1.086.72.529.151.96.4 1.293.747.338.346.507.791.507 1.333 0 .48-.127.906-.38 1.279-.249.369-.605.66-1.067.873-.462.209-1.011.314-1.646.314Zm14.221-.16v-3.746c0-.609-.147-1.071-.44-1.386-.289-.32-.68-.48-1.173-.48-.578 0-1.02.224-1.326.673-.307.444-.46 1.06-.46 1.846h-.48c0-.573.055-1.075.166-1.506.116-.431.283-.789.5-1.073.218-.289.482-.505.793-.647a2.527 2.527 0 0 1 1.06-.213c.502 0 .931.113 1.286.34.36.222.636.542.827.96.191.417.287.913.287 1.486v3.746h-1.04Zm-8.958 0v-6.372h.893l.12 1.28c.2-.462.48-.818.84-1.067.364-.249.8-.373 1.306-.373.502 0 .931.113 1.287.34.359.222.635.542.826.96.191.417.287.913.287 1.486v3.746h-1.027v-3.746c0-.609-.146-1.071-.44-1.386-.288-.32-.684-.48-1.186-.48-.382 0-.713.104-.993.313-.28.209-.496.509-.647.9-.151.386-.226.848-.226 1.386v3.013h-1.04Zm21.429 0v-3.746c0-.609-.147-1.071-.44-1.386-.289-.32-.68-.48-1.173-.48-.578 0-1.02.224-1.327.673-.306.444-.46 1.06-.46 1.846h-.479c0-.573.055-1.075.166-1.506.116-.431.282-.789.5-1.073.218-.289.482-.505.793-.647a2.524 2.524 0 0 1 1.06-.213c.502 0 .931.113 1.286.34.36.222.636.542.827.96.191.417.286.913.286 1.486v3.746h-1.039Zm-8.958 0v-6.372h.893l.12 1.28c.2-.462.48-.818.84-1.067.364-.249.8-.373 1.306-.373.502 0 .931.113 1.286.34.36.222.636.542.827.96.191.417.286.913.286 1.486v3.746h-1.026v-3.746c0-.609-.147-1.071-.44-1.386-.289-.32-.684-.48-1.186-.48-.382 0-.713.104-.993.313-.28.209-.496.509-.647.9-.151.386-.226.848-.226 1.386v3.013h-1.04Zm14.634 0 2.413-3.186-2.413-3.199h1.267l1.826 2.412 1.759-2.412h1.267l-2.426 3.199 2.412 3.186h-1.266l-1.826-2.426-1.746 2.426h-1.267Zm10.491 0v-1.24c0-.484.078-.889.234-1.213.159-.324.382-.593.666-.806a4.518 4.518 0 0 1 1.02-.554l1.653-.653c.426-.173.746-.395.959-.666.214-.271.32-.609.32-1.013 0-.427-.148-.776-.446-1.047-.293-.271-.704-.406-1.233-.406-.525 0-.956.113-1.293.34-.333.222-.525.557-.573 1.006h-1.16c.031-.484.173-.895.426-1.233a2.384 2.384 0 0 1 1.047-.767c.44-.177.953-.266 1.539-.266.538 0 1.02.104 1.447.313.426.209.762.498 1.006.867.249.364.373.784.373 1.259 0 .431-.08.807-.24 1.127-.159.32-.388.595-.686.826a4.278 4.278 0 0 1-1.046.593l-1.693.68c-.427.165-.747.362-.96.593-.213.231-.32.531-.32.9v.4h4.865v.96h-5.905Zm7.653 0 4.012-7.385h-4.479v-.987h5.706v.96l-3.853 7.412h-1.386Zm9.434.16c-.658 0-1.233-.16-1.726-.48-.489-.32-.871-.802-1.147-1.447-.271-.644-.406-1.45-.406-2.419 0-.969.135-1.773.406-2.413.276-.644.658-1.124 1.147-1.439.493-.32 1.068-.48 1.726-.48.653 0 1.226.16 1.72.48.493.315.875.795 1.146 1.439.275.64.413 1.444.413 2.413 0 .969-.138 1.775-.413 2.419-.271.645-.653 1.127-1.146 1.447-.494.32-1.067.48-1.72.48Zm0-.96c.72 0 1.266-.293 1.64-.88.373-.591.559-1.426.559-2.506 0-1.08-.186-1.913-.559-2.499-.374-.591-.92-.887-1.64-.887-.711 0-1.255.296-1.633.887-.378.586-.566 1.419-.566 2.499s.188 1.915.566 2.506c.378.587.922.88 1.633.88Zm4.356.18c0-.209.073-.389.22-.54a.738.738 0 0 1 .553-.227c.222 0 .411.076.566.227a.726.726 0 0 1 .234.54.683.683 0 0 1-.234.526.805.805 0 0 1-.566.214.759.759 0 0 1-.553-.214.715.715 0 0 1-.22-.526Zm5.768.78a3.125 3.125 0 0 1-1.473-.34 2.628 2.628 0 0 1-1.013-.933 2.565 2.565 0 0 1-.367-1.367h1.08c.013.511.173.92.48 1.227.311.302.733.453 1.266.453.524 0 .949-.151 1.273-.453.329-.302.569-.729.72-1.28.155-.555.233-1.209.233-1.959a6.136 6.136 0 0 0-.067-.987c-.057.48-.195.88-.413 1.2a2.07 2.07 0 0 1-.84.713 2.713 2.713 0 0 1-1.146.233c-.498 0-.946-.111-1.346-.333a2.595 2.595 0 0 1-.947-.926 2.635 2.635 0 0 1-.346-1.353c0-.52.117-.974.353-1.36.24-.387.573-.684 1-.893.426-.214.922-.32 1.486-.32.48 0 .922.098 1.326.293a3.04 3.04 0 0 1 1.06.847c.298.364.529.802.693 1.313.169.511.253 1.084.253 1.719 0 .92-.117 1.717-.353 2.393-.231.675-.589 1.197-1.073 1.566-.48.365-1.093.547-1.839.547Zm-.067-4.413c.329 0 .626-.073.893-.219.267-.147.478-.345.633-.594.156-.249.234-.528.234-.839 0-.516-.172-.922-.514-1.22-.337-.298-.753-.447-1.246-.447-.507 0-.926.149-1.26.447-.333.298-.5.704-.5 1.22 0 .511.167.915.5 1.213.334.293.753.439 1.26.439Zm14.317 4.253v-3.746c0-.609-.146-1.071-.439-1.386-.289-.32-.68-.48-1.174-.48-.577 0-1.019.224-1.326.673-.306.444-.46 1.06-.46 1.846h-.48c0-.573.056-1.075.167-1.506.116-.431.282-.789.5-1.073.218-.289.482-.505.793-.647a2.524 2.524 0 0 1 1.06-.213c.502 0 .931.113 1.286.34.36.222.636.542.827.96.191.417.286.913.286 1.486v3.746h-1.04Zm-8.957 0v-6.372h.893l.12 1.28c.2-.462.48-.818.84-1.067.364-.249.799-.373 1.306-.373.502 0 .931.113 1.286.34.36.222.636.542.827.96.191.417.286.913.286 1.486v3.746h-1.026v-3.746c0-.609-.147-1.071-.44-1.386-.289-.32-.684-.48-1.186-.48a1.61 1.61 0 0 0-.993.313c-.28.209-.496.509-.647.9-.151.386-.227.848-.227 1.386v3.013h-1.039Zm21.428 0v-3.746c0-.609-.146-1.071-.44-1.386-.288-.32-.679-.48-1.173-.48-.577 0-1.019.224-1.326.673-.307.444-.46 1.06-.46 1.846h-.48c0-.573.056-1.075.167-1.506.115-.431.282-.789.5-1.073.217-.289.482-.505.793-.647a2.524 2.524 0 0 1 1.06-.213c.502 0 .93.113 1.286.34.36.222.635.542.826.96.191.417.287.913.287 1.486v3.746h-1.04Zm-8.957 0v-6.372h.893l.12 1.28c.2-.462.479-.818.839-1.067.365-.249.8-.373 1.307-.373.502 0 .931.113 1.286.34.36.222.635.542.827.96.191.417.286.913.286 1.486v3.746h-1.026v-3.746c0-.609-.147-1.071-.44-1.386-.289-.32-.684-.48-1.187-.48-.382 0-.713.104-.993.313-.28.209-.495.509-.646.9-.151.386-.227.848-.227 1.386v3.013h-1.039Zm320.997-24.398h.839v8.398h-1.039v-7.172a2.537 2.537 0 0 1-1.373.467v-1.013c.28-.04.551-.114.813-.22.266-.107.52-.26.76-.46Zm3.04 8.398v-1.24c0-.484.078-.889.233-1.213.16-.324.382-.593.667-.806a4.489 4.489 0 0 1 1.019-.554l1.653-.653c.427-.173.747-.395.96-.666.213-.271.32-.609.32-1.013 0-.427-.149-.776-.447-1.047-.293-.271-.704-.406-1.233-.406-.524 0-.955.113-1.293.34-.333.222-.524.557-.573 1.006h-1.16c.032-.484.174-.895.427-1.233a2.387 2.387 0 0 1 1.046-.767c.44-.177.954-.266 1.54-.266.538 0 1.02.104 1.446.313.427.209.762.498 1.007.867.249.364.373.784.373 1.259 0 .431-.08.807-.24 1.127-.16.32-.389.595-.686.826a4.285 4.285 0 0 1-1.047.593l-1.693.68c-.426.165-.746.362-.959.593-.214.231-.32.531-.32.9v.4h4.865v.96h-5.905Zm13.615.16a2.67 2.67 0 0 1-1.433-.414 3.044 3.044 0 0 1-1.066-1.166c-.271-.502-.407-1.095-.407-1.779 0-.703.136-1.302.407-1.8.271-.498.626-.878 1.066-1.14a2.775 2.775 0 0 1 1.433-.393c.36 0 .682.056.967.167.288.106.539.255.753.446.213.191.389.409.526.653.142.24.247.494.314.76l-1.067.093a1.743 1.743 0 0 0-.56-.873 1.418 1.418 0 0 0-.946-.326c-.316 0-.613.091-.893.273-.276.178-.5.447-.673.807-.174.355-.26.799-.26 1.333 0 .493.077.922.233 1.286.16.36.378.64.653.84.276.2.589.3.94.3.493 0 .866-.12 1.12-.36.257-.245.386-.582.386-1.013h1.067c0 .444-.105.839-.314 1.186-.209.347-.506.62-.893.82-.382.2-.833.3-1.353.3Zm6.94 0a3.069 3.069 0 0 1-1.533-.38c-.444-.253-.795-.629-1.053-1.127-.258-.497-.386-1.11-.386-1.839 0-.733.128-1.346.386-1.84.258-.497.609-.873 1.053-1.126.449-.253.96-.38 1.533-.38a3.02 3.02 0 0 1 1.52.38c.449.253.8.629 1.053 1.126.258.494.386 1.107.386 1.84 0 .729-.128 1.342-.386 1.839a2.611 2.611 0 0 1-1.053 1.127 3.02 3.02 0 0 1-1.52.38Zm-.027-.907c.414 0 .765-.098 1.054-.293.288-.2.506-.482.653-.846.151-.365.226-.798.226-1.3 0-.76-.157-1.358-.473-1.793-.315-.44-.784-.66-1.406-.66-.418 0-.771.1-1.06.3-.284.196-.502.478-.653.847-.147.364-.22.799-.22 1.306 0 .751.158 1.346.473 1.786.32.436.789.653 1.406.653Zm5.011.747v-9.091h1.04v9.091h-1.04Zm8.068-6.385h1.04v6.385h-1.04v-6.385Zm-4.519 0h1.04v3.972c0 .533.129.938.387 1.213.262.276.635.413 1.119.413.4 0 .747-.106 1.04-.32a2.04 2.04 0 0 0 .687-.879 3.22 3.22 0 0 0 .246-1.293h.387c0 .715-.105 1.326-.314 1.832-.204.507-.495.896-.873 1.167-.373.266-.813.4-1.319.4-.48 0-.9-.089-1.26-.267a1.911 1.911 0 0 1-.84-.806c-.2-.365-.3-.825-.3-1.38v-4.052Zm17.216 6.385v-3.746c0-.609-.147-1.071-.44-1.386-.289-.32-.68-.48-1.173-.48-.578 0-1.02.224-1.327.673-.306.444-.46 1.06-.46 1.846h-.479c0-.573.055-1.075.166-1.506.116-.431.282-.789.5-1.073.218-.289.482-.505.793-.647a2.524 2.524 0 0 1 1.06-.213c.502 0 .931.113 1.286.34.36.222.636.542.827.96.191.417.286.913.286 1.486v3.746h-1.039Zm-8.958 0v-6.372h.893l.12 1.28c.2-.462.48-.818.84-1.067.364-.249.799-.373 1.306-.373.502 0 .931.113 1.286.34.36.222.636.542.827.96.191.417.286.913.286 1.486v3.746h-1.026v-3.746c0-.609-.147-1.071-.44-1.386-.289-.32-.684-.48-1.186-.48-.382 0-.713.104-.993.313-.28.209-.496.509-.647.9-.151.386-.226.848-.226 1.386v3.013h-1.04Zm17.003 0v-3.746c0-.609-.147-1.071-.44-1.386-.289-.32-.684-.48-1.186-.48a1.61 1.61 0 0 0-.993.313c-.28.209-.496.509-.647.9-.151.386-.227.848-.227 1.386h-.4c0-.742.098-1.375.294-1.899.195-.525.48-.925.853-1.2.378-.28.835-.42 1.373-.42.502 0 .931.113 1.286.34.36.222.636.542.827.96.191.417.286.913.286 1.486v3.746h-1.026Zm-4.532 0v-6.372h.893l.146 1.466v4.906h-1.039Zm10.337.16c-.617 0-1.133-.087-1.546-.26-.413-.178-.726-.42-.94-.727a1.967 1.967 0 0 1-.34-1.066h1c.022.404.184.709.487.913.306.2.722.3 1.246.3.275 0 .529-.045.76-.133.231-.089.415-.211.553-.367a.774.774 0 0 0 .207-.527.704.704 0 0 0-.274-.586c-.182-.142-.473-.267-.873-.373l-1.239-.4c-.538-.169-.951-.4-1.24-.693a1.49 1.49 0 0 1-.427-1.067c0-.515.227-.928.68-1.239.453-.311 1.049-.467 1.786-.467.782 0 1.389.16 1.82.48.431.32.655.72.673 1.2h-1.026a.839.839 0 0 0-.427-.634c-.244-.146-.591-.22-1.04-.22-.431 0-.768.098-1.013.294-.24.191-.36.404-.36.64 0 .439.378.764 1.133.973l1.267.426c.546.165.964.38 1.253.647.293.266.44.606.44 1.019 0 .32-.105.623-.314.907-.208.284-.504.515-.886.693-.382.178-.835.267-1.36.267Zm4.551 1.293-.786-.387c.253-.129.466-.271.639-.426a1.07 1.07 0 0 0 .347-.574.912.912 0 0 1-.493-.206.577.577 0 0 1-.2-.46c0-.187.069-.347.206-.48a.762.762 0 0 1 .54-.2c.276 0 .498.1.667.3.169.2.253.438.253.713 0 .324-.1.642-.3.953-.195.316-.486.571-.873.767Zm8.722-1.293a4.24 4.24 0 0 1-1.213-.174 3.56 3.56 0 0 1-1.047-.519 2.54 2.54 0 0 1-.726-.854 2.475 2.475 0 0 1-.267-1.173h1.067c.008.382.111.705.306.967.196.262.456.46.78.593.329.133.695.2 1.1.2.622 0 1.104-.151 1.446-.453a1.45 1.45 0 0 0 .513-1.133c0-.289-.071-.545-.213-.767-.142-.222-.369-.395-.68-.52-.307-.129-.711-.193-1.213-.193h-.946v-.826h.639c.649 0 1.16-.129 1.533-.387.374-.258.56-.613.56-1.066 0-.4-.151-.738-.453-1.013-.302-.276-.733-.414-1.293-.414-.431 0-.815.089-1.153.267-.338.173-.567.493-.686.96h-1.067c.071-.52.24-.94.507-1.26.266-.32.604-.551 1.013-.693.409-.147.862-.22 1.359-.22.556 0 1.051.098 1.487.293.435.196.777.464 1.026.807.253.342.38.735.38 1.179 0 .44-.127.818-.38 1.133-.249.311-.611.551-1.086.72.528.151.959.4 1.293.747.337.346.506.791.506 1.333 0 .48-.126.906-.38 1.279-.248.369-.604.66-1.066.873-.462.209-1.011.314-1.646.314Zm7.875 0c-.657 0-1.233-.16-1.726-.48-.489-.32-.871-.802-1.146-1.447-.271-.644-.407-1.45-.407-2.419 0-.969.136-1.773.407-2.413.275-.644.657-1.124 1.146-1.439.493-.32 1.069-.48 1.726-.48.653 0 1.227.16 1.72.48.493.315.875.795 1.146 1.439.276.64.414 1.444.414 2.413 0 .969-.138 1.775-.414 2.419-.271.645-.653 1.127-1.146 1.447-.493.32-1.067.48-1.72.48Zm0-.96c.72 0 1.267-.293 1.64-.88.373-.591.56-1.426.56-2.506 0-1.08-.187-1.913-.56-2.499-.373-.591-.92-.887-1.64-.887-.711 0-1.255.296-1.633.887-.377.586-.566 1.419-.566 2.499s.189 1.915.566 2.506c.378.587.922.88 1.633.88Zm8.195.96c-.467 0-.873-.107-1.22-.32a2.094 2.094 0 0 1-.793-.933c-.187-.414-.28-.916-.28-1.507h.44c0 .396.082.729.247 1 .164.271.377.478.64.62.266.138.548.207.846.207.32 0 .626-.092.92-.274.293-.186.533-.46.72-.819.186-.36.279-.805.279-1.333 0-.507-.086-.94-.259-1.3a1.959 1.959 0 0 0-.687-.827 1.704 1.704 0 0 0-.96-.286 1.74 1.74 0 0 0-.853.22 1.67 1.67 0 0 0-.646.646c-.165.28-.247.627-.247 1.04h-.44c0-.618.102-1.135.307-1.553.204-.422.482-.74.833-.953a2.23 2.23 0 0 1 1.18-.32c.497 0 .962.133 1.393.4.431.267.779.649 1.046 1.146.267.498.4 1.093.4 1.787 0 .702-.136 1.304-.407 1.806-.266.502-.617.886-1.053 1.153a2.65 2.65 0 0 1-1.406.4Zm-2.893 2.972v-9.504h.867l.173 1.493v8.011h-1.04Zm6.798-3.132 2.413-3.186-2.413-3.199h1.266l1.827 2.412 1.759-2.412h1.267l-2.426 3.199 2.412 3.186h-1.266l-1.826-2.426-1.747 2.426h-1.266Zm13.236 3.279c-.65 0-1.22-.093-1.7-.28-.48-.182-.85-.429-1.12-.74a1.538 1.538 0 0 1-.39-1.02c0-.493.18-.87.54-1.133.36-.257.83-.386 1.4-.386l.58.36c-.48 0-.85.1-1.12.3-.26.2-.39.473-.39.819 0 .347.19.64.56.88.37.24.92.36 1.64.36.53 0 1-.078 1.4-.233.41-.151.72-.351.94-.6.23-.244.34-.509.34-.793 0-.2-.07-.373-.22-.52-.15-.142-.37-.213-.67-.213h-2.48c-.43 0-.81-.065-1.12-.194a1.811 1.811 0 0 1-.72-.519 1.095 1.095 0 0 1-.25-.7c0-.267.07-.493.22-.68.15-.187.35-.329.59-.427.24-.097.5-.146.78-.146l.2.386c-.13 0-.26.031-.4.094a.787.787 0 0 0-.34.266.698.698 0 0 0-.14.44c0 .204.09.376.26.513.17.138.47.207.92.207h2.48c.6 0 1.07.127 1.41.38.35.253.52.606.52 1.06 0 .417-.15.817-.45 1.199-.29.387-.72.702-1.28.947-.55.248-1.22.373-1.99.373Zm.19-5.145c-.49 0-.93-.098-1.33-.294-.39-.195-.7-.469-.93-.82-.23-.351-.34-.757-.34-1.219 0-.467.11-.876.34-1.227.23-.351.54-.622.93-.813.4-.195.84-.293 1.33-.293.47 0 .9.098 1.29.293.39.191.7.462.93.813.23.351.35.76.35 1.227 0 .462-.12.868-.35 1.219-.23.351-.54.625-.93.82-.39.196-.82.294-1.29.294Zm0-.747c.49 0 .87-.151 1.14-.453.27-.302.4-.68.4-1.133 0-.467-.13-.844-.4-1.133-.27-.294-.65-.44-1.14-.44-.49 0-.87.146-1.15.44-.27.289-.41.666-.41 1.133 0 .453.14.831.41 1.133.28.302.66.453 1.15.453Zm2.09-2.906-.49-.2c0-.373.07-.7.22-.98.14-.284.35-.504.62-.659.27-.16.6-.24.97-.24l-.08 1.026c-.4 0-.71.087-.92.26-.21.169-.32.433-.32.793Zm7.32-.866h1.04v6.385h-1.04v-6.385Zm-4.51 0h1.04v3.972c0 .533.12.938.38 1.213.26.276.64.413 1.12.413.4 0 .75-.106 1.04-.32.3-.213.53-.506.69-.879.16-.378.24-.809.24-1.293h.39c0 .715-.1 1.326-.31 1.832-.21.507-.5.896-.88 1.167-.37.266-.81.4-1.31.4-.48 0-.9-.089-1.26-.267a1.911 1.911 0 0 1-.84-.806c-.2-.365-.3-.825-.3-1.38v-4.052Zm10.21 6.545c-.34 0-.65-.067-.93-.2a1.496 1.496 0 0 1-.65-.6c-.16-.267-.24-.6-.24-1v-6.505h1.02v6.478c0 .658.31.987.92.987.19 0 .36-.02.53-.06.17-.04.37-.1.58-.18l.15.746c-.23.098-.46.178-.68.24a2.62 2.62 0 0 1-.7.094Zm-2.85-5.812v-.72h4.07v.72h-4.07Zm7.86 5.812c-.34 0-.65-.067-.93-.2a1.552 1.552 0 0 1-.65-.6c-.16-.267-.24-.6-.24-1v-6.505h1.02v6.478c0 .658.31.987.92.987.19 0 .36-.02.53-.06.17-.04.37-.1.58-.18l.15.746c-.23.098-.46.178-.68.24-.22.063-.46.094-.7.094Zm-2.85-5.812v-.72h4.07v.72h-4.07Zm8.12 5.812c-.55 0-1.04-.14-1.48-.42-.43-.285-.77-.678-1.03-1.18-.25-.502-.37-1.08-.37-1.733 0-.697.12-1.297.37-1.799s.59-.887 1.02-1.153c.44-.271.93-.407 1.49-.407.48 0 .9.098 1.24.293.34.196.62.46.83.793.2.334.35.711.43 1.133.08.418.11.851.07 1.3h-4.61v-.64h3.93l-.31.2c.01-.262 0-.524-.05-.786a2.392 2.392 0 0 0-.23-.72c-.12-.222-.28-.4-.49-.533-.21-.134-.47-.2-.8-.2-.41 0-.75.104-1.02.313-.28.209-.49.484-.62.827-.14.337-.21.704-.21 1.099v.427c0 .444.07.842.2 1.193.14.351.34.629.61.833.27.204.62.307 1.03.307.41 0 .75-.1 1.02-.3.27-.2.43-.496.49-.887h1.08a2.36 2.36 0 0 1-.46 1.093 2.26 2.26 0 0 1-.9.7c-.36.164-.77.247-1.23.247Zm4.63-.16v-6.385h1.04v6.385h-1.04Zm.72-2.88c0-.808.08-1.479.24-2.012.15-.538.38-.938.68-1.2.3-.267.67-.4 1.1-.4.14 0 .27.011.38.033.12.018.24.047.36.087l-.06 1.026c-.13-.04-.26-.073-.41-.1a1.96 1.96 0 0 0-.39-.046c-.38 0-.69.109-.92.326-.23.214-.4.516-.5.907-.1.391-.16.851-.16 1.379h-.32Z"/><defs><clipPath id="a"><path fill="#fff" d="M0 27.256h437.249v181.766H0z"/></clipPath><clipPath id="b"><path fill="#fff" d="M457.249 27.256h582v372.256h-582z"/></clipPath></defs></svg>