<svg xmlns="http://www.w3.org/2000/svg" width="440" height="494" fill="none"><path fill="#fff" d="M125.177 27.378c-1.466 0-2.791-.383-3.976-1.148-1.176-.775-2.114-1.853-2.814-3.234-.7-1.39-1.05-3.015-1.05-4.872 0-1.493.214-2.828.644-4.004.438-1.176 1.045-2.17 1.82-2.982a7.746 7.746 0 0 1 2.702-1.848 8.651 8.651 0 0 1 3.346-.644c1.605 0 2.968.345 4.088 1.036 1.12.69 2.016 1.778 2.688 3.262l-3.024.77c-.514-.775-1.097-1.358-1.75-1.75a3.995 3.995 0 0 0-2.156-.602c-.934 0-1.792.275-2.576.826-.775.541-1.396 1.316-1.862 2.324-.467 1.008-.7 2.212-.7 3.612 0 1.288.2 2.422.602 3.402.401.97.966 1.731 1.694 2.282.728.55 1.582.826 2.562.826.802 0 1.521-.177 2.156-.532.634-.364 1.134-.891 1.498-1.582.373-.7.56-1.55.56-2.548h.714c0 1.503-.182 2.81-.546 3.92-.355 1.11-.915 1.97-1.68 2.576-.756.607-1.736.91-2.94.91Zm4.9-.378-.448-4.046v-3.08l-4.186-.098v-1.932h7.07V27h-2.436Zm12.935.378a5.832 5.832 0 0 1-3.164-.896c-.943-.597-1.699-1.433-2.268-2.506-.56-1.073-.84-2.32-.84-3.738 0-1.493.28-2.772.84-3.836.56-1.064 1.311-1.88 2.254-2.45.952-.57 2.011-.854 3.178-.854 1.073 0 1.992.215 2.758.644a5.16 5.16 0 0 1 1.848 1.736c.476.728.798 1.554.966 2.478.168.915.186 1.862.056 2.842h-9.506v-1.666h7.42l-.644.42a6.707 6.707 0 0 0-.07-1.428 3.991 3.991 0 0 0-.434-1.302 2.452 2.452 0 0 0-.882-.966c-.383-.243-.868-.364-1.456-.364-.728 0-1.344.182-1.848.546-.495.364-.868.854-1.12 1.47-.252.616-.378 1.302-.378 2.058v1.204c0 .812.121 1.53.364 2.156.242.625.606 1.12 1.092 1.484.485.364 1.096.546 1.834.546.709 0 1.297-.163 1.764-.49.476-.336.774-.835.896-1.498h3.038a4.992 4.992 0 0 1-.98 2.31 5.263 5.263 0 0 1-1.974 1.554c-.803.364-1.718.546-2.744.546ZM162.847 27v-7.924c0-1.083-.262-1.9-.784-2.45-.514-.56-1.2-.84-2.058-.84-.7 0-1.316.191-1.848.574-.532.383-.948.952-1.246 1.708-.299.756-.448 1.685-.448 2.786h-1.022c0-1.708.214-3.136.644-4.284.438-1.148 1.054-2.011 1.848-2.59.802-.588 1.75-.882 2.842-.882 1.101 0 2.025.247 2.772.742.756.495 1.325 1.19 1.708 2.086.392.896.588 1.946.588 3.15V27h-2.996Zm-9.38 0V13.476h2.618l.378 2.8V27h-2.996Zm22.937.378a5.834 5.834 0 0 1-3.164-.896c-.943-.597-1.699-1.433-2.268-2.506-.56-1.073-.84-2.32-.84-3.738 0-1.493.28-2.772.84-3.836.56-1.064 1.311-1.88 2.254-2.45.952-.57 2.011-.854 3.178-.854 1.073 0 1.993.215 2.758.644a5.16 5.16 0 0 1 1.848 1.736c.476.728.798 1.554.966 2.478.168.915.187 1.862.056 2.842h-9.506v-1.666h7.42l-.644.42a6.642 6.642 0 0 0-.07-1.428 3.968 3.968 0 0 0-.434-1.302 2.437 2.437 0 0 0-.882-.966c-.383-.243-.868-.364-1.456-.364-.728 0-1.344.182-1.848.546-.495.364-.868.854-1.12 1.47-.252.616-.378 1.302-.378 2.058v1.204c0 .812.121 1.53.364 2.156.243.625.607 1.12 1.092 1.484.485.364 1.097.546 1.834.546.709 0 1.297-.163 1.764-.49.476-.336.775-.835.896-1.498h3.038a4.992 4.992 0 0 1-.98 2.31 5.247 5.247 0 0 1-1.974 1.554c-.803.364-1.717.546-2.744.546ZM186.859 27V13.42h2.996V27h-2.996Zm2.226-5.992c0-1.755.191-3.206.574-4.354.382-1.157.905-2.016 1.568-2.576.662-.57 1.418-.854 2.268-.854.252 0 .48.019.686.056.214.028.429.075.644.14l-.084 2.982a6.62 6.62 0 0 0-.812-.154 4.712 4.712 0 0 0-.77-.07c-.738 0-1.354.191-1.848.574-.486.373-.85.92-1.092 1.638-.243.719-.364 1.591-.364 2.618h-.77ZM206.859 27l-.378-3.206v-5.53c0-1.027-.21-1.778-.63-2.254-.42-.476-1.106-.714-2.058-.714-.551 0-1.031.08-1.442.238a2.103 2.103 0 0 0-.966.714c-.224.308-.336.69-.336 1.148h-3.29c0-1.017.243-1.839.728-2.464.495-.635 1.19-1.097 2.086-1.386.905-.299 1.979-.448 3.22-.448 1.129 0 2.119.187 2.968.56a4.22 4.22 0 0 1 2.002 1.708c.476.775.714 1.773.714 2.996V27h-2.618Zm-4.48.378c-1.148 0-2.105-.2-2.87-.602-.756-.401-1.325-.929-1.708-1.582a4.108 4.108 0 0 1-.574-2.114c0-.868.224-1.591.672-2.17.457-.579 1.092-1.008 1.904-1.288.821-.29 1.778-.434 2.87-.434.728 0 1.423.06 2.086.182.672.112 1.339.27 2.002.476v1.778a10.2 10.2 0 0 0-1.75-.434 10.906 10.906 0 0 0-1.764-.154c-.812 0-1.489.159-2.03.476-.532.308-.798.83-.798 1.568 0 .55.215 1.022.644 1.414.429.392 1.111.588 2.044.588.691 0 1.288-.154 1.792-.462.504-.317.891-.71 1.162-1.176.28-.467.42-.929.42-1.386h.714c0 .952-.187 1.834-.56 2.646a4.645 4.645 0 0 1-1.624 1.946c-.709.485-1.587.728-2.632.728ZM215.11 27V7.82h2.996V27h-2.996Zm19.709-18.004v15.386h7.588V27h-10.584V8.996h2.996Zm13.098 1.806c-.588 0-1.05-.159-1.386-.476-.336-.327-.504-.765-.504-1.316 0-.541.168-.97.504-1.288.336-.317.798-.476 1.386-.476.579 0 1.036.159 1.372.476.336.317.504.747.504 1.288 0 .55-.168.99-.504 1.316-.336.317-.793.476-1.372.476ZM246.419 27V13.42h2.996V27h-2.996Zm14.388.378c-1.297 0-2.408-.182-3.332-.546-.915-.364-1.619-.877-2.114-1.54-.485-.672-.733-1.47-.742-2.394h2.786c.037.719.327 1.25.868 1.596.541.336 1.274.504 2.198.504a3.88 3.88 0 0 0 1.358-.224c.401-.159.714-.369.938-.63.233-.27.35-.57.35-.896 0-.42-.154-.751-.462-.994-.299-.243-.784-.462-1.456-.658l-2.87-.994c-1.083-.373-1.913-.873-2.492-1.498s-.868-1.372-.868-2.24c0-1.13.509-2.04 1.526-2.73s2.371-1.036 4.06-1.036c1.717 0 3.043.369 3.976 1.106.933.737 1.414 1.666 1.442 2.786h-2.842a1.496 1.496 0 0 0-.714-1.134c-.42-.28-1.041-.42-1.862-.42-.756 0-1.349.163-1.778.49-.42.317-.63.681-.63 1.092 0 .719.616 1.255 1.848 1.61l3.066 1.12c1.073.355 1.904.812 2.492 1.372.588.56.882 1.27.882 2.128 0 .71-.238 1.381-.714 2.016-.467.625-1.12 1.134-1.96 1.526-.84.392-1.825.588-2.954.588Zm14.933 0c-.784 0-1.498-.145-2.142-.434a3.607 3.607 0 0 1-1.526-1.344c-.382-.607-.574-1.367-.574-2.282V9.836h2.982V23.22c0 1.185.565 1.778 1.694 1.778a4.69 4.69 0 0 0 1.022-.112 8.434 8.434 0 0 0 1.134-.35l.434 2.114c-.504.205-1.003.378-1.498.518-.485.14-.994.21-1.526.21Zm-6.216-11.9v-2.002h8.806v2.002h-8.806Zm15.111-4.676c-.588 0-1.05-.159-1.386-.476-.336-.327-.504-.765-.504-1.316 0-.541.168-.97.504-1.288.336-.317.798-.476 1.386-.476.578 0 1.036.159 1.372.476.336.317.504.747.504 1.288 0 .55-.168.99-.504 1.316-.336.317-.794.476-1.372.476ZM283.137 27V13.42h2.996V27h-2.996Zm18.769 0v-7.924c0-1.083-.261-1.9-.784-2.45-.513-.56-1.199-.84-2.058-.84-.7 0-1.316.191-1.848.574-.532.383-.947.952-1.246 1.708-.299.756-.448 1.685-.448 2.786H294.5c0-1.708.215-3.136.644-4.284.439-1.148 1.055-2.011 1.848-2.59.803-.588 1.75-.882 2.842-.882 1.101 0 2.025.247 2.772.742.756.495 1.325 1.19 1.708 2.086.392.896.588 1.946.588 3.15V27h-2.996Zm-9.38 0V13.476h2.618l.378 2.8V27h-2.996Zm23.077 6.986c-1.502 0-2.795-.21-3.878-.63-1.073-.41-1.899-.961-2.478-1.652-.578-.681-.868-1.423-.868-2.226 0-.98.355-1.736 1.064-2.268.719-.532 1.629-.798 2.73-.798l2.086.854c-.942 0-1.67.182-2.184.546-.504.373-.756.882-.756 1.526 0 .672.374 1.213 1.12 1.624.756.42 1.811.63 3.164.63.999 0 1.862-.145 2.59-.434.738-.29 1.307-.672 1.708-1.148.402-.467.602-.961.602-1.484 0-.355-.126-.653-.378-.896-.242-.243-.62-.364-1.134-.364h-4.732c-.914 0-1.736-.145-2.464-.434-.718-.29-1.288-.677-1.708-1.162-.42-.485-.63-1.022-.63-1.61 0-.57.159-1.055.476-1.456a2.99 2.99 0 0 1 1.274-.938 4.647 4.647 0 0 1 1.792-.336l.728 1.008c-.28 0-.55.056-.812.168-.252.112-.462.28-.63.504-.168.215-.252.485-.252.812 0 .383.164.7.49.952.336.252.915.378 1.736.378h4.732c1.4 0 2.497.266 3.29.798.803.523 1.204 1.316 1.204 2.38 0 .952-.322 1.857-.966 2.716-.634.868-1.54 1.573-2.716 2.114-1.176.55-2.576.826-4.2.826Zm.238-11.102c-1.064 0-2.034-.2-2.912-.602-.868-.41-1.563-.98-2.086-1.708-.513-.737-.77-1.596-.77-2.576 0-.99.257-1.853.77-2.59a5.152 5.152 0 0 1 2.086-1.708c.878-.401 1.848-.602 2.912-.602 1.036 0 1.988.2 2.856.602.868.401 1.564.97 2.086 1.708.523.737.784 1.6.784 2.59 0 .98-.261 1.839-.784 2.576-.522.728-1.218 1.297-2.086 1.708-.868.401-1.82.602-2.856.602Zm.014-2.1c.906 0 1.592-.266 2.058-.798.476-.532.714-1.195.714-1.988 0-.84-.238-1.517-.714-2.03-.466-.513-1.157-.77-2.072-.77-.886 0-1.572.257-2.058.77-.485.513-.728 1.19-.728 2.03 0 .793.243 1.456.728 1.988.486.532 1.176.798 2.072.798Zm4.69-5.516-1.386-.742c0-.812.178-1.517.532-2.114a3.82 3.82 0 0 1 1.47-1.414c.616-.336 1.307-.504 2.072-.504l-.168 2.884c-.821 0-1.446.154-1.876.462-.429.308-.644.784-.644 1.428Z"/><rect width="434" height="438" x="3" y="53" stroke="#64BAF0" stroke-width="6" rx="23"/><path fill="#fff" d="M33.798 80.318v9.828h4.806V92h-6.93V80.318h2.124ZM41.288 92V80.318h2.125V92h-2.124Zm10.273.252c-.81 0-1.557-.141-2.241-.423a3.863 3.863 0 0 1-1.656-1.287c-.42-.576-.645-1.308-.675-2.196h2.088c0 .45.11.819.333 1.107.222.288.519.504.89.648.379.138.793.207 1.243.207.432 0 .816-.057 1.152-.171.342-.114.609-.276.8-.486.199-.216.298-.471.298-.765 0-.39-.12-.696-.36-.918-.234-.222-.612-.426-1.134-.612l-2.304-.918c-.9-.354-1.59-.765-2.07-1.233-.48-.468-.72-1.113-.72-1.935 0-.948.375-1.716 1.125-2.304.75-.588 1.797-.882 3.14-.882 1.309 0 2.32.306 3.034.918.714.606 1.119 1.452 1.215 2.538H53.63a1.742 1.742 0 0 0-.63-1.107c-.342-.282-.852-.423-1.53-.423-.6 0-1.074.126-1.422.378-.348.246-.522.558-.522.936 0 .324.108.582.324.774.222.186.564.366 1.026.54l2.556.99c.864.336 1.527.759 1.989 1.269.462.51.693 1.149.693 1.917 0 .702-.177 1.311-.531 1.827-.354.51-.87.906-1.548 1.188-.678.282-1.503.423-2.475.423Zm6.564-10.098v-1.836h9.36v1.836H63.39l.477-.486V92h-2.124V81.668l.477.486h-4.095ZM69.974 92V80.318h2.124V92h-2.124Zm6.168-11.682h2.322l5.31 8.334h-.162v-8.334h2.124V92h-2.16l-5.652-8.838h.342V92h-2.124V80.318Zm17.925 11.934a4.605 4.605 0 0 1-2.583-.756c-.768-.504-1.38-1.206-1.836-2.106-.45-.906-.675-1.962-.675-3.168 0-.954.138-1.809.414-2.565a5.74 5.74 0 0 1 1.17-1.935 4.94 4.94 0 0 1 1.755-1.215 5.594 5.594 0 0 1 2.187-.423c1.092 0 2.007.237 2.745.711.744.474 1.323 1.221 1.737 2.241l-2.178.504c-.306-.498-.66-.876-1.062-1.134a2.378 2.378 0 0 0-1.35-.396 2.63 2.63 0 0 0-1.575.513c-.474.336-.852.819-1.134 1.449-.282.63-.423 1.38-.423 2.25 0 .816.123 1.53.369 2.142.252.612.603 1.089 1.053 1.431.45.342.972.513 1.566.513.504 0 .954-.111 1.35-.333.402-.228.717-.552.945-.972.234-.42.35-.927.35-1.521h.469c0 .972-.117 1.815-.351 2.529-.228.714-.585 1.266-1.071 1.656-.486.39-1.11.585-1.872.585ZM97.199 92l-.306-2.574V87.41l-2.628-.054v-1.35h4.662V92h-1.728Zm9.21-9.846v-1.836h9.36v1.836h-4.095l.477-.486V92h-2.124V81.668l.477.486h-4.095Zm10.301-1.836h2.52l2.79 5.022h-.414l2.898-5.022h2.502l-4.158 6.858V92h-2.124v-4.824l-4.014-6.858ZM129.488 92V80.318h4.122c1.314 0 2.337.324 3.069.972.738.648 1.107 1.566 1.107 2.754 0 1.176-.369 2.088-1.107 2.736-.732.648-1.755.972-3.069.972h-1.98V92h-2.142Zm2.142-6.102h1.98c.66 0 1.158-.174 1.494-.522.336-.348.504-.792.504-1.332 0-.552-.168-1.005-.504-1.359-.336-.354-.834-.531-1.494-.531h-1.98v3.744ZM140.685 92V80.318h7.506v1.836h-5.382v3.078h5.058v1.836h-5.058v3.078h5.382V92h-7.506Z"/><rect width="148" height="148" x="30" y="100" stroke="#A83032" stroke-width="4" rx="6"/><path fill="#FF595C" d="M82.263 183.378c-1.241 0-2.38-.215-3.416-.644a5.933 5.933 0 0 1-2.52-1.974c-.644-.887-.985-1.997-1.022-3.332h2.94c0 .737.182 1.344.546 1.82a3.31 3.31 0 0 0 1.442 1.05 5.74 5.74 0 0 0 2.002.336c.719 0 1.353-.103 1.904-.308.56-.205.994-.49 1.302-.854a1.86 1.86 0 0 0 .476-1.26c0-.644-.196-1.153-.588-1.526-.392-.383-1.008-.719-1.848-1.008l-3.444-1.33c-1.419-.541-2.501-1.167-3.248-1.876-.747-.719-1.12-1.708-1.12-2.968 0-1.437.565-2.604 1.694-3.5 1.139-.905 2.73-1.358 4.774-1.358 1.97 0 3.495.457 4.578 1.372 1.083.915 1.699 2.175 1.848 3.78h-2.94c-.13-.747-.476-1.339-1.036-1.778-.55-.439-1.367-.658-2.45-.658-.999 0-1.783.21-2.352.63-.56.42-.84.952-.84 1.596 0 .541.177.971.532 1.288.364.317.924.616 1.68.896l3.878 1.456c1.325.495 2.347 1.139 3.066 1.932.728.784 1.092 1.773 1.092 2.968 0 1.045-.27 1.965-.812 2.758-.532.784-1.316 1.395-2.352 1.834-1.027.439-2.282.658-3.766.658Zm18.071 0c-.989 0-1.838-.215-2.548-.644-.709-.439-1.25-1.092-1.624-1.96-.373-.868-.56-1.951-.56-3.248h1.12c0 .663.15 1.227.448 1.694.3.467.691.826 1.176 1.078a3.51 3.51 0 0 0 1.568.364c.588 0 1.162-.163 1.722-.49.56-.327 1.022-.817 1.386-1.47.364-.663.546-1.489.546-2.478 0-.924-.158-1.717-.476-2.38-.317-.663-.746-1.171-1.288-1.526a3.267 3.267 0 0 0-1.834-.532 3.3 3.3 0 0 0-1.61.406 2.965 2.965 0 0 0-1.19 1.162c-.298.504-.448 1.125-.448 1.862h-1.12c0-1.391.22-2.539.658-3.444.44-.905 1.027-1.577 1.764-2.016a4.647 4.647 0 0 1 2.422-.658 5.68 5.68 0 0 1 3.01.854c.934.56 1.69 1.372 2.268 2.436.579 1.064.868 2.343.868 3.836 0 1.503-.294 2.786-.882 3.85-.578 1.064-1.348 1.881-2.31 2.45a5.875 5.875 0 0 1-3.066.854Zm-6.608 6.244v-20.146h2.478l.518 3.29v16.856h-2.996Zm22.08-6.244c-1.223 0-2.329-.266-3.318-.798-.98-.532-1.76-1.325-2.338-2.38-.579-1.055-.868-2.371-.868-3.948 0-1.605.289-2.935.868-3.99.578-1.055 1.358-1.843 2.338-2.366.989-.532 2.095-.798 3.318-.798 1.222 0 2.319.266 3.29.798.98.523 1.754 1.311 2.324 2.366.578 1.055.868 2.385.868 3.99 0 1.577-.29 2.893-.868 3.948-.57 1.055-1.344 1.848-2.324 2.38-.971.532-2.068.798-3.29.798Zm-.084-2.618c.709 0 1.33-.173 1.862-.518.541-.345.961-.854 1.26-1.526.298-.672.448-1.493.448-2.464 0-1.484-.299-2.613-.896-3.388-.588-.784-1.419-1.176-2.492-1.176-.719 0-1.349.173-1.89.518-.532.345-.948.859-1.246 1.54-.299.681-.448 1.517-.448 2.506 0 1.456.298 2.571.896 3.346.597.775 1.432 1.162 2.506 1.162Zm15.037 2.618c-.784 0-1.498-.145-2.142-.434a3.6 3.6 0 0 1-1.526-1.344c-.383-.607-.574-1.367-.574-2.282v-13.482h2.982v13.384c0 1.185.564 1.778 1.694 1.778.345 0 .686-.037 1.022-.112a8.434 8.434 0 0 0 1.134-.35l.434 2.114c-.504.205-1.004.378-1.498.518-.486.14-.994.21-1.526.21Zm-6.216-11.9v-2.002h8.806v2.002h-8.806Z"/><path fill="#fff" d="M202.906 169.616h2.492l4.2 11.508h-.308l4.2-11.508h2.492L210.634 183h-2.38l-5.348-13.384Zm21.922 13.72c-1.298 0-2.38-.182-3.248-.546-.868-.373-1.526-.882-1.974-1.526-.448-.653-.686-1.4-.714-2.24h2.1c.046.849.387 1.489 1.022 1.918.644.42 1.516.63 2.618.63.578 0 1.11-.093 1.596-.28.485-.187.872-.443 1.162-.77.289-.327.434-.695.434-1.106 0-.523-.192-.933-.574-1.232-.383-.299-.994-.56-1.834-.784l-2.604-.84c-1.13-.355-1.998-.84-2.604-1.456a3.127 3.127 0 0 1-.896-2.24c0-1.083.476-1.951 1.428-2.604s2.202-.98 3.752-.98c1.642 0 2.916.336 3.822 1.008.905.672 1.376 1.512 1.414 2.52h-2.156a1.754 1.754 0 0 0-.896-1.33c-.514-.308-1.242-.462-2.184-.462-.906 0-1.615.205-2.128.616-.504.401-.756.849-.756 1.344 0 .924.793 1.605 2.38 2.044l2.66.896c1.148.345 2.025.798 2.632 1.358.616.56.924 1.274.924 2.142 0 .672-.22 1.307-.658 1.904-.439.597-1.06 1.083-1.862 1.456-.803.373-1.755.56-2.856.56Zm8.607-1.638c0-.439.154-.817.462-1.134.308-.317.695-.476 1.162-.476.466 0 .863.159 1.19.476.326.317.49.695.49 1.134 0 .439-.164.807-.49 1.106a1.7 1.7 0 0 1-1.19.448c-.467 0-.854-.149-1.162-.448a1.51 1.51 0 0 1-.462-1.106Z"/><rect width="148" height="148" x="262" y="100" stroke="#D56E18" stroke-width="4" rx="6"/><path fill="#FF851F" d="M288.157 183.878c-1.577 0-2.949-.383-4.116-1.148-1.166-.765-2.072-1.853-2.716-3.262-.634-1.409-.952-3.089-.952-5.04 0-2.025.336-3.724 1.008-5.096.672-1.381 1.596-2.422 2.772-3.122 1.176-.709 2.511-1.064 4.004-1.064 2.054 0 3.668.504 4.844 1.512 1.186.999 1.956 2.296 2.31 3.892l-3.206.602c-.308-.989-.802-1.787-1.484-2.394-.672-.607-1.493-.91-2.464-.91-.84 0-1.605.247-2.296.742-.69.485-1.241 1.218-1.652 2.198-.401.971-.602 2.184-.602 3.64 0 1.363.173 2.548.518 3.556.355.999.868 1.773 1.54 2.324.682.551 1.512.826 2.492.826 1.242 0 2.208-.331 2.898-.994.7-.663 1.05-1.512 1.05-2.548h3.22c0 1.325-.294 2.455-.882 3.388-.578.933-1.404 1.652-2.478 2.156-1.064.495-2.333.742-3.808.742Zm16.322 0c-1.222 0-2.328-.266-3.318-.798-.98-.532-1.759-1.325-2.338-2.38-.578-1.055-.868-2.371-.868-3.948 0-1.605.29-2.935.868-3.99.579-1.055 1.358-1.843 2.338-2.366.99-.532 2.096-.798 3.318-.798 1.223 0 2.32.266 3.29.798.98.523 1.755 1.311 2.324 2.366.579 1.055.868 2.385.868 3.99 0 1.577-.289 2.893-.868 3.948-.569 1.055-1.344 1.848-2.324 2.38-.97.532-2.067.798-3.29.798Zm-.084-2.618c.71 0 1.33-.173 1.862-.518.542-.345.962-.854 1.26-1.526.299-.672.448-1.493.448-2.464 0-1.484-.298-2.613-.896-3.388-.588-.784-1.418-1.176-2.492-1.176-.718 0-1.348.173-1.89.518-.532.345-.947.859-1.246 1.54-.298.681-.448 1.517-.448 2.506 0 1.456.299 2.571.896 3.346.598.775 1.433 1.162 2.506 1.162Zm19.952 2.24v-7.924c0-1.083-.262-1.899-.784-2.45-.514-.56-1.2-.84-2.058-.84-.7 0-1.316.191-1.848.574-.532.383-.948.952-1.246 1.708-.299.756-.448 1.685-.448 2.786h-1.022c0-1.708.214-3.136.644-4.284.438-1.148 1.054-2.011 1.848-2.59.802-.588 1.75-.882 2.842-.882 1.101 0 2.025.247 2.772.742.756.495 1.325 1.19 1.708 2.086.392.896.588 1.946.588 3.15v7.924h-2.996Zm-9.38 0v-13.524h2.618l.378 2.8V183.5h-2.996Zm21.747.378c-.784 0-1.498-.145-2.142-.434a3.606 3.606 0 0 1-1.526-1.344c-.383-.607-.574-1.367-.574-2.282v-13.482h2.982v13.384c0 1.185.565 1.778 1.694 1.778.345 0 .686-.037 1.022-.112a8.434 8.434 0 0 0 1.134-.35l.434 2.114c-.504.205-1.003.378-1.498.518-.485.14-.994.21-1.526.21Zm-6.216-11.9v-2.002h8.806v2.002h-8.806Zm12.66 11.522v-13.58h2.996v13.58h-2.996Zm2.226-5.992c0-1.755.191-3.206.574-4.354.383-1.157.905-2.016 1.568-2.576.663-.569 1.419-.854 2.268-.854.252 0 .481.019.686.056.215.028.429.075.644.14l-.084 2.982a6.62 6.62 0 0 0-.812-.154 4.68 4.68 0 0 0-.77-.07c-.737 0-1.353.191-1.848.574-.485.373-.849.919-1.092 1.638-.243.719-.364 1.591-.364 2.618h-.77Zm17.074 5.992-.378-3.206v-5.53c0-1.027-.21-1.778-.63-2.254-.42-.476-1.106-.714-2.058-.714-.551 0-1.031.079-1.442.238a2.107 2.107 0 0 0-.966.714c-.224.308-.336.691-.336 1.148h-3.29c0-1.017.243-1.839.728-2.464.495-.635 1.19-1.097 2.086-1.386.905-.299 1.979-.448 3.22-.448 1.129 0 2.119.187 2.968.56a4.218 4.218 0 0 1 2.002 1.708c.476.775.714 1.773.714 2.996v8.638h-2.618Zm-4.48.378c-1.148 0-2.105-.201-2.87-.602-.756-.401-1.325-.929-1.708-1.582a4.107 4.107 0 0 1-.574-2.114c0-.868.224-1.591.672-2.17.457-.579 1.092-1.008 1.904-1.288.821-.289 1.778-.434 2.87-.434a11.6 11.6 0 0 1 2.086.182c.672.112 1.339.271 2.002.476v1.778a10.2 10.2 0 0 0-1.75-.434 10.872 10.872 0 0 0-1.764-.154c-.812 0-1.489.159-2.03.476-.532.308-.798.831-.798 1.568 0 .551.215 1.022.644 1.414.429.392 1.111.588 2.044.588.691 0 1.288-.154 1.792-.462a3.408 3.408 0 0 0 1.162-1.176c.28-.467.42-.929.42-1.386h.714c0 .952-.187 1.834-.56 2.646a4.645 4.645 0 0 1-1.624 1.946c-.709.485-1.587.728-2.632.728Zm17.072 0a5.945 5.945 0 0 1-3.136-.882c-.962-.588-1.741-1.419-2.338-2.492-.588-1.073-.882-2.333-.882-3.78 0-1.531.294-2.823.882-3.878.597-1.064 1.376-1.871 2.338-2.422a6.246 6.246 0 0 1 3.136-.826c.849 0 1.6.135 2.254.406a5.215 5.215 0 0 1 1.694 1.092c.466.457.835.971 1.106 1.54.28.56.466 1.134.56 1.722l-3.038.112c-.168-.644-.476-1.167-.924-1.568-.439-.411-.999-.616-1.68-.616-.57 0-1.106.159-1.61.476-.495.308-.901.789-1.218 1.442-.308.653-.462 1.493-.462 2.52 0 .961.144 1.773.434 2.436.289.653.681 1.153 1.176 1.498a2.963 2.963 0 0 0 1.68.504c.886 0 1.54-.215 1.96-.644.429-.439.644-1.027.644-1.764h3.038c0 .952-.22 1.815-.658 2.59-.439.775-1.078 1.391-1.918 1.848-.831.457-1.844.686-3.038.686Zm14.137 0c-.784 0-1.498-.145-2.142-.434a3.6 3.6 0 0 1-1.526-1.344c-.383-.607-.574-1.367-.574-2.282v-13.482h2.982v13.384c0 1.185.564 1.778 1.694 1.778.345 0 .686-.037 1.022-.112a8.434 8.434 0 0 0 1.134-.35l.434 2.114c-.504.205-1.004.378-1.498.518-.486.14-.994.21-1.526.21Zm-6.216-11.9v-2.002h8.806v2.002h-8.806Z"/><path stroke="#fff" stroke-dasharray="20 24" stroke-width="4" d="M30 270h380"/><path fill="#fff" d="M35.742 308.252c-.81 0-1.557-.141-2.241-.423a3.863 3.863 0 0 1-1.656-1.287c-.42-.576-.645-1.308-.675-2.196h2.088c0 .45.111.819.333 1.107.222.288.519.504.891.648.378.138.792.207 1.242.207.432 0 .816-.057 1.152-.171.342-.114.609-.276.801-.486.198-.216.297-.471.297-.765 0-.39-.12-.696-.36-.918-.234-.222-.612-.426-1.134-.612l-2.304-.918c-.9-.354-1.59-.765-2.07-1.233-.48-.468-.72-1.113-.72-1.935 0-.948.375-1.716 1.125-2.304.75-.588 1.797-.882 3.141-.882 1.308 0 2.319.306 3.033.918.714.606 1.119 1.452 1.215 2.538h-2.088a1.742 1.742 0 0 0-.63-1.107c-.342-.282-.852-.423-1.53-.423-.6 0-1.074.126-1.422.378-.348.246-.522.558-.522.936 0 .324.108.582.324.774.222.186.564.366 1.026.54l2.556.99c.864.336 1.527.759 1.989 1.269.462.51.693 1.149.693 1.917 0 .702-.177 1.311-.531 1.827-.354.51-.87.906-1.548 1.188-.678.282-1.503.423-2.475.423Zm6.852-.252 3.978-11.682h2.664L53.053 308H50.82l-.81-2.52h-4.339l-.828 2.52h-2.25Zm3.618-4.122h3.294l-1.638-5.022-1.656 5.022Zm11.772-7.56v9.828h4.806V308h-6.93v-11.682h2.124ZM65.457 308v-11.682h7.506v1.836H67.58v3.078h5.058v1.836H67.58v3.078h5.382V308h-7.506Zm15.37.252c-.81 0-1.557-.141-2.24-.423a3.863 3.863 0 0 1-1.657-1.287c-.42-.576-.645-1.308-.675-2.196h2.088c0 .45.111.819.333 1.107.222.288.52.504.891.648.378.138.792.207 1.242.207.432 0 .816-.057 1.152-.171.342-.114.61-.276.801-.486.198-.216.297-.471.297-.765 0-.39-.12-.696-.36-.918-.234-.222-.612-.426-1.134-.612l-2.304-.918c-.9-.354-1.59-.765-2.07-1.233-.48-.468-.72-1.113-.72-1.935 0-.948.375-1.716 1.125-2.304.75-.588 1.797-.882 3.141-.882 1.308 0 2.32.306 3.033.918.714.606 1.12 1.452 1.215 2.538h-2.088a1.742 1.742 0 0 0-.63-1.107c-.342-.282-.852-.423-1.53-.423-.6 0-1.074.126-1.422.378-.348.246-.522.558-.522.936 0 .324.108.582.324.774.222.186.564.366 1.026.54l2.556.99c.864.336 1.527.759 1.99 1.269.461.51.692 1.149.692 1.917 0 .702-.177 1.311-.53 1.827-.355.51-.87.906-1.549 1.188-.678.282-1.503.423-2.475.423Zm13.403-11.934h3.042l3.294 7.146h-.18l3.294-7.146h2.934V308h-2.142v-9.234h.324l-3.636 7.956h-1.386l-3.618-7.92h.198V308H94.23v-11.682ZM110.665 308v-11.682h7.506v1.836h-5.382v3.078h5.058v1.836h-5.058v3.078h5.382V308h-7.506Zm9.736-9.846v-1.836h9.36v1.836h-4.095l.477-.486V308h-2.124v-10.332l.477.486h-4.095Zm11.849-1.836h2.124v4.878h5.094v-4.878h2.124V308h-2.124v-4.95h-5.094V308h-2.124v-11.682Zm17.875 11.934c-1.038 0-1.956-.228-2.754-.684-.792-.456-1.413-1.137-1.863-2.043-.45-.906-.675-2.031-.675-3.375 0-1.368.225-2.499.675-3.393.45-.9 1.071-1.569 1.863-2.007.798-.444 1.716-.666 2.754-.666 1.044 0 1.965.228 2.763.684.798.45 1.422 1.125 1.872 2.025.45.9.675 2.019.675 3.357 0 1.362-.225 2.496-.675 3.402-.45.906-1.074 1.584-1.872 2.034-.798.444-1.719.666-2.763.666Zm0-1.926c.954 0 1.71-.36 2.268-1.08.564-.72.846-1.758.846-3.114 0-1.308-.282-2.325-.846-3.051-.558-.726-1.314-1.089-2.268-1.089-.936 0-1.686.366-2.25 1.098-.564.726-.846 1.746-.846 3.06 0 1.35.282 2.385.846 3.105.564.714 1.314 1.071 2.25 1.071Zm8.543-10.008h3.78c1.188 0 2.229.24 3.123.72a5.104 5.104 0 0 1 2.088 2.025c.498.876.747 1.911.747 3.105 0 1.182-.249 2.211-.747 3.087a5.18 5.18 0 0 1-2.088 2.025c-.894.48-1.935.72-3.123.72h-3.78v-11.682Zm2.124 1.926v7.848h1.656c.756 0 1.407-.171 1.953-.513a3.393 3.393 0 0 0 1.269-1.395c.3-.594.45-1.266.45-2.016 0-.762-.15-1.437-.45-2.025a3.333 3.333 0 0 0-1.269-1.386c-.546-.342-1.197-.513-1.953-.513h-1.656Z"/><rect width="148" height="148" x="30" y="316" stroke="#2E48B8" stroke-width="4" rx="6"/><path fill="#5776FF" d="m53.62 399 6.147-18.004h3.738L69.44 399h-3.15l-1.33-4.088h-6.818L56.799 399H53.62Zm5.293-6.356h5.334l-2.66-8.064-2.674 8.064Zm22.913-7.224h2.982V399h-2.982v-13.58Zm-9.38 0h2.996v8.344c0 .952.233 1.671.7 2.156.466.476 1.12.714 1.96.714.7 0 1.33-.182 1.89-.546.57-.373 1.017-.91 1.344-1.61.326-.7.49-1.549.49-2.548h.868c0 1.615-.215 2.968-.644 4.06-.43 1.083-1.027 1.899-1.792 2.45-.766.541-1.657.812-2.674.812-.97 0-1.848-.177-2.632-.532a4.059 4.059 0 0 1-1.834-1.666c-.448-.765-.672-1.764-.672-2.996v-8.638Zm22.738 13.958a5.946 5.946 0 0 1-3.136-.882c-.961-.588-1.74-1.419-2.338-2.492-.588-1.073-.882-2.333-.882-3.78 0-1.531.294-2.823.882-3.878.598-1.064 1.377-1.871 2.338-2.422a6.248 6.248 0 0 1 3.136-.826c.85 0 1.601.135 2.254.406a5.205 5.205 0 0 1 1.694 1.092 5.36 5.36 0 0 1 1.106 1.54c.28.56.467 1.134.56 1.722l-3.038.112c-.168-.644-.476-1.167-.924-1.568-.438-.411-.998-.616-1.68-.616-.569 0-1.106.159-1.61.476-.494.308-.9.789-1.218 1.442-.308.653-.462 1.493-.462 2.52 0 .961.145 1.773.434 2.436.29.653.682 1.153 1.176 1.498a2.963 2.963 0 0 0 1.68.504c.887 0 1.54-.215 1.96-.644.43-.439.644-1.027.644-1.764h3.038c0 .952-.219 1.815-.658 2.59-.438.775-1.078 1.391-1.918 1.848-.83.457-1.843.686-3.038.686Zm14.137 0c-.784 0-1.498-.145-2.142-.434a3.611 3.611 0 0 1-1.526-1.344c-.382-.607-.574-1.367-.574-2.282v-13.482h2.982v13.384c0 1.185.565 1.778 1.694 1.778.346 0 .686-.037 1.022-.112a8.434 8.434 0 0 0 1.134-.35l.434 2.114c-.504.205-1.003.378-1.498.518-.485.14-.994.21-1.526.21Zm-6.216-11.9v-2.002h8.806v2.002h-8.806Zm14.41-4.676c-.588 0-1.05-.159-1.386-.476-.336-.327-.504-.765-.504-1.316 0-.541.168-.971.504-1.288.336-.317.798-.476 1.386-.476.579 0 1.036.159 1.372.476.336.317.504.747.504 1.288 0 .551-.168.989-.504 1.316-.336.317-.793.476-1.372.476ZM116.017 399v-13.58h2.996V399h-2.996Zm13.898.378c-1.223 0-2.329-.266-3.318-.798-.98-.532-1.759-1.325-2.338-2.38-.579-1.055-.868-2.371-.868-3.948 0-1.605.289-2.935.868-3.99.579-1.055 1.358-1.843 2.338-2.366.989-.532 2.095-.798 3.318-.798 1.223 0 2.319.266 3.29.798.98.523 1.755 1.311 2.324 2.366.579 1.055.868 2.385.868 3.99 0 1.577-.289 2.893-.868 3.948-.569 1.055-1.344 1.848-2.324 2.38-.971.532-2.067.798-3.29.798Zm-.084-2.618c.709 0 1.33-.173 1.862-.518.541-.345.961-.854 1.26-1.526.299-.672.448-1.493.448-2.464 0-1.484-.299-2.613-.896-3.388-.588-.784-1.419-1.176-2.492-1.176-.719 0-1.349.173-1.89.518-.532.345-.947.859-1.246 1.54-.299.681-.448 1.517-.448 2.506 0 1.456.299 2.571.896 3.346.597.775 1.433 1.162 2.506 1.162Zm19.951 2.24v-7.924c0-1.083-.261-1.899-.784-2.45-.513-.56-1.199-.84-2.058-.84-.7 0-1.316.191-1.848.574-.532.383-.947.952-1.246 1.708-.298.756-.448 1.685-.448 2.786h-1.022c0-1.708.215-3.136.644-4.284.439-1.148 1.055-2.011 1.848-2.59.803-.588 1.75-.882 2.842-.882 1.102 0 2.026.247 2.772.742.756.495 1.326 1.19 1.708 2.086.392.896.588 1.946.588 3.15V399h-2.996Zm-9.38 0v-13.524h2.618l.378 2.8V399h-2.996Z"/><path fill="#fff" d="M202.906 385.616h2.492l4.2 11.508h-.308l4.2-11.508h2.492L210.634 399h-2.38l-5.348-13.384Zm21.922 13.72c-1.298 0-2.38-.182-3.248-.546-.868-.373-1.526-.882-1.974-1.526-.448-.653-.686-1.4-.714-2.24h2.1c.046.849.387 1.489 1.022 1.918.644.42 1.516.63 2.618.63.578 0 1.11-.093 1.596-.28.485-.187.872-.443 1.162-.77.289-.327.434-.695.434-1.106 0-.523-.192-.933-.574-1.232-.383-.299-.994-.56-1.834-.784l-2.604-.84c-1.13-.355-1.998-.84-2.604-1.456a3.127 3.127 0 0 1-.896-2.24c0-1.083.476-1.951 1.428-2.604s2.202-.98 3.752-.98c1.642 0 2.916.336 3.822 1.008.905.672 1.376 1.512 1.414 2.52h-2.156a1.754 1.754 0 0 0-.896-1.33c-.514-.308-1.242-.462-2.184-.462-.906 0-1.615.205-2.128.616-.504.401-.756.849-.756 1.344 0 .924.793 1.605 2.38 2.044l2.66.896c1.148.345 2.025.798 2.632 1.358.616.56.924 1.274.924 2.142 0 .672-.22 1.307-.658 1.904-.439.597-1.06 1.083-1.862 1.456-.803.373-1.755.56-2.856.56Zm8.607-1.638c0-.439.154-.817.462-1.134.308-.317.695-.476 1.162-.476.466 0 .863.159 1.19.476.326.317.49.695.49 1.134 0 .439-.164.807-.49 1.106a1.7 1.7 0 0 1-1.19.448c-.467 0-.854-.149-1.162-.448a1.51 1.51 0 0 1-.462-1.106Z"/><rect width="148" height="148" x="262" y="316" stroke="#1C7373" stroke-width="4" rx="6"/><path fill="#35B7B7" d="M291.978 399.378c-1.568 0-2.958-.35-4.172-1.05-1.213-.7-2.165-1.745-2.856-3.136-.69-1.391-1.036-3.122-1.036-5.194 0-2.109.346-3.855 1.036-5.236.691-1.381 1.643-2.413 2.856-3.094 1.214-.681 2.604-1.022 4.172-1.022 1.578 0 2.973.35 4.186 1.05 1.223.691 2.175 1.731 2.856 3.122.691 1.381 1.036 3.108 1.036 5.18 0 2.091-.345 3.836-1.036 5.236-.681 1.391-1.633 2.431-2.856 3.122-1.213.681-2.608 1.022-4.186 1.022Zm0-2.73c1.531 0 2.744-.569 3.64-1.708.896-1.148 1.344-2.805 1.344-4.97 0-2.109-.448-3.743-1.344-4.9-.896-1.157-2.109-1.736-3.64-1.736-1.502 0-2.706.583-3.612 1.75-.896 1.157-1.344 2.795-1.344 4.914 0 2.156.448 3.803 1.344 4.942.906 1.139 2.11 1.708 3.612 1.708ZM304.84 399v-15.288c0-.961.187-1.741.56-2.338a3.338 3.338 0 0 1 1.484-1.33 4.687 4.687 0 0 1 2.016-.434c.429 0 .873.033 1.33.098a12.4 12.4 0 0 1 1.358.238l-.574 2.324a4.55 4.55 0 0 0-.77-.21 3.412 3.412 0 0 0-.742-.084c-.271 0-.532.051-.784.154a1.288 1.288 0 0 0-.616.546c-.159.252-.238.611-.238 1.078V399h-3.024Zm-2.058-11.522v-2.002h7.644v2.002h-7.644ZM314.93 399v-15.288c0-.961.187-1.741.56-2.338a3.338 3.338 0 0 1 1.484-1.33 4.687 4.687 0 0 1 2.016-.434c.429 0 .873.033 1.33.098a12.4 12.4 0 0 1 1.358.238l-.574 2.324a4.55 4.55 0 0 0-.77-.21 3.412 3.412 0 0 0-.742-.084c-.271 0-.532.051-.784.154a1.288 1.288 0 0 0-.616.546c-.159.252-.238.611-.238 1.078V399h-3.024Zm-2.058-11.522v-2.002h7.644v2.002h-7.644Zm16.334 11.9a5.837 5.837 0 0 1-3.164-.896c-.943-.597-1.699-1.433-2.268-2.506-.56-1.073-.84-2.319-.84-3.738 0-1.493.28-2.772.84-3.836.56-1.064 1.311-1.881 2.254-2.45.952-.569 2.011-.854 3.178-.854 1.073 0 1.993.215 2.758.644a5.158 5.158 0 0 1 1.848 1.736c.476.728.798 1.554.966 2.478.168.915.187 1.862.056 2.842h-9.506v-1.666h7.42l-.644.42a6.642 6.642 0 0 0-.07-1.428 3.968 3.968 0 0 0-.434-1.302 2.441 2.441 0 0 0-.882-.966c-.383-.243-.868-.364-1.456-.364-.728 0-1.344.182-1.848.546-.495.364-.868.854-1.12 1.47-.252.616-.378 1.302-.378 2.058v1.204c0 .812.121 1.531.364 2.156.243.625.607 1.12 1.092 1.484.485.364 1.097.546 1.834.546.709 0 1.297-.163 1.764-.49.476-.336.775-.835.896-1.498h3.038a4.995 4.995 0 0 1-.98 2.31 5.241 5.241 0 0 1-1.974 1.554c-.803.364-1.717.546-2.744.546Zm9.755-.378v-13.58h2.996V399h-2.996Zm2.226-5.992c0-1.755.191-3.206.574-4.354.382-1.157.905-2.016 1.568-2.576.662-.569 1.418-.854 2.268-.854.252 0 .48.019.686.056.214.028.429.075.644.14l-.084 2.982a6.62 6.62 0 0 0-.812-.154 4.68 4.68 0 0 0-.77-.07c-.738 0-1.354.191-1.848.574-.486.373-.85.919-1.092 1.638-.243.719-.364 1.591-.364 2.618h-.77Zm10.27-10.206c-.588 0-1.05-.159-1.386-.476-.336-.327-.504-.765-.504-1.316 0-.541.168-.971.504-1.288.336-.317.798-.476 1.386-.476.579 0 1.036.159 1.372.476.336.317.504.747.504 1.288 0 .551-.168.989-.504 1.316-.336.317-.793.476-1.372.476ZM349.959 399v-13.58h2.996V399h-2.996Zm18.069 0v-7.924c0-1.083-.261-1.899-.784-2.45-.513-.56-1.199-.84-2.058-.84-.7 0-1.316.191-1.848.574-.532.383-.947.952-1.246 1.708-.298.756-.448 1.685-.448 2.786h-1.022c0-1.708.215-3.136.644-4.284.439-1.148 1.055-2.011 1.848-2.59.803-.588 1.75-.882 2.842-.882 1.102 0 2.026.247 2.772.742.756.495 1.326 1.19 1.708 2.086.392.896.588 1.946.588 3.15V399h-2.996Zm-9.38 0v-13.524h2.618l.378 2.8V399h-2.996Zm22.378 6.986c-1.503 0-2.796-.21-3.878-.63-1.074-.411-1.9-.961-2.478-1.652-.579-.681-.868-1.423-.868-2.226 0-.98.354-1.736 1.064-2.268.718-.532 1.628-.798 2.73-.798l2.086.854c-.943 0-1.671.182-2.184.546-.504.373-.756.882-.756 1.526 0 .672.373 1.213 1.12 1.624.756.42 1.81.63 3.164.63.998 0 1.862-.145 2.59-.434.737-.289 1.306-.672 1.708-1.148.401-.467.602-.961.602-1.484 0-.355-.126-.653-.378-.896-.243-.243-.621-.364-1.134-.364h-4.732c-.915 0-1.736-.145-2.464-.434-.719-.289-1.288-.677-1.708-1.162-.42-.485-.63-1.022-.63-1.61 0-.569.158-1.055.476-1.456.317-.411.742-.723 1.274-.938a4.64 4.64 0 0 1 1.792-.336l.728 1.008c-.28 0-.551.056-.812.168-.252.112-.462.28-.63.504-.168.215-.252.485-.252.812 0 .383.163.7.49.952.336.252.914.378 1.736.378h4.732c1.4 0 2.496.266 3.29.798.802.523 1.204 1.316 1.204 2.38 0 .952-.322 1.857-.966 2.716-.635.868-1.54 1.573-2.716 2.114-1.176.551-2.576.826-4.2.826Zm.238-11.102c-1.064 0-2.035-.201-2.912-.602-.868-.411-1.564-.98-2.086-1.708-.514-.737-.77-1.596-.77-2.576 0-.989.256-1.853.77-2.59.522-.737 1.218-1.307 2.086-1.708.877-.401 1.848-.602 2.912-.602 1.036 0 1.988.201 2.856.602a5.152 5.152 0 0 1 2.086 1.708c.522.737.784 1.601.784 2.59 0 .98-.262 1.839-.784 2.576-.523.728-1.218 1.297-2.086 1.708-.868.401-1.82.602-2.856.602Zm.014-2.1c.905 0 1.591-.266 2.058-.798.476-.532.714-1.195.714-1.988 0-.84-.238-1.517-.714-2.03-.467-.513-1.158-.77-2.072-.77-.887 0-1.573.257-2.058.77-.486.513-.728 1.19-.728 2.03 0 .793.242 1.456.728 1.988.485.532 1.176.798 2.072.798Zm4.69-5.516-1.386-.742c0-.812.177-1.517.532-2.114a3.817 3.817 0 0 1 1.47-1.414c.616-.336 1.306-.504 2.072-.504l-.168 2.884c-.822 0-1.447.154-1.876.462-.43.308-.644.784-.644 1.428Z"/></svg>